%TF.GenerationSoftware,KiCad,Pcbnew,(5.1.4)-1*%
%TF.CreationDate,2019-10-25T20:45:33-07:00*%
%TF.ProjectId,base,62617365-2e6b-4696-9361-645f70636258,rev?*%
%TF.SameCoordinates,Original*%
%TF.FileFunction,Legend,Bot*%
%TF.FilePolarity,Positive*%
%FSLAX46Y46*%
G04 Gerber Fmt 4.6, Leading zero omitted, Abs format (unit mm)*
G04 Created by KiCad (PCBNEW (5.1.4)-1) date 2019-10-25 20:45:33*
%MOMM*%
%LPD*%
G04 APERTURE LIST*
%ADD10C,0.120000*%
%ADD11C,0.050000*%
%ADD12C,0.162560*%
%ADD13C,0.152400*%
%ADD14C,0.142240*%
%ADD15C,0.254000*%
%ADD16C,0.200000*%
%ADD17C,0.050800*%
%ADD18C,0.558800*%
%ADD19C,0.100000*%
%ADD20C,0.127000*%
%ADD21C,0.203200*%
%ADD22C,0.077216*%
%ADD23C,0.115824*%
G04 APERTURE END LIST*
D10*
X138950000Y-118200000D02*
X138951100Y-104239400D01*
X152951100Y-118239400D02*
X138950000Y-118200000D01*
X152951100Y-104239400D02*
X152951100Y-118239400D01*
X138950000Y-104250000D02*
X152951100Y-104239400D01*
X137951100Y-119239400D02*
X137951100Y-103239400D01*
X153951100Y-119239400D02*
X137951100Y-119239400D01*
X153951100Y-103239400D02*
X153951100Y-119239400D01*
X137951100Y-103239400D02*
X153951100Y-103239400D01*
D11*
X166500000Y-93500000D02*
X130500000Y-93500000D01*
X130500000Y-93500000D02*
X130500000Y-127500000D01*
X166500000Y-127500000D02*
X166500000Y-93500000D01*
X130500000Y-127500000D02*
X166500000Y-127500000D01*
D12*
X134705029Y-126504627D02*
X134705029Y-126026623D01*
X134410873Y-126284010D01*
X134410873Y-126173701D01*
X134374103Y-126100162D01*
X134337334Y-126063393D01*
X134263795Y-126026623D01*
X134079947Y-126026623D01*
X134006408Y-126063393D01*
X133969639Y-126100162D01*
X133932869Y-126173701D01*
X133932869Y-126394318D01*
X133969639Y-126467857D01*
X134006408Y-126504627D01*
X134006408Y-125695697D02*
X133969639Y-125658928D01*
X133932869Y-125695697D01*
X133969639Y-125732467D01*
X134006408Y-125695697D01*
X133932869Y-125695697D01*
X134705029Y-125401541D02*
X134705029Y-124923537D01*
X134410873Y-125180924D01*
X134410873Y-125070616D01*
X134374103Y-124997076D01*
X134337334Y-124960307D01*
X134263795Y-124923537D01*
X134079947Y-124923537D01*
X134006408Y-124960307D01*
X133969639Y-124997076D01*
X133932869Y-125070616D01*
X133932869Y-125291233D01*
X133969639Y-125364772D01*
X134006408Y-125401541D01*
X134705029Y-124702920D02*
X133932869Y-124445534D01*
X134705029Y-124188147D01*
X133932869Y-123383088D02*
X134705029Y-123383088D01*
X134705029Y-123088932D01*
X134668260Y-123015393D01*
X134631490Y-122978623D01*
X134557951Y-122941854D01*
X134447642Y-122941854D01*
X134374103Y-122978623D01*
X134337334Y-123015393D01*
X134300564Y-123088932D01*
X134300564Y-123383088D01*
X134705029Y-122280002D02*
X134705029Y-122427080D01*
X134668260Y-122500619D01*
X134631490Y-122537389D01*
X134521181Y-122610928D01*
X134374103Y-122647697D01*
X134079947Y-122647697D01*
X134006408Y-122610928D01*
X133969639Y-122574158D01*
X133932869Y-122500619D01*
X133932869Y-122353541D01*
X133969639Y-122280002D01*
X134006408Y-122243233D01*
X134079947Y-122206463D01*
X134263795Y-122206463D01*
X134337334Y-122243233D01*
X134374103Y-122280002D01*
X134410873Y-122353541D01*
X134410873Y-122500619D01*
X134374103Y-122574158D01*
X134337334Y-122610928D01*
X134263795Y-122647697D01*
X133932869Y-120970088D02*
X134705029Y-120970088D01*
X134705029Y-120675932D01*
X134668260Y-120602393D01*
X134631490Y-120565623D01*
X134557951Y-120528854D01*
X134447642Y-120528854D01*
X134374103Y-120565623D01*
X134337334Y-120602393D01*
X134300564Y-120675932D01*
X134300564Y-120970088D01*
X134705029Y-119830233D02*
X134705029Y-120197928D01*
X134337334Y-120234697D01*
X134374103Y-120197928D01*
X134410873Y-120124389D01*
X134410873Y-119940541D01*
X134374103Y-119867002D01*
X134337334Y-119830233D01*
X134263795Y-119793463D01*
X134079947Y-119793463D01*
X134006408Y-119830233D01*
X133969639Y-119867002D01*
X133932869Y-119940541D01*
X133932869Y-120124389D01*
X133969639Y-120197928D01*
X134006408Y-120234697D01*
X133932869Y-118430088D02*
X134705029Y-118430088D01*
X134705029Y-118135932D01*
X134668260Y-118062393D01*
X134631490Y-118025623D01*
X134557951Y-117988854D01*
X134447642Y-117988854D01*
X134374103Y-118025623D01*
X134337334Y-118062393D01*
X134300564Y-118135932D01*
X134300564Y-118430088D01*
X134447642Y-117327002D02*
X133932869Y-117327002D01*
X134741799Y-117510850D02*
X134190256Y-117694697D01*
X134190256Y-117216694D01*
X133932869Y-115890088D02*
X134705029Y-115890088D01*
X134705029Y-115595932D01*
X134668260Y-115522393D01*
X134631490Y-115485623D01*
X134557951Y-115448854D01*
X134447642Y-115448854D01*
X134374103Y-115485623D01*
X134337334Y-115522393D01*
X134300564Y-115595932D01*
X134300564Y-115890088D01*
X134705029Y-115191467D02*
X134705029Y-114713463D01*
X134410873Y-114970850D01*
X134410873Y-114860541D01*
X134374103Y-114787002D01*
X134337334Y-114750233D01*
X134263795Y-114713463D01*
X134079947Y-114713463D01*
X134006408Y-114750233D01*
X133969639Y-114787002D01*
X133932869Y-114860541D01*
X133932869Y-115081158D01*
X133969639Y-115154697D01*
X134006408Y-115191467D01*
X133932869Y-113223088D02*
X134705029Y-113223088D01*
X134705029Y-112928932D01*
X134668260Y-112855393D01*
X134631490Y-112818623D01*
X134557951Y-112781854D01*
X134447642Y-112781854D01*
X134374103Y-112818623D01*
X134337334Y-112855393D01*
X134300564Y-112928932D01*
X134300564Y-113223088D01*
X134631490Y-112487697D02*
X134668260Y-112450928D01*
X134705029Y-112377389D01*
X134705029Y-112193541D01*
X134668260Y-112120002D01*
X134631490Y-112083233D01*
X134557951Y-112046463D01*
X134484412Y-112046463D01*
X134374103Y-112083233D01*
X133932869Y-112524467D01*
X133932869Y-112046463D01*
X133932869Y-110683088D02*
X134705029Y-110683088D01*
X134705029Y-110388932D01*
X134668260Y-110315393D01*
X134631490Y-110278623D01*
X134557951Y-110241854D01*
X134447642Y-110241854D01*
X134374103Y-110278623D01*
X134337334Y-110315393D01*
X134300564Y-110388932D01*
X134300564Y-110683088D01*
X133932869Y-109506463D02*
X133932869Y-109947697D01*
X133932869Y-109727080D02*
X134705029Y-109727080D01*
X134594720Y-109800619D01*
X134521181Y-109874158D01*
X134484412Y-109947697D01*
X133932869Y-108143088D02*
X134705029Y-108143088D01*
X134705029Y-107848932D01*
X134668260Y-107775393D01*
X134631490Y-107738623D01*
X134557951Y-107701854D01*
X134447642Y-107701854D01*
X134374103Y-107738623D01*
X134337334Y-107775393D01*
X134300564Y-107848932D01*
X134300564Y-108143088D01*
X134705029Y-107223850D02*
X134705029Y-107150311D01*
X134668260Y-107076772D01*
X134631490Y-107040002D01*
X134557951Y-107003233D01*
X134410873Y-106966463D01*
X134227025Y-106966463D01*
X134079947Y-107003233D01*
X134006408Y-107040002D01*
X133969639Y-107076772D01*
X133932869Y-107150311D01*
X133932869Y-107223850D01*
X133969639Y-107297389D01*
X134006408Y-107334158D01*
X134079947Y-107370928D01*
X134227025Y-107407697D01*
X134410873Y-107407697D01*
X134557951Y-107370928D01*
X134631490Y-107334158D01*
X134668260Y-107297389D01*
X134705029Y-107223850D01*
X163116260Y-125899623D02*
X163153029Y-125973162D01*
X163153029Y-126083471D01*
X163116260Y-126193779D01*
X163042720Y-126267318D01*
X162969181Y-126304088D01*
X162822103Y-126340857D01*
X162711795Y-126340857D01*
X162564717Y-126304088D01*
X162491178Y-126267318D01*
X162417639Y-126193779D01*
X162380869Y-126083471D01*
X162380869Y-126009932D01*
X162417639Y-125899623D01*
X162454408Y-125862854D01*
X162711795Y-125862854D01*
X162711795Y-126009932D01*
X162380869Y-125531928D02*
X163153029Y-125531928D01*
X162380869Y-125090694D01*
X163153029Y-125090694D01*
X162380869Y-124722998D02*
X163153029Y-124722998D01*
X163153029Y-124539151D01*
X163116260Y-124428842D01*
X163042720Y-124355303D01*
X162969181Y-124318534D01*
X162822103Y-124281764D01*
X162711795Y-124281764D01*
X162564717Y-124318534D01*
X162491178Y-124355303D01*
X162417639Y-124428842D01*
X162380869Y-124539151D01*
X162380869Y-124722998D01*
X163153029Y-123874396D02*
X162380869Y-123617010D01*
X163153029Y-123359623D01*
X162380869Y-123102236D02*
X163153029Y-123102236D01*
X162380869Y-122734541D02*
X163153029Y-122734541D01*
X162380869Y-122293307D01*
X163153029Y-122293307D01*
X162380869Y-120843088D02*
X163153029Y-120843088D01*
X163153029Y-120548932D01*
X163116260Y-120475393D01*
X163079490Y-120438623D01*
X163005951Y-120401854D01*
X162895642Y-120401854D01*
X162822103Y-120438623D01*
X162785334Y-120475393D01*
X162748564Y-120548932D01*
X162748564Y-120843088D01*
X163153029Y-120144467D02*
X163153029Y-119629694D01*
X162380869Y-119960619D01*
X162380869Y-118430088D02*
X163153029Y-118430088D01*
X163153029Y-118135932D01*
X163116260Y-118062393D01*
X163079490Y-118025623D01*
X163005951Y-117988854D01*
X162895642Y-117988854D01*
X162822103Y-118025623D01*
X162785334Y-118062393D01*
X162748564Y-118135932D01*
X162748564Y-118430088D01*
X162822103Y-117547619D02*
X162858873Y-117621158D01*
X162895642Y-117657928D01*
X162969181Y-117694697D01*
X163005951Y-117694697D01*
X163079490Y-117657928D01*
X163116260Y-117621158D01*
X163153029Y-117547619D01*
X163153029Y-117400541D01*
X163116260Y-117327002D01*
X163079490Y-117290233D01*
X163005951Y-117253463D01*
X162969181Y-117253463D01*
X162895642Y-117290233D01*
X162858873Y-117327002D01*
X162822103Y-117400541D01*
X162822103Y-117547619D01*
X162785334Y-117621158D01*
X162748564Y-117657928D01*
X162675025Y-117694697D01*
X162527947Y-117694697D01*
X162454408Y-117657928D01*
X162417639Y-117621158D01*
X162380869Y-117547619D01*
X162380869Y-117400541D01*
X162417639Y-117327002D01*
X162454408Y-117290233D01*
X162527947Y-117253463D01*
X162675025Y-117253463D01*
X162748564Y-117290233D01*
X162785334Y-117327002D01*
X162822103Y-117400541D01*
X162380869Y-108082854D02*
X162748564Y-108340240D01*
X162380869Y-108524088D02*
X163153029Y-108524088D01*
X163153029Y-108229932D01*
X163116260Y-108156393D01*
X163079490Y-108119623D01*
X163005951Y-108082854D01*
X162895642Y-108082854D01*
X162822103Y-108119623D01*
X162785334Y-108156393D01*
X162748564Y-108229932D01*
X162748564Y-108524088D01*
X162417639Y-107788697D02*
X162380869Y-107678389D01*
X162380869Y-107494541D01*
X162417639Y-107421002D01*
X162454408Y-107384233D01*
X162527947Y-107347463D01*
X162601486Y-107347463D01*
X162675025Y-107384233D01*
X162711795Y-107421002D01*
X162748564Y-107494541D01*
X162785334Y-107641619D01*
X162822103Y-107715158D01*
X162858873Y-107751928D01*
X162932412Y-107788697D01*
X163005951Y-107788697D01*
X163079490Y-107751928D01*
X163116260Y-107715158D01*
X163153029Y-107641619D01*
X163153029Y-107457772D01*
X163116260Y-107347463D01*
X163153029Y-107126846D02*
X163153029Y-106685612D01*
X162380869Y-106906229D02*
X163153029Y-106906229D01*
D13*
X162757757Y-111285382D02*
X162723285Y-111181968D01*
X162688814Y-111147497D01*
X162619871Y-111113025D01*
X162516457Y-111113025D01*
X162447514Y-111147497D01*
X162413042Y-111181968D01*
X162378571Y-111250911D01*
X162378571Y-111526682D01*
X163102471Y-111526682D01*
X163102471Y-111285382D01*
X163068000Y-111216440D01*
X163033528Y-111181968D01*
X162964585Y-111147497D01*
X162895642Y-111147497D01*
X162826700Y-111181968D01*
X162792228Y-111216440D01*
X162757757Y-111285382D01*
X162757757Y-111526682D01*
X163102471Y-110664897D02*
X163102471Y-110527011D01*
X163068000Y-110458068D01*
X162999057Y-110389125D01*
X162861171Y-110354654D01*
X162619871Y-110354654D01*
X162481985Y-110389125D01*
X162413042Y-110458068D01*
X162378571Y-110527011D01*
X162378571Y-110664897D01*
X162413042Y-110733840D01*
X162481985Y-110802782D01*
X162619871Y-110837254D01*
X162861171Y-110837254D01*
X162999057Y-110802782D01*
X163068000Y-110733840D01*
X163102471Y-110664897D01*
X163102471Y-109906525D02*
X163102471Y-109768640D01*
X163068000Y-109699697D01*
X162999057Y-109630754D01*
X162861171Y-109596282D01*
X162619871Y-109596282D01*
X162481985Y-109630754D01*
X162413042Y-109699697D01*
X162378571Y-109768640D01*
X162378571Y-109906525D01*
X162413042Y-109975468D01*
X162481985Y-110044411D01*
X162619871Y-110078882D01*
X162861171Y-110078882D01*
X162999057Y-110044411D01*
X163068000Y-109975468D01*
X163102471Y-109906525D01*
X163102471Y-109389454D02*
X163102471Y-108975797D01*
X162378571Y-109182625D02*
X163102471Y-109182625D01*
D12*
X158226639Y-113767857D02*
X158189869Y-113657549D01*
X158189869Y-113473701D01*
X158226639Y-113400162D01*
X158263408Y-113363393D01*
X158336947Y-113326623D01*
X158410486Y-113326623D01*
X158484025Y-113363393D01*
X158520795Y-113400162D01*
X158557564Y-113473701D01*
X158594334Y-113620779D01*
X158631103Y-113694318D01*
X158667873Y-113731088D01*
X158741412Y-113767857D01*
X158814951Y-113767857D01*
X158888490Y-113731088D01*
X158925260Y-113694318D01*
X158962029Y-113620779D01*
X158962029Y-113436932D01*
X158925260Y-113326623D01*
X158962029Y-113069236D02*
X158189869Y-112885389D01*
X158741412Y-112738311D01*
X158189869Y-112591233D01*
X158962029Y-112407385D01*
X158189869Y-112113229D02*
X158962029Y-112113229D01*
X158962029Y-111929381D01*
X158925260Y-111819073D01*
X158851720Y-111745534D01*
X158778181Y-111708764D01*
X158631103Y-111671995D01*
X158520795Y-111671995D01*
X158373717Y-111708764D01*
X158300178Y-111745534D01*
X158226639Y-111819073D01*
X158189869Y-111929381D01*
X158189869Y-112113229D01*
X158353639Y-111227857D02*
X158316869Y-111117549D01*
X158316869Y-110933701D01*
X158353639Y-110860162D01*
X158390408Y-110823393D01*
X158463947Y-110786623D01*
X158537486Y-110786623D01*
X158611025Y-110823393D01*
X158647795Y-110860162D01*
X158684564Y-110933701D01*
X158721334Y-111080779D01*
X158758103Y-111154318D01*
X158794873Y-111191088D01*
X158868412Y-111227857D01*
X158941951Y-111227857D01*
X159015490Y-111191088D01*
X159052260Y-111154318D01*
X159089029Y-111080779D01*
X159089029Y-110896932D01*
X159052260Y-110786623D01*
X159089029Y-110529236D02*
X158316869Y-110345389D01*
X158868412Y-110198311D01*
X158316869Y-110051233D01*
X159089029Y-109867385D01*
X158390408Y-109131995D02*
X158353639Y-109168764D01*
X158316869Y-109279073D01*
X158316869Y-109352612D01*
X158353639Y-109462920D01*
X158427178Y-109536459D01*
X158500717Y-109573229D01*
X158647795Y-109609998D01*
X158758103Y-109609998D01*
X158905181Y-109573229D01*
X158978720Y-109536459D01*
X159052260Y-109462920D01*
X159089029Y-109352612D01*
X159089029Y-109279073D01*
X159052260Y-109168764D01*
X159015490Y-109131995D01*
X137556893Y-95568830D02*
X137924588Y-95568830D01*
X137924588Y-94796670D01*
X137299506Y-95164365D02*
X137042119Y-95164365D01*
X136931811Y-95568830D02*
X137299506Y-95568830D01*
X137299506Y-94796670D01*
X136931811Y-94796670D01*
X136600885Y-95568830D02*
X136600885Y-94796670D01*
X136417037Y-94796670D01*
X136306729Y-94833440D01*
X136233190Y-94906979D01*
X136196420Y-94980518D01*
X136159651Y-95127596D01*
X136159651Y-95237904D01*
X136196420Y-95384982D01*
X136233190Y-95458521D01*
X136306729Y-95532060D01*
X136417037Y-95568830D01*
X136600885Y-95568830D01*
X135424260Y-95568830D02*
X135865495Y-95568830D01*
X135644877Y-95568830D02*
X135644877Y-94796670D01*
X135718416Y-94906979D01*
X135791956Y-94980518D01*
X135865495Y-95017287D01*
X135093335Y-95164365D02*
X134505022Y-95164365D01*
X134505022Y-95384982D02*
X135093335Y-95384982D01*
X133696093Y-95568830D02*
X133953479Y-95201135D01*
X134137327Y-95568830D02*
X134137327Y-94796670D01*
X133843171Y-94796670D01*
X133769632Y-94833440D01*
X133732862Y-94870209D01*
X133696093Y-94943748D01*
X133696093Y-95054057D01*
X133732862Y-95127596D01*
X133769632Y-95164365D01*
X133843171Y-95201135D01*
X134137327Y-95201135D01*
X133071011Y-95532060D02*
X133144550Y-95568830D01*
X133291628Y-95568830D01*
X133365167Y-95532060D01*
X133401936Y-95458521D01*
X133401936Y-95164365D01*
X133365167Y-95090826D01*
X133291628Y-95054057D01*
X133144550Y-95054057D01*
X133071011Y-95090826D01*
X133034241Y-95164365D01*
X133034241Y-95237904D01*
X133401936Y-95311443D01*
X132372390Y-95568830D02*
X132372390Y-94796670D01*
X132372390Y-95532060D02*
X132445929Y-95568830D01*
X132593007Y-95568830D01*
X132666546Y-95532060D01*
X132703316Y-95495291D01*
X132740085Y-95421752D01*
X132740085Y-95201135D01*
X132703316Y-95127596D01*
X132666546Y-95090826D01*
X132593007Y-95054057D01*
X132445929Y-95054057D01*
X132372390Y-95090826D01*
X137429893Y-96965830D02*
X137797588Y-96965830D01*
X137797588Y-96193670D01*
X137172506Y-96561365D02*
X136915119Y-96561365D01*
X136804811Y-96965830D02*
X137172506Y-96965830D01*
X137172506Y-96193670D01*
X136804811Y-96193670D01*
X136473885Y-96965830D02*
X136473885Y-96193670D01*
X136290037Y-96193670D01*
X136179729Y-96230440D01*
X136106190Y-96303979D01*
X136069420Y-96377518D01*
X136032651Y-96524596D01*
X136032651Y-96634904D01*
X136069420Y-96781982D01*
X136106190Y-96855521D01*
X136179729Y-96929060D01*
X136290037Y-96965830D01*
X136473885Y-96965830D01*
X135738495Y-96267209D02*
X135701725Y-96230440D01*
X135628186Y-96193670D01*
X135444338Y-96193670D01*
X135370799Y-96230440D01*
X135334030Y-96267209D01*
X135297260Y-96340748D01*
X135297260Y-96414287D01*
X135334030Y-96524596D01*
X135775264Y-96965830D01*
X135297260Y-96965830D01*
X134966335Y-96561365D02*
X134378022Y-96561365D01*
X134378022Y-96781982D02*
X134966335Y-96781982D01*
X133605862Y-96230440D02*
X133679401Y-96193670D01*
X133789710Y-96193670D01*
X133900018Y-96230440D01*
X133973557Y-96303979D01*
X134010327Y-96377518D01*
X134047096Y-96524596D01*
X134047096Y-96634904D01*
X134010327Y-96781982D01*
X133973557Y-96855521D01*
X133900018Y-96929060D01*
X133789710Y-96965830D01*
X133716171Y-96965830D01*
X133605862Y-96929060D01*
X133569093Y-96892291D01*
X133569093Y-96634904D01*
X133716171Y-96634904D01*
X133238167Y-96965830D02*
X133238167Y-96451057D01*
X133238167Y-96598135D02*
X133201397Y-96524596D01*
X133164628Y-96487826D01*
X133091089Y-96451057D01*
X133017550Y-96451057D01*
X132466007Y-96929060D02*
X132539546Y-96965830D01*
X132686624Y-96965830D01*
X132760163Y-96929060D01*
X132796933Y-96855521D01*
X132796933Y-96561365D01*
X132760163Y-96487826D01*
X132686624Y-96451057D01*
X132539546Y-96451057D01*
X132466007Y-96487826D01*
X132429237Y-96561365D01*
X132429237Y-96634904D01*
X132796933Y-96708443D01*
X131804156Y-96929060D02*
X131877695Y-96965830D01*
X132024773Y-96965830D01*
X132098312Y-96929060D01*
X132135081Y-96855521D01*
X132135081Y-96561365D01*
X132098312Y-96487826D01*
X132024773Y-96451057D01*
X131877695Y-96451057D01*
X131804156Y-96487826D01*
X131767386Y-96561365D01*
X131767386Y-96634904D01*
X132135081Y-96708443D01*
X131436460Y-96451057D02*
X131436460Y-96965830D01*
X131436460Y-96524596D02*
X131399691Y-96487826D01*
X131326152Y-96451057D01*
X131215843Y-96451057D01*
X131142304Y-96487826D01*
X131105535Y-96561365D01*
X131105535Y-96965830D01*
X137429893Y-98235830D02*
X137797588Y-98235830D01*
X137797588Y-97463670D01*
X137172506Y-97831365D02*
X136915119Y-97831365D01*
X136804811Y-98235830D02*
X137172506Y-98235830D01*
X137172506Y-97463670D01*
X136804811Y-97463670D01*
X136473885Y-98235830D02*
X136473885Y-97463670D01*
X136290037Y-97463670D01*
X136179729Y-97500440D01*
X136106190Y-97573979D01*
X136069420Y-97647518D01*
X136032651Y-97794596D01*
X136032651Y-97904904D01*
X136069420Y-98051982D01*
X136106190Y-98125521D01*
X136179729Y-98199060D01*
X136290037Y-98235830D01*
X136473885Y-98235830D01*
X135775264Y-97463670D02*
X135297260Y-97463670D01*
X135554647Y-97757826D01*
X135444338Y-97757826D01*
X135370799Y-97794596D01*
X135334030Y-97831365D01*
X135297260Y-97904904D01*
X135297260Y-98088752D01*
X135334030Y-98162291D01*
X135370799Y-98199060D01*
X135444338Y-98235830D01*
X135664956Y-98235830D01*
X135738495Y-98199060D01*
X135775264Y-98162291D01*
X134966335Y-97831365D02*
X134378022Y-97831365D01*
X134378022Y-98051982D02*
X134966335Y-98051982D01*
X133752940Y-97831365D02*
X133642632Y-97868135D01*
X133605862Y-97904904D01*
X133569093Y-97978443D01*
X133569093Y-98088752D01*
X133605862Y-98162291D01*
X133642632Y-98199060D01*
X133716171Y-98235830D01*
X134010327Y-98235830D01*
X134010327Y-97463670D01*
X133752940Y-97463670D01*
X133679401Y-97500440D01*
X133642632Y-97537209D01*
X133605862Y-97610748D01*
X133605862Y-97684287D01*
X133642632Y-97757826D01*
X133679401Y-97794596D01*
X133752940Y-97831365D01*
X134010327Y-97831365D01*
X133127858Y-98235830D02*
X133201397Y-98199060D01*
X133238167Y-98125521D01*
X133238167Y-97463670D01*
X132502776Y-97721057D02*
X132502776Y-98235830D01*
X132833702Y-97721057D02*
X132833702Y-98125521D01*
X132796933Y-98199060D01*
X132723394Y-98235830D01*
X132613085Y-98235830D01*
X132539546Y-98199060D01*
X132502776Y-98162291D01*
X131840925Y-98199060D02*
X131914464Y-98235830D01*
X132061542Y-98235830D01*
X132135081Y-98199060D01*
X132171851Y-98125521D01*
X132171851Y-97831365D01*
X132135081Y-97757826D01*
X132061542Y-97721057D01*
X131914464Y-97721057D01*
X131840925Y-97757826D01*
X131804156Y-97831365D01*
X131804156Y-97904904D01*
X132171851Y-97978443D01*
X137429893Y-99632830D02*
X137797588Y-99632830D01*
X137797588Y-98860670D01*
X137172506Y-99228365D02*
X136915119Y-99228365D01*
X136804811Y-99632830D02*
X137172506Y-99632830D01*
X137172506Y-98860670D01*
X136804811Y-98860670D01*
X136473885Y-99632830D02*
X136473885Y-98860670D01*
X136290037Y-98860670D01*
X136179729Y-98897440D01*
X136106190Y-98970979D01*
X136069420Y-99044518D01*
X136032651Y-99191596D01*
X136032651Y-99301904D01*
X136069420Y-99448982D01*
X136106190Y-99522521D01*
X136179729Y-99596060D01*
X136290037Y-99632830D01*
X136473885Y-99632830D01*
X135370799Y-99118057D02*
X135370799Y-99632830D01*
X135554647Y-98823900D02*
X135738495Y-99375443D01*
X135260491Y-99375443D01*
X134966335Y-99228365D02*
X134378022Y-99228365D01*
X134378022Y-99448982D02*
X134966335Y-99448982D01*
X134010327Y-99632830D02*
X134010327Y-98860670D01*
X133201397Y-99632830D02*
X133458784Y-99265135D01*
X133642632Y-99632830D02*
X133642632Y-98860670D01*
X133348476Y-98860670D01*
X133274936Y-98897440D01*
X133238167Y-98934209D01*
X133201397Y-99007748D01*
X133201397Y-99118057D01*
X133238167Y-99191596D01*
X133274936Y-99228365D01*
X133348476Y-99265135D01*
X133642632Y-99265135D01*
D14*
X165424273Y-103480277D02*
X166099913Y-103480277D01*
X165617313Y-103255064D01*
X166099913Y-103029850D01*
X165424273Y-103029850D01*
X165424273Y-102418557D02*
X165778180Y-102418557D01*
X165842526Y-102450730D01*
X165874700Y-102515077D01*
X165874700Y-102643770D01*
X165842526Y-102708117D01*
X165456446Y-102418557D02*
X165424273Y-102482904D01*
X165424273Y-102643770D01*
X165456446Y-102708117D01*
X165520793Y-102740290D01*
X165585140Y-102740290D01*
X165649486Y-102708117D01*
X165681660Y-102643770D01*
X165681660Y-102482904D01*
X165713833Y-102418557D01*
X165424273Y-101807264D02*
X166099913Y-101807264D01*
X165456446Y-101807264D02*
X165424273Y-101871610D01*
X165424273Y-102000304D01*
X165456446Y-102064650D01*
X165488620Y-102096824D01*
X165552966Y-102128997D01*
X165746006Y-102128997D01*
X165810353Y-102096824D01*
X165842526Y-102064650D01*
X165874700Y-102000304D01*
X165874700Y-101871610D01*
X165842526Y-101807264D01*
X165456446Y-101228144D02*
X165424273Y-101292490D01*
X165424273Y-101421184D01*
X165456446Y-101485530D01*
X165520793Y-101517704D01*
X165778180Y-101517704D01*
X165842526Y-101485530D01*
X165874700Y-101421184D01*
X165874700Y-101292490D01*
X165842526Y-101228144D01*
X165778180Y-101195970D01*
X165713833Y-101195970D01*
X165649486Y-101517704D01*
X165424273Y-100391637D02*
X165874700Y-100391637D01*
X166099913Y-100391637D02*
X166067740Y-100423810D01*
X166035566Y-100391637D01*
X166067740Y-100359464D01*
X166099913Y-100391637D01*
X166035566Y-100391637D01*
X165874700Y-100069904D02*
X165424273Y-100069904D01*
X165810353Y-100069904D02*
X165842526Y-100037730D01*
X165874700Y-99973384D01*
X165874700Y-99876864D01*
X165842526Y-99812517D01*
X165778180Y-99780344D01*
X165424273Y-99780344D01*
X166099913Y-98943837D02*
X165552966Y-98943837D01*
X165488620Y-98911664D01*
X165456446Y-98879490D01*
X165424273Y-98815144D01*
X165424273Y-98686450D01*
X165456446Y-98622104D01*
X165488620Y-98589930D01*
X165552966Y-98557757D01*
X166099913Y-98557757D01*
X165456446Y-98268197D02*
X165424273Y-98171677D01*
X165424273Y-98010810D01*
X165456446Y-97946464D01*
X165488620Y-97914290D01*
X165552966Y-97882117D01*
X165617313Y-97882117D01*
X165681660Y-97914290D01*
X165713833Y-97946464D01*
X165746006Y-98010810D01*
X165778180Y-98139504D01*
X165810353Y-98203850D01*
X165842526Y-98236024D01*
X165906873Y-98268197D01*
X165971220Y-98268197D01*
X166035566Y-98236024D01*
X166067740Y-98203850D01*
X166099913Y-98139504D01*
X166099913Y-97978637D01*
X166067740Y-97882117D01*
X165617313Y-97624730D02*
X165617313Y-97302997D01*
X165424273Y-97689077D02*
X166099913Y-97463864D01*
X165424273Y-97238650D01*
X164889180Y-103509064D02*
X164857006Y-103412544D01*
X164824833Y-103380370D01*
X164760486Y-103348197D01*
X164663966Y-103348197D01*
X164599620Y-103380370D01*
X164567446Y-103412544D01*
X164535273Y-103476890D01*
X164535273Y-103734277D01*
X165210913Y-103734277D01*
X165210913Y-103509064D01*
X165178740Y-103444717D01*
X165146566Y-103412544D01*
X165082220Y-103380370D01*
X165017873Y-103380370D01*
X164953526Y-103412544D01*
X164921353Y-103444717D01*
X164889180Y-103509064D01*
X164889180Y-103734277D01*
X164985700Y-102769077D02*
X164535273Y-102769077D01*
X164985700Y-103058637D02*
X164631793Y-103058637D01*
X164567446Y-103026464D01*
X164535273Y-102962117D01*
X164535273Y-102865597D01*
X164567446Y-102801250D01*
X164599620Y-102769077D01*
X164535273Y-102447344D02*
X164985700Y-102447344D01*
X165210913Y-102447344D02*
X165178740Y-102479517D01*
X165146566Y-102447344D01*
X165178740Y-102415170D01*
X165210913Y-102447344D01*
X165146566Y-102447344D01*
X164535273Y-102029090D02*
X164567446Y-102093437D01*
X164631793Y-102125610D01*
X165210913Y-102125610D01*
X164985700Y-101868224D02*
X164985700Y-101610837D01*
X165210913Y-101771704D02*
X164631793Y-101771704D01*
X164567446Y-101739530D01*
X164535273Y-101675184D01*
X164535273Y-101610837D01*
X164535273Y-100870850D02*
X165210913Y-100870850D01*
X164953526Y-100870850D02*
X164985700Y-100806504D01*
X164985700Y-100677810D01*
X164953526Y-100613464D01*
X164921353Y-100581290D01*
X164857006Y-100549117D01*
X164663966Y-100549117D01*
X164599620Y-100581290D01*
X164567446Y-100613464D01*
X164535273Y-100677810D01*
X164535273Y-100806504D01*
X164567446Y-100870850D01*
X164985700Y-100323904D02*
X164535273Y-100163037D01*
X164985700Y-100002170D02*
X164535273Y-100163037D01*
X164374406Y-100227384D01*
X164342233Y-100259557D01*
X164310060Y-100323904D01*
X164535273Y-99230010D02*
X165210913Y-99230010D01*
X164728313Y-99004797D01*
X165210913Y-98779584D01*
X164535273Y-98779584D01*
X164535273Y-98168290D02*
X164889180Y-98168290D01*
X164953526Y-98200464D01*
X164985700Y-98264810D01*
X164985700Y-98393504D01*
X164953526Y-98457850D01*
X164567446Y-98168290D02*
X164535273Y-98232637D01*
X164535273Y-98393504D01*
X164567446Y-98457850D01*
X164631793Y-98490024D01*
X164696140Y-98490024D01*
X164760486Y-98457850D01*
X164792660Y-98393504D01*
X164792660Y-98232637D01*
X164824833Y-98168290D01*
X164567446Y-97556997D02*
X164535273Y-97621344D01*
X164535273Y-97750037D01*
X164567446Y-97814384D01*
X164599620Y-97846557D01*
X164663966Y-97878730D01*
X164857006Y-97878730D01*
X164921353Y-97846557D01*
X164953526Y-97814384D01*
X164985700Y-97750037D01*
X164985700Y-97621344D01*
X164953526Y-97556997D01*
X164535273Y-97267437D02*
X164985700Y-97267437D01*
X164857006Y-97267437D02*
X164921353Y-97235264D01*
X164953526Y-97203090D01*
X164985700Y-97138744D01*
X164985700Y-97074397D01*
X164535273Y-96752664D02*
X164567446Y-96817010D01*
X164599620Y-96849184D01*
X164663966Y-96881357D01*
X164857006Y-96881357D01*
X164921353Y-96849184D01*
X164953526Y-96817010D01*
X164985700Y-96752664D01*
X164985700Y-96656144D01*
X164953526Y-96591797D01*
X164921353Y-96559624D01*
X164857006Y-96527450D01*
X164663966Y-96527450D01*
X164599620Y-96559624D01*
X164567446Y-96591797D01*
X164535273Y-96656144D01*
X164535273Y-96752664D01*
X164889180Y-96012677D02*
X164889180Y-96237890D01*
X164535273Y-96237890D02*
X165210913Y-96237890D01*
X165210913Y-95916157D01*
X164535273Y-95369210D02*
X164889180Y-95369210D01*
X164953526Y-95401384D01*
X164985700Y-95465730D01*
X164985700Y-95594424D01*
X164953526Y-95658770D01*
X164567446Y-95369210D02*
X164535273Y-95433557D01*
X164535273Y-95594424D01*
X164567446Y-95658770D01*
X164631793Y-95690944D01*
X164696140Y-95690944D01*
X164760486Y-95658770D01*
X164792660Y-95594424D01*
X164792660Y-95433557D01*
X164824833Y-95369210D01*
X164535273Y-95047477D02*
X165210913Y-95047477D01*
X164953526Y-95047477D02*
X164985700Y-94983130D01*
X164985700Y-94854437D01*
X164953526Y-94790090D01*
X164921353Y-94757917D01*
X164857006Y-94725744D01*
X164663966Y-94725744D01*
X164599620Y-94757917D01*
X164567446Y-94790090D01*
X164535273Y-94854437D01*
X164535273Y-94983130D01*
X164567446Y-95047477D01*
D15*
X133769100Y-94081600D02*
X138849100Y-94081600D01*
X138849100Y-94081600D02*
X138849100Y-95351600D01*
X138849100Y-99161600D02*
X138849100Y-100431600D01*
X138849100Y-100431600D02*
X133769100Y-100431600D01*
X153327100Y-105638600D02*
X152057100Y-105638600D01*
X150787100Y-105638600D02*
X143675100Y-105638600D01*
X153327100Y-117576600D02*
X143675100Y-117576600D01*
D12*
X153037588Y-119523830D02*
X153037588Y-118751670D01*
X152780201Y-119303213D01*
X152522815Y-118751670D01*
X152522815Y-119523830D01*
X151824194Y-119523830D02*
X151824194Y-119119365D01*
X151860963Y-119045826D01*
X151934502Y-119009057D01*
X152081580Y-119009057D01*
X152155119Y-119045826D01*
X151824194Y-119487060D02*
X151897733Y-119523830D01*
X152081580Y-119523830D01*
X152155119Y-119487060D01*
X152191889Y-119413521D01*
X152191889Y-119339982D01*
X152155119Y-119266443D01*
X152081580Y-119229674D01*
X151897733Y-119229674D01*
X151824194Y-119192904D01*
X151530037Y-119523830D02*
X151125573Y-119009057D01*
X151530037Y-119009057D02*
X151125573Y-119523830D01*
X150316643Y-119009057D02*
X150132796Y-119523830D01*
X149948948Y-119009057D01*
X149544483Y-119523830D02*
X149618022Y-119487060D01*
X149654792Y-119450291D01*
X149691561Y-119376752D01*
X149691561Y-119156135D01*
X149654792Y-119082596D01*
X149618022Y-119045826D01*
X149544483Y-119009057D01*
X149434175Y-119009057D01*
X149360636Y-119045826D01*
X149323866Y-119082596D01*
X149287096Y-119156135D01*
X149287096Y-119376752D01*
X149323866Y-119450291D01*
X149360636Y-119487060D01*
X149434175Y-119523830D01*
X149544483Y-119523830D01*
X148845862Y-119523830D02*
X148919401Y-119487060D01*
X148956171Y-119413521D01*
X148956171Y-118751670D01*
X148662015Y-119009057D02*
X148367858Y-119009057D01*
X148551706Y-118751670D02*
X148551706Y-119413521D01*
X148514936Y-119487060D01*
X148441397Y-119523830D01*
X148367858Y-119523830D01*
X147779546Y-119523830D02*
X147779546Y-119119365D01*
X147816316Y-119045826D01*
X147889855Y-119009057D01*
X148036933Y-119009057D01*
X148110472Y-119045826D01*
X147779546Y-119487060D02*
X147853085Y-119523830D01*
X148036933Y-119523830D01*
X148110472Y-119487060D01*
X148147241Y-119413521D01*
X148147241Y-119339982D01*
X148110472Y-119266443D01*
X148036933Y-119229674D01*
X147853085Y-119229674D01*
X147779546Y-119192904D01*
X147080925Y-119009057D02*
X147080925Y-119634139D01*
X147117695Y-119707678D01*
X147154464Y-119744447D01*
X147228003Y-119781217D01*
X147338312Y-119781217D01*
X147411851Y-119744447D01*
X147080925Y-119487060D02*
X147154464Y-119523830D01*
X147301542Y-119523830D01*
X147375081Y-119487060D01*
X147411851Y-119450291D01*
X147448620Y-119376752D01*
X147448620Y-119156135D01*
X147411851Y-119082596D01*
X147375081Y-119045826D01*
X147301542Y-119009057D01*
X147154464Y-119009057D01*
X147080925Y-119045826D01*
X146419074Y-119487060D02*
X146492613Y-119523830D01*
X146639691Y-119523830D01*
X146713230Y-119487060D01*
X146749999Y-119413521D01*
X146749999Y-119119365D01*
X146713230Y-119045826D01*
X146639691Y-119009057D01*
X146492613Y-119009057D01*
X146419074Y-119045826D01*
X146382304Y-119119365D01*
X146382304Y-119192904D01*
X146749999Y-119266443D01*
X146051378Y-119450291D02*
X146014609Y-119487060D01*
X146051378Y-119523830D01*
X146088148Y-119487060D01*
X146051378Y-119450291D01*
X146051378Y-119523830D01*
X146051378Y-119045826D02*
X146014609Y-119082596D01*
X146051378Y-119119365D01*
X146088148Y-119082596D01*
X146051378Y-119045826D01*
X146051378Y-119119365D01*
X144727676Y-118751670D02*
X145095371Y-118751670D01*
X145132140Y-119119365D01*
X145095371Y-119082596D01*
X145021832Y-119045826D01*
X144837984Y-119045826D01*
X144764445Y-119082596D01*
X144727676Y-119119365D01*
X144690906Y-119192904D01*
X144690906Y-119376752D01*
X144727676Y-119450291D01*
X144764445Y-119487060D01*
X144837984Y-119523830D01*
X145021832Y-119523830D01*
X145095371Y-119487060D01*
X145132140Y-119450291D01*
X144433519Y-119009057D02*
X144249672Y-119523830D01*
X144065824Y-119009057D01*
X158189869Y-115702854D02*
X158557564Y-115960240D01*
X158189869Y-116144088D02*
X158962029Y-116144088D01*
X158962029Y-115849932D01*
X158925260Y-115776393D01*
X158888490Y-115739623D01*
X158814951Y-115702854D01*
X158704642Y-115702854D01*
X158631103Y-115739623D01*
X158594334Y-115776393D01*
X158557564Y-115849932D01*
X158557564Y-116144088D01*
X158226639Y-115408697D02*
X158189869Y-115298389D01*
X158189869Y-115114541D01*
X158226639Y-115041002D01*
X158263408Y-115004233D01*
X158336947Y-114967463D01*
X158410486Y-114967463D01*
X158484025Y-115004233D01*
X158520795Y-115041002D01*
X158557564Y-115114541D01*
X158594334Y-115261619D01*
X158631103Y-115335158D01*
X158667873Y-115371928D01*
X158741412Y-115408697D01*
X158814951Y-115408697D01*
X158888490Y-115371928D01*
X158925260Y-115335158D01*
X158962029Y-115261619D01*
X158962029Y-115077772D01*
X158925260Y-114967463D01*
X158962029Y-114746846D02*
X158962029Y-114305612D01*
X158189869Y-114526229D02*
X158962029Y-114526229D01*
X158925260Y-120946623D02*
X158962029Y-121020162D01*
X158962029Y-121130471D01*
X158925260Y-121240779D01*
X158851720Y-121314318D01*
X158778181Y-121351088D01*
X158631103Y-121387857D01*
X158520795Y-121387857D01*
X158373717Y-121351088D01*
X158300178Y-121314318D01*
X158226639Y-121240779D01*
X158189869Y-121130471D01*
X158189869Y-121056932D01*
X158226639Y-120946623D01*
X158263408Y-120909854D01*
X158520795Y-120909854D01*
X158520795Y-121056932D01*
X158189869Y-120578928D02*
X158962029Y-120578928D01*
X158189869Y-120137694D01*
X158962029Y-120137694D01*
X158189869Y-119769998D02*
X158962029Y-119769998D01*
X158962029Y-119586151D01*
X158925260Y-119475842D01*
X158851720Y-119402303D01*
X158778181Y-119365534D01*
X158631103Y-119328764D01*
X158520795Y-119328764D01*
X158373717Y-119365534D01*
X158300178Y-119402303D01*
X158226639Y-119475842D01*
X158189869Y-119586151D01*
X158189869Y-119769998D01*
X158962029Y-119011627D02*
X158962029Y-118533623D01*
X158667873Y-118791010D01*
X158667873Y-118680701D01*
X158631103Y-118607162D01*
X158594334Y-118570393D01*
X158520795Y-118533623D01*
X158336947Y-118533623D01*
X158263408Y-118570393D01*
X158226639Y-118607162D01*
X158189869Y-118680701D01*
X158189869Y-118901318D01*
X158226639Y-118974857D01*
X158263408Y-119011627D01*
X158263408Y-118202697D02*
X158226639Y-118165928D01*
X158189869Y-118202697D01*
X158226639Y-118239467D01*
X158263408Y-118202697D01*
X158189869Y-118202697D01*
X158962029Y-117908541D02*
X158962029Y-117430537D01*
X158667873Y-117687924D01*
X158667873Y-117577616D01*
X158631103Y-117504076D01*
X158594334Y-117467307D01*
X158520795Y-117430537D01*
X158336947Y-117430537D01*
X158263408Y-117467307D01*
X158226639Y-117504076D01*
X158189869Y-117577616D01*
X158189869Y-117798233D01*
X158226639Y-117871772D01*
X158263408Y-117908541D01*
X158704642Y-117173151D02*
X158189869Y-116989303D01*
X158704642Y-116805456D01*
X162417639Y-114021857D02*
X162380869Y-113911549D01*
X162380869Y-113727701D01*
X162417639Y-113654162D01*
X162454408Y-113617393D01*
X162527947Y-113580623D01*
X162601486Y-113580623D01*
X162675025Y-113617393D01*
X162711795Y-113654162D01*
X162748564Y-113727701D01*
X162785334Y-113874779D01*
X162822103Y-113948318D01*
X162858873Y-113985088D01*
X162932412Y-114021857D01*
X163005951Y-114021857D01*
X163079490Y-113985088D01*
X163116260Y-113948318D01*
X163153029Y-113874779D01*
X163153029Y-113690932D01*
X163116260Y-113580623D01*
X162748564Y-113102619D02*
X162380869Y-113102619D01*
X163153029Y-113360006D02*
X162748564Y-113102619D01*
X163153029Y-112845233D01*
X162380869Y-112587846D02*
X163153029Y-112587846D01*
X162380869Y-112146612D01*
X163153029Y-112146612D01*
X162380869Y-115890088D02*
X163153029Y-115890088D01*
X163153029Y-115595932D01*
X163116260Y-115522393D01*
X163079490Y-115485623D01*
X163005951Y-115448854D01*
X162895642Y-115448854D01*
X162822103Y-115485623D01*
X162785334Y-115522393D01*
X162748564Y-115595932D01*
X162748564Y-115890088D01*
X162380869Y-115081158D02*
X162380869Y-114934080D01*
X162417639Y-114860541D01*
X162454408Y-114823772D01*
X162564717Y-114750233D01*
X162711795Y-114713463D01*
X163005951Y-114713463D01*
X163079490Y-114750233D01*
X163116260Y-114787002D01*
X163153029Y-114860541D01*
X163153029Y-115007619D01*
X163116260Y-115081158D01*
X163079490Y-115117928D01*
X163005951Y-115154697D01*
X162822103Y-115154697D01*
X162748564Y-115117928D01*
X162711795Y-115081158D01*
X162675025Y-115007619D01*
X162675025Y-114860541D01*
X162711795Y-114787002D01*
X162748564Y-114750233D01*
X162822103Y-114713463D01*
X158353639Y-108687857D02*
X158316869Y-108577549D01*
X158316869Y-108393701D01*
X158353639Y-108320162D01*
X158390408Y-108283393D01*
X158463947Y-108246623D01*
X158537486Y-108246623D01*
X158611025Y-108283393D01*
X158647795Y-108320162D01*
X158684564Y-108393701D01*
X158721334Y-108540779D01*
X158758103Y-108614318D01*
X158794873Y-108651088D01*
X158868412Y-108687857D01*
X158941951Y-108687857D01*
X159015490Y-108651088D01*
X159052260Y-108614318D01*
X159089029Y-108540779D01*
X159089029Y-108356932D01*
X159052260Y-108246623D01*
X159089029Y-107989236D02*
X158316869Y-107805389D01*
X158868412Y-107658311D01*
X158316869Y-107511233D01*
X159089029Y-107327385D01*
X159089029Y-106886151D02*
X159089029Y-106739073D01*
X159052260Y-106665534D01*
X158978720Y-106591995D01*
X158831642Y-106555225D01*
X158574256Y-106555225D01*
X158427178Y-106591995D01*
X158353639Y-106665534D01*
X158316869Y-106739073D01*
X158316869Y-106886151D01*
X158353639Y-106959690D01*
X158427178Y-107033229D01*
X158574256Y-107069998D01*
X158831642Y-107069998D01*
X158978720Y-107033229D01*
X159052260Y-106959690D01*
X159089029Y-106886151D01*
D16*
X165250000Y-112850000D02*
X165250000Y-114400000D01*
X165250000Y-121350000D02*
X165250000Y-119800000D01*
X165250000Y-112850000D02*
X162400000Y-112850000D01*
X165250000Y-121350000D02*
X162400000Y-121350000D01*
X160370000Y-121350000D02*
X160370000Y-112850000D01*
D17*
X143121400Y-112128900D02*
X143121400Y-110728900D01*
X140121400Y-112128900D02*
X143121400Y-112128900D01*
X140121400Y-110728900D02*
X140121400Y-112128900D01*
X143121400Y-110728900D02*
X140121400Y-110728900D01*
D18*
X141621400Y-111398400D02*
X141621400Y-111459400D01*
D17*
X148975100Y-105970400D02*
X148975100Y-104570400D01*
X145975100Y-105970400D02*
X148975100Y-105970400D01*
X145975100Y-104570400D02*
X145975100Y-105970400D01*
X148975100Y-104570400D02*
X145975100Y-104570400D01*
D19*
G36*
X147703700Y-105651400D02*
G01*
X147246500Y-105651400D01*
X147246500Y-104889400D01*
X147703700Y-104889400D01*
X147703700Y-105651400D01*
G37*
D20*
X148746100Y-114196400D02*
X148746100Y-108946400D01*
X143396100Y-114196400D02*
X148746100Y-114196400D01*
X143396100Y-108946400D02*
X143396100Y-114196400D01*
X148746100Y-108946400D02*
X143396100Y-108946400D01*
D17*
X149471100Y-108871400D02*
X150871100Y-108871400D01*
X149471100Y-105871400D02*
X149471100Y-108871400D01*
X150871100Y-105871400D02*
X149471100Y-105871400D01*
X150871100Y-108871400D02*
X150871100Y-105871400D01*
D18*
X150201600Y-107371400D02*
X150140600Y-107371400D01*
D20*
X149811100Y-114922400D02*
X149811100Y-116954400D01*
D21*
X148092100Y-114738400D02*
X149192100Y-114738400D01*
X147692100Y-115138400D02*
X148092100Y-114738400D01*
X147692100Y-116738400D02*
X147692100Y-115138400D01*
X148092100Y-117138400D02*
X147692100Y-116738400D01*
X149192100Y-117138400D02*
X148092100Y-117138400D01*
X152692100Y-114738400D02*
X151192100Y-114738400D01*
X152692100Y-117138400D02*
X152692100Y-114738400D01*
X151192100Y-117138400D02*
X152692100Y-117138400D01*
D17*
X147344100Y-116371400D02*
X147344100Y-114971400D01*
X144344100Y-116371400D02*
X147344100Y-116371400D01*
X144344100Y-114971400D02*
X144344100Y-116371400D01*
X147344100Y-114971400D02*
X144344100Y-114971400D01*
D18*
X145844100Y-115640900D02*
X145844100Y-115701900D01*
D17*
X149471100Y-112571400D02*
X150871100Y-112571400D01*
X149471100Y-109571400D02*
X149471100Y-112571400D01*
X150871100Y-109571400D02*
X149471100Y-109571400D01*
X150871100Y-112571400D02*
X150871100Y-109571400D01*
D18*
X150201600Y-111071400D02*
X150140600Y-111071400D01*
D17*
X143021400Y-112428900D02*
X140221400Y-112428900D01*
X143021400Y-113828900D02*
X143021400Y-112428900D01*
X140221400Y-113828900D02*
X143021400Y-113828900D01*
X140221400Y-112428900D02*
X140221400Y-113828900D01*
X148971106Y-107971371D02*
X148971106Y-106571371D01*
X145971106Y-107971371D02*
X148971106Y-107971371D01*
X145971106Y-106571371D02*
X145971106Y-107971371D01*
X148971106Y-106571371D02*
X145971106Y-106571371D01*
D18*
X147471106Y-107240871D02*
X147471106Y-107301871D01*
D20*
X154246100Y-94081600D02*
X165646100Y-94081600D01*
X154246100Y-106081600D02*
X154246100Y-94081600D01*
X165646100Y-106081600D02*
X154246100Y-106081600D01*
X165646100Y-94081600D02*
X165646100Y-106081600D01*
D15*
X161870483Y-117048526D02*
X162777626Y-117048526D01*
X162959055Y-116988050D01*
X163080007Y-116867098D01*
X163140483Y-116685669D01*
X163140483Y-116564717D01*
X161870483Y-118258050D02*
X161870483Y-117653288D01*
X162475245Y-117592812D01*
X162414769Y-117653288D01*
X162354293Y-117774240D01*
X162354293Y-118076621D01*
X162414769Y-118197574D01*
X162475245Y-118258050D01*
X162596198Y-118318526D01*
X162898579Y-118318526D01*
X163019531Y-118258050D01*
X163080007Y-118197574D01*
X163140483Y-118076621D01*
X163140483Y-117774240D01*
X163080007Y-117653288D01*
X163019531Y-117592812D01*
D22*
X142455245Y-109807780D02*
X142473630Y-109789395D01*
X142492015Y-109734241D01*
X142492015Y-109697471D01*
X142473630Y-109642317D01*
X142436860Y-109605547D01*
X142400091Y-109587162D01*
X142326552Y-109568778D01*
X142271398Y-109568778D01*
X142197859Y-109587162D01*
X142161089Y-109605547D01*
X142124320Y-109642317D01*
X142105935Y-109697471D01*
X142105935Y-109734241D01*
X142124320Y-109789395D01*
X142142704Y-109807780D01*
X142492015Y-110175475D02*
X142492015Y-109954858D01*
X142492015Y-110065166D02*
X142105935Y-110065166D01*
X142161089Y-110028397D01*
X142197859Y-109991627D01*
X142216243Y-109954858D01*
X142492015Y-110359322D02*
X142492015Y-110432861D01*
X142473630Y-110469631D01*
X142455245Y-110488016D01*
X142400091Y-110524785D01*
X142326552Y-110543170D01*
X142179474Y-110543170D01*
X142142704Y-110524785D01*
X142124320Y-110506401D01*
X142105935Y-110469631D01*
X142105935Y-110396092D01*
X142124320Y-110359322D01*
X142142704Y-110340938D01*
X142179474Y-110322553D01*
X142271398Y-110322553D01*
X142308167Y-110340938D01*
X142326552Y-110359322D01*
X142344937Y-110396092D01*
X142344937Y-110469631D01*
X142326552Y-110506401D01*
X142308167Y-110524785D01*
X142271398Y-110543170D01*
X148345715Y-104871131D02*
X148161867Y-104742438D01*
X148345715Y-104650514D02*
X147959635Y-104650514D01*
X147959635Y-104797592D01*
X147978020Y-104834361D01*
X147996404Y-104852746D01*
X148033174Y-104871131D01*
X148088328Y-104871131D01*
X148125098Y-104852746D01*
X148143482Y-104834361D01*
X148161867Y-104797592D01*
X148161867Y-104650514D01*
X147959635Y-104999824D02*
X147959635Y-105238826D01*
X148106713Y-105110133D01*
X148106713Y-105165287D01*
X148125098Y-105202057D01*
X148143482Y-105220441D01*
X148180252Y-105238826D01*
X148272176Y-105238826D01*
X148308945Y-105220441D01*
X148327330Y-105202057D01*
X148345715Y-105165287D01*
X148345715Y-105054978D01*
X148327330Y-105018209D01*
X148308945Y-104999824D01*
D23*
X149866739Y-108064702D02*
X149866739Y-108533514D01*
X149839162Y-108588668D01*
X149811585Y-108616245D01*
X149756431Y-108643822D01*
X149646122Y-108643822D01*
X149590968Y-108616245D01*
X149563391Y-108588668D01*
X149535814Y-108533514D01*
X149535814Y-108064702D01*
X149287619Y-108119857D02*
X149260042Y-108092280D01*
X149204888Y-108064702D01*
X149067002Y-108064702D01*
X149011848Y-108092280D01*
X148984271Y-108119857D01*
X148956694Y-108175011D01*
X148956694Y-108230165D01*
X148984271Y-108312897D01*
X149315197Y-108643822D01*
X148956694Y-108643822D01*
D22*
X150877945Y-108623131D02*
X150896330Y-108604746D01*
X150914715Y-108549592D01*
X150914715Y-108512822D01*
X150896330Y-108457668D01*
X150859560Y-108420898D01*
X150822791Y-108402514D01*
X150749252Y-108384129D01*
X150694098Y-108384129D01*
X150620559Y-108402514D01*
X150583789Y-108420898D01*
X150547020Y-108457668D01*
X150528635Y-108512822D01*
X150528635Y-108549592D01*
X150547020Y-108604746D01*
X150565404Y-108623131D01*
X150914715Y-108990826D02*
X150914715Y-108770209D01*
X150914715Y-108880518D02*
X150528635Y-108880518D01*
X150583789Y-108843748D01*
X150620559Y-108806978D01*
X150638943Y-108770209D01*
X150694098Y-109211443D02*
X150675713Y-109174674D01*
X150657328Y-109156289D01*
X150620559Y-109137904D01*
X150602174Y-109137904D01*
X150565404Y-109156289D01*
X150547020Y-109174674D01*
X150528635Y-109211443D01*
X150528635Y-109284982D01*
X150547020Y-109321752D01*
X150565404Y-109340137D01*
X150602174Y-109358521D01*
X150620559Y-109358521D01*
X150657328Y-109340137D01*
X150675713Y-109321752D01*
X150694098Y-109284982D01*
X150694098Y-109211443D01*
X150712482Y-109174674D01*
X150730867Y-109156289D01*
X150767637Y-109137904D01*
X150841176Y-109137904D01*
X150877945Y-109156289D01*
X150896330Y-109174674D01*
X150914715Y-109211443D01*
X150914715Y-109284982D01*
X150896330Y-109321752D01*
X150877945Y-109340137D01*
X150841176Y-109358521D01*
X150767637Y-109358521D01*
X150730867Y-109340137D01*
X150712482Y-109321752D01*
X150694098Y-109284982D01*
X153591219Y-114502245D02*
X153609604Y-114520630D01*
X153664758Y-114539015D01*
X153701528Y-114539015D01*
X153756682Y-114520630D01*
X153793452Y-114483860D01*
X153811837Y-114447091D01*
X153830221Y-114373552D01*
X153830221Y-114318398D01*
X153811837Y-114244859D01*
X153793452Y-114208089D01*
X153756682Y-114171320D01*
X153701528Y-114152935D01*
X153664758Y-114152935D01*
X153609604Y-114171320D01*
X153591219Y-114189704D01*
X153223524Y-114539015D02*
X153444141Y-114539015D01*
X153333833Y-114539015D02*
X153333833Y-114152935D01*
X153370602Y-114208089D01*
X153407372Y-114244859D01*
X153444141Y-114263243D01*
X153076446Y-114189704D02*
X153058061Y-114171320D01*
X153021292Y-114152935D01*
X152929368Y-114152935D01*
X152892598Y-114171320D01*
X152874214Y-114189704D01*
X152855829Y-114226474D01*
X152855829Y-114263243D01*
X152874214Y-114318398D01*
X153094831Y-114539015D01*
X152855829Y-114539015D01*
X147592219Y-114854245D02*
X147610604Y-114872630D01*
X147665758Y-114891015D01*
X147702528Y-114891015D01*
X147757682Y-114872630D01*
X147794452Y-114835860D01*
X147812837Y-114799091D01*
X147831221Y-114725552D01*
X147831221Y-114670398D01*
X147812837Y-114596859D01*
X147794452Y-114560089D01*
X147757682Y-114523320D01*
X147702528Y-114504935D01*
X147665758Y-114504935D01*
X147610604Y-114523320D01*
X147592219Y-114541704D01*
X147224524Y-114891015D02*
X147445141Y-114891015D01*
X147334833Y-114891015D02*
X147334833Y-114504935D01*
X147371602Y-114560089D01*
X147408372Y-114596859D01*
X147445141Y-114615243D01*
X146875214Y-114504935D02*
X147059061Y-114504935D01*
X147077446Y-114688782D01*
X147059061Y-114670398D01*
X147022292Y-114652013D01*
X146930368Y-114652013D01*
X146893598Y-114670398D01*
X146875214Y-114688782D01*
X146856829Y-114725552D01*
X146856829Y-114817476D01*
X146875214Y-114854245D01*
X146893598Y-114872630D01*
X146930368Y-114891015D01*
X147022292Y-114891015D01*
X147059061Y-114872630D01*
X147077446Y-114854245D01*
X151792219Y-111905245D02*
X151810604Y-111923630D01*
X151865758Y-111942015D01*
X151902528Y-111942015D01*
X151957682Y-111923630D01*
X151994452Y-111886860D01*
X152012837Y-111850091D01*
X152031221Y-111776552D01*
X152031221Y-111721398D01*
X152012837Y-111647859D01*
X151994452Y-111611089D01*
X151957682Y-111574320D01*
X151902528Y-111555935D01*
X151865758Y-111555935D01*
X151810604Y-111574320D01*
X151792219Y-111592704D01*
X151424524Y-111942015D02*
X151645141Y-111942015D01*
X151534833Y-111942015D02*
X151534833Y-111555935D01*
X151571602Y-111611089D01*
X151608372Y-111647859D01*
X151645141Y-111666243D01*
X151093598Y-111555935D02*
X151167138Y-111555935D01*
X151203907Y-111574320D01*
X151222292Y-111592704D01*
X151259061Y-111647859D01*
X151277446Y-111721398D01*
X151277446Y-111868476D01*
X151259061Y-111905245D01*
X151240677Y-111923630D01*
X151203907Y-111942015D01*
X151130368Y-111942015D01*
X151093598Y-111923630D01*
X151075214Y-111905245D01*
X151056829Y-111868476D01*
X151056829Y-111776552D01*
X151075214Y-111739782D01*
X151093598Y-111721398D01*
X151130368Y-111703013D01*
X151203907Y-111703013D01*
X151240677Y-111721398D01*
X151259061Y-111739782D01*
X151277446Y-111776552D01*
X142328245Y-111444280D02*
X142346630Y-111425895D01*
X142365015Y-111370741D01*
X142365015Y-111333971D01*
X142346630Y-111278817D01*
X142309860Y-111242047D01*
X142273091Y-111223662D01*
X142199552Y-111205278D01*
X142144398Y-111205278D01*
X142070859Y-111223662D01*
X142034089Y-111242047D01*
X141997320Y-111278817D01*
X141978935Y-111333971D01*
X141978935Y-111370741D01*
X141997320Y-111425895D01*
X142015704Y-111444280D01*
X142015704Y-111591358D02*
X141997320Y-111609742D01*
X141978935Y-111646512D01*
X141978935Y-111738436D01*
X141997320Y-111775205D01*
X142015704Y-111793590D01*
X142052474Y-111811975D01*
X142089243Y-111811975D01*
X142144398Y-111793590D01*
X142365015Y-111572973D01*
X142365015Y-111811975D01*
X141978935Y-112050977D02*
X141978935Y-112087746D01*
X141997320Y-112124516D01*
X142015704Y-112142901D01*
X142052474Y-112161285D01*
X142126013Y-112179670D01*
X142217937Y-112179670D01*
X142291476Y-112161285D01*
X142328245Y-112142901D01*
X142346630Y-112124516D01*
X142365015Y-112087746D01*
X142365015Y-112050977D01*
X142346630Y-112014207D01*
X142328245Y-111995822D01*
X142291476Y-111977438D01*
X142217937Y-111959053D01*
X142126013Y-111959053D01*
X142052474Y-111977438D01*
X142015704Y-111995822D01*
X141997320Y-112014207D01*
X141978935Y-112050977D01*
X149219225Y-106454216D02*
X149237610Y-106472601D01*
X149292764Y-106490986D01*
X149329534Y-106490986D01*
X149384688Y-106472601D01*
X149421458Y-106435831D01*
X149439843Y-106399062D01*
X149458227Y-106325523D01*
X149458227Y-106270369D01*
X149439843Y-106196830D01*
X149421458Y-106160060D01*
X149384688Y-106123291D01*
X149329534Y-106104906D01*
X149292764Y-106104906D01*
X149237610Y-106123291D01*
X149219225Y-106141675D01*
X148851530Y-106490986D02*
X149072147Y-106490986D01*
X148961839Y-106490986D02*
X148961839Y-106104906D01*
X148998608Y-106160060D01*
X149035378Y-106196830D01*
X149072147Y-106215214D01*
X148722837Y-106104906D02*
X148465450Y-106104906D01*
X148630913Y-106490986D01*
D15*
X152382147Y-91790761D02*
X153588647Y-92595095D01*
X152382147Y-92595095D02*
X153588647Y-91790761D01*
X152497052Y-92997261D02*
X152439600Y-93054714D01*
X152382147Y-93169619D01*
X152382147Y-93456880D01*
X152439600Y-93571785D01*
X152497052Y-93629238D01*
X152611957Y-93686690D01*
X152726861Y-93686690D01*
X152899219Y-93629238D01*
X153588647Y-92939809D01*
X153588647Y-93686690D01*
M02*
