%TF.GenerationSoftware,KiCad,Pcbnew,5.0.2-bee76a0~70~ubuntu18.04.1*%
%TF.CreationDate,2020-02-29T17:30:31-08:00*%
%TF.ProjectId,base,62617365-2e6b-4696-9361-645f70636258,rev?*%
%TF.SameCoordinates,Original*%
%TF.FileFunction,Copper,L4,Bot*%
%TF.FilePolarity,Positive*%
%FSLAX46Y46*%
G04 Gerber Fmt 4.6, Leading zero omitted, Abs format (unit mm)*
G04 Created by KiCad (PCBNEW 5.0.2-bee76a0~70~ubuntu18.04.1) date Sat 29 Feb 2020 05:30:31 PM PST*
%MOMM*%
%LPD*%
G01*
G04 APERTURE LIST*
%ADD10C,0.150000*%
%ADD11C,0.750000*%
%ADD12C,1.727200*%
%ADD13R,1.200000X1.000000*%
%ADD14R,1.900000X1.350000*%
%ADD15R,1.170000X1.800000*%
%ADD16R,0.750000X1.100000*%
%ADD17R,0.850000X1.100000*%
%ADD18R,1.550000X1.350000*%
%ADD19R,1.900000X1.900000*%
%ADD20C,1.870000*%
%ADD21R,1.600000X1.400000*%
%ADD22R,0.400000X1.350000*%
%ADD23R,0.300000X1.600000*%
%ADD24R,0.900000X1.800000*%
%ADD25C,0.600000*%
%ADD26C,0.406400*%
%ADD27C,0.250000*%
%ADD28C,0.203200*%
%ADD29C,0.160000*%
%ADD30C,0.127000*%
%ADD31C,0.152400*%
%ADD32C,0.240000*%
G04 APERTURE END LIST*
D10*
X131000500Y-114280540D02*
X131000500Y-118280540D01*
X162651441Y-102162541D02*
X162651441Y-95050541D01*
X161502382Y-105714800D02*
X162651441Y-105714800D01*
X161502382Y-102162541D02*
X162651441Y-102162541D01*
X129851441Y-123050540D02*
G75*
G02X129351441Y-123550540I-500000J0D01*
G01*
X129351441Y-94550541D02*
G75*
G02X129851441Y-95050541I0J-500000D01*
G01*
X162651441Y-95050541D02*
G75*
G02X163151441Y-94550541I500000J0D01*
G01*
X163151441Y-123550540D02*
G75*
G02X162651441Y-123050540I0J500000D01*
G01*
X128351441Y-88050540D02*
X128351441Y-94550540D01*
X163151441Y-94550541D02*
X164151441Y-94550540D01*
X162651441Y-123050540D02*
X162651441Y-105714800D01*
X164151441Y-123550540D02*
X163151441Y-123550540D01*
X164151441Y-94550540D02*
X164151440Y-88050541D01*
X129851441Y-95050541D02*
X129851441Y-114280540D01*
X128351441Y-94550540D02*
X129351441Y-94550541D01*
X128351441Y-130050540D02*
X162651440Y-130050540D01*
X129851441Y-114280540D02*
X131000500Y-114280540D01*
X161502382Y-102162541D02*
X161502382Y-105714800D01*
X162651440Y-88050540D02*
X128351441Y-88050540D01*
X131000500Y-118280540D02*
X129851441Y-118280540D01*
X128351441Y-123550540D02*
X128351441Y-130050540D01*
X129351441Y-123550540D02*
X128351441Y-123550540D01*
X129851441Y-118280540D02*
X129851441Y-123050540D01*
X162651440Y-130050540D02*
X164151440Y-130050540D01*
X164151440Y-88050541D02*
X162651440Y-88050540D01*
X164151440Y-130050540D02*
X164151441Y-123550540D01*
D11*
X163050000Y-89150000D03*
X129450000Y-89150000D03*
X129450000Y-128950000D03*
D12*
X160820100Y-120624600D03*
X160820100Y-118084600D03*
X160820100Y-115544600D03*
X160820100Y-113004600D03*
X160820100Y-110464600D03*
X160820100Y-107924600D03*
D13*
X160393500Y-96703900D03*
X160393500Y-100403900D03*
D14*
X156893500Y-101378900D03*
X150923500Y-101378900D03*
D15*
X148898500Y-90903900D03*
D16*
X150108500Y-90553900D03*
D17*
X151158500Y-90553900D03*
X152258500Y-90553900D03*
X153358500Y-90553900D03*
X154458500Y-90553900D03*
X155558500Y-90553900D03*
X156658500Y-90553900D03*
X157758500Y-90553900D03*
D18*
X160218500Y-90678900D03*
D19*
X156450000Y-128339000D03*
X158850000Y-128339000D03*
D20*
X160950000Y-128339000D03*
X154350000Y-128339000D03*
D21*
X154450000Y-125664000D03*
X160850000Y-125664000D03*
D22*
X156350000Y-125664000D03*
X158950000Y-125664000D03*
X158300000Y-125664000D03*
X157000000Y-125664000D03*
X157650000Y-125664000D03*
D23*
X150501100Y-110311300D03*
X150501100Y-113911500D03*
X150001100Y-110311300D03*
X150001100Y-113911500D03*
X149501100Y-110311300D03*
X149501100Y-113911500D03*
X149001100Y-110311300D03*
X149001100Y-113911500D03*
X148501100Y-110311300D03*
X148501100Y-113911500D03*
X148001100Y-110311300D03*
X148001100Y-113911500D03*
X147501100Y-110311300D03*
X147501100Y-113911500D03*
X147001100Y-110311300D03*
X147001100Y-113911500D03*
X146501100Y-110311300D03*
X146501100Y-113911500D03*
X146001100Y-110311300D03*
X146001100Y-113911500D03*
X145501100Y-110311300D03*
X145501100Y-113911500D03*
X145001100Y-110311300D03*
X145001100Y-113911500D03*
X144501100Y-110311300D03*
X144501100Y-113911500D03*
X144001100Y-110311300D03*
X144001100Y-113911500D03*
X143501100Y-110311300D03*
X143501100Y-113911500D03*
X143001100Y-110311300D03*
X143001100Y-113911500D03*
D24*
X152251100Y-112111400D03*
X140251100Y-112111400D03*
D23*
X142501100Y-110311300D03*
X142501100Y-113911500D03*
X142001100Y-110311300D03*
X142001100Y-113911500D03*
D25*
X156248100Y-121259600D03*
X159369100Y-94158600D03*
X148863000Y-92276900D03*
X148150000Y-123550000D03*
X145834100Y-122656600D03*
X131589000Y-92531000D03*
X135200000Y-122500000D03*
X158900000Y-99950000D03*
X156248100Y-100431600D03*
X157471600Y-100021600D03*
X149800000Y-99150000D03*
X147050000Y-90250000D03*
X139827000Y-113982500D03*
X140779500Y-124206000D03*
X140017500Y-120026711D03*
X137287000Y-118491000D03*
X136334500Y-119253000D03*
X134493000Y-107886500D03*
X134493000Y-107188000D03*
X137096500Y-111061500D03*
X137223500Y-112839500D03*
X139763500Y-107188000D03*
X143002000Y-103949500D03*
X152273000Y-89535000D03*
X152463500Y-92202000D03*
X135953500Y-96329500D03*
X141732000Y-101663504D03*
X138684000Y-101727000D03*
X156337000Y-124523500D03*
X157670500Y-104013000D03*
X149415500Y-101300000D03*
X158851600Y-90614500D03*
X154150000Y-119450000D03*
X139189500Y-121600000D03*
X141675000Y-121225000D03*
X149900000Y-121883309D03*
X142100000Y-119400000D03*
X160900000Y-95700000D03*
X157250000Y-105100000D03*
X139852015Y-109100508D03*
X136779000Y-107569000D03*
X149500000Y-108900000D03*
X146562574Y-111590429D03*
X144257010Y-108904425D03*
X138950000Y-118500000D03*
X151930100Y-121894600D03*
X157924500Y-118237000D03*
X156248100Y-104114600D03*
X157769100Y-97460600D03*
X160169100Y-94158600D03*
X158569100Y-97460600D03*
X156300000Y-117650000D03*
X142750000Y-126700000D03*
X143400000Y-126700000D03*
X139763500Y-108140500D03*
X140716000Y-125793500D03*
X143002000Y-119316500D03*
X134747000Y-121539000D03*
X133223000Y-120078500D03*
X133794500Y-124142500D03*
X147066000Y-95821500D03*
X149225004Y-95250000D03*
X152463500Y-95440500D03*
X153289000Y-95504000D03*
X154432000Y-89535000D03*
X155257500Y-92265500D03*
X148272500Y-99314000D03*
X142811500Y-96139000D03*
X142494000Y-102298500D03*
X141732000Y-102743000D03*
X139255500Y-102235000D03*
X135255000Y-89662000D03*
X155117800Y-118584980D03*
X135700000Y-118550000D03*
X139950000Y-109845600D03*
X143100000Y-115250000D03*
X141700000Y-107350000D03*
X145600000Y-115500000D03*
X148500000Y-115250000D03*
X150750000Y-115250000D03*
X145000000Y-101700000D03*
X143142920Y-128402380D03*
X142350000Y-115300000D03*
X149390100Y-125069600D03*
X150152100Y-125069600D03*
X157769100Y-94158600D03*
X157800000Y-93050000D03*
X140589000Y-120776986D03*
X160121600Y-97637600D03*
X142221604Y-111551579D03*
X141900000Y-115950000D03*
X148526500Y-102050000D03*
X151343682Y-104867182D03*
X154700000Y-96050000D03*
X157350000Y-110450000D03*
X152469100Y-98630900D03*
X151669100Y-98683600D03*
X157200000Y-109350000D03*
X150869100Y-98683600D03*
X151950000Y-100050000D03*
X154022991Y-104298199D03*
X157289500Y-116713006D03*
X133632955Y-110848371D03*
X155151485Y-116800000D03*
X133757078Y-110132033D03*
X157331400Y-115845600D03*
X134175500Y-109537500D03*
X155130516Y-115379500D03*
X133950000Y-108450000D03*
X145350000Y-112000000D03*
X145350000Y-106000000D03*
X143500000Y-105500000D03*
X144100000Y-104900000D03*
X143850000Y-111650000D03*
X144712299Y-111609490D03*
X146550000Y-112650000D03*
X146550000Y-106650000D03*
X146900000Y-108850000D03*
X147289581Y-111592990D03*
X155066509Y-105400000D03*
X148567763Y-111592990D03*
X149500000Y-104350000D03*
X154700000Y-97050000D03*
X152635568Y-104050000D03*
X154950000Y-104250000D03*
X157607004Y-124523500D03*
X158071800Y-123412252D03*
X154300000Y-109750000D03*
X154900000Y-109150000D03*
X149407010Y-106929643D03*
X149150000Y-106150000D03*
X147350000Y-115450000D03*
X146474528Y-115631785D03*
X143100000Y-106200000D03*
X137146799Y-94200000D03*
X142249551Y-105992989D03*
X139750000Y-90750000D03*
X140208000Y-90043000D03*
X141800000Y-105350000D03*
X135191500Y-105473486D03*
X136050000Y-105100000D03*
X136600000Y-104600000D03*
X138557000Y-93027500D03*
X137650000Y-104850000D03*
X155750000Y-122250000D03*
X138112500Y-119253000D03*
X144900000Y-122500000D03*
X133286500Y-109029500D03*
X132588000Y-106489496D03*
X145796034Y-127508000D03*
D26*
X148863000Y-90599900D02*
X148863000Y-92276900D01*
X157471600Y-101378900D02*
X157471600Y-100021600D01*
X157471600Y-100021600D02*
X157471600Y-100021600D01*
D27*
X152265100Y-90553900D02*
X152265100Y-89542900D01*
X152265100Y-89542900D02*
X152273000Y-89535000D01*
D28*
X156350000Y-125664000D02*
X156350000Y-124536500D01*
X156350000Y-124536500D02*
X156337000Y-124523500D01*
D26*
X149444400Y-101328900D02*
X149415500Y-101300000D01*
X151751600Y-101328900D02*
X149444400Y-101328900D01*
X158872000Y-90634900D02*
X158851600Y-90614500D01*
X160274000Y-90634900D02*
X158872000Y-90634900D01*
D29*
X160393500Y-96703900D02*
X160393500Y-96206500D01*
X160393500Y-96206500D02*
X160900000Y-95700000D01*
X149501100Y-110311300D02*
X149501100Y-108901100D01*
X149501100Y-108901100D02*
X149500000Y-108900000D01*
X146001100Y-110311300D02*
X146001100Y-111271300D01*
X146320229Y-111590429D02*
X146562574Y-111590429D01*
X146001100Y-111271300D02*
X146320229Y-111590429D01*
X144001100Y-110311300D02*
X144001100Y-109160335D01*
X144001100Y-109160335D02*
X144257010Y-108904425D01*
D28*
X157696001Y-118465499D02*
X157924500Y-118237000D01*
X154266900Y-121894600D02*
X157696001Y-118465499D01*
X151930100Y-121894600D02*
X154266900Y-121894600D01*
D27*
X154465100Y-90553900D02*
X154465100Y-89568100D01*
X154465100Y-89568100D02*
X154432000Y-89535000D01*
D30*
X145950000Y-113312400D02*
X145951100Y-113311300D01*
D29*
X143451100Y-113311300D02*
X143451100Y-114300155D01*
X143501100Y-113911500D02*
X143501100Y-114848900D01*
X143501100Y-114848900D02*
X143100000Y-115250000D01*
D30*
X146001100Y-113911500D02*
X146001100Y-115098900D01*
X146001100Y-115098900D02*
X145600000Y-115500000D01*
X148501100Y-113911500D02*
X148501100Y-115248900D01*
X148501100Y-115248900D02*
X148500000Y-115250000D01*
X150501100Y-113911500D02*
X150501100Y-115001100D01*
X150501100Y-115001100D02*
X150750000Y-115250000D01*
D29*
X142001100Y-113911500D02*
X142001100Y-114951100D01*
X142001100Y-114951100D02*
X142350000Y-115300000D01*
D28*
X157758500Y-91667700D02*
X157758500Y-90553900D01*
X158586600Y-92495800D02*
X157758500Y-91667700D01*
X157769100Y-94158600D02*
X158586600Y-93341100D01*
X158586600Y-93341100D02*
X158586600Y-92495800D01*
X156819600Y-92069600D02*
X156819600Y-90728800D01*
X157800000Y-93050000D02*
X156819600Y-92069600D01*
D27*
X162150000Y-114214700D02*
X160820100Y-115544600D01*
X162150000Y-107235200D02*
X162150000Y-114214700D01*
X160121600Y-98653600D02*
X161340800Y-99872800D01*
X161340800Y-99872800D02*
X161340800Y-101041200D01*
X161340800Y-101041200D02*
X160274000Y-102108000D01*
X160274000Y-102108000D02*
X160274000Y-105359200D01*
X160121600Y-97637600D02*
X160121600Y-98653600D01*
X160274000Y-105359200D02*
X162150000Y-107235200D01*
D31*
X159956501Y-114681001D02*
X155066999Y-114681001D01*
X140888999Y-120476987D02*
X140589000Y-120776986D01*
X155066999Y-114681001D02*
X149544119Y-120203881D01*
X145677923Y-120322814D02*
X141043172Y-120322814D01*
X141043172Y-120322814D02*
X140888999Y-120476987D01*
X149544119Y-120203881D02*
X145796856Y-120203881D01*
X160820100Y-115544600D02*
X159956501Y-114681001D01*
X145796856Y-120203881D02*
X145677923Y-120322814D01*
D29*
X142221604Y-111975843D02*
X141300000Y-112897447D01*
X142221604Y-111551579D02*
X142221604Y-111975843D01*
X141300000Y-112897447D02*
X141300000Y-115350000D01*
X141300000Y-115350000D02*
X141900000Y-115950000D01*
D31*
X151343682Y-104867182D02*
X148526500Y-102050000D01*
D28*
X155558500Y-91398100D02*
X155558500Y-90553900D01*
X156386600Y-92226200D02*
X155558500Y-91398100D01*
X156386600Y-94363400D02*
X156386600Y-92226200D01*
X154600000Y-96150000D02*
X154700000Y-96050000D01*
X154700000Y-96050000D02*
X156386600Y-94363400D01*
X152469100Y-96219100D02*
X152469100Y-98630900D01*
X151350000Y-95100000D02*
X152469100Y-96219100D01*
X151384000Y-90474800D02*
X151350000Y-90508800D01*
X151350000Y-90508800D02*
X151350000Y-95100000D01*
D29*
X157797500Y-110002500D02*
X157350000Y-110450000D01*
X157797500Y-109700000D02*
X157797500Y-110002500D01*
D28*
X157797500Y-109700000D02*
X157797500Y-109855000D01*
X154113500Y-108013500D02*
X156845000Y-108013500D01*
X157797500Y-109531711D02*
X157797500Y-109700000D01*
X157797500Y-108966000D02*
X157797500Y-109531711D01*
X153494389Y-107394389D02*
X154113500Y-108013500D01*
X153494389Y-99708889D02*
X153494389Y-107394389D01*
X152469100Y-98683600D02*
X153494389Y-99708889D01*
X156845000Y-108013500D02*
X157797500Y-108966000D01*
X150108500Y-91739300D02*
X150108500Y-90553900D01*
X150936600Y-92567400D02*
X150108500Y-91739300D01*
X150936600Y-95436600D02*
X150936600Y-92567400D01*
X151669100Y-98630900D02*
X151669100Y-96169100D01*
X151669100Y-96169100D02*
X150936600Y-95436600D01*
D29*
X156732264Y-108458000D02*
X156400500Y-108458000D01*
X157200000Y-108925736D02*
X156732264Y-108458000D01*
X157200000Y-109350000D02*
X157200000Y-108925736D01*
D28*
X153164178Y-107764178D02*
X153858000Y-108458000D01*
X153164178Y-100178678D02*
X153164178Y-107764178D01*
X153858000Y-108458000D02*
X156400500Y-108458000D01*
X151669100Y-98683600D02*
X153164178Y-100178678D01*
X151950000Y-99764500D02*
X150869100Y-98683600D01*
X151950000Y-100050000D02*
X151950000Y-99764500D01*
D31*
X158546800Y-101904800D02*
X157988000Y-102463600D01*
X158546800Y-101193600D02*
X158546800Y-101904800D01*
X155857590Y-102463600D02*
X154322990Y-103998200D01*
X157988000Y-102463600D02*
X155857590Y-102463600D01*
X160426400Y-100403900D02*
X159336500Y-100403900D01*
X159336500Y-100403900D02*
X158546800Y-101193600D01*
X154322990Y-103998200D02*
X154022991Y-104298199D01*
X142663620Y-123190000D02*
X144413164Y-121440456D01*
X151419731Y-121380099D02*
X156086824Y-116713006D01*
X137922000Y-123190000D02*
X142663620Y-123190000D01*
X156086824Y-116713006D02*
X156865236Y-116713006D01*
X156865236Y-116713006D02*
X157289500Y-116713006D01*
X146201222Y-121380099D02*
X151419731Y-121380099D01*
X146140865Y-121440456D02*
X146201222Y-121380099D01*
X144413164Y-121440456D02*
X146140865Y-121440456D01*
X133794500Y-119062500D02*
X137922000Y-123190000D01*
D30*
X133794500Y-110744000D02*
X133737326Y-110744000D01*
X133632955Y-118900955D02*
X133632955Y-111272635D01*
X133737326Y-110744000D02*
X133632955Y-110848371D01*
X133794500Y-119062500D02*
X133632955Y-118900955D01*
X133632955Y-111272635D02*
X133632955Y-110848371D01*
D31*
X134222702Y-118982702D02*
X138049000Y-122809000D01*
X138049000Y-122809000D02*
X142367000Y-122809000D01*
X146131319Y-121054856D02*
X150896629Y-121054856D01*
X142367000Y-122809000D02*
X144014955Y-121161045D01*
X146025130Y-121161045D02*
X146131319Y-121054856D01*
X144014955Y-121161045D02*
X146025130Y-121161045D01*
X154903307Y-117048178D02*
X155170006Y-116781479D01*
X150896629Y-121054856D02*
X154903307Y-117048178D01*
X134222702Y-110500000D02*
X134222702Y-118982702D01*
D29*
X134154734Y-110432032D02*
X134222702Y-110500000D01*
X134057077Y-110432032D02*
X134154734Y-110432032D01*
X133757078Y-110132033D02*
X134057077Y-110432032D01*
D31*
X134505911Y-109867911D02*
X134505911Y-118630911D01*
X150493328Y-120762701D02*
X154648284Y-116607745D01*
X142122000Y-122428000D02*
X143668367Y-120881634D01*
X145909395Y-120881634D02*
X146028326Y-120762703D01*
X155382747Y-115824000D02*
X157353000Y-115824000D01*
X154648284Y-116558463D02*
X155382747Y-115824000D01*
X154648284Y-116607745D02*
X154648284Y-116558463D01*
X146028326Y-120762703D02*
X150493328Y-120762701D01*
X138303000Y-122428000D02*
X142122000Y-122428000D01*
X134505911Y-118630911D02*
X138303000Y-122428000D01*
X143668367Y-120881634D02*
X145909395Y-120881634D01*
X134175500Y-109537500D02*
X134505911Y-109867911D01*
D30*
X134781523Y-108857259D02*
X134781523Y-109150000D01*
X134374264Y-108450000D02*
X134781523Y-108857259D01*
X133950000Y-108450000D02*
X134374264Y-108450000D01*
D31*
X134781523Y-109000523D02*
X134781523Y-109150000D01*
X154830517Y-115679499D02*
X155130516Y-115379500D01*
X134785322Y-118418250D02*
X138470273Y-122103201D01*
X143504595Y-120602223D02*
X145793660Y-120602223D01*
X145912591Y-120483292D02*
X150026724Y-120483292D01*
X138470273Y-122103201D02*
X142003617Y-122103201D01*
X142003617Y-122103201D02*
X143504595Y-120602223D01*
X145793660Y-120602223D02*
X145912591Y-120483292D01*
X134781523Y-109150000D02*
X134785322Y-109153799D01*
X150026724Y-120483292D02*
X154830517Y-115679499D01*
X134785322Y-109153799D02*
X134785322Y-118418250D01*
D30*
X143992232Y-113352432D02*
X143951100Y-113311300D01*
X144001100Y-113911500D02*
X144001100Y-112748900D01*
X144001100Y-112748900D02*
X144650000Y-112100000D01*
X144650000Y-112100000D02*
X145250000Y-112100000D01*
X145250000Y-112100000D02*
X145350000Y-112000000D01*
X145050001Y-105700001D02*
X145050001Y-104800001D01*
X145350000Y-106000000D02*
X145050001Y-105700001D01*
X145050001Y-104800001D02*
X144500000Y-104250000D01*
X144500000Y-104250000D02*
X143800000Y-104250000D01*
X143800000Y-104250000D02*
X143500000Y-104550000D01*
X143500000Y-104550000D02*
X143500000Y-105500000D01*
D29*
X142001100Y-110311300D02*
X142001100Y-108248900D01*
X144100000Y-106150000D02*
X144100000Y-104900000D01*
X142001100Y-108248900D02*
X144100000Y-106150000D01*
D30*
X142501100Y-112984500D02*
X142500000Y-112983400D01*
X142501100Y-113911500D02*
X142501100Y-112984500D01*
X142500000Y-112983400D02*
X142500000Y-112000000D01*
X142500000Y-112000000D02*
X142850000Y-111650000D01*
X142850000Y-111650000D02*
X143850000Y-111650000D01*
X143835600Y-112150000D02*
X144171789Y-112150000D01*
X144412300Y-111909489D02*
X144712299Y-111609490D01*
X144171789Y-112150000D02*
X144412300Y-111909489D01*
X143001100Y-112984500D02*
X143835600Y-112150000D01*
X143001100Y-113911500D02*
X143001100Y-112984500D01*
X146666600Y-112650000D02*
X146550000Y-112650000D01*
X147001100Y-113911500D02*
X147001100Y-112984500D01*
X147001100Y-112984500D02*
X146666600Y-112650000D01*
D29*
X142511012Y-109697490D02*
X142451100Y-109757402D01*
X142501100Y-110311300D02*
X142501100Y-108348900D01*
X142501100Y-108348900D02*
X144100000Y-106750000D01*
X144100000Y-106750000D02*
X144200000Y-106650000D01*
X144200000Y-106650000D02*
X146550000Y-106650000D01*
X146900000Y-108952400D02*
X146900000Y-108850000D01*
X146501100Y-110311300D02*
X146501100Y-109351300D01*
X146501100Y-109351300D02*
X146900000Y-108952400D01*
X147001100Y-111304509D02*
X147289581Y-111592990D01*
X147001100Y-110311300D02*
X147001100Y-111304509D01*
D30*
X160820100Y-107924600D02*
X158572201Y-105676701D01*
X155490773Y-105400000D02*
X155066509Y-105400000D01*
X158572201Y-105676701D02*
X155767474Y-105676701D01*
X155767474Y-105676701D02*
X155490773Y-105400000D01*
D29*
X147501100Y-110311300D02*
X147501100Y-111055266D01*
X147501100Y-111055266D02*
X148038824Y-111592990D01*
X148038824Y-111592990D02*
X148143499Y-111592990D01*
X148143499Y-111592990D02*
X148567763Y-111592990D01*
X149799999Y-104649999D02*
X149500000Y-104350000D01*
X145694113Y-108200000D02*
X148880721Y-108200000D01*
X149867548Y-106639819D02*
X149867548Y-104717548D01*
X144501100Y-109393013D02*
X145694113Y-108200000D01*
X149914011Y-106686282D02*
X149867548Y-106639819D01*
X149914011Y-107166710D02*
X149914011Y-106686282D01*
X144501100Y-110311300D02*
X144501100Y-109393013D01*
X148880721Y-108200000D02*
X149914011Y-107166710D01*
X149867548Y-104717548D02*
X149799999Y-104649999D01*
D28*
X153358500Y-91433300D02*
X153358500Y-90553900D01*
X153936600Y-92011400D02*
X153358500Y-91433300D01*
D29*
X153936600Y-96286600D02*
X153936600Y-95900000D01*
X154700000Y-97050000D02*
X153936600Y-96286600D01*
D28*
X153936600Y-95900000D02*
X153936600Y-92011400D01*
D29*
X152635568Y-104050000D02*
X152635568Y-104851047D01*
X148001100Y-109485515D02*
X148001100Y-110311300D01*
X152635568Y-104851047D02*
X148001100Y-109485515D01*
D30*
X157605500Y-107250000D02*
X159956501Y-109601001D01*
X159956501Y-109601001D02*
X160820100Y-110464600D01*
X156174058Y-107250000D02*
X157605500Y-107250000D01*
X154559499Y-105635441D02*
X156174058Y-107250000D01*
D29*
X154559499Y-104640501D02*
X154950000Y-104250000D01*
X154559499Y-105635441D02*
X154559499Y-104640501D01*
X157650000Y-125664000D02*
X157650000Y-124566496D01*
X157650000Y-124566496D02*
X157607004Y-124523500D01*
X158300000Y-125664000D02*
X158300000Y-123640452D01*
X158300000Y-123640452D02*
X158071800Y-123412252D01*
X145501100Y-110311300D02*
X145501100Y-111271300D01*
X145501100Y-111271300D02*
X146329800Y-112100000D01*
X146329800Y-112100000D02*
X148950000Y-112100000D01*
X148950000Y-112100000D02*
X149500000Y-111550000D01*
X149500000Y-111550000D02*
X150750000Y-111550000D01*
X150750000Y-111550000D02*
X151000000Y-111300000D01*
X151000000Y-111300000D02*
X151000000Y-110550000D01*
X151800000Y-109750000D02*
X154300000Y-109750000D01*
X151000000Y-110550000D02*
X151800000Y-109750000D01*
D30*
X148001100Y-112984500D02*
X148535600Y-112450000D01*
X148001100Y-113911500D02*
X148001100Y-112984500D01*
X148535600Y-112450000D02*
X150450000Y-112450000D01*
X150450000Y-112450000D02*
X151350000Y-111550000D01*
X151350000Y-111550000D02*
X151350000Y-111000000D01*
X151350000Y-111000000D02*
X152000000Y-110350000D01*
X152000000Y-110350000D02*
X154650000Y-110350000D01*
X154900000Y-110100000D02*
X154900000Y-109150000D01*
X154650000Y-110350000D02*
X154900000Y-110100000D01*
D29*
X148636653Y-107700000D02*
X149107011Y-107229642D01*
X143501100Y-108648900D02*
X144450000Y-107700000D01*
X143501100Y-110311300D02*
X143501100Y-108648900D01*
X149107011Y-107229642D02*
X149407010Y-106929643D01*
X144450000Y-107700000D02*
X148636653Y-107700000D01*
X143001100Y-110311300D02*
X143001100Y-108398900D01*
X143001100Y-108398900D02*
X144200000Y-107200000D01*
X144200000Y-107200000D02*
X148250000Y-107200000D01*
X149150000Y-106300000D02*
X149150000Y-106150000D01*
X148250000Y-107200000D02*
X149150000Y-106300000D01*
D30*
X147501100Y-113911500D02*
X147501100Y-115298900D01*
X147501100Y-115298900D02*
X147350000Y-115450000D01*
X146501100Y-115605213D02*
X146474528Y-115631785D01*
X146501100Y-113911500D02*
X146501100Y-115605213D01*
D29*
X138552623Y-106499999D02*
X137500000Y-105447376D01*
X142800001Y-106499999D02*
X138552623Y-106499999D01*
X143100000Y-106200000D02*
X142800001Y-106499999D01*
D31*
X137146799Y-105094175D02*
X137500000Y-105447376D01*
X137500000Y-105447376D02*
X137668000Y-105615376D01*
X137146799Y-94200000D02*
X137146799Y-105094175D01*
X138176000Y-99524000D02*
X139636500Y-98063500D01*
X138176000Y-101750000D02*
X138176000Y-99524000D01*
D29*
X141542989Y-105992989D02*
X141825287Y-105992989D01*
X138176000Y-101750000D02*
X138176000Y-102626000D01*
X138176000Y-102626000D02*
X141542989Y-105992989D01*
X141825287Y-105992989D02*
X142249551Y-105992989D01*
X139750000Y-91174264D02*
X139636500Y-91287764D01*
X139750000Y-90750000D02*
X139750000Y-91174264D01*
X139636500Y-91287764D02*
X139636500Y-91550000D01*
D31*
X139636500Y-98063500D02*
X139636500Y-91550000D01*
X140436499Y-90271499D02*
X140208000Y-90043000D01*
X140453201Y-90288201D02*
X140436499Y-90271499D01*
D29*
X141800000Y-104925736D02*
X140900000Y-104025736D01*
X141800000Y-105350000D02*
X141800000Y-104925736D01*
X140900000Y-90735000D02*
X140208000Y-90043000D01*
X140900000Y-104025736D02*
X140900000Y-90735000D01*
D30*
X135445500Y-105727486D02*
X135191500Y-105473486D01*
X135445500Y-115145500D02*
X135445500Y-105727486D01*
X145501100Y-114838500D02*
X142989600Y-117350000D01*
X145501100Y-113911500D02*
X145501100Y-114838500D01*
X137650000Y-117350000D02*
X137500000Y-117200000D01*
X142989600Y-117350000D02*
X137650000Y-117350000D01*
X137500000Y-117200000D02*
X135445500Y-115145500D01*
X135953500Y-115203500D02*
X135953500Y-105796647D01*
X135953500Y-105796647D02*
X135953500Y-105196500D01*
X135953500Y-105196500D02*
X136050000Y-105100000D01*
X142839600Y-117000000D02*
X137750000Y-117000000D01*
X145001100Y-114838500D02*
X142839600Y-117000000D01*
X145001100Y-113911500D02*
X145001100Y-114838500D01*
X137750000Y-117000000D02*
X135953500Y-115203500D01*
X136288499Y-107804441D02*
X136288499Y-107333559D01*
X136668462Y-106953596D02*
X136668462Y-105666723D01*
X136334500Y-107850442D02*
X136288499Y-107804441D01*
X136288499Y-107333559D02*
X136668462Y-106953596D01*
X136334500Y-115225276D02*
X136334500Y-107850442D01*
X136668462Y-104668462D02*
X136600000Y-104600000D01*
X136668462Y-105666723D02*
X136668462Y-105600000D01*
X136668462Y-105600000D02*
X136668462Y-104668462D01*
X136668462Y-105600000D02*
X136668462Y-105343576D01*
X142689600Y-116650000D02*
X137759224Y-116650000D01*
X144501100Y-114838500D02*
X142689600Y-116650000D01*
X144501100Y-113911500D02*
X144501100Y-114838500D01*
X137759224Y-116650000D02*
X136334500Y-115225276D01*
D31*
X138557000Y-98044000D02*
X138557000Y-93027500D01*
X137650000Y-104850000D02*
X137650000Y-98951000D01*
X137650000Y-98951000D02*
X138557000Y-98044000D01*
D28*
X158950000Y-125603000D02*
X158950000Y-123508120D01*
X157691880Y-122250000D02*
X156174264Y-122250000D01*
X156174264Y-122250000D02*
X155750000Y-122250000D01*
X158950000Y-123508120D02*
X157691880Y-122250000D01*
D30*
X154450000Y-128239000D02*
X154350000Y-128339000D01*
X154450000Y-125664000D02*
X154450000Y-128239000D01*
X154350000Y-128339000D02*
X156450000Y-128339000D01*
X158850000Y-128339000D02*
X156450000Y-128339000D01*
X159927000Y-128339000D02*
X160950000Y-128339000D01*
X158850000Y-128339000D02*
X159927000Y-128339000D01*
D28*
X160950000Y-125764000D02*
X160850000Y-125664000D01*
X160950000Y-128339000D02*
X160950000Y-125764000D01*
D27*
X138435647Y-119253000D02*
X138112500Y-119253000D01*
X148536930Y-119875670D02*
X145660907Y-119875670D01*
X145660907Y-119875670D02*
X145541974Y-119994603D01*
X141267103Y-119994603D02*
X140525500Y-119253000D01*
X145541974Y-119994603D02*
X141267103Y-119994603D01*
X140525500Y-119253000D02*
X138435647Y-119253000D01*
D32*
X150001100Y-118411500D02*
X149112600Y-119300000D01*
X150001100Y-113911500D02*
X150001100Y-118411500D01*
D27*
X149112600Y-119300000D02*
X148536930Y-119875670D01*
D30*
X144800000Y-122600000D02*
X144900000Y-122500000D01*
D31*
X144900000Y-122500000D02*
X143829000Y-123571000D01*
X133286500Y-111581240D02*
X133096798Y-111391538D01*
X133096798Y-111391538D02*
X133096798Y-109643466D01*
X133096798Y-109643466D02*
X133286500Y-109453764D01*
X133286500Y-119062500D02*
X133286500Y-111581240D01*
X137795000Y-123571000D02*
X133286500Y-119062500D01*
X143829000Y-123571000D02*
X137795000Y-123571000D01*
X133286500Y-109453764D02*
X133286500Y-109029500D01*
D26*
X132588000Y-106807694D02*
X132588000Y-106489496D01*
X132588000Y-121475500D02*
X132588000Y-106807694D01*
X145796000Y-127508000D02*
X138620500Y-127508000D01*
X138620500Y-127508000D02*
X132588000Y-121475500D01*
M02*
