%TF.GenerationSoftware,KiCad,Pcbnew,5.0.2-bee76a0~70~ubuntu18.04.1*%
%TF.CreationDate,2020-02-29T17:30:31-08:00*%
%TF.ProjectId,base,62617365-2e6b-4696-9361-645f70636258,rev?*%
%TF.SameCoordinates,Original*%
%TF.FileFunction,Legend,Bot*%
%TF.FilePolarity,Positive*%
%FSLAX46Y46*%
G04 Gerber Fmt 4.6, Leading zero omitted, Abs format (unit mm)*
G04 Created by KiCad (PCBNEW 5.0.2-bee76a0~70~ubuntu18.04.1) date Sat 29 Feb 2020 05:30:31 PM PST*
%MOMM*%
%LPD*%
G01*
G04 APERTURE LIST*
%ADD10C,0.150000*%
%ADD11C,0.162560*%
%ADD12C,0.127000*%
%ADD13C,0.203200*%
%ADD14C,0.101600*%
G04 APERTURE END LIST*
D10*
X131000500Y-114280540D02*
X131000500Y-118280540D01*
X162651441Y-102162541D02*
X162651441Y-95050541D01*
X161502382Y-105714800D02*
X162651441Y-105714800D01*
X161502382Y-102162541D02*
X162651441Y-102162541D01*
D11*
X158226639Y-113767857D02*
X158189869Y-113657549D01*
X158189869Y-113473701D01*
X158226639Y-113400162D01*
X158263408Y-113363393D01*
X158336947Y-113326623D01*
X158410486Y-113326623D01*
X158484025Y-113363393D01*
X158520795Y-113400162D01*
X158557564Y-113473701D01*
X158594334Y-113620779D01*
X158631103Y-113694318D01*
X158667873Y-113731088D01*
X158741412Y-113767857D01*
X158814951Y-113767857D01*
X158888490Y-113731088D01*
X158925260Y-113694318D01*
X158962029Y-113620779D01*
X158962029Y-113436932D01*
X158925260Y-113326623D01*
X158962029Y-113069236D02*
X158189869Y-112885389D01*
X158741412Y-112738311D01*
X158189869Y-112591233D01*
X158962029Y-112407385D01*
X158189869Y-112113229D02*
X158962029Y-112113229D01*
X158962029Y-111929381D01*
X158925260Y-111819073D01*
X158851720Y-111745534D01*
X158778181Y-111708764D01*
X158631103Y-111671995D01*
X158520795Y-111671995D01*
X158373717Y-111708764D01*
X158300178Y-111745534D01*
X158226639Y-111819073D01*
X158189869Y-111929381D01*
X158189869Y-112113229D01*
X158353639Y-111227857D02*
X158316869Y-111117549D01*
X158316869Y-110933701D01*
X158353639Y-110860162D01*
X158390408Y-110823393D01*
X158463947Y-110786623D01*
X158537486Y-110786623D01*
X158611025Y-110823393D01*
X158647795Y-110860162D01*
X158684564Y-110933701D01*
X158721334Y-111080779D01*
X158758103Y-111154318D01*
X158794873Y-111191088D01*
X158868412Y-111227857D01*
X158941951Y-111227857D01*
X159015490Y-111191088D01*
X159052260Y-111154318D01*
X159089029Y-111080779D01*
X159089029Y-110896932D01*
X159052260Y-110786623D01*
X159089029Y-110529236D02*
X158316869Y-110345389D01*
X158868412Y-110198311D01*
X158316869Y-110051233D01*
X159089029Y-109867385D01*
X158390408Y-109131995D02*
X158353639Y-109168764D01*
X158316869Y-109279073D01*
X158316869Y-109352612D01*
X158353639Y-109462920D01*
X158427178Y-109536459D01*
X158500717Y-109573229D01*
X158647795Y-109609998D01*
X158758103Y-109609998D01*
X158905181Y-109573229D01*
X158978720Y-109536459D01*
X159052260Y-109462920D01*
X159089029Y-109352612D01*
X159089029Y-109279073D01*
X159052260Y-109168764D01*
X159015490Y-109131995D01*
X153260488Y-120413230D02*
X153260488Y-119641070D01*
X153003101Y-120192613D01*
X152745715Y-119641070D01*
X152745715Y-120413230D01*
X152047094Y-120413230D02*
X152047094Y-120008765D01*
X152083863Y-119935226D01*
X152157402Y-119898457D01*
X152304480Y-119898457D01*
X152378019Y-119935226D01*
X152047094Y-120376460D02*
X152120633Y-120413230D01*
X152304480Y-120413230D01*
X152378019Y-120376460D01*
X152414789Y-120302921D01*
X152414789Y-120229382D01*
X152378019Y-120155843D01*
X152304480Y-120119074D01*
X152120633Y-120119074D01*
X152047094Y-120082304D01*
X151752937Y-120413230D02*
X151348473Y-119898457D01*
X151752937Y-119898457D02*
X151348473Y-120413230D01*
X150539543Y-119898457D02*
X150355696Y-120413230D01*
X150171848Y-119898457D01*
X149767383Y-120413230D02*
X149840922Y-120376460D01*
X149877692Y-120339691D01*
X149914461Y-120266152D01*
X149914461Y-120045535D01*
X149877692Y-119971996D01*
X149840922Y-119935226D01*
X149767383Y-119898457D01*
X149657075Y-119898457D01*
X149583536Y-119935226D01*
X149546766Y-119971996D01*
X149509996Y-120045535D01*
X149509996Y-120266152D01*
X149546766Y-120339691D01*
X149583536Y-120376460D01*
X149657075Y-120413230D01*
X149767383Y-120413230D01*
X149068762Y-120413230D02*
X149142301Y-120376460D01*
X149179071Y-120302921D01*
X149179071Y-119641070D01*
X148884915Y-119898457D02*
X148590758Y-119898457D01*
X148774606Y-119641070D02*
X148774606Y-120302921D01*
X148737836Y-120376460D01*
X148664297Y-120413230D01*
X148590758Y-120413230D01*
X148002446Y-120413230D02*
X148002446Y-120008765D01*
X148039216Y-119935226D01*
X148112755Y-119898457D01*
X148259833Y-119898457D01*
X148333372Y-119935226D01*
X148002446Y-120376460D02*
X148075985Y-120413230D01*
X148259833Y-120413230D01*
X148333372Y-120376460D01*
X148370141Y-120302921D01*
X148370141Y-120229382D01*
X148333372Y-120155843D01*
X148259833Y-120119074D01*
X148075985Y-120119074D01*
X148002446Y-120082304D01*
X147303825Y-119898457D02*
X147303825Y-120523539D01*
X147340595Y-120597078D01*
X147377364Y-120633847D01*
X147450903Y-120670617D01*
X147561212Y-120670617D01*
X147634751Y-120633847D01*
X147303825Y-120376460D02*
X147377364Y-120413230D01*
X147524442Y-120413230D01*
X147597981Y-120376460D01*
X147634751Y-120339691D01*
X147671520Y-120266152D01*
X147671520Y-120045535D01*
X147634751Y-119971996D01*
X147597981Y-119935226D01*
X147524442Y-119898457D01*
X147377364Y-119898457D01*
X147303825Y-119935226D01*
X146641974Y-120376460D02*
X146715513Y-120413230D01*
X146862591Y-120413230D01*
X146936130Y-120376460D01*
X146972899Y-120302921D01*
X146972899Y-120008765D01*
X146936130Y-119935226D01*
X146862591Y-119898457D01*
X146715513Y-119898457D01*
X146641974Y-119935226D01*
X146605204Y-120008765D01*
X146605204Y-120082304D01*
X146972899Y-120155843D01*
X146274278Y-120339691D02*
X146237509Y-120376460D01*
X146274278Y-120413230D01*
X146311048Y-120376460D01*
X146274278Y-120339691D01*
X146274278Y-120413230D01*
X146274278Y-119935226D02*
X146237509Y-119971996D01*
X146274278Y-120008765D01*
X146311048Y-119971996D01*
X146274278Y-119935226D01*
X146274278Y-120008765D01*
X144950576Y-119641070D02*
X145318271Y-119641070D01*
X145355040Y-120008765D01*
X145318271Y-119971996D01*
X145244732Y-119935226D01*
X145060884Y-119935226D01*
X144987345Y-119971996D01*
X144950576Y-120008765D01*
X144913806Y-120082304D01*
X144913806Y-120266152D01*
X144950576Y-120339691D01*
X144987345Y-120376460D01*
X145060884Y-120413230D01*
X145244732Y-120413230D01*
X145318271Y-120376460D01*
X145355040Y-120339691D01*
X144656419Y-119898457D02*
X144472572Y-120413230D01*
X144288724Y-119898457D01*
X158189869Y-115702854D02*
X158557564Y-115960240D01*
X158189869Y-116144088D02*
X158962029Y-116144088D01*
X158962029Y-115849932D01*
X158925260Y-115776393D01*
X158888490Y-115739623D01*
X158814951Y-115702854D01*
X158704642Y-115702854D01*
X158631103Y-115739623D01*
X158594334Y-115776393D01*
X158557564Y-115849932D01*
X158557564Y-116144088D01*
X158226639Y-115408697D02*
X158189869Y-115298389D01*
X158189869Y-115114541D01*
X158226639Y-115041002D01*
X158263408Y-115004233D01*
X158336947Y-114967463D01*
X158410486Y-114967463D01*
X158484025Y-115004233D01*
X158520795Y-115041002D01*
X158557564Y-115114541D01*
X158594334Y-115261619D01*
X158631103Y-115335158D01*
X158667873Y-115371928D01*
X158741412Y-115408697D01*
X158814951Y-115408697D01*
X158888490Y-115371928D01*
X158925260Y-115335158D01*
X158962029Y-115261619D01*
X158962029Y-115077772D01*
X158925260Y-114967463D01*
X158962029Y-114746846D02*
X158962029Y-114305612D01*
X158189869Y-114526229D02*
X158962029Y-114526229D01*
X158925260Y-120946623D02*
X158962029Y-121020162D01*
X158962029Y-121130471D01*
X158925260Y-121240779D01*
X158851720Y-121314318D01*
X158778181Y-121351088D01*
X158631103Y-121387857D01*
X158520795Y-121387857D01*
X158373717Y-121351088D01*
X158300178Y-121314318D01*
X158226639Y-121240779D01*
X158189869Y-121130471D01*
X158189869Y-121056932D01*
X158226639Y-120946623D01*
X158263408Y-120909854D01*
X158520795Y-120909854D01*
X158520795Y-121056932D01*
X158189869Y-120578928D02*
X158962029Y-120578928D01*
X158189869Y-120137694D01*
X158962029Y-120137694D01*
X158189869Y-119769998D02*
X158962029Y-119769998D01*
X158962029Y-119586151D01*
X158925260Y-119475842D01*
X158851720Y-119402303D01*
X158778181Y-119365534D01*
X158631103Y-119328764D01*
X158520795Y-119328764D01*
X158373717Y-119365534D01*
X158300178Y-119402303D01*
X158226639Y-119475842D01*
X158189869Y-119586151D01*
X158189869Y-119769998D01*
X158962029Y-119011627D02*
X158962029Y-118533623D01*
X158667873Y-118791010D01*
X158667873Y-118680701D01*
X158631103Y-118607162D01*
X158594334Y-118570393D01*
X158520795Y-118533623D01*
X158336947Y-118533623D01*
X158263408Y-118570393D01*
X158226639Y-118607162D01*
X158189869Y-118680701D01*
X158189869Y-118901318D01*
X158226639Y-118974857D01*
X158263408Y-119011627D01*
X158263408Y-118202697D02*
X158226639Y-118165928D01*
X158189869Y-118202697D01*
X158226639Y-118239467D01*
X158263408Y-118202697D01*
X158189869Y-118202697D01*
X158962029Y-117908541D02*
X158962029Y-117430537D01*
X158667873Y-117687924D01*
X158667873Y-117577616D01*
X158631103Y-117504076D01*
X158594334Y-117467307D01*
X158520795Y-117430537D01*
X158336947Y-117430537D01*
X158263408Y-117467307D01*
X158226639Y-117504076D01*
X158189869Y-117577616D01*
X158189869Y-117798233D01*
X158226639Y-117871772D01*
X158263408Y-117908541D01*
X158704642Y-117173151D02*
X158189869Y-116989303D01*
X158704642Y-116805456D01*
X158353639Y-108687857D02*
X158316869Y-108577549D01*
X158316869Y-108393701D01*
X158353639Y-108320162D01*
X158390408Y-108283393D01*
X158463947Y-108246623D01*
X158537486Y-108246623D01*
X158611025Y-108283393D01*
X158647795Y-108320162D01*
X158684564Y-108393701D01*
X158721334Y-108540779D01*
X158758103Y-108614318D01*
X158794873Y-108651088D01*
X158868412Y-108687857D01*
X158941951Y-108687857D01*
X159015490Y-108651088D01*
X159052260Y-108614318D01*
X159089029Y-108540779D01*
X159089029Y-108356932D01*
X159052260Y-108246623D01*
X159089029Y-107989236D02*
X158316869Y-107805389D01*
X158868412Y-107658311D01*
X158316869Y-107511233D01*
X159089029Y-107327385D01*
X159089029Y-106886151D02*
X159089029Y-106739073D01*
X159052260Y-106665534D01*
X158978720Y-106591995D01*
X158831642Y-106555225D01*
X158574256Y-106555225D01*
X158427178Y-106591995D01*
X158353639Y-106665534D01*
X158316869Y-106739073D01*
X158316869Y-106886151D01*
X158353639Y-106959690D01*
X158427178Y-107033229D01*
X158574256Y-107069998D01*
X158831642Y-107069998D01*
X158978720Y-107033229D01*
X159052260Y-106959690D01*
X159089029Y-106886151D01*
D10*
X129851441Y-123050540D02*
G75*
G02X129351441Y-123550540I-500000J0D01*
G01*
X129351441Y-94550541D02*
G75*
G02X129851441Y-95050541I0J-500000D01*
G01*
X162651441Y-95050541D02*
G75*
G02X163151441Y-94550541I500000J0D01*
G01*
X163151441Y-123550540D02*
G75*
G02X162651441Y-123050540I0J500000D01*
G01*
X128351441Y-88050540D02*
X128351441Y-94550540D01*
X163151441Y-94550541D02*
X164151441Y-94550540D01*
X162651441Y-123050540D02*
X162651441Y-105714800D01*
X164151441Y-123550540D02*
X163151441Y-123550540D01*
X164151441Y-94550540D02*
X164151440Y-88050541D01*
X129851441Y-95050541D02*
X129851441Y-114280540D01*
X128351441Y-94550540D02*
X129351441Y-94550541D01*
X128351441Y-130050540D02*
X162651440Y-130050540D01*
X129851441Y-114280540D02*
X131000500Y-114280540D01*
X161502382Y-102162541D02*
X161502382Y-105714800D01*
X162651440Y-88050540D02*
X128351441Y-88050540D01*
X131000500Y-118280540D02*
X129851441Y-118280540D01*
X128351441Y-123550540D02*
X128351441Y-130050540D01*
X129351441Y-123550540D02*
X128351441Y-123550540D01*
X129851441Y-118280540D02*
X129851441Y-123050540D01*
X162651440Y-130050540D02*
X164151440Y-130050540D01*
X164151440Y-88050541D02*
X162651440Y-88050540D01*
X164151440Y-130050540D02*
X164151441Y-123550540D01*
D12*
X148653500Y-101703900D02*
X148653500Y-90303900D01*
X160653500Y-101703900D02*
X148653500Y-101703900D01*
X160653500Y-90303900D02*
X160653500Y-101703900D01*
X148653500Y-90303900D02*
X160653500Y-90303900D01*
X153070000Y-124634000D02*
X153070000Y-129789000D01*
X162230000Y-124634000D02*
X153070000Y-124634000D01*
X162230000Y-129789000D02*
X162230000Y-124634000D01*
X162230000Y-129789000D02*
X153070000Y-129789000D01*
X151119900Y-109787300D02*
G75*
G03X151119900Y-109787300I-127000J0D01*
G01*
D13*
X140402300Y-113508900D02*
X152143100Y-113521600D01*
X152143100Y-113521600D02*
X152143100Y-110826900D01*
X152143100Y-110826900D02*
X140402300Y-110814200D01*
X140402300Y-110814200D02*
X140402300Y-113508900D01*
D14*
X148165145Y-93984761D02*
X147741812Y-94619761D01*
X147741812Y-93984761D02*
X148165145Y-94619761D01*
X147530145Y-94045238D02*
X147499907Y-94015000D01*
X147439431Y-93984761D01*
X147288240Y-93984761D01*
X147227764Y-94015000D01*
X147197526Y-94045238D01*
X147167288Y-94105714D01*
X147167288Y-94166190D01*
X147197526Y-94256904D01*
X147560383Y-94619761D01*
X147167288Y-94619761D01*
X162573245Y-123568761D02*
X162149912Y-124203761D01*
X162149912Y-123568761D02*
X162573245Y-124203761D01*
X161575388Y-124203761D02*
X161938245Y-124203761D01*
X161756817Y-124203761D02*
X161756817Y-123568761D01*
X161817293Y-123659476D01*
X161877769Y-123719952D01*
X161938245Y-123750190D01*
X140735949Y-114446161D02*
X140312616Y-115081161D01*
X140312616Y-114446161D02*
X140735949Y-115081161D01*
X140131187Y-114446161D02*
X139738092Y-114446161D01*
X139949759Y-114688066D01*
X139859044Y-114688066D01*
X139798568Y-114718304D01*
X139768330Y-114748542D01*
X139738092Y-114809019D01*
X139738092Y-114960209D01*
X139768330Y-115020685D01*
X139798568Y-115050923D01*
X139859044Y-115081161D01*
X140040473Y-115081161D01*
X140100949Y-115050923D01*
X140131187Y-115020685D01*
M02*
