%TF.GenerationSoftware,KiCad,Pcbnew,(5.1.4)-1*%
%TF.CreationDate,2019-12-19T22:46:11-07:00*%
%TF.ProjectId,base,62617365-2e6b-4696-9361-645f70636258,rev?*%
%TF.SameCoordinates,Original*%
%TF.FileFunction,Copper,L1,Top*%
%TF.FilePolarity,Positive*%
%FSLAX46Y46*%
G04 Gerber Fmt 4.6, Leading zero omitted, Abs format (unit mm)*
G04 Created by KiCad (PCBNEW (5.1.4)-1) date 2019-12-19 22:46:11*
%MOMM*%
%LPD*%
G04 APERTURE LIST*
%ADD10C,0.150000*%
%ADD11R,1.600000X1.400000*%
%ADD12R,1.100000X1.000000*%
%ADD13R,1.500000X1.700000*%
%ADD14R,1.100000X0.250000*%
%ADD15R,1.200000X0.550000*%
%ADD16R,1.400000X1.200000*%
%ADD17R,0.800000X1.200000*%
%ADD18R,1.400000X1.600000*%
%ADD19R,1.000000X1.000000*%
%ADD20R,0.300000X0.900000*%
%ADD21R,0.900000X0.300000*%
%ADD22R,1.000000X1.100000*%
%ADD23R,0.700000X0.450000*%
%ADD24R,0.450000X0.700000*%
%ADD25R,0.800000X0.900000*%
%ADD26R,0.700000X1.200000*%
%ADD27R,0.900000X1.000000*%
%ADD28R,1.200000X0.800000*%
%ADD29R,0.800000X2.000000*%
%ADD30R,0.630000X0.830000*%
%ADD31R,0.550000X1.200000*%
%ADD32C,1.870000*%
%ADD33C,1.727200*%
%ADD34C,0.609600*%
%ADD35C,0.533400*%
%ADD36C,0.457000*%
%ADD37C,0.800000*%
%ADD38C,0.450000*%
%ADD39C,0.457200*%
%ADD40C,0.304800*%
%ADD41C,0.550000*%
%ADD42C,0.203200*%
%ADD43C,0.250000*%
%ADD44C,0.152400*%
%ADD45C,0.406400*%
%ADD46C,0.254000*%
%ADD47C,0.508000*%
%ADD48C,0.127000*%
%ADD49C,0.063500*%
%ADD50C,0.076200*%
G04 APERTURE END LIST*
D10*
X131000500Y-114280540D02*
X131000500Y-118280540D01*
X162651441Y-102162541D02*
X162651441Y-95050541D01*
X161502382Y-105714800D02*
X162651441Y-105714800D01*
X161502382Y-102162541D02*
X162651441Y-102162541D01*
X129851441Y-123050540D02*
G75*
G02X129351441Y-123550540I-500000J0D01*
G01*
X129351441Y-94550541D02*
G75*
G02X129851441Y-95050541I0J-500000D01*
G01*
X162651441Y-95050541D02*
G75*
G02X163151441Y-94550541I500000J0D01*
G01*
X163151441Y-123550540D02*
G75*
G02X162651441Y-123050540I0J500000D01*
G01*
X128351441Y-88050540D02*
X128351441Y-94550540D01*
X163151441Y-94550541D02*
X164151441Y-94550540D01*
X162651441Y-123050540D02*
X162651441Y-105714800D01*
X164151441Y-123550540D02*
X163151441Y-123550540D01*
X164151441Y-94550540D02*
X164151440Y-88050541D01*
X129851441Y-95050541D02*
X129851441Y-114280540D01*
X128351441Y-94550540D02*
X129351441Y-94550541D01*
X128351441Y-130050540D02*
X162651440Y-130050540D01*
X129851441Y-114280540D02*
X131000500Y-114280540D01*
X161502382Y-102162541D02*
X161502382Y-105714800D01*
X162651440Y-88050540D02*
X128351441Y-88050540D01*
X131000500Y-118280540D02*
X129851441Y-118280540D01*
X128351441Y-123550540D02*
X128351441Y-130050540D01*
X129351441Y-123550540D02*
X128351441Y-123550540D01*
X129851441Y-118280540D02*
X129851441Y-123050540D01*
X162651440Y-130050540D02*
X164151440Y-130050540D01*
X164151440Y-88050541D02*
X162651440Y-88050540D01*
X164151440Y-130050540D02*
X164151441Y-123550540D01*
D11*
X147050000Y-94700000D03*
X147050000Y-91900000D03*
D12*
X145600000Y-99300000D03*
X147300000Y-99300000D03*
X147300000Y-100800000D03*
X145600000Y-100800000D03*
D13*
X131609000Y-112675500D03*
X131609000Y-104875500D03*
D14*
X135509000Y-111025500D03*
X135509000Y-110525500D03*
X135509000Y-110025500D03*
X135509000Y-109525500D03*
X135509000Y-109025500D03*
X135509000Y-108525500D03*
X135509000Y-108025500D03*
X135509000Y-107525500D03*
X135509000Y-107025500D03*
X135509000Y-106525500D03*
D12*
X145809541Y-128402380D03*
X144109541Y-128402380D03*
X147508680Y-128401980D03*
X145808680Y-128401980D03*
D15*
X136400200Y-121550000D03*
X136400200Y-123450000D03*
X133800000Y-123450000D03*
X133800000Y-122500000D03*
X133800000Y-121550000D03*
D16*
X139827000Y-97104000D03*
X139827000Y-93904000D03*
X142811500Y-93904000D03*
X142811500Y-97104000D03*
D17*
X137450000Y-120050000D03*
X139250000Y-120050000D03*
D18*
X155300000Y-93550000D03*
X152500000Y-93550000D03*
D19*
X138350000Y-121600000D03*
X138350000Y-123200000D03*
D17*
X133950000Y-120100000D03*
X135750000Y-120100000D03*
D20*
X142501100Y-103125600D03*
X143001100Y-103125600D03*
X143501100Y-103125600D03*
X144001100Y-103125600D03*
X144501100Y-103125600D03*
X145001100Y-103125600D03*
X145501100Y-103125600D03*
X146001100Y-103125600D03*
X146501100Y-103125600D03*
X147001100Y-103125600D03*
X147501100Y-103125600D03*
X148001100Y-103125600D03*
X148501100Y-103125600D03*
X149001100Y-103125600D03*
X149501100Y-103125600D03*
X150001100Y-103125600D03*
X150501100Y-103125600D03*
X151001100Y-103125600D03*
X151501100Y-103125600D03*
X152001100Y-103125600D03*
X152501100Y-103125600D03*
X153001100Y-103125600D03*
X153501100Y-103125600D03*
X154001100Y-103125600D03*
X154501100Y-103125600D03*
D21*
X156221100Y-104845600D03*
X156221100Y-105345600D03*
X156221100Y-105845600D03*
X156221100Y-106345600D03*
X156221100Y-106845600D03*
X156221100Y-107345600D03*
X156221100Y-107845600D03*
X156221100Y-108345600D03*
X156221100Y-108845600D03*
X156221100Y-109345600D03*
X156221100Y-109845600D03*
X156221100Y-110345600D03*
X156221100Y-110845600D03*
X156221100Y-111345600D03*
X156221100Y-111845600D03*
X156221100Y-112345600D03*
X156221100Y-112845600D03*
X156221100Y-113345600D03*
X156221100Y-113845600D03*
X156221100Y-114345600D03*
X156221100Y-114845600D03*
X156221100Y-115345600D03*
X156221100Y-115845600D03*
X156221100Y-116345600D03*
X156221100Y-116845600D03*
D20*
X154501100Y-118565600D03*
X154001100Y-118565600D03*
X153501100Y-118565600D03*
X153001100Y-118565600D03*
X152501100Y-118565600D03*
X152001100Y-118565600D03*
X151501100Y-118565600D03*
X151001100Y-118565600D03*
X150501100Y-118565600D03*
X150001100Y-118565600D03*
X149501100Y-118565600D03*
X149001100Y-118565600D03*
X148501100Y-118565600D03*
X148001100Y-118565600D03*
X147501100Y-118565600D03*
X147001100Y-118565600D03*
X146501100Y-118565600D03*
X146001100Y-118565600D03*
X145501100Y-118565600D03*
X145001100Y-118565600D03*
X144501100Y-118565600D03*
X144001100Y-118565600D03*
X143501100Y-118565600D03*
X143001100Y-118565600D03*
X142501100Y-118565600D03*
D21*
X140781100Y-116845600D03*
X140781100Y-116345600D03*
X140781100Y-115845600D03*
X140781100Y-115345600D03*
X140781100Y-114845600D03*
X140781100Y-114345600D03*
X140781100Y-113845600D03*
X140781100Y-113345600D03*
X140781100Y-112845600D03*
X140781100Y-112345600D03*
X140781100Y-111845600D03*
X140781100Y-111345600D03*
X140781100Y-110845600D03*
X140781100Y-110345600D03*
X140781100Y-109845600D03*
X140781100Y-109345600D03*
X140781100Y-108845600D03*
X140781100Y-108345600D03*
X140781100Y-107845600D03*
X140781100Y-107345600D03*
X140781100Y-106845600D03*
X140781100Y-106345600D03*
X140781100Y-105845600D03*
X140781100Y-105345600D03*
X140781100Y-104845600D03*
D19*
X160150000Y-100350000D03*
X160150000Y-98750000D03*
D22*
X131889000Y-95631000D03*
X131889000Y-93931000D03*
D23*
X138798600Y-89960600D03*
X138798600Y-90760600D03*
X138798600Y-91560600D03*
X138798600Y-92360600D03*
X137248600Y-92360600D03*
X137248600Y-91560600D03*
X137248600Y-90760600D03*
X137248600Y-89960600D03*
D11*
X138722100Y-103355600D03*
X138722100Y-100555600D03*
D22*
X137452100Y-97090600D03*
X137452100Y-95390600D03*
D24*
X157769100Y-95034600D03*
X158569100Y-95034600D03*
X159369100Y-95034600D03*
X160169100Y-95034600D03*
X160169100Y-96584600D03*
X159369100Y-96584600D03*
X158569100Y-96584600D03*
X157769100Y-96584600D03*
X153269100Y-97807600D03*
X152469100Y-97807600D03*
X151669100Y-97807600D03*
X150869100Y-97807600D03*
X150869100Y-96257600D03*
X151669100Y-96257600D03*
X152469100Y-96257600D03*
X153269100Y-96257600D03*
D25*
X134089100Y-97240600D03*
X135989100Y-97240600D03*
X135039100Y-95140600D03*
D19*
X156248100Y-101409600D03*
X156248100Y-103009600D03*
D26*
X134469100Y-92660600D03*
X133069100Y-92660600D03*
X134469100Y-89660600D03*
X133069100Y-89660600D03*
D19*
X149250000Y-97900000D03*
X149250000Y-96300000D03*
X140881100Y-101409600D03*
X140881100Y-103009600D03*
X138849000Y-113601500D03*
X137249000Y-113601500D03*
X137477500Y-108496000D03*
X137477500Y-106896000D03*
X138976100Y-117614600D03*
X138976100Y-116014600D03*
X137325100Y-117614600D03*
X137325100Y-116014600D03*
X156248100Y-120281600D03*
X156248100Y-118681600D03*
X138938000Y-106896000D03*
X138938000Y-108496000D03*
X135674100Y-117614600D03*
X135674100Y-116014600D03*
D27*
X137376000Y-111898000D03*
X138926000Y-111898000D03*
X137376000Y-110048000D03*
X138926000Y-110048000D03*
D19*
X158597600Y-104000400D03*
X158597600Y-105600400D03*
X149860100Y-120751600D03*
X151460100Y-120751600D03*
X153035100Y-120751600D03*
X154635100Y-120751600D03*
D28*
X148247100Y-120867600D03*
X148247100Y-122667600D03*
X141770100Y-125842600D03*
X141770100Y-124042600D03*
D29*
X144834100Y-125958600D03*
X146834100Y-125958600D03*
D25*
X149964100Y-124164600D03*
X151864100Y-124164600D03*
X150914100Y-122064600D03*
D22*
X148247100Y-126300600D03*
X148247100Y-124600600D03*
D30*
X149764100Y-126212600D03*
X152064100Y-126212600D03*
D22*
X143421100Y-125665600D03*
X143421100Y-123965600D03*
D31*
X146784100Y-123956700D03*
X144884100Y-123956700D03*
X144884100Y-121356500D03*
X145834100Y-121356500D03*
X146784100Y-121356500D03*
D32*
X160950000Y-128339000D03*
X154350000Y-128339000D03*
D22*
X143421100Y-122490600D03*
X143421100Y-120790600D03*
D33*
X160820100Y-120624600D03*
X160820100Y-118084600D03*
X160820100Y-115544600D03*
X160820100Y-113004600D03*
X160820100Y-110464600D03*
X160820100Y-107924600D03*
D34*
X156248100Y-121259600D03*
D35*
X159369100Y-94158600D03*
D34*
X148863000Y-92276900D03*
D36*
X141732000Y-121539000D03*
X148150000Y-123550000D03*
X145834100Y-122656600D03*
D35*
X131589000Y-92531000D03*
X135200000Y-122500000D03*
X158900000Y-99950000D03*
X156248100Y-100431600D03*
X157471600Y-100021600D03*
D37*
X149800000Y-99150000D03*
X147050000Y-90250000D03*
D35*
X149900000Y-121850000D03*
X139827000Y-113982500D03*
D38*
X140779500Y-124206000D03*
X140017500Y-120026711D03*
X141986004Y-118999000D03*
X139827000Y-117602000D03*
X137287000Y-118491000D03*
X136334500Y-119253000D03*
X139192000Y-121602500D03*
X134493000Y-107886500D03*
X134493000Y-107188000D03*
X136779000Y-107569000D03*
X137096500Y-111061500D03*
X137223500Y-112839500D03*
X139763500Y-107188000D03*
X143002000Y-103949500D03*
X152273000Y-89535000D03*
X152463500Y-92202000D03*
X135953500Y-96329500D03*
X154051000Y-119380000D03*
X149923500Y-112141000D03*
X146431000Y-112204500D03*
X144462500Y-114490500D03*
X138950709Y-109348002D03*
D36*
X139776290Y-109283701D03*
D38*
X141732000Y-101663504D03*
X138684000Y-101727000D03*
D35*
X156337000Y-124523500D03*
X157226000Y-105219500D03*
D36*
X157670500Y-104013000D03*
D35*
X149415500Y-101300000D03*
D34*
X158851600Y-90614500D03*
D35*
X160172432Y-95808800D03*
X151930100Y-121894600D03*
D36*
X157924500Y-118237000D03*
D35*
X156248100Y-104114600D03*
X157769100Y-97460600D03*
X160169100Y-94158600D03*
X158569100Y-97460600D03*
D36*
X143123000Y-128422300D03*
X155117800Y-118584980D03*
X156300000Y-117650000D03*
D35*
X142750000Y-126700000D03*
X143400000Y-126700000D03*
D36*
X151650000Y-116900000D03*
D38*
X139763500Y-108140500D03*
X140716000Y-125793500D03*
X143002000Y-119316500D03*
D36*
X135658860Y-118427500D03*
D38*
X134747000Y-121539000D03*
X133223000Y-120078500D03*
D35*
X133794500Y-124142500D03*
D38*
X141541500Y-107314994D03*
X147066000Y-95821500D03*
D37*
X149225004Y-95250000D03*
D38*
X152463500Y-95440500D03*
X153289000Y-95504000D03*
X154432000Y-89535000D03*
X155257500Y-92265500D03*
D35*
X148272500Y-99314000D03*
D38*
X145224500Y-101663500D03*
X148971000Y-115570000D03*
X146621500Y-115570000D03*
X143954500Y-115697000D03*
X142430500Y-115760500D03*
X142811500Y-96139000D03*
D36*
X139776290Y-109867714D03*
D38*
X142494000Y-102298500D03*
X141732000Y-102743000D03*
X139255500Y-102235000D03*
D35*
X135255000Y-89662000D03*
X149390100Y-125069600D03*
X150152100Y-125069600D03*
X157769100Y-94158600D03*
X157800000Y-93050000D03*
X140589000Y-120776986D03*
X160121600Y-97637600D03*
D36*
X152241338Y-104867182D03*
D35*
X148526500Y-102050000D03*
X153269100Y-98683600D03*
D36*
X154600000Y-97800000D03*
D35*
X152469100Y-98683600D03*
D39*
X157797500Y-109855000D03*
X157137100Y-109194600D03*
D35*
X151669100Y-98683600D03*
X150869100Y-98683600D03*
X151950000Y-100050000D03*
D36*
X154050000Y-104300000D03*
D38*
X133794500Y-110744000D03*
D35*
X157289500Y-116713006D03*
D38*
X133921500Y-110109000D03*
D35*
X155170006Y-116781479D03*
D38*
X134175500Y-109537500D03*
D35*
X157353000Y-115824000D03*
D38*
X134302500Y-108521500D03*
D35*
X155130516Y-115379500D03*
D36*
X145300000Y-114600000D03*
X144000000Y-104800000D03*
X144498352Y-104249265D03*
X142800000Y-114550000D03*
X145288004Y-104203500D03*
X142938500Y-109537500D03*
X146650000Y-114600000D03*
X146550000Y-104256100D03*
X147002500Y-111125000D03*
X147447000Y-111887008D03*
X155050000Y-105400000D03*
X147955000Y-111125000D03*
X149500000Y-104350000D03*
X153950000Y-98650000D03*
X152642900Y-104050000D03*
X154800000Y-104300000D03*
X157607004Y-124523500D03*
X158071800Y-123412252D03*
X145950000Y-115550000D03*
D38*
X155321000Y-108966000D03*
D36*
X144550000Y-115350000D03*
X143450000Y-115150000D03*
X145300000Y-119395160D03*
X144021240Y-119391710D03*
X138039000Y-91581000D03*
X139954999Y-112924450D03*
X139954997Y-112340439D03*
X139636500Y-90741500D03*
X139890500Y-111760000D03*
X140208000Y-90043000D03*
X135191500Y-105473486D03*
X135953500Y-105473500D03*
X136668462Y-105343576D03*
X137650000Y-104850000D03*
D38*
X138557000Y-93027500D03*
D35*
X155750000Y-122250000D03*
D36*
X138112500Y-119253000D03*
X144900000Y-122500000D03*
D38*
X133286500Y-109029500D03*
X132588000Y-106489496D03*
X145796034Y-127508000D03*
D40*
X156248100Y-120281600D02*
X156248100Y-121259600D01*
D41*
X145834100Y-121356500D02*
X145834100Y-122656600D01*
D40*
X149860100Y-120751600D02*
X149771100Y-120662600D01*
X156248100Y-101409600D02*
X156248100Y-100431600D01*
D42*
X159369100Y-95034600D02*
X159369100Y-94158600D01*
D43*
X143421100Y-120740600D02*
X143421100Y-120790600D01*
X139250000Y-120050000D02*
X139250000Y-120250000D01*
X142109400Y-120790600D02*
X143421100Y-120790600D01*
X141675000Y-121225000D02*
X142109400Y-120790600D01*
D41*
X145834100Y-122656600D02*
X145834100Y-122656600D01*
D43*
X141300000Y-121600000D02*
X141675000Y-121225000D01*
X131889000Y-93931000D02*
X131889000Y-92831000D01*
X131889000Y-92831000D02*
X131589000Y-92531000D01*
X133800000Y-122500000D02*
X135200000Y-122500000D01*
X135200000Y-122500000D02*
X135200000Y-122500000D01*
X160150000Y-100350000D02*
X159300000Y-100350000D01*
X159300000Y-100350000D02*
X158900000Y-99950000D01*
D40*
X156248100Y-100431600D02*
X156248100Y-100431600D01*
D43*
X149250000Y-97900000D02*
X149250000Y-98600000D01*
X149250000Y-98600000D02*
X149800000Y-99150000D01*
X147050000Y-91900000D02*
X147050000Y-90250000D01*
D42*
X149860100Y-121810100D02*
X149900000Y-121850000D01*
X149860100Y-120751600D02*
X149860100Y-121810100D01*
X139963900Y-113845600D02*
X139827000Y-113982500D01*
X140781100Y-113845600D02*
X139963900Y-113845600D01*
D43*
X141606700Y-124206000D02*
X140779500Y-124206000D01*
X141770100Y-124042600D02*
X141606700Y-124206000D01*
X139994211Y-120050000D02*
X140017500Y-120026711D01*
X139250000Y-120050000D02*
X139994211Y-120050000D01*
X142412300Y-118572700D02*
X141986004Y-118998996D01*
X141986004Y-118998996D02*
X141986004Y-118999000D01*
X142501100Y-118565600D02*
X142494000Y-118572700D01*
X142494000Y-118572700D02*
X142412300Y-118572700D01*
X139814400Y-117614600D02*
X139827000Y-117602000D01*
X138976100Y-117614600D02*
X139814400Y-117614600D01*
X137325100Y-117614600D02*
X137325100Y-118452900D01*
X137325100Y-118452900D02*
X137287000Y-118491000D01*
X135750000Y-120100000D02*
X135750000Y-119837500D01*
X135750000Y-119837500D02*
X136334500Y-119253000D01*
X138350000Y-121600000D02*
X139189500Y-121600000D01*
X139189500Y-121600000D02*
X139192000Y-121602500D01*
X135509000Y-108025500D02*
X134632000Y-108025500D01*
X134632000Y-108025500D02*
X134493000Y-107886500D01*
X135509000Y-107025500D02*
X134655500Y-107025500D01*
X134655500Y-107025500D02*
X134493000Y-107188000D01*
X137477500Y-106896000D02*
X137452000Y-106896000D01*
X137452000Y-106896000D02*
X136779000Y-107569000D01*
X137096500Y-111618500D02*
X137096500Y-111061500D01*
X137376000Y-111898000D02*
X137096500Y-111618500D01*
X137249000Y-113601500D02*
X137249000Y-112865000D01*
X137249000Y-112865000D02*
X137223500Y-112839500D01*
X139128500Y-107188000D02*
X139763500Y-107188000D01*
X138938000Y-106896000D02*
X138938000Y-106997500D01*
X138938000Y-106997500D02*
X139128500Y-107188000D01*
X143001100Y-103125600D02*
X143001100Y-103948600D01*
X143001100Y-103948600D02*
X143002000Y-103949500D01*
X152500000Y-93550000D02*
X152500000Y-92238500D01*
X152500000Y-92238500D02*
X152463500Y-92202000D01*
X135989100Y-97240600D02*
X135989100Y-96365100D01*
X135989100Y-96365100D02*
X135953500Y-96329500D01*
X154001100Y-119330100D02*
X154051000Y-119380000D01*
X154001100Y-118565600D02*
X154001100Y-119330100D01*
X138950709Y-109666200D02*
X138950709Y-109348002D01*
X138950709Y-110023291D02*
X138950709Y-109666200D01*
X138926000Y-110048000D02*
X138950709Y-110023291D01*
D44*
X140781100Y-109345600D02*
X139838189Y-109345600D01*
X139838189Y-109345600D02*
X139776290Y-109283701D01*
D45*
X140881100Y-101409600D02*
X141135004Y-101663504D01*
X141413802Y-101663504D02*
X141732000Y-101663504D01*
X141135004Y-101663504D02*
X141413802Y-101663504D01*
X138722100Y-100555600D02*
X138722100Y-101688900D01*
X138722100Y-101688900D02*
X138684000Y-101727000D01*
D40*
X157099900Y-105345600D02*
X157226000Y-105219500D01*
X156221100Y-105345600D02*
X157099900Y-105345600D01*
D43*
X157683100Y-104000400D02*
X157670500Y-104013000D01*
X158597600Y-104000400D02*
X157683100Y-104000400D01*
D46*
X156221100Y-108345600D02*
X157177100Y-108345600D01*
D42*
X158279999Y-109448499D02*
X158279999Y-117881501D01*
X158279999Y-117881501D02*
X158152999Y-118008501D01*
X158152999Y-118008501D02*
X157924500Y-118237000D01*
X157177100Y-108345600D02*
X158279999Y-109448499D01*
D40*
X156132100Y-118565600D02*
X156248100Y-118681600D01*
X156248100Y-104114600D02*
X156248100Y-103009600D01*
X156248100Y-104818600D02*
X156248100Y-104114600D01*
X156248100Y-104818600D02*
X156221100Y-104845600D01*
D42*
X157769100Y-96584600D02*
X157769100Y-97460600D01*
X160169100Y-95034600D02*
X160169100Y-94158600D01*
X158569100Y-96584600D02*
X158569100Y-97460600D01*
D43*
X144109541Y-128402380D02*
X143142920Y-128402380D01*
X154501100Y-118565600D02*
X155098420Y-118565600D01*
X155098420Y-118565600D02*
X155117800Y-118584980D01*
X149257600Y-96307600D02*
X149250000Y-96300000D01*
D45*
X149292400Y-96257600D02*
X149250000Y-96300000D01*
X153269100Y-96257600D02*
X149292400Y-96257600D01*
D43*
X155300000Y-93650000D02*
X155300000Y-93550000D01*
D42*
X156248100Y-118681600D02*
X156248100Y-117701900D01*
X156248100Y-117701900D02*
X156300000Y-117650000D01*
D43*
X147300000Y-99450000D02*
X147300000Y-99300000D01*
X145600000Y-101100000D02*
X145650000Y-101100000D01*
X138938000Y-108178500D02*
X139725500Y-108178500D01*
X139725500Y-108178500D02*
X139763500Y-108140500D01*
X141770100Y-125842600D02*
X140765100Y-125842600D01*
X140765100Y-125842600D02*
X140716000Y-125793500D01*
X143001100Y-119315600D02*
X143002000Y-119316500D01*
X143001100Y-118565600D02*
X143001100Y-119315600D01*
X135674100Y-118412260D02*
X135658860Y-118427500D01*
X135674100Y-117614600D02*
X135674100Y-118412260D01*
X133800000Y-121550000D02*
X134736000Y-121550000D01*
X134736000Y-121550000D02*
X134747000Y-121539000D01*
X133950000Y-120100000D02*
X133244500Y-120100000D01*
X133244500Y-120100000D02*
X133223000Y-120078500D01*
X133800000Y-123450000D02*
X133800000Y-124137000D01*
X133800000Y-124137000D02*
X133794500Y-124142500D01*
X140781100Y-107345600D02*
X141510894Y-107345600D01*
X141510894Y-107345600D02*
X141541500Y-107314994D01*
X147050000Y-94700000D02*
X147050000Y-95805500D01*
X147050000Y-95805500D02*
X147066000Y-95821500D01*
X149250000Y-95274996D02*
X149225004Y-95250000D01*
X149250000Y-96300000D02*
X149250000Y-95274996D01*
X152469100Y-96257600D02*
X152469100Y-95446100D01*
X152469100Y-95446100D02*
X152463500Y-95440500D01*
X153269100Y-96257600D02*
X153269100Y-95523900D01*
X153269100Y-95523900D02*
X153289000Y-95504000D01*
X155300000Y-93550000D02*
X155300000Y-92308000D01*
X155300000Y-92308000D02*
X155257500Y-92265500D01*
X147300000Y-99300000D02*
X148258500Y-99300000D01*
X148258500Y-99300000D02*
X148272500Y-99314000D01*
X145224500Y-101028500D02*
X145224500Y-101663500D01*
X145600000Y-100800000D02*
X145453000Y-100800000D01*
X145453000Y-100800000D02*
X145224500Y-101028500D01*
X142811500Y-97104000D02*
X142811500Y-96139000D01*
X139798404Y-109845600D02*
X139776290Y-109867714D01*
X140781100Y-109845600D02*
X139798404Y-109845600D01*
X142501100Y-103125600D02*
X142501100Y-102305600D01*
X142501100Y-102305600D02*
X142494000Y-102298500D01*
D45*
X141147700Y-102743000D02*
X141413802Y-102743000D01*
X140881100Y-103009600D02*
X141147700Y-102743000D01*
X141413802Y-102743000D02*
X141732000Y-102743000D01*
X138722100Y-103355600D02*
X139255500Y-102822200D01*
X139255500Y-102822200D02*
X139255500Y-102553198D01*
X139255500Y-102553198D02*
X139255500Y-102235000D01*
D43*
X135253600Y-89660600D02*
X135255000Y-89662000D01*
X134469100Y-89660600D02*
X135253600Y-89660600D01*
X152064100Y-126312600D02*
X152064100Y-126212600D01*
D47*
X149974720Y-128401980D02*
X152064100Y-126312600D01*
X147508680Y-128401980D02*
X149974720Y-128401980D01*
D43*
X140781100Y-110845600D02*
X139978400Y-110845600D01*
X139978400Y-110845600D02*
X138926000Y-111898000D01*
X138849000Y-111975000D02*
X138926000Y-111898000D01*
X138849000Y-113601500D02*
X138849000Y-111975000D01*
X137477500Y-109946500D02*
X137376000Y-110048000D01*
X137477500Y-108496000D02*
X137477500Y-109946500D01*
X138041501Y-110800001D02*
X137376000Y-110134500D01*
X139490825Y-110800001D02*
X138041501Y-110800001D01*
X140781100Y-110345600D02*
X139945226Y-110345600D01*
X137376000Y-110134500D02*
X137376000Y-110048000D01*
X139945226Y-110345600D02*
X139490825Y-110800001D01*
D42*
X157769100Y-95034600D02*
X157769100Y-94158600D01*
X157769100Y-95159600D02*
X157769100Y-95034600D01*
X156000000Y-96928700D02*
X157769100Y-95159600D01*
X156000000Y-98300000D02*
X156000000Y-96928700D01*
X153501100Y-100798900D02*
X156000000Y-98300000D01*
X153501100Y-103125600D02*
X153501100Y-100798900D01*
X158569100Y-95034600D02*
X158569100Y-94158600D01*
X158569100Y-94158600D02*
X158569100Y-93819100D01*
X158569100Y-93819100D02*
X157800000Y-93050000D01*
X157800000Y-93050000D02*
X157800000Y-93050000D01*
X153001100Y-102472400D02*
X153000000Y-102471300D01*
X153001100Y-103125600D02*
X153001100Y-102472400D01*
X153000000Y-102471300D02*
X153000000Y-100550000D01*
X153000000Y-100550000D02*
X155400000Y-98150000D01*
X155400000Y-98150000D02*
X155400000Y-96150000D01*
X157533301Y-93316699D02*
X157800000Y-93050000D01*
X157273799Y-93576201D02*
X157533301Y-93316699D01*
X157273799Y-94276201D02*
X157273799Y-93576201D01*
X155400000Y-96150000D02*
X157273799Y-94276201D01*
X160169100Y-96584600D02*
X160169100Y-96709600D01*
D43*
X160169100Y-98730900D02*
X160150000Y-98750000D01*
X160169100Y-96584600D02*
X160169100Y-98730900D01*
D44*
X141904301Y-111891801D02*
X141358100Y-111345600D01*
X141904301Y-112313301D02*
X141904301Y-111891801D01*
X141358100Y-111345600D02*
X140781100Y-111345600D01*
X141600000Y-114300000D02*
X141600000Y-118751260D01*
X140589000Y-120399816D02*
X140589000Y-120776986D01*
X141904301Y-112313301D02*
X141904301Y-113995699D01*
X141904301Y-113995699D02*
X141600000Y-114300000D01*
X140589000Y-119762260D02*
X140589000Y-120399816D01*
X141600000Y-118751260D02*
X140589000Y-119762260D01*
D42*
X160150000Y-97666000D02*
X160121600Y-97637600D01*
X160150000Y-98750000D02*
X160150000Y-97666000D01*
X159369100Y-96584600D02*
X159369100Y-97460600D01*
D44*
X159369100Y-97460600D02*
X157679700Y-99150000D01*
X157679700Y-99150000D02*
X156350000Y-99150000D01*
X155300000Y-104500000D02*
X155300000Y-100200000D01*
X156350000Y-99150000D02*
X155300000Y-100200000D01*
X154932818Y-104867182D02*
X155300000Y-104500000D01*
X152241338Y-104867182D02*
X154932818Y-104867182D01*
D48*
X145891601Y-102050000D02*
X148526500Y-102050000D01*
X145501100Y-102440501D02*
X145891601Y-102050000D01*
X145501100Y-103125600D02*
X145501100Y-102440501D01*
D42*
X153269100Y-97807600D02*
X153269100Y-98683600D01*
X153269100Y-97682600D02*
X153269100Y-97807600D01*
X153002401Y-98950299D02*
X153269100Y-98683600D01*
X152773799Y-99178901D02*
X153002401Y-98950299D01*
X152088053Y-99178901D02*
X152773799Y-99178901D01*
X151001100Y-100265854D02*
X152088053Y-99178901D01*
X151001100Y-103125600D02*
X151001100Y-100265854D01*
X153276700Y-97800000D02*
X153269100Y-97807600D01*
X154600000Y-97800000D02*
X153276700Y-97800000D01*
X152469100Y-97807600D02*
X152469100Y-98683600D01*
X152469100Y-98683600D02*
X152469100Y-98683600D01*
X157788100Y-109845600D02*
X157797500Y-109855000D01*
X156221100Y-109845600D02*
X157788100Y-109845600D01*
X156221100Y-109345600D02*
X156986100Y-109345600D01*
X156986100Y-109345600D02*
X157137100Y-109194600D01*
X151669100Y-97807600D02*
X151669100Y-98683600D01*
X151669100Y-98683600D02*
X151669100Y-98683600D01*
X150869100Y-97807600D02*
X150869100Y-98683600D01*
X152001100Y-103125600D02*
X152001100Y-100101100D01*
X152001100Y-100101100D02*
X151950000Y-100050000D01*
D44*
X152001100Y-103728000D02*
X152001100Y-103125600D01*
X152001100Y-104047118D02*
X152001100Y-103728000D01*
X152435683Y-104481701D02*
X152001100Y-104047118D01*
X153868299Y-104481701D02*
X152435683Y-104481701D01*
X154050000Y-104300000D02*
X153868299Y-104481701D01*
D46*
X137248600Y-93015100D02*
X136436100Y-93827600D01*
X136436100Y-93827600D02*
X135039100Y-93827600D01*
X134089100Y-94777600D02*
X135039100Y-93827600D01*
X134089100Y-97240600D02*
X134089100Y-94777600D01*
X137248600Y-92360600D02*
X137248600Y-93015100D01*
D43*
X134089100Y-97081100D02*
X134089100Y-97240600D01*
X132639000Y-95631000D02*
X134089100Y-97081100D01*
X131889000Y-95631000D02*
X132639000Y-95631000D01*
D45*
X137202100Y-95140600D02*
X137452100Y-95390600D01*
X135039100Y-95140600D02*
X137202100Y-95140600D01*
D46*
X134469100Y-92660600D02*
X135444100Y-92660600D01*
X137248600Y-91560600D02*
X136544100Y-91560600D01*
X136544100Y-91560600D02*
X135444100Y-92660600D01*
X133069100Y-92660600D02*
X133069100Y-91860600D01*
X137248600Y-90760600D02*
X136455100Y-90760600D01*
X135674100Y-91541600D02*
X133388100Y-91541600D01*
X133388100Y-91541600D02*
X133069100Y-91860600D01*
X136455100Y-90760600D02*
X135674100Y-91541600D01*
X135547100Y-90779600D02*
X133388100Y-90779600D01*
X136366100Y-89960600D02*
X135547100Y-90779600D01*
X137248600Y-89960600D02*
X136366100Y-89960600D01*
X133069100Y-89660600D02*
X133069100Y-90460600D01*
X133388100Y-90779600D02*
X133069100Y-90460600D01*
D40*
X158352400Y-105845600D02*
X156221100Y-105845600D01*
X158597600Y-105600400D02*
X158352400Y-105845600D01*
D46*
X153501100Y-119307600D02*
X153073100Y-119735600D01*
X153073100Y-119735600D02*
X151676100Y-119735600D01*
X151676100Y-119735600D02*
X151460100Y-119951600D01*
X151460100Y-120751600D02*
X151460100Y-119951600D01*
X153501100Y-118565600D02*
X153501100Y-119307600D01*
D44*
X156221100Y-111845600D02*
X156205100Y-111861600D01*
X152993100Y-118557600D02*
X153001100Y-118565600D01*
X152493100Y-118557600D02*
X152501100Y-118565600D01*
D43*
X134490500Y-110744000D02*
X134112698Y-110744000D01*
X134112698Y-110744000D02*
X133794500Y-110744000D01*
X134709000Y-110525500D02*
X134490500Y-110744000D01*
X135509000Y-110525500D02*
X134709000Y-110525500D01*
D44*
X156221100Y-116845600D02*
X157156906Y-116845600D01*
X157156906Y-116845600D02*
X157289500Y-116713006D01*
D43*
X134005000Y-110025500D02*
X133921500Y-110109000D01*
X135509000Y-110025500D02*
X134005000Y-110025500D01*
D44*
X155436705Y-116514780D02*
X155170006Y-116781479D01*
X156221100Y-116345600D02*
X155605885Y-116345600D01*
X155605885Y-116345600D02*
X155436705Y-116514780D01*
D43*
X134187500Y-109525500D02*
X134175500Y-109537500D01*
X135509000Y-109525500D02*
X134187500Y-109525500D01*
D44*
X157331400Y-115845600D02*
X157353000Y-115824000D01*
X156221100Y-115845600D02*
X157331400Y-115845600D01*
D43*
X134306500Y-108525500D02*
X134302500Y-108521500D01*
X135509000Y-108525500D02*
X134306500Y-108525500D01*
D44*
X155164416Y-115345600D02*
X155130516Y-115379500D01*
X156221100Y-115345600D02*
X155164416Y-115345600D01*
D43*
X137452100Y-97040600D02*
X137452100Y-97090600D01*
D45*
X139813600Y-97090600D02*
X139827000Y-97104000D01*
X137452100Y-97090600D02*
X139813600Y-97090600D01*
D48*
X143501100Y-105201100D02*
X143501100Y-103702600D01*
X145528499Y-107228499D02*
X143501100Y-105201100D01*
X145528499Y-114371501D02*
X145528499Y-107228499D01*
X143501100Y-103702600D02*
X143501100Y-103125600D01*
X145300000Y-114600000D02*
X145528499Y-114371501D01*
X143950000Y-103176700D02*
X144001100Y-103125600D01*
X144000000Y-103126700D02*
X144001100Y-103125600D01*
X144000000Y-104800000D02*
X144000000Y-103126700D01*
X144501100Y-103125600D02*
X144501100Y-102348900D01*
X144501100Y-99721900D02*
X144501100Y-102348900D01*
X144923000Y-99300000D02*
X144501100Y-99721900D01*
X145600000Y-99300000D02*
X144923000Y-99300000D01*
X144501100Y-104246517D02*
X144498352Y-104249265D01*
X144501100Y-103125600D02*
X144501100Y-104246517D01*
X145000000Y-103126700D02*
X145001100Y-103125600D01*
X147300000Y-101493000D02*
X147300000Y-100800000D01*
X147093000Y-101700000D02*
X147300000Y-101493000D01*
X145849700Y-101700000D02*
X147093000Y-101700000D01*
X145001100Y-103125600D02*
X145001100Y-102548600D01*
X145001100Y-102548600D02*
X145849700Y-101700000D01*
X145001100Y-103125600D02*
X145001100Y-103916596D01*
X145001100Y-103916596D02*
X145288004Y-104203500D01*
X142800000Y-114550000D02*
X142800000Y-109676000D01*
X142800000Y-109676000D02*
X142938500Y-109537500D01*
X146001100Y-103125600D02*
X146001100Y-103702600D01*
X146001100Y-114151100D02*
X146001100Y-103125600D01*
X146001100Y-114274247D02*
X146001100Y-114151100D01*
X146326853Y-114600000D02*
X146001100Y-114274247D01*
X146650000Y-114600000D02*
X146326853Y-114600000D01*
X146550000Y-103174500D02*
X146501100Y-103125600D01*
X146550000Y-104256100D02*
X146550000Y-103174500D01*
X147001100Y-111123600D02*
X147002500Y-111125000D01*
X147001100Y-103125600D02*
X147001100Y-111123600D01*
X147501100Y-103125600D02*
X147501100Y-111832908D01*
X147501100Y-111832908D02*
X147447000Y-111887008D01*
X148000000Y-103126700D02*
X148001100Y-103125600D01*
X148001100Y-103702600D02*
X148001100Y-103125600D01*
X155050000Y-105400000D02*
X149698500Y-105400000D01*
X149698500Y-105400000D02*
X148001100Y-103702600D01*
X147955000Y-103748700D02*
X147955000Y-110801853D01*
X147955000Y-110801853D02*
X147955000Y-111125000D01*
X148001100Y-103702600D02*
X147955000Y-103748700D01*
X148501100Y-103702600D02*
X148501100Y-103125600D01*
X149148500Y-104350000D02*
X148501100Y-103702600D01*
X149500000Y-104350000D02*
X149148500Y-104350000D01*
D42*
X152501100Y-102472400D02*
X152501100Y-103125600D01*
X152501100Y-100422047D02*
X152501100Y-102472400D01*
X153950000Y-98973147D02*
X152501100Y-100422047D01*
X153950000Y-98650000D02*
X153950000Y-98973147D01*
D48*
X154001100Y-103702600D02*
X154001100Y-103125600D01*
X153653700Y-104050000D02*
X154001100Y-103702600D01*
X152642900Y-104050000D02*
X153653700Y-104050000D01*
X154778100Y-103125600D02*
X154501100Y-103125600D01*
X154800000Y-103147500D02*
X154778100Y-103125600D01*
X154800000Y-104300000D02*
X154800000Y-103147500D01*
D42*
X159600000Y-111784500D02*
X160820100Y-113004600D01*
X159600000Y-108700000D02*
X159600000Y-111784500D01*
X156221100Y-106345600D02*
X157245600Y-106345600D01*
X157245600Y-106345600D02*
X159600000Y-108700000D01*
X159269790Y-122860714D02*
X157607004Y-124523500D01*
X159269790Y-108919790D02*
X159269790Y-122860714D01*
X156221100Y-106845600D02*
X157195600Y-106845600D01*
X157195600Y-106845600D02*
X159269790Y-108919790D01*
X158939580Y-122544472D02*
X158071800Y-123412252D01*
X158939580Y-109056566D02*
X158939580Y-122544472D01*
X156221100Y-107345600D02*
X157228614Y-107345600D01*
X157228614Y-107345600D02*
X158939580Y-109056566D01*
D48*
X146445990Y-116045990D02*
X145950000Y-115550000D01*
X154917400Y-107845600D02*
X154300000Y-108463000D01*
X156221100Y-107845600D02*
X154917400Y-107845600D01*
X154300000Y-108463000D02*
X154300000Y-112800000D01*
X154300000Y-112800000D02*
X151054010Y-116045990D01*
X151054010Y-116045990D02*
X146445990Y-116045990D01*
D44*
X156221100Y-108845600D02*
X155441400Y-108845600D01*
X155441400Y-108845600D02*
X155321000Y-108966000D01*
X156213100Y-110337600D02*
X156213100Y-110337600D01*
X156213100Y-110337600D02*
X156221100Y-110345600D01*
D48*
X155644100Y-110345600D02*
X156221100Y-110345600D01*
X154650000Y-111339700D02*
X155644100Y-110345600D01*
X154650000Y-112900000D02*
X154650000Y-111339700D01*
X151250000Y-116300000D02*
X154650000Y-112900000D01*
X144550000Y-115350000D02*
X145500000Y-116300000D01*
X145500000Y-116300000D02*
X151250000Y-116300000D01*
X155644100Y-110845600D02*
X155000000Y-111489700D01*
X156221100Y-110845600D02*
X155644100Y-110845600D01*
X155000000Y-111489700D02*
X155000000Y-112929878D01*
X155000000Y-112929878D02*
X151329878Y-116600000D01*
X151329878Y-116600000D02*
X143800000Y-116600000D01*
X143800000Y-116600000D02*
X143450000Y-116250000D01*
X143450000Y-116250000D02*
X143450000Y-115150000D01*
X144501100Y-119142600D02*
X144766360Y-119407860D01*
X144766360Y-119407860D02*
X145287300Y-119407860D01*
X144501100Y-118565600D02*
X144501100Y-119142600D01*
X145287300Y-119407860D02*
X145300000Y-119395160D01*
X143501100Y-119142600D02*
X143501100Y-118565600D01*
X143501100Y-119194717D02*
X143501100Y-119142600D01*
X143698093Y-119391710D02*
X143501100Y-119194717D01*
X144021240Y-119391710D02*
X143698093Y-119391710D01*
D44*
X140033849Y-112845600D02*
X139954999Y-112924450D01*
X140781100Y-112845600D02*
X140033849Y-112845600D01*
X138039000Y-91581000D02*
X138778200Y-91581000D01*
X138778200Y-91581000D02*
X138798600Y-91560600D01*
X139960158Y-112345600D02*
X139954997Y-112340439D01*
X140781100Y-112345600D02*
X139960158Y-112345600D01*
X138798600Y-90760600D02*
X139617400Y-90760600D01*
X139617400Y-90760600D02*
X139636500Y-90741500D01*
D48*
X138923600Y-89960600D02*
X138944000Y-89981000D01*
X138798600Y-89960600D02*
X138923600Y-89960600D01*
D44*
X139976100Y-111845600D02*
X139890500Y-111760000D01*
X140781100Y-111845600D02*
X139976100Y-111845600D01*
X138798600Y-89960600D02*
X140125600Y-89960600D01*
X140125600Y-89960600D02*
X140208000Y-90043000D01*
D48*
X140781100Y-106845600D02*
X140204100Y-106845600D01*
X139377999Y-106019499D02*
X135737513Y-106019499D01*
X135419999Y-105701985D02*
X135191500Y-105473486D01*
X140204100Y-106845600D02*
X139377999Y-106019499D01*
X135737513Y-106019499D02*
X135419999Y-105701985D01*
X139553985Y-105765485D02*
X136245485Y-105765485D01*
X140781100Y-106345600D02*
X140134100Y-106345600D01*
X140134100Y-106345600D02*
X139553985Y-105765485D01*
X136181999Y-105701999D02*
X135953500Y-105473500D01*
X136245485Y-105765485D02*
X136181999Y-105701999D01*
X140072100Y-105845600D02*
X139570076Y-105343576D01*
X140781100Y-105845600D02*
X140072100Y-105845600D01*
X139570076Y-105343576D02*
X136991609Y-105343576D01*
X136991609Y-105343576D02*
X136668462Y-105343576D01*
D44*
X137650000Y-104850000D02*
X140776700Y-104850000D01*
X140776700Y-104850000D02*
X140781100Y-104845600D01*
X138798600Y-92360600D02*
X138798600Y-92785900D01*
X138798600Y-92785900D02*
X138557000Y-93027500D01*
D45*
X143421100Y-123965600D02*
X144875200Y-123965600D01*
X144875200Y-123965600D02*
X144884100Y-123956700D01*
X143421100Y-123965600D02*
X143421100Y-122490600D01*
D43*
X138100000Y-123450000D02*
X138350000Y-123200000D01*
X136400200Y-123450000D02*
X138100000Y-123450000D01*
D45*
X137450000Y-120050000D02*
X137450000Y-119915500D01*
X137450000Y-119915500D02*
X137884001Y-119481499D01*
X137884001Y-119481499D02*
X138112500Y-119253000D01*
X137450000Y-120741000D02*
X137450000Y-120050000D01*
X136400200Y-121550000D02*
X136641000Y-121550000D01*
X136641000Y-121550000D02*
X137450000Y-120741000D01*
X139827000Y-93904000D02*
X142811500Y-93904000D01*
D48*
X144950000Y-121290600D02*
X144884100Y-121356500D01*
X144900000Y-121372400D02*
X144884100Y-121356500D01*
X144900000Y-122500000D02*
X144900000Y-121372400D01*
D43*
X133290500Y-109025500D02*
X133286500Y-109029500D01*
X135509000Y-109025500D02*
X133290500Y-109025500D01*
D44*
X217975100Y-59676600D02*
X218190100Y-59891600D01*
D45*
X135509000Y-106525500D02*
X132624004Y-106525500D01*
X132624004Y-106525500D02*
X132588000Y-106489496D01*
X145808680Y-127520646D02*
X145796034Y-127508000D01*
X145808680Y-128401980D02*
X145808680Y-127520646D01*
D49*
G36*
X153612850Y-122053350D02*
G01*
X152628600Y-122053350D01*
X152622406Y-122053960D01*
X152616450Y-122055767D01*
X152610961Y-122058701D01*
X152606149Y-122062649D01*
X152602201Y-122067461D01*
X152599267Y-122072950D01*
X152597460Y-122078906D01*
X152596850Y-122085100D01*
X152596850Y-122561350D01*
X150501350Y-122561350D01*
X150501350Y-121608850D01*
X152374600Y-121608850D01*
X152380794Y-121608240D01*
X152386750Y-121606433D01*
X152392239Y-121603499D01*
X152397051Y-121599551D01*
X152400999Y-121594739D01*
X152403933Y-121589250D01*
X152405740Y-121583294D01*
X152406350Y-121577100D01*
X152406350Y-120211850D01*
X153612850Y-120211850D01*
X153612850Y-122053350D01*
X153612850Y-122053350D01*
G37*
X153612850Y-122053350D02*
X152628600Y-122053350D01*
X152622406Y-122053960D01*
X152616450Y-122055767D01*
X152610961Y-122058701D01*
X152606149Y-122062649D01*
X152602201Y-122067461D01*
X152599267Y-122072950D01*
X152597460Y-122078906D01*
X152596850Y-122085100D01*
X152596850Y-122561350D01*
X150501350Y-122561350D01*
X150501350Y-121608850D01*
X152374600Y-121608850D01*
X152380794Y-121608240D01*
X152386750Y-121606433D01*
X152392239Y-121603499D01*
X152397051Y-121599551D01*
X152400999Y-121594739D01*
X152403933Y-121589250D01*
X152405740Y-121583294D01*
X152406350Y-121577100D01*
X152406350Y-120211850D01*
X153612850Y-120211850D01*
X153612850Y-122053350D01*
G36*
X145230850Y-127006350D02*
G01*
X141103350Y-127006350D01*
X141103350Y-124910850D01*
X145230850Y-124910850D01*
X145230850Y-127006350D01*
X145230850Y-127006350D01*
G37*
X145230850Y-127006350D02*
X141103350Y-127006350D01*
X141103350Y-124910850D01*
X145230850Y-124910850D01*
X145230850Y-127006350D01*
D50*
G36*
X140331100Y-114289113D02*
G01*
X141230991Y-114289113D01*
X141229919Y-114300000D01*
X141231700Y-114318085D01*
X141231700Y-114902146D01*
X141231100Y-114902087D01*
X140331100Y-114902087D01*
X140273838Y-114907727D01*
X140218777Y-114924429D01*
X140168033Y-114951553D01*
X140123555Y-114988055D01*
X140087053Y-115032533D01*
X140059929Y-115083277D01*
X140043227Y-115138338D01*
X140037587Y-115195600D01*
X140037587Y-115495600D01*
X140043227Y-115552862D01*
X140056191Y-115595600D01*
X140043227Y-115638338D01*
X140037587Y-115695600D01*
X140037587Y-115995600D01*
X140043227Y-116052862D01*
X140056191Y-116095600D01*
X140043227Y-116138338D01*
X140037587Y-116195600D01*
X140037587Y-116495600D01*
X140043227Y-116552862D01*
X140056191Y-116595600D01*
X140055251Y-116598700D01*
X134747000Y-116598700D01*
X134747000Y-114744500D01*
X138391900Y-114744500D01*
X138399333Y-114743768D01*
X138406480Y-114741600D01*
X138413067Y-114738079D01*
X138418841Y-114733341D01*
X138423579Y-114727567D01*
X138427100Y-114720980D01*
X138429268Y-114713833D01*
X138430000Y-114706400D01*
X138430000Y-114395013D01*
X139349000Y-114395013D01*
X139406262Y-114389373D01*
X139434918Y-114380680D01*
X139470786Y-114416548D01*
X139562309Y-114477702D01*
X139664004Y-114519826D01*
X139771963Y-114541300D01*
X139882037Y-114541300D01*
X139989996Y-114519826D01*
X140091691Y-114477702D01*
X140183214Y-114416548D01*
X140261048Y-114338714D01*
X140296470Y-114285702D01*
X140331100Y-114289113D01*
X140331100Y-114289113D01*
G37*
X140331100Y-114289113D02*
X141230991Y-114289113D01*
X141229919Y-114300000D01*
X141231700Y-114318085D01*
X141231700Y-114902146D01*
X141231100Y-114902087D01*
X140331100Y-114902087D01*
X140273838Y-114907727D01*
X140218777Y-114924429D01*
X140168033Y-114951553D01*
X140123555Y-114988055D01*
X140087053Y-115032533D01*
X140059929Y-115083277D01*
X140043227Y-115138338D01*
X140037587Y-115195600D01*
X140037587Y-115495600D01*
X140043227Y-115552862D01*
X140056191Y-115595600D01*
X140043227Y-115638338D01*
X140037587Y-115695600D01*
X140037587Y-115995600D01*
X140043227Y-116052862D01*
X140056191Y-116095600D01*
X140043227Y-116138338D01*
X140037587Y-116195600D01*
X140037587Y-116495600D01*
X140043227Y-116552862D01*
X140056191Y-116595600D01*
X140055251Y-116598700D01*
X134747000Y-116598700D01*
X134747000Y-114744500D01*
X138391900Y-114744500D01*
X138399333Y-114743768D01*
X138406480Y-114741600D01*
X138413067Y-114738079D01*
X138418841Y-114733341D01*
X138423579Y-114727567D01*
X138427100Y-114720980D01*
X138429268Y-114713833D01*
X138430000Y-114706400D01*
X138430000Y-114395013D01*
X139349000Y-114395013D01*
X139406262Y-114389373D01*
X139434918Y-114380680D01*
X139470786Y-114416548D01*
X139562309Y-114477702D01*
X139664004Y-114519826D01*
X139771963Y-114541300D01*
X139882037Y-114541300D01*
X139989996Y-114519826D01*
X140091691Y-114477702D01*
X140183214Y-114416548D01*
X140261048Y-114338714D01*
X140296470Y-114285702D01*
X140331100Y-114289113D01*
D49*
G36*
X149077767Y-120202875D02*
G01*
X149072968Y-120251600D01*
X149072968Y-121251600D01*
X149078485Y-121307617D01*
X149094825Y-121361481D01*
X149121358Y-121411122D01*
X149157067Y-121454633D01*
X149200578Y-121490342D01*
X149250219Y-121516875D01*
X149304083Y-121533215D01*
X149360100Y-121538732D01*
X149443557Y-121538732D01*
X149410425Y-121588317D01*
X149368780Y-121688856D01*
X149347550Y-121795588D01*
X149347550Y-121904412D01*
X149368780Y-122011144D01*
X149410425Y-122111683D01*
X149470884Y-122202166D01*
X149547834Y-122279116D01*
X149638317Y-122339575D01*
X149738856Y-122381220D01*
X149845588Y-122402450D01*
X149954412Y-122402450D01*
X150061144Y-122381220D01*
X150161683Y-122339575D01*
X150183850Y-122324763D01*
X150183850Y-122847100D01*
X150184460Y-122853294D01*
X150186267Y-122859250D01*
X150189201Y-122864739D01*
X150193149Y-122869551D01*
X150197961Y-122873499D01*
X150203450Y-122876433D01*
X150209406Y-122878240D01*
X150215600Y-122878850D01*
X152596850Y-122878850D01*
X152596850Y-127006350D01*
X150882350Y-127006350D01*
X150882350Y-123456700D01*
X150881740Y-123450506D01*
X150879933Y-123444550D01*
X150876999Y-123439061D01*
X150873051Y-123434249D01*
X150868239Y-123430301D01*
X150862750Y-123427367D01*
X150856794Y-123425560D01*
X150850600Y-123424950D01*
X149104350Y-123424950D01*
X149104350Y-123192495D01*
X149112375Y-123177481D01*
X149128715Y-123123617D01*
X149134232Y-123067600D01*
X149134232Y-122267600D01*
X149128715Y-122211583D01*
X149112375Y-122157719D01*
X149104350Y-122142705D01*
X149104350Y-121983500D01*
X149103740Y-121977306D01*
X149101933Y-121971350D01*
X149098999Y-121965861D01*
X149095051Y-121961049D01*
X149090239Y-121957101D01*
X149084750Y-121954167D01*
X149078794Y-121952360D01*
X149072404Y-121951751D01*
X146431750Y-121968054D01*
X146431750Y-120182001D01*
X149077767Y-120202875D01*
X149077767Y-120202875D01*
G37*
X149077767Y-120202875D02*
X149072968Y-120251600D01*
X149072968Y-121251600D01*
X149078485Y-121307617D01*
X149094825Y-121361481D01*
X149121358Y-121411122D01*
X149157067Y-121454633D01*
X149200578Y-121490342D01*
X149250219Y-121516875D01*
X149304083Y-121533215D01*
X149360100Y-121538732D01*
X149443557Y-121538732D01*
X149410425Y-121588317D01*
X149368780Y-121688856D01*
X149347550Y-121795588D01*
X149347550Y-121904412D01*
X149368780Y-122011144D01*
X149410425Y-122111683D01*
X149470884Y-122202166D01*
X149547834Y-122279116D01*
X149638317Y-122339575D01*
X149738856Y-122381220D01*
X149845588Y-122402450D01*
X149954412Y-122402450D01*
X150061144Y-122381220D01*
X150161683Y-122339575D01*
X150183850Y-122324763D01*
X150183850Y-122847100D01*
X150184460Y-122853294D01*
X150186267Y-122859250D01*
X150189201Y-122864739D01*
X150193149Y-122869551D01*
X150197961Y-122873499D01*
X150203450Y-122876433D01*
X150209406Y-122878240D01*
X150215600Y-122878850D01*
X152596850Y-122878850D01*
X152596850Y-127006350D01*
X150882350Y-127006350D01*
X150882350Y-123456700D01*
X150881740Y-123450506D01*
X150879933Y-123444550D01*
X150876999Y-123439061D01*
X150873051Y-123434249D01*
X150868239Y-123430301D01*
X150862750Y-123427367D01*
X150856794Y-123425560D01*
X150850600Y-123424950D01*
X149104350Y-123424950D01*
X149104350Y-123192495D01*
X149112375Y-123177481D01*
X149128715Y-123123617D01*
X149134232Y-123067600D01*
X149134232Y-122267600D01*
X149128715Y-122211583D01*
X149112375Y-122157719D01*
X149104350Y-122142705D01*
X149104350Y-121983500D01*
X149103740Y-121977306D01*
X149101933Y-121971350D01*
X149098999Y-121965861D01*
X149095051Y-121961049D01*
X149090239Y-121957101D01*
X149084750Y-121954167D01*
X149078794Y-121952360D01*
X149072404Y-121951751D01*
X146431750Y-121968054D01*
X146431750Y-120182001D01*
X149077767Y-120202875D01*
G36*
X150437850Y-127006350D02*
G01*
X147580350Y-127006350D01*
X147580350Y-125672850D01*
X149072600Y-125672850D01*
X149078794Y-125672240D01*
X149084750Y-125670433D01*
X149090239Y-125667499D01*
X149095051Y-125663551D01*
X149098999Y-125658739D01*
X149101933Y-125653250D01*
X149103740Y-125647294D01*
X149104350Y-125641100D01*
X149104350Y-123742450D01*
X150437850Y-123742450D01*
X150437850Y-127006350D01*
X150437850Y-127006350D01*
G37*
X150437850Y-127006350D02*
X147580350Y-127006350D01*
X147580350Y-125672850D01*
X149072600Y-125672850D01*
X149078794Y-125672240D01*
X149084750Y-125670433D01*
X149090239Y-125667499D01*
X149095051Y-125663551D01*
X149098999Y-125658739D01*
X149101933Y-125653250D01*
X149103740Y-125647294D01*
X149104350Y-125641100D01*
X149104350Y-123742450D01*
X150437850Y-123742450D01*
X150437850Y-127006350D01*
D50*
G36*
X155454587Y-120781600D02*
G01*
X155460227Y-120838862D01*
X155476929Y-120893923D01*
X155504053Y-120944667D01*
X155540555Y-120989145D01*
X155585033Y-121025647D01*
X155635777Y-121052771D01*
X155681897Y-121066761D01*
X155674139Y-121085491D01*
X155651200Y-121200810D01*
X155651200Y-121318390D01*
X155674139Y-121433709D01*
X155719134Y-121542338D01*
X155784458Y-121640101D01*
X155867599Y-121723242D01*
X155965362Y-121788566D01*
X156073991Y-121833561D01*
X156189310Y-121856500D01*
X156235400Y-121856500D01*
X156235400Y-123736100D01*
X154051000Y-123736100D01*
X154051000Y-120205500D01*
X155454587Y-120205500D01*
X155454587Y-120781600D01*
X155454587Y-120781600D01*
G37*
X155454587Y-120781600D02*
X155460227Y-120838862D01*
X155476929Y-120893923D01*
X155504053Y-120944667D01*
X155540555Y-120989145D01*
X155585033Y-121025647D01*
X155635777Y-121052771D01*
X155681897Y-121066761D01*
X155674139Y-121085491D01*
X155651200Y-121200810D01*
X155651200Y-121318390D01*
X155674139Y-121433709D01*
X155719134Y-121542338D01*
X155784458Y-121640101D01*
X155867599Y-121723242D01*
X155965362Y-121788566D01*
X156073991Y-121833561D01*
X156189310Y-121856500D01*
X156235400Y-121856500D01*
X156235400Y-123736100D01*
X154051000Y-123736100D01*
X154051000Y-120205500D01*
X155454587Y-120205500D01*
X155454587Y-120781600D01*
D49*
G36*
X147262850Y-127006350D02*
G01*
X146310350Y-127006350D01*
X146310350Y-123386850D01*
X147262850Y-123386850D01*
X147262850Y-127006350D01*
X147262850Y-127006350D01*
G37*
X147262850Y-127006350D02*
X146310350Y-127006350D01*
X146310350Y-123386850D01*
X147262850Y-123386850D01*
X147262850Y-127006350D01*
G36*
X146114250Y-122000000D02*
G01*
X146120090Y-122057476D01*
X146136682Y-122110980D01*
X146163392Y-122160218D01*
X146199196Y-122203299D01*
X146242716Y-122238568D01*
X146292280Y-122264669D01*
X146345984Y-122280598D01*
X146401764Y-122285745D01*
X148786850Y-122271020D01*
X148786850Y-123456700D01*
X148792341Y-123512447D01*
X148808601Y-123566052D01*
X148818034Y-123583700D01*
X148808601Y-123601348D01*
X148792341Y-123654953D01*
X148786850Y-123710700D01*
X148786850Y-125228350D01*
X147580350Y-125228350D01*
X147580350Y-123101100D01*
X147579740Y-123094906D01*
X147577933Y-123088950D01*
X147574999Y-123083461D01*
X147571051Y-123078649D01*
X147566239Y-123074701D01*
X147560750Y-123071767D01*
X147554794Y-123069960D01*
X147548600Y-123069350D01*
X144205400Y-123069350D01*
X144208232Y-123040600D01*
X144208232Y-121940600D01*
X144202715Y-121884583D01*
X144186375Y-121830719D01*
X144159842Y-121781078D01*
X144124133Y-121737567D01*
X144080622Y-121701858D01*
X144030981Y-121675325D01*
X143977117Y-121658985D01*
X143921100Y-121653468D01*
X142921100Y-121653468D01*
X142865083Y-121658985D01*
X142811219Y-121675325D01*
X142761578Y-121701858D01*
X142718067Y-121737567D01*
X142682358Y-121781078D01*
X142655825Y-121830719D01*
X142639485Y-121884583D01*
X142633968Y-121940600D01*
X142633968Y-123040600D01*
X142639485Y-123096617D01*
X142655825Y-123150481D01*
X142682358Y-123200122D01*
X142690850Y-123210470D01*
X142690850Y-123245730D01*
X142682358Y-123256078D01*
X142655825Y-123305719D01*
X142639485Y-123359583D01*
X142633968Y-123415600D01*
X142633968Y-124466350D01*
X141081750Y-124466350D01*
X141081750Y-121031004D01*
X141120220Y-120938130D01*
X141141450Y-120831398D01*
X141141450Y-120756500D01*
X144321968Y-120756500D01*
X144321968Y-121956500D01*
X144327485Y-122012517D01*
X144343825Y-122066381D01*
X144370358Y-122116022D01*
X144406067Y-122159533D01*
X144449578Y-122195242D01*
X144475789Y-122209252D01*
X144444278Y-122256411D01*
X144405513Y-122349999D01*
X144385750Y-122449351D01*
X144385750Y-122550649D01*
X144405513Y-122650001D01*
X144444278Y-122743589D01*
X144500556Y-122827815D01*
X144572185Y-122899444D01*
X144656411Y-122955722D01*
X144749999Y-122994487D01*
X144849351Y-123014250D01*
X144950649Y-123014250D01*
X145050001Y-122994487D01*
X145143589Y-122955722D01*
X145227815Y-122899444D01*
X145299444Y-122827815D01*
X145355722Y-122743589D01*
X145394487Y-122650001D01*
X145414250Y-122550649D01*
X145414250Y-122449351D01*
X145394487Y-122349999D01*
X145355722Y-122256411D01*
X145315843Y-122196727D01*
X145318622Y-122195242D01*
X145362133Y-122159533D01*
X145397842Y-122116022D01*
X145424375Y-122066381D01*
X145440715Y-122012517D01*
X145446232Y-121956500D01*
X145446232Y-120756500D01*
X145440715Y-120700483D01*
X145424375Y-120646619D01*
X145397842Y-120596978D01*
X145362133Y-120553467D01*
X145318622Y-120517758D01*
X145268981Y-120491225D01*
X145215117Y-120474885D01*
X145159100Y-120469368D01*
X144609100Y-120469368D01*
X144553083Y-120474885D01*
X144499219Y-120491225D01*
X144449578Y-120517758D01*
X144406067Y-120553467D01*
X144370358Y-120596978D01*
X144343825Y-120646619D01*
X144327485Y-120700483D01*
X144321968Y-120756500D01*
X141141450Y-120756500D01*
X141141450Y-120722574D01*
X141120220Y-120615842D01*
X141081750Y-120522968D01*
X141081750Y-120211850D01*
X146114250Y-120211850D01*
X146114250Y-122000000D01*
X146114250Y-122000000D01*
G37*
X146114250Y-122000000D02*
X146120090Y-122057476D01*
X146136682Y-122110980D01*
X146163392Y-122160218D01*
X146199196Y-122203299D01*
X146242716Y-122238568D01*
X146292280Y-122264669D01*
X146345984Y-122280598D01*
X146401764Y-122285745D01*
X148786850Y-122271020D01*
X148786850Y-123456700D01*
X148792341Y-123512447D01*
X148808601Y-123566052D01*
X148818034Y-123583700D01*
X148808601Y-123601348D01*
X148792341Y-123654953D01*
X148786850Y-123710700D01*
X148786850Y-125228350D01*
X147580350Y-125228350D01*
X147580350Y-123101100D01*
X147579740Y-123094906D01*
X147577933Y-123088950D01*
X147574999Y-123083461D01*
X147571051Y-123078649D01*
X147566239Y-123074701D01*
X147560750Y-123071767D01*
X147554794Y-123069960D01*
X147548600Y-123069350D01*
X144205400Y-123069350D01*
X144208232Y-123040600D01*
X144208232Y-121940600D01*
X144202715Y-121884583D01*
X144186375Y-121830719D01*
X144159842Y-121781078D01*
X144124133Y-121737567D01*
X144080622Y-121701858D01*
X144030981Y-121675325D01*
X143977117Y-121658985D01*
X143921100Y-121653468D01*
X142921100Y-121653468D01*
X142865083Y-121658985D01*
X142811219Y-121675325D01*
X142761578Y-121701858D01*
X142718067Y-121737567D01*
X142682358Y-121781078D01*
X142655825Y-121830719D01*
X142639485Y-121884583D01*
X142633968Y-121940600D01*
X142633968Y-123040600D01*
X142639485Y-123096617D01*
X142655825Y-123150481D01*
X142682358Y-123200122D01*
X142690850Y-123210470D01*
X142690850Y-123245730D01*
X142682358Y-123256078D01*
X142655825Y-123305719D01*
X142639485Y-123359583D01*
X142633968Y-123415600D01*
X142633968Y-124466350D01*
X141081750Y-124466350D01*
X141081750Y-121031004D01*
X141120220Y-120938130D01*
X141141450Y-120831398D01*
X141141450Y-120756500D01*
X144321968Y-120756500D01*
X144321968Y-121956500D01*
X144327485Y-122012517D01*
X144343825Y-122066381D01*
X144370358Y-122116022D01*
X144406067Y-122159533D01*
X144449578Y-122195242D01*
X144475789Y-122209252D01*
X144444278Y-122256411D01*
X144405513Y-122349999D01*
X144385750Y-122449351D01*
X144385750Y-122550649D01*
X144405513Y-122650001D01*
X144444278Y-122743589D01*
X144500556Y-122827815D01*
X144572185Y-122899444D01*
X144656411Y-122955722D01*
X144749999Y-122994487D01*
X144849351Y-123014250D01*
X144950649Y-123014250D01*
X145050001Y-122994487D01*
X145143589Y-122955722D01*
X145227815Y-122899444D01*
X145299444Y-122827815D01*
X145355722Y-122743589D01*
X145394487Y-122650001D01*
X145414250Y-122550649D01*
X145414250Y-122449351D01*
X145394487Y-122349999D01*
X145355722Y-122256411D01*
X145315843Y-122196727D01*
X145318622Y-122195242D01*
X145362133Y-122159533D01*
X145397842Y-122116022D01*
X145424375Y-122066381D01*
X145440715Y-122012517D01*
X145446232Y-121956500D01*
X145446232Y-120756500D01*
X145440715Y-120700483D01*
X145424375Y-120646619D01*
X145397842Y-120596978D01*
X145362133Y-120553467D01*
X145318622Y-120517758D01*
X145268981Y-120491225D01*
X145215117Y-120474885D01*
X145159100Y-120469368D01*
X144609100Y-120469368D01*
X144553083Y-120474885D01*
X144499219Y-120491225D01*
X144449578Y-120517758D01*
X144406067Y-120553467D01*
X144370358Y-120596978D01*
X144343825Y-120646619D01*
X144327485Y-120700483D01*
X144321968Y-120756500D01*
X141141450Y-120756500D01*
X141141450Y-120722574D01*
X141120220Y-120615842D01*
X141081750Y-120522968D01*
X141081750Y-120211850D01*
X146114250Y-120211850D01*
X146114250Y-122000000D01*
M02*
