M48
;DRILL file {KiCad 5.0.2-bee76a0~70~ubuntu18.04.1} date Sat 29 Feb 2020 05:30:34 PM PST
;FORMAT={-:-/ absolute / inch / decimal}
FMAT,2
INCH,TZ
T1C0.0118
T2C0.0400
T3C0.0433
%
G90
G05
T1
X5.1807Y-3.643
X5.22Y-4.1925
X5.245Y-4.7275
X5.2475Y-4.2925
X5.2611Y-4.3641
X5.266Y-4.3359
X5.2675Y-4.8875
X5.2736Y-4.2697
X5.2825Y-4.3125
X5.295Y-4.22
X5.295Y-4.2475
X5.305Y-4.785
X5.3225Y-4.1525
X5.3228Y-4.8228
X5.325Y-3.53
X5.3425Y-4.6673
X5.3525Y-3.7925
X5.3563Y-4.1378
X5.3675Y-4.695
X5.378Y-4.1181
X5.385Y-4.235
X5.3975Y-4.3725
X5.3995Y-3.7087
X5.4025Y-4.4425
X5.405Y-4.665
X5.4193Y-4.128
X5.4375Y-4.695
X5.455Y-3.6625
X5.46Y-4.005
X5.4705Y-4.6654
X5.4799Y-4.7874
X5.4825Y-4.025
X5.502Y-3.5728
X5.5025Y-4.22
X5.5025Y-4.2575
X5.505Y-4.4875
X5.506Y-4.2953
X5.5098Y-4.3246
X5.5125Y-4.7255
X5.52Y-3.545
X5.535Y-4.755
X5.54Y-4.9525
X5.5425Y-4.89
X5.5778Y-4.7726
X5.5787Y-4.2264
X5.58Y-4.0025
X5.58Y-4.045
X5.5827Y-4.1476
X5.5866Y-4.565
X5.5945Y-4.7008
X5.5993Y-4.3918
X5.6004Y-4.173
X5.6043Y-4.5394
X5.61Y-4.0275
X5.6201Y-4.9882
X5.6225Y-3.785
X5.63Y-4.0925
X5.63Y-4.6975
X5.6339Y-4.1811
X5.6339Y-4.5374
X5.6355Y-5.0552
X5.6457Y-4.9882
X5.6496Y-4.1535
X5.6634Y-4.3957
X5.6732Y-4.1299
X5.6794Y-4.2876
X5.6973Y-4.3941
X5.7047Y-4.8228
X5.7087Y-4.0039
X5.7224Y-4.1732
X5.7224Y-4.4094
X5.7323Y-4.5472
X5.74Y-5.02
X5.7415Y-4.829
X5.7667Y-4.5524
X5.7697Y-4.1988
X5.7697Y-4.435
X5.7702Y-4.3933
X5.7835Y-4.2854
X5.7894Y-3.5531
X5.79Y-3.7725
X5.7988Y-4.3934
X5.8012Y-4.5453
X5.8327Y-4.8642
X5.8375Y-3.91
X5.8465Y-4.5374
X5.8475Y-4.0177
X5.8491Y-4.3934
X5.8607Y-3.6329
X5.872Y-4.1791
X5.875Y-3.75
X5.8815Y-4.924
X5.8822Y-4.2098
X5.8825Y-3.9882
X5.8858Y-4.1083
X5.8858Y-4.2874
X5.8976Y-3.9035
X5.9016Y-4.7986
X5.9115Y-4.924
X5.935Y-4.5374
X5.9397Y-3.8852
X5.9584Y-4.1286
X5.9712Y-3.8852
X5.9815Y-4.799
X5.9823Y-3.939
X5.995Y-3.525
X6.0025Y-3.63
X6.0025Y-3.7575
X6.0027Y-3.8831
X6.0093Y-4.0965
X6.035Y-3.76
X6.0639Y-4.1062
X6.0689Y-4.7028
X6.0748Y-4.3209
X6.08Y-3.525
X6.0906Y-3.7815
X6.0906Y-3.8209
X6.0984Y-4.2972
X6.1004Y-4.1043
X6.105Y-4.1496
X6.107Y-4.6687
X6.1075Y-4.5425
X6.1083Y-4.5984
X6.1125Y-3.6325
X6.1319Y-4.813
X6.1515Y-3.954
X6.1515Y-4.099
X6.1515Y-4.774
X6.1535Y-4.6319
X6.155Y-4.9025
X6.189Y-4.3051
X6.1909Y-4.1378
X6.1925Y-4.595
X6.1941Y-4.5609
X6.1949Y-4.3484
X6.1997Y-3.9379
X6.205Y-4.9025
X6.2075Y-4.095
X6.2114Y-3.707
X6.2114Y-3.837
X6.2126Y-3.6634
X6.2175Y-4.655
X6.2233Y-4.8588
X6.2429Y-3.837
X6.254Y-3.5675
X6.2559Y-3.935
X6.2744Y-3.707
X6.304Y-3.844
X6.3059Y-3.707
X6.3346Y-3.7677
T2
X6.3315Y-4.249
X6.3315Y-4.349
X6.3315Y-4.449
X6.3315Y-4.549
X6.3315Y-4.649
X6.3315Y-4.749
T3
X6.0768Y-5.0527
X6.3366Y-5.0527
T0
M30
