%TF.GenerationSoftware,KiCad,Pcbnew,(5.1.4)-1*%
%TF.CreationDate,2019-12-19T22:46:11-07:00*%
%TF.ProjectId,base,62617365-2e6b-4696-9361-645f70636258,rev?*%
%TF.SameCoordinates,Original*%
%TF.FileFunction,Soldermask,Bot*%
%TF.FilePolarity,Negative*%
%FSLAX46Y46*%
G04 Gerber Fmt 4.6, Leading zero omitted, Abs format (unit mm)*
G04 Created by KiCad (PCBNEW (5.1.4)-1) date 2019-12-19 22:46:11*
%MOMM*%
%LPD*%
G04 APERTURE LIST*
%ADD10C,0.150000*%
%ADD11C,0.100000*%
%ADD12R,0.452400X1.752400*%
%ADD13R,1.052400X1.952400*%
%ADD14R,2.052400X2.052400*%
%ADD15C,2.022400*%
%ADD16R,1.752400X1.552400*%
%ADD17R,0.552400X1.502400*%
%ADD18R,1.352400X1.152400*%
%ADD19R,2.052400X1.502400*%
%ADD20R,1.322400X1.952400*%
%ADD21R,0.902400X1.252400*%
%ADD22R,1.002400X1.252400*%
%ADD23R,1.702400X1.502400*%
%ADD24C,1.879600*%
G04 APERTURE END LIST*
D10*
X131000500Y-114280540D02*
X131000500Y-118280540D01*
X162651441Y-102162541D02*
X162651441Y-95050541D01*
X161502382Y-105714800D02*
X162651441Y-105714800D01*
X161502382Y-102162541D02*
X162651441Y-102162541D01*
X129851441Y-123050540D02*
G75*
G02X129351441Y-123550540I-500000J0D01*
G01*
X129351441Y-94550541D02*
G75*
G02X129851441Y-95050541I0J-500000D01*
G01*
X162651441Y-95050541D02*
G75*
G02X163151441Y-94550541I500000J0D01*
G01*
X163151441Y-123550540D02*
G75*
G02X162651441Y-123050540I0J500000D01*
G01*
X128351441Y-88050540D02*
X128351441Y-94550540D01*
X163151441Y-94550541D02*
X164151441Y-94550540D01*
X162651441Y-123050540D02*
X162651441Y-105714800D01*
X164151441Y-123550540D02*
X163151441Y-123550540D01*
X164151441Y-94550540D02*
X164151440Y-88050541D01*
X129851441Y-95050541D02*
X129851441Y-114280540D01*
X128351441Y-94550540D02*
X129351441Y-94550541D01*
X128351441Y-130050540D02*
X162651440Y-130050540D01*
X129851441Y-114280540D02*
X131000500Y-114280540D01*
X161502382Y-102162541D02*
X161502382Y-105714800D01*
X162651440Y-88050540D02*
X128351441Y-88050540D01*
X131000500Y-118280540D02*
X129851441Y-118280540D01*
X128351441Y-123550540D02*
X128351441Y-130050540D01*
X129351441Y-123550540D02*
X128351441Y-123550540D01*
X129851441Y-118280540D02*
X129851441Y-123050540D01*
X162651440Y-130050540D02*
X164151440Y-130050540D01*
X164151440Y-88050541D02*
X162651440Y-88050540D01*
X164151440Y-130050540D02*
X164151441Y-123550540D01*
D11*
G36*
X142162500Y-113612800D02*
G01*
X142136535Y-113810020D01*
X142060411Y-113993800D01*
X141939315Y-114151615D01*
X141781500Y-114272711D01*
X141597720Y-114348835D01*
X141400500Y-114374800D01*
X141203280Y-114348835D01*
X141019500Y-114272711D01*
X140861685Y-114151615D01*
X140740589Y-113993800D01*
X140664465Y-113810020D01*
X140638500Y-113612800D01*
X140664465Y-113415580D01*
X140740589Y-113231800D01*
X140861685Y-113073985D01*
X141019500Y-112952889D01*
X141400500Y-112850800D01*
X141597720Y-112876765D01*
X141781500Y-112952889D01*
X141939315Y-113073985D01*
X142060411Y-113231800D01*
X142136535Y-113415580D01*
X142162500Y-113612800D01*
G37*
G36*
X152763700Y-113612800D02*
G01*
X152737735Y-113810020D01*
X152661611Y-113993800D01*
X152540515Y-114151615D01*
X152382700Y-114272711D01*
X152198920Y-114348835D01*
X152001700Y-114374800D01*
X151804480Y-114348835D01*
X151620700Y-114272711D01*
X151462885Y-114151615D01*
X151341789Y-113993800D01*
X151265665Y-113810020D01*
X151239700Y-113612800D01*
X151265665Y-113415580D01*
X151341789Y-113231800D01*
X151462885Y-113073985D01*
X151620700Y-112952889D01*
X152001700Y-112850800D01*
X152198920Y-112876765D01*
X152382700Y-112952889D01*
X152540515Y-113073985D01*
X152661611Y-113231800D01*
X152737735Y-113415580D01*
X152763700Y-113612800D01*
G37*
D12*
X142451100Y-116911500D03*
X142451100Y-113311300D03*
X142951100Y-116911500D03*
X142951100Y-113311300D03*
D13*
X140701100Y-115111400D03*
X152701100Y-115111400D03*
D12*
X143451100Y-116911500D03*
X143451100Y-113311300D03*
X143951100Y-116911500D03*
X143951100Y-113311300D03*
X144451100Y-116911500D03*
X144451100Y-113311300D03*
X144951100Y-116911500D03*
X144951100Y-113311300D03*
X145451100Y-116911500D03*
X145451100Y-113311300D03*
X145951100Y-116911500D03*
X145951100Y-113311300D03*
X146451100Y-116911500D03*
X146451100Y-113311300D03*
X146951100Y-116911500D03*
X146951100Y-113311300D03*
X147451100Y-116911500D03*
X147451100Y-113311300D03*
X147951100Y-116911500D03*
X147951100Y-113311300D03*
X148451100Y-116911500D03*
X148451100Y-113311300D03*
X148951100Y-116911500D03*
X148951100Y-113311300D03*
X149451100Y-116911500D03*
X149451100Y-113311300D03*
X149951100Y-116911500D03*
X149951100Y-113311300D03*
X150451100Y-116911500D03*
X150451100Y-113311300D03*
X150951100Y-116911500D03*
X150951100Y-113311300D03*
D14*
X156450000Y-128339000D03*
X158850000Y-128339000D03*
D15*
X160950000Y-128339000D03*
X154350000Y-128339000D03*
D16*
X154450000Y-125664000D03*
X160850000Y-125664000D03*
D17*
X156350000Y-125664000D03*
X158950000Y-125664000D03*
X158300000Y-125664000D03*
X157000000Y-125664000D03*
X157650000Y-125664000D03*
D18*
X160393500Y-96703900D03*
X160393500Y-100403900D03*
D19*
X156893500Y-101378900D03*
X150923500Y-101378900D03*
D20*
X148898500Y-90903900D03*
D21*
X150108500Y-90553900D03*
D22*
X151158500Y-90553900D03*
X152258500Y-90553900D03*
X153358500Y-90553900D03*
X154458500Y-90553900D03*
X155558500Y-90553900D03*
X156658500Y-90553900D03*
X157758500Y-90553900D03*
D23*
X160218500Y-90678900D03*
D24*
X160820100Y-120624600D03*
X160820100Y-118084600D03*
X160820100Y-115544600D03*
X160820100Y-113004600D03*
X160820100Y-110464600D03*
X160820100Y-107924600D03*
M02*
