M48
; DRILL file {KiCad (5.1.4)-1} date 12/19/2019 10:46:25 PM
; FORMAT={-:-/ absolute / inch / decimal}
; #@! TF.CreationDate,2019-12-19T22:46:25-07:00
; #@! TF.GenerationSoftware,Kicad,Pcbnew,(5.1.4)-1
FMAT,2
INCH
T1C0.0100
T2C0.0118
T3C0.0130
T4C0.0157
T5C0.0160
T6C0.0400
T7C0.0433
%
G90
G05
T1
X5.3225Y-4.1525
X5.3409Y-4.6625
X5.3525Y-4.1525
X5.3806Y-4.1474
X5.4193Y-4.128
X5.4346Y-3.6056
X5.4375Y-4.695
X5.4975Y-3.5725
X5.503Y-4.3025
X5.503Y-4.3255
X5.5075Y-4.4
X5.51Y-4.4229
X5.51Y-4.4458
X5.52Y-3.545
X5.58Y-4.785
X5.622Y-4.5098
X5.6275Y-4.3125
X5.6348Y-5.056
X5.6476Y-4.5335
X5.6693Y-4.126
X5.6701Y-4.7005
X5.6889Y-4.1043
X5.6909Y-4.5413
X5.7047Y-4.8228
X5.72Y-4.1025
X5.7205Y-4.5118
X5.7205Y-4.7006
X5.7415Y-4.829
X5.7461Y-4.5492
X5.7697Y-4.1046
X5.7736Y-4.5118
X5.7875Y-4.375
X5.805Y-4.405
X5.825Y-4.375
X5.8327Y-4.8642
X5.8858Y-4.1083
X5.9705Y-4.6024
X5.9938Y-4.1286
X6.0096Y-4.0965
X6.061Y-3.8839
X6.065Y-4.1063
X6.0866Y-3.8504
X6.0945Y-4.1063
X6.1043Y-4.1496
X6.107Y-4.6687
X6.1535Y-4.6319
X6.1865Y-4.299
X6.205Y-4.9025
X6.2075Y-4.095
X6.2125Y-4.325
X6.2175Y-4.655
X6.2233Y-4.8588
T2
X5.22Y-4.1925
X5.245Y-4.7275
X5.2475Y-4.2925
X5.2675Y-4.36
X5.2725Y-4.335
X5.2825Y-4.3125
X5.2875Y-4.2725
X5.295Y-4.22
X5.295Y-4.2475
X5.305Y-4.785
X5.3525Y-3.7925
X5.3675Y-4.695
X5.385Y-4.235
X5.3975Y-4.3725
X5.4025Y-4.4425
X5.405Y-4.665
X5.455Y-3.6625
X5.46Y-4.005
X5.4705Y-4.305
X5.48Y-4.7875
X5.4825Y-4.025
X5.5025Y-4.22
X5.5025Y-4.2575
X5.505Y-4.63
X5.5125Y-4.7255
X5.54Y-4.9525
X5.5425Y-4.89
X5.5725Y-4.225
X5.58Y-4.0025
X5.58Y-4.045
X5.59Y-4.685
X5.6075Y-4.5575
X5.61Y-4.0275
X5.6225Y-3.785
X5.63Y-4.0925
X5.63Y-4.6975
X5.6675Y-4.555
X5.6875Y-4.5075
X5.7175Y-4.0025
X5.74Y-5.02
X5.765Y-4.4175
X5.7725Y-4.55
X5.79Y-3.7725
X5.865Y-4.55
X5.9025Y-4.415
X5.995Y-3.525
X6.0025Y-3.63
X6.0025Y-3.7575
X6.035Y-3.76
X6.065Y-4.7
X6.08Y-3.525
X6.1125Y-3.6325
X6.115Y-4.29
T3
X5.1807Y-3.643
X5.2675Y-4.8875
X5.3228Y-4.8228
X5.325Y-3.53
X5.505Y-4.4875
X5.535Y-4.755
X5.6201Y-4.9882
X5.6457Y-4.9882
X5.8375Y-3.91
X5.8475Y-4.0177
X5.8815Y-4.924
X5.8825Y-3.9882
X5.9016Y-4.7972
X5.9115Y-4.924
X5.9397Y-3.8852
X5.9712Y-3.8852
X5.9815Y-4.799
X5.9823Y-3.939
X6.0027Y-3.8852
X6.0342Y-3.8852
X6.1075Y-4.5425
X6.1091Y-4.5977
X6.1319Y-4.813
X6.1515Y-3.954
X6.1515Y-4.099
X6.1515Y-4.774
X6.155Y-4.9025
X6.19Y-4.1425
X6.1925Y-4.595
X6.195Y-4.56
X6.1997Y-3.9379
X6.2114Y-3.707
X6.2114Y-3.837
X6.2126Y-3.6634
X6.2429Y-3.837
X6.2559Y-3.935
X6.2744Y-3.707
X6.304Y-3.844
X6.3059Y-3.707
X6.306Y-3.772
T4
X5.7894Y-3.5531
X5.875Y-3.75
X5.8976Y-3.9035
T5
X5.8607Y-3.6329
X6.254Y-3.5675
T6
X6.3315Y-4.249
X6.3315Y-4.349
X6.3315Y-4.449
X6.3315Y-4.549
X6.3315Y-4.649
X6.3315Y-4.749
T7
X6.0768Y-5.0527
X6.3366Y-5.0527
T0
M30
