%TF.GenerationSoftware,KiCad,Pcbnew,(5.1.4)-1*%
%TF.CreationDate,2019-12-19T22:46:11-07:00*%
%TF.ProjectId,base,62617365-2e6b-4696-9361-645f70636258,rev?*%
%TF.SameCoordinates,Original*%
%TF.FileFunction,Copper,L4,Bot*%
%TF.FilePolarity,Positive*%
%FSLAX46Y46*%
G04 Gerber Fmt 4.6, Leading zero omitted, Abs format (unit mm)*
G04 Created by KiCad (PCBNEW (5.1.4)-1) date 2019-12-19 22:46:11*
%MOMM*%
%LPD*%
G04 APERTURE LIST*
%ADD10C,0.150000*%
%ADD11R,0.300000X1.600000*%
%ADD12R,0.900000X1.800000*%
%ADD13R,1.900000X1.900000*%
%ADD14C,1.870000*%
%ADD15R,1.600000X1.400000*%
%ADD16R,0.400000X1.350000*%
%ADD17R,1.200000X1.000000*%
%ADD18R,1.900000X1.350000*%
%ADD19R,1.170000X1.800000*%
%ADD20R,0.750000X1.100000*%
%ADD21R,0.850000X1.100000*%
%ADD22R,1.550000X1.350000*%
%ADD23C,1.727200*%
%ADD24C,0.609600*%
%ADD25C,0.533400*%
%ADD26C,0.457000*%
%ADD27C,0.800000*%
%ADD28C,0.450000*%
%ADD29C,0.457200*%
%ADD30C,0.406400*%
%ADD31C,0.250000*%
%ADD32C,0.203200*%
%ADD33C,0.127000*%
%ADD34C,0.152400*%
G04 APERTURE END LIST*
D10*
X131000500Y-114280540D02*
X131000500Y-118280540D01*
X162651441Y-102162541D02*
X162651441Y-95050541D01*
X161502382Y-105714800D02*
X162651441Y-105714800D01*
X161502382Y-102162541D02*
X162651441Y-102162541D01*
X129851441Y-123050540D02*
G75*
G02X129351441Y-123550540I-500000J0D01*
G01*
X129351441Y-94550541D02*
G75*
G02X129851441Y-95050541I0J-500000D01*
G01*
X162651441Y-95050541D02*
G75*
G02X163151441Y-94550541I500000J0D01*
G01*
X163151441Y-123550540D02*
G75*
G02X162651441Y-123050540I0J500000D01*
G01*
X128351441Y-88050540D02*
X128351441Y-94550540D01*
X163151441Y-94550541D02*
X164151441Y-94550540D01*
X162651441Y-123050540D02*
X162651441Y-105714800D01*
X164151441Y-123550540D02*
X163151441Y-123550540D01*
X164151441Y-94550540D02*
X164151440Y-88050541D01*
X129851441Y-95050541D02*
X129851441Y-114280540D01*
X128351441Y-94550540D02*
X129351441Y-94550541D01*
X128351441Y-130050540D02*
X162651440Y-130050540D01*
X129851441Y-114280540D02*
X131000500Y-114280540D01*
X161502382Y-102162541D02*
X161502382Y-105714800D01*
X162651440Y-88050540D02*
X128351441Y-88050540D01*
X131000500Y-118280540D02*
X129851441Y-118280540D01*
X128351441Y-123550540D02*
X128351441Y-130050540D01*
X129351441Y-123550540D02*
X128351441Y-123550540D01*
X129851441Y-118280540D02*
X129851441Y-123050540D01*
X162651440Y-130050540D02*
X164151440Y-130050540D01*
X164151440Y-88050541D02*
X162651440Y-88050540D01*
X164151440Y-130050540D02*
X164151441Y-123550540D01*
D11*
X142451100Y-116911500D03*
X142451100Y-113311300D03*
X142951100Y-116911500D03*
X142951100Y-113311300D03*
D12*
X140701100Y-115111400D03*
X152701100Y-115111400D03*
D11*
X143451100Y-116911500D03*
X143451100Y-113311300D03*
X143951100Y-116911500D03*
X143951100Y-113311300D03*
X144451100Y-116911500D03*
X144451100Y-113311300D03*
X144951100Y-116911500D03*
X144951100Y-113311300D03*
X145451100Y-116911500D03*
X145451100Y-113311300D03*
X145951100Y-116911500D03*
X145951100Y-113311300D03*
X146451100Y-116911500D03*
X146451100Y-113311300D03*
X146951100Y-116911500D03*
X146951100Y-113311300D03*
X147451100Y-116911500D03*
X147451100Y-113311300D03*
X147951100Y-116911500D03*
X147951100Y-113311300D03*
X148451100Y-116911500D03*
X148451100Y-113311300D03*
X148951100Y-116911500D03*
X148951100Y-113311300D03*
X149451100Y-116911500D03*
X149451100Y-113311300D03*
X149951100Y-116911500D03*
X149951100Y-113311300D03*
X150451100Y-116911500D03*
X150451100Y-113311300D03*
X150951100Y-116911500D03*
X150951100Y-113311300D03*
D13*
X156450000Y-128339000D03*
X158850000Y-128339000D03*
D14*
X160950000Y-128339000D03*
X154350000Y-128339000D03*
D15*
X154450000Y-125664000D03*
X160850000Y-125664000D03*
D16*
X156350000Y-125664000D03*
X158950000Y-125664000D03*
X158300000Y-125664000D03*
X157000000Y-125664000D03*
X157650000Y-125664000D03*
D17*
X160393500Y-96703900D03*
X160393500Y-100403900D03*
D18*
X156893500Y-101378900D03*
X150923500Y-101378900D03*
D19*
X148898500Y-90903900D03*
D20*
X150108500Y-90553900D03*
D21*
X151158500Y-90553900D03*
X152258500Y-90553900D03*
X153358500Y-90553900D03*
X154458500Y-90553900D03*
X155558500Y-90553900D03*
X156658500Y-90553900D03*
X157758500Y-90553900D03*
D22*
X160218500Y-90678900D03*
D23*
X160820100Y-120624600D03*
X160820100Y-118084600D03*
X160820100Y-115544600D03*
X160820100Y-113004600D03*
X160820100Y-110464600D03*
X160820100Y-107924600D03*
D24*
X156248100Y-121259600D03*
D25*
X159369100Y-94158600D03*
D24*
X148863000Y-92276900D03*
D26*
X141732000Y-121539000D03*
X148150000Y-123550000D03*
X145834100Y-122656600D03*
D25*
X131589000Y-92531000D03*
X135200000Y-122500000D03*
X158900000Y-99950000D03*
X156248100Y-100431600D03*
X157471600Y-100021600D03*
D27*
X149800000Y-99150000D03*
X147050000Y-90250000D03*
D25*
X149900000Y-121850000D03*
X139827000Y-113982500D03*
D28*
X140779500Y-124206000D03*
X140017500Y-120026711D03*
X141986004Y-118999000D03*
X139827000Y-117602000D03*
X137287000Y-118491000D03*
X136334500Y-119253000D03*
X139192000Y-121602500D03*
X134493000Y-107886500D03*
X134493000Y-107188000D03*
X136779000Y-107569000D03*
X137096500Y-111061500D03*
X137223500Y-112839500D03*
X139763500Y-107188000D03*
X143002000Y-103949500D03*
X152273000Y-89535000D03*
X152463500Y-92202000D03*
X135953500Y-96329500D03*
X154051000Y-119380000D03*
X149923500Y-112141000D03*
X146431000Y-112204500D03*
X144462500Y-114490500D03*
X138950709Y-109348002D03*
D26*
X139776290Y-109283701D03*
D28*
X141732000Y-101663504D03*
X138684000Y-101727000D03*
D25*
X156337000Y-124523500D03*
X157226000Y-105219500D03*
D26*
X157670500Y-104013000D03*
D25*
X149415500Y-101300000D03*
D24*
X158851600Y-90614500D03*
D25*
X160172432Y-95808800D03*
X151930100Y-121894600D03*
D26*
X157924500Y-118237000D03*
D25*
X156248100Y-104114600D03*
X157769100Y-97460600D03*
X160169100Y-94158600D03*
X158569100Y-97460600D03*
D26*
X143123000Y-128422300D03*
X155117800Y-118584980D03*
X156300000Y-117650000D03*
D25*
X142750000Y-126700000D03*
X143400000Y-126700000D03*
D26*
X151650000Y-116900000D03*
D28*
X139763500Y-108140500D03*
X140716000Y-125793500D03*
X143002000Y-119316500D03*
D26*
X135658860Y-118427500D03*
D28*
X134747000Y-121539000D03*
X133223000Y-120078500D03*
D25*
X133794500Y-124142500D03*
D28*
X141541500Y-107314994D03*
X147066000Y-95821500D03*
D27*
X149225004Y-95250000D03*
D28*
X152463500Y-95440500D03*
X153289000Y-95504000D03*
X154432000Y-89535000D03*
X155257500Y-92265500D03*
D25*
X148272500Y-99314000D03*
D28*
X145224500Y-101663500D03*
X148971000Y-115570000D03*
X146621500Y-115570000D03*
X143954500Y-115697000D03*
X142430500Y-115760500D03*
X142811500Y-96139000D03*
D26*
X139776290Y-109867714D03*
D28*
X142494000Y-102298500D03*
X141732000Y-102743000D03*
X139255500Y-102235000D03*
D25*
X135255000Y-89662000D03*
X149390100Y-125069600D03*
X150152100Y-125069600D03*
X157769100Y-94158600D03*
X157800000Y-93050000D03*
X140589000Y-120776986D03*
X160121600Y-97637600D03*
D26*
X152241338Y-104867182D03*
D25*
X148526500Y-102050000D03*
X153269100Y-98683600D03*
D26*
X154600000Y-97800000D03*
D25*
X152469100Y-98683600D03*
D29*
X157797500Y-109855000D03*
X157137100Y-109194600D03*
D25*
X151669100Y-98683600D03*
X150869100Y-98683600D03*
X151950000Y-100050000D03*
D26*
X154050000Y-104300000D03*
D28*
X133794500Y-110744000D03*
D25*
X157289500Y-116713006D03*
D28*
X133921500Y-110109000D03*
D25*
X155170006Y-116781479D03*
D28*
X134175500Y-109537500D03*
D25*
X157353000Y-115824000D03*
D28*
X134302500Y-108521500D03*
D25*
X155130516Y-115379500D03*
D26*
X145300000Y-114600000D03*
X144000000Y-104800000D03*
X144498352Y-104249265D03*
X142800000Y-114550000D03*
X145288004Y-104203500D03*
X142938500Y-109537500D03*
X146650000Y-114600000D03*
X146550000Y-104256100D03*
X147002500Y-111125000D03*
X147447000Y-111887008D03*
X155050000Y-105400000D03*
X147955000Y-111125000D03*
X149500000Y-104350000D03*
X153950000Y-98650000D03*
X152642900Y-104050000D03*
X154800000Y-104300000D03*
X157607004Y-124523500D03*
X158071800Y-123412252D03*
X145950000Y-115550000D03*
D28*
X155321000Y-108966000D03*
D26*
X144550000Y-115350000D03*
X143450000Y-115150000D03*
X145300000Y-119395160D03*
X144021240Y-119391710D03*
X138039000Y-91581000D03*
X139954999Y-112924450D03*
X139954997Y-112340439D03*
X139636500Y-90741500D03*
X139890500Y-111760000D03*
X140208000Y-90043000D03*
X135191500Y-105473486D03*
X135953500Y-105473500D03*
X136668462Y-105343576D03*
X137650000Y-104850000D03*
D28*
X138557000Y-93027500D03*
D25*
X155750000Y-122250000D03*
D26*
X138112500Y-119253000D03*
X144900000Y-122500000D03*
D28*
X133286500Y-109029500D03*
X132588000Y-106489496D03*
X145796034Y-127508000D03*
D30*
X148863000Y-90599900D02*
X148863000Y-92276900D01*
X157471600Y-101378900D02*
X157471600Y-100021600D01*
X157471600Y-100021600D02*
X157471600Y-100021600D01*
D31*
X152265100Y-90553900D02*
X152265100Y-89542900D01*
X152265100Y-89542900D02*
X152273000Y-89535000D01*
X149951100Y-113311300D02*
X149951100Y-112168600D01*
X149951100Y-112168600D02*
X149923500Y-112141000D01*
X146451100Y-113311300D02*
X146451100Y-112224600D01*
X146451100Y-112224600D02*
X146431000Y-112204500D01*
X144451100Y-113311300D02*
X144451100Y-114479100D01*
X144451100Y-114479100D02*
X144462500Y-114490500D01*
D32*
X156350000Y-125664000D02*
X156350000Y-124536500D01*
X156350000Y-124536500D02*
X156337000Y-124523500D01*
D30*
X149444400Y-101328900D02*
X149415500Y-101300000D01*
X151751600Y-101328900D02*
X149444400Y-101328900D01*
X158872000Y-90634900D02*
X158851600Y-90614500D01*
X160274000Y-90634900D02*
X158872000Y-90634900D01*
X160463600Y-96099968D02*
X160172432Y-95808800D01*
X160463600Y-96805500D02*
X160463600Y-96099968D01*
D32*
X157696001Y-118465499D02*
X157924500Y-118237000D01*
X154266900Y-121894600D02*
X157696001Y-118465499D01*
X151930100Y-121894600D02*
X154266900Y-121894600D01*
D33*
X151638500Y-116911500D02*
X151650000Y-116900000D01*
D31*
X154465100Y-90553900D02*
X154465100Y-89568100D01*
X154465100Y-89568100D02*
X154432000Y-89535000D01*
X150962600Y-116900000D02*
X150951100Y-116911500D01*
X151650000Y-116900000D02*
X150962600Y-116900000D01*
X148951100Y-116911500D02*
X148951100Y-115589900D01*
X148951100Y-115589900D02*
X148971000Y-115570000D01*
X146451100Y-116911500D02*
X146451100Y-115740400D01*
X146451100Y-115740400D02*
X146621500Y-115570000D01*
X143951100Y-116911500D02*
X143951100Y-115700400D01*
X143951100Y-115700400D02*
X143954500Y-115697000D01*
X142451100Y-116911500D02*
X142451100Y-115781100D01*
X142451100Y-115781100D02*
X142430500Y-115760500D01*
D32*
X157758500Y-91667700D02*
X157758500Y-90553900D01*
X158586600Y-92495800D02*
X157758500Y-91667700D01*
X157769100Y-94158600D02*
X158586600Y-93341100D01*
X158586600Y-93341100D02*
X158586600Y-92495800D01*
X156819600Y-92069600D02*
X156819600Y-90728800D01*
X157800000Y-93050000D02*
X156819600Y-92069600D01*
D34*
X140855699Y-120510287D02*
X140589000Y-120776986D01*
X141162105Y-120203881D02*
X140855699Y-120510287D01*
X149544119Y-120203881D02*
X141162105Y-120203881D01*
X155066999Y-114681001D02*
X149544119Y-120203881D01*
X160820100Y-115544600D02*
X159956501Y-114681001D01*
X159956501Y-114681001D02*
X155066999Y-114681001D01*
D31*
X162150000Y-114214700D02*
X160820100Y-115544600D01*
X162150000Y-107235200D02*
X162150000Y-114214700D01*
X160121600Y-98653600D02*
X161340800Y-99872800D01*
X161340800Y-99872800D02*
X161340800Y-101041200D01*
X161340800Y-101041200D02*
X160274000Y-102108000D01*
X160274000Y-102108000D02*
X160274000Y-105359200D01*
X160121600Y-97637600D02*
X160121600Y-98653600D01*
X160274000Y-105359200D02*
X162150000Y-107235200D01*
D34*
X151343682Y-104867182D02*
X148526500Y-102050000D01*
X152241338Y-104867182D02*
X151343682Y-104867182D01*
D32*
X155558500Y-91398100D02*
X155558500Y-90553900D01*
X156386600Y-92226200D02*
X155558500Y-91398100D01*
X156386600Y-94363400D02*
X156386600Y-92226200D01*
X154600000Y-97800000D02*
X154600000Y-96150000D01*
X154600000Y-96150000D02*
X156386600Y-94363400D01*
X157797500Y-108966000D02*
X157797500Y-109531711D01*
X152469100Y-98683600D02*
X153430210Y-99644710D01*
X153430210Y-107330210D02*
X154113500Y-108013500D01*
X153430210Y-99644710D02*
X153430210Y-107330210D01*
X154113500Y-108013500D02*
X156845000Y-108013500D01*
X157797500Y-109531711D02*
X157797500Y-109855000D01*
X156845000Y-108013500D02*
X157797500Y-108966000D01*
X152469100Y-96219100D02*
X152469100Y-98630900D01*
X151350000Y-95100000D02*
X152469100Y-96219100D01*
X151384000Y-90474800D02*
X151350000Y-90508800D01*
X151350000Y-90508800D02*
X151350000Y-95100000D01*
X156400500Y-108458000D02*
X157137100Y-109194600D01*
X153858000Y-108458000D02*
X156400500Y-108458000D01*
X153100000Y-107700000D02*
X153858000Y-108458000D01*
X151669100Y-98683600D02*
X153100000Y-100114500D01*
X153100000Y-100114500D02*
X153100000Y-107700000D01*
X150108500Y-91739300D02*
X150108500Y-90553900D01*
X150936600Y-92567400D02*
X150108500Y-91739300D01*
X150936600Y-95436600D02*
X150936600Y-92567400D01*
X151669100Y-98630900D02*
X151669100Y-96169100D01*
X151669100Y-96169100D02*
X150936600Y-95436600D01*
X151950000Y-99764500D02*
X150869100Y-98683600D01*
X151950000Y-100050000D02*
X151950000Y-99764500D01*
D34*
X159336500Y-100403900D02*
X160426400Y-100403900D01*
X158546800Y-101193600D02*
X159336500Y-100403900D01*
X158546800Y-101904800D02*
X158546800Y-101193600D01*
X157988000Y-102463600D02*
X158546800Y-101904800D01*
X154050000Y-104300000D02*
X155886400Y-102463600D01*
X155886400Y-102463600D02*
X157988000Y-102463600D01*
X156912330Y-116713006D02*
X157289500Y-116713006D01*
X156086824Y-116713006D02*
X156912330Y-116713006D01*
X133794500Y-119062500D02*
X137922000Y-123190000D01*
X133794500Y-110744000D02*
X133794500Y-119062500D01*
X142621000Y-123190000D02*
X144430901Y-121380099D01*
X144430901Y-121380099D02*
X151419731Y-121380099D01*
X137922000Y-123190000D02*
X142621000Y-123190000D01*
X151419731Y-121380099D02*
X156086824Y-116713006D01*
X154903307Y-117048178D02*
X155170006Y-116781479D01*
X150896629Y-121054856D02*
X154903307Y-117048178D01*
X134222702Y-110410202D02*
X134222702Y-118982702D01*
X133921500Y-110109000D02*
X134222702Y-110410202D01*
X134222702Y-118982702D02*
X138049000Y-122809000D01*
X138049000Y-122809000D02*
X142367000Y-122809000D01*
X142367000Y-122809000D02*
X144121144Y-121054856D01*
X144121144Y-121054856D02*
X150896629Y-121054856D01*
X155432029Y-115824000D02*
X157353000Y-115824000D01*
X150493328Y-120762701D02*
X155432029Y-115824000D01*
X134502113Y-109864113D02*
X134502113Y-118627113D01*
X134175500Y-109537500D02*
X134502113Y-109864113D01*
X134502113Y-118627113D02*
X138303000Y-122428000D01*
X138303000Y-122428000D02*
X142122000Y-122428000D01*
X142122000Y-122428000D02*
X143787297Y-120762703D01*
X143787297Y-120762703D02*
X150493328Y-120762701D01*
X150026724Y-120483292D02*
X155130516Y-115379500D01*
X134781523Y-109000523D02*
X134781523Y-118414451D01*
X134302500Y-108521500D02*
X134781523Y-109000523D01*
X134781523Y-118414451D02*
X138414072Y-122047000D01*
X138414072Y-122047000D02*
X141859000Y-122047000D01*
X141859000Y-122047000D02*
X143422708Y-120483292D01*
X143422708Y-120483292D02*
X150026724Y-120483292D01*
D33*
X145300000Y-115220122D02*
X145300000Y-114600000D01*
X144451100Y-116911500D02*
X144451100Y-116069022D01*
X144451100Y-116069022D02*
X145300000Y-115220122D01*
X142451100Y-113311300D02*
X142451100Y-106348900D01*
X143771501Y-105028499D02*
X144000000Y-104800000D01*
X142451100Y-106348900D02*
X143771501Y-105028499D01*
X142951100Y-115630446D02*
X142020501Y-114699847D01*
X142020501Y-106159377D02*
X143930613Y-104249265D01*
X142020501Y-114699847D02*
X142020501Y-106159377D01*
X142951100Y-116911500D02*
X142951100Y-115630446D01*
X143930613Y-104249265D02*
X144175205Y-104249265D01*
X144175205Y-104249265D02*
X144498352Y-104249265D01*
X142800000Y-115120122D02*
X142800000Y-114550000D01*
X143451100Y-116911500D02*
X143451100Y-115771222D01*
X143451100Y-115771222D02*
X142800000Y-115120122D01*
X145288004Y-104203500D02*
X145288004Y-107187996D01*
X143166999Y-109309001D02*
X142938500Y-109537500D01*
X145288004Y-107187996D02*
X143166999Y-109309001D01*
X147451100Y-116911500D02*
X147451100Y-115601100D01*
X147451100Y-115601100D02*
X147451100Y-115401100D01*
X147451100Y-115401100D02*
X146650000Y-114600000D01*
X146550000Y-104256100D02*
X146543900Y-104250000D01*
X146550000Y-104256100D02*
X146550000Y-104256100D01*
X142951100Y-110540900D02*
X142951100Y-113311300D01*
X146550000Y-104256100D02*
X146550000Y-106942000D01*
X146550000Y-106942000D02*
X142951100Y-110540900D01*
X146951100Y-111176400D02*
X147002500Y-111125000D01*
X146951100Y-113311300D02*
X146951100Y-111176400D01*
X147451100Y-113311300D02*
X147451100Y-111891108D01*
X147451100Y-111891108D02*
X147447000Y-111887008D01*
X155326701Y-105676701D02*
X158572201Y-105676701D01*
X158572201Y-105676701D02*
X159956501Y-107061001D01*
X159956501Y-107061001D02*
X160820100Y-107924600D01*
X155050000Y-105400000D02*
X155326701Y-105676701D01*
X147951100Y-111128900D02*
X147955000Y-111125000D01*
X147951100Y-113311300D02*
X147951100Y-111128900D01*
X149500000Y-107835400D02*
X149500000Y-104350000D01*
X144951100Y-113311300D02*
X144951100Y-112384300D01*
X144951100Y-112384300D02*
X149500000Y-107835400D01*
D32*
X153358500Y-91433300D02*
X153358500Y-90553900D01*
X153936600Y-92011400D02*
X153358500Y-91433300D01*
X153950000Y-98650000D02*
X153936600Y-98636600D01*
X153936600Y-98636600D02*
X153936600Y-92011400D01*
D33*
X148451100Y-113311300D02*
X148451100Y-112384300D01*
X152660339Y-104390586D02*
X152660339Y-108175061D01*
X152642900Y-104373147D02*
X152660339Y-104390586D01*
X152642900Y-104050000D02*
X152642900Y-104373147D01*
X152660339Y-108175061D02*
X148451100Y-112384300D01*
X154521501Y-105491623D02*
X156279878Y-107250000D01*
X157605500Y-107250000D02*
X160820100Y-110464600D01*
X156279878Y-107250000D02*
X157605500Y-107250000D01*
X154521501Y-105491623D02*
X154521501Y-104578499D01*
X154521501Y-104578499D02*
X154800000Y-104300000D01*
D32*
X157650000Y-124566496D02*
X157607004Y-124523500D01*
X157650000Y-125664000D02*
X157650000Y-124566496D01*
X158300000Y-125664000D02*
X158300000Y-123640452D01*
X158300000Y-123640452D02*
X158071800Y-123412252D01*
D33*
X145950000Y-113312400D02*
X145951100Y-113311300D01*
X145950000Y-115550000D02*
X145950000Y-113312400D01*
D34*
X151193500Y-114871500D02*
X155321000Y-110744000D01*
X155321000Y-110744000D02*
X155321000Y-108966000D01*
X149034500Y-114871500D02*
X151193500Y-114871500D01*
X148451100Y-116911500D02*
X148451100Y-115454900D01*
X148451100Y-115454900D02*
X149034500Y-114871500D01*
D33*
X144050000Y-113410200D02*
X143951100Y-113311300D01*
X143992232Y-113352432D02*
X143951100Y-113311300D01*
X143951100Y-114501100D02*
X143951100Y-113311300D01*
X143951100Y-114501100D02*
X143951100Y-114751100D01*
X143951100Y-114751100D02*
X144550000Y-115350000D01*
X143450000Y-113312400D02*
X143451100Y-113311300D01*
X143450000Y-115150000D02*
X143450000Y-113312400D01*
X145312700Y-119407860D02*
X145300000Y-119395160D01*
X147951100Y-116911500D02*
X147951100Y-117838500D01*
X146381740Y-119407860D02*
X145312700Y-119407860D01*
X147951100Y-117838500D02*
X146381740Y-119407860D01*
X146951100Y-117838500D02*
X145813441Y-118976159D01*
X145813441Y-118976159D02*
X144436791Y-118976159D01*
X144436791Y-118976159D02*
X144021240Y-119391710D01*
X146951100Y-116911500D02*
X146951100Y-117838500D01*
D34*
X137668000Y-110960598D02*
X139631852Y-112924450D01*
X137668000Y-105615376D02*
X137668000Y-110960598D01*
X137150000Y-105097376D02*
X137668000Y-105615376D01*
X138039000Y-91581000D02*
X137150000Y-92470000D01*
X139631852Y-112924450D02*
X139954999Y-112924450D01*
X137150000Y-92470000D02*
X137150000Y-105097376D01*
X139631850Y-112340439D02*
X138176000Y-110884589D01*
X139636500Y-98063500D02*
X139636500Y-91064647D01*
X139636500Y-91064647D02*
X139636500Y-90741500D01*
X138176000Y-99524000D02*
X139636500Y-98063500D01*
X139954997Y-112340439D02*
X139631850Y-112340439D01*
X138176000Y-110884589D02*
X138176000Y-99524000D01*
X140436499Y-90271499D02*
X140208000Y-90043000D01*
X139890500Y-111760000D02*
X140436499Y-111214001D01*
X140436499Y-111214001D02*
X140436499Y-90271499D01*
D33*
X135445500Y-105727486D02*
X135191500Y-105473486D01*
X145951100Y-118298900D02*
X145724477Y-118525523D01*
X145951100Y-116911500D02*
X145951100Y-118298900D01*
X138825523Y-118525523D02*
X135445500Y-115145500D01*
X145724477Y-118525523D02*
X138825523Y-118525523D01*
X135445500Y-115145500D02*
X135445500Y-105727486D01*
X145451100Y-116911500D02*
X145451100Y-118098900D01*
X145278488Y-118271512D02*
X139021512Y-118271512D01*
X135953500Y-105796647D02*
X135953500Y-105473500D01*
X145451100Y-118098900D02*
X145278488Y-118271512D01*
X139021512Y-118271512D02*
X135953500Y-115203500D01*
X135953500Y-115203500D02*
X135953500Y-105796647D01*
X136334500Y-115225276D02*
X136334500Y-105677538D01*
X144951100Y-117838500D02*
X144777623Y-118011977D01*
X136334500Y-105677538D02*
X136668462Y-105343576D01*
X144951100Y-116911500D02*
X144951100Y-117838500D01*
X139126725Y-118017501D02*
X136334500Y-115225276D01*
X144777623Y-118011977D02*
X140031965Y-118011977D01*
X140031965Y-118011977D02*
X140026441Y-118017501D01*
X140026441Y-118017501D02*
X139126725Y-118017501D01*
D34*
X138557000Y-98044000D02*
X138557000Y-93027500D01*
X137650000Y-104850000D02*
X137650000Y-98951000D01*
X137650000Y-98951000D02*
X138557000Y-98044000D01*
D32*
X157556000Y-122250000D02*
X155750000Y-122250000D01*
X158950000Y-125603000D02*
X158950000Y-123644000D01*
X158950000Y-123644000D02*
X157556000Y-122250000D01*
D33*
X154450000Y-128239000D02*
X154350000Y-128339000D01*
X154450000Y-125664000D02*
X154450000Y-128239000D01*
X154350000Y-128339000D02*
X156450000Y-128339000D01*
X158850000Y-128339000D02*
X156450000Y-128339000D01*
X159927000Y-128339000D02*
X160950000Y-128339000D01*
X158850000Y-128339000D02*
X159927000Y-128339000D01*
D32*
X160950000Y-125764000D02*
X160850000Y-125664000D01*
X160950000Y-128339000D02*
X160950000Y-125764000D01*
D31*
X150451100Y-116911500D02*
X150451100Y-118026900D01*
X150451100Y-118026900D02*
X148602330Y-119875670D01*
X141148170Y-119875670D02*
X140525500Y-119253000D01*
X140525500Y-119253000D02*
X138112500Y-119253000D01*
X148602330Y-119875670D02*
X141148170Y-119875670D01*
D33*
X144800000Y-122600000D02*
X144900000Y-122500000D01*
D34*
X133286500Y-111252000D02*
X133286500Y-109029500D01*
X133286500Y-119062500D02*
X133286500Y-111252000D01*
X137795000Y-123571000D02*
X133286500Y-119062500D01*
X142875000Y-123571000D02*
X137795000Y-123571000D01*
X144900000Y-122500000D02*
X143946000Y-122500000D01*
X143946000Y-122500000D02*
X142875000Y-123571000D01*
D30*
X132588000Y-106807694D02*
X132588000Y-106489496D01*
X132588000Y-121475500D02*
X132588000Y-106807694D01*
X145796000Y-127508000D02*
X138620500Y-127508000D01*
X138620500Y-127508000D02*
X132588000Y-121475500D01*
M02*
