%TF.GenerationSoftware,KiCad,Pcbnew,(5.1.4)-1*%
%TF.CreationDate,2019-10-25T20:45:33-07:00*%
%TF.ProjectId,base,62617365-2e6b-4696-9361-645f70636258,rev?*%
%TF.SameCoordinates,Original*%
%TF.FileFunction,Soldermask,Top*%
%TF.FilePolarity,Negative*%
%FSLAX46Y46*%
G04 Gerber Fmt 4.6, Leading zero omitted, Abs format (unit mm)*
G04 Created by KiCad (PCBNEW (5.1.4)-1) date 2019-10-25 20:45:33*
%MOMM*%
%LPD*%
G04 APERTURE LIST*
%ADD10C,0.050000*%
%ADD11C,0.100000*%
G04 APERTURE END LIST*
D10*
X166500000Y-93500000D02*
X130500000Y-93500000D01*
X130500000Y-93500000D02*
X130500000Y-127500000D01*
X166500000Y-127500000D02*
X166500000Y-93500000D01*
X130500000Y-127500000D02*
X166500000Y-127500000D01*
D11*
G36*
X147135300Y-124757401D02*
G01*
X147137702Y-124781787D01*
X147144815Y-124805236D01*
X147156366Y-124826847D01*
X147171911Y-124845789D01*
X147190853Y-124861334D01*
X147212464Y-124872885D01*
X147235913Y-124879998D01*
X147260299Y-124882400D01*
X147310300Y-124882400D01*
X147310300Y-127034800D01*
X146357900Y-127034800D01*
X146357900Y-124871728D01*
X146377347Y-124861334D01*
X146396289Y-124845789D01*
X146411834Y-124826847D01*
X146423385Y-124805236D01*
X146430498Y-124781787D01*
X146432900Y-124757401D01*
X146432900Y-123280500D01*
X147135300Y-123280500D01*
X147135300Y-124757401D01*
X147135300Y-124757401D01*
G37*
G36*
X145235300Y-124757401D02*
G01*
X145237702Y-124781787D01*
X145244815Y-124805236D01*
X145256366Y-124826847D01*
X145271911Y-124845789D01*
X145290853Y-124861334D01*
X145310300Y-124871728D01*
X145310300Y-127034800D01*
X144357900Y-127034800D01*
X144357900Y-124882400D01*
X144407901Y-124882400D01*
X144432287Y-124879998D01*
X144455736Y-124872885D01*
X144477347Y-124861334D01*
X144496289Y-124845789D01*
X144511834Y-124826847D01*
X144523385Y-124805236D01*
X144530498Y-124781787D01*
X144532900Y-124757401D01*
X144532900Y-123280500D01*
X145235300Y-123280500D01*
X145235300Y-124757401D01*
X145235300Y-124757401D01*
G37*
G36*
X148823300Y-126926800D02*
G01*
X147670900Y-126926800D01*
X147670900Y-125674400D01*
X148823300Y-125674400D01*
X148823300Y-126926800D01*
X148823300Y-126926800D01*
G37*
G36*
X159617300Y-125150976D02*
G01*
X159619702Y-125175362D01*
X159626815Y-125198811D01*
X159638366Y-125220422D01*
X159653911Y-125239364D01*
X159672853Y-125254909D01*
X159694464Y-125266460D01*
X159717913Y-125273573D01*
X159742299Y-125275975D01*
X159766685Y-125273573D01*
X159790134Y-125266460D01*
X159811745Y-125254909D01*
X159830687Y-125239364D01*
X159846232Y-125220422D01*
X159892634Y-125150976D01*
X159905649Y-125131497D01*
X160046497Y-124990649D01*
X160212117Y-124879986D01*
X160229260Y-124872885D01*
X160396144Y-124803759D01*
X160591504Y-124764900D01*
X160790696Y-124764900D01*
X160986056Y-124803759D01*
X161152940Y-124872885D01*
X161170083Y-124879986D01*
X161335703Y-124990649D01*
X161476551Y-125131497D01*
X161573087Y-125275975D01*
X161587215Y-125297119D01*
X161663441Y-125481144D01*
X161702300Y-125676504D01*
X161702300Y-125875696D01*
X161663441Y-126071056D01*
X161587215Y-126255081D01*
X161587214Y-126255083D01*
X161476551Y-126420703D01*
X161335703Y-126561551D01*
X161170083Y-126672214D01*
X161170082Y-126672215D01*
X161170081Y-126672215D01*
X160986056Y-126748441D01*
X160790696Y-126787300D01*
X160591504Y-126787300D01*
X160396144Y-126748441D01*
X160212119Y-126672215D01*
X160212118Y-126672215D01*
X160212117Y-126672214D01*
X160046497Y-126561551D01*
X159905649Y-126420703D01*
X159846230Y-126331775D01*
X159830687Y-126312837D01*
X159811745Y-126297291D01*
X159790134Y-126285740D01*
X159766685Y-126278627D01*
X159742299Y-126276225D01*
X159717913Y-126278627D01*
X159694464Y-126285740D01*
X159672853Y-126297291D01*
X159653912Y-126312836D01*
X159638366Y-126331778D01*
X159626815Y-126353389D01*
X159619702Y-126376838D01*
X159617300Y-126401224D01*
X159617300Y-126802300D01*
X157564900Y-126802300D01*
X157564900Y-124749900D01*
X159617300Y-124749900D01*
X159617300Y-125150976D01*
X159617300Y-125150976D01*
G37*
G36*
X157217300Y-126802300D02*
G01*
X155164900Y-126802300D01*
X155164900Y-126401224D01*
X155162498Y-126376838D01*
X155155385Y-126353389D01*
X155143834Y-126331778D01*
X155128289Y-126312836D01*
X155109347Y-126297291D01*
X155087736Y-126285740D01*
X155064287Y-126278627D01*
X155039901Y-126276225D01*
X155015515Y-126278627D01*
X154992066Y-126285740D01*
X154970455Y-126297291D01*
X154951513Y-126312836D01*
X154935970Y-126331775D01*
X154876551Y-126420703D01*
X154735703Y-126561551D01*
X154570083Y-126672214D01*
X154570082Y-126672215D01*
X154570081Y-126672215D01*
X154386056Y-126748441D01*
X154190696Y-126787300D01*
X153991504Y-126787300D01*
X153796144Y-126748441D01*
X153612119Y-126672215D01*
X153612118Y-126672215D01*
X153612117Y-126672214D01*
X153446497Y-126561551D01*
X153305649Y-126420703D01*
X153194986Y-126255083D01*
X153194985Y-126255081D01*
X153118759Y-126071056D01*
X153079900Y-125875696D01*
X153079900Y-125676504D01*
X153118759Y-125481144D01*
X153194985Y-125297119D01*
X153209113Y-125275975D01*
X153305649Y-125131497D01*
X153446497Y-124990649D01*
X153612117Y-124879986D01*
X153629260Y-124872885D01*
X153796144Y-124803759D01*
X153991504Y-124764900D01*
X154190696Y-124764900D01*
X154386056Y-124803759D01*
X154552940Y-124872885D01*
X154570083Y-124879986D01*
X154735703Y-124990649D01*
X154876551Y-125131497D01*
X154889566Y-125150976D01*
X154935968Y-125220422D01*
X154951513Y-125239363D01*
X154970455Y-125254909D01*
X154992066Y-125266460D01*
X155015515Y-125273573D01*
X155039901Y-125275975D01*
X155064287Y-125273573D01*
X155087736Y-125266460D01*
X155109347Y-125254909D01*
X155128288Y-125239364D01*
X155143834Y-125220422D01*
X155155385Y-125198811D01*
X155162498Y-125175362D01*
X155164900Y-125150976D01*
X155164900Y-124749900D01*
X157217300Y-124749900D01*
X157217300Y-126802300D01*
X157217300Y-126802300D01*
G37*
G36*
X152455300Y-126703800D02*
G01*
X151672900Y-126703800D01*
X151672900Y-125721400D01*
X152455300Y-125721400D01*
X152455300Y-126703800D01*
X152455300Y-126703800D01*
G37*
G36*
X150155300Y-126703800D02*
G01*
X149372900Y-126703800D01*
X149372900Y-125721400D01*
X150155300Y-125721400D01*
X150155300Y-126703800D01*
X150155300Y-126703800D01*
G37*
G36*
X142446300Y-126318800D02*
G01*
X141093900Y-126318800D01*
X141093900Y-125366400D01*
X142446300Y-125366400D01*
X142446300Y-126318800D01*
X142446300Y-126318800D01*
G37*
G36*
X143997300Y-126291800D02*
G01*
X142844900Y-126291800D01*
X142844900Y-125039400D01*
X143997300Y-125039400D01*
X143997300Y-126291800D01*
X143997300Y-126291800D01*
G37*
G36*
X137051200Y-126276200D02*
G01*
X134448800Y-126276200D01*
X134448800Y-124923800D01*
X137051200Y-124923800D01*
X137051200Y-126276200D01*
X137051200Y-126276200D01*
G37*
G36*
X164566220Y-125534880D02*
G01*
X163413820Y-125534880D01*
X163413820Y-124282480D01*
X164566220Y-124282480D01*
X164566220Y-125534880D01*
X164566220Y-125534880D01*
G37*
G36*
X148823300Y-125226800D02*
G01*
X147670900Y-125226800D01*
X147670900Y-123974400D01*
X148823300Y-123974400D01*
X148823300Y-125226800D01*
X148823300Y-125226800D01*
G37*
G36*
X150440300Y-124690800D02*
G01*
X149487900Y-124690800D01*
X149487900Y-123638400D01*
X150440300Y-123638400D01*
X150440300Y-124690800D01*
X150440300Y-124690800D01*
G37*
G36*
X152340300Y-124690800D02*
G01*
X151387900Y-124690800D01*
X151387900Y-123638400D01*
X152340300Y-123638400D01*
X152340300Y-124690800D01*
X152340300Y-124690800D01*
G37*
G36*
X143997300Y-124591800D02*
G01*
X142844900Y-124591800D01*
X142844900Y-121864400D01*
X143997300Y-121864400D01*
X143997300Y-124591800D01*
X143997300Y-124591800D01*
G37*
G36*
X142446300Y-124518800D02*
G01*
X141093900Y-124518800D01*
X141093900Y-123566400D01*
X142446300Y-123566400D01*
X142446300Y-124518800D01*
X142446300Y-124518800D01*
G37*
G36*
X138976200Y-123926200D02*
G01*
X137823800Y-123926200D01*
X137823800Y-122773800D01*
X138976200Y-122773800D01*
X138976200Y-123926200D01*
X138976200Y-123926200D01*
G37*
G36*
X155067300Y-123877300D02*
G01*
X153314900Y-123877300D01*
X153314900Y-122324900D01*
X155067300Y-122324900D01*
X155067300Y-123877300D01*
X155067300Y-123877300D01*
G37*
G36*
X161467300Y-123877300D02*
G01*
X159714900Y-123877300D01*
X159714900Y-122324900D01*
X161467300Y-122324900D01*
X161467300Y-123877300D01*
X161467300Y-123877300D01*
G37*
G36*
X158967300Y-123852300D02*
G01*
X155814900Y-123852300D01*
X155814900Y-122349900D01*
X158967300Y-122349900D01*
X158967300Y-123852300D01*
X158967300Y-123852300D01*
G37*
G36*
X164566220Y-123835741D02*
G01*
X163413420Y-123835741D01*
X163413420Y-122582480D01*
X164566220Y-122582480D01*
X164566220Y-123835741D01*
X164566220Y-123835741D01*
G37*
G36*
X137051200Y-123676000D02*
G01*
X136348800Y-123676000D01*
X136348800Y-122323600D01*
X137051200Y-122323600D01*
X137051200Y-123676000D01*
X137051200Y-123676000D01*
G37*
G36*
X135151200Y-123676000D02*
G01*
X134448800Y-123676000D01*
X134448800Y-122323600D01*
X135151200Y-122323600D01*
X135151200Y-123676000D01*
X135151200Y-123676000D01*
G37*
G36*
X148923300Y-123143800D02*
G01*
X147570900Y-123143800D01*
X147570900Y-122191400D01*
X148923300Y-122191400D01*
X148923300Y-123143800D01*
X148923300Y-123143800D01*
G37*
G36*
X150436300Y-121413401D02*
G01*
X150438702Y-121437787D01*
X150445815Y-121461236D01*
X150457366Y-121482847D01*
X150472911Y-121501789D01*
X150491853Y-121517334D01*
X150513464Y-121528885D01*
X150536913Y-121535998D01*
X150561299Y-121538400D01*
X150758901Y-121538400D01*
X150783287Y-121535998D01*
X150806736Y-121528885D01*
X150828347Y-121517334D01*
X150847289Y-121501789D01*
X150862834Y-121482847D01*
X150874385Y-121461236D01*
X150881498Y-121437787D01*
X150883900Y-121413401D01*
X150883900Y-120175400D01*
X152036300Y-120175400D01*
X152036300Y-121327800D01*
X151515299Y-121327800D01*
X151490913Y-121330202D01*
X151467464Y-121337315D01*
X151445853Y-121348866D01*
X151426911Y-121364411D01*
X151411366Y-121383353D01*
X151399815Y-121404964D01*
X151392702Y-121428413D01*
X151390300Y-121452799D01*
X151390300Y-122590800D01*
X150437900Y-122590800D01*
X150437900Y-121452799D01*
X150435498Y-121428413D01*
X150428385Y-121404964D01*
X150416834Y-121383353D01*
X150401289Y-121364411D01*
X150382347Y-121348866D01*
X150360736Y-121337315D01*
X150337287Y-121330202D01*
X150312901Y-121327800D01*
X149283900Y-121327800D01*
X149283900Y-120175400D01*
X150436300Y-120175400D01*
X150436300Y-121413401D01*
X150436300Y-121413401D01*
G37*
G36*
X138976200Y-122326200D02*
G01*
X137823800Y-122326200D01*
X137823800Y-121173800D01*
X138976200Y-121173800D01*
X138976200Y-122326200D01*
X138976200Y-122326200D01*
G37*
G36*
X164565820Y-122135741D02*
G01*
X163413420Y-122135741D01*
X163413420Y-120883341D01*
X164565820Y-120883341D01*
X164565820Y-122135741D01*
X164565820Y-122135741D01*
G37*
G36*
X147135300Y-122032700D02*
G01*
X144532900Y-122032700D01*
X144532900Y-120680300D01*
X147135300Y-120680300D01*
X147135300Y-122032700D01*
X147135300Y-122032700D01*
G37*
G36*
X161016225Y-119705400D02*
G01*
X161094229Y-119720916D01*
X161265262Y-119791760D01*
X161419187Y-119894610D01*
X161550090Y-120025513D01*
X161652940Y-120179438D01*
X161713731Y-120326200D01*
X161723784Y-120350472D01*
X161759900Y-120532036D01*
X161759900Y-120717164D01*
X161748157Y-120776200D01*
X161723784Y-120898729D01*
X161652940Y-121069762D01*
X161550090Y-121223687D01*
X161419187Y-121354590D01*
X161265262Y-121457440D01*
X161094229Y-121528284D01*
X161033707Y-121540323D01*
X160912664Y-121564400D01*
X160727536Y-121564400D01*
X160606493Y-121540323D01*
X160545971Y-121528284D01*
X160374938Y-121457440D01*
X160221013Y-121354590D01*
X160090110Y-121223687D01*
X159987260Y-121069762D01*
X159916416Y-120898729D01*
X159892043Y-120776200D01*
X159880300Y-120717164D01*
X159880300Y-120532036D01*
X159916416Y-120350472D01*
X159926470Y-120326200D01*
X159987260Y-120179438D01*
X160090110Y-120025513D01*
X160221013Y-119894610D01*
X160374938Y-119791760D01*
X160545971Y-119720916D01*
X160623975Y-119705400D01*
X160727536Y-119684800D01*
X160912664Y-119684800D01*
X161016225Y-119705400D01*
X161016225Y-119705400D01*
G37*
G36*
X143997300Y-121416800D02*
G01*
X142844900Y-121416800D01*
X142844900Y-120164400D01*
X143997300Y-120164400D01*
X143997300Y-121416800D01*
X143997300Y-121416800D01*
G37*
G36*
X148923300Y-121343800D02*
G01*
X147570900Y-121343800D01*
X147570900Y-120391400D01*
X148923300Y-120391400D01*
X148923300Y-121343800D01*
X148923300Y-121343800D01*
G37*
G36*
X155211300Y-121327800D02*
G01*
X154058900Y-121327800D01*
X154058900Y-120175400D01*
X155211300Y-120175400D01*
X155211300Y-121327800D01*
X155211300Y-121327800D01*
G37*
G36*
X153611300Y-121327800D02*
G01*
X152458900Y-121327800D01*
X152458900Y-120175400D01*
X153611300Y-120175400D01*
X153611300Y-121327800D01*
X153611300Y-121327800D01*
G37*
G36*
X156824300Y-120857800D02*
G01*
X155671900Y-120857800D01*
X155671900Y-119705400D01*
X156824300Y-119705400D01*
X156824300Y-120857800D01*
X156824300Y-120857800D01*
G37*
G36*
X136226200Y-120776200D02*
G01*
X135273800Y-120776200D01*
X135273800Y-119423800D01*
X136226200Y-119423800D01*
X136226200Y-120776200D01*
X136226200Y-120776200D01*
G37*
G36*
X134426200Y-120776200D02*
G01*
X133473800Y-120776200D01*
X133473800Y-119423800D01*
X134426200Y-119423800D01*
X134426200Y-120776200D01*
X134426200Y-120776200D01*
G37*
G36*
X139726200Y-120726200D02*
G01*
X138773800Y-120726200D01*
X138773800Y-119373800D01*
X139726200Y-119373800D01*
X139726200Y-120726200D01*
X139726200Y-120726200D01*
G37*
G36*
X137926200Y-120726200D02*
G01*
X136973800Y-120726200D01*
X136973800Y-119373800D01*
X137926200Y-119373800D01*
X137926200Y-120726200D01*
X137926200Y-120726200D01*
G37*
G36*
X141226200Y-120326200D02*
G01*
X140073800Y-120326200D01*
X140073800Y-119073800D01*
X141226200Y-119073800D01*
X141226200Y-120326200D01*
X141226200Y-120326200D01*
G37*
G36*
X156824300Y-119257800D02*
G01*
X155671900Y-119257800D01*
X155671900Y-118105400D01*
X156824300Y-118105400D01*
X156824300Y-119257800D01*
X156824300Y-119257800D01*
G37*
G36*
X154727300Y-119091800D02*
G01*
X142274900Y-119091800D01*
X142274900Y-118039400D01*
X154727300Y-118039400D01*
X154727300Y-119091800D01*
X154727300Y-119091800D01*
G37*
G36*
X161033707Y-117168877D02*
G01*
X161094229Y-117180916D01*
X161265262Y-117251760D01*
X161419187Y-117354610D01*
X161550090Y-117485513D01*
X161652941Y-117639440D01*
X161723784Y-117810472D01*
X161759900Y-117992036D01*
X161759900Y-118177164D01*
X161735823Y-118298207D01*
X161723784Y-118358729D01*
X161652940Y-118529762D01*
X161550090Y-118683687D01*
X161419187Y-118814590D01*
X161265262Y-118917440D01*
X161094229Y-118988284D01*
X161033707Y-119000323D01*
X160912664Y-119024400D01*
X160727536Y-119024400D01*
X160606493Y-119000323D01*
X160545971Y-118988284D01*
X160374938Y-118917440D01*
X160221013Y-118814590D01*
X160090110Y-118683687D01*
X159987260Y-118529762D01*
X159916416Y-118358729D01*
X159904377Y-118298207D01*
X159880300Y-118177164D01*
X159880300Y-117992036D01*
X159916416Y-117810472D01*
X159987259Y-117639440D01*
X160090110Y-117485513D01*
X160221013Y-117354610D01*
X160374938Y-117251760D01*
X160545971Y-117180916D01*
X160606493Y-117168877D01*
X160727536Y-117144800D01*
X160912664Y-117144800D01*
X161033707Y-117168877D01*
X161033707Y-117168877D01*
G37*
G36*
X141226200Y-118626200D02*
G01*
X140073800Y-118626200D01*
X140073800Y-117373800D01*
X141226200Y-117373800D01*
X141226200Y-118626200D01*
X141226200Y-118626200D01*
G37*
G36*
X137901300Y-118190800D02*
G01*
X136748900Y-118190800D01*
X136748900Y-117038400D01*
X137901300Y-117038400D01*
X137901300Y-118190800D01*
X137901300Y-118190800D01*
G37*
G36*
X139552300Y-118190800D02*
G01*
X138399900Y-118190800D01*
X138399900Y-117038400D01*
X139552300Y-117038400D01*
X139552300Y-118190800D01*
X139552300Y-118190800D01*
G37*
G36*
X136250300Y-118190800D02*
G01*
X135097900Y-118190800D01*
X135097900Y-117038400D01*
X136250300Y-117038400D01*
X136250300Y-118190800D01*
X136250300Y-118190800D01*
G37*
G36*
X141307300Y-117071800D02*
G01*
X140254900Y-117071800D01*
X140254900Y-104619400D01*
X141307300Y-104619400D01*
X141307300Y-117071800D01*
X141307300Y-117071800D01*
G37*
G36*
X156747300Y-117071800D02*
G01*
X155694900Y-117071800D01*
X155694900Y-104619400D01*
X156747300Y-104619400D01*
X156747300Y-117071800D01*
X156747300Y-117071800D01*
G37*
G36*
X136250300Y-116590800D02*
G01*
X135097900Y-116590800D01*
X135097900Y-115438400D01*
X136250300Y-115438400D01*
X136250300Y-116590800D01*
X136250300Y-116590800D01*
G37*
G36*
X139552300Y-116590800D02*
G01*
X138399900Y-116590800D01*
X138399900Y-115438400D01*
X139552300Y-115438400D01*
X139552300Y-116590800D01*
X139552300Y-116590800D01*
G37*
G36*
X137901300Y-116590800D02*
G01*
X136748900Y-116590800D01*
X136748900Y-115438400D01*
X137901300Y-115438400D01*
X137901300Y-116590800D01*
X137901300Y-116590800D01*
G37*
G36*
X161033707Y-114628877D02*
G01*
X161094229Y-114640916D01*
X161265262Y-114711760D01*
X161419187Y-114814610D01*
X161550090Y-114945513D01*
X161634473Y-115071800D01*
X161652941Y-115099440D01*
X161723784Y-115270472D01*
X161757188Y-115438400D01*
X161759900Y-115452038D01*
X161759900Y-115637162D01*
X161723784Y-115818729D01*
X161652940Y-115989762D01*
X161550090Y-116143687D01*
X161419187Y-116274590D01*
X161265262Y-116377440D01*
X161094229Y-116448284D01*
X161033707Y-116460323D01*
X160912664Y-116484400D01*
X160727536Y-116484400D01*
X160606493Y-116460323D01*
X160545971Y-116448284D01*
X160374938Y-116377440D01*
X160221013Y-116274590D01*
X160090110Y-116143687D01*
X159987260Y-115989762D01*
X159916416Y-115818729D01*
X159880300Y-115637162D01*
X159880300Y-115452038D01*
X159883013Y-115438400D01*
X159916416Y-115270472D01*
X159987259Y-115099440D01*
X160005728Y-115071800D01*
X160090110Y-114945513D01*
X160221013Y-114814610D01*
X160374938Y-114711760D01*
X160545971Y-114640916D01*
X160606493Y-114628877D01*
X160727536Y-114604800D01*
X160912664Y-114604800D01*
X161033707Y-114628877D01*
X161033707Y-114628877D01*
G37*
G36*
X161033707Y-112088877D02*
G01*
X161094229Y-112100916D01*
X161265262Y-112171760D01*
X161419187Y-112274610D01*
X161550090Y-112405513D01*
X161652941Y-112559440D01*
X161673691Y-112609535D01*
X161723784Y-112730471D01*
X161759900Y-112912038D01*
X161759900Y-113097162D01*
X161723784Y-113278729D01*
X161652940Y-113449762D01*
X161550090Y-113603687D01*
X161419187Y-113734590D01*
X161265262Y-113837440D01*
X161094229Y-113908284D01*
X161033707Y-113920323D01*
X160912664Y-113944400D01*
X160727536Y-113944400D01*
X160606493Y-113920323D01*
X160545971Y-113908284D01*
X160374938Y-113837440D01*
X160221013Y-113734590D01*
X160090110Y-113603687D01*
X159987260Y-113449762D01*
X159916416Y-113278729D01*
X159880300Y-113097162D01*
X159880300Y-112912038D01*
X159916416Y-112730471D01*
X159966509Y-112609535D01*
X159987259Y-112559440D01*
X160090110Y-112405513D01*
X160221013Y-112274610D01*
X160374938Y-112171760D01*
X160545971Y-112100916D01*
X160606493Y-112088877D01*
X160727536Y-112064800D01*
X160912664Y-112064800D01*
X161033707Y-112088877D01*
X161033707Y-112088877D01*
G37*
G36*
X137939300Y-113834800D02*
G01*
X136786900Y-113834800D01*
X136786900Y-112682400D01*
X137939300Y-112682400D01*
X137939300Y-113834800D01*
X137939300Y-113834800D01*
G37*
G36*
X136339300Y-113834800D02*
G01*
X135186900Y-113834800D01*
X135186900Y-112682400D01*
X136339300Y-112682400D01*
X136339300Y-113834800D01*
X136339300Y-113834800D01*
G37*
G36*
X136416300Y-111940800D02*
G01*
X135363900Y-111940800D01*
X135363900Y-110788400D01*
X136416300Y-110788400D01*
X136416300Y-111940800D01*
X136416300Y-111940800D01*
G37*
G36*
X137966300Y-111940800D02*
G01*
X136913900Y-111940800D01*
X136913900Y-110788400D01*
X137966300Y-110788400D01*
X137966300Y-111940800D01*
X137966300Y-111940800D01*
G37*
G36*
X161033707Y-109548877D02*
G01*
X161094229Y-109560916D01*
X161265262Y-109631760D01*
X161419187Y-109734610D01*
X161550090Y-109865513D01*
X161652940Y-110019438D01*
X161694346Y-110119400D01*
X161723784Y-110190472D01*
X161759900Y-110372036D01*
X161759900Y-110557164D01*
X161747520Y-110619400D01*
X161723784Y-110738729D01*
X161652940Y-110909762D01*
X161550090Y-111063687D01*
X161419187Y-111194590D01*
X161265262Y-111297440D01*
X161094229Y-111368284D01*
X161033707Y-111380323D01*
X160912664Y-111404400D01*
X160727536Y-111404400D01*
X160606493Y-111380323D01*
X160545971Y-111368284D01*
X160374938Y-111297440D01*
X160221013Y-111194590D01*
X160090110Y-111063687D01*
X159987260Y-110909762D01*
X159916416Y-110738729D01*
X159892680Y-110619400D01*
X159880300Y-110557164D01*
X159880300Y-110372036D01*
X159916416Y-110190472D01*
X159945855Y-110119400D01*
X159987260Y-110019438D01*
X160090110Y-109865513D01*
X160221013Y-109734610D01*
X160374938Y-109631760D01*
X160545971Y-109560916D01*
X160606493Y-109548877D01*
X160727536Y-109524800D01*
X160912664Y-109524800D01*
X161033707Y-109548877D01*
X161033707Y-109548877D01*
G37*
G36*
X137966300Y-110090800D02*
G01*
X136913900Y-110090800D01*
X136913900Y-108938400D01*
X137966300Y-108938400D01*
X137966300Y-110090800D01*
X137966300Y-110090800D01*
G37*
G36*
X136416300Y-110090800D02*
G01*
X135363900Y-110090800D01*
X135363900Y-108938400D01*
X136416300Y-108938400D01*
X136416300Y-110090800D01*
X136416300Y-110090800D01*
G37*
G36*
X161033707Y-107008877D02*
G01*
X161094229Y-107020916D01*
X161265262Y-107091760D01*
X161419187Y-107194610D01*
X161550090Y-107325513D01*
X161652940Y-107479438D01*
X161723784Y-107650471D01*
X161759900Y-107832038D01*
X161759900Y-108017162D01*
X161723784Y-108198729D01*
X161652940Y-108369762D01*
X161550090Y-108523687D01*
X161419187Y-108654590D01*
X161265262Y-108757440D01*
X161094229Y-108828284D01*
X161033707Y-108840323D01*
X160912664Y-108864400D01*
X160727536Y-108864400D01*
X160606493Y-108840323D01*
X160545971Y-108828284D01*
X160374938Y-108757440D01*
X160221013Y-108654590D01*
X160090110Y-108523687D01*
X159987260Y-108369762D01*
X159916416Y-108198729D01*
X159880300Y-108017162D01*
X159880300Y-107832038D01*
X159916416Y-107650471D01*
X159987260Y-107479438D01*
X160090110Y-107325513D01*
X160221013Y-107194610D01*
X160374938Y-107091760D01*
X160545971Y-107020916D01*
X160606493Y-107008877D01*
X160727536Y-106984800D01*
X160912664Y-106984800D01*
X161033707Y-107008877D01*
X161033707Y-107008877D01*
G37*
G36*
X139552300Y-108792800D02*
G01*
X138399900Y-108792800D01*
X138399900Y-107640400D01*
X139552300Y-107640400D01*
X139552300Y-108792800D01*
X139552300Y-108792800D01*
G37*
G36*
X137939300Y-108246800D02*
G01*
X136786900Y-108246800D01*
X136786900Y-107094400D01*
X137939300Y-107094400D01*
X137939300Y-108246800D01*
X137939300Y-108246800D01*
G37*
G36*
X136339300Y-108246800D02*
G01*
X135186900Y-108246800D01*
X135186900Y-107094400D01*
X136339300Y-107094400D01*
X136339300Y-108246800D01*
X136339300Y-108246800D01*
G37*
G36*
X139552300Y-107192800D02*
G01*
X138399900Y-107192800D01*
X138399900Y-106040400D01*
X139552300Y-106040400D01*
X139552300Y-107192800D01*
X139552300Y-107192800D01*
G37*
G36*
X161307300Y-106341800D02*
G01*
X160154900Y-106341800D01*
X160154900Y-105189400D01*
X161307300Y-105189400D01*
X161307300Y-106341800D01*
X161307300Y-106341800D01*
G37*
G36*
X159707300Y-106341800D02*
G01*
X158554900Y-106341800D01*
X158554900Y-105189400D01*
X159707300Y-105189400D01*
X159707300Y-106341800D01*
X159707300Y-106341800D01*
G37*
G36*
X162628300Y-104817800D02*
G01*
X161475900Y-104817800D01*
X161475900Y-103665400D01*
X162628300Y-103665400D01*
X162628300Y-104817800D01*
X162628300Y-104817800D01*
G37*
G36*
X164228300Y-104817800D02*
G01*
X163075900Y-104817800D01*
X163075900Y-103665400D01*
X164228300Y-103665400D01*
X164228300Y-104817800D01*
X164228300Y-104817800D01*
G37*
G36*
X139598300Y-104131800D02*
G01*
X137845900Y-104131800D01*
X137845900Y-102579400D01*
X139598300Y-102579400D01*
X139598300Y-104131800D01*
X139598300Y-104131800D01*
G37*
G36*
X133676300Y-103735800D02*
G01*
X132723900Y-103735800D01*
X132723900Y-102683400D01*
X133676300Y-102683400D01*
X133676300Y-103735800D01*
X133676300Y-103735800D01*
G37*
G36*
X135576300Y-103735800D02*
G01*
X134623900Y-103735800D01*
X134623900Y-102683400D01*
X135576300Y-102683400D01*
X135576300Y-103735800D01*
X135576300Y-103735800D01*
G37*
G36*
X137139300Y-103685800D02*
G01*
X135986900Y-103685800D01*
X135986900Y-102433400D01*
X137139300Y-102433400D01*
X137139300Y-103685800D01*
X137139300Y-103685800D01*
G37*
G36*
X132313300Y-103685800D02*
G01*
X131160900Y-103685800D01*
X131160900Y-102433400D01*
X132313300Y-102433400D01*
X132313300Y-103685800D01*
X132313300Y-103685800D01*
G37*
G36*
X154727300Y-103651800D02*
G01*
X142274900Y-103651800D01*
X142274900Y-102599400D01*
X154727300Y-102599400D01*
X154727300Y-103651800D01*
X154727300Y-103651800D01*
G37*
G36*
X156824300Y-103585800D02*
G01*
X155671900Y-103585800D01*
X155671900Y-102433400D01*
X156824300Y-102433400D01*
X156824300Y-103585800D01*
X156824300Y-103585800D01*
G37*
G36*
X141457300Y-103585800D02*
G01*
X140304900Y-103585800D01*
X140304900Y-102433400D01*
X141457300Y-102433400D01*
X141457300Y-103585800D01*
X141457300Y-103585800D01*
G37*
G36*
X160670300Y-103410800D02*
G01*
X157667900Y-103410800D01*
X157667900Y-102558400D01*
X160670300Y-102558400D01*
X160670300Y-103410800D01*
X160670300Y-103410800D01*
G37*
G36*
X132313300Y-101985800D02*
G01*
X131160900Y-101985800D01*
X131160900Y-100733400D01*
X132313300Y-100733400D01*
X132313300Y-101985800D01*
X132313300Y-101985800D01*
G37*
G36*
X141457300Y-101985800D02*
G01*
X140304900Y-101985800D01*
X140304900Y-100833400D01*
X141457300Y-100833400D01*
X141457300Y-101985800D01*
X141457300Y-101985800D01*
G37*
G36*
X137139300Y-101985800D02*
G01*
X135986900Y-101985800D01*
X135986900Y-100733400D01*
X137139300Y-100733400D01*
X137139300Y-101985800D01*
X137139300Y-101985800D01*
G37*
G36*
X156824300Y-101985800D02*
G01*
X155671900Y-101985800D01*
X155671900Y-100833400D01*
X156824300Y-100833400D01*
X156824300Y-101985800D01*
X156824300Y-101985800D01*
G37*
G36*
X160670300Y-101860800D02*
G01*
X157667900Y-101860800D01*
X157667900Y-101008400D01*
X160670300Y-101008400D01*
X160670300Y-101860800D01*
X160670300Y-101860800D01*
G37*
G36*
X134626300Y-101635800D02*
G01*
X133673900Y-101635800D01*
X133673900Y-100583400D01*
X134626300Y-100583400D01*
X134626300Y-101635800D01*
X134626300Y-101635800D01*
G37*
G36*
X149176200Y-101401200D02*
G01*
X148323800Y-101401200D01*
X148323800Y-99998800D01*
X149176200Y-99998800D01*
X149176200Y-101401200D01*
X149176200Y-101401200D01*
G37*
G36*
X144876200Y-101401200D02*
G01*
X144023800Y-101401200D01*
X144023800Y-99998800D01*
X144876200Y-99998800D01*
X144876200Y-101401200D01*
X144876200Y-101401200D01*
G37*
G36*
X146426200Y-101401200D02*
G01*
X145573800Y-101401200D01*
X145573800Y-99998800D01*
X146426200Y-99998800D01*
X146426200Y-101401200D01*
X146426200Y-101401200D01*
G37*
G36*
X147626200Y-101401200D02*
G01*
X146773800Y-101401200D01*
X146773800Y-99998800D01*
X147626200Y-99998800D01*
X147626200Y-101401200D01*
X147626200Y-101401200D01*
G37*
G36*
X139598300Y-101331800D02*
G01*
X137845900Y-101331800D01*
X137845900Y-99779400D01*
X139598300Y-99779400D01*
X139598300Y-101331800D01*
X139598300Y-101331800D01*
G37*
G36*
X165737440Y-100169400D02*
G01*
X163985040Y-100169400D01*
X163985040Y-98617000D01*
X165737440Y-98617000D01*
X165737440Y-100169400D01*
X165737440Y-100169400D01*
G37*
G36*
X162920300Y-99521800D02*
G01*
X161767900Y-99521800D01*
X161767900Y-98369400D01*
X162920300Y-98369400D01*
X162920300Y-99521800D01*
X162920300Y-99521800D01*
G37*
G36*
X143776200Y-99476200D02*
G01*
X142223800Y-99476200D01*
X142223800Y-98123800D01*
X143776200Y-98123800D01*
X143776200Y-99476200D01*
X143776200Y-99476200D01*
G37*
G36*
X141676200Y-99476200D02*
G01*
X140123800Y-99476200D01*
X140123800Y-98123800D01*
X141676200Y-98123800D01*
X141676200Y-99476200D01*
X141676200Y-99476200D01*
G37*
G36*
X134006300Y-99305800D02*
G01*
X133153900Y-99305800D01*
X133153900Y-97953400D01*
X134006300Y-97953400D01*
X134006300Y-99305800D01*
X134006300Y-99305800D01*
G37*
G36*
X132606300Y-99305800D02*
G01*
X131753900Y-99305800D01*
X131753900Y-97953400D01*
X132606300Y-97953400D01*
X132606300Y-99305800D01*
X132606300Y-99305800D01*
G37*
G36*
X136785800Y-98630800D02*
G01*
X135933400Y-98630800D01*
X135933400Y-95628400D01*
X136785800Y-95628400D01*
X136785800Y-98630800D01*
X136785800Y-98630800D01*
G37*
G36*
X138335800Y-98630800D02*
G01*
X137483400Y-98630800D01*
X137483400Y-95628400D01*
X138335800Y-95628400D01*
X138335800Y-98630800D01*
X138335800Y-98630800D01*
G37*
G36*
X162920300Y-97921800D02*
G01*
X161767900Y-97921800D01*
X161767900Y-96769400D01*
X162920300Y-96769400D01*
X162920300Y-97921800D01*
X162920300Y-97921800D01*
G37*
G36*
X165737440Y-97369400D02*
G01*
X163985040Y-97369400D01*
X163985040Y-95817000D01*
X165737440Y-95817000D01*
X165737440Y-97369400D01*
X165737440Y-97369400D01*
G37*
G36*
X160670300Y-96933800D02*
G01*
X157667900Y-96933800D01*
X157667900Y-96081400D01*
X160670300Y-96081400D01*
X160670300Y-96933800D01*
X160670300Y-96933800D01*
G37*
G36*
X132606300Y-96305800D02*
G01*
X131753900Y-96305800D01*
X131753900Y-94953400D01*
X132606300Y-94953400D01*
X132606300Y-96305800D01*
X132606300Y-96305800D01*
G37*
G36*
X134006300Y-96305800D02*
G01*
X133153900Y-96305800D01*
X133153900Y-94953400D01*
X134006300Y-94953400D01*
X134006300Y-96305800D01*
X134006300Y-96305800D01*
G37*
G36*
X141676200Y-96276200D02*
G01*
X140123800Y-96276200D01*
X140123800Y-94923800D01*
X141676200Y-94923800D01*
X141676200Y-96276200D01*
X141676200Y-96276200D01*
G37*
G36*
X143776200Y-96276200D02*
G01*
X142223800Y-96276200D01*
X142223800Y-94923800D01*
X143776200Y-94923800D01*
X143776200Y-96276200D01*
X143776200Y-96276200D01*
G37*
G36*
X160670300Y-95383800D02*
G01*
X157667900Y-95383800D01*
X157667900Y-94531400D01*
X160670300Y-94531400D01*
X160670300Y-95383800D01*
X160670300Y-95383800D01*
G37*
M02*
