%TF.GenerationSoftware,KiCad,Pcbnew,5.0.2-bee76a0~70~ubuntu18.04.1*%
%TF.CreationDate,2020-02-29T17:30:31-08:00*%
%TF.ProjectId,base,62617365-2e6b-4696-9361-645f70636258,rev?*%
%TF.SameCoordinates,Original*%
%TF.FileFunction,Soldermask,Top*%
%TF.FilePolarity,Negative*%
%FSLAX46Y46*%
G04 Gerber Fmt 4.6, Leading zero omitted, Abs format (unit mm)*
G04 Created by KiCad (PCBNEW 5.0.2-bee76a0~70~ubuntu18.04.1) date Sat 29 Feb 2020 05:30:31 PM PST*
%MOMM*%
%LPD*%
G01*
G04 APERTURE LIST*
%ADD10C,0.150000*%
%ADD11C,0.100000*%
G04 APERTURE END LIST*
D10*
X131000500Y-114280540D02*
X131000500Y-118280540D01*
X162651441Y-102162541D02*
X162651441Y-95050541D01*
X161502382Y-105714800D02*
X162651441Y-105714800D01*
X161502382Y-102162541D02*
X162651441Y-102162541D01*
X129851441Y-123050540D02*
G75*
G02X129351441Y-123550540I-500000J0D01*
G01*
X129351441Y-94550541D02*
G75*
G02X129851441Y-95050541I0J-500000D01*
G01*
X162651441Y-95050541D02*
G75*
G02X163151441Y-94550541I500000J0D01*
G01*
X163151441Y-123550540D02*
G75*
G02X162651441Y-123050540I0J500000D01*
G01*
X128351441Y-88050540D02*
X128351441Y-94550540D01*
X163151441Y-94550541D02*
X164151441Y-94550540D01*
X162651441Y-123050540D02*
X162651441Y-105714800D01*
X164151441Y-123550540D02*
X163151441Y-123550540D01*
X164151441Y-94550540D02*
X164151440Y-88050541D01*
X129851441Y-95050541D02*
X129851441Y-114280540D01*
X128351441Y-94550540D02*
X129351441Y-94550541D01*
X128351441Y-130050540D02*
X162651440Y-130050540D01*
X129851441Y-114280540D02*
X131000500Y-114280540D01*
X161502382Y-102162541D02*
X161502382Y-105714800D01*
X162651440Y-88050540D02*
X128351441Y-88050540D01*
X131000500Y-118280540D02*
X129851441Y-118280540D01*
X128351441Y-123550540D02*
X128351441Y-130050540D01*
X129351441Y-123550540D02*
X128351441Y-123550540D01*
X129851441Y-118280540D02*
X129851441Y-123050540D01*
X162651440Y-130050540D02*
X164151440Y-130050540D01*
X164151440Y-88050541D02*
X162651440Y-88050540D01*
X164151440Y-130050540D02*
X164151441Y-123550540D01*
D11*
G36*
X129668767Y-128228822D02*
X129805258Y-128285359D01*
X129928097Y-128367437D01*
X130032563Y-128471903D01*
X130114641Y-128594742D01*
X130171178Y-128731233D01*
X130200000Y-128876131D01*
X130200000Y-129023869D01*
X130171178Y-129168767D01*
X130114641Y-129305258D01*
X130032563Y-129428097D01*
X129928097Y-129532563D01*
X129805258Y-129614641D01*
X129668767Y-129671178D01*
X129523869Y-129700000D01*
X129376131Y-129700000D01*
X129231233Y-129671178D01*
X129094742Y-129614641D01*
X128971903Y-129532563D01*
X128867437Y-129428097D01*
X128785359Y-129305258D01*
X128728822Y-129168767D01*
X128700000Y-129023869D01*
X128700000Y-128876131D01*
X128728822Y-128731233D01*
X128785359Y-128594742D01*
X128867437Y-128471903D01*
X128971903Y-128367437D01*
X129094742Y-128285359D01*
X129231233Y-128228822D01*
X129376131Y-128200000D01*
X129523869Y-128200000D01*
X129668767Y-128228822D01*
X129668767Y-128228822D01*
G37*
G36*
X161147275Y-127347230D02*
X161244957Y-127366660D01*
X161306298Y-127392069D01*
X161428983Y-127442886D01*
X161594603Y-127553549D01*
X161735451Y-127694397D01*
X161846114Y-127860017D01*
X161922340Y-128044044D01*
X161961200Y-128239405D01*
X161961200Y-128438595D01*
X161922340Y-128633956D01*
X161846114Y-128817983D01*
X161735451Y-128983603D01*
X161594603Y-129124451D01*
X161428983Y-129235114D01*
X161306298Y-129285931D01*
X161244957Y-129311340D01*
X161147275Y-129330770D01*
X161049595Y-129350200D01*
X160850405Y-129350200D01*
X160752725Y-129330770D01*
X160655043Y-129311340D01*
X160593702Y-129285931D01*
X160471017Y-129235114D01*
X160305397Y-129124451D01*
X160164549Y-128983603D01*
X160053886Y-128817983D01*
X159977660Y-128633956D01*
X159938800Y-128438595D01*
X159938800Y-128239405D01*
X159977660Y-128044044D01*
X160053886Y-127860017D01*
X160164549Y-127694397D01*
X160305397Y-127553549D01*
X160471017Y-127442886D01*
X160593702Y-127392069D01*
X160655043Y-127366660D01*
X160752725Y-127347230D01*
X160850405Y-127327800D01*
X161049595Y-127327800D01*
X161147275Y-127347230D01*
X161147275Y-127347230D01*
G37*
G36*
X154547275Y-127347230D02*
X154644957Y-127366660D01*
X154706298Y-127392069D01*
X154828983Y-127442886D01*
X154994603Y-127553549D01*
X155135451Y-127694397D01*
X155246114Y-127860017D01*
X155322340Y-128044044D01*
X155361200Y-128239405D01*
X155361200Y-128438595D01*
X155322340Y-128633956D01*
X155246114Y-128817983D01*
X155135451Y-128983603D01*
X154994603Y-129124451D01*
X154828983Y-129235114D01*
X154706298Y-129285931D01*
X154644957Y-129311340D01*
X154547275Y-129330770D01*
X154449595Y-129350200D01*
X154250405Y-129350200D01*
X154152725Y-129330770D01*
X154055043Y-129311340D01*
X153993702Y-129285931D01*
X153871017Y-129235114D01*
X153705397Y-129124451D01*
X153564549Y-128983603D01*
X153453886Y-128817983D01*
X153377660Y-128633956D01*
X153338800Y-128438595D01*
X153338800Y-128239405D01*
X153377660Y-128044044D01*
X153453886Y-127860017D01*
X153564549Y-127694397D01*
X153705397Y-127553549D01*
X153871017Y-127442886D01*
X153993702Y-127392069D01*
X154055043Y-127366660D01*
X154152725Y-127347230D01*
X154250405Y-127327800D01*
X154449595Y-127327800D01*
X154547275Y-127347230D01*
X154547275Y-127347230D01*
G37*
G36*
X144735741Y-128978580D02*
X143483341Y-128978580D01*
X143483341Y-127826180D01*
X144735741Y-127826180D01*
X144735741Y-128978580D01*
X144735741Y-128978580D01*
G37*
G36*
X146435741Y-128978580D02*
X145182480Y-128978580D01*
X145182480Y-127825780D01*
X146435741Y-127825780D01*
X146435741Y-128978580D01*
X146435741Y-128978580D01*
G37*
G36*
X148134880Y-128978180D02*
X146882480Y-128978180D01*
X146882480Y-127825780D01*
X148134880Y-127825780D01*
X148134880Y-128978180D01*
X148134880Y-128978180D01*
G37*
G36*
X147310300Y-127034800D02*
X146357900Y-127034800D01*
X146357900Y-124882400D01*
X147310300Y-124882400D01*
X147310300Y-127034800D01*
X147310300Y-127034800D01*
G37*
G36*
X145310300Y-127034800D02*
X144357900Y-127034800D01*
X144357900Y-124882400D01*
X145310300Y-124882400D01*
X145310300Y-127034800D01*
X145310300Y-127034800D01*
G37*
G36*
X148823300Y-126926800D02*
X147670900Y-126926800D01*
X147670900Y-125674400D01*
X148823300Y-125674400D01*
X148823300Y-126926800D01*
X148823300Y-126926800D01*
G37*
G36*
X150155300Y-126703800D02*
X149372900Y-126703800D01*
X149372900Y-125721400D01*
X150155300Y-125721400D01*
X150155300Y-126703800D01*
X150155300Y-126703800D01*
G37*
G36*
X152455300Y-126703800D02*
X151672900Y-126703800D01*
X151672900Y-125721400D01*
X152455300Y-125721400D01*
X152455300Y-126703800D01*
X152455300Y-126703800D01*
G37*
G36*
X142446300Y-126318800D02*
X141093900Y-126318800D01*
X141093900Y-125366400D01*
X142446300Y-125366400D01*
X142446300Y-126318800D01*
X142446300Y-126318800D01*
G37*
G36*
X143997300Y-126291800D02*
X142844900Y-126291800D01*
X142844900Y-125039400D01*
X143997300Y-125039400D01*
X143997300Y-126291800D01*
X143997300Y-126291800D01*
G37*
G36*
X148823300Y-125226800D02*
X147670900Y-125226800D01*
X147670900Y-123974400D01*
X148823300Y-123974400D01*
X148823300Y-125226800D01*
X148823300Y-125226800D01*
G37*
G36*
X150440300Y-124690800D02*
X149487900Y-124690800D01*
X149487900Y-123638400D01*
X150440300Y-123638400D01*
X150440300Y-124690800D01*
X150440300Y-124690800D01*
G37*
G36*
X152340300Y-124690800D02*
X151387900Y-124690800D01*
X151387900Y-123638400D01*
X152340300Y-123638400D01*
X152340300Y-124690800D01*
X152340300Y-124690800D01*
G37*
G36*
X145235300Y-124632900D02*
X144532900Y-124632900D01*
X144532900Y-123280500D01*
X145235300Y-123280500D01*
X145235300Y-124632900D01*
X145235300Y-124632900D01*
G37*
G36*
X147135300Y-124632900D02*
X146432900Y-124632900D01*
X146432900Y-123280500D01*
X147135300Y-123280500D01*
X147135300Y-124632900D01*
X147135300Y-124632900D01*
G37*
G36*
X143997300Y-124591800D02*
X142844900Y-124591800D01*
X142844900Y-123339400D01*
X143997300Y-123339400D01*
X143997300Y-124591800D01*
X143997300Y-124591800D01*
G37*
G36*
X142446300Y-124518800D02*
X141093900Y-124518800D01*
X141093900Y-123566400D01*
X142446300Y-123566400D01*
X142446300Y-124518800D01*
X142446300Y-124518800D01*
G37*
G36*
X137076400Y-123801200D02*
X135724000Y-123801200D01*
X135724000Y-123098800D01*
X137076400Y-123098800D01*
X137076400Y-123801200D01*
X137076400Y-123801200D01*
G37*
G36*
X134476200Y-123801200D02*
X133123800Y-123801200D01*
X133123800Y-123098800D01*
X134476200Y-123098800D01*
X134476200Y-123801200D01*
X134476200Y-123801200D01*
G37*
G36*
X138926200Y-123776200D02*
X137773800Y-123776200D01*
X137773800Y-122623800D01*
X138926200Y-122623800D01*
X138926200Y-123776200D01*
X138926200Y-123776200D01*
G37*
G36*
X148923300Y-123143800D02*
X147570900Y-123143800D01*
X147570900Y-122191400D01*
X148923300Y-122191400D01*
X148923300Y-123143800D01*
X148923300Y-123143800D01*
G37*
G36*
X143997300Y-123116800D02*
X142844900Y-123116800D01*
X142844900Y-121864400D01*
X143997300Y-121864400D01*
X143997300Y-123116800D01*
X143997300Y-123116800D01*
G37*
G36*
X134476200Y-122851200D02*
X133123800Y-122851200D01*
X133123800Y-122148800D01*
X134476200Y-122148800D01*
X134476200Y-122851200D01*
X134476200Y-122851200D01*
G37*
G36*
X151390300Y-122590800D02*
X150437900Y-122590800D01*
X150437900Y-121538400D01*
X151390300Y-121538400D01*
X151390300Y-122590800D01*
X151390300Y-122590800D01*
G37*
G36*
X138926200Y-122176200D02*
X137773800Y-122176200D01*
X137773800Y-121023800D01*
X138926200Y-121023800D01*
X138926200Y-122176200D01*
X138926200Y-122176200D01*
G37*
G36*
X146185300Y-122032700D02*
X145482900Y-122032700D01*
X145482900Y-120680300D01*
X146185300Y-120680300D01*
X146185300Y-122032700D01*
X146185300Y-122032700D01*
G37*
G36*
X145235300Y-122032700D02*
X144532900Y-122032700D01*
X144532900Y-120680300D01*
X145235300Y-120680300D01*
X145235300Y-122032700D01*
X145235300Y-122032700D01*
G37*
G36*
X147135300Y-122032700D02*
X146432900Y-122032700D01*
X146432900Y-120680300D01*
X147135300Y-120680300D01*
X147135300Y-122032700D01*
X147135300Y-122032700D01*
G37*
G36*
X134476200Y-121901200D02*
X133123800Y-121901200D01*
X133123800Y-121198800D01*
X134476200Y-121198800D01*
X134476200Y-121901200D01*
X134476200Y-121901200D01*
G37*
G36*
X137076400Y-121901200D02*
X135724000Y-121901200D01*
X135724000Y-121198800D01*
X137076400Y-121198800D01*
X137076400Y-121901200D01*
X137076400Y-121901200D01*
G37*
G36*
X161094230Y-119720916D02*
X161151240Y-119744531D01*
X161265262Y-119791760D01*
X161367879Y-119860327D01*
X161419188Y-119894610D01*
X161550090Y-120025512D01*
X161584373Y-120076821D01*
X161652940Y-120179438D01*
X161723784Y-120350471D01*
X161759900Y-120532038D01*
X161759900Y-120717162D01*
X161723784Y-120898729D01*
X161652940Y-121069762D01*
X161584373Y-121172379D01*
X161550090Y-121223688D01*
X161419188Y-121354590D01*
X161367879Y-121388873D01*
X161265262Y-121457440D01*
X161151240Y-121504669D01*
X161094230Y-121528284D01*
X160912662Y-121564400D01*
X160727538Y-121564400D01*
X160545970Y-121528284D01*
X160488960Y-121504669D01*
X160374938Y-121457440D01*
X160272321Y-121388873D01*
X160221012Y-121354590D01*
X160090110Y-121223688D01*
X160055827Y-121172379D01*
X159987260Y-121069762D01*
X159916416Y-120898729D01*
X159880300Y-120717162D01*
X159880300Y-120532038D01*
X159916416Y-120350471D01*
X159987260Y-120179438D01*
X160055827Y-120076821D01*
X160090110Y-120025512D01*
X160221012Y-119894610D01*
X160272321Y-119860327D01*
X160374938Y-119791760D01*
X160488960Y-119744531D01*
X160545970Y-119720916D01*
X160727538Y-119684800D01*
X160912662Y-119684800D01*
X161094230Y-119720916D01*
X161094230Y-119720916D01*
G37*
G36*
X143997300Y-121416800D02*
X142844900Y-121416800D01*
X142844900Y-120164400D01*
X143997300Y-120164400D01*
X143997300Y-121416800D01*
X143997300Y-121416800D01*
G37*
G36*
X148923300Y-121343800D02*
X147570900Y-121343800D01*
X147570900Y-120391400D01*
X148923300Y-120391400D01*
X148923300Y-121343800D01*
X148923300Y-121343800D01*
G37*
G36*
X150436300Y-121327800D02*
X149283900Y-121327800D01*
X149283900Y-120175400D01*
X150436300Y-120175400D01*
X150436300Y-121327800D01*
X150436300Y-121327800D01*
G37*
G36*
X153611300Y-121327800D02*
X152458900Y-121327800D01*
X152458900Y-120175400D01*
X153611300Y-120175400D01*
X153611300Y-121327800D01*
X153611300Y-121327800D01*
G37*
G36*
X155211300Y-121327800D02*
X154058900Y-121327800D01*
X154058900Y-120175400D01*
X155211300Y-120175400D01*
X155211300Y-121327800D01*
X155211300Y-121327800D01*
G37*
G36*
X152036300Y-121327800D02*
X150883900Y-121327800D01*
X150883900Y-120175400D01*
X152036300Y-120175400D01*
X152036300Y-121327800D01*
X152036300Y-121327800D01*
G37*
G36*
X156824300Y-120857800D02*
X155671900Y-120857800D01*
X155671900Y-119705400D01*
X156824300Y-119705400D01*
X156824300Y-120857800D01*
X156824300Y-120857800D01*
G37*
G36*
X134426200Y-120776200D02*
X133473800Y-120776200D01*
X133473800Y-119423800D01*
X134426200Y-119423800D01*
X134426200Y-120776200D01*
X134426200Y-120776200D01*
G37*
G36*
X136226200Y-120776200D02*
X135273800Y-120776200D01*
X135273800Y-119423800D01*
X136226200Y-119423800D01*
X136226200Y-120776200D01*
X136226200Y-120776200D01*
G37*
G36*
X139726200Y-120726200D02*
X138773800Y-120726200D01*
X138773800Y-119373800D01*
X139726200Y-119373800D01*
X139726200Y-120726200D01*
X139726200Y-120726200D01*
G37*
G36*
X137926200Y-120726200D02*
X136973800Y-120726200D01*
X136973800Y-119373800D01*
X137926200Y-119373800D01*
X137926200Y-120726200D01*
X137926200Y-120726200D01*
G37*
G36*
X156824300Y-119257800D02*
X155671900Y-119257800D01*
X155671900Y-118105400D01*
X156824300Y-118105400D01*
X156824300Y-119257800D01*
X156824300Y-119257800D01*
G37*
G36*
X154727300Y-119091800D02*
X142274900Y-119091800D01*
X142274900Y-118039400D01*
X154727300Y-118039400D01*
X154727300Y-119091800D01*
X154727300Y-119091800D01*
G37*
G36*
X161094230Y-117180916D02*
X161151240Y-117204531D01*
X161265262Y-117251760D01*
X161367879Y-117320327D01*
X161419188Y-117354610D01*
X161550090Y-117485512D01*
X161584373Y-117536821D01*
X161652940Y-117639438D01*
X161723784Y-117810471D01*
X161759900Y-117992038D01*
X161759900Y-118177162D01*
X161723784Y-118358729D01*
X161652940Y-118529762D01*
X161584373Y-118632379D01*
X161550090Y-118683688D01*
X161419188Y-118814590D01*
X161367879Y-118848873D01*
X161265262Y-118917440D01*
X161151240Y-118964669D01*
X161094230Y-118988284D01*
X160912662Y-119024400D01*
X160727538Y-119024400D01*
X160545970Y-118988284D01*
X160488960Y-118964669D01*
X160374938Y-118917440D01*
X160272321Y-118848873D01*
X160221012Y-118814590D01*
X160090110Y-118683688D01*
X160055827Y-118632379D01*
X159987260Y-118529762D01*
X159916416Y-118358729D01*
X159880300Y-118177162D01*
X159880300Y-117992038D01*
X159916416Y-117810471D01*
X159987260Y-117639438D01*
X160055827Y-117536821D01*
X160090110Y-117485512D01*
X160221012Y-117354610D01*
X160272321Y-117320327D01*
X160374938Y-117251760D01*
X160488960Y-117204531D01*
X160545970Y-117180916D01*
X160727538Y-117144800D01*
X160912662Y-117144800D01*
X161094230Y-117180916D01*
X161094230Y-117180916D01*
G37*
G36*
X137901300Y-118190800D02*
X136748900Y-118190800D01*
X136748900Y-117038400D01*
X137901300Y-117038400D01*
X137901300Y-118190800D01*
X137901300Y-118190800D01*
G37*
G36*
X136250300Y-118190800D02*
X135097900Y-118190800D01*
X135097900Y-117038400D01*
X136250300Y-117038400D01*
X136250300Y-118190800D01*
X136250300Y-118190800D01*
G37*
G36*
X139552300Y-118190800D02*
X138399900Y-118190800D01*
X138399900Y-117038400D01*
X139552300Y-117038400D01*
X139552300Y-118190800D01*
X139552300Y-118190800D01*
G37*
G36*
X156747300Y-117071800D02*
X155694900Y-117071800D01*
X155694900Y-104619400D01*
X156747300Y-104619400D01*
X156747300Y-117071800D01*
X156747300Y-117071800D01*
G37*
G36*
X141307300Y-117071800D02*
X140254900Y-117071800D01*
X140254900Y-104619400D01*
X141307300Y-104619400D01*
X141307300Y-117071800D01*
X141307300Y-117071800D01*
G37*
G36*
X139552300Y-116590800D02*
X138399900Y-116590800D01*
X138399900Y-115438400D01*
X139552300Y-115438400D01*
X139552300Y-116590800D01*
X139552300Y-116590800D01*
G37*
G36*
X137901300Y-116590800D02*
X136748900Y-116590800D01*
X136748900Y-115438400D01*
X137901300Y-115438400D01*
X137901300Y-116590800D01*
X137901300Y-116590800D01*
G37*
G36*
X136250300Y-116590800D02*
X135097900Y-116590800D01*
X135097900Y-115438400D01*
X136250300Y-115438400D01*
X136250300Y-116590800D01*
X136250300Y-116590800D01*
G37*
G36*
X161094230Y-114640916D02*
X161151240Y-114664531D01*
X161265262Y-114711760D01*
X161367879Y-114780327D01*
X161419188Y-114814610D01*
X161550090Y-114945512D01*
X161584373Y-114996821D01*
X161652940Y-115099438D01*
X161723784Y-115270471D01*
X161759900Y-115452038D01*
X161759900Y-115637162D01*
X161723784Y-115818729D01*
X161652940Y-115989762D01*
X161584373Y-116092379D01*
X161550090Y-116143688D01*
X161419188Y-116274590D01*
X161367879Y-116308873D01*
X161265262Y-116377440D01*
X161151240Y-116424669D01*
X161094230Y-116448284D01*
X160912662Y-116484400D01*
X160727538Y-116484400D01*
X160545970Y-116448284D01*
X160488960Y-116424669D01*
X160374938Y-116377440D01*
X160272321Y-116308873D01*
X160221012Y-116274590D01*
X160090110Y-116143688D01*
X160055827Y-116092379D01*
X159987260Y-115989762D01*
X159916416Y-115818729D01*
X159880300Y-115637162D01*
X159880300Y-115452038D01*
X159916416Y-115270471D01*
X159987260Y-115099438D01*
X160055827Y-114996821D01*
X160090110Y-114945512D01*
X160221012Y-114814610D01*
X160272321Y-114780327D01*
X160374938Y-114711760D01*
X160488960Y-114664531D01*
X160545970Y-114640916D01*
X160727538Y-114604800D01*
X160912662Y-114604800D01*
X161094230Y-114640916D01*
X161094230Y-114640916D01*
G37*
G36*
X139425200Y-114177700D02*
X138272800Y-114177700D01*
X138272800Y-113025300D01*
X139425200Y-113025300D01*
X139425200Y-114177700D01*
X139425200Y-114177700D01*
G37*
G36*
X137825200Y-114177700D02*
X136672800Y-114177700D01*
X136672800Y-113025300D01*
X137825200Y-113025300D01*
X137825200Y-114177700D01*
X137825200Y-114177700D01*
G37*
G36*
X161094230Y-112100916D02*
X161151240Y-112124531D01*
X161265262Y-112171760D01*
X161367879Y-112240327D01*
X161419188Y-112274610D01*
X161550090Y-112405512D01*
X161584373Y-112456821D01*
X161652940Y-112559438D01*
X161723784Y-112730471D01*
X161759900Y-112912038D01*
X161759900Y-113097162D01*
X161723784Y-113278729D01*
X161652940Y-113449762D01*
X161584373Y-113552379D01*
X161550090Y-113603688D01*
X161419188Y-113734590D01*
X161367879Y-113768873D01*
X161265262Y-113837440D01*
X161151240Y-113884669D01*
X161094230Y-113908284D01*
X160912662Y-113944400D01*
X160727538Y-113944400D01*
X160545970Y-113908284D01*
X160488960Y-113884669D01*
X160374938Y-113837440D01*
X160272321Y-113768873D01*
X160221012Y-113734590D01*
X160090110Y-113603688D01*
X160055827Y-113552379D01*
X159987260Y-113449762D01*
X159916416Y-113278729D01*
X159880300Y-113097162D01*
X159880300Y-112912038D01*
X159916416Y-112730471D01*
X159987260Y-112559438D01*
X160055827Y-112456821D01*
X160090110Y-112405512D01*
X160221012Y-112274610D01*
X160272321Y-112240327D01*
X160374938Y-112171760D01*
X160488960Y-112124531D01*
X160545970Y-112100916D01*
X160727538Y-112064800D01*
X160912662Y-112064800D01*
X161094230Y-112100916D01*
X161094230Y-112100916D01*
G37*
G36*
X132408000Y-113574500D02*
X130810000Y-113574500D01*
X130810000Y-111776500D01*
X132408000Y-111776500D01*
X132408000Y-113574500D01*
X132408000Y-113574500D01*
G37*
G36*
X137902200Y-112474200D02*
X136849800Y-112474200D01*
X136849800Y-111321800D01*
X137902200Y-111321800D01*
X137902200Y-112474200D01*
X137902200Y-112474200D01*
G37*
G36*
X139452200Y-112474200D02*
X138399800Y-112474200D01*
X138399800Y-111321800D01*
X139452200Y-111321800D01*
X139452200Y-112474200D01*
X139452200Y-112474200D01*
G37*
G36*
X161094230Y-109560916D02*
X161151240Y-109584531D01*
X161265262Y-109631760D01*
X161366641Y-109699500D01*
X161419188Y-109734610D01*
X161550090Y-109865512D01*
X161584373Y-109916821D01*
X161652940Y-110019438D01*
X161723784Y-110190471D01*
X161759900Y-110372038D01*
X161759900Y-110557162D01*
X161723784Y-110738729D01*
X161652940Y-110909762D01*
X161584373Y-111012379D01*
X161550090Y-111063688D01*
X161419188Y-111194590D01*
X161367879Y-111228873D01*
X161265262Y-111297440D01*
X161151240Y-111344669D01*
X161094230Y-111368284D01*
X160912662Y-111404400D01*
X160727538Y-111404400D01*
X160545970Y-111368284D01*
X160488960Y-111344669D01*
X160374938Y-111297440D01*
X160272321Y-111228873D01*
X160221012Y-111194590D01*
X160090110Y-111063688D01*
X160055827Y-111012379D01*
X159987260Y-110909762D01*
X159916416Y-110738729D01*
X159880300Y-110557162D01*
X159880300Y-110372038D01*
X159916416Y-110190471D01*
X159987260Y-110019438D01*
X160055827Y-109916821D01*
X160090110Y-109865512D01*
X160221012Y-109734610D01*
X160273559Y-109699500D01*
X160374938Y-109631760D01*
X160488960Y-109584531D01*
X160545970Y-109560916D01*
X160727538Y-109524800D01*
X160912662Y-109524800D01*
X161094230Y-109560916D01*
X161094230Y-109560916D01*
G37*
G36*
X136108000Y-111199500D02*
X134910000Y-111199500D01*
X134910000Y-110851500D01*
X136108000Y-110851500D01*
X136108000Y-111199500D01*
X136108000Y-111199500D01*
G37*
G36*
X136108000Y-110699500D02*
X134910000Y-110699500D01*
X134910000Y-110351500D01*
X136108000Y-110351500D01*
X136108000Y-110699500D01*
X136108000Y-110699500D01*
G37*
G36*
X139452200Y-110624200D02*
X138399800Y-110624200D01*
X138399800Y-109471800D01*
X139452200Y-109471800D01*
X139452200Y-110624200D01*
X139452200Y-110624200D01*
G37*
G36*
X137902200Y-110624200D02*
X136849800Y-110624200D01*
X136849800Y-109471800D01*
X137902200Y-109471800D01*
X137902200Y-110624200D01*
X137902200Y-110624200D01*
G37*
G36*
X136108000Y-110199500D02*
X134910000Y-110199500D01*
X134910000Y-109851500D01*
X136108000Y-109851500D01*
X136108000Y-110199500D01*
X136108000Y-110199500D01*
G37*
G36*
X136108000Y-109699500D02*
X134910000Y-109699500D01*
X134910000Y-109351500D01*
X136108000Y-109351500D01*
X136108000Y-109699500D01*
X136108000Y-109699500D01*
G37*
G36*
X136108000Y-109199500D02*
X134910000Y-109199500D01*
X134910000Y-108851500D01*
X136108000Y-108851500D01*
X136108000Y-109199500D01*
X136108000Y-109199500D01*
G37*
G36*
X138053700Y-109072200D02*
X136901300Y-109072200D01*
X136901300Y-107919800D01*
X138053700Y-107919800D01*
X138053700Y-109072200D01*
X138053700Y-109072200D01*
G37*
G36*
X139514200Y-109072200D02*
X138361800Y-109072200D01*
X138361800Y-107919800D01*
X139514200Y-107919800D01*
X139514200Y-109072200D01*
X139514200Y-109072200D01*
G37*
G36*
X161094230Y-107020916D02*
X161151240Y-107044531D01*
X161265262Y-107091760D01*
X161367879Y-107160327D01*
X161419188Y-107194610D01*
X161550090Y-107325512D01*
X161567454Y-107351500D01*
X161652940Y-107479438D01*
X161691197Y-107571800D01*
X161723784Y-107650470D01*
X161759900Y-107832038D01*
X161759900Y-108017162D01*
X161723784Y-108198729D01*
X161652940Y-108369762D01*
X161584373Y-108472379D01*
X161550090Y-108523688D01*
X161419188Y-108654590D01*
X161367879Y-108688873D01*
X161265262Y-108757440D01*
X161151240Y-108804669D01*
X161094230Y-108828284D01*
X160912662Y-108864400D01*
X160727538Y-108864400D01*
X160545970Y-108828284D01*
X160488960Y-108804669D01*
X160374938Y-108757440D01*
X160272321Y-108688873D01*
X160221012Y-108654590D01*
X160090110Y-108523688D01*
X160055827Y-108472379D01*
X159987260Y-108369762D01*
X159916416Y-108198729D01*
X159880300Y-108017162D01*
X159880300Y-107832038D01*
X159916416Y-107650470D01*
X159949003Y-107571800D01*
X159987260Y-107479438D01*
X160072746Y-107351500D01*
X160090110Y-107325512D01*
X160221012Y-107194610D01*
X160272321Y-107160327D01*
X160374938Y-107091760D01*
X160488960Y-107044531D01*
X160545970Y-107020916D01*
X160727538Y-106984800D01*
X160912662Y-106984800D01*
X161094230Y-107020916D01*
X161094230Y-107020916D01*
G37*
G36*
X136108000Y-108699500D02*
X134910000Y-108699500D01*
X134910000Y-108351500D01*
X136108000Y-108351500D01*
X136108000Y-108699500D01*
X136108000Y-108699500D01*
G37*
G36*
X136108000Y-108199500D02*
X134910000Y-108199500D01*
X134910000Y-107851500D01*
X136108000Y-107851500D01*
X136108000Y-108199500D01*
X136108000Y-108199500D01*
G37*
G36*
X136108000Y-107699500D02*
X134910000Y-107699500D01*
X134910000Y-107351500D01*
X136108000Y-107351500D01*
X136108000Y-107699500D01*
X136108000Y-107699500D01*
G37*
G36*
X139514200Y-107472200D02*
X138361800Y-107472200D01*
X138361800Y-106319800D01*
X139514200Y-106319800D01*
X139514200Y-107472200D01*
X139514200Y-107472200D01*
G37*
G36*
X138053700Y-107472200D02*
X136901300Y-107472200D01*
X136901300Y-106319800D01*
X138053700Y-106319800D01*
X138053700Y-107472200D01*
X138053700Y-107472200D01*
G37*
G36*
X136108000Y-107199500D02*
X134910000Y-107199500D01*
X134910000Y-106851500D01*
X136108000Y-106851500D01*
X136108000Y-107199500D01*
X136108000Y-107199500D01*
G37*
G36*
X136108000Y-106699500D02*
X134910000Y-106699500D01*
X134910000Y-106351500D01*
X136108000Y-106351500D01*
X136108000Y-106699500D01*
X136108000Y-106699500D01*
G37*
G36*
X159173800Y-106176600D02*
X158021400Y-106176600D01*
X158021400Y-105024200D01*
X159173800Y-105024200D01*
X159173800Y-106176600D01*
X159173800Y-106176600D01*
G37*
G36*
X132408000Y-105774500D02*
X130810000Y-105774500D01*
X130810000Y-103976500D01*
X132408000Y-103976500D01*
X132408000Y-105774500D01*
X132408000Y-105774500D01*
G37*
G36*
X159173800Y-104576600D02*
X158021400Y-104576600D01*
X158021400Y-103424200D01*
X159173800Y-103424200D01*
X159173800Y-104576600D01*
X159173800Y-104576600D01*
G37*
G36*
X139598300Y-104131800D02*
X137845900Y-104131800D01*
X137845900Y-102579400D01*
X139598300Y-102579400D01*
X139598300Y-104131800D01*
X139598300Y-104131800D01*
G37*
G36*
X154727300Y-103651800D02*
X142274900Y-103651800D01*
X142274900Y-102599400D01*
X154727300Y-102599400D01*
X154727300Y-103651800D01*
X154727300Y-103651800D01*
G37*
G36*
X141457300Y-103585800D02*
X140304900Y-103585800D01*
X140304900Y-102433400D01*
X141457300Y-102433400D01*
X141457300Y-103585800D01*
X141457300Y-103585800D01*
G37*
G36*
X156824300Y-103585800D02*
X155671900Y-103585800D01*
X155671900Y-102433400D01*
X156824300Y-102433400D01*
X156824300Y-103585800D01*
X156824300Y-103585800D01*
G37*
G36*
X141457300Y-101985800D02*
X140304900Y-101985800D01*
X140304900Y-100833400D01*
X141457300Y-100833400D01*
X141457300Y-101985800D01*
X141457300Y-101985800D01*
G37*
G36*
X156824300Y-101985800D02*
X155671900Y-101985800D01*
X155671900Y-100833400D01*
X156824300Y-100833400D01*
X156824300Y-101985800D01*
X156824300Y-101985800D01*
G37*
G36*
X146226200Y-101376200D02*
X144973800Y-101376200D01*
X144973800Y-100223800D01*
X146226200Y-100223800D01*
X146226200Y-101376200D01*
X146226200Y-101376200D01*
G37*
G36*
X147926200Y-101376200D02*
X146673800Y-101376200D01*
X146673800Y-100223800D01*
X147926200Y-100223800D01*
X147926200Y-101376200D01*
X147926200Y-101376200D01*
G37*
G36*
X139598300Y-101331800D02*
X137845900Y-101331800D01*
X137845900Y-99779400D01*
X139598300Y-99779400D01*
X139598300Y-101331800D01*
X139598300Y-101331800D01*
G37*
G36*
X160726200Y-100926200D02*
X159573800Y-100926200D01*
X159573800Y-99773800D01*
X160726200Y-99773800D01*
X160726200Y-100926200D01*
X160726200Y-100926200D01*
G37*
G36*
X147926200Y-99876200D02*
X146673800Y-99876200D01*
X146673800Y-98723800D01*
X147926200Y-98723800D01*
X147926200Y-99876200D01*
X147926200Y-99876200D01*
G37*
G36*
X146226200Y-99876200D02*
X144973800Y-99876200D01*
X144973800Y-98723800D01*
X146226200Y-98723800D01*
X146226200Y-99876200D01*
X146226200Y-99876200D01*
G37*
G36*
X160726200Y-99326200D02*
X159573800Y-99326200D01*
X159573800Y-98173800D01*
X160726200Y-98173800D01*
X160726200Y-99326200D01*
X160726200Y-99326200D01*
G37*
G36*
X149826200Y-98476200D02*
X148673800Y-98476200D01*
X148673800Y-97323800D01*
X149826200Y-97323800D01*
X149826200Y-98476200D01*
X149826200Y-98476200D01*
G37*
G36*
X152770300Y-98233800D02*
X152167900Y-98233800D01*
X152167900Y-97381400D01*
X152770300Y-97381400D01*
X152770300Y-98233800D01*
X152770300Y-98233800D01*
G37*
G36*
X153570300Y-98233800D02*
X152967900Y-98233800D01*
X152967900Y-97381400D01*
X153570300Y-97381400D01*
X153570300Y-98233800D01*
X153570300Y-98233800D01*
G37*
G36*
X151970300Y-98233800D02*
X151367900Y-98233800D01*
X151367900Y-97381400D01*
X151970300Y-97381400D01*
X151970300Y-98233800D01*
X151970300Y-98233800D01*
G37*
G36*
X151170300Y-98233800D02*
X150567900Y-98233800D01*
X150567900Y-97381400D01*
X151170300Y-97381400D01*
X151170300Y-98233800D01*
X151170300Y-98233800D01*
G37*
G36*
X140603200Y-97780200D02*
X139050800Y-97780200D01*
X139050800Y-96427800D01*
X140603200Y-96427800D01*
X140603200Y-97780200D01*
X140603200Y-97780200D01*
G37*
G36*
X143587700Y-97780200D02*
X142035300Y-97780200D01*
X142035300Y-96427800D01*
X143587700Y-96427800D01*
X143587700Y-97780200D01*
X143587700Y-97780200D01*
G37*
G36*
X134565300Y-97766800D02*
X133612900Y-97766800D01*
X133612900Y-96714400D01*
X134565300Y-96714400D01*
X134565300Y-97766800D01*
X134565300Y-97766800D01*
G37*
G36*
X136465300Y-97766800D02*
X135512900Y-97766800D01*
X135512900Y-96714400D01*
X136465300Y-96714400D01*
X136465300Y-97766800D01*
X136465300Y-97766800D01*
G37*
G36*
X138028300Y-97716800D02*
X136875900Y-97716800D01*
X136875900Y-96464400D01*
X138028300Y-96464400D01*
X138028300Y-97716800D01*
X138028300Y-97716800D01*
G37*
G36*
X158070300Y-97010800D02*
X157467900Y-97010800D01*
X157467900Y-96158400D01*
X158070300Y-96158400D01*
X158070300Y-97010800D01*
X158070300Y-97010800D01*
G37*
G36*
X160470300Y-97010800D02*
X159867900Y-97010800D01*
X159867900Y-96158400D01*
X160470300Y-96158400D01*
X160470300Y-97010800D01*
X160470300Y-97010800D01*
G37*
G36*
X158870300Y-97010800D02*
X158267900Y-97010800D01*
X158267900Y-96158400D01*
X158870300Y-96158400D01*
X158870300Y-97010800D01*
X158870300Y-97010800D01*
G37*
G36*
X159670300Y-97010800D02*
X159067900Y-97010800D01*
X159067900Y-96158400D01*
X159670300Y-96158400D01*
X159670300Y-97010800D01*
X159670300Y-97010800D01*
G37*
G36*
X149826200Y-96876200D02*
X148673800Y-96876200D01*
X148673800Y-95723800D01*
X149826200Y-95723800D01*
X149826200Y-96876200D01*
X149826200Y-96876200D01*
G37*
G36*
X151970300Y-96683800D02*
X151367900Y-96683800D01*
X151367900Y-95831400D01*
X151970300Y-95831400D01*
X151970300Y-96683800D01*
X151970300Y-96683800D01*
G37*
G36*
X153570300Y-96683800D02*
X152967900Y-96683800D01*
X152967900Y-95831400D01*
X153570300Y-95831400D01*
X153570300Y-96683800D01*
X153570300Y-96683800D01*
G37*
G36*
X152770300Y-96683800D02*
X152167900Y-96683800D01*
X152167900Y-95831400D01*
X152770300Y-95831400D01*
X152770300Y-96683800D01*
X152770300Y-96683800D01*
G37*
G36*
X151170300Y-96683800D02*
X150567900Y-96683800D01*
X150567900Y-95831400D01*
X151170300Y-95831400D01*
X151170300Y-96683800D01*
X151170300Y-96683800D01*
G37*
G36*
X132465200Y-96257200D02*
X131312800Y-96257200D01*
X131312800Y-95004800D01*
X132465200Y-95004800D01*
X132465200Y-96257200D01*
X132465200Y-96257200D01*
G37*
G36*
X138028300Y-96016800D02*
X136875900Y-96016800D01*
X136875900Y-94764400D01*
X138028300Y-94764400D01*
X138028300Y-96016800D01*
X138028300Y-96016800D01*
G37*
G36*
X135515300Y-95666800D02*
X134562900Y-95666800D01*
X134562900Y-94614400D01*
X135515300Y-94614400D01*
X135515300Y-95666800D01*
X135515300Y-95666800D01*
G37*
G36*
X147926200Y-95476200D02*
X146173800Y-95476200D01*
X146173800Y-93923800D01*
X147926200Y-93923800D01*
X147926200Y-95476200D01*
X147926200Y-95476200D01*
G37*
G36*
X158070300Y-95460800D02*
X157467900Y-95460800D01*
X157467900Y-94608400D01*
X158070300Y-94608400D01*
X158070300Y-95460800D01*
X158070300Y-95460800D01*
G37*
G36*
X158870300Y-95460800D02*
X158267900Y-95460800D01*
X158267900Y-94608400D01*
X158870300Y-94608400D01*
X158870300Y-95460800D01*
X158870300Y-95460800D01*
G37*
G36*
X159670300Y-95460800D02*
X159067900Y-95460800D01*
X159067900Y-94608400D01*
X159670300Y-94608400D01*
X159670300Y-95460800D01*
X159670300Y-95460800D01*
G37*
G36*
X160470300Y-95460800D02*
X159867900Y-95460800D01*
X159867900Y-94608400D01*
X160470300Y-94608400D01*
X160470300Y-95460800D01*
X160470300Y-95460800D01*
G37*
G36*
X140603200Y-94580200D02*
X139050800Y-94580200D01*
X139050800Y-93227800D01*
X140603200Y-93227800D01*
X140603200Y-94580200D01*
X140603200Y-94580200D01*
G37*
G36*
X143587700Y-94580200D02*
X142035300Y-94580200D01*
X142035300Y-93227800D01*
X143587700Y-93227800D01*
X143587700Y-94580200D01*
X143587700Y-94580200D01*
G37*
G36*
X132465200Y-94557200D02*
X131312800Y-94557200D01*
X131312800Y-93304800D01*
X132465200Y-93304800D01*
X132465200Y-94557200D01*
X132465200Y-94557200D01*
G37*
G36*
X153276200Y-94426200D02*
X151723800Y-94426200D01*
X151723800Y-92673800D01*
X153276200Y-92673800D01*
X153276200Y-94426200D01*
X153276200Y-94426200D01*
G37*
G36*
X156076200Y-94426200D02*
X154523800Y-94426200D01*
X154523800Y-92673800D01*
X156076200Y-92673800D01*
X156076200Y-94426200D01*
X156076200Y-94426200D01*
G37*
G36*
X133495300Y-93336800D02*
X132642900Y-93336800D01*
X132642900Y-91984400D01*
X133495300Y-91984400D01*
X133495300Y-93336800D01*
X133495300Y-93336800D01*
G37*
G36*
X134895300Y-93336800D02*
X134042900Y-93336800D01*
X134042900Y-91984400D01*
X134895300Y-91984400D01*
X134895300Y-93336800D01*
X134895300Y-93336800D01*
G37*
G36*
X147926200Y-92676200D02*
X146173800Y-92676200D01*
X146173800Y-91123800D01*
X147926200Y-91123800D01*
X147926200Y-92676200D01*
X147926200Y-92676200D01*
G37*
G36*
X139224800Y-92661800D02*
X138372400Y-92661800D01*
X138372400Y-92059400D01*
X139224800Y-92059400D01*
X139224800Y-92661800D01*
X139224800Y-92661800D01*
G37*
G36*
X137674800Y-92661800D02*
X136822400Y-92661800D01*
X136822400Y-92059400D01*
X137674800Y-92059400D01*
X137674800Y-92661800D01*
X137674800Y-92661800D01*
G37*
G36*
X139224800Y-91861800D02*
X138372400Y-91861800D01*
X138372400Y-91259400D01*
X139224800Y-91259400D01*
X139224800Y-91861800D01*
X139224800Y-91861800D01*
G37*
G36*
X137674800Y-91861800D02*
X136822400Y-91861800D01*
X136822400Y-91259400D01*
X137674800Y-91259400D01*
X137674800Y-91861800D01*
X137674800Y-91861800D01*
G37*
G36*
X137674800Y-91061800D02*
X136822400Y-91061800D01*
X136822400Y-90459400D01*
X137674800Y-90459400D01*
X137674800Y-91061800D01*
X137674800Y-91061800D01*
G37*
G36*
X139224800Y-91061800D02*
X138372400Y-91061800D01*
X138372400Y-90459400D01*
X139224800Y-90459400D01*
X139224800Y-91061800D01*
X139224800Y-91061800D01*
G37*
G36*
X134895300Y-90336800D02*
X134042900Y-90336800D01*
X134042900Y-88984400D01*
X134895300Y-88984400D01*
X134895300Y-90336800D01*
X134895300Y-90336800D01*
G37*
G36*
X133495300Y-90336800D02*
X132642900Y-90336800D01*
X132642900Y-88984400D01*
X133495300Y-88984400D01*
X133495300Y-90336800D01*
X133495300Y-90336800D01*
G37*
G36*
X137674800Y-90261800D02*
X136822400Y-90261800D01*
X136822400Y-89659400D01*
X137674800Y-89659400D01*
X137674800Y-90261800D01*
X137674800Y-90261800D01*
G37*
G36*
X139224800Y-90261800D02*
X138372400Y-90261800D01*
X138372400Y-89659400D01*
X139224800Y-89659400D01*
X139224800Y-90261800D01*
X139224800Y-90261800D01*
G37*
G36*
X163268767Y-88428822D02*
X163405258Y-88485359D01*
X163528097Y-88567437D01*
X163632563Y-88671903D01*
X163714641Y-88794742D01*
X163771178Y-88931233D01*
X163800000Y-89076131D01*
X163800000Y-89223869D01*
X163771178Y-89368767D01*
X163714641Y-89505258D01*
X163632563Y-89628097D01*
X163528097Y-89732563D01*
X163405258Y-89814641D01*
X163268767Y-89871178D01*
X163123869Y-89900000D01*
X162976131Y-89900000D01*
X162831233Y-89871178D01*
X162694742Y-89814641D01*
X162571903Y-89732563D01*
X162467437Y-89628097D01*
X162385359Y-89505258D01*
X162328822Y-89368767D01*
X162300000Y-89223869D01*
X162300000Y-89076131D01*
X162328822Y-88931233D01*
X162385359Y-88794742D01*
X162467437Y-88671903D01*
X162571903Y-88567437D01*
X162694742Y-88485359D01*
X162831233Y-88428822D01*
X162976131Y-88400000D01*
X163123869Y-88400000D01*
X163268767Y-88428822D01*
X163268767Y-88428822D01*
G37*
G36*
X129668767Y-88428822D02*
X129805258Y-88485359D01*
X129928097Y-88567437D01*
X130032563Y-88671903D01*
X130114641Y-88794742D01*
X130171178Y-88931233D01*
X130200000Y-89076131D01*
X130200000Y-89223869D01*
X130171178Y-89368767D01*
X130114641Y-89505258D01*
X130032563Y-89628097D01*
X129928097Y-89732563D01*
X129805258Y-89814641D01*
X129668767Y-89871178D01*
X129523869Y-89900000D01*
X129376131Y-89900000D01*
X129231233Y-89871178D01*
X129094742Y-89814641D01*
X128971903Y-89732563D01*
X128867437Y-89628097D01*
X128785359Y-89505258D01*
X128728822Y-89368767D01*
X128700000Y-89223869D01*
X128700000Y-89076131D01*
X128728822Y-88931233D01*
X128785359Y-88794742D01*
X128867437Y-88671903D01*
X128971903Y-88567437D01*
X129094742Y-88485359D01*
X129231233Y-88428822D01*
X129376131Y-88400000D01*
X129523869Y-88400000D01*
X129668767Y-88428822D01*
X129668767Y-88428822D01*
G37*
M02*
