%TF.GenerationSoftware,KiCad,Pcbnew,5.0.2-bee76a0~70~ubuntu18.04.1*%
%TF.CreationDate,2020-02-29T17:30:31-08:00*%
%TF.ProjectId,base,62617365-2e6b-4696-9361-645f70636258,rev?*%
%TF.SameCoordinates,Original*%
%TF.FileFunction,Soldermask,Bot*%
%TF.FilePolarity,Negative*%
%FSLAX46Y46*%
G04 Gerber Fmt 4.6, Leading zero omitted, Abs format (unit mm)*
G04 Created by KiCad (PCBNEW 5.0.2-bee76a0~70~ubuntu18.04.1) date Sat 29 Feb 2020 05:30:31 PM PST*
%MOMM*%
%LPD*%
G01*
G04 APERTURE LIST*
%ADD10C,0.150000*%
%ADD11C,0.100000*%
G04 APERTURE END LIST*
D10*
X131000500Y-114280540D02*
X131000500Y-118280540D01*
X162651441Y-102162541D02*
X162651441Y-95050541D01*
X161502382Y-105714800D02*
X162651441Y-105714800D01*
X161502382Y-102162541D02*
X162651441Y-102162541D01*
X129851441Y-123050540D02*
G75*
G02X129351441Y-123550540I-500000J0D01*
G01*
X129351441Y-94550541D02*
G75*
G02X129851441Y-95050541I0J-500000D01*
G01*
X162651441Y-95050541D02*
G75*
G02X163151441Y-94550541I500000J0D01*
G01*
X163151441Y-123550540D02*
G75*
G02X162651441Y-123050540I0J500000D01*
G01*
X128351441Y-88050540D02*
X128351441Y-94550540D01*
X163151441Y-94550541D02*
X164151441Y-94550540D01*
X162651441Y-123050540D02*
X162651441Y-105714800D01*
X164151441Y-123550540D02*
X163151441Y-123550540D01*
X164151441Y-94550540D02*
X164151440Y-88050541D01*
X129851441Y-95050541D02*
X129851441Y-114280540D01*
X128351441Y-94550540D02*
X129351441Y-94550541D01*
X128351441Y-130050540D02*
X162651440Y-130050540D01*
X129851441Y-114280540D02*
X131000500Y-114280540D01*
X161502382Y-102162541D02*
X161502382Y-105714800D01*
X162651440Y-88050540D02*
X128351441Y-88050540D01*
X131000500Y-118280540D02*
X129851441Y-118280540D01*
X128351441Y-123550540D02*
X128351441Y-130050540D01*
X129351441Y-123550540D02*
X128351441Y-123550540D01*
X129851441Y-118280540D02*
X129851441Y-123050540D01*
X162651440Y-130050540D02*
X164151440Y-130050540D01*
X164151440Y-88050541D02*
X162651440Y-88050540D01*
X164151440Y-130050540D02*
X164151441Y-123550540D01*
D11*
G36*
X152313700Y-110612800D02*
X152287735Y-110810020D01*
X152211611Y-110993800D01*
X152090515Y-111151615D01*
X151932700Y-111272711D01*
X151748920Y-111348835D01*
X151551700Y-111374800D01*
X151354480Y-111348835D01*
X151170700Y-111272711D01*
X151012885Y-111151615D01*
X150891789Y-110993800D01*
X150815665Y-110810020D01*
X150789700Y-110612800D01*
X150815665Y-110415580D01*
X150891789Y-110231800D01*
X151012885Y-110073985D01*
X151170700Y-109952889D01*
X151551700Y-109850800D01*
X151748920Y-109876765D01*
X151932700Y-109952889D01*
X152090515Y-110073985D01*
X152211611Y-110231800D01*
X152287735Y-110415580D01*
X152313700Y-110612800D01*
G37*
G36*
X141712500Y-110612800D02*
X141686535Y-110810020D01*
X141610411Y-110993800D01*
X141489315Y-111151615D01*
X141331500Y-111272711D01*
X141147720Y-111348835D01*
X140950500Y-111374800D01*
X140753280Y-111348835D01*
X140569500Y-111272711D01*
X140411685Y-111151615D01*
X140290589Y-110993800D01*
X140214465Y-110810020D01*
X140188500Y-110612800D01*
X140214465Y-110415580D01*
X140290589Y-110231800D01*
X140411685Y-110073985D01*
X140569500Y-109952889D01*
X140950500Y-109850800D01*
X141147720Y-109876765D01*
X141331500Y-109952889D01*
X141489315Y-110073985D01*
X141610411Y-110231800D01*
X141686535Y-110415580D01*
X141712500Y-110612800D01*
G37*
G36*
X129668767Y-128228822D02*
X129805258Y-128285359D01*
X129928097Y-128367437D01*
X130032563Y-128471903D01*
X130114641Y-128594742D01*
X130171178Y-128731233D01*
X130200000Y-128876131D01*
X130200000Y-129023869D01*
X130171178Y-129168767D01*
X130114641Y-129305258D01*
X130032563Y-129428097D01*
X129928097Y-129532563D01*
X129805258Y-129614641D01*
X129668767Y-129671178D01*
X129523869Y-129700000D01*
X129376131Y-129700000D01*
X129231233Y-129671178D01*
X129094742Y-129614641D01*
X128971903Y-129532563D01*
X128867437Y-129428097D01*
X128785359Y-129305258D01*
X128728822Y-129168767D01*
X128700000Y-129023869D01*
X128700000Y-128876131D01*
X128728822Y-128731233D01*
X128785359Y-128594742D01*
X128867437Y-128471903D01*
X128971903Y-128367437D01*
X129094742Y-128285359D01*
X129231233Y-128228822D01*
X129376131Y-128200000D01*
X129523869Y-128200000D01*
X129668767Y-128228822D01*
X129668767Y-128228822D01*
G37*
G36*
X157476200Y-129365200D02*
X155423800Y-129365200D01*
X155423800Y-128626466D01*
X155422849Y-128616809D01*
X155420032Y-128607523D01*
X155415458Y-128598965D01*
X155409302Y-128591464D01*
X155401801Y-128585308D01*
X155393243Y-128580734D01*
X155383957Y-128577917D01*
X155374300Y-128576966D01*
X155364643Y-128577917D01*
X155355357Y-128580734D01*
X155346799Y-128585308D01*
X155339298Y-128591464D01*
X155333142Y-128598965D01*
X155328568Y-128607523D01*
X155325751Y-128616809D01*
X155322340Y-128633956D01*
X155246114Y-128817983D01*
X155135451Y-128983603D01*
X154994603Y-129124451D01*
X154828983Y-129235114D01*
X154706298Y-129285931D01*
X154644957Y-129311340D01*
X154547275Y-129330770D01*
X154449595Y-129350200D01*
X154250405Y-129350200D01*
X154152725Y-129330770D01*
X154055043Y-129311340D01*
X153993702Y-129285931D01*
X153871017Y-129235114D01*
X153705397Y-129124451D01*
X153564549Y-128983603D01*
X153453886Y-128817983D01*
X153377660Y-128633956D01*
X153338800Y-128438595D01*
X153338800Y-128239405D01*
X153377660Y-128044044D01*
X153453886Y-127860017D01*
X153564549Y-127694397D01*
X153705397Y-127553549D01*
X153871017Y-127442886D01*
X153993702Y-127392069D01*
X154055043Y-127366660D01*
X154152725Y-127347230D01*
X154250405Y-127327800D01*
X154449595Y-127327800D01*
X154547275Y-127347230D01*
X154644957Y-127366660D01*
X154706298Y-127392069D01*
X154828983Y-127442886D01*
X154994603Y-127553549D01*
X155135451Y-127694397D01*
X155246114Y-127860017D01*
X155296931Y-127982702D01*
X155322340Y-128044043D01*
X155325751Y-128061191D01*
X155328568Y-128070477D01*
X155333142Y-128079035D01*
X155339298Y-128086536D01*
X155346799Y-128092692D01*
X155355357Y-128097266D01*
X155364643Y-128100083D01*
X155374300Y-128101034D01*
X155383957Y-128100083D01*
X155393243Y-128097266D01*
X155401801Y-128092692D01*
X155409302Y-128086536D01*
X155415458Y-128079035D01*
X155420032Y-128070477D01*
X155422849Y-128061191D01*
X155423800Y-128051534D01*
X155423800Y-127312800D01*
X157476200Y-127312800D01*
X157476200Y-129365200D01*
X157476200Y-129365200D01*
G37*
G36*
X159876200Y-128051534D02*
X159877151Y-128061191D01*
X159879968Y-128070477D01*
X159884542Y-128079035D01*
X159890698Y-128086536D01*
X159898199Y-128092692D01*
X159906757Y-128097266D01*
X159916043Y-128100083D01*
X159925700Y-128101034D01*
X159935357Y-128100083D01*
X159944643Y-128097266D01*
X159953201Y-128092692D01*
X159960702Y-128086536D01*
X159966858Y-128079035D01*
X159971432Y-128070477D01*
X159974249Y-128061191D01*
X159977660Y-128044043D01*
X160003069Y-127982702D01*
X160053886Y-127860017D01*
X160164549Y-127694397D01*
X160305397Y-127553549D01*
X160471017Y-127442886D01*
X160593702Y-127392069D01*
X160655043Y-127366660D01*
X160752725Y-127347230D01*
X160850405Y-127327800D01*
X161049595Y-127327800D01*
X161147275Y-127347230D01*
X161244957Y-127366660D01*
X161306298Y-127392069D01*
X161428983Y-127442886D01*
X161594603Y-127553549D01*
X161735451Y-127694397D01*
X161846114Y-127860017D01*
X161922340Y-128044044D01*
X161961200Y-128239405D01*
X161961200Y-128438595D01*
X161922340Y-128633956D01*
X161846114Y-128817983D01*
X161735451Y-128983603D01*
X161594603Y-129124451D01*
X161428983Y-129235114D01*
X161306298Y-129285931D01*
X161244957Y-129311340D01*
X161147275Y-129330770D01*
X161049595Y-129350200D01*
X160850405Y-129350200D01*
X160752725Y-129330770D01*
X160655043Y-129311340D01*
X160593702Y-129285931D01*
X160471017Y-129235114D01*
X160305397Y-129124451D01*
X160164549Y-128983603D01*
X160053886Y-128817983D01*
X159977660Y-128633956D01*
X159974249Y-128616809D01*
X159971432Y-128607523D01*
X159966858Y-128598965D01*
X159960702Y-128591464D01*
X159953201Y-128585308D01*
X159944643Y-128580734D01*
X159935357Y-128577917D01*
X159925700Y-128576966D01*
X159916043Y-128577917D01*
X159906757Y-128580734D01*
X159898199Y-128585308D01*
X159890698Y-128591464D01*
X159884542Y-128598965D01*
X159879968Y-128607523D01*
X159877151Y-128616809D01*
X159876200Y-128626466D01*
X159876200Y-129365200D01*
X157823800Y-129365200D01*
X157823800Y-127312800D01*
X159876200Y-127312800D01*
X159876200Y-128051534D01*
X159876200Y-128051534D01*
G37*
G36*
X161726200Y-126440200D02*
X159973800Y-126440200D01*
X159973800Y-124887800D01*
X161726200Y-124887800D01*
X161726200Y-126440200D01*
X161726200Y-126440200D01*
G37*
G36*
X155326200Y-126440200D02*
X153573800Y-126440200D01*
X153573800Y-124887800D01*
X155326200Y-124887800D01*
X155326200Y-126440200D01*
X155326200Y-126440200D01*
G37*
G36*
X159226200Y-126415200D02*
X156073800Y-126415200D01*
X156073800Y-124912800D01*
X159226200Y-124912800D01*
X159226200Y-126415200D01*
X159226200Y-126415200D01*
G37*
G36*
X161094230Y-119720916D02*
X161151240Y-119744531D01*
X161265262Y-119791760D01*
X161367879Y-119860327D01*
X161419188Y-119894610D01*
X161550090Y-120025512D01*
X161584373Y-120076821D01*
X161652940Y-120179438D01*
X161723784Y-120350471D01*
X161759900Y-120532038D01*
X161759900Y-120717162D01*
X161723784Y-120898729D01*
X161652940Y-121069762D01*
X161584373Y-121172379D01*
X161550090Y-121223688D01*
X161419188Y-121354590D01*
X161367879Y-121388873D01*
X161265262Y-121457440D01*
X161151240Y-121504669D01*
X161094230Y-121528284D01*
X160912662Y-121564400D01*
X160727538Y-121564400D01*
X160545970Y-121528284D01*
X160488960Y-121504669D01*
X160374938Y-121457440D01*
X160272321Y-121388873D01*
X160221012Y-121354590D01*
X160090110Y-121223688D01*
X160055827Y-121172379D01*
X159987260Y-121069762D01*
X159916416Y-120898729D01*
X159880300Y-120717162D01*
X159880300Y-120532038D01*
X159916416Y-120350471D01*
X159987260Y-120179438D01*
X160055827Y-120076821D01*
X160090110Y-120025512D01*
X160221012Y-119894610D01*
X160272321Y-119860327D01*
X160374938Y-119791760D01*
X160488960Y-119744531D01*
X160545970Y-119720916D01*
X160727538Y-119684800D01*
X160912662Y-119684800D01*
X161094230Y-119720916D01*
X161094230Y-119720916D01*
G37*
G36*
X161094230Y-117180916D02*
X161151240Y-117204531D01*
X161265262Y-117251760D01*
X161367879Y-117320327D01*
X161419188Y-117354610D01*
X161550090Y-117485512D01*
X161584373Y-117536821D01*
X161652940Y-117639438D01*
X161723784Y-117810471D01*
X161759900Y-117992038D01*
X161759900Y-118177162D01*
X161723784Y-118358729D01*
X161652940Y-118529762D01*
X161584373Y-118632379D01*
X161550090Y-118683688D01*
X161419188Y-118814590D01*
X161367879Y-118848873D01*
X161265262Y-118917440D01*
X161151240Y-118964669D01*
X161094230Y-118988284D01*
X160912662Y-119024400D01*
X160727538Y-119024400D01*
X160545970Y-118988284D01*
X160488960Y-118964669D01*
X160374938Y-118917440D01*
X160272321Y-118848873D01*
X160221012Y-118814590D01*
X160090110Y-118683688D01*
X160055827Y-118632379D01*
X159987260Y-118529762D01*
X159916416Y-118358729D01*
X159880300Y-118177162D01*
X159880300Y-117992038D01*
X159916416Y-117810471D01*
X159987260Y-117639438D01*
X160055827Y-117536821D01*
X160090110Y-117485512D01*
X160221012Y-117354610D01*
X160272321Y-117320327D01*
X160374938Y-117251760D01*
X160488960Y-117204531D01*
X160545970Y-117180916D01*
X160727538Y-117144800D01*
X160912662Y-117144800D01*
X161094230Y-117180916D01*
X161094230Y-117180916D01*
G37*
G36*
X161094230Y-114640916D02*
X161151240Y-114664531D01*
X161265262Y-114711760D01*
X161367879Y-114780327D01*
X161419188Y-114814610D01*
X161550090Y-114945512D01*
X161584373Y-114996821D01*
X161652940Y-115099438D01*
X161723784Y-115270471D01*
X161759900Y-115452038D01*
X161759900Y-115637162D01*
X161723784Y-115818729D01*
X161652940Y-115989762D01*
X161584373Y-116092379D01*
X161550090Y-116143688D01*
X161419188Y-116274590D01*
X161367879Y-116308873D01*
X161265262Y-116377440D01*
X161151240Y-116424669D01*
X161094230Y-116448284D01*
X160912662Y-116484400D01*
X160727538Y-116484400D01*
X160545970Y-116448284D01*
X160488960Y-116424669D01*
X160374938Y-116377440D01*
X160272321Y-116308873D01*
X160221012Y-116274590D01*
X160090110Y-116143688D01*
X160055827Y-116092379D01*
X159987260Y-115989762D01*
X159916416Y-115818729D01*
X159880300Y-115637162D01*
X159880300Y-115452038D01*
X159916416Y-115270471D01*
X159987260Y-115099438D01*
X160055827Y-114996821D01*
X160090110Y-114945512D01*
X160221012Y-114814610D01*
X160272321Y-114780327D01*
X160374938Y-114711760D01*
X160488960Y-114664531D01*
X160545970Y-114640916D01*
X160727538Y-114604800D01*
X160912662Y-114604800D01*
X161094230Y-114640916D01*
X161094230Y-114640916D01*
G37*
G36*
X150727300Y-114787700D02*
X141774900Y-114787700D01*
X141774900Y-113035300D01*
X150727300Y-113035300D01*
X150727300Y-114787700D01*
X150727300Y-114787700D01*
G37*
G36*
X161094230Y-112100916D02*
X161151240Y-112124531D01*
X161265262Y-112171760D01*
X161367879Y-112240327D01*
X161419188Y-112274610D01*
X161550090Y-112405512D01*
X161584373Y-112456821D01*
X161652940Y-112559438D01*
X161723784Y-112730471D01*
X161759900Y-112912038D01*
X161759900Y-113097162D01*
X161723784Y-113278729D01*
X161652940Y-113449762D01*
X161584373Y-113552379D01*
X161550090Y-113603688D01*
X161419188Y-113734590D01*
X161367879Y-113768873D01*
X161265262Y-113837440D01*
X161151240Y-113884669D01*
X161094230Y-113908284D01*
X160912662Y-113944400D01*
X160727538Y-113944400D01*
X160545970Y-113908284D01*
X160488960Y-113884669D01*
X160374938Y-113837440D01*
X160272321Y-113768873D01*
X160221012Y-113734590D01*
X160090110Y-113603688D01*
X160055827Y-113552379D01*
X159987260Y-113449762D01*
X159916416Y-113278729D01*
X159880300Y-113097162D01*
X159880300Y-112912038D01*
X159916416Y-112730471D01*
X159987260Y-112559438D01*
X160055827Y-112456821D01*
X160090110Y-112405512D01*
X160221012Y-112274610D01*
X160272321Y-112240327D01*
X160374938Y-112171760D01*
X160488960Y-112124531D01*
X160545970Y-112100916D01*
X160727538Y-112064800D01*
X160912662Y-112064800D01*
X161094230Y-112100916D01*
X161094230Y-112100916D01*
G37*
G36*
X140777300Y-113087600D02*
X139724900Y-113087600D01*
X139724900Y-111135200D01*
X140777300Y-111135200D01*
X140777300Y-113087600D01*
X140777300Y-113087600D01*
G37*
G36*
X152777300Y-113087600D02*
X151724900Y-113087600D01*
X151724900Y-111135200D01*
X152777300Y-111135200D01*
X152777300Y-113087600D01*
X152777300Y-113087600D01*
G37*
G36*
X161094230Y-109560916D02*
X161151240Y-109584531D01*
X161265262Y-109631760D01*
X161367879Y-109700327D01*
X161419188Y-109734610D01*
X161550090Y-109865512D01*
X161584373Y-109916821D01*
X161652940Y-110019438D01*
X161723784Y-110190471D01*
X161759900Y-110372038D01*
X161759900Y-110557162D01*
X161723784Y-110738729D01*
X161652940Y-110909762D01*
X161584373Y-111012379D01*
X161550090Y-111063688D01*
X161419188Y-111194590D01*
X161367879Y-111228873D01*
X161265262Y-111297440D01*
X161151240Y-111344669D01*
X161094230Y-111368284D01*
X160912662Y-111404400D01*
X160727538Y-111404400D01*
X160545970Y-111368284D01*
X160488960Y-111344669D01*
X160374938Y-111297440D01*
X160272321Y-111228873D01*
X160221012Y-111194590D01*
X160090110Y-111063688D01*
X160055827Y-111012379D01*
X159987260Y-110909762D01*
X159916416Y-110738729D01*
X159880300Y-110557162D01*
X159880300Y-110372038D01*
X159916416Y-110190471D01*
X159987260Y-110019438D01*
X160055827Y-109916821D01*
X160090110Y-109865512D01*
X160221012Y-109734610D01*
X160272321Y-109700327D01*
X160374938Y-109631760D01*
X160488960Y-109584531D01*
X160545970Y-109560916D01*
X160727538Y-109524800D01*
X160912662Y-109524800D01*
X161094230Y-109560916D01*
X161094230Y-109560916D01*
G37*
G36*
X150727300Y-111187500D02*
X141774900Y-111187500D01*
X141774900Y-109435100D01*
X150727300Y-109435100D01*
X150727300Y-111187500D01*
X150727300Y-111187500D01*
G37*
G36*
X161094230Y-107020916D02*
X161151240Y-107044531D01*
X161265262Y-107091760D01*
X161367879Y-107160327D01*
X161419188Y-107194610D01*
X161550090Y-107325512D01*
X161584373Y-107376821D01*
X161652940Y-107479438D01*
X161723784Y-107650471D01*
X161759900Y-107832038D01*
X161759900Y-108017162D01*
X161723784Y-108198729D01*
X161652940Y-108369762D01*
X161584373Y-108472379D01*
X161550090Y-108523688D01*
X161419188Y-108654590D01*
X161367879Y-108688873D01*
X161265262Y-108757440D01*
X161151240Y-108804669D01*
X161094230Y-108828284D01*
X160912662Y-108864400D01*
X160727538Y-108864400D01*
X160545970Y-108828284D01*
X160488960Y-108804669D01*
X160374938Y-108757440D01*
X160272321Y-108688873D01*
X160221012Y-108654590D01*
X160090110Y-108523688D01*
X160055827Y-108472379D01*
X159987260Y-108369762D01*
X159916416Y-108198729D01*
X159880300Y-108017162D01*
X159880300Y-107832038D01*
X159916416Y-107650471D01*
X159987260Y-107479438D01*
X160055827Y-107376821D01*
X160090110Y-107325512D01*
X160221012Y-107194610D01*
X160272321Y-107160327D01*
X160374938Y-107091760D01*
X160488960Y-107044531D01*
X160545970Y-107020916D01*
X160727538Y-106984800D01*
X160912662Y-106984800D01*
X161094230Y-107020916D01*
X161094230Y-107020916D01*
G37*
G36*
X157919700Y-102130100D02*
X155867300Y-102130100D01*
X155867300Y-100627700D01*
X157919700Y-100627700D01*
X157919700Y-102130100D01*
X157919700Y-102130100D01*
G37*
G36*
X151949700Y-102130100D02*
X149897300Y-102130100D01*
X149897300Y-100627700D01*
X151949700Y-100627700D01*
X151949700Y-102130100D01*
X151949700Y-102130100D01*
G37*
G36*
X161069700Y-100980100D02*
X159717300Y-100980100D01*
X159717300Y-99827700D01*
X161069700Y-99827700D01*
X161069700Y-100980100D01*
X161069700Y-100980100D01*
G37*
G36*
X161069700Y-97280100D02*
X159717300Y-97280100D01*
X159717300Y-96127700D01*
X161069700Y-96127700D01*
X161069700Y-97280100D01*
X161069700Y-97280100D01*
G37*
G36*
X158259700Y-91180100D02*
X149609200Y-91180100D01*
X149599543Y-91181051D01*
X149590257Y-91183868D01*
X149581699Y-91188442D01*
X149574198Y-91194598D01*
X149568042Y-91202099D01*
X149563468Y-91210657D01*
X149560651Y-91219943D01*
X149559700Y-91229600D01*
X149559700Y-91880100D01*
X148237300Y-91880100D01*
X148237300Y-89927700D01*
X158259700Y-89927700D01*
X158259700Y-91180100D01*
X158259700Y-91180100D01*
G37*
G36*
X161069700Y-91430100D02*
X159367300Y-91430100D01*
X159367300Y-89927700D01*
X161069700Y-89927700D01*
X161069700Y-91430100D01*
X161069700Y-91430100D01*
G37*
G36*
X163268767Y-88428822D02*
X163405258Y-88485359D01*
X163528097Y-88567437D01*
X163632563Y-88671903D01*
X163714641Y-88794742D01*
X163771178Y-88931233D01*
X163800000Y-89076131D01*
X163800000Y-89223869D01*
X163771178Y-89368767D01*
X163714641Y-89505258D01*
X163632563Y-89628097D01*
X163528097Y-89732563D01*
X163405258Y-89814641D01*
X163268767Y-89871178D01*
X163123869Y-89900000D01*
X162976131Y-89900000D01*
X162831233Y-89871178D01*
X162694742Y-89814641D01*
X162571903Y-89732563D01*
X162467437Y-89628097D01*
X162385359Y-89505258D01*
X162328822Y-89368767D01*
X162300000Y-89223869D01*
X162300000Y-89076131D01*
X162328822Y-88931233D01*
X162385359Y-88794742D01*
X162467437Y-88671903D01*
X162571903Y-88567437D01*
X162694742Y-88485359D01*
X162831233Y-88428822D01*
X162976131Y-88400000D01*
X163123869Y-88400000D01*
X163268767Y-88428822D01*
X163268767Y-88428822D01*
G37*
G36*
X129668767Y-88428822D02*
X129805258Y-88485359D01*
X129928097Y-88567437D01*
X130032563Y-88671903D01*
X130114641Y-88794742D01*
X130171178Y-88931233D01*
X130200000Y-89076131D01*
X130200000Y-89223869D01*
X130171178Y-89368767D01*
X130114641Y-89505258D01*
X130032563Y-89628097D01*
X129928097Y-89732563D01*
X129805258Y-89814641D01*
X129668767Y-89871178D01*
X129523869Y-89900000D01*
X129376131Y-89900000D01*
X129231233Y-89871178D01*
X129094742Y-89814641D01*
X128971903Y-89732563D01*
X128867437Y-89628097D01*
X128785359Y-89505258D01*
X128728822Y-89368767D01*
X128700000Y-89223869D01*
X128700000Y-89076131D01*
X128728822Y-88931233D01*
X128785359Y-88794742D01*
X128867437Y-88671903D01*
X128971903Y-88567437D01*
X129094742Y-88485359D01*
X129231233Y-88428822D01*
X129376131Y-88400000D01*
X129523869Y-88400000D01*
X129668767Y-88428822D01*
X129668767Y-88428822D01*
G37*
M02*
