%TF.GenerationSoftware,KiCad,Pcbnew,(5.1.4)-1*%
%TF.CreationDate,2019-12-19T22:46:11-07:00*%
%TF.ProjectId,base,62617365-2e6b-4696-9361-645f70636258,rev?*%
%TF.SameCoordinates,Original*%
%TF.FileFunction,Legend,Top*%
%TF.FilePolarity,Positive*%
%FSLAX46Y46*%
G04 Gerber Fmt 4.6, Leading zero omitted, Abs format (unit mm)*
G04 Created by KiCad (PCBNEW (5.1.4)-1) date 2019-12-19 22:46:11*
%MOMM*%
%LPD*%
G04 APERTURE LIST*
%ADD10C,0.150000*%
%ADD11C,0.162560*%
%ADD12C,0.127000*%
%ADD13C,0.203200*%
%ADD14C,0.050800*%
%ADD15C,0.100000*%
%ADD16C,0.200000*%
%ADD17C,0.558800*%
%ADD18C,0.101600*%
%ADD19C,0.152400*%
G04 APERTURE END LIST*
D10*
X131000500Y-114280540D02*
X131000500Y-118280540D01*
X162651441Y-102162541D02*
X162651441Y-95050541D01*
X161502382Y-105714800D02*
X162651441Y-105714800D01*
X161502382Y-102162541D02*
X162651441Y-102162541D01*
D11*
X140895203Y-127969070D02*
X141152589Y-128741230D01*
X141409976Y-127969070D01*
X142108597Y-128667691D02*
X142071827Y-128704460D01*
X141961519Y-128741230D01*
X141887980Y-128741230D01*
X141777671Y-128704460D01*
X141704132Y-128630921D01*
X141667363Y-128557382D01*
X141630593Y-128410304D01*
X141630593Y-128299996D01*
X141667363Y-128152918D01*
X141704132Y-128079379D01*
X141777671Y-128005840D01*
X141887980Y-127969070D01*
X141961519Y-127969070D01*
X142071827Y-128005840D01*
X142108597Y-128042609D01*
X142880757Y-128667691D02*
X142843987Y-128704460D01*
X142733679Y-128741230D01*
X142660140Y-128741230D01*
X142549831Y-128704460D01*
X142476292Y-128630921D01*
X142439523Y-128557382D01*
X142402753Y-128410304D01*
X142402753Y-128299996D01*
X142439523Y-128152918D01*
X142476292Y-128079379D01*
X142549831Y-128005840D01*
X142660140Y-127969070D01*
X142733679Y-127969070D01*
X142843987Y-128005840D01*
X142880757Y-128042609D01*
X159095560Y-113767857D02*
X159132330Y-113657549D01*
X159132330Y-113473701D01*
X159095560Y-113400162D01*
X159058791Y-113363393D01*
X158985252Y-113326623D01*
X158911713Y-113326623D01*
X158838174Y-113363393D01*
X158801404Y-113400162D01*
X158764635Y-113473701D01*
X158727865Y-113620779D01*
X158691096Y-113694318D01*
X158654326Y-113731088D01*
X158580787Y-113767857D01*
X158507248Y-113767857D01*
X158433709Y-113731088D01*
X158396940Y-113694318D01*
X158360170Y-113620779D01*
X158360170Y-113436932D01*
X158396940Y-113326623D01*
X158360170Y-113069236D02*
X159132330Y-112885389D01*
X158580787Y-112738311D01*
X159132330Y-112591233D01*
X158360170Y-112407385D01*
X159132330Y-112113229D02*
X158360170Y-112113229D01*
X158360170Y-111929381D01*
X158396940Y-111819073D01*
X158470479Y-111745534D01*
X158544018Y-111708764D01*
X158691096Y-111671995D01*
X158801404Y-111671995D01*
X158948482Y-111708764D01*
X159022021Y-111745534D01*
X159095560Y-111819073D01*
X159132330Y-111929381D01*
X159132330Y-112113229D01*
X159095560Y-111227857D02*
X159132330Y-111117549D01*
X159132330Y-110933701D01*
X159095560Y-110860162D01*
X159058791Y-110823393D01*
X158985252Y-110786623D01*
X158911713Y-110786623D01*
X158838174Y-110823393D01*
X158801404Y-110860162D01*
X158764635Y-110933701D01*
X158727865Y-111080779D01*
X158691096Y-111154318D01*
X158654326Y-111191088D01*
X158580787Y-111227857D01*
X158507248Y-111227857D01*
X158433709Y-111191088D01*
X158396940Y-111154318D01*
X158360170Y-111080779D01*
X158360170Y-110896932D01*
X158396940Y-110786623D01*
X158360170Y-110529236D02*
X159132330Y-110345389D01*
X158580787Y-110198311D01*
X159132330Y-110051233D01*
X158360170Y-109867385D01*
X159058791Y-109131995D02*
X159095560Y-109168764D01*
X159132330Y-109279073D01*
X159132330Y-109352612D01*
X159095560Y-109462920D01*
X159022021Y-109536459D01*
X158948482Y-109573229D01*
X158801404Y-109609998D01*
X158691096Y-109609998D01*
X158544018Y-109573229D01*
X158470479Y-109536459D01*
X158396940Y-109462920D01*
X158360170Y-109352612D01*
X158360170Y-109279073D01*
X158396940Y-109168764D01*
X158433709Y-109131995D01*
X149066745Y-128868230D02*
X148809359Y-128500535D01*
X148625511Y-128868230D02*
X148625511Y-128096070D01*
X148919667Y-128096070D01*
X148993206Y-128132840D01*
X149029976Y-128169609D01*
X149066745Y-128243148D01*
X149066745Y-128353457D01*
X149029976Y-128426996D01*
X148993206Y-128463765D01*
X148919667Y-128500535D01*
X148625511Y-128500535D01*
X149360902Y-128647613D02*
X149728597Y-128647613D01*
X149287363Y-128868230D02*
X149544749Y-128096070D01*
X149802136Y-128868230D01*
X149985984Y-128096070D02*
X150169831Y-128868230D01*
X150316909Y-128316687D01*
X150463987Y-128868230D01*
X150647835Y-128096070D01*
X159132330Y-115702854D02*
X158764635Y-115960240D01*
X159132330Y-116144088D02*
X158360170Y-116144088D01*
X158360170Y-115849932D01*
X158396940Y-115776393D01*
X158433709Y-115739623D01*
X158507248Y-115702854D01*
X158617557Y-115702854D01*
X158691096Y-115739623D01*
X158727865Y-115776393D01*
X158764635Y-115849932D01*
X158764635Y-116144088D01*
X159095560Y-115408697D02*
X159132330Y-115298389D01*
X159132330Y-115114541D01*
X159095560Y-115041002D01*
X159058791Y-115004233D01*
X158985252Y-114967463D01*
X158911713Y-114967463D01*
X158838174Y-115004233D01*
X158801404Y-115041002D01*
X158764635Y-115114541D01*
X158727865Y-115261619D01*
X158691096Y-115335158D01*
X158654326Y-115371928D01*
X158580787Y-115408697D01*
X158507248Y-115408697D01*
X158433709Y-115371928D01*
X158396940Y-115335158D01*
X158360170Y-115261619D01*
X158360170Y-115077772D01*
X158396940Y-114967463D01*
X158360170Y-114746846D02*
X158360170Y-114305612D01*
X159132330Y-114526229D02*
X158360170Y-114526229D01*
X158396940Y-120946623D02*
X158360170Y-121020162D01*
X158360170Y-121130471D01*
X158396940Y-121240779D01*
X158470479Y-121314318D01*
X158544018Y-121351088D01*
X158691096Y-121387857D01*
X158801404Y-121387857D01*
X158948482Y-121351088D01*
X159022021Y-121314318D01*
X159095560Y-121240779D01*
X159132330Y-121130471D01*
X159132330Y-121056932D01*
X159095560Y-120946623D01*
X159058791Y-120909854D01*
X158801404Y-120909854D01*
X158801404Y-121056932D01*
X159132330Y-120578928D02*
X158360170Y-120578928D01*
X159132330Y-120137694D01*
X158360170Y-120137694D01*
X159132330Y-119769998D02*
X158360170Y-119769998D01*
X158360170Y-119586151D01*
X158396940Y-119475842D01*
X158470479Y-119402303D01*
X158544018Y-119365534D01*
X158691096Y-119328764D01*
X158801404Y-119328764D01*
X158948482Y-119365534D01*
X159022021Y-119402303D01*
X159095560Y-119475842D01*
X159132330Y-119586151D01*
X159132330Y-119769998D01*
X158360170Y-119011627D02*
X158360170Y-118533623D01*
X158654326Y-118791010D01*
X158654326Y-118680701D01*
X158691096Y-118607162D01*
X158727865Y-118570393D01*
X158801404Y-118533623D01*
X158985252Y-118533623D01*
X159058791Y-118570393D01*
X159095560Y-118607162D01*
X159132330Y-118680701D01*
X159132330Y-118901318D01*
X159095560Y-118974857D01*
X159058791Y-119011627D01*
X159058791Y-118202697D02*
X159095560Y-118165928D01*
X159132330Y-118202697D01*
X159095560Y-118239467D01*
X159058791Y-118202697D01*
X159132330Y-118202697D01*
X158360170Y-117908541D02*
X158360170Y-117430537D01*
X158654326Y-117687924D01*
X158654326Y-117577616D01*
X158691096Y-117504076D01*
X158727865Y-117467307D01*
X158801404Y-117430537D01*
X158985252Y-117430537D01*
X159058791Y-117467307D01*
X159095560Y-117504076D01*
X159132330Y-117577616D01*
X159132330Y-117798233D01*
X159095560Y-117871772D01*
X159058791Y-117908541D01*
X158617557Y-117173151D02*
X159132330Y-116989303D01*
X158617557Y-116805456D01*
X159095560Y-108687857D02*
X159132330Y-108577549D01*
X159132330Y-108393701D01*
X159095560Y-108320162D01*
X159058791Y-108283393D01*
X158985252Y-108246623D01*
X158911713Y-108246623D01*
X158838174Y-108283393D01*
X158801404Y-108320162D01*
X158764635Y-108393701D01*
X158727865Y-108540779D01*
X158691096Y-108614318D01*
X158654326Y-108651088D01*
X158580787Y-108687857D01*
X158507248Y-108687857D01*
X158433709Y-108651088D01*
X158396940Y-108614318D01*
X158360170Y-108540779D01*
X158360170Y-108356932D01*
X158396940Y-108246623D01*
X158360170Y-107989236D02*
X159132330Y-107805389D01*
X158580787Y-107658311D01*
X159132330Y-107511233D01*
X158360170Y-107327385D01*
X158360170Y-106886151D02*
X158360170Y-106739073D01*
X158396940Y-106665534D01*
X158470479Y-106591995D01*
X158617557Y-106555225D01*
X158874943Y-106555225D01*
X159022021Y-106591995D01*
X159095560Y-106665534D01*
X159132330Y-106739073D01*
X159132330Y-106886151D01*
X159095560Y-106959690D01*
X159022021Y-107033229D01*
X158874943Y-107069998D01*
X158617557Y-107069998D01*
X158470479Y-107033229D01*
X158396940Y-106959690D01*
X158360170Y-106886151D01*
D10*
X129851441Y-123050540D02*
G75*
G02X129351441Y-123550540I-500000J0D01*
G01*
X129351441Y-94550541D02*
G75*
G02X129851441Y-95050541I0J-500000D01*
G01*
X162651441Y-95050541D02*
G75*
G02X163151441Y-94550541I500000J0D01*
G01*
X163151441Y-123550540D02*
G75*
G02X162651441Y-123050540I0J500000D01*
G01*
X128351441Y-88050540D02*
X128351441Y-94550540D01*
X163151441Y-94550541D02*
X164151441Y-94550540D01*
X162651441Y-123050540D02*
X162651441Y-105714800D01*
X164151441Y-123550540D02*
X163151441Y-123550540D01*
X164151441Y-94550540D02*
X164151440Y-88050541D01*
X129851441Y-95050541D02*
X129851441Y-114280540D01*
X128351441Y-94550540D02*
X129351441Y-94550541D01*
X128351441Y-130050540D02*
X162651440Y-130050540D01*
X129851441Y-114280540D02*
X131000500Y-114280540D01*
X161502382Y-102162541D02*
X161502382Y-105714800D01*
X162651440Y-88050540D02*
X128351441Y-88050540D01*
X131000500Y-118280540D02*
X129851441Y-118280540D01*
X128351441Y-123550540D02*
X128351441Y-130050540D01*
X129351441Y-123550540D02*
X128351441Y-123550540D01*
X129851441Y-118280540D02*
X129851441Y-123050540D01*
X162651440Y-130050540D02*
X164151440Y-130050540D01*
X164151440Y-88050541D02*
X162651440Y-88050540D01*
X164151440Y-130050540D02*
X164151441Y-123550540D01*
D12*
X148066000Y-93681000D02*
X146034000Y-93681000D01*
D13*
X148250000Y-95400000D02*
X148250000Y-94300000D01*
X147850000Y-95800000D02*
X148250000Y-95400000D01*
X146250000Y-95800000D02*
X147850000Y-95800000D01*
X145850000Y-95400000D02*
X146250000Y-95800000D01*
X145850000Y-94300000D02*
X145850000Y-95400000D01*
X148250000Y-90800000D02*
X148250000Y-92300000D01*
X145850000Y-90800000D02*
X148250000Y-90800000D01*
X145850000Y-92300000D02*
X145850000Y-90800000D01*
D14*
X147950000Y-98600000D02*
X147950000Y-100000000D01*
X144950000Y-98600000D02*
X147950000Y-98600000D01*
X144950000Y-100000000D02*
X144950000Y-98600000D01*
X147950000Y-100000000D02*
X144950000Y-100000000D01*
D15*
G36*
X146678600Y-98919000D02*
G01*
X146221400Y-98919000D01*
X146221400Y-99681000D01*
X146678600Y-99681000D01*
X146678600Y-98919000D01*
G37*
D14*
X144950000Y-101500000D02*
X144950000Y-100100000D01*
X147950000Y-101500000D02*
X144950000Y-101500000D01*
X147950000Y-100100000D02*
X147950000Y-101500000D01*
X144950000Y-100100000D02*
X147950000Y-100100000D01*
D15*
G36*
X146221400Y-101181000D02*
G01*
X146678600Y-101181000D01*
X146678600Y-100419000D01*
X146221400Y-100419000D01*
X146221400Y-101181000D01*
G37*
D16*
X135509000Y-113025500D02*
X135509000Y-111475500D01*
X135509000Y-104525500D02*
X135509000Y-106075500D01*
X135509000Y-113025500D02*
X132659000Y-113025500D01*
X135509000Y-104525500D02*
X132659000Y-104525500D01*
X130629000Y-104525500D02*
X130629000Y-113025500D01*
D14*
X143459541Y-129102380D02*
X143459541Y-127702380D01*
X146459541Y-129102380D02*
X143459541Y-129102380D01*
X146459541Y-127702380D02*
X146459541Y-129102380D01*
X143459541Y-127702380D02*
X146459541Y-127702380D01*
D15*
G36*
X144730941Y-128783380D02*
G01*
X145188141Y-128783380D01*
X145188141Y-128021380D01*
X144730941Y-128021380D01*
X144730941Y-128783380D01*
G37*
D14*
X145158680Y-129101980D02*
X145158680Y-127701980D01*
X148158680Y-129101980D02*
X145158680Y-129101980D01*
X148158680Y-127701980D02*
X148158680Y-129101980D01*
X145158680Y-127701980D02*
X148158680Y-127701980D01*
D15*
G36*
X146430080Y-128782980D02*
G01*
X146887280Y-128782980D01*
X146887280Y-128020980D01*
X146430080Y-128020980D01*
X146430080Y-128782980D01*
G37*
D13*
X135910500Y-122231600D02*
X135910500Y-122768400D01*
X134670700Y-121077600D02*
X135529500Y-121077600D01*
X135529500Y-123922400D02*
X134670700Y-123922400D01*
X139227000Y-95204000D02*
X139827000Y-95804000D01*
X140427000Y-95204000D02*
X139227000Y-95204000D01*
X139827000Y-95804000D02*
X140427000Y-95204000D01*
X139827000Y-95804000D02*
X139127000Y-95804000D01*
X140527000Y-95804000D02*
X139827000Y-95804000D01*
X139027000Y-97104000D02*
X139027000Y-96504000D01*
X140627000Y-97104000D02*
X139027000Y-97104000D01*
X140627000Y-96504000D02*
X140627000Y-97104000D01*
X139027000Y-93904000D02*
X139027000Y-94504000D01*
X140627000Y-93904000D02*
X139027000Y-93904000D01*
X140627000Y-94504000D02*
X140627000Y-93904000D01*
X143411500Y-95804000D02*
X142811500Y-95204000D01*
X142211500Y-95804000D02*
X143411500Y-95804000D01*
X142811500Y-95204000D02*
X142211500Y-95804000D01*
X142811500Y-95204000D02*
X143511500Y-95204000D01*
X142111500Y-95204000D02*
X142811500Y-95204000D01*
X143611500Y-93904000D02*
X143611500Y-94504000D01*
X142011500Y-93904000D02*
X143611500Y-93904000D01*
X142011500Y-94504000D02*
X142011500Y-93904000D01*
X143611500Y-97104000D02*
X143611500Y-96504000D01*
X142011500Y-97104000D02*
X143611500Y-97104000D01*
X142011500Y-96504000D02*
X142011500Y-97104000D01*
D14*
X139750000Y-120750000D02*
X136950000Y-120750000D01*
X139750000Y-119350000D02*
X139750000Y-120750000D01*
X136950000Y-119350000D02*
X139750000Y-119350000D01*
X136950000Y-120750000D02*
X136950000Y-119350000D01*
D12*
X154281000Y-92534000D02*
X154281000Y-94566000D01*
D13*
X156000000Y-92350000D02*
X154900000Y-92350000D01*
X156400000Y-92750000D02*
X156000000Y-92350000D01*
X156400000Y-94350000D02*
X156400000Y-92750000D01*
X156000000Y-94750000D02*
X156400000Y-94350000D01*
X154900000Y-94750000D02*
X156000000Y-94750000D01*
X151400000Y-92350000D02*
X152900000Y-92350000D01*
X151400000Y-94750000D02*
X151400000Y-92350000D01*
X152900000Y-94750000D02*
X151400000Y-94750000D01*
D14*
X139050000Y-123900000D02*
X137650000Y-123900000D01*
X139050000Y-120900000D02*
X139050000Y-123900000D01*
X137650000Y-120900000D02*
X139050000Y-120900000D01*
X137650000Y-123900000D02*
X137650000Y-120900000D01*
D17*
X138319500Y-122400000D02*
X138380500Y-122400000D01*
D14*
X136250000Y-120800000D02*
X133450000Y-120800000D01*
X136250000Y-119400000D02*
X136250000Y-120800000D01*
X133450000Y-119400000D02*
X136250000Y-119400000D01*
X133450000Y-120800000D02*
X133450000Y-119400000D01*
D13*
X143101100Y-104945600D02*
G75*
G03X143101100Y-104945600I-500000J0D01*
G01*
X142101100Y-117745600D02*
X141601100Y-117245600D01*
X154901100Y-117745600D02*
X155401100Y-117245600D01*
X154901100Y-103945600D02*
X155401100Y-104445600D01*
X141601100Y-104445600D02*
X141601100Y-117245600D01*
X142101100Y-103945600D02*
X141601100Y-104445600D01*
X154901100Y-103945600D02*
X142101100Y-103945600D01*
X155401100Y-117245600D02*
X155401100Y-104445600D01*
X142101100Y-117745600D02*
X154901100Y-117745600D01*
D14*
X159450000Y-98050000D02*
X160850000Y-98050000D01*
X159450000Y-101050000D02*
X159450000Y-98050000D01*
X160850000Y-101050000D02*
X159450000Y-101050000D01*
X160850000Y-98050000D02*
X160850000Y-101050000D01*
D17*
X160180500Y-99550000D02*
X160119500Y-99550000D01*
D14*
X131189000Y-93281000D02*
X132589000Y-93281000D01*
X131189000Y-96281000D02*
X131189000Y-93281000D01*
X132589000Y-96281000D02*
X131189000Y-96281000D01*
X132589000Y-93281000D02*
X132589000Y-96281000D01*
D15*
G36*
X131508000Y-94552400D02*
G01*
X131508000Y-95009600D01*
X132270000Y-95009600D01*
X132270000Y-94552400D01*
X131508000Y-94552400D01*
G37*
D18*
X137273600Y-89610600D02*
X138773600Y-89610600D01*
X138773600Y-92710600D02*
X137273600Y-92710600D01*
D12*
X139738100Y-102336600D02*
X137706100Y-102336600D01*
D13*
X139922100Y-104055600D02*
X139922100Y-102955600D01*
X139522100Y-104455600D02*
X139922100Y-104055600D01*
X137922100Y-104455600D02*
X139522100Y-104455600D01*
X137522100Y-104055600D02*
X137922100Y-104455600D01*
X137522100Y-102955600D02*
X137522100Y-104055600D01*
X139922100Y-99455600D02*
X139922100Y-100955600D01*
X137522100Y-99455600D02*
X139922100Y-99455600D01*
X137522100Y-100955600D02*
X137522100Y-99455600D01*
D14*
X136752100Y-94740600D02*
X138152100Y-94740600D01*
X136752100Y-97740600D02*
X136752100Y-94740600D01*
X138152100Y-97740600D02*
X136752100Y-97740600D01*
X138152100Y-94740600D02*
X138152100Y-97740600D01*
D15*
G36*
X137071100Y-96012000D02*
G01*
X137071100Y-96469200D01*
X137833100Y-96469200D01*
X137833100Y-96012000D01*
X137071100Y-96012000D01*
G37*
D18*
X157419100Y-96559600D02*
X157419100Y-95059600D01*
X160519100Y-95059600D02*
X160519100Y-96559600D01*
X153619100Y-96282600D02*
X153619100Y-97782600D01*
X150519100Y-97782600D02*
X150519100Y-96282600D01*
D13*
X136439100Y-95540600D02*
X136439100Y-96340600D01*
X135839100Y-95540600D02*
X136439100Y-95540600D01*
X133639100Y-95540600D02*
X133639100Y-96340600D01*
X134239100Y-95540600D02*
X133639100Y-95540600D01*
D14*
X156948100Y-103709600D02*
X155548100Y-103709600D01*
X156948100Y-100709600D02*
X156948100Y-103709600D01*
X155548100Y-100709600D02*
X156948100Y-100709600D01*
X155548100Y-103709600D02*
X155548100Y-100709600D01*
D17*
X156217600Y-102209600D02*
X156278600Y-102209600D01*
D12*
X135169100Y-88760600D02*
X134569100Y-88760600D01*
X135169100Y-89360600D02*
X135169100Y-88760600D01*
D13*
X135369100Y-92460600D02*
X135069100Y-92460600D01*
X135369100Y-89860600D02*
X135369100Y-92460600D01*
X135069100Y-89860600D02*
X135369100Y-89860600D01*
X132169100Y-92460600D02*
X132469100Y-92460600D01*
X132169100Y-89860600D02*
X132169100Y-92460600D01*
X132469100Y-89860600D02*
X132169100Y-89860600D01*
D14*
X148550000Y-95600000D02*
X149950000Y-95600000D01*
X148550000Y-98600000D02*
X148550000Y-95600000D01*
X149950000Y-98600000D02*
X148550000Y-98600000D01*
X149950000Y-95600000D02*
X149950000Y-98600000D01*
D17*
X149280500Y-97100000D02*
X149219500Y-97100000D01*
D14*
X141581100Y-103709600D02*
X140181100Y-103709600D01*
X141581100Y-100709600D02*
X141581100Y-103709600D01*
X140181100Y-100709600D02*
X141581100Y-100709600D01*
X140181100Y-103709600D02*
X140181100Y-100709600D01*
D17*
X140850600Y-102209600D02*
X140911600Y-102209600D01*
D14*
X136549000Y-114301500D02*
X136549000Y-112901500D01*
X139549000Y-114301500D02*
X136549000Y-114301500D01*
X139549000Y-112901500D02*
X139549000Y-114301500D01*
X136549000Y-112901500D02*
X139549000Y-112901500D01*
D17*
X138049000Y-113571000D02*
X138049000Y-113632000D01*
D14*
X136777500Y-106196000D02*
X138177500Y-106196000D01*
X136777500Y-109196000D02*
X136777500Y-106196000D01*
X138177500Y-109196000D02*
X136777500Y-109196000D01*
X138177500Y-106196000D02*
X138177500Y-109196000D01*
D17*
X137508000Y-107696000D02*
X137447000Y-107696000D01*
D14*
X138276100Y-115314600D02*
X139676100Y-115314600D01*
X138276100Y-118314600D02*
X138276100Y-115314600D01*
X139676100Y-118314600D02*
X138276100Y-118314600D01*
X139676100Y-115314600D02*
X139676100Y-118314600D01*
D17*
X139006600Y-116814600D02*
X138945600Y-116814600D01*
D14*
X136625100Y-115314600D02*
X138025100Y-115314600D01*
X136625100Y-118314600D02*
X136625100Y-115314600D01*
X138025100Y-118314600D02*
X136625100Y-118314600D01*
X138025100Y-115314600D02*
X138025100Y-118314600D01*
D17*
X137355600Y-116814600D02*
X137294600Y-116814600D01*
D14*
X155548100Y-117981600D02*
X156948100Y-117981600D01*
X155548100Y-120981600D02*
X155548100Y-117981600D01*
X156948100Y-120981600D02*
X155548100Y-120981600D01*
X156948100Y-117981600D02*
X156948100Y-120981600D01*
D17*
X156278600Y-119481600D02*
X156217600Y-119481600D01*
D14*
X139638000Y-109196000D02*
X138238000Y-109196000D01*
X139638000Y-106196000D02*
X139638000Y-109196000D01*
X138238000Y-106196000D02*
X139638000Y-106196000D01*
X138238000Y-109196000D02*
X138238000Y-106196000D01*
D17*
X138907500Y-107696000D02*
X138968500Y-107696000D01*
D14*
X134974100Y-115314600D02*
X136374100Y-115314600D01*
X134974100Y-118314600D02*
X134974100Y-115314600D01*
X136374100Y-118314600D02*
X134974100Y-118314600D01*
X136374100Y-115314600D02*
X136374100Y-118314600D01*
D12*
X136826000Y-109348000D02*
G75*
G03X136826000Y-109348000I-100000J0D01*
G01*
D13*
X138495000Y-109360000D02*
X137895000Y-109360000D01*
X136695000Y-111560000D02*
X136695000Y-110360000D01*
X138445000Y-112610000D02*
X137845000Y-112610000D01*
X139595000Y-110360000D02*
X139595000Y-111560000D01*
D14*
X159297600Y-106300400D02*
X157897600Y-106300400D01*
X159297600Y-103300400D02*
X159297600Y-106300400D01*
X157897600Y-103300400D02*
X159297600Y-103300400D01*
X157897600Y-106300400D02*
X157897600Y-103300400D01*
D17*
X158567100Y-104800400D02*
X158628100Y-104800400D01*
D14*
X152160100Y-120051600D02*
X152160100Y-121451600D01*
X149160100Y-120051600D02*
X152160100Y-120051600D01*
X149160100Y-121451600D02*
X149160100Y-120051600D01*
X152160100Y-121451600D02*
X149160100Y-121451600D01*
D17*
X150660100Y-120782100D02*
X150660100Y-120721100D01*
D14*
X155335100Y-120051600D02*
X155335100Y-121451600D01*
X152335100Y-120051600D02*
X155335100Y-120051600D01*
X152335100Y-121451600D02*
X152335100Y-120051600D01*
X155335100Y-121451600D02*
X152335100Y-121451600D01*
X147547100Y-123167600D02*
X147547100Y-120367600D01*
X148947100Y-123167600D02*
X147547100Y-123167600D01*
X148947100Y-120367600D02*
X148947100Y-123167600D01*
X147547100Y-120367600D02*
X148947100Y-120367600D01*
X142470100Y-123542600D02*
X142470100Y-126342600D01*
X141070100Y-123542600D02*
X142470100Y-123542600D01*
X141070100Y-126342600D02*
X141070100Y-123542600D01*
X142470100Y-126342600D02*
X141070100Y-126342600D01*
D12*
X145434100Y-126958600D02*
X146234100Y-126958600D01*
X145434100Y-124958600D02*
X146234100Y-124958600D01*
D13*
X152314100Y-122464600D02*
X152314100Y-123264600D01*
X151714100Y-122464600D02*
X152314100Y-122464600D01*
X149514100Y-122464600D02*
X149514100Y-123264600D01*
X150114100Y-122464600D02*
X149514100Y-122464600D01*
D14*
X147547100Y-123950600D02*
X148947100Y-123950600D01*
X147547100Y-126950600D02*
X147547100Y-123950600D01*
X148947100Y-126950600D02*
X147547100Y-126950600D01*
X148947100Y-123950600D02*
X148947100Y-126950600D01*
D15*
G36*
X147866100Y-125222000D02*
G01*
X147866100Y-125679200D01*
X148628100Y-125679200D01*
X148628100Y-125222000D01*
X147866100Y-125222000D01*
G37*
D13*
X151414100Y-126862600D02*
X151414100Y-125562600D01*
X151414100Y-125562600D02*
X150014100Y-125562600D01*
X151814100Y-125562600D02*
X151414100Y-125562600D01*
X151414100Y-126862600D02*
X150014100Y-126862600D01*
X151814100Y-126862600D02*
X151414100Y-126862600D01*
D14*
X142721100Y-123315600D02*
X144121100Y-123315600D01*
X142721100Y-126315600D02*
X142721100Y-123315600D01*
X144121100Y-126315600D02*
X142721100Y-126315600D01*
X144121100Y-123315600D02*
X144121100Y-126315600D01*
D15*
G36*
X143040100Y-124587000D02*
G01*
X143040100Y-125044200D01*
X143802100Y-125044200D01*
X143802100Y-124587000D01*
X143040100Y-124587000D01*
G37*
D13*
X146102500Y-123467000D02*
X145565700Y-123467000D01*
X147256500Y-122227200D02*
X147256500Y-123086000D01*
X144411700Y-123086000D02*
X144411700Y-122227200D01*
D14*
X142721100Y-120140600D02*
X144121100Y-120140600D01*
X142721100Y-123140600D02*
X142721100Y-120140600D01*
X144121100Y-123140600D02*
X142721100Y-123140600D01*
X144121100Y-120140600D02*
X144121100Y-123140600D01*
D15*
G36*
X143040100Y-121412000D02*
G01*
X143040100Y-121869200D01*
X143802100Y-121869200D01*
X143802100Y-121412000D01*
X143040100Y-121412000D01*
G37*
D19*
X159550100Y-121259600D02*
X159550100Y-119989600D01*
X160185100Y-119354600D02*
X159550100Y-119989600D01*
X162090100Y-119989600D02*
X161455100Y-119354600D01*
X160185100Y-121894600D02*
X159550100Y-121259600D01*
X161455100Y-121894600D02*
X160185100Y-121894600D01*
X162090100Y-121259600D02*
X161455100Y-121894600D01*
X162090100Y-119989600D02*
X162090100Y-121259600D01*
X159550100Y-108559600D02*
X159550100Y-107289600D01*
X160185100Y-106654600D02*
X159550100Y-107289600D01*
X162090100Y-107289600D02*
X161455100Y-106654600D01*
X161455100Y-106654600D02*
X160185100Y-106654600D01*
X159550100Y-109829600D02*
X160185100Y-109194600D01*
X159550100Y-111099600D02*
X159550100Y-109829600D01*
X160185100Y-111734600D02*
X159550100Y-111099600D01*
X161455100Y-111734600D02*
X160185100Y-111734600D01*
X162090100Y-111099600D02*
X161455100Y-111734600D01*
X162090100Y-109829600D02*
X162090100Y-111099600D01*
X161455100Y-109194600D02*
X162090100Y-109829600D01*
X160185100Y-109194600D02*
X159550100Y-108559600D01*
X161455100Y-109194600D02*
X160185100Y-109194600D01*
X162090100Y-108559600D02*
X161455100Y-109194600D01*
X162090100Y-107289600D02*
X162090100Y-108559600D01*
X159550100Y-116179600D02*
X159550100Y-114909600D01*
X160185100Y-114274600D02*
X159550100Y-114909600D01*
X162090100Y-114909600D02*
X161455100Y-114274600D01*
X159550100Y-112369600D02*
X160185100Y-111734600D01*
X159550100Y-113639600D02*
X159550100Y-112369600D01*
X160185100Y-114274600D02*
X159550100Y-113639600D01*
X161455100Y-114274600D02*
X160185100Y-114274600D01*
X162090100Y-113639600D02*
X161455100Y-114274600D01*
X162090100Y-112369600D02*
X162090100Y-113639600D01*
X161455100Y-111734600D02*
X162090100Y-112369600D01*
X159550100Y-117449600D02*
X160185100Y-116814600D01*
X159550100Y-118719600D02*
X159550100Y-117449600D01*
X160185100Y-119354600D02*
X159550100Y-118719600D01*
X161455100Y-119354600D02*
X160185100Y-119354600D01*
X162090100Y-118719600D02*
X161455100Y-119354600D01*
X162090100Y-117449600D02*
X162090100Y-118719600D01*
X161455100Y-116814600D02*
X162090100Y-117449600D01*
X160185100Y-116814600D02*
X159550100Y-116179600D01*
X161455100Y-116814600D02*
X160185100Y-116814600D01*
X162090100Y-116179600D02*
X161455100Y-116814600D01*
X162090100Y-114909600D02*
X162090100Y-116179600D01*
D18*
X149197785Y-93336412D02*
X149228023Y-93366650D01*
X149258261Y-93457364D01*
X149258261Y-93517840D01*
X149228023Y-93608555D01*
X149167547Y-93669031D01*
X149107071Y-93699269D01*
X148986119Y-93729507D01*
X148895404Y-93729507D01*
X148774452Y-93699269D01*
X148713976Y-93669031D01*
X148653500Y-93608555D01*
X148623261Y-93517840D01*
X148623261Y-93457364D01*
X148653500Y-93366650D01*
X148683738Y-93336412D01*
X149258261Y-92731650D02*
X149258261Y-93094507D01*
X149258261Y-92913079D02*
X148623261Y-92913079D01*
X148713976Y-92973555D01*
X148774452Y-93034031D01*
X148804690Y-93094507D01*
X148834928Y-92187364D02*
X149258261Y-92187364D01*
X148593023Y-92338555D02*
X149046595Y-92489745D01*
X149046595Y-92096650D01*
X146337745Y-98331261D02*
X146126079Y-98028880D01*
X145974888Y-98331261D02*
X145974888Y-97696261D01*
X146216793Y-97696261D01*
X146277269Y-97726500D01*
X146307507Y-97756738D01*
X146337745Y-97817214D01*
X146337745Y-97907928D01*
X146307507Y-97968404D01*
X146277269Y-97998642D01*
X146216793Y-98028880D01*
X145974888Y-98028880D01*
X146882031Y-97907928D02*
X146882031Y-98331261D01*
X146730840Y-97666023D02*
X146579650Y-98119595D01*
X146972745Y-98119595D01*
X146312587Y-102331761D02*
X146100920Y-102029380D01*
X145949730Y-102331761D02*
X145949730Y-101696761D01*
X146191635Y-101696761D01*
X146252111Y-101727000D01*
X146282349Y-101757238D01*
X146312587Y-101817714D01*
X146312587Y-101908428D01*
X146282349Y-101968904D01*
X146252111Y-101999142D01*
X146191635Y-102029380D01*
X145949730Y-102029380D01*
X146524254Y-101696761D02*
X146917349Y-101696761D01*
X146705682Y-101938666D01*
X146796397Y-101938666D01*
X146856873Y-101968904D01*
X146887111Y-101999142D01*
X146917349Y-102059619D01*
X146917349Y-102210809D01*
X146887111Y-102271285D01*
X146856873Y-102301523D01*
X146796397Y-102331761D01*
X146614968Y-102331761D01*
X146554492Y-102301523D01*
X146524254Y-102271285D01*
X132477221Y-108615306D02*
X132930793Y-108615306D01*
X133021507Y-108645544D01*
X133081983Y-108706020D01*
X133112221Y-108796735D01*
X133112221Y-108857211D01*
X132477221Y-108010544D02*
X132477221Y-108312925D01*
X132779602Y-108343163D01*
X132749364Y-108312925D01*
X132719126Y-108252449D01*
X132719126Y-108101259D01*
X132749364Y-108040782D01*
X132779602Y-108010544D01*
X132840079Y-107980306D01*
X132991269Y-107980306D01*
X133051745Y-108010544D01*
X133081983Y-108040782D01*
X133112221Y-108101259D01*
X133112221Y-108252449D01*
X133081983Y-108312925D01*
X133051745Y-108343163D01*
X134583230Y-124302761D02*
X134583230Y-124816809D01*
X134613468Y-124877285D01*
X134643706Y-124907523D01*
X134704182Y-124937761D01*
X134825135Y-124937761D01*
X134885611Y-124907523D01*
X134915849Y-124877285D01*
X134946087Y-124816809D01*
X134946087Y-124302761D01*
X135550849Y-124302761D02*
X135248468Y-124302761D01*
X135218230Y-124605142D01*
X135248468Y-124574904D01*
X135308944Y-124544666D01*
X135460135Y-124544666D01*
X135520611Y-124574904D01*
X135550849Y-124605142D01*
X135581087Y-124665619D01*
X135581087Y-124816809D01*
X135550849Y-124877285D01*
X135520611Y-124907523D01*
X135460135Y-124937761D01*
X135308944Y-124937761D01*
X135248468Y-124907523D01*
X135218230Y-124877285D01*
X140812761Y-92364801D02*
X140812761Y-92667182D01*
X140177761Y-92667182D01*
X140480142Y-92153135D02*
X140480142Y-91941468D01*
X140812761Y-91850754D02*
X140812761Y-92153135D01*
X140177761Y-92153135D01*
X140177761Y-91850754D01*
X140812761Y-91578611D02*
X140177761Y-91578611D01*
X140177761Y-91427420D01*
X140208000Y-91336706D01*
X140268476Y-91276230D01*
X140328952Y-91245992D01*
X140449904Y-91215754D01*
X140540619Y-91215754D01*
X140661571Y-91245992D01*
X140722047Y-91276230D01*
X140782523Y-91336706D01*
X140812761Y-91427420D01*
X140812761Y-91578611D01*
X140177761Y-91004087D02*
X140177761Y-90610992D01*
X140419666Y-90822659D01*
X140419666Y-90731944D01*
X140449904Y-90671468D01*
X140480142Y-90641230D01*
X140540619Y-90610992D01*
X140691809Y-90610992D01*
X140752285Y-90641230D01*
X140782523Y-90671468D01*
X140812761Y-90731944D01*
X140812761Y-90913373D01*
X140782523Y-90973849D01*
X140752285Y-91004087D01*
X142654261Y-92317388D02*
X142654261Y-92619769D01*
X142019261Y-92619769D01*
X142321642Y-92105721D02*
X142321642Y-91894055D01*
X142654261Y-91803340D02*
X142654261Y-92105721D01*
X142019261Y-92105721D01*
X142019261Y-91803340D01*
X142654261Y-91531198D02*
X142019261Y-91531198D01*
X142019261Y-91380007D01*
X142049500Y-91289293D01*
X142109976Y-91228817D01*
X142170452Y-91198579D01*
X142291404Y-91168340D01*
X142382119Y-91168340D01*
X142503071Y-91198579D01*
X142563547Y-91228817D01*
X142624023Y-91289293D01*
X142654261Y-91380007D01*
X142654261Y-91531198D01*
X142079738Y-90926436D02*
X142049500Y-90896198D01*
X142019261Y-90835721D01*
X142019261Y-90684531D01*
X142049500Y-90624055D01*
X142079738Y-90593817D01*
X142140214Y-90563579D01*
X142200690Y-90563579D01*
X142291404Y-90593817D01*
X142654261Y-90956674D01*
X142654261Y-90563579D01*
X137858983Y-119098785D02*
X137828745Y-119129023D01*
X137738031Y-119159261D01*
X137677555Y-119159261D01*
X137586840Y-119129023D01*
X137526364Y-119068547D01*
X137496126Y-119008071D01*
X137465888Y-118887119D01*
X137465888Y-118796404D01*
X137496126Y-118675452D01*
X137526364Y-118614976D01*
X137586840Y-118554500D01*
X137677555Y-118524261D01*
X137738031Y-118524261D01*
X137828745Y-118554500D01*
X137858983Y-118584738D01*
X138100888Y-118584738D02*
X138131126Y-118554500D01*
X138191602Y-118524261D01*
X138342793Y-118524261D01*
X138403269Y-118554500D01*
X138433507Y-118584738D01*
X138463745Y-118645214D01*
X138463745Y-118705690D01*
X138433507Y-118796404D01*
X138070650Y-119159261D01*
X138463745Y-119159261D01*
X138705650Y-118584738D02*
X138735888Y-118554500D01*
X138796364Y-118524261D01*
X138947555Y-118524261D01*
X139008031Y-118554500D01*
X139038269Y-118584738D01*
X139068507Y-118645214D01*
X139068507Y-118705690D01*
X139038269Y-118796404D01*
X138675412Y-119159261D01*
X139068507Y-119159261D01*
X153225983Y-91539785D02*
X153195745Y-91570023D01*
X153105031Y-91600261D01*
X153044555Y-91600261D01*
X152953840Y-91570023D01*
X152893364Y-91509547D01*
X152863126Y-91449071D01*
X152832888Y-91328119D01*
X152832888Y-91237404D01*
X152863126Y-91116452D01*
X152893364Y-91055976D01*
X152953840Y-90995500D01*
X153044555Y-90965261D01*
X153105031Y-90965261D01*
X153195745Y-90995500D01*
X153225983Y-91025738D01*
X153467888Y-91025738D02*
X153498126Y-90995500D01*
X153558602Y-90965261D01*
X153709793Y-90965261D01*
X153770269Y-90995500D01*
X153800507Y-91025738D01*
X153830745Y-91086214D01*
X153830745Y-91146690D01*
X153800507Y-91237404D01*
X153437650Y-91600261D01*
X153830745Y-91600261D01*
X154435507Y-91600261D02*
X154072650Y-91600261D01*
X154254079Y-91600261D02*
X154254079Y-90965261D01*
X154193602Y-91055976D01*
X154133126Y-91116452D01*
X154072650Y-91146690D01*
X138311587Y-124750285D02*
X138281349Y-124780523D01*
X138190635Y-124810761D01*
X138130159Y-124810761D01*
X138039444Y-124780523D01*
X137978968Y-124720047D01*
X137948730Y-124659571D01*
X137918492Y-124538619D01*
X137918492Y-124447904D01*
X137948730Y-124326952D01*
X137978968Y-124266476D01*
X138039444Y-124206000D01*
X138130159Y-124175761D01*
X138190635Y-124175761D01*
X138281349Y-124206000D01*
X138311587Y-124236238D01*
X138523254Y-124175761D02*
X138946587Y-124175761D01*
X138674444Y-124810761D01*
X134653745Y-119162285D02*
X134623507Y-119192523D01*
X134532793Y-119222761D01*
X134472317Y-119222761D01*
X134381602Y-119192523D01*
X134321126Y-119132047D01*
X134290888Y-119071571D01*
X134260650Y-118950619D01*
X134260650Y-118859904D01*
X134290888Y-118738952D01*
X134321126Y-118678476D01*
X134381602Y-118618000D01*
X134472317Y-118587761D01*
X134532793Y-118587761D01*
X134623507Y-118618000D01*
X134653745Y-118648238D01*
X134865412Y-118587761D02*
X135258507Y-118587761D01*
X135046840Y-118829666D01*
X135137555Y-118829666D01*
X135198031Y-118859904D01*
X135228269Y-118890142D01*
X135258507Y-118950619D01*
X135258507Y-119101809D01*
X135228269Y-119162285D01*
X135198031Y-119192523D01*
X135137555Y-119222761D01*
X134956126Y-119222761D01*
X134895650Y-119192523D01*
X134865412Y-119162285D01*
X142543330Y-101560361D02*
X142543330Y-102074409D01*
X142573568Y-102134885D01*
X142603806Y-102165123D01*
X142664282Y-102195361D01*
X142785235Y-102195361D01*
X142845711Y-102165123D01*
X142875949Y-102134885D01*
X142906187Y-102074409D01*
X142906187Y-101560361D01*
X143541187Y-102195361D02*
X143178330Y-102195361D01*
X143359759Y-102195361D02*
X143359759Y-101560361D01*
X143299282Y-101651076D01*
X143238806Y-101711552D01*
X143178330Y-101741790D01*
X161580285Y-99724754D02*
X161610523Y-99754992D01*
X161640761Y-99845706D01*
X161640761Y-99906182D01*
X161610523Y-99996897D01*
X161550047Y-100057373D01*
X161489571Y-100087611D01*
X161368619Y-100117849D01*
X161277904Y-100117849D01*
X161156952Y-100087611D01*
X161096476Y-100057373D01*
X161036000Y-99996897D01*
X161005761Y-99906182D01*
X161005761Y-99845706D01*
X161036000Y-99754992D01*
X161066238Y-99724754D01*
X161640761Y-99119992D02*
X161640761Y-99482849D01*
X161640761Y-99301420D02*
X161005761Y-99301420D01*
X161096476Y-99361897D01*
X161156952Y-99422373D01*
X161187190Y-99482849D01*
X130906761Y-94542912D02*
X130604380Y-94754579D01*
X130906761Y-94905769D02*
X130271761Y-94905769D01*
X130271761Y-94663864D01*
X130302000Y-94603388D01*
X130332238Y-94573150D01*
X130392714Y-94542912D01*
X130483428Y-94542912D01*
X130543904Y-94573150D01*
X130574142Y-94603388D01*
X130604380Y-94663864D01*
X130604380Y-94905769D01*
X130332238Y-94301007D02*
X130302000Y-94270769D01*
X130271761Y-94210293D01*
X130271761Y-94059102D01*
X130302000Y-93998626D01*
X130332238Y-93968388D01*
X130392714Y-93938150D01*
X130453190Y-93938150D01*
X130543904Y-93968388D01*
X130906761Y-94331245D01*
X130906761Y-93938150D01*
X137676587Y-89187261D02*
X137464920Y-88884880D01*
X137313730Y-89187261D02*
X137313730Y-88552261D01*
X137555635Y-88552261D01*
X137616111Y-88582500D01*
X137646349Y-88612738D01*
X137676587Y-88673214D01*
X137676587Y-88763928D01*
X137646349Y-88824404D01*
X137616111Y-88854642D01*
X137555635Y-88884880D01*
X137313730Y-88884880D01*
X137948730Y-89187261D02*
X137948730Y-88552261D01*
X138311587Y-89187261D01*
X138311587Y-88552261D01*
X138946587Y-89187261D02*
X138583730Y-89187261D01*
X138765159Y-89187261D02*
X138765159Y-88552261D01*
X138704682Y-88642976D01*
X138644206Y-88703452D01*
X138583730Y-88733690D01*
X139037785Y-98479912D02*
X139068023Y-98510150D01*
X139098261Y-98600864D01*
X139098261Y-98661340D01*
X139068023Y-98752055D01*
X139007547Y-98812531D01*
X138947071Y-98842769D01*
X138826119Y-98873007D01*
X138735404Y-98873007D01*
X138614452Y-98842769D01*
X138553976Y-98812531D01*
X138493500Y-98752055D01*
X138463261Y-98661340D01*
X138463261Y-98600864D01*
X138493500Y-98510150D01*
X138523738Y-98479912D01*
X139098261Y-97875150D02*
X139098261Y-98238007D01*
X139098261Y-98056579D02*
X138463261Y-98056579D01*
X138553976Y-98117055D01*
X138614452Y-98177531D01*
X138644690Y-98238007D01*
X139098261Y-97270388D02*
X139098261Y-97633245D01*
X139098261Y-97451817D02*
X138463261Y-97451817D01*
X138553976Y-97512293D01*
X138614452Y-97572769D01*
X138644690Y-97633245D01*
X137359087Y-94457761D02*
X137147420Y-94155380D01*
X136996230Y-94457761D02*
X136996230Y-93822761D01*
X137238135Y-93822761D01*
X137298611Y-93853000D01*
X137328849Y-93883238D01*
X137359087Y-93943714D01*
X137359087Y-94034428D01*
X137328849Y-94094904D01*
X137298611Y-94125142D01*
X137238135Y-94155380D01*
X136996230Y-94155380D01*
X137963849Y-94457761D02*
X137600992Y-94457761D01*
X137782420Y-94457761D02*
X137782420Y-93822761D01*
X137721944Y-93913476D01*
X137661468Y-93973952D01*
X137600992Y-94004190D01*
X161386761Y-96130412D02*
X161084380Y-96342079D01*
X161386761Y-96493269D02*
X160751761Y-96493269D01*
X160751761Y-96251364D01*
X160782000Y-96190888D01*
X160812238Y-96160650D01*
X160872714Y-96130412D01*
X160963428Y-96130412D01*
X161023904Y-96160650D01*
X161054142Y-96190888D01*
X161084380Y-96251364D01*
X161084380Y-96493269D01*
X161386761Y-95858269D02*
X160751761Y-95858269D01*
X161386761Y-95495412D01*
X160751761Y-95495412D01*
X160751761Y-95253507D02*
X160751761Y-94860412D01*
X160993666Y-95072079D01*
X160993666Y-94981364D01*
X161023904Y-94920888D01*
X161054142Y-94890650D01*
X161114619Y-94860412D01*
X161265809Y-94860412D01*
X161326285Y-94890650D01*
X161356523Y-94920888D01*
X161386761Y-94981364D01*
X161386761Y-95162793D01*
X161356523Y-95223269D01*
X161326285Y-95253507D01*
X154528761Y-97209912D02*
X154226380Y-97421579D01*
X154528761Y-97572769D02*
X153893761Y-97572769D01*
X153893761Y-97330864D01*
X153924000Y-97270388D01*
X153954238Y-97240150D01*
X154014714Y-97209912D01*
X154105428Y-97209912D01*
X154165904Y-97240150D01*
X154196142Y-97270388D01*
X154226380Y-97330864D01*
X154226380Y-97572769D01*
X154528761Y-96937769D02*
X153893761Y-96937769D01*
X154528761Y-96574912D01*
X153893761Y-96574912D01*
X153954238Y-96302769D02*
X153924000Y-96272531D01*
X153893761Y-96212055D01*
X153893761Y-96060864D01*
X153924000Y-96000388D01*
X153954238Y-95970150D01*
X154014714Y-95939912D01*
X154075190Y-95939912D01*
X154165904Y-95970150D01*
X154528761Y-96333007D01*
X154528761Y-95939912D01*
X135070063Y-98582238D02*
X135009587Y-98552000D01*
X134949111Y-98491523D01*
X134858397Y-98400809D01*
X134797920Y-98370571D01*
X134737444Y-98370571D01*
X134767682Y-98521761D02*
X134707206Y-98491523D01*
X134646730Y-98431047D01*
X134616492Y-98310095D01*
X134616492Y-98098428D01*
X134646730Y-97977476D01*
X134707206Y-97917000D01*
X134767682Y-97886761D01*
X134888635Y-97886761D01*
X134949111Y-97917000D01*
X135009587Y-97977476D01*
X135039825Y-98098428D01*
X135039825Y-98310095D01*
X135009587Y-98431047D01*
X134949111Y-98491523D01*
X134888635Y-98521761D01*
X134767682Y-98521761D01*
X135644587Y-98521761D02*
X135281730Y-98521761D01*
X135463159Y-98521761D02*
X135463159Y-97886761D01*
X135402682Y-97977476D01*
X135342206Y-98037952D01*
X135281730Y-98068190D01*
X157770285Y-102416912D02*
X157800523Y-102447150D01*
X157830761Y-102537864D01*
X157830761Y-102598340D01*
X157800523Y-102689055D01*
X157740047Y-102749531D01*
X157679571Y-102779769D01*
X157558619Y-102810007D01*
X157467904Y-102810007D01*
X157346952Y-102779769D01*
X157286476Y-102749531D01*
X157226000Y-102689055D01*
X157195761Y-102598340D01*
X157195761Y-102537864D01*
X157226000Y-102447150D01*
X157256238Y-102416912D01*
X157830761Y-102114531D02*
X157830761Y-101993579D01*
X157800523Y-101933102D01*
X157770285Y-101902864D01*
X157679571Y-101842388D01*
X157558619Y-101812150D01*
X157316714Y-101812150D01*
X157256238Y-101842388D01*
X157226000Y-101872626D01*
X157195761Y-101933102D01*
X157195761Y-102054055D01*
X157226000Y-102114531D01*
X157256238Y-102144769D01*
X157316714Y-102175007D01*
X157467904Y-102175007D01*
X157528380Y-102144769D01*
X157558619Y-102114531D01*
X157588857Y-102054055D01*
X157588857Y-101933102D01*
X157558619Y-101872626D01*
X157528380Y-101842388D01*
X157467904Y-101812150D01*
X131732261Y-91301388D02*
X131732261Y-91603769D01*
X131097261Y-91603769D01*
X131399642Y-91089721D02*
X131399642Y-90878055D01*
X131732261Y-90787340D02*
X131732261Y-91089721D01*
X131097261Y-91089721D01*
X131097261Y-90787340D01*
X131732261Y-90515198D02*
X131097261Y-90515198D01*
X131097261Y-90364007D01*
X131127500Y-90273293D01*
X131187976Y-90212817D01*
X131248452Y-90182579D01*
X131369404Y-90152340D01*
X131460119Y-90152340D01*
X131581071Y-90182579D01*
X131641547Y-90212817D01*
X131702023Y-90273293D01*
X131732261Y-90364007D01*
X131732261Y-90515198D01*
X131732261Y-89547579D02*
X131732261Y-89910436D01*
X131732261Y-89729007D02*
X131097261Y-89729007D01*
X131187976Y-89789483D01*
X131248452Y-89849960D01*
X131278690Y-89910436D01*
X148245285Y-97408516D02*
X148275523Y-97438754D01*
X148305761Y-97529468D01*
X148305761Y-97589944D01*
X148275523Y-97680659D01*
X148215047Y-97741135D01*
X148154571Y-97771373D01*
X148033619Y-97801611D01*
X147942904Y-97801611D01*
X147821952Y-97771373D01*
X147761476Y-97741135D01*
X147701000Y-97680659D01*
X147670761Y-97589944D01*
X147670761Y-97529468D01*
X147701000Y-97438754D01*
X147731238Y-97408516D01*
X148305761Y-96803754D02*
X148305761Y-97166611D01*
X148305761Y-96985182D02*
X147670761Y-96985182D01*
X147761476Y-97045659D01*
X147821952Y-97106135D01*
X147852190Y-97166611D01*
X147670761Y-96410659D02*
X147670761Y-96350182D01*
X147701000Y-96289706D01*
X147731238Y-96259468D01*
X147791714Y-96229230D01*
X147912666Y-96198992D01*
X148063857Y-96198992D01*
X148184809Y-96229230D01*
X148245285Y-96259468D01*
X148275523Y-96289706D01*
X148305761Y-96350182D01*
X148305761Y-96410659D01*
X148275523Y-96471135D01*
X148245285Y-96501373D01*
X148184809Y-96531611D01*
X148063857Y-96561849D01*
X147912666Y-96561849D01*
X147791714Y-96531611D01*
X147731238Y-96501373D01*
X147701000Y-96471135D01*
X147670761Y-96410659D01*
X140851587Y-100429785D02*
X140821349Y-100460023D01*
X140730635Y-100490261D01*
X140670159Y-100490261D01*
X140579444Y-100460023D01*
X140518968Y-100399547D01*
X140488730Y-100339071D01*
X140458492Y-100218119D01*
X140458492Y-100127404D01*
X140488730Y-100006452D01*
X140518968Y-99945976D01*
X140579444Y-99885500D01*
X140670159Y-99855261D01*
X140730635Y-99855261D01*
X140821349Y-99885500D01*
X140851587Y-99915738D01*
X141395873Y-99855261D02*
X141274920Y-99855261D01*
X141214444Y-99885500D01*
X141184206Y-99915738D01*
X141123730Y-100006452D01*
X141093492Y-100127404D01*
X141093492Y-100369309D01*
X141123730Y-100429785D01*
X141153968Y-100460023D01*
X141214444Y-100490261D01*
X141335397Y-100490261D01*
X141395873Y-100460023D01*
X141426111Y-100429785D01*
X141456349Y-100369309D01*
X141456349Y-100218119D01*
X141426111Y-100157642D01*
X141395873Y-100127404D01*
X141335397Y-100097166D01*
X141214444Y-100097166D01*
X141153968Y-100127404D01*
X141123730Y-100157642D01*
X141093492Y-100218119D01*
X135034987Y-113853685D02*
X135004749Y-113883923D01*
X134914035Y-113914161D01*
X134853559Y-113914161D01*
X134762844Y-113883923D01*
X134702368Y-113823447D01*
X134672130Y-113762971D01*
X134641892Y-113642019D01*
X134641892Y-113551304D01*
X134672130Y-113430352D01*
X134702368Y-113369876D01*
X134762844Y-113309400D01*
X134853559Y-113279161D01*
X134914035Y-113279161D01*
X135004749Y-113309400D01*
X135034987Y-113339638D01*
X135579273Y-113490828D02*
X135579273Y-113914161D01*
X135428082Y-113248923D02*
X135276892Y-113702495D01*
X135669987Y-113702495D01*
X136032844Y-113279161D02*
X136093320Y-113279161D01*
X136153797Y-113309400D01*
X136184035Y-113339638D01*
X136214273Y-113400114D01*
X136244511Y-113521066D01*
X136244511Y-113672257D01*
X136214273Y-113793209D01*
X136184035Y-113853685D01*
X136153797Y-113883923D01*
X136093320Y-113914161D01*
X136032844Y-113914161D01*
X135972368Y-113883923D01*
X135942130Y-113853685D01*
X135911892Y-113793209D01*
X135881654Y-113672257D01*
X135881654Y-113521066D01*
X135911892Y-113400114D01*
X135942130Y-113339638D01*
X135972368Y-113309400D01*
X136032844Y-113279161D01*
X137666185Y-110583012D02*
X137696423Y-110613250D01*
X137726661Y-110703964D01*
X137726661Y-110764440D01*
X137696423Y-110855155D01*
X137635947Y-110915631D01*
X137575471Y-110945869D01*
X137454519Y-110976107D01*
X137363804Y-110976107D01*
X137242852Y-110945869D01*
X137182376Y-110915631D01*
X137121900Y-110855155D01*
X137091661Y-110764440D01*
X137091661Y-110703964D01*
X137121900Y-110613250D01*
X137152138Y-110583012D01*
X137303328Y-110038726D02*
X137726661Y-110038726D01*
X137061423Y-110189917D02*
X137514995Y-110341107D01*
X137514995Y-109948012D01*
X137726661Y-109373488D02*
X137726661Y-109736345D01*
X137726661Y-109554917D02*
X137091661Y-109554917D01*
X137182376Y-109615393D01*
X137242852Y-109675869D01*
X137273090Y-109736345D01*
X138926087Y-114982285D02*
X138895849Y-115012523D01*
X138805135Y-115042761D01*
X138744659Y-115042761D01*
X138653944Y-115012523D01*
X138593468Y-114952047D01*
X138563230Y-114891571D01*
X138532992Y-114770619D01*
X138532992Y-114679904D01*
X138563230Y-114558952D01*
X138593468Y-114498476D01*
X138653944Y-114438000D01*
X138744659Y-114407761D01*
X138805135Y-114407761D01*
X138895849Y-114438000D01*
X138926087Y-114468238D01*
X139470373Y-114619428D02*
X139470373Y-115042761D01*
X139319182Y-114377523D02*
X139167992Y-114831095D01*
X139561087Y-114831095D01*
X137176087Y-114982285D02*
X137145849Y-115012523D01*
X137055135Y-115042761D01*
X136994659Y-115042761D01*
X136903944Y-115012523D01*
X136843468Y-114952047D01*
X136813230Y-114891571D01*
X136782992Y-114770619D01*
X136782992Y-114679904D01*
X136813230Y-114558952D01*
X136843468Y-114498476D01*
X136903944Y-114438000D01*
X136994659Y-114407761D01*
X137055135Y-114407761D01*
X137145849Y-114438000D01*
X137176087Y-114468238D01*
X137750611Y-114407761D02*
X137448230Y-114407761D01*
X137417992Y-114710142D01*
X137448230Y-114679904D01*
X137508706Y-114649666D01*
X137659897Y-114649666D01*
X137720373Y-114679904D01*
X137750611Y-114710142D01*
X137780849Y-114770619D01*
X137780849Y-114921809D01*
X137750611Y-114982285D01*
X137720373Y-115012523D01*
X137659897Y-115042761D01*
X137508706Y-115042761D01*
X137448230Y-115012523D01*
X137417992Y-114982285D01*
X157706785Y-119561912D02*
X157737023Y-119592150D01*
X157767261Y-119682864D01*
X157767261Y-119743340D01*
X157737023Y-119834055D01*
X157676547Y-119894531D01*
X157616071Y-119924769D01*
X157495119Y-119955007D01*
X157404404Y-119955007D01*
X157283452Y-119924769D01*
X157222976Y-119894531D01*
X157162500Y-119834055D01*
X157132261Y-119743340D01*
X157132261Y-119682864D01*
X157162500Y-119592150D01*
X157192738Y-119561912D01*
X157404404Y-119199055D02*
X157374166Y-119259531D01*
X157343928Y-119289769D01*
X157283452Y-119320007D01*
X157253214Y-119320007D01*
X157192738Y-119289769D01*
X157162500Y-119259531D01*
X157132261Y-119199055D01*
X157132261Y-119078102D01*
X157162500Y-119017626D01*
X157192738Y-118987388D01*
X157253214Y-118957150D01*
X157283452Y-118957150D01*
X157343928Y-118987388D01*
X157374166Y-119017626D01*
X157404404Y-119078102D01*
X157404404Y-119199055D01*
X157434642Y-119259531D01*
X157464880Y-119289769D01*
X157525357Y-119320007D01*
X157646309Y-119320007D01*
X157706785Y-119289769D01*
X157737023Y-119259531D01*
X157767261Y-119199055D01*
X157767261Y-119078102D01*
X157737023Y-119017626D01*
X157706785Y-118987388D01*
X157646309Y-118957150D01*
X157525357Y-118957150D01*
X157464880Y-118987388D01*
X157434642Y-119017626D01*
X157404404Y-119078102D01*
X139253685Y-110633812D02*
X139283923Y-110664050D01*
X139314161Y-110754764D01*
X139314161Y-110815240D01*
X139283923Y-110905955D01*
X139223447Y-110966431D01*
X139162971Y-110996669D01*
X139042019Y-111026907D01*
X138951304Y-111026907D01*
X138830352Y-110996669D01*
X138769876Y-110966431D01*
X138709400Y-110905955D01*
X138679161Y-110815240D01*
X138679161Y-110754764D01*
X138709400Y-110664050D01*
X138739638Y-110633812D01*
X139314161Y-110029050D02*
X139314161Y-110391907D01*
X139314161Y-110210479D02*
X138679161Y-110210479D01*
X138769876Y-110270955D01*
X138830352Y-110331431D01*
X138860590Y-110391907D01*
X138679161Y-109817383D02*
X138679161Y-109424288D01*
X138921066Y-109635955D01*
X138921066Y-109545240D01*
X138951304Y-109484764D01*
X138981542Y-109454526D01*
X139042019Y-109424288D01*
X139193209Y-109424288D01*
X139253685Y-109454526D01*
X139283923Y-109484764D01*
X139314161Y-109545240D01*
X139314161Y-109726669D01*
X139283923Y-109787145D01*
X139253685Y-109817383D01*
X135665611Y-114992761D02*
X135363230Y-114992761D01*
X135363230Y-114357761D01*
X136209897Y-114992761D02*
X135847040Y-114992761D01*
X136028468Y-114992761D02*
X136028468Y-114357761D01*
X135967992Y-114448476D01*
X135907516Y-114508952D01*
X135847040Y-114539190D01*
X136065380Y-112374317D02*
X136367761Y-112374317D01*
X135732761Y-112585983D02*
X136065380Y-112374317D01*
X135732761Y-112162650D01*
X136367761Y-111618364D02*
X136367761Y-111981221D01*
X136367761Y-111799793D02*
X135732761Y-111799793D01*
X135823476Y-111860269D01*
X135883952Y-111920745D01*
X135914190Y-111981221D01*
X160183285Y-105083912D02*
X160213523Y-105114150D01*
X160243761Y-105204864D01*
X160243761Y-105265340D01*
X160213523Y-105356055D01*
X160153047Y-105416531D01*
X160092571Y-105446769D01*
X159971619Y-105477007D01*
X159880904Y-105477007D01*
X159759952Y-105446769D01*
X159699476Y-105416531D01*
X159639000Y-105356055D01*
X159608761Y-105265340D01*
X159608761Y-105204864D01*
X159639000Y-105114150D01*
X159669238Y-105083912D01*
X159820428Y-104539626D02*
X160243761Y-104539626D01*
X159578523Y-104690817D02*
X160032095Y-104842007D01*
X160032095Y-104448912D01*
X159880904Y-104116293D02*
X159850666Y-104176769D01*
X159820428Y-104207007D01*
X159759952Y-104237245D01*
X159729714Y-104237245D01*
X159669238Y-104207007D01*
X159639000Y-104176769D01*
X159608761Y-104116293D01*
X159608761Y-103995340D01*
X159639000Y-103934864D01*
X159669238Y-103904626D01*
X159729714Y-103874388D01*
X159759952Y-103874388D01*
X159820428Y-103904626D01*
X159850666Y-103934864D01*
X159880904Y-103995340D01*
X159880904Y-104116293D01*
X159911142Y-104176769D01*
X159941380Y-104207007D01*
X160001857Y-104237245D01*
X160122809Y-104237245D01*
X160183285Y-104207007D01*
X160213523Y-104176769D01*
X160243761Y-104116293D01*
X160243761Y-103995340D01*
X160213523Y-103934864D01*
X160183285Y-103904626D01*
X160122809Y-103874388D01*
X160001857Y-103874388D01*
X159941380Y-103904626D01*
X159911142Y-103934864D01*
X159880904Y-103995340D01*
X150780087Y-119809285D02*
X150749849Y-119839523D01*
X150659135Y-119869761D01*
X150598659Y-119869761D01*
X150507944Y-119839523D01*
X150447468Y-119779047D01*
X150417230Y-119718571D01*
X150386992Y-119597619D01*
X150386992Y-119506904D01*
X150417230Y-119385952D01*
X150447468Y-119325476D01*
X150507944Y-119265000D01*
X150598659Y-119234761D01*
X150659135Y-119234761D01*
X150749849Y-119265000D01*
X150780087Y-119295238D01*
X151324373Y-119446428D02*
X151324373Y-119869761D01*
X151173182Y-119204523D02*
X151021992Y-119658095D01*
X151415087Y-119658095D01*
X151687230Y-119869761D02*
X151808182Y-119869761D01*
X151868659Y-119839523D01*
X151898897Y-119809285D01*
X151959373Y-119718571D01*
X151989611Y-119597619D01*
X151989611Y-119355714D01*
X151959373Y-119295238D01*
X151929135Y-119265000D01*
X151868659Y-119234761D01*
X151747706Y-119234761D01*
X151687230Y-119265000D01*
X151656992Y-119295238D01*
X151626754Y-119355714D01*
X151626754Y-119506904D01*
X151656992Y-119567380D01*
X151687230Y-119597619D01*
X151747706Y-119627857D01*
X151868659Y-119627857D01*
X151929135Y-119597619D01*
X151959373Y-119567380D01*
X151989611Y-119506904D01*
X154019611Y-119869761D02*
X153717230Y-119869761D01*
X153717230Y-119234761D01*
X154201040Y-119295238D02*
X154231278Y-119265000D01*
X154291754Y-119234761D01*
X154442944Y-119234761D01*
X154503420Y-119265000D01*
X154533659Y-119295238D01*
X154563897Y-119355714D01*
X154563897Y-119416190D01*
X154533659Y-119506904D01*
X154170801Y-119869761D01*
X154563897Y-119869761D01*
X147646087Y-120109285D02*
X147615849Y-120139523D01*
X147525135Y-120169761D01*
X147464659Y-120169761D01*
X147373944Y-120139523D01*
X147313468Y-120079047D01*
X147283230Y-120018571D01*
X147252992Y-119897619D01*
X147252992Y-119806904D01*
X147283230Y-119685952D01*
X147313468Y-119625476D01*
X147373944Y-119565000D01*
X147464659Y-119534761D01*
X147525135Y-119534761D01*
X147615849Y-119565000D01*
X147646087Y-119595238D01*
X148190373Y-119746428D02*
X148190373Y-120169761D01*
X148039182Y-119504523D02*
X147887992Y-119958095D01*
X148281087Y-119958095D01*
X148795135Y-119746428D02*
X148795135Y-120169761D01*
X148643944Y-119504523D02*
X148492754Y-119958095D01*
X148885849Y-119958095D01*
X140752285Y-124895912D02*
X140782523Y-124926150D01*
X140812761Y-125016864D01*
X140812761Y-125077340D01*
X140782523Y-125168055D01*
X140722047Y-125228531D01*
X140661571Y-125258769D01*
X140540619Y-125289007D01*
X140449904Y-125289007D01*
X140328952Y-125258769D01*
X140268476Y-125228531D01*
X140208000Y-125168055D01*
X140177761Y-125077340D01*
X140177761Y-125016864D01*
X140208000Y-124926150D01*
X140238238Y-124895912D01*
X140238238Y-124654007D02*
X140208000Y-124623769D01*
X140177761Y-124563293D01*
X140177761Y-124412102D01*
X140208000Y-124351626D01*
X140238238Y-124321388D01*
X140298714Y-124291150D01*
X140359190Y-124291150D01*
X140449904Y-124321388D01*
X140812761Y-124684245D01*
X140812761Y-124291150D01*
X146146761Y-125972388D02*
X146146761Y-126274769D01*
X145511761Y-126274769D01*
X145511761Y-125821198D02*
X145511761Y-125428102D01*
X145753666Y-125639769D01*
X145753666Y-125549055D01*
X145783904Y-125488579D01*
X145814142Y-125458340D01*
X145874619Y-125428102D01*
X146025809Y-125428102D01*
X146086285Y-125458340D01*
X146116523Y-125488579D01*
X146146761Y-125549055D01*
X146146761Y-125730483D01*
X146116523Y-125790960D01*
X146086285Y-125821198D01*
X153446238Y-123692436D02*
X153416000Y-123752912D01*
X153355523Y-123813388D01*
X153264809Y-123904102D01*
X153234571Y-123964579D01*
X153234571Y-124025055D01*
X153385761Y-123994817D02*
X153355523Y-124055293D01*
X153295047Y-124115769D01*
X153174095Y-124146007D01*
X152962428Y-124146007D01*
X152841476Y-124115769D01*
X152781000Y-124055293D01*
X152750761Y-123994817D01*
X152750761Y-123873864D01*
X152781000Y-123813388D01*
X152841476Y-123752912D01*
X152962428Y-123722674D01*
X153174095Y-123722674D01*
X153295047Y-123752912D01*
X153355523Y-123813388D01*
X153385761Y-123873864D01*
X153385761Y-123994817D01*
X152811238Y-123480769D02*
X152781000Y-123450531D01*
X152750761Y-123390055D01*
X152750761Y-123238864D01*
X152781000Y-123178388D01*
X152811238Y-123148150D01*
X152871714Y-123117912D01*
X152932190Y-123117912D01*
X153022904Y-123148150D01*
X153385761Y-123511007D01*
X153385761Y-123117912D01*
X148662087Y-127731761D02*
X148450420Y-127429380D01*
X148299230Y-127731761D02*
X148299230Y-127096761D01*
X148541135Y-127096761D01*
X148601611Y-127127000D01*
X148631849Y-127157238D01*
X148662087Y-127217714D01*
X148662087Y-127308428D01*
X148631849Y-127368904D01*
X148601611Y-127399142D01*
X148541135Y-127429380D01*
X148299230Y-127429380D01*
X148964468Y-127731761D02*
X149085420Y-127731761D01*
X149145897Y-127701523D01*
X149176135Y-127671285D01*
X149236611Y-127580571D01*
X149266849Y-127459619D01*
X149266849Y-127217714D01*
X149236611Y-127157238D01*
X149206373Y-127127000D01*
X149145897Y-127096761D01*
X149024944Y-127096761D01*
X148964468Y-127127000D01*
X148934230Y-127157238D01*
X148903992Y-127217714D01*
X148903992Y-127368904D01*
X148934230Y-127429380D01*
X148964468Y-127459619D01*
X149024944Y-127489857D01*
X149145897Y-127489857D01*
X149206373Y-127459619D01*
X149236611Y-127429380D01*
X149266849Y-127368904D01*
X150331230Y-127858761D02*
X150331230Y-127223761D01*
X150482420Y-127223761D01*
X150573135Y-127254000D01*
X150633611Y-127314476D01*
X150663849Y-127374952D01*
X150694087Y-127495904D01*
X150694087Y-127586619D01*
X150663849Y-127707571D01*
X150633611Y-127768047D01*
X150573135Y-127828523D01*
X150482420Y-127858761D01*
X150331230Y-127858761D01*
X150905754Y-127223761D02*
X151298849Y-127223761D01*
X151087182Y-127465666D01*
X151177897Y-127465666D01*
X151238373Y-127495904D01*
X151268611Y-127526142D01*
X151298849Y-127586619D01*
X151298849Y-127737809D01*
X151268611Y-127798285D01*
X151238373Y-127828523D01*
X151177897Y-127858761D01*
X150996468Y-127858761D01*
X150935992Y-127828523D01*
X150905754Y-127798285D01*
X142820087Y-127604761D02*
X142608420Y-127302380D01*
X142457230Y-127604761D02*
X142457230Y-126969761D01*
X142699135Y-126969761D01*
X142759611Y-127000000D01*
X142789849Y-127030238D01*
X142820087Y-127090714D01*
X142820087Y-127181428D01*
X142789849Y-127241904D01*
X142759611Y-127272142D01*
X142699135Y-127302380D01*
X142457230Y-127302380D01*
X143424849Y-127604761D02*
X143061992Y-127604761D01*
X143243420Y-127604761D02*
X143243420Y-126969761D01*
X143182944Y-127060476D01*
X143122468Y-127120952D01*
X143061992Y-127151190D01*
X143817944Y-126969761D02*
X143878420Y-126969761D01*
X143938897Y-127000000D01*
X143969135Y-127030238D01*
X143999373Y-127090714D01*
X144029611Y-127211666D01*
X144029611Y-127362857D01*
X143999373Y-127483809D01*
X143969135Y-127544285D01*
X143938897Y-127574523D01*
X143878420Y-127604761D01*
X143817944Y-127604761D01*
X143757468Y-127574523D01*
X143727230Y-127544285D01*
X143696992Y-127483809D01*
X143666754Y-127362857D01*
X143666754Y-127211666D01*
X143696992Y-127090714D01*
X143727230Y-127030238D01*
X143757468Y-127000000D01*
X143817944Y-126969761D01*
X145314730Y-119794261D02*
X145314730Y-120308309D01*
X145344968Y-120368785D01*
X145375206Y-120399023D01*
X145435682Y-120429261D01*
X145556635Y-120429261D01*
X145617111Y-120399023D01*
X145647349Y-120368785D01*
X145677587Y-120308309D01*
X145677587Y-119794261D01*
X146070682Y-120066404D02*
X146010206Y-120036166D01*
X145979968Y-120005928D01*
X145949730Y-119945452D01*
X145949730Y-119915214D01*
X145979968Y-119854738D01*
X146010206Y-119824500D01*
X146070682Y-119794261D01*
X146191635Y-119794261D01*
X146252111Y-119824500D01*
X146282349Y-119854738D01*
X146312587Y-119915214D01*
X146312587Y-119945452D01*
X146282349Y-120005928D01*
X146252111Y-120036166D01*
X146191635Y-120066404D01*
X146070682Y-120066404D01*
X146010206Y-120096642D01*
X145979968Y-120126880D01*
X145949730Y-120187357D01*
X145949730Y-120308309D01*
X145979968Y-120368785D01*
X146010206Y-120399023D01*
X146070682Y-120429261D01*
X146191635Y-120429261D01*
X146252111Y-120399023D01*
X146282349Y-120368785D01*
X146312587Y-120308309D01*
X146312587Y-120187357D01*
X146282349Y-120126880D01*
X146252111Y-120096642D01*
X146191635Y-120066404D01*
X142527261Y-121784412D02*
X142224880Y-121996079D01*
X142527261Y-122147269D02*
X141892261Y-122147269D01*
X141892261Y-121905364D01*
X141922500Y-121844888D01*
X141952738Y-121814650D01*
X142013214Y-121784412D01*
X142103928Y-121784412D01*
X142164404Y-121814650D01*
X142194642Y-121844888D01*
X142224880Y-121905364D01*
X142224880Y-122147269D01*
X141892261Y-121209888D02*
X141892261Y-121512269D01*
X142194642Y-121542507D01*
X142164404Y-121512269D01*
X142134166Y-121451793D01*
X142134166Y-121300602D01*
X142164404Y-121240126D01*
X142194642Y-121209888D01*
X142255119Y-121179650D01*
X142406309Y-121179650D01*
X142466785Y-121209888D01*
X142497023Y-121240126D01*
X142527261Y-121300602D01*
X142527261Y-121451793D01*
X142497023Y-121512269D01*
X142466785Y-121542507D01*
X160798659Y-122034761D02*
X160798659Y-122488333D01*
X160768420Y-122579047D01*
X160707944Y-122639523D01*
X160617230Y-122669761D01*
X160556754Y-122669761D01*
X161101040Y-122669761D02*
X161101040Y-122034761D01*
X161342944Y-122034761D01*
X161403420Y-122065000D01*
X161433659Y-122095238D01*
X161463897Y-122155714D01*
X161463897Y-122246428D01*
X161433659Y-122306904D01*
X161403420Y-122337142D01*
X161342944Y-122367380D01*
X161101040Y-122367380D01*
X161675563Y-122034761D02*
X162068659Y-122034761D01*
X161856992Y-122276666D01*
X161947706Y-122276666D01*
X162008182Y-122306904D01*
X162038420Y-122337142D01*
X162068659Y-122397619D01*
X162068659Y-122548809D01*
X162038420Y-122609285D01*
X162008182Y-122639523D01*
X161947706Y-122669761D01*
X161766278Y-122669761D01*
X161705801Y-122639523D01*
X161675563Y-122609285D01*
M02*
