%TF.GenerationSoftware,KiCad,Pcbnew,5.0.2-bee76a0~70~ubuntu18.04.1*%
%TF.CreationDate,2020-02-29T17:30:31-08:00*%
%TF.ProjectId,base,62617365-2e6b-4696-9361-645f70636258,rev?*%
%TF.SameCoordinates,Original*%
%TF.FileFunction,Paste,Top*%
%TF.FilePolarity,Positive*%
%FSLAX46Y46*%
G04 Gerber Fmt 4.6, Leading zero omitted, Abs format (unit mm)*
G04 Created by KiCad (PCBNEW 5.0.2-bee76a0~70~ubuntu18.04.1) date Sat 29 Feb 2020 05:30:31 PM PST*
%MOMM*%
%LPD*%
G01*
G04 APERTURE LIST*
%ADD10C,0.150000*%
%ADD11R,1.000000X1.100000*%
%ADD12R,0.550000X1.200000*%
%ADD13R,0.630000X0.830000*%
%ADD14R,0.800000X0.900000*%
%ADD15R,0.800000X2.000000*%
%ADD16R,1.200000X0.800000*%
%ADD17R,1.000000X1.000000*%
%ADD18R,0.900000X1.000000*%
%ADD19R,0.700000X1.200000*%
%ADD20R,0.450000X0.700000*%
%ADD21R,1.600000X1.400000*%
%ADD22R,0.700000X0.450000*%
%ADD23R,0.300000X0.900000*%
%ADD24R,0.900000X0.300000*%
%ADD25R,0.800000X1.200000*%
%ADD26R,1.400000X1.600000*%
%ADD27R,1.400000X1.200000*%
%ADD28R,1.200000X0.550000*%
%ADD29R,1.100000X1.000000*%
%ADD30R,1.500000X1.700000*%
%ADD31R,1.100000X0.250000*%
G04 APERTURE END LIST*
D10*
X131000500Y-114280540D02*
X131000500Y-118280540D01*
X162651441Y-102162541D02*
X162651441Y-95050541D01*
X161502382Y-105714800D02*
X162651441Y-105714800D01*
X161502382Y-102162541D02*
X162651441Y-102162541D01*
X129851441Y-123050540D02*
G75*
G02X129351441Y-123550540I-500000J0D01*
G01*
X129351441Y-94550541D02*
G75*
G02X129851441Y-95050541I0J-500000D01*
G01*
X162651441Y-95050541D02*
G75*
G02X163151441Y-94550541I500000J0D01*
G01*
X163151441Y-123550540D02*
G75*
G02X162651441Y-123050540I0J500000D01*
G01*
X128351441Y-88050540D02*
X128351441Y-94550540D01*
X163151441Y-94550541D02*
X164151441Y-94550540D01*
X162651441Y-123050540D02*
X162651441Y-105714800D01*
X164151441Y-123550540D02*
X163151441Y-123550540D01*
X164151441Y-94550540D02*
X164151440Y-88050541D01*
X129851441Y-95050541D02*
X129851441Y-114280540D01*
X128351441Y-94550540D02*
X129351441Y-94550541D01*
X128351441Y-130050540D02*
X162651440Y-130050540D01*
X129851441Y-114280540D02*
X131000500Y-114280540D01*
X161502382Y-102162541D02*
X161502382Y-105714800D01*
X162651440Y-88050540D02*
X128351441Y-88050540D01*
X131000500Y-118280540D02*
X129851441Y-118280540D01*
X128351441Y-123550540D02*
X128351441Y-130050540D01*
X129351441Y-123550540D02*
X128351441Y-123550540D01*
X129851441Y-118280540D02*
X129851441Y-123050540D01*
X162651440Y-130050540D02*
X164151440Y-130050540D01*
X164151440Y-88050541D02*
X162651440Y-88050540D01*
X164151440Y-130050540D02*
X164151441Y-123550540D01*
D11*
X143421100Y-122490600D03*
X143421100Y-120790600D03*
D12*
X146784100Y-123956700D03*
X144884100Y-123956700D03*
X144884100Y-121356500D03*
X145834100Y-121356500D03*
X146784100Y-121356500D03*
D11*
X143421100Y-125665600D03*
X143421100Y-123965600D03*
D13*
X149764100Y-126212600D03*
X152064100Y-126212600D03*
D11*
X148247100Y-126300600D03*
X148247100Y-124600600D03*
D14*
X149964100Y-124164600D03*
X151864100Y-124164600D03*
X150914100Y-122064600D03*
D15*
X144834100Y-125958600D03*
X146834100Y-125958600D03*
D16*
X141770100Y-125842600D03*
X141770100Y-124042600D03*
X148247100Y-120867600D03*
X148247100Y-122667600D03*
D17*
X153035100Y-120751600D03*
X154635100Y-120751600D03*
X149860100Y-120751600D03*
X151460100Y-120751600D03*
X158597600Y-104000400D03*
X158597600Y-105600400D03*
D18*
X137376000Y-111898000D03*
X138926000Y-111898000D03*
X137376000Y-110048000D03*
X138926000Y-110048000D03*
D17*
X135674100Y-117614600D03*
X135674100Y-116014600D03*
X138938000Y-106896000D03*
X138938000Y-108496000D03*
X156248100Y-120281600D03*
X156248100Y-118681600D03*
X137325100Y-117614600D03*
X137325100Y-116014600D03*
X138976100Y-117614600D03*
X138976100Y-116014600D03*
X137477500Y-108496000D03*
X137477500Y-106896000D03*
X138849000Y-113601500D03*
X137249000Y-113601500D03*
X140881100Y-101409600D03*
X140881100Y-103009600D03*
X149250000Y-97900000D03*
X149250000Y-96300000D03*
D19*
X134469100Y-92660600D03*
X133069100Y-92660600D03*
X134469100Y-89660600D03*
X133069100Y-89660600D03*
D17*
X156248100Y-101409600D03*
X156248100Y-103009600D03*
D14*
X134089100Y-97240600D03*
X135989100Y-97240600D03*
X135039100Y-95140600D03*
D20*
X153269100Y-97807600D03*
X152469100Y-97807600D03*
X151669100Y-97807600D03*
X150869100Y-97807600D03*
X150869100Y-96257600D03*
X151669100Y-96257600D03*
X152469100Y-96257600D03*
X153269100Y-96257600D03*
X157769100Y-95034600D03*
X158569100Y-95034600D03*
X159369100Y-95034600D03*
X160169100Y-95034600D03*
X160169100Y-96584600D03*
X159369100Y-96584600D03*
X158569100Y-96584600D03*
X157769100Y-96584600D03*
D11*
X137452100Y-97090600D03*
X137452100Y-95390600D03*
D21*
X138722100Y-103355600D03*
X138722100Y-100555600D03*
D22*
X138798600Y-89960600D03*
X138798600Y-90760600D03*
X138798600Y-91560600D03*
X138798600Y-92360600D03*
X137248600Y-92360600D03*
X137248600Y-91560600D03*
X137248600Y-90760600D03*
X137248600Y-89960600D03*
D11*
X131889000Y-95631000D03*
X131889000Y-93931000D03*
D17*
X160150000Y-100350000D03*
X160150000Y-98750000D03*
D23*
X142501100Y-103125600D03*
X143001100Y-103125600D03*
X143501100Y-103125600D03*
X144001100Y-103125600D03*
X144501100Y-103125600D03*
X145001100Y-103125600D03*
X145501100Y-103125600D03*
X146001100Y-103125600D03*
X146501100Y-103125600D03*
X147001100Y-103125600D03*
X147501100Y-103125600D03*
X148001100Y-103125600D03*
X148501100Y-103125600D03*
X149001100Y-103125600D03*
X149501100Y-103125600D03*
X150001100Y-103125600D03*
X150501100Y-103125600D03*
X151001100Y-103125600D03*
X151501100Y-103125600D03*
X152001100Y-103125600D03*
X152501100Y-103125600D03*
X153001100Y-103125600D03*
X153501100Y-103125600D03*
X154001100Y-103125600D03*
X154501100Y-103125600D03*
D24*
X156221100Y-104845600D03*
X156221100Y-105345600D03*
X156221100Y-105845600D03*
X156221100Y-106345600D03*
X156221100Y-106845600D03*
X156221100Y-107345600D03*
X156221100Y-107845600D03*
X156221100Y-108345600D03*
X156221100Y-108845600D03*
X156221100Y-109345600D03*
X156221100Y-109845600D03*
X156221100Y-110345600D03*
X156221100Y-110845600D03*
X156221100Y-111345600D03*
X156221100Y-111845600D03*
X156221100Y-112345600D03*
X156221100Y-112845600D03*
X156221100Y-113345600D03*
X156221100Y-113845600D03*
X156221100Y-114345600D03*
X156221100Y-114845600D03*
X156221100Y-115345600D03*
X156221100Y-115845600D03*
X156221100Y-116345600D03*
X156221100Y-116845600D03*
D23*
X154501100Y-118565600D03*
X154001100Y-118565600D03*
X153501100Y-118565600D03*
X153001100Y-118565600D03*
X152501100Y-118565600D03*
X152001100Y-118565600D03*
X151501100Y-118565600D03*
X151001100Y-118565600D03*
X150501100Y-118565600D03*
X150001100Y-118565600D03*
X149501100Y-118565600D03*
X149001100Y-118565600D03*
X148501100Y-118565600D03*
X148001100Y-118565600D03*
X147501100Y-118565600D03*
X147001100Y-118565600D03*
X146501100Y-118565600D03*
X146001100Y-118565600D03*
X145501100Y-118565600D03*
X145001100Y-118565600D03*
X144501100Y-118565600D03*
X144001100Y-118565600D03*
X143501100Y-118565600D03*
X143001100Y-118565600D03*
X142501100Y-118565600D03*
D24*
X140781100Y-116845600D03*
X140781100Y-116345600D03*
X140781100Y-115845600D03*
X140781100Y-115345600D03*
X140781100Y-114845600D03*
X140781100Y-114345600D03*
X140781100Y-113845600D03*
X140781100Y-113345600D03*
X140781100Y-112845600D03*
X140781100Y-112345600D03*
X140781100Y-111845600D03*
X140781100Y-111345600D03*
X140781100Y-110845600D03*
X140781100Y-110345600D03*
X140781100Y-109845600D03*
X140781100Y-109345600D03*
X140781100Y-108845600D03*
X140781100Y-108345600D03*
X140781100Y-107845600D03*
X140781100Y-107345600D03*
X140781100Y-106845600D03*
X140781100Y-106345600D03*
X140781100Y-105845600D03*
X140781100Y-105345600D03*
X140781100Y-104845600D03*
D25*
X133950000Y-120100000D03*
X135750000Y-120100000D03*
D17*
X138350000Y-121600000D03*
X138350000Y-123200000D03*
D26*
X155300000Y-93550000D03*
X152500000Y-93550000D03*
D25*
X137450000Y-120050000D03*
X139250000Y-120050000D03*
D27*
X142811500Y-93904000D03*
X142811500Y-97104000D03*
X139827000Y-97104000D03*
X139827000Y-93904000D03*
D28*
X136400200Y-121550000D03*
X136400200Y-123450000D03*
X133800000Y-123450000D03*
X133800000Y-122500000D03*
X133800000Y-121550000D03*
D29*
X147508680Y-128401980D03*
X145808680Y-128401980D03*
X145809541Y-128402380D03*
X144109541Y-128402380D03*
D30*
X131609000Y-112675500D03*
X131609000Y-104875500D03*
D31*
X135509000Y-111025500D03*
X135509000Y-110525500D03*
X135509000Y-110025500D03*
X135509000Y-109525500D03*
X135509000Y-109025500D03*
X135509000Y-108525500D03*
X135509000Y-108025500D03*
X135509000Y-107525500D03*
X135509000Y-107025500D03*
X135509000Y-106525500D03*
D29*
X147300000Y-100800000D03*
X145600000Y-100800000D03*
X145600000Y-99300000D03*
X147300000Y-99300000D03*
D21*
X147050000Y-94700000D03*
X147050000Y-91900000D03*
M02*
