%TF.GenerationSoftware,KiCad,Pcbnew,5.0.2-bee76a0~70~ubuntu18.04.1*%
%TF.CreationDate,2020-02-29T17:30:31-08:00*%
%TF.ProjectId,base,62617365-2e6b-4696-9361-645f70636258,rev?*%
%TF.SameCoordinates,Original*%
%TF.FileFunction,Profile,NP*%
%FSLAX46Y46*%
G04 Gerber Fmt 4.6, Leading zero omitted, Abs format (unit mm)*
G04 Created by KiCad (PCBNEW 5.0.2-bee76a0~70~ubuntu18.04.1) date Sat 29 Feb 2020 05:30:31 PM PST*
%MOMM*%
%LPD*%
G01*
G04 APERTURE LIST*
%ADD10C,0.150000*%
G04 APERTURE END LIST*
D10*
X131000500Y-114280540D02*
X131000500Y-118280540D01*
X162651441Y-102162541D02*
X162651441Y-95050541D01*
X161502382Y-105714800D02*
X162651441Y-105714800D01*
X161502382Y-102162541D02*
X162651441Y-102162541D01*
X129851441Y-123050540D02*
G75*
G02X129351441Y-123550540I-500000J0D01*
G01*
X129351441Y-94550541D02*
G75*
G02X129851441Y-95050541I0J-500000D01*
G01*
X162651441Y-95050541D02*
G75*
G02X163151441Y-94550541I500000J0D01*
G01*
X163151441Y-123550540D02*
G75*
G02X162651441Y-123050540I0J500000D01*
G01*
X128351441Y-88050540D02*
X128351441Y-94550540D01*
X163151441Y-94550541D02*
X164151441Y-94550540D01*
X162651441Y-123050540D02*
X162651441Y-105714800D01*
X164151441Y-123550540D02*
X163151441Y-123550540D01*
X164151441Y-94550540D02*
X164151440Y-88050541D01*
X129851441Y-95050541D02*
X129851441Y-114280540D01*
X128351441Y-94550540D02*
X129351441Y-94550541D01*
X128351441Y-130050540D02*
X162651440Y-130050540D01*
X129851441Y-114280540D02*
X131000500Y-114280540D01*
X161502382Y-102162541D02*
X161502382Y-105714800D01*
X162651440Y-88050540D02*
X128351441Y-88050540D01*
X131000500Y-118280540D02*
X129851441Y-118280540D01*
X128351441Y-123550540D02*
X128351441Y-130050540D01*
X129351441Y-123550540D02*
X128351441Y-123550540D01*
X129851441Y-118280540D02*
X129851441Y-123050540D01*
X162651440Y-130050540D02*
X164151440Y-130050540D01*
X164151440Y-88050541D02*
X162651440Y-88050540D01*
X164151440Y-130050540D02*
X164151441Y-123550540D01*
M02*
