%TF.GenerationSoftware,KiCad,Pcbnew,(5.1.4)-1*%
%TF.CreationDate,2019-10-25T20:45:33-07:00*%
%TF.ProjectId,base,62617365-2e6b-4696-9361-645f70636258,rev?*%
%TF.SameCoordinates,Original*%
%TF.FileFunction,Paste,Top*%
%TF.FilePolarity,Positive*%
%FSLAX46Y46*%
G04 Gerber Fmt 4.6, Leading zero omitted, Abs format (unit mm)*
G04 Created by KiCad (PCBNEW (5.1.4)-1) date 2019-10-25 20:45:33*
%MOMM*%
%LPD*%
G04 APERTURE LIST*
%ADD10C,0.050000*%
%ADD11R,1.000000X1.100000*%
%ADD12R,0.700000X0.450000*%
%ADD13R,0.550000X1.200000*%
%ADD14R,1.400000X1.200000*%
%ADD15R,0.800000X1.200000*%
%ADD16R,1.600000X1.400000*%
%ADD17R,1.000000X1.000000*%
%ADD18R,0.300000X0.900000*%
%ADD19R,0.900000X0.300000*%
%ADD20R,0.450000X0.700000*%
%ADD21R,0.800000X0.900000*%
%ADD22R,0.700000X1.200000*%
%ADD23R,0.900000X1.000000*%
%ADD24R,1.200000X0.800000*%
%ADD25R,0.800000X2.000000*%
%ADD26R,0.630000X0.830000*%
%ADD27R,1.900000X1.900000*%
%ADD28R,0.400000X1.350000*%
G04 APERTURE END LIST*
D10*
X166500000Y-93500000D02*
X130500000Y-93500000D01*
X130500000Y-93500000D02*
X130500000Y-127500000D01*
X166500000Y-127500000D02*
X166500000Y-93500000D01*
X130500000Y-127500000D02*
X166500000Y-127500000D01*
D11*
X163989620Y-123209541D03*
X163989620Y-121509541D03*
X163990020Y-124908680D03*
X163990020Y-123208680D03*
X140650000Y-118000000D03*
X140650000Y-119700000D03*
D12*
X148750000Y-100300000D03*
X148750000Y-101100000D03*
X147200000Y-101100000D03*
X147200000Y-100300000D03*
X144450000Y-101100000D03*
X144450000Y-100300000D03*
X146000000Y-100300000D03*
X146000000Y-101100000D03*
D13*
X134800000Y-122999800D03*
X136700000Y-122999800D03*
X136700000Y-125600000D03*
X135750000Y-125600000D03*
X134800000Y-125600000D03*
D14*
X140900000Y-98800000D03*
X140900000Y-95600000D03*
X143000000Y-95600000D03*
X143000000Y-98800000D03*
D15*
X137450000Y-120050000D03*
X139250000Y-120050000D03*
D16*
X164861240Y-99393200D03*
X164861240Y-96593200D03*
D17*
X138400000Y-121750000D03*
X138400000Y-123350000D03*
D15*
X133950000Y-120100000D03*
X135750000Y-120100000D03*
D18*
X142501100Y-103125600D03*
X143001100Y-103125600D03*
X143501100Y-103125600D03*
X144001100Y-103125600D03*
X144501100Y-103125600D03*
X145001100Y-103125600D03*
X145501100Y-103125600D03*
X146001100Y-103125600D03*
X146501100Y-103125600D03*
X147001100Y-103125600D03*
X147501100Y-103125600D03*
X148001100Y-103125600D03*
X148501100Y-103125600D03*
X149001100Y-103125600D03*
X149501100Y-103125600D03*
X150001100Y-103125600D03*
X150501100Y-103125600D03*
X151001100Y-103125600D03*
X151501100Y-103125600D03*
X152001100Y-103125600D03*
X152501100Y-103125600D03*
X153001100Y-103125600D03*
X153501100Y-103125600D03*
X154001100Y-103125600D03*
X154501100Y-103125600D03*
D19*
X156221100Y-104845600D03*
X156221100Y-105345600D03*
X156221100Y-105845600D03*
X156221100Y-106345600D03*
X156221100Y-106845600D03*
X156221100Y-107345600D03*
X156221100Y-107845600D03*
X156221100Y-108345600D03*
X156221100Y-108845600D03*
X156221100Y-109345600D03*
X156221100Y-109845600D03*
X156221100Y-110345600D03*
X156221100Y-110845600D03*
X156221100Y-111345600D03*
X156221100Y-111845600D03*
X156221100Y-112345600D03*
X156221100Y-112845600D03*
X156221100Y-113345600D03*
X156221100Y-113845600D03*
X156221100Y-114345600D03*
X156221100Y-114845600D03*
X156221100Y-115345600D03*
X156221100Y-115845600D03*
X156221100Y-116345600D03*
X156221100Y-116845600D03*
D18*
X154501100Y-118565600D03*
X154001100Y-118565600D03*
X153501100Y-118565600D03*
X153001100Y-118565600D03*
X152501100Y-118565600D03*
X152001100Y-118565600D03*
X151501100Y-118565600D03*
X151001100Y-118565600D03*
X150501100Y-118565600D03*
X150001100Y-118565600D03*
X149501100Y-118565600D03*
X149001100Y-118565600D03*
X148501100Y-118565600D03*
X148001100Y-118565600D03*
X147501100Y-118565600D03*
X147001100Y-118565600D03*
X146501100Y-118565600D03*
X146001100Y-118565600D03*
X145501100Y-118565600D03*
X145001100Y-118565600D03*
X144501100Y-118565600D03*
X144001100Y-118565600D03*
X143501100Y-118565600D03*
X143001100Y-118565600D03*
X142501100Y-118565600D03*
D19*
X140781100Y-116845600D03*
X140781100Y-116345600D03*
X140781100Y-115845600D03*
X140781100Y-115345600D03*
X140781100Y-114845600D03*
X140781100Y-114345600D03*
X140781100Y-113845600D03*
X140781100Y-113345600D03*
X140781100Y-112845600D03*
X140781100Y-112345600D03*
X140781100Y-111845600D03*
X140781100Y-111345600D03*
X140781100Y-110845600D03*
X140781100Y-110345600D03*
X140781100Y-109845600D03*
X140781100Y-109345600D03*
X140781100Y-108845600D03*
X140781100Y-108345600D03*
X140781100Y-107845600D03*
X140781100Y-107345600D03*
X140781100Y-106845600D03*
X140781100Y-106345600D03*
X140781100Y-105845600D03*
X140781100Y-105345600D03*
X140781100Y-104845600D03*
D17*
X163652100Y-104241600D03*
X162052100Y-104241600D03*
D11*
X131737100Y-103059600D03*
X131737100Y-101359600D03*
D12*
X137909600Y-95929600D03*
X137909600Y-96729600D03*
X137909600Y-97529600D03*
X137909600Y-98329600D03*
X136359600Y-98329600D03*
X136359600Y-97529600D03*
X136359600Y-96729600D03*
X136359600Y-95929600D03*
D16*
X138722100Y-103355600D03*
X138722100Y-100555600D03*
D11*
X136563100Y-103059600D03*
X136563100Y-101359600D03*
D20*
X157969100Y-101434600D03*
X158769100Y-101434600D03*
X159569100Y-101434600D03*
X160369100Y-101434600D03*
X160369100Y-102984600D03*
X159569100Y-102984600D03*
X158769100Y-102984600D03*
X157969100Y-102984600D03*
X160369100Y-96507600D03*
X159569100Y-96507600D03*
X158769100Y-96507600D03*
X157969100Y-96507600D03*
X157969100Y-94957600D03*
X158769100Y-94957600D03*
X159569100Y-94957600D03*
X160369100Y-94957600D03*
D21*
X133200100Y-103209600D03*
X135100100Y-103209600D03*
X134150100Y-101109600D03*
D17*
X156248100Y-101409600D03*
X156248100Y-103009600D03*
D22*
X133580100Y-98629600D03*
X132180100Y-98629600D03*
X133580100Y-95629600D03*
X132180100Y-95629600D03*
D17*
X162344100Y-97345600D03*
X162344100Y-98945600D03*
X140881100Y-101409600D03*
X140881100Y-103009600D03*
X137363100Y-113258600D03*
X135763100Y-113258600D03*
X135763100Y-107670600D03*
X137363100Y-107670600D03*
X138976100Y-117614600D03*
X138976100Y-116014600D03*
X137325100Y-117614600D03*
X137325100Y-116014600D03*
X156248100Y-120281600D03*
X156248100Y-118681600D03*
X138976100Y-106616600D03*
X138976100Y-108216600D03*
X135674100Y-117614600D03*
X135674100Y-116014600D03*
D23*
X135890100Y-111364600D03*
X137440100Y-111364600D03*
X135890100Y-109514600D03*
X137440100Y-109514600D03*
D17*
X160731100Y-105765600D03*
X159131100Y-105765600D03*
X149860100Y-120751600D03*
X151460100Y-120751600D03*
X153035100Y-120751600D03*
X154635100Y-120751600D03*
D24*
X148247100Y-120867600D03*
X148247100Y-122667600D03*
X141770100Y-125842600D03*
X141770100Y-124042600D03*
D25*
X144834100Y-125958600D03*
X146834100Y-125958600D03*
D21*
X149964100Y-124164600D03*
X151864100Y-124164600D03*
X150914100Y-122064600D03*
D11*
X148247100Y-126300600D03*
X148247100Y-124600600D03*
D26*
X149764100Y-126212600D03*
X152064100Y-126212600D03*
D11*
X143421100Y-125665600D03*
X143421100Y-123965600D03*
D13*
X146784100Y-123956700D03*
X144884100Y-123956700D03*
X144884100Y-121356500D03*
X145834100Y-121356500D03*
X146784100Y-121356500D03*
D27*
X158591100Y-125776100D03*
X156191100Y-125776100D03*
D16*
X160591100Y-123101100D03*
X154191100Y-123101100D03*
D28*
X158691100Y-123101100D03*
X156091100Y-123101100D03*
X156741100Y-123101100D03*
X158041100Y-123101100D03*
X157391100Y-123101100D03*
D11*
X143421100Y-122490600D03*
X143421100Y-120790600D03*
M02*
