%TF.GenerationSoftware,KiCad,Pcbnew,5.0.2-bee76a0~70~ubuntu18.04.1*%
%TF.CreationDate,2020-02-29T17:30:31-08:00*%
%TF.ProjectId,base,62617365-2e6b-4696-9361-645f70636258,rev?*%
%TF.SameCoordinates,Original*%
%TF.FileFunction,Paste,Bot*%
%TF.FilePolarity,Positive*%
%FSLAX46Y46*%
G04 Gerber Fmt 4.6, Leading zero omitted, Abs format (unit mm)*
G04 Created by KiCad (PCBNEW 5.0.2-bee76a0~70~ubuntu18.04.1) date Sat 29 Feb 2020 05:30:31 PM PST*
%MOMM*%
%LPD*%
G01*
G04 APERTURE LIST*
%ADD10C,0.150000*%
%ADD11C,0.100000*%
%ADD12R,1.200000X1.000000*%
%ADD13R,1.900000X1.350000*%
%ADD14R,1.170000X1.800000*%
%ADD15R,0.750000X1.100000*%
%ADD16R,0.850000X1.100000*%
%ADD17R,1.550000X1.350000*%
%ADD18R,1.900000X1.900000*%
%ADD19R,1.600000X1.400000*%
%ADD20R,0.400000X1.350000*%
%ADD21R,0.900000X1.800000*%
G04 APERTURE END LIST*
D10*
X131000500Y-114280540D02*
X131000500Y-118280540D01*
X162651441Y-102162541D02*
X162651441Y-95050541D01*
X161502382Y-105714800D02*
X162651441Y-105714800D01*
X161502382Y-102162541D02*
X162651441Y-102162541D01*
X129851441Y-123050540D02*
G75*
G02X129351441Y-123550540I-500000J0D01*
G01*
X129351441Y-94550541D02*
G75*
G02X129851441Y-95050541I0J-500000D01*
G01*
X162651441Y-95050541D02*
G75*
G02X163151441Y-94550541I500000J0D01*
G01*
X163151441Y-123550540D02*
G75*
G02X162651441Y-123050540I0J500000D01*
G01*
X128351441Y-88050540D02*
X128351441Y-94550540D01*
X163151441Y-94550541D02*
X164151441Y-94550540D01*
X162651441Y-123050540D02*
X162651441Y-105714800D01*
X164151441Y-123550540D02*
X163151441Y-123550540D01*
X164151441Y-94550540D02*
X164151440Y-88050541D01*
X129851441Y-95050541D02*
X129851441Y-114280540D01*
X128351441Y-94550540D02*
X129351441Y-94550541D01*
X128351441Y-130050540D02*
X162651440Y-130050540D01*
X129851441Y-114280540D02*
X131000500Y-114280540D01*
X161502382Y-102162541D02*
X161502382Y-105714800D01*
X162651440Y-88050540D02*
X128351441Y-88050540D01*
X131000500Y-118280540D02*
X129851441Y-118280540D01*
X128351441Y-123550540D02*
X128351441Y-130050540D01*
X129351441Y-123550540D02*
X128351441Y-123550540D01*
X129851441Y-118280540D02*
X129851441Y-123050540D01*
X162651440Y-130050540D02*
X164151440Y-130050540D01*
X164151440Y-88050541D02*
X162651440Y-88050540D01*
X164151440Y-130050540D02*
X164151441Y-123550540D01*
D11*
G36*
X143113300Y-110904800D02*
X142893300Y-110904800D01*
X142893300Y-109604800D01*
X143113300Y-109604800D01*
X143113300Y-110904800D01*
G37*
G36*
X150613300Y-114624800D02*
X150393300Y-114624800D01*
X150393300Y-113324800D01*
X150613300Y-113324800D01*
X150613300Y-114624800D01*
G37*
G36*
X150113300Y-114624800D02*
X149893300Y-114624800D01*
X149893300Y-113324800D01*
X150113300Y-113324800D01*
X150113300Y-114624800D01*
G37*
G36*
X149613300Y-114624800D02*
X149393300Y-114624800D01*
X149393300Y-113324800D01*
X149613300Y-113324800D01*
X149613300Y-114624800D01*
G37*
G36*
X149113300Y-114624800D02*
X148893300Y-114624800D01*
X148893300Y-113324800D01*
X149113300Y-113324800D01*
X149113300Y-114624800D01*
G37*
G36*
X148613300Y-114624800D02*
X148393300Y-114624800D01*
X148393300Y-113324800D01*
X148613300Y-113324800D01*
X148613300Y-114624800D01*
G37*
G36*
X148103300Y-114624800D02*
X147883300Y-114624800D01*
X147883300Y-113324800D01*
X148103300Y-113324800D01*
X148103300Y-114624800D01*
G37*
G36*
X147613300Y-114624800D02*
X147393300Y-114624800D01*
X147393300Y-113324800D01*
X147613300Y-113324800D01*
X147613300Y-114624800D01*
G37*
G36*
X147113300Y-114624800D02*
X146893300Y-114624800D01*
X146893300Y-113324800D01*
X147113300Y-113324800D01*
X147113300Y-114624800D01*
G37*
G36*
X146613300Y-114624800D02*
X146393300Y-114624800D01*
X146393300Y-113324800D01*
X146613300Y-113324800D01*
X146613300Y-114624800D01*
G37*
G36*
X146103300Y-114624800D02*
X145883300Y-114624800D01*
X145883300Y-113324800D01*
X146103300Y-113324800D01*
X146103300Y-114624800D01*
G37*
G36*
X145613300Y-114624800D02*
X145393300Y-114624800D01*
X145393300Y-113324800D01*
X145613300Y-113324800D01*
X145613300Y-114624800D01*
G37*
G36*
X145113300Y-114624800D02*
X144893300Y-114624800D01*
X144893300Y-113324800D01*
X145113300Y-113324800D01*
X145113300Y-114624800D01*
G37*
G36*
X144613300Y-114624800D02*
X144393300Y-114624800D01*
X144393300Y-113324800D01*
X144613300Y-113324800D01*
X144613300Y-114624800D01*
G37*
G36*
X144113300Y-114624800D02*
X143893300Y-114624800D01*
X143893300Y-113324800D01*
X144113300Y-113324800D01*
X144113300Y-114624800D01*
G37*
G36*
X143613300Y-114624800D02*
X143393300Y-114624800D01*
X143393300Y-113324800D01*
X143613300Y-113324800D01*
X143613300Y-114624800D01*
G37*
G36*
X143113300Y-114624800D02*
X142893300Y-114624800D01*
X142893300Y-113324800D01*
X143113300Y-113324800D01*
X143113300Y-114624800D01*
G37*
G36*
X150613300Y-110904800D02*
X150393300Y-110904800D01*
X150393300Y-109604800D01*
X150613300Y-109604800D01*
X150613300Y-110904800D01*
G37*
G36*
X150113300Y-110904800D02*
X149893300Y-110904800D01*
X149893300Y-109604800D01*
X150113300Y-109604800D01*
X150113300Y-110904800D01*
G37*
G36*
X149613300Y-110904800D02*
X149393300Y-110904800D01*
X149393300Y-109604800D01*
X149613300Y-109604800D01*
X149613300Y-110904800D01*
G37*
G36*
X149113300Y-110904800D02*
X148893300Y-110904800D01*
X148893300Y-109604800D01*
X149113300Y-109604800D01*
X149113300Y-110904800D01*
G37*
G36*
X148613300Y-110904800D02*
X148393300Y-110904800D01*
X148393300Y-109604800D01*
X148613300Y-109604800D01*
X148613300Y-110904800D01*
G37*
G36*
X148113300Y-110904800D02*
X147893300Y-110904800D01*
X147893300Y-109604800D01*
X148113300Y-109604800D01*
X148113300Y-110904800D01*
G37*
G36*
X147613300Y-110904800D02*
X147393300Y-110904800D01*
X147393300Y-109604800D01*
X147613300Y-109604800D01*
X147613300Y-110904800D01*
G37*
G36*
X147113300Y-110904800D02*
X146893300Y-110904800D01*
X146893300Y-109604800D01*
X147113300Y-109604800D01*
X147113300Y-110904800D01*
G37*
G36*
X146613300Y-110904800D02*
X146393300Y-110904800D01*
X146393300Y-109604800D01*
X146613300Y-109604800D01*
X146613300Y-110904800D01*
G37*
G36*
X146113300Y-110904800D02*
X145893300Y-110904800D01*
X145893300Y-109604800D01*
X146113300Y-109604800D01*
X146113300Y-110904800D01*
G37*
G36*
X145613300Y-110904800D02*
X145393300Y-110904800D01*
X145393300Y-109604800D01*
X145613300Y-109604800D01*
X145613300Y-110904800D01*
G37*
G36*
X145113300Y-110904800D02*
X144893300Y-110904800D01*
X144893300Y-109604800D01*
X145113300Y-109604800D01*
X145113300Y-110904800D01*
G37*
G36*
X144613300Y-110904800D02*
X144393300Y-110904800D01*
X144393300Y-109604800D01*
X144613300Y-109604800D01*
X144613300Y-110904800D01*
G37*
G36*
X144113300Y-110904800D02*
X143893300Y-110904800D01*
X143893300Y-109604800D01*
X144113300Y-109604800D01*
X144113300Y-110904800D01*
G37*
G36*
X143613300Y-110904800D02*
X143393300Y-110904800D01*
X143393300Y-109604800D01*
X143613300Y-109604800D01*
X143613300Y-110904800D01*
G37*
G36*
X142113300Y-110904800D02*
X141893300Y-110904800D01*
X141893300Y-109604800D01*
X142113300Y-109604800D01*
X142113300Y-110904800D01*
G37*
G36*
X142613300Y-114624800D02*
X142393300Y-114624800D01*
X142393300Y-113324800D01*
X142613300Y-113324800D01*
X142613300Y-114624800D01*
G37*
G36*
X142113300Y-114624800D02*
X141893300Y-114624800D01*
X141893300Y-113324800D01*
X142113300Y-113324800D01*
X142113300Y-114624800D01*
G37*
G36*
X142613300Y-110904800D02*
X142393300Y-110904800D01*
X142393300Y-109604800D01*
X142613300Y-109604800D01*
X142613300Y-110904800D01*
G37*
D12*
X160393500Y-96703900D03*
X160393500Y-100403900D03*
D13*
X156893500Y-101378900D03*
X150923500Y-101378900D03*
D14*
X148898500Y-90903900D03*
D15*
X150108500Y-90553900D03*
D16*
X151158500Y-90553900D03*
X152258500Y-90553900D03*
X153358500Y-90553900D03*
X154458500Y-90553900D03*
X155558500Y-90553900D03*
X156658500Y-90553900D03*
X157758500Y-90553900D03*
D17*
X160218500Y-90678900D03*
D18*
X156450000Y-128339000D03*
X158850000Y-128339000D03*
D19*
X154450000Y-125664000D03*
X160850000Y-125664000D03*
D20*
X156350000Y-125664000D03*
X158950000Y-125664000D03*
X158300000Y-125664000D03*
X157000000Y-125664000D03*
X157650000Y-125664000D03*
D21*
X152251100Y-112111400D03*
X140251100Y-112111400D03*
M02*
