G04 #@! TF.GenerationSoftware,KiCad,Pcbnew,(5.1.4)-1*
G04 #@! TF.CreationDate,2019-10-25T18:27:15-07:00*
G04 #@! TF.ProjectId,base,62617365-2e6b-4696-9361-645f70636258,rev?*
G04 #@! TF.SameCoordinates,Original*
G04 #@! TF.FileFunction,Copper,L4,Bot*
G04 #@! TF.FilePolarity,Positive*
%FSLAX46Y46*%
G04 Gerber Fmt 4.6, Leading zero omitted, Abs format (unit mm)*
G04 Created by KiCad (PCBNEW (5.1.4)-1) date 2019-10-25 18:27:15*
%MOMM*%
%LPD*%
G04 APERTURE LIST*
%ADD10C,0.050000*%
%ADD11R,1.500000X1.700000*%
%ADD12R,1.100000X0.250000*%
%ADD13R,1.000000X1.000000*%
%ADD14R,1.100000X1.000000*%
%ADD15C,0.100000*%
%ADD16C,0.340000*%
%ADD17R,1.400000X1.600000*%
%ADD18R,0.800000X1.200000*%
%ADD19C,1.870000*%
%ADD20R,1.000000X1.200000*%
%ADD21R,1.350000X1.900000*%
%ADD22R,1.800000X1.170000*%
%ADD23R,1.100000X0.750000*%
%ADD24R,1.100000X0.850000*%
%ADD25R,1.350000X1.550000*%
%ADD26C,1.727200*%
%ADD27C,0.457000*%
%ADD28C,0.533400*%
%ADD29C,0.609600*%
%ADD30C,0.800000*%
%ADD31C,0.457200*%
%ADD32C,0.406400*%
%ADD33C,0.254000*%
%ADD34C,0.127000*%
%ADD35C,0.250000*%
%ADD36C,0.152400*%
%ADD37C,0.508000*%
%ADD38C,0.203200*%
%ADD39C,0.150000*%
%ADD40C,0.304800*%
%ADD41C,0.076200*%
G04 APERTURE END LIST*
D10*
X166500000Y-93500000D02*
X130500000Y-93500000D01*
X130500000Y-93500000D02*
X130500000Y-127500000D01*
X166500000Y-127500000D02*
X166500000Y-93500000D01*
X130500000Y-127500000D02*
X166500000Y-127500000D01*
D11*
X161350000Y-113200000D03*
X161350000Y-121000000D03*
D12*
X165250000Y-114850000D03*
X165250000Y-115350000D03*
X165250000Y-115850000D03*
X165250000Y-116350000D03*
X165250000Y-116850000D03*
X165250000Y-117350000D03*
X165250000Y-117850000D03*
X165250000Y-118350000D03*
X165250000Y-118850000D03*
X165250000Y-119350000D03*
D13*
X140821400Y-111428900D03*
X142421400Y-111428900D03*
D14*
X146625100Y-105270400D03*
X148325100Y-105270400D03*
D15*
G36*
X144887764Y-112552218D02*
G01*
X144904266Y-112554666D01*
X144920449Y-112558719D01*
X144936157Y-112564339D01*
X144951238Y-112571472D01*
X144965548Y-112580049D01*
X144978948Y-112589987D01*
X144991309Y-112601191D01*
X145002513Y-112613552D01*
X145012451Y-112626952D01*
X145021028Y-112641262D01*
X145028161Y-112656343D01*
X145033781Y-112672051D01*
X145037834Y-112688234D01*
X145040282Y-112704736D01*
X145041101Y-112721399D01*
X145041101Y-112721401D01*
X145040282Y-112738064D01*
X145037834Y-112754566D01*
X145033781Y-112770749D01*
X145028161Y-112786457D01*
X145021028Y-112801538D01*
X145012451Y-112815848D01*
X145002513Y-112829248D01*
X144991309Y-112841609D01*
X144978948Y-112852813D01*
X144965548Y-112862751D01*
X144951238Y-112871328D01*
X144936157Y-112878461D01*
X144920449Y-112884081D01*
X144904266Y-112888134D01*
X144887764Y-112890582D01*
X144871101Y-112891401D01*
X144871099Y-112891401D01*
X144854436Y-112890582D01*
X144837934Y-112888134D01*
X144821751Y-112884081D01*
X144806043Y-112878461D01*
X144790962Y-112871328D01*
X144776652Y-112862751D01*
X144763252Y-112852813D01*
X144750891Y-112841609D01*
X144739687Y-112829248D01*
X144729749Y-112815848D01*
X144721172Y-112801538D01*
X144714039Y-112786457D01*
X144708419Y-112770749D01*
X144704366Y-112754566D01*
X144701918Y-112738064D01*
X144701099Y-112721401D01*
X144701099Y-112721399D01*
X144701918Y-112704736D01*
X144704366Y-112688234D01*
X144708419Y-112672051D01*
X144714039Y-112656343D01*
X144721172Y-112641262D01*
X144729749Y-112626952D01*
X144739687Y-112613552D01*
X144750891Y-112601191D01*
X144763252Y-112589987D01*
X144776652Y-112580049D01*
X144790962Y-112571472D01*
X144806043Y-112564339D01*
X144821751Y-112558719D01*
X144837934Y-112554666D01*
X144854436Y-112552218D01*
X144871099Y-112551399D01*
X144871101Y-112551399D01*
X144887764Y-112552218D01*
X144887764Y-112552218D01*
G37*
D16*
X144871100Y-112721400D03*
D15*
G36*
X145687764Y-112552218D02*
G01*
X145704266Y-112554666D01*
X145720449Y-112558719D01*
X145736157Y-112564339D01*
X145751238Y-112571472D01*
X145765548Y-112580049D01*
X145778948Y-112589987D01*
X145791309Y-112601191D01*
X145802513Y-112613552D01*
X145812451Y-112626952D01*
X145821028Y-112641262D01*
X145828161Y-112656343D01*
X145833781Y-112672051D01*
X145837834Y-112688234D01*
X145840282Y-112704736D01*
X145841101Y-112721399D01*
X145841101Y-112721401D01*
X145840282Y-112738064D01*
X145837834Y-112754566D01*
X145833781Y-112770749D01*
X145828161Y-112786457D01*
X145821028Y-112801538D01*
X145812451Y-112815848D01*
X145802513Y-112829248D01*
X145791309Y-112841609D01*
X145778948Y-112852813D01*
X145765548Y-112862751D01*
X145751238Y-112871328D01*
X145736157Y-112878461D01*
X145720449Y-112884081D01*
X145704266Y-112888134D01*
X145687764Y-112890582D01*
X145671101Y-112891401D01*
X145671099Y-112891401D01*
X145654436Y-112890582D01*
X145637934Y-112888134D01*
X145621751Y-112884081D01*
X145606043Y-112878461D01*
X145590962Y-112871328D01*
X145576652Y-112862751D01*
X145563252Y-112852813D01*
X145550891Y-112841609D01*
X145539687Y-112829248D01*
X145529749Y-112815848D01*
X145521172Y-112801538D01*
X145514039Y-112786457D01*
X145508419Y-112770749D01*
X145504366Y-112754566D01*
X145501918Y-112738064D01*
X145501099Y-112721401D01*
X145501099Y-112721399D01*
X145501918Y-112704736D01*
X145504366Y-112688234D01*
X145508419Y-112672051D01*
X145514039Y-112656343D01*
X145521172Y-112641262D01*
X145529749Y-112626952D01*
X145539687Y-112613552D01*
X145550891Y-112601191D01*
X145563252Y-112589987D01*
X145576652Y-112580049D01*
X145590962Y-112571472D01*
X145606043Y-112564339D01*
X145621751Y-112558719D01*
X145637934Y-112554666D01*
X145654436Y-112552218D01*
X145671099Y-112551399D01*
X145671101Y-112551399D01*
X145687764Y-112552218D01*
X145687764Y-112552218D01*
G37*
D16*
X145671100Y-112721400D03*
D15*
G36*
X146487764Y-112552218D02*
G01*
X146504266Y-112554666D01*
X146520449Y-112558719D01*
X146536157Y-112564339D01*
X146551238Y-112571472D01*
X146565548Y-112580049D01*
X146578948Y-112589987D01*
X146591309Y-112601191D01*
X146602513Y-112613552D01*
X146612451Y-112626952D01*
X146621028Y-112641262D01*
X146628161Y-112656343D01*
X146633781Y-112672051D01*
X146637834Y-112688234D01*
X146640282Y-112704736D01*
X146641101Y-112721399D01*
X146641101Y-112721401D01*
X146640282Y-112738064D01*
X146637834Y-112754566D01*
X146633781Y-112770749D01*
X146628161Y-112786457D01*
X146621028Y-112801538D01*
X146612451Y-112815848D01*
X146602513Y-112829248D01*
X146591309Y-112841609D01*
X146578948Y-112852813D01*
X146565548Y-112862751D01*
X146551238Y-112871328D01*
X146536157Y-112878461D01*
X146520449Y-112884081D01*
X146504266Y-112888134D01*
X146487764Y-112890582D01*
X146471101Y-112891401D01*
X146471099Y-112891401D01*
X146454436Y-112890582D01*
X146437934Y-112888134D01*
X146421751Y-112884081D01*
X146406043Y-112878461D01*
X146390962Y-112871328D01*
X146376652Y-112862751D01*
X146363252Y-112852813D01*
X146350891Y-112841609D01*
X146339687Y-112829248D01*
X146329749Y-112815848D01*
X146321172Y-112801538D01*
X146314039Y-112786457D01*
X146308419Y-112770749D01*
X146304366Y-112754566D01*
X146301918Y-112738064D01*
X146301099Y-112721401D01*
X146301099Y-112721399D01*
X146301918Y-112704736D01*
X146304366Y-112688234D01*
X146308419Y-112672051D01*
X146314039Y-112656343D01*
X146321172Y-112641262D01*
X146329749Y-112626952D01*
X146339687Y-112613552D01*
X146350891Y-112601191D01*
X146363252Y-112589987D01*
X146376652Y-112580049D01*
X146390962Y-112571472D01*
X146406043Y-112564339D01*
X146421751Y-112558719D01*
X146437934Y-112554666D01*
X146454436Y-112552218D01*
X146471099Y-112551399D01*
X146471101Y-112551399D01*
X146487764Y-112552218D01*
X146487764Y-112552218D01*
G37*
D16*
X146471100Y-112721400D03*
D15*
G36*
X147287764Y-112552218D02*
G01*
X147304266Y-112554666D01*
X147320449Y-112558719D01*
X147336157Y-112564339D01*
X147351238Y-112571472D01*
X147365548Y-112580049D01*
X147378948Y-112589987D01*
X147391309Y-112601191D01*
X147402513Y-112613552D01*
X147412451Y-112626952D01*
X147421028Y-112641262D01*
X147428161Y-112656343D01*
X147433781Y-112672051D01*
X147437834Y-112688234D01*
X147440282Y-112704736D01*
X147441101Y-112721399D01*
X147441101Y-112721401D01*
X147440282Y-112738064D01*
X147437834Y-112754566D01*
X147433781Y-112770749D01*
X147428161Y-112786457D01*
X147421028Y-112801538D01*
X147412451Y-112815848D01*
X147402513Y-112829248D01*
X147391309Y-112841609D01*
X147378948Y-112852813D01*
X147365548Y-112862751D01*
X147351238Y-112871328D01*
X147336157Y-112878461D01*
X147320449Y-112884081D01*
X147304266Y-112888134D01*
X147287764Y-112890582D01*
X147271101Y-112891401D01*
X147271099Y-112891401D01*
X147254436Y-112890582D01*
X147237934Y-112888134D01*
X147221751Y-112884081D01*
X147206043Y-112878461D01*
X147190962Y-112871328D01*
X147176652Y-112862751D01*
X147163252Y-112852813D01*
X147150891Y-112841609D01*
X147139687Y-112829248D01*
X147129749Y-112815848D01*
X147121172Y-112801538D01*
X147114039Y-112786457D01*
X147108419Y-112770749D01*
X147104366Y-112754566D01*
X147101918Y-112738064D01*
X147101099Y-112721401D01*
X147101099Y-112721399D01*
X147101918Y-112704736D01*
X147104366Y-112688234D01*
X147108419Y-112672051D01*
X147114039Y-112656343D01*
X147121172Y-112641262D01*
X147129749Y-112626952D01*
X147139687Y-112613552D01*
X147150891Y-112601191D01*
X147163252Y-112589987D01*
X147176652Y-112580049D01*
X147190962Y-112571472D01*
X147206043Y-112564339D01*
X147221751Y-112558719D01*
X147237934Y-112554666D01*
X147254436Y-112552218D01*
X147271099Y-112551399D01*
X147271101Y-112551399D01*
X147287764Y-112552218D01*
X147287764Y-112552218D01*
G37*
D16*
X147271100Y-112721400D03*
D15*
G36*
X144087764Y-113302218D02*
G01*
X144104266Y-113304666D01*
X144120449Y-113308719D01*
X144136157Y-113314339D01*
X144151238Y-113321472D01*
X144165548Y-113330049D01*
X144178948Y-113339987D01*
X144191309Y-113351191D01*
X144202513Y-113363552D01*
X144212451Y-113376952D01*
X144221028Y-113391262D01*
X144228161Y-113406343D01*
X144233781Y-113422051D01*
X144237834Y-113438234D01*
X144240282Y-113454736D01*
X144241101Y-113471399D01*
X144241101Y-113471401D01*
X144240282Y-113488064D01*
X144237834Y-113504566D01*
X144233781Y-113520749D01*
X144228161Y-113536457D01*
X144221028Y-113551538D01*
X144212451Y-113565848D01*
X144202513Y-113579248D01*
X144191309Y-113591609D01*
X144178948Y-113602813D01*
X144165548Y-113612751D01*
X144151238Y-113621328D01*
X144136157Y-113628461D01*
X144120449Y-113634081D01*
X144104266Y-113638134D01*
X144087764Y-113640582D01*
X144071101Y-113641401D01*
X144071099Y-113641401D01*
X144054436Y-113640582D01*
X144037934Y-113638134D01*
X144021751Y-113634081D01*
X144006043Y-113628461D01*
X143990962Y-113621328D01*
X143976652Y-113612751D01*
X143963252Y-113602813D01*
X143950891Y-113591609D01*
X143939687Y-113579248D01*
X143929749Y-113565848D01*
X143921172Y-113551538D01*
X143914039Y-113536457D01*
X143908419Y-113520749D01*
X143904366Y-113504566D01*
X143901918Y-113488064D01*
X143901099Y-113471401D01*
X143901099Y-113471399D01*
X143901918Y-113454736D01*
X143904366Y-113438234D01*
X143908419Y-113422051D01*
X143914039Y-113406343D01*
X143921172Y-113391262D01*
X143929749Y-113376952D01*
X143939687Y-113363552D01*
X143950891Y-113351191D01*
X143963252Y-113339987D01*
X143976652Y-113330049D01*
X143990962Y-113321472D01*
X144006043Y-113314339D01*
X144021751Y-113308719D01*
X144037934Y-113304666D01*
X144054436Y-113302218D01*
X144071099Y-113301399D01*
X144071101Y-113301399D01*
X144087764Y-113302218D01*
X144087764Y-113302218D01*
G37*
D16*
X144071100Y-113471400D03*
D15*
G36*
X144087764Y-112552218D02*
G01*
X144104266Y-112554666D01*
X144120449Y-112558719D01*
X144136157Y-112564339D01*
X144151238Y-112571472D01*
X144165548Y-112580049D01*
X144178948Y-112589987D01*
X144191309Y-112601191D01*
X144202513Y-112613552D01*
X144212451Y-112626952D01*
X144221028Y-112641262D01*
X144228161Y-112656343D01*
X144233781Y-112672051D01*
X144237834Y-112688234D01*
X144240282Y-112704736D01*
X144241101Y-112721399D01*
X144241101Y-112721401D01*
X144240282Y-112738064D01*
X144237834Y-112754566D01*
X144233781Y-112770749D01*
X144228161Y-112786457D01*
X144221028Y-112801538D01*
X144212451Y-112815848D01*
X144202513Y-112829248D01*
X144191309Y-112841609D01*
X144178948Y-112852813D01*
X144165548Y-112862751D01*
X144151238Y-112871328D01*
X144136157Y-112878461D01*
X144120449Y-112884081D01*
X144104266Y-112888134D01*
X144087764Y-112890582D01*
X144071101Y-112891401D01*
X144071099Y-112891401D01*
X144054436Y-112890582D01*
X144037934Y-112888134D01*
X144021751Y-112884081D01*
X144006043Y-112878461D01*
X143990962Y-112871328D01*
X143976652Y-112862751D01*
X143963252Y-112852813D01*
X143950891Y-112841609D01*
X143939687Y-112829248D01*
X143929749Y-112815848D01*
X143921172Y-112801538D01*
X143914039Y-112786457D01*
X143908419Y-112770749D01*
X143904366Y-112754566D01*
X143901918Y-112738064D01*
X143901099Y-112721401D01*
X143901099Y-112721399D01*
X143901918Y-112704736D01*
X143904366Y-112688234D01*
X143908419Y-112672051D01*
X143914039Y-112656343D01*
X143921172Y-112641262D01*
X143929749Y-112626952D01*
X143939687Y-112613552D01*
X143950891Y-112601191D01*
X143963252Y-112589987D01*
X143976652Y-112580049D01*
X143990962Y-112571472D01*
X144006043Y-112564339D01*
X144021751Y-112558719D01*
X144037934Y-112554666D01*
X144054436Y-112552218D01*
X144071099Y-112551399D01*
X144071101Y-112551399D01*
X144087764Y-112552218D01*
X144087764Y-112552218D01*
G37*
D16*
X144071100Y-112721400D03*
D15*
G36*
X144087764Y-111802218D02*
G01*
X144104266Y-111804666D01*
X144120449Y-111808719D01*
X144136157Y-111814339D01*
X144151238Y-111821472D01*
X144165548Y-111830049D01*
X144178948Y-111839987D01*
X144191309Y-111851191D01*
X144202513Y-111863552D01*
X144212451Y-111876952D01*
X144221028Y-111891262D01*
X144228161Y-111906343D01*
X144233781Y-111922051D01*
X144237834Y-111938234D01*
X144240282Y-111954736D01*
X144241101Y-111971399D01*
X144241101Y-111971401D01*
X144240282Y-111988064D01*
X144237834Y-112004566D01*
X144233781Y-112020749D01*
X144228161Y-112036457D01*
X144221028Y-112051538D01*
X144212451Y-112065848D01*
X144202513Y-112079248D01*
X144191309Y-112091609D01*
X144178948Y-112102813D01*
X144165548Y-112112751D01*
X144151238Y-112121328D01*
X144136157Y-112128461D01*
X144120449Y-112134081D01*
X144104266Y-112138134D01*
X144087764Y-112140582D01*
X144071101Y-112141401D01*
X144071099Y-112141401D01*
X144054436Y-112140582D01*
X144037934Y-112138134D01*
X144021751Y-112134081D01*
X144006043Y-112128461D01*
X143990962Y-112121328D01*
X143976652Y-112112751D01*
X143963252Y-112102813D01*
X143950891Y-112091609D01*
X143939687Y-112079248D01*
X143929749Y-112065848D01*
X143921172Y-112051538D01*
X143914039Y-112036457D01*
X143908419Y-112020749D01*
X143904366Y-112004566D01*
X143901918Y-111988064D01*
X143901099Y-111971401D01*
X143901099Y-111971399D01*
X143901918Y-111954736D01*
X143904366Y-111938234D01*
X143908419Y-111922051D01*
X143914039Y-111906343D01*
X143921172Y-111891262D01*
X143929749Y-111876952D01*
X143939687Y-111863552D01*
X143950891Y-111851191D01*
X143963252Y-111839987D01*
X143976652Y-111830049D01*
X143990962Y-111821472D01*
X144006043Y-111814339D01*
X144021751Y-111808719D01*
X144037934Y-111804666D01*
X144054436Y-111802218D01*
X144071099Y-111801399D01*
X144071101Y-111801399D01*
X144087764Y-111802218D01*
X144087764Y-111802218D01*
G37*
D16*
X144071100Y-111971400D03*
D15*
G36*
X144087764Y-111052218D02*
G01*
X144104266Y-111054666D01*
X144120449Y-111058719D01*
X144136157Y-111064339D01*
X144151238Y-111071472D01*
X144165548Y-111080049D01*
X144178948Y-111089987D01*
X144191309Y-111101191D01*
X144202513Y-111113552D01*
X144212451Y-111126952D01*
X144221028Y-111141262D01*
X144228161Y-111156343D01*
X144233781Y-111172051D01*
X144237834Y-111188234D01*
X144240282Y-111204736D01*
X144241101Y-111221399D01*
X144241101Y-111221401D01*
X144240282Y-111238064D01*
X144237834Y-111254566D01*
X144233781Y-111270749D01*
X144228161Y-111286457D01*
X144221028Y-111301538D01*
X144212451Y-111315848D01*
X144202513Y-111329248D01*
X144191309Y-111341609D01*
X144178948Y-111352813D01*
X144165548Y-111362751D01*
X144151238Y-111371328D01*
X144136157Y-111378461D01*
X144120449Y-111384081D01*
X144104266Y-111388134D01*
X144087764Y-111390582D01*
X144071101Y-111391401D01*
X144071099Y-111391401D01*
X144054436Y-111390582D01*
X144037934Y-111388134D01*
X144021751Y-111384081D01*
X144006043Y-111378461D01*
X143990962Y-111371328D01*
X143976652Y-111362751D01*
X143963252Y-111352813D01*
X143950891Y-111341609D01*
X143939687Y-111329248D01*
X143929749Y-111315848D01*
X143921172Y-111301538D01*
X143914039Y-111286457D01*
X143908419Y-111270749D01*
X143904366Y-111254566D01*
X143901918Y-111238064D01*
X143901099Y-111221401D01*
X143901099Y-111221399D01*
X143901918Y-111204736D01*
X143904366Y-111188234D01*
X143908419Y-111172051D01*
X143914039Y-111156343D01*
X143921172Y-111141262D01*
X143929749Y-111126952D01*
X143939687Y-111113552D01*
X143950891Y-111101191D01*
X143963252Y-111089987D01*
X143976652Y-111080049D01*
X143990962Y-111071472D01*
X144006043Y-111064339D01*
X144021751Y-111058719D01*
X144037934Y-111054666D01*
X144054436Y-111052218D01*
X144071099Y-111051399D01*
X144071101Y-111051399D01*
X144087764Y-111052218D01*
X144087764Y-111052218D01*
G37*
D16*
X144071100Y-111221400D03*
D15*
G36*
X144887764Y-113302218D02*
G01*
X144904266Y-113304666D01*
X144920449Y-113308719D01*
X144936157Y-113314339D01*
X144951238Y-113321472D01*
X144965548Y-113330049D01*
X144978948Y-113339987D01*
X144991309Y-113351191D01*
X145002513Y-113363552D01*
X145012451Y-113376952D01*
X145021028Y-113391262D01*
X145028161Y-113406343D01*
X145033781Y-113422051D01*
X145037834Y-113438234D01*
X145040282Y-113454736D01*
X145041101Y-113471399D01*
X145041101Y-113471401D01*
X145040282Y-113488064D01*
X145037834Y-113504566D01*
X145033781Y-113520749D01*
X145028161Y-113536457D01*
X145021028Y-113551538D01*
X145012451Y-113565848D01*
X145002513Y-113579248D01*
X144991309Y-113591609D01*
X144978948Y-113602813D01*
X144965548Y-113612751D01*
X144951238Y-113621328D01*
X144936157Y-113628461D01*
X144920449Y-113634081D01*
X144904266Y-113638134D01*
X144887764Y-113640582D01*
X144871101Y-113641401D01*
X144871099Y-113641401D01*
X144854436Y-113640582D01*
X144837934Y-113638134D01*
X144821751Y-113634081D01*
X144806043Y-113628461D01*
X144790962Y-113621328D01*
X144776652Y-113612751D01*
X144763252Y-113602813D01*
X144750891Y-113591609D01*
X144739687Y-113579248D01*
X144729749Y-113565848D01*
X144721172Y-113551538D01*
X144714039Y-113536457D01*
X144708419Y-113520749D01*
X144704366Y-113504566D01*
X144701918Y-113488064D01*
X144701099Y-113471401D01*
X144701099Y-113471399D01*
X144701918Y-113454736D01*
X144704366Y-113438234D01*
X144708419Y-113422051D01*
X144714039Y-113406343D01*
X144721172Y-113391262D01*
X144729749Y-113376952D01*
X144739687Y-113363552D01*
X144750891Y-113351191D01*
X144763252Y-113339987D01*
X144776652Y-113330049D01*
X144790962Y-113321472D01*
X144806043Y-113314339D01*
X144821751Y-113308719D01*
X144837934Y-113304666D01*
X144854436Y-113302218D01*
X144871099Y-113301399D01*
X144871101Y-113301399D01*
X144887764Y-113302218D01*
X144887764Y-113302218D01*
G37*
D16*
X144871100Y-113471400D03*
D15*
G36*
X145687764Y-113302218D02*
G01*
X145704266Y-113304666D01*
X145720449Y-113308719D01*
X145736157Y-113314339D01*
X145751238Y-113321472D01*
X145765548Y-113330049D01*
X145778948Y-113339987D01*
X145791309Y-113351191D01*
X145802513Y-113363552D01*
X145812451Y-113376952D01*
X145821028Y-113391262D01*
X145828161Y-113406343D01*
X145833781Y-113422051D01*
X145837834Y-113438234D01*
X145840282Y-113454736D01*
X145841101Y-113471399D01*
X145841101Y-113471401D01*
X145840282Y-113488064D01*
X145837834Y-113504566D01*
X145833781Y-113520749D01*
X145828161Y-113536457D01*
X145821028Y-113551538D01*
X145812451Y-113565848D01*
X145802513Y-113579248D01*
X145791309Y-113591609D01*
X145778948Y-113602813D01*
X145765548Y-113612751D01*
X145751238Y-113621328D01*
X145736157Y-113628461D01*
X145720449Y-113634081D01*
X145704266Y-113638134D01*
X145687764Y-113640582D01*
X145671101Y-113641401D01*
X145671099Y-113641401D01*
X145654436Y-113640582D01*
X145637934Y-113638134D01*
X145621751Y-113634081D01*
X145606043Y-113628461D01*
X145590962Y-113621328D01*
X145576652Y-113612751D01*
X145563252Y-113602813D01*
X145550891Y-113591609D01*
X145539687Y-113579248D01*
X145529749Y-113565848D01*
X145521172Y-113551538D01*
X145514039Y-113536457D01*
X145508419Y-113520749D01*
X145504366Y-113504566D01*
X145501918Y-113488064D01*
X145501099Y-113471401D01*
X145501099Y-113471399D01*
X145501918Y-113454736D01*
X145504366Y-113438234D01*
X145508419Y-113422051D01*
X145514039Y-113406343D01*
X145521172Y-113391262D01*
X145529749Y-113376952D01*
X145539687Y-113363552D01*
X145550891Y-113351191D01*
X145563252Y-113339987D01*
X145576652Y-113330049D01*
X145590962Y-113321472D01*
X145606043Y-113314339D01*
X145621751Y-113308719D01*
X145637934Y-113304666D01*
X145654436Y-113302218D01*
X145671099Y-113301399D01*
X145671101Y-113301399D01*
X145687764Y-113302218D01*
X145687764Y-113302218D01*
G37*
D16*
X145671100Y-113471400D03*
D15*
G36*
X146487764Y-113302218D02*
G01*
X146504266Y-113304666D01*
X146520449Y-113308719D01*
X146536157Y-113314339D01*
X146551238Y-113321472D01*
X146565548Y-113330049D01*
X146578948Y-113339987D01*
X146591309Y-113351191D01*
X146602513Y-113363552D01*
X146612451Y-113376952D01*
X146621028Y-113391262D01*
X146628161Y-113406343D01*
X146633781Y-113422051D01*
X146637834Y-113438234D01*
X146640282Y-113454736D01*
X146641101Y-113471399D01*
X146641101Y-113471401D01*
X146640282Y-113488064D01*
X146637834Y-113504566D01*
X146633781Y-113520749D01*
X146628161Y-113536457D01*
X146621028Y-113551538D01*
X146612451Y-113565848D01*
X146602513Y-113579248D01*
X146591309Y-113591609D01*
X146578948Y-113602813D01*
X146565548Y-113612751D01*
X146551238Y-113621328D01*
X146536157Y-113628461D01*
X146520449Y-113634081D01*
X146504266Y-113638134D01*
X146487764Y-113640582D01*
X146471101Y-113641401D01*
X146471099Y-113641401D01*
X146454436Y-113640582D01*
X146437934Y-113638134D01*
X146421751Y-113634081D01*
X146406043Y-113628461D01*
X146390962Y-113621328D01*
X146376652Y-113612751D01*
X146363252Y-113602813D01*
X146350891Y-113591609D01*
X146339687Y-113579248D01*
X146329749Y-113565848D01*
X146321172Y-113551538D01*
X146314039Y-113536457D01*
X146308419Y-113520749D01*
X146304366Y-113504566D01*
X146301918Y-113488064D01*
X146301099Y-113471401D01*
X146301099Y-113471399D01*
X146301918Y-113454736D01*
X146304366Y-113438234D01*
X146308419Y-113422051D01*
X146314039Y-113406343D01*
X146321172Y-113391262D01*
X146329749Y-113376952D01*
X146339687Y-113363552D01*
X146350891Y-113351191D01*
X146363252Y-113339987D01*
X146376652Y-113330049D01*
X146390962Y-113321472D01*
X146406043Y-113314339D01*
X146421751Y-113308719D01*
X146437934Y-113304666D01*
X146454436Y-113302218D01*
X146471099Y-113301399D01*
X146471101Y-113301399D01*
X146487764Y-113302218D01*
X146487764Y-113302218D01*
G37*
D16*
X146471100Y-113471400D03*
D15*
G36*
X147287764Y-113302218D02*
G01*
X147304266Y-113304666D01*
X147320449Y-113308719D01*
X147336157Y-113314339D01*
X147351238Y-113321472D01*
X147365548Y-113330049D01*
X147378948Y-113339987D01*
X147391309Y-113351191D01*
X147402513Y-113363552D01*
X147412451Y-113376952D01*
X147421028Y-113391262D01*
X147428161Y-113406343D01*
X147433781Y-113422051D01*
X147437834Y-113438234D01*
X147440282Y-113454736D01*
X147441101Y-113471399D01*
X147441101Y-113471401D01*
X147440282Y-113488064D01*
X147437834Y-113504566D01*
X147433781Y-113520749D01*
X147428161Y-113536457D01*
X147421028Y-113551538D01*
X147412451Y-113565848D01*
X147402513Y-113579248D01*
X147391309Y-113591609D01*
X147378948Y-113602813D01*
X147365548Y-113612751D01*
X147351238Y-113621328D01*
X147336157Y-113628461D01*
X147320449Y-113634081D01*
X147304266Y-113638134D01*
X147287764Y-113640582D01*
X147271101Y-113641401D01*
X147271099Y-113641401D01*
X147254436Y-113640582D01*
X147237934Y-113638134D01*
X147221751Y-113634081D01*
X147206043Y-113628461D01*
X147190962Y-113621328D01*
X147176652Y-113612751D01*
X147163252Y-113602813D01*
X147150891Y-113591609D01*
X147139687Y-113579248D01*
X147129749Y-113565848D01*
X147121172Y-113551538D01*
X147114039Y-113536457D01*
X147108419Y-113520749D01*
X147104366Y-113504566D01*
X147101918Y-113488064D01*
X147101099Y-113471401D01*
X147101099Y-113471399D01*
X147101918Y-113454736D01*
X147104366Y-113438234D01*
X147108419Y-113422051D01*
X147114039Y-113406343D01*
X147121172Y-113391262D01*
X147129749Y-113376952D01*
X147139687Y-113363552D01*
X147150891Y-113351191D01*
X147163252Y-113339987D01*
X147176652Y-113330049D01*
X147190962Y-113321472D01*
X147206043Y-113314339D01*
X147221751Y-113308719D01*
X147237934Y-113304666D01*
X147254436Y-113302218D01*
X147271099Y-113301399D01*
X147271101Y-113301399D01*
X147287764Y-113302218D01*
X147287764Y-113302218D01*
G37*
D16*
X147271100Y-113471400D03*
D15*
G36*
X148087764Y-111802218D02*
G01*
X148104266Y-111804666D01*
X148120449Y-111808719D01*
X148136157Y-111814339D01*
X148151238Y-111821472D01*
X148165548Y-111830049D01*
X148178948Y-111839987D01*
X148191309Y-111851191D01*
X148202513Y-111863552D01*
X148212451Y-111876952D01*
X148221028Y-111891262D01*
X148228161Y-111906343D01*
X148233781Y-111922051D01*
X148237834Y-111938234D01*
X148240282Y-111954736D01*
X148241101Y-111971399D01*
X148241101Y-111971401D01*
X148240282Y-111988064D01*
X148237834Y-112004566D01*
X148233781Y-112020749D01*
X148228161Y-112036457D01*
X148221028Y-112051538D01*
X148212451Y-112065848D01*
X148202513Y-112079248D01*
X148191309Y-112091609D01*
X148178948Y-112102813D01*
X148165548Y-112112751D01*
X148151238Y-112121328D01*
X148136157Y-112128461D01*
X148120449Y-112134081D01*
X148104266Y-112138134D01*
X148087764Y-112140582D01*
X148071101Y-112141401D01*
X148071099Y-112141401D01*
X148054436Y-112140582D01*
X148037934Y-112138134D01*
X148021751Y-112134081D01*
X148006043Y-112128461D01*
X147990962Y-112121328D01*
X147976652Y-112112751D01*
X147963252Y-112102813D01*
X147950891Y-112091609D01*
X147939687Y-112079248D01*
X147929749Y-112065848D01*
X147921172Y-112051538D01*
X147914039Y-112036457D01*
X147908419Y-112020749D01*
X147904366Y-112004566D01*
X147901918Y-111988064D01*
X147901099Y-111971401D01*
X147901099Y-111971399D01*
X147901918Y-111954736D01*
X147904366Y-111938234D01*
X147908419Y-111922051D01*
X147914039Y-111906343D01*
X147921172Y-111891262D01*
X147929749Y-111876952D01*
X147939687Y-111863552D01*
X147950891Y-111851191D01*
X147963252Y-111839987D01*
X147976652Y-111830049D01*
X147990962Y-111821472D01*
X148006043Y-111814339D01*
X148021751Y-111808719D01*
X148037934Y-111804666D01*
X148054436Y-111802218D01*
X148071099Y-111801399D01*
X148071101Y-111801399D01*
X148087764Y-111802218D01*
X148087764Y-111802218D01*
G37*
D16*
X148071100Y-111971400D03*
D15*
G36*
X148087764Y-113302218D02*
G01*
X148104266Y-113304666D01*
X148120449Y-113308719D01*
X148136157Y-113314339D01*
X148151238Y-113321472D01*
X148165548Y-113330049D01*
X148178948Y-113339987D01*
X148191309Y-113351191D01*
X148202513Y-113363552D01*
X148212451Y-113376952D01*
X148221028Y-113391262D01*
X148228161Y-113406343D01*
X148233781Y-113422051D01*
X148237834Y-113438234D01*
X148240282Y-113454736D01*
X148241101Y-113471399D01*
X148241101Y-113471401D01*
X148240282Y-113488064D01*
X148237834Y-113504566D01*
X148233781Y-113520749D01*
X148228161Y-113536457D01*
X148221028Y-113551538D01*
X148212451Y-113565848D01*
X148202513Y-113579248D01*
X148191309Y-113591609D01*
X148178948Y-113602813D01*
X148165548Y-113612751D01*
X148151238Y-113621328D01*
X148136157Y-113628461D01*
X148120449Y-113634081D01*
X148104266Y-113638134D01*
X148087764Y-113640582D01*
X148071101Y-113641401D01*
X148071099Y-113641401D01*
X148054436Y-113640582D01*
X148037934Y-113638134D01*
X148021751Y-113634081D01*
X148006043Y-113628461D01*
X147990962Y-113621328D01*
X147976652Y-113612751D01*
X147963252Y-113602813D01*
X147950891Y-113591609D01*
X147939687Y-113579248D01*
X147929749Y-113565848D01*
X147921172Y-113551538D01*
X147914039Y-113536457D01*
X147908419Y-113520749D01*
X147904366Y-113504566D01*
X147901918Y-113488064D01*
X147901099Y-113471401D01*
X147901099Y-113471399D01*
X147901918Y-113454736D01*
X147904366Y-113438234D01*
X147908419Y-113422051D01*
X147914039Y-113406343D01*
X147921172Y-113391262D01*
X147929749Y-113376952D01*
X147939687Y-113363552D01*
X147950891Y-113351191D01*
X147963252Y-113339987D01*
X147976652Y-113330049D01*
X147990962Y-113321472D01*
X148006043Y-113314339D01*
X148021751Y-113308719D01*
X148037934Y-113304666D01*
X148054436Y-113302218D01*
X148071099Y-113301399D01*
X148071101Y-113301399D01*
X148087764Y-113302218D01*
X148087764Y-113302218D01*
G37*
D16*
X148071100Y-113471400D03*
D15*
G36*
X148087764Y-112552218D02*
G01*
X148104266Y-112554666D01*
X148120449Y-112558719D01*
X148136157Y-112564339D01*
X148151238Y-112571472D01*
X148165548Y-112580049D01*
X148178948Y-112589987D01*
X148191309Y-112601191D01*
X148202513Y-112613552D01*
X148212451Y-112626952D01*
X148221028Y-112641262D01*
X148228161Y-112656343D01*
X148233781Y-112672051D01*
X148237834Y-112688234D01*
X148240282Y-112704736D01*
X148241101Y-112721399D01*
X148241101Y-112721401D01*
X148240282Y-112738064D01*
X148237834Y-112754566D01*
X148233781Y-112770749D01*
X148228161Y-112786457D01*
X148221028Y-112801538D01*
X148212451Y-112815848D01*
X148202513Y-112829248D01*
X148191309Y-112841609D01*
X148178948Y-112852813D01*
X148165548Y-112862751D01*
X148151238Y-112871328D01*
X148136157Y-112878461D01*
X148120449Y-112884081D01*
X148104266Y-112888134D01*
X148087764Y-112890582D01*
X148071101Y-112891401D01*
X148071099Y-112891401D01*
X148054436Y-112890582D01*
X148037934Y-112888134D01*
X148021751Y-112884081D01*
X148006043Y-112878461D01*
X147990962Y-112871328D01*
X147976652Y-112862751D01*
X147963252Y-112852813D01*
X147950891Y-112841609D01*
X147939687Y-112829248D01*
X147929749Y-112815848D01*
X147921172Y-112801538D01*
X147914039Y-112786457D01*
X147908419Y-112770749D01*
X147904366Y-112754566D01*
X147901918Y-112738064D01*
X147901099Y-112721401D01*
X147901099Y-112721399D01*
X147901918Y-112704736D01*
X147904366Y-112688234D01*
X147908419Y-112672051D01*
X147914039Y-112656343D01*
X147921172Y-112641262D01*
X147929749Y-112626952D01*
X147939687Y-112613552D01*
X147950891Y-112601191D01*
X147963252Y-112589987D01*
X147976652Y-112580049D01*
X147990962Y-112571472D01*
X148006043Y-112564339D01*
X148021751Y-112558719D01*
X148037934Y-112554666D01*
X148054436Y-112552218D01*
X148071099Y-112551399D01*
X148071101Y-112551399D01*
X148087764Y-112552218D01*
X148087764Y-112552218D01*
G37*
D16*
X148071100Y-112721400D03*
D15*
G36*
X148087764Y-111052218D02*
G01*
X148104266Y-111054666D01*
X148120449Y-111058719D01*
X148136157Y-111064339D01*
X148151238Y-111071472D01*
X148165548Y-111080049D01*
X148178948Y-111089987D01*
X148191309Y-111101191D01*
X148202513Y-111113552D01*
X148212451Y-111126952D01*
X148221028Y-111141262D01*
X148228161Y-111156343D01*
X148233781Y-111172051D01*
X148237834Y-111188234D01*
X148240282Y-111204736D01*
X148241101Y-111221399D01*
X148241101Y-111221401D01*
X148240282Y-111238064D01*
X148237834Y-111254566D01*
X148233781Y-111270749D01*
X148228161Y-111286457D01*
X148221028Y-111301538D01*
X148212451Y-111315848D01*
X148202513Y-111329248D01*
X148191309Y-111341609D01*
X148178948Y-111352813D01*
X148165548Y-111362751D01*
X148151238Y-111371328D01*
X148136157Y-111378461D01*
X148120449Y-111384081D01*
X148104266Y-111388134D01*
X148087764Y-111390582D01*
X148071101Y-111391401D01*
X148071099Y-111391401D01*
X148054436Y-111390582D01*
X148037934Y-111388134D01*
X148021751Y-111384081D01*
X148006043Y-111378461D01*
X147990962Y-111371328D01*
X147976652Y-111362751D01*
X147963252Y-111352813D01*
X147950891Y-111341609D01*
X147939687Y-111329248D01*
X147929749Y-111315848D01*
X147921172Y-111301538D01*
X147914039Y-111286457D01*
X147908419Y-111270749D01*
X147904366Y-111254566D01*
X147901918Y-111238064D01*
X147901099Y-111221401D01*
X147901099Y-111221399D01*
X147901918Y-111204736D01*
X147904366Y-111188234D01*
X147908419Y-111172051D01*
X147914039Y-111156343D01*
X147921172Y-111141262D01*
X147929749Y-111126952D01*
X147939687Y-111113552D01*
X147950891Y-111101191D01*
X147963252Y-111089987D01*
X147976652Y-111080049D01*
X147990962Y-111071472D01*
X148006043Y-111064339D01*
X148021751Y-111058719D01*
X148037934Y-111054666D01*
X148054436Y-111052218D01*
X148071099Y-111051399D01*
X148071101Y-111051399D01*
X148087764Y-111052218D01*
X148087764Y-111052218D01*
G37*
D16*
X148071100Y-111221400D03*
D15*
G36*
X144087764Y-110302218D02*
G01*
X144104266Y-110304666D01*
X144120449Y-110308719D01*
X144136157Y-110314339D01*
X144151238Y-110321472D01*
X144165548Y-110330049D01*
X144178948Y-110339987D01*
X144191309Y-110351191D01*
X144202513Y-110363552D01*
X144212451Y-110376952D01*
X144221028Y-110391262D01*
X144228161Y-110406343D01*
X144233781Y-110422051D01*
X144237834Y-110438234D01*
X144240282Y-110454736D01*
X144241101Y-110471399D01*
X144241101Y-110471401D01*
X144240282Y-110488064D01*
X144237834Y-110504566D01*
X144233781Y-110520749D01*
X144228161Y-110536457D01*
X144221028Y-110551538D01*
X144212451Y-110565848D01*
X144202513Y-110579248D01*
X144191309Y-110591609D01*
X144178948Y-110602813D01*
X144165548Y-110612751D01*
X144151238Y-110621328D01*
X144136157Y-110628461D01*
X144120449Y-110634081D01*
X144104266Y-110638134D01*
X144087764Y-110640582D01*
X144071101Y-110641401D01*
X144071099Y-110641401D01*
X144054436Y-110640582D01*
X144037934Y-110638134D01*
X144021751Y-110634081D01*
X144006043Y-110628461D01*
X143990962Y-110621328D01*
X143976652Y-110612751D01*
X143963252Y-110602813D01*
X143950891Y-110591609D01*
X143939687Y-110579248D01*
X143929749Y-110565848D01*
X143921172Y-110551538D01*
X143914039Y-110536457D01*
X143908419Y-110520749D01*
X143904366Y-110504566D01*
X143901918Y-110488064D01*
X143901099Y-110471401D01*
X143901099Y-110471399D01*
X143901918Y-110454736D01*
X143904366Y-110438234D01*
X143908419Y-110422051D01*
X143914039Y-110406343D01*
X143921172Y-110391262D01*
X143929749Y-110376952D01*
X143939687Y-110363552D01*
X143950891Y-110351191D01*
X143963252Y-110339987D01*
X143976652Y-110330049D01*
X143990962Y-110321472D01*
X144006043Y-110314339D01*
X144021751Y-110308719D01*
X144037934Y-110304666D01*
X144054436Y-110302218D01*
X144071099Y-110301399D01*
X144071101Y-110301399D01*
X144087764Y-110302218D01*
X144087764Y-110302218D01*
G37*
D16*
X144071100Y-110471400D03*
D15*
G36*
X144887764Y-110302218D02*
G01*
X144904266Y-110304666D01*
X144920449Y-110308719D01*
X144936157Y-110314339D01*
X144951238Y-110321472D01*
X144965548Y-110330049D01*
X144978948Y-110339987D01*
X144991309Y-110351191D01*
X145002513Y-110363552D01*
X145012451Y-110376952D01*
X145021028Y-110391262D01*
X145028161Y-110406343D01*
X145033781Y-110422051D01*
X145037834Y-110438234D01*
X145040282Y-110454736D01*
X145041101Y-110471399D01*
X145041101Y-110471401D01*
X145040282Y-110488064D01*
X145037834Y-110504566D01*
X145033781Y-110520749D01*
X145028161Y-110536457D01*
X145021028Y-110551538D01*
X145012451Y-110565848D01*
X145002513Y-110579248D01*
X144991309Y-110591609D01*
X144978948Y-110602813D01*
X144965548Y-110612751D01*
X144951238Y-110621328D01*
X144936157Y-110628461D01*
X144920449Y-110634081D01*
X144904266Y-110638134D01*
X144887764Y-110640582D01*
X144871101Y-110641401D01*
X144871099Y-110641401D01*
X144854436Y-110640582D01*
X144837934Y-110638134D01*
X144821751Y-110634081D01*
X144806043Y-110628461D01*
X144790962Y-110621328D01*
X144776652Y-110612751D01*
X144763252Y-110602813D01*
X144750891Y-110591609D01*
X144739687Y-110579248D01*
X144729749Y-110565848D01*
X144721172Y-110551538D01*
X144714039Y-110536457D01*
X144708419Y-110520749D01*
X144704366Y-110504566D01*
X144701918Y-110488064D01*
X144701099Y-110471401D01*
X144701099Y-110471399D01*
X144701918Y-110454736D01*
X144704366Y-110438234D01*
X144708419Y-110422051D01*
X144714039Y-110406343D01*
X144721172Y-110391262D01*
X144729749Y-110376952D01*
X144739687Y-110363552D01*
X144750891Y-110351191D01*
X144763252Y-110339987D01*
X144776652Y-110330049D01*
X144790962Y-110321472D01*
X144806043Y-110314339D01*
X144821751Y-110308719D01*
X144837934Y-110304666D01*
X144854436Y-110302218D01*
X144871099Y-110301399D01*
X144871101Y-110301399D01*
X144887764Y-110302218D01*
X144887764Y-110302218D01*
G37*
D16*
X144871100Y-110471400D03*
D15*
G36*
X145687764Y-110302218D02*
G01*
X145704266Y-110304666D01*
X145720449Y-110308719D01*
X145736157Y-110314339D01*
X145751238Y-110321472D01*
X145765548Y-110330049D01*
X145778948Y-110339987D01*
X145791309Y-110351191D01*
X145802513Y-110363552D01*
X145812451Y-110376952D01*
X145821028Y-110391262D01*
X145828161Y-110406343D01*
X145833781Y-110422051D01*
X145837834Y-110438234D01*
X145840282Y-110454736D01*
X145841101Y-110471399D01*
X145841101Y-110471401D01*
X145840282Y-110488064D01*
X145837834Y-110504566D01*
X145833781Y-110520749D01*
X145828161Y-110536457D01*
X145821028Y-110551538D01*
X145812451Y-110565848D01*
X145802513Y-110579248D01*
X145791309Y-110591609D01*
X145778948Y-110602813D01*
X145765548Y-110612751D01*
X145751238Y-110621328D01*
X145736157Y-110628461D01*
X145720449Y-110634081D01*
X145704266Y-110638134D01*
X145687764Y-110640582D01*
X145671101Y-110641401D01*
X145671099Y-110641401D01*
X145654436Y-110640582D01*
X145637934Y-110638134D01*
X145621751Y-110634081D01*
X145606043Y-110628461D01*
X145590962Y-110621328D01*
X145576652Y-110612751D01*
X145563252Y-110602813D01*
X145550891Y-110591609D01*
X145539687Y-110579248D01*
X145529749Y-110565848D01*
X145521172Y-110551538D01*
X145514039Y-110536457D01*
X145508419Y-110520749D01*
X145504366Y-110504566D01*
X145501918Y-110488064D01*
X145501099Y-110471401D01*
X145501099Y-110471399D01*
X145501918Y-110454736D01*
X145504366Y-110438234D01*
X145508419Y-110422051D01*
X145514039Y-110406343D01*
X145521172Y-110391262D01*
X145529749Y-110376952D01*
X145539687Y-110363552D01*
X145550891Y-110351191D01*
X145563252Y-110339987D01*
X145576652Y-110330049D01*
X145590962Y-110321472D01*
X145606043Y-110314339D01*
X145621751Y-110308719D01*
X145637934Y-110304666D01*
X145654436Y-110302218D01*
X145671099Y-110301399D01*
X145671101Y-110301399D01*
X145687764Y-110302218D01*
X145687764Y-110302218D01*
G37*
D16*
X145671100Y-110471400D03*
D15*
G36*
X146487764Y-110302218D02*
G01*
X146504266Y-110304666D01*
X146520449Y-110308719D01*
X146536157Y-110314339D01*
X146551238Y-110321472D01*
X146565548Y-110330049D01*
X146578948Y-110339987D01*
X146591309Y-110351191D01*
X146602513Y-110363552D01*
X146612451Y-110376952D01*
X146621028Y-110391262D01*
X146628161Y-110406343D01*
X146633781Y-110422051D01*
X146637834Y-110438234D01*
X146640282Y-110454736D01*
X146641101Y-110471399D01*
X146641101Y-110471401D01*
X146640282Y-110488064D01*
X146637834Y-110504566D01*
X146633781Y-110520749D01*
X146628161Y-110536457D01*
X146621028Y-110551538D01*
X146612451Y-110565848D01*
X146602513Y-110579248D01*
X146591309Y-110591609D01*
X146578948Y-110602813D01*
X146565548Y-110612751D01*
X146551238Y-110621328D01*
X146536157Y-110628461D01*
X146520449Y-110634081D01*
X146504266Y-110638134D01*
X146487764Y-110640582D01*
X146471101Y-110641401D01*
X146471099Y-110641401D01*
X146454436Y-110640582D01*
X146437934Y-110638134D01*
X146421751Y-110634081D01*
X146406043Y-110628461D01*
X146390962Y-110621328D01*
X146376652Y-110612751D01*
X146363252Y-110602813D01*
X146350891Y-110591609D01*
X146339687Y-110579248D01*
X146329749Y-110565848D01*
X146321172Y-110551538D01*
X146314039Y-110536457D01*
X146308419Y-110520749D01*
X146304366Y-110504566D01*
X146301918Y-110488064D01*
X146301099Y-110471401D01*
X146301099Y-110471399D01*
X146301918Y-110454736D01*
X146304366Y-110438234D01*
X146308419Y-110422051D01*
X146314039Y-110406343D01*
X146321172Y-110391262D01*
X146329749Y-110376952D01*
X146339687Y-110363552D01*
X146350891Y-110351191D01*
X146363252Y-110339987D01*
X146376652Y-110330049D01*
X146390962Y-110321472D01*
X146406043Y-110314339D01*
X146421751Y-110308719D01*
X146437934Y-110304666D01*
X146454436Y-110302218D01*
X146471099Y-110301399D01*
X146471101Y-110301399D01*
X146487764Y-110302218D01*
X146487764Y-110302218D01*
G37*
D16*
X146471100Y-110471400D03*
D15*
G36*
X147287764Y-110302218D02*
G01*
X147304266Y-110304666D01*
X147320449Y-110308719D01*
X147336157Y-110314339D01*
X147351238Y-110321472D01*
X147365548Y-110330049D01*
X147378948Y-110339987D01*
X147391309Y-110351191D01*
X147402513Y-110363552D01*
X147412451Y-110376952D01*
X147421028Y-110391262D01*
X147428161Y-110406343D01*
X147433781Y-110422051D01*
X147437834Y-110438234D01*
X147440282Y-110454736D01*
X147441101Y-110471399D01*
X147441101Y-110471401D01*
X147440282Y-110488064D01*
X147437834Y-110504566D01*
X147433781Y-110520749D01*
X147428161Y-110536457D01*
X147421028Y-110551538D01*
X147412451Y-110565848D01*
X147402513Y-110579248D01*
X147391309Y-110591609D01*
X147378948Y-110602813D01*
X147365548Y-110612751D01*
X147351238Y-110621328D01*
X147336157Y-110628461D01*
X147320449Y-110634081D01*
X147304266Y-110638134D01*
X147287764Y-110640582D01*
X147271101Y-110641401D01*
X147271099Y-110641401D01*
X147254436Y-110640582D01*
X147237934Y-110638134D01*
X147221751Y-110634081D01*
X147206043Y-110628461D01*
X147190962Y-110621328D01*
X147176652Y-110612751D01*
X147163252Y-110602813D01*
X147150891Y-110591609D01*
X147139687Y-110579248D01*
X147129749Y-110565848D01*
X147121172Y-110551538D01*
X147114039Y-110536457D01*
X147108419Y-110520749D01*
X147104366Y-110504566D01*
X147101918Y-110488064D01*
X147101099Y-110471401D01*
X147101099Y-110471399D01*
X147101918Y-110454736D01*
X147104366Y-110438234D01*
X147108419Y-110422051D01*
X147114039Y-110406343D01*
X147121172Y-110391262D01*
X147129749Y-110376952D01*
X147139687Y-110363552D01*
X147150891Y-110351191D01*
X147163252Y-110339987D01*
X147176652Y-110330049D01*
X147190962Y-110321472D01*
X147206043Y-110314339D01*
X147221751Y-110308719D01*
X147237934Y-110304666D01*
X147254436Y-110302218D01*
X147271099Y-110301399D01*
X147271101Y-110301399D01*
X147287764Y-110302218D01*
X147287764Y-110302218D01*
G37*
D16*
X147271100Y-110471400D03*
D15*
G36*
X148087764Y-110302218D02*
G01*
X148104266Y-110304666D01*
X148120449Y-110308719D01*
X148136157Y-110314339D01*
X148151238Y-110321472D01*
X148165548Y-110330049D01*
X148178948Y-110339987D01*
X148191309Y-110351191D01*
X148202513Y-110363552D01*
X148212451Y-110376952D01*
X148221028Y-110391262D01*
X148228161Y-110406343D01*
X148233781Y-110422051D01*
X148237834Y-110438234D01*
X148240282Y-110454736D01*
X148241101Y-110471399D01*
X148241101Y-110471401D01*
X148240282Y-110488064D01*
X148237834Y-110504566D01*
X148233781Y-110520749D01*
X148228161Y-110536457D01*
X148221028Y-110551538D01*
X148212451Y-110565848D01*
X148202513Y-110579248D01*
X148191309Y-110591609D01*
X148178948Y-110602813D01*
X148165548Y-110612751D01*
X148151238Y-110621328D01*
X148136157Y-110628461D01*
X148120449Y-110634081D01*
X148104266Y-110638134D01*
X148087764Y-110640582D01*
X148071101Y-110641401D01*
X148071099Y-110641401D01*
X148054436Y-110640582D01*
X148037934Y-110638134D01*
X148021751Y-110634081D01*
X148006043Y-110628461D01*
X147990962Y-110621328D01*
X147976652Y-110612751D01*
X147963252Y-110602813D01*
X147950891Y-110591609D01*
X147939687Y-110579248D01*
X147929749Y-110565848D01*
X147921172Y-110551538D01*
X147914039Y-110536457D01*
X147908419Y-110520749D01*
X147904366Y-110504566D01*
X147901918Y-110488064D01*
X147901099Y-110471401D01*
X147901099Y-110471399D01*
X147901918Y-110454736D01*
X147904366Y-110438234D01*
X147908419Y-110422051D01*
X147914039Y-110406343D01*
X147921172Y-110391262D01*
X147929749Y-110376952D01*
X147939687Y-110363552D01*
X147950891Y-110351191D01*
X147963252Y-110339987D01*
X147976652Y-110330049D01*
X147990962Y-110321472D01*
X148006043Y-110314339D01*
X148021751Y-110308719D01*
X148037934Y-110304666D01*
X148054436Y-110302218D01*
X148071099Y-110301399D01*
X148071101Y-110301399D01*
X148087764Y-110302218D01*
X148087764Y-110302218D01*
G37*
D16*
X148071100Y-110471400D03*
D15*
G36*
X144087764Y-109552218D02*
G01*
X144104266Y-109554666D01*
X144120449Y-109558719D01*
X144136157Y-109564339D01*
X144151238Y-109571472D01*
X144165548Y-109580049D01*
X144178948Y-109589987D01*
X144191309Y-109601191D01*
X144202513Y-109613552D01*
X144212451Y-109626952D01*
X144221028Y-109641262D01*
X144228161Y-109656343D01*
X144233781Y-109672051D01*
X144237834Y-109688234D01*
X144240282Y-109704736D01*
X144241101Y-109721399D01*
X144241101Y-109721401D01*
X144240282Y-109738064D01*
X144237834Y-109754566D01*
X144233781Y-109770749D01*
X144228161Y-109786457D01*
X144221028Y-109801538D01*
X144212451Y-109815848D01*
X144202513Y-109829248D01*
X144191309Y-109841609D01*
X144178948Y-109852813D01*
X144165548Y-109862751D01*
X144151238Y-109871328D01*
X144136157Y-109878461D01*
X144120449Y-109884081D01*
X144104266Y-109888134D01*
X144087764Y-109890582D01*
X144071101Y-109891401D01*
X144071099Y-109891401D01*
X144054436Y-109890582D01*
X144037934Y-109888134D01*
X144021751Y-109884081D01*
X144006043Y-109878461D01*
X143990962Y-109871328D01*
X143976652Y-109862751D01*
X143963252Y-109852813D01*
X143950891Y-109841609D01*
X143939687Y-109829248D01*
X143929749Y-109815848D01*
X143921172Y-109801538D01*
X143914039Y-109786457D01*
X143908419Y-109770749D01*
X143904366Y-109754566D01*
X143901918Y-109738064D01*
X143901099Y-109721401D01*
X143901099Y-109721399D01*
X143901918Y-109704736D01*
X143904366Y-109688234D01*
X143908419Y-109672051D01*
X143914039Y-109656343D01*
X143921172Y-109641262D01*
X143929749Y-109626952D01*
X143939687Y-109613552D01*
X143950891Y-109601191D01*
X143963252Y-109589987D01*
X143976652Y-109580049D01*
X143990962Y-109571472D01*
X144006043Y-109564339D01*
X144021751Y-109558719D01*
X144037934Y-109554666D01*
X144054436Y-109552218D01*
X144071099Y-109551399D01*
X144071101Y-109551399D01*
X144087764Y-109552218D01*
X144087764Y-109552218D01*
G37*
D16*
X144071100Y-109721400D03*
D15*
G36*
X144887764Y-109552218D02*
G01*
X144904266Y-109554666D01*
X144920449Y-109558719D01*
X144936157Y-109564339D01*
X144951238Y-109571472D01*
X144965548Y-109580049D01*
X144978948Y-109589987D01*
X144991309Y-109601191D01*
X145002513Y-109613552D01*
X145012451Y-109626952D01*
X145021028Y-109641262D01*
X145028161Y-109656343D01*
X145033781Y-109672051D01*
X145037834Y-109688234D01*
X145040282Y-109704736D01*
X145041101Y-109721399D01*
X145041101Y-109721401D01*
X145040282Y-109738064D01*
X145037834Y-109754566D01*
X145033781Y-109770749D01*
X145028161Y-109786457D01*
X145021028Y-109801538D01*
X145012451Y-109815848D01*
X145002513Y-109829248D01*
X144991309Y-109841609D01*
X144978948Y-109852813D01*
X144965548Y-109862751D01*
X144951238Y-109871328D01*
X144936157Y-109878461D01*
X144920449Y-109884081D01*
X144904266Y-109888134D01*
X144887764Y-109890582D01*
X144871101Y-109891401D01*
X144871099Y-109891401D01*
X144854436Y-109890582D01*
X144837934Y-109888134D01*
X144821751Y-109884081D01*
X144806043Y-109878461D01*
X144790962Y-109871328D01*
X144776652Y-109862751D01*
X144763252Y-109852813D01*
X144750891Y-109841609D01*
X144739687Y-109829248D01*
X144729749Y-109815848D01*
X144721172Y-109801538D01*
X144714039Y-109786457D01*
X144708419Y-109770749D01*
X144704366Y-109754566D01*
X144701918Y-109738064D01*
X144701099Y-109721401D01*
X144701099Y-109721399D01*
X144701918Y-109704736D01*
X144704366Y-109688234D01*
X144708419Y-109672051D01*
X144714039Y-109656343D01*
X144721172Y-109641262D01*
X144729749Y-109626952D01*
X144739687Y-109613552D01*
X144750891Y-109601191D01*
X144763252Y-109589987D01*
X144776652Y-109580049D01*
X144790962Y-109571472D01*
X144806043Y-109564339D01*
X144821751Y-109558719D01*
X144837934Y-109554666D01*
X144854436Y-109552218D01*
X144871099Y-109551399D01*
X144871101Y-109551399D01*
X144887764Y-109552218D01*
X144887764Y-109552218D01*
G37*
D16*
X144871100Y-109721400D03*
D15*
G36*
X145687764Y-109552218D02*
G01*
X145704266Y-109554666D01*
X145720449Y-109558719D01*
X145736157Y-109564339D01*
X145751238Y-109571472D01*
X145765548Y-109580049D01*
X145778948Y-109589987D01*
X145791309Y-109601191D01*
X145802513Y-109613552D01*
X145812451Y-109626952D01*
X145821028Y-109641262D01*
X145828161Y-109656343D01*
X145833781Y-109672051D01*
X145837834Y-109688234D01*
X145840282Y-109704736D01*
X145841101Y-109721399D01*
X145841101Y-109721401D01*
X145840282Y-109738064D01*
X145837834Y-109754566D01*
X145833781Y-109770749D01*
X145828161Y-109786457D01*
X145821028Y-109801538D01*
X145812451Y-109815848D01*
X145802513Y-109829248D01*
X145791309Y-109841609D01*
X145778948Y-109852813D01*
X145765548Y-109862751D01*
X145751238Y-109871328D01*
X145736157Y-109878461D01*
X145720449Y-109884081D01*
X145704266Y-109888134D01*
X145687764Y-109890582D01*
X145671101Y-109891401D01*
X145671099Y-109891401D01*
X145654436Y-109890582D01*
X145637934Y-109888134D01*
X145621751Y-109884081D01*
X145606043Y-109878461D01*
X145590962Y-109871328D01*
X145576652Y-109862751D01*
X145563252Y-109852813D01*
X145550891Y-109841609D01*
X145539687Y-109829248D01*
X145529749Y-109815848D01*
X145521172Y-109801538D01*
X145514039Y-109786457D01*
X145508419Y-109770749D01*
X145504366Y-109754566D01*
X145501918Y-109738064D01*
X145501099Y-109721401D01*
X145501099Y-109721399D01*
X145501918Y-109704736D01*
X145504366Y-109688234D01*
X145508419Y-109672051D01*
X145514039Y-109656343D01*
X145521172Y-109641262D01*
X145529749Y-109626952D01*
X145539687Y-109613552D01*
X145550891Y-109601191D01*
X145563252Y-109589987D01*
X145576652Y-109580049D01*
X145590962Y-109571472D01*
X145606043Y-109564339D01*
X145621751Y-109558719D01*
X145637934Y-109554666D01*
X145654436Y-109552218D01*
X145671099Y-109551399D01*
X145671101Y-109551399D01*
X145687764Y-109552218D01*
X145687764Y-109552218D01*
G37*
D16*
X145671100Y-109721400D03*
D15*
G36*
X146487764Y-109552218D02*
G01*
X146504266Y-109554666D01*
X146520449Y-109558719D01*
X146536157Y-109564339D01*
X146551238Y-109571472D01*
X146565548Y-109580049D01*
X146578948Y-109589987D01*
X146591309Y-109601191D01*
X146602513Y-109613552D01*
X146612451Y-109626952D01*
X146621028Y-109641262D01*
X146628161Y-109656343D01*
X146633781Y-109672051D01*
X146637834Y-109688234D01*
X146640282Y-109704736D01*
X146641101Y-109721399D01*
X146641101Y-109721401D01*
X146640282Y-109738064D01*
X146637834Y-109754566D01*
X146633781Y-109770749D01*
X146628161Y-109786457D01*
X146621028Y-109801538D01*
X146612451Y-109815848D01*
X146602513Y-109829248D01*
X146591309Y-109841609D01*
X146578948Y-109852813D01*
X146565548Y-109862751D01*
X146551238Y-109871328D01*
X146536157Y-109878461D01*
X146520449Y-109884081D01*
X146504266Y-109888134D01*
X146487764Y-109890582D01*
X146471101Y-109891401D01*
X146471099Y-109891401D01*
X146454436Y-109890582D01*
X146437934Y-109888134D01*
X146421751Y-109884081D01*
X146406043Y-109878461D01*
X146390962Y-109871328D01*
X146376652Y-109862751D01*
X146363252Y-109852813D01*
X146350891Y-109841609D01*
X146339687Y-109829248D01*
X146329749Y-109815848D01*
X146321172Y-109801538D01*
X146314039Y-109786457D01*
X146308419Y-109770749D01*
X146304366Y-109754566D01*
X146301918Y-109738064D01*
X146301099Y-109721401D01*
X146301099Y-109721399D01*
X146301918Y-109704736D01*
X146304366Y-109688234D01*
X146308419Y-109672051D01*
X146314039Y-109656343D01*
X146321172Y-109641262D01*
X146329749Y-109626952D01*
X146339687Y-109613552D01*
X146350891Y-109601191D01*
X146363252Y-109589987D01*
X146376652Y-109580049D01*
X146390962Y-109571472D01*
X146406043Y-109564339D01*
X146421751Y-109558719D01*
X146437934Y-109554666D01*
X146454436Y-109552218D01*
X146471099Y-109551399D01*
X146471101Y-109551399D01*
X146487764Y-109552218D01*
X146487764Y-109552218D01*
G37*
D16*
X146471100Y-109721400D03*
D15*
G36*
X147287764Y-109552218D02*
G01*
X147304266Y-109554666D01*
X147320449Y-109558719D01*
X147336157Y-109564339D01*
X147351238Y-109571472D01*
X147365548Y-109580049D01*
X147378948Y-109589987D01*
X147391309Y-109601191D01*
X147402513Y-109613552D01*
X147412451Y-109626952D01*
X147421028Y-109641262D01*
X147428161Y-109656343D01*
X147433781Y-109672051D01*
X147437834Y-109688234D01*
X147440282Y-109704736D01*
X147441101Y-109721399D01*
X147441101Y-109721401D01*
X147440282Y-109738064D01*
X147437834Y-109754566D01*
X147433781Y-109770749D01*
X147428161Y-109786457D01*
X147421028Y-109801538D01*
X147412451Y-109815848D01*
X147402513Y-109829248D01*
X147391309Y-109841609D01*
X147378948Y-109852813D01*
X147365548Y-109862751D01*
X147351238Y-109871328D01*
X147336157Y-109878461D01*
X147320449Y-109884081D01*
X147304266Y-109888134D01*
X147287764Y-109890582D01*
X147271101Y-109891401D01*
X147271099Y-109891401D01*
X147254436Y-109890582D01*
X147237934Y-109888134D01*
X147221751Y-109884081D01*
X147206043Y-109878461D01*
X147190962Y-109871328D01*
X147176652Y-109862751D01*
X147163252Y-109852813D01*
X147150891Y-109841609D01*
X147139687Y-109829248D01*
X147129749Y-109815848D01*
X147121172Y-109801538D01*
X147114039Y-109786457D01*
X147108419Y-109770749D01*
X147104366Y-109754566D01*
X147101918Y-109738064D01*
X147101099Y-109721401D01*
X147101099Y-109721399D01*
X147101918Y-109704736D01*
X147104366Y-109688234D01*
X147108419Y-109672051D01*
X147114039Y-109656343D01*
X147121172Y-109641262D01*
X147129749Y-109626952D01*
X147139687Y-109613552D01*
X147150891Y-109601191D01*
X147163252Y-109589987D01*
X147176652Y-109580049D01*
X147190962Y-109571472D01*
X147206043Y-109564339D01*
X147221751Y-109558719D01*
X147237934Y-109554666D01*
X147254436Y-109552218D01*
X147271099Y-109551399D01*
X147271101Y-109551399D01*
X147287764Y-109552218D01*
X147287764Y-109552218D01*
G37*
D16*
X147271100Y-109721400D03*
D15*
G36*
X148087764Y-109552218D02*
G01*
X148104266Y-109554666D01*
X148120449Y-109558719D01*
X148136157Y-109564339D01*
X148151238Y-109571472D01*
X148165548Y-109580049D01*
X148178948Y-109589987D01*
X148191309Y-109601191D01*
X148202513Y-109613552D01*
X148212451Y-109626952D01*
X148221028Y-109641262D01*
X148228161Y-109656343D01*
X148233781Y-109672051D01*
X148237834Y-109688234D01*
X148240282Y-109704736D01*
X148241101Y-109721399D01*
X148241101Y-109721401D01*
X148240282Y-109738064D01*
X148237834Y-109754566D01*
X148233781Y-109770749D01*
X148228161Y-109786457D01*
X148221028Y-109801538D01*
X148212451Y-109815848D01*
X148202513Y-109829248D01*
X148191309Y-109841609D01*
X148178948Y-109852813D01*
X148165548Y-109862751D01*
X148151238Y-109871328D01*
X148136157Y-109878461D01*
X148120449Y-109884081D01*
X148104266Y-109888134D01*
X148087764Y-109890582D01*
X148071101Y-109891401D01*
X148071099Y-109891401D01*
X148054436Y-109890582D01*
X148037934Y-109888134D01*
X148021751Y-109884081D01*
X148006043Y-109878461D01*
X147990962Y-109871328D01*
X147976652Y-109862751D01*
X147963252Y-109852813D01*
X147950891Y-109841609D01*
X147939687Y-109829248D01*
X147929749Y-109815848D01*
X147921172Y-109801538D01*
X147914039Y-109786457D01*
X147908419Y-109770749D01*
X147904366Y-109754566D01*
X147901918Y-109738064D01*
X147901099Y-109721401D01*
X147901099Y-109721399D01*
X147901918Y-109704736D01*
X147904366Y-109688234D01*
X147908419Y-109672051D01*
X147914039Y-109656343D01*
X147921172Y-109641262D01*
X147929749Y-109626952D01*
X147939687Y-109613552D01*
X147950891Y-109601191D01*
X147963252Y-109589987D01*
X147976652Y-109580049D01*
X147990962Y-109571472D01*
X148006043Y-109564339D01*
X148021751Y-109558719D01*
X148037934Y-109554666D01*
X148054436Y-109552218D01*
X148071099Y-109551399D01*
X148071101Y-109551399D01*
X148087764Y-109552218D01*
X148087764Y-109552218D01*
G37*
D16*
X148071100Y-109721400D03*
D13*
X150171100Y-106571400D03*
X150171100Y-108171400D03*
D17*
X148792100Y-115938400D03*
X151592100Y-115938400D03*
D13*
X145044100Y-115671400D03*
X146644100Y-115671400D03*
X150171100Y-110271400D03*
X150171100Y-111871400D03*
D18*
X140721400Y-113128900D03*
X142521400Y-113128900D03*
D13*
X146671106Y-107271371D03*
X148271106Y-107271371D03*
D19*
X154091100Y-125776100D03*
X160691100Y-125776100D03*
D20*
X159246100Y-105821600D03*
X155546100Y-105821600D03*
D21*
X154571100Y-102321600D03*
X154571100Y-96351600D03*
D22*
X165046100Y-94326600D03*
D23*
X165396100Y-95536600D03*
D24*
X165396100Y-96586600D03*
X165396100Y-97686600D03*
X165396100Y-98786600D03*
X165396100Y-99886600D03*
X165396100Y-100986600D03*
X165396100Y-102086600D03*
X165396100Y-103186600D03*
D25*
X165271100Y-105646600D03*
D26*
X160820100Y-120624600D03*
X160820100Y-118084600D03*
X160820100Y-115544600D03*
X160820100Y-113004600D03*
X160820100Y-110464600D03*
X160820100Y-107924600D03*
D27*
X137629900Y-106685080D03*
D28*
X161709100Y-105765600D03*
X159550100Y-121767600D03*
X158661100Y-121767600D03*
D29*
X156248100Y-121259600D03*
D28*
X159246100Y-106958600D03*
D29*
X156248100Y-100431600D03*
D28*
X158026100Y-105130600D03*
X161328100Y-96875600D03*
X161328100Y-97637600D03*
X159569100Y-100558600D03*
X154851100Y-100812600D03*
X154571100Y-94869600D03*
D29*
X165265100Y-104241600D03*
X163369100Y-94326600D03*
X135089900Y-104241600D03*
D28*
X145094100Y-116771400D03*
X151171100Y-110271400D03*
X146971100Y-106234900D03*
X149380100Y-105270400D03*
D29*
X152809100Y-115938400D03*
X131737100Y-100177600D03*
D27*
X135750000Y-124200000D03*
X141700000Y-120700000D03*
X141675000Y-121225000D03*
X148150000Y-123550000D03*
X149771100Y-119735600D03*
X145834100Y-122656600D03*
X164084000Y-117856000D03*
X164050000Y-118808500D03*
D29*
X151188420Y-106542840D03*
D27*
X141587220Y-110467140D03*
X141597380Y-113865660D03*
X141578895Y-113121979D03*
X139843485Y-109283701D03*
X139827000Y-106420920D03*
D28*
X151930100Y-121894600D03*
X157899100Y-118465600D03*
X156248100Y-104114600D03*
X157969100Y-103860600D03*
X157969100Y-94081600D03*
X160369100Y-100558600D03*
X158769100Y-103860600D03*
X161836100Y-100177600D03*
X159569100Y-94081600D03*
X162725100Y-100177600D03*
X158769100Y-94081600D03*
X160369100Y-94081600D03*
X134150100Y-94462600D03*
D29*
X150142100Y-115938400D03*
D27*
X139900000Y-102800000D03*
X144645889Y-112300000D03*
X157250000Y-118200000D03*
X143200000Y-119650000D03*
X163969700Y-120523000D03*
X136692640Y-124541280D03*
X134790180Y-124513340D03*
X133941820Y-119067580D03*
X135658860Y-118668800D03*
X151048720Y-108198920D03*
X155117800Y-118584980D03*
X142831820Y-110586520D03*
X142524480Y-114081560D03*
X139847320Y-109867700D03*
X139867640Y-107340400D03*
X139849860Y-108242100D03*
X141955520Y-103146860D03*
X146006820Y-101625400D03*
X147198080Y-99661980D03*
X143002000Y-97726500D03*
X162966400Y-124899420D03*
X151218900Y-123182380D03*
X152036780Y-123174760D03*
D28*
X149390100Y-125069600D03*
X150152100Y-125069600D03*
X157969100Y-100558600D03*
X158769100Y-100558600D03*
X160369100Y-103860600D03*
D27*
X143200000Y-117000000D03*
D30*
X163600000Y-107950000D03*
D28*
X159569100Y-103860600D03*
D27*
X145492232Y-104283107D03*
D28*
X160369100Y-97383600D03*
D31*
X157137100Y-109956600D03*
D28*
X159569100Y-97383600D03*
D31*
X157137100Y-109194600D03*
D28*
X158769100Y-97383600D03*
X157969100Y-97383600D03*
D27*
X155100000Y-104300000D03*
X154897921Y-115180563D03*
X157065813Y-115968969D03*
X155321000Y-116078000D03*
X157484823Y-117106610D03*
D29*
X136563100Y-104241600D03*
D28*
X133134100Y-94462600D03*
D31*
X147671100Y-112321400D03*
D27*
X143950000Y-104000000D03*
X144250000Y-106350000D03*
X145000000Y-104500000D03*
X145271100Y-106144400D03*
D31*
X148571100Y-112321400D03*
D27*
X149350000Y-104486308D03*
X147450000Y-104486308D03*
X154700000Y-106750000D03*
D31*
X148571100Y-111571400D03*
D28*
X161328100Y-98780600D03*
D27*
X154250000Y-104050000D03*
D31*
X148950000Y-108300000D03*
D27*
X154521501Y-109747657D03*
D31*
X146871100Y-113871400D03*
X144900000Y-114050000D03*
D27*
X146078722Y-112221278D03*
D31*
X143671100Y-110096400D03*
D27*
X139550000Y-113100000D03*
X137150000Y-97550000D03*
X139450000Y-112350000D03*
X139000000Y-96700000D03*
X139500000Y-111600000D03*
X139500000Y-96000000D03*
D31*
X147671100Y-113871400D03*
D27*
X143231000Y-108650000D03*
X141709219Y-108150000D03*
X143550000Y-113200000D03*
X143550000Y-112300000D03*
X137900000Y-98950000D03*
X137650000Y-104850000D03*
X141800000Y-119700000D03*
X138400000Y-119700000D03*
X144950000Y-119700000D03*
X164119560Y-116855240D03*
X159517080Y-116865400D03*
X145300000Y-111750000D03*
X144100000Y-114500000D03*
X141750000Y-118450000D03*
X165249860Y-120027700D03*
D32*
X159246100Y-105821600D02*
X159246100Y-106958600D01*
X165046100Y-94326600D02*
X163369100Y-94326600D01*
X154571100Y-96351600D02*
X154571100Y-94869600D01*
X165265100Y-104241600D02*
X165265100Y-105640600D01*
X165265100Y-105640600D02*
X165271100Y-105646600D01*
X154571100Y-102321600D02*
X154571100Y-101092600D01*
X154571100Y-101092600D02*
X154851100Y-100812600D01*
D33*
X150171100Y-110271400D02*
X151171100Y-110271400D01*
D32*
X145044100Y-115671400D02*
X145044100Y-116771400D01*
D33*
X148071100Y-110471400D02*
X148271100Y-110271400D01*
X148271100Y-110271400D02*
X150171100Y-110271400D01*
D34*
X145671100Y-110471400D02*
X146071100Y-110071400D01*
X146071100Y-110071400D02*
X146071100Y-109171400D01*
D33*
X146071100Y-109171400D02*
X146071100Y-108571400D01*
X146071100Y-108571400D02*
X146671106Y-107971393D01*
X146671106Y-107271371D02*
X146671106Y-107971393D01*
D32*
X146671106Y-107271371D02*
X146671106Y-106534893D01*
X146671106Y-106534893D02*
X146971100Y-106234900D01*
X148325100Y-105270400D02*
X149380100Y-105270400D01*
X151542100Y-115938400D02*
X152809100Y-115938400D01*
D35*
X145044100Y-114921400D02*
X145044100Y-115671400D01*
X145265500Y-114700000D02*
X145044100Y-114921400D01*
X145500000Y-114700000D02*
X145265500Y-114700000D01*
X145500000Y-113912501D02*
X145500000Y-114700000D01*
X145671100Y-113741401D02*
X145500000Y-113912501D01*
X145671100Y-113471400D02*
X145671100Y-113741401D01*
X165250000Y-117850000D02*
X164090000Y-117850000D01*
D34*
X164090000Y-117850000D02*
X164084000Y-117856000D01*
X164091500Y-118850000D02*
X164050000Y-118808500D01*
D35*
X165250000Y-118850000D02*
X164091500Y-118850000D01*
D32*
X151159860Y-106571400D02*
X151188420Y-106542840D01*
X150171100Y-106571400D02*
X151159860Y-106571400D01*
D35*
X140821400Y-111428900D02*
X140821400Y-111232960D01*
X140821400Y-111232960D02*
X141587220Y-110467140D01*
X140721400Y-113128900D02*
X141571974Y-113128900D01*
X141571974Y-113128900D02*
X141578895Y-113121979D01*
D33*
X151930100Y-121894600D02*
X154470100Y-121894600D01*
X154470100Y-121894600D02*
X157899100Y-118465600D01*
D36*
X144871100Y-112721400D02*
X144821100Y-112721400D01*
D32*
X148742100Y-115938400D02*
X150142100Y-115938400D01*
D34*
X144871100Y-112721400D02*
X144871100Y-112525211D01*
X144871100Y-112525211D02*
X144645889Y-112300000D01*
D32*
X150221100Y-108221400D02*
X150171100Y-108171400D01*
D35*
X151021200Y-108171400D02*
X151048720Y-108198920D01*
X150171100Y-108171400D02*
X151021200Y-108171400D01*
X142421400Y-111428900D02*
X142421400Y-110996940D01*
X142421400Y-110996940D02*
X142831820Y-110586520D01*
X142521400Y-113128900D02*
X142521400Y-114078480D01*
X142521400Y-114078480D02*
X142524480Y-114081560D01*
D37*
X162966400Y-124899420D02*
X161249360Y-123182380D01*
X161249360Y-123182380D02*
X151218900Y-123182380D01*
D38*
X165396100Y-103186600D02*
X159721100Y-103186600D01*
X159721100Y-103186600D02*
X157969100Y-101434600D01*
X157969100Y-101434600D02*
X157969100Y-100558600D01*
X165396100Y-102086600D02*
X159421100Y-102086600D01*
X159421100Y-102086600D02*
X158769100Y-101434600D01*
X158769100Y-101434600D02*
X158769100Y-100558600D01*
X160746270Y-103860600D02*
X160369100Y-103860600D01*
X162810600Y-103860600D02*
X160746270Y-103860600D01*
X163600000Y-107950000D02*
X163600000Y-104650000D01*
X163600000Y-104650000D02*
X162810600Y-103860600D01*
D34*
X143800000Y-117600000D02*
X143200000Y-117000000D01*
X153050000Y-117600000D02*
X143800000Y-117600000D01*
X160820100Y-115544600D02*
X155105400Y-115544600D01*
X155105400Y-115544600D02*
X153050000Y-117600000D01*
D38*
X161836100Y-104495600D02*
X162852100Y-105511600D01*
X162852100Y-105511600D02*
X162852100Y-108686600D01*
X159569100Y-103860600D02*
X159569100Y-103879600D01*
X159569100Y-103879600D02*
X160185100Y-104495600D01*
X160185100Y-104495600D02*
X161836100Y-104495600D01*
X145720731Y-104054608D02*
X152504608Y-104054608D01*
X153921201Y-107171201D02*
X155350000Y-108600000D01*
X145492232Y-104283107D02*
X145720731Y-104054608D01*
X153921201Y-105421201D02*
X153921201Y-107171201D01*
D34*
X155350000Y-111200000D02*
X155341250Y-111208750D01*
D38*
X155350000Y-108600000D02*
X155350000Y-111200000D01*
X152554608Y-104054608D02*
X153921201Y-105421201D01*
X162852100Y-108686600D02*
X162852100Y-110397900D01*
X162852100Y-110397900D02*
X161550000Y-111700000D01*
X155850000Y-111700000D02*
X155350000Y-111200000D01*
X161550000Y-111700000D02*
X155850000Y-111700000D01*
X165396100Y-100986600D02*
X161756100Y-100986600D01*
X160369100Y-97383600D02*
X160369100Y-99599600D01*
X160369100Y-99599600D02*
X161756100Y-100986600D01*
X159569100Y-97383600D02*
X159569100Y-97872600D01*
X159569100Y-97872600D02*
X157391100Y-100050600D01*
X157391100Y-100050600D02*
X157391100Y-108559600D01*
X157391100Y-108559600D02*
X157772100Y-108940600D01*
X157137100Y-109956600D02*
X157391100Y-109956600D01*
X157391100Y-109956600D02*
X157772100Y-109575600D01*
X157772100Y-109575600D02*
X157772100Y-108940600D01*
X159569100Y-97383600D02*
X159569100Y-97110600D01*
X159569100Y-97110600D02*
X160566100Y-96113600D01*
X165396100Y-96586600D02*
X164849100Y-96586600D01*
X164849100Y-96586600D02*
X164376100Y-96113600D01*
X164376100Y-96113600D02*
X160566100Y-96113600D01*
X158769100Y-97383600D02*
X158769100Y-97783600D01*
X158769100Y-97783600D02*
X156883100Y-99669600D01*
X156883100Y-99669600D02*
X156883100Y-108940600D01*
X156883100Y-108940600D02*
X157137100Y-109194600D01*
X165396100Y-95536600D02*
X159740100Y-95536600D01*
X159740100Y-95536600D02*
X158769100Y-96507600D01*
X158769100Y-96507600D02*
X158769100Y-97383600D01*
X155613100Y-100050600D02*
X157969100Y-97694600D01*
X157969100Y-97383600D02*
X157969100Y-97694600D01*
X155613100Y-100050600D02*
X155613100Y-105754600D01*
X155613100Y-105754600D02*
X155546100Y-105821600D01*
D39*
X155100000Y-105375500D02*
X155546100Y-105821600D01*
X155100000Y-104300000D02*
X155100000Y-105375500D01*
D34*
X165250000Y-115350000D02*
X162526000Y-115350000D01*
X161539500Y-114363500D02*
X155714984Y-114363500D01*
X155714984Y-114363500D02*
X155126420Y-114952064D01*
X155126420Y-114952064D02*
X154897921Y-115180563D01*
X162526000Y-115350000D02*
X161539500Y-114363500D01*
X161711651Y-116608849D02*
X160275436Y-116608849D01*
X165250000Y-115850000D02*
X162470500Y-115850000D01*
X162470500Y-115850000D02*
X161711651Y-116608849D01*
X157388960Y-115968969D02*
X157065813Y-115968969D01*
X159635556Y-115968969D02*
X157388960Y-115968969D01*
X160275436Y-116608849D02*
X159635556Y-115968969D01*
X164573000Y-116350000D02*
X165250000Y-116350000D01*
X163050000Y-116350000D02*
X164573000Y-116350000D01*
X162537140Y-116862860D02*
X163050000Y-116350000D01*
X159675021Y-116387979D02*
X160149902Y-116862860D01*
X160149902Y-116862860D02*
X162537140Y-116862860D01*
X155321000Y-116078000D02*
X155630979Y-116387979D01*
X155630979Y-116387979D02*
X159675021Y-116387979D01*
X157713322Y-117335109D02*
X157484823Y-117106610D01*
X163114770Y-117350000D02*
X161326069Y-119138701D01*
X165250000Y-117350000D02*
X163114770Y-117350000D01*
X159516914Y-119138701D02*
X157713322Y-117335109D01*
X161326069Y-119138701D02*
X159516914Y-119138701D01*
X147671100Y-112321400D02*
X147721100Y-112321400D01*
X147721100Y-112321400D02*
X148071100Y-111971400D01*
X143550000Y-111450300D02*
X144071100Y-111971400D01*
X143550000Y-110595570D02*
X143550000Y-111450300D01*
X143200000Y-110245570D02*
X143550000Y-110595570D01*
X143650000Y-109250000D02*
X143200000Y-109700000D01*
X143200000Y-109700000D02*
X143200000Y-110245570D01*
X143650000Y-104300000D02*
X143950000Y-104000000D01*
X143650000Y-109250000D02*
X143650000Y-104300000D01*
X144477900Y-110078200D02*
X144871100Y-110471400D01*
X144477900Y-106922100D02*
X144477900Y-110078200D01*
X144250000Y-106350000D02*
X144477900Y-106922100D01*
X145000000Y-105300000D02*
X145000000Y-104500000D01*
X144852099Y-105447901D02*
X145000000Y-105300000D01*
X144852099Y-109432398D02*
X144852099Y-105447901D01*
X144871100Y-109721400D02*
X144871100Y-109451399D01*
X144871100Y-109451399D02*
X144852099Y-109432398D01*
X144071100Y-111221400D02*
X144821100Y-111221400D01*
X144821100Y-111221400D02*
X145271100Y-110771400D01*
X145271100Y-110771400D02*
X145271100Y-106144400D01*
X148571100Y-112321400D02*
X148471100Y-112321400D01*
X148471100Y-112321400D02*
X148071100Y-112721400D01*
X149350000Y-104486308D02*
X147450000Y-104486308D01*
X158153100Y-110591600D02*
X157010100Y-110591600D01*
X160820100Y-107924600D02*
X158153100Y-110591600D01*
X157010100Y-110591600D02*
X156260800Y-109842300D01*
X156260800Y-109842300D02*
X156260800Y-108064300D01*
X156260800Y-108064300D02*
X154900000Y-107000000D01*
X154900000Y-107000000D02*
X154700000Y-106750000D01*
X148421100Y-111571400D02*
X148071100Y-111221400D01*
X148571100Y-111571400D02*
X148421100Y-111571400D01*
D38*
X161328100Y-98780600D02*
X165390100Y-98780600D01*
X165390100Y-98780600D02*
X165396100Y-98786600D01*
D36*
X156883100Y-111099600D02*
X160185100Y-111099600D01*
X156883100Y-111099600D02*
X155740100Y-109956600D01*
X155740100Y-108401600D02*
X155740100Y-109956600D01*
X155740100Y-108401600D02*
X154501100Y-107162600D01*
X160185100Y-111099600D02*
X160820100Y-110464600D01*
D39*
X154250000Y-106911500D02*
X154501100Y-107162600D01*
X154250000Y-104050000D02*
X154250000Y-106911500D01*
D34*
X148671100Y-108321400D02*
X147271100Y-109721400D01*
X148950000Y-108300000D02*
X148671100Y-108321400D01*
X146471100Y-113471400D02*
X146521100Y-113471400D01*
X146521100Y-113471400D02*
X146521100Y-113421400D01*
X146471100Y-113471400D02*
X146471100Y-113741401D01*
X146471100Y-113741401D02*
X146450000Y-113762501D01*
X146450000Y-113762501D02*
X146450000Y-114070570D01*
X146450000Y-114070570D02*
X147029430Y-114650000D01*
X149619158Y-114650000D02*
X154521501Y-109747657D01*
X154521501Y-109747657D02*
X154521501Y-109747657D01*
X147029430Y-114650000D02*
X149619158Y-114650000D01*
X147271100Y-113471400D02*
X146871100Y-113871400D01*
X144871100Y-114021100D02*
X144900000Y-114050000D01*
X144871100Y-113471400D02*
X144871100Y-114021100D01*
X145671100Y-112721400D02*
X145671100Y-112733400D01*
X145671100Y-112721400D02*
X145671100Y-112628900D01*
X145671100Y-112628900D02*
X146078722Y-112221278D01*
X144071100Y-110471400D02*
X144046100Y-110471400D01*
X144046100Y-110471400D02*
X143671100Y-110096400D01*
X137150000Y-111900000D02*
X137150000Y-97550000D01*
X139550000Y-113100000D02*
X138350000Y-113100000D01*
X138350000Y-113100000D02*
X137150000Y-111900000D01*
X139450000Y-112350000D02*
X139126853Y-112350000D01*
X139126853Y-112350000D02*
X138650000Y-112350000D01*
X138650000Y-112350000D02*
X138200000Y-111900000D01*
X138200000Y-111900000D02*
X138200000Y-99500000D01*
X138200000Y-99500000D02*
X139000000Y-98700000D01*
X139000000Y-98700000D02*
X139000000Y-96700000D01*
X138567259Y-100032741D02*
X139500000Y-99100000D01*
X139500000Y-99100000D02*
X139500000Y-96323147D01*
X138567259Y-110667259D02*
X138567259Y-100032741D01*
X139500000Y-111600000D02*
X138567259Y-110667259D01*
X139500000Y-96323147D02*
X139500000Y-96000000D01*
X148071100Y-113471400D02*
X148121100Y-113471400D01*
X148071100Y-113471400D02*
X147671100Y-113871400D01*
X142731000Y-108150000D02*
X142032366Y-108150000D01*
X142032366Y-108150000D02*
X141709219Y-108150000D01*
X143231000Y-108650000D02*
X142731000Y-108150000D01*
X143821400Y-113471400D02*
X143550000Y-113200000D01*
X144071100Y-113471400D02*
X143821400Y-113471400D01*
X144071100Y-112721400D02*
X143971400Y-112721400D01*
X143971400Y-112721400D02*
X143550000Y-112300000D01*
X137900000Y-98950000D02*
X137650000Y-99200000D01*
X137650000Y-99200000D02*
X137650000Y-104850000D01*
X147271100Y-110471400D02*
X147646100Y-110846400D01*
X147646100Y-110846400D02*
X148646100Y-110846400D01*
D33*
X149671100Y-111871400D02*
X150171100Y-111871400D01*
D35*
X149582390Y-111871400D02*
X150171100Y-111871400D01*
X148646100Y-110935110D02*
X149582390Y-111871400D01*
X148646100Y-110846400D02*
X148646100Y-110935110D01*
D34*
X150171100Y-111871400D02*
X149544100Y-111871400D01*
D33*
X146471100Y-109721400D02*
X146471100Y-109444400D01*
X146471100Y-109444400D02*
X148271106Y-107644393D01*
X148271106Y-107271371D02*
X148271106Y-107644393D01*
D36*
X146071100Y-113871400D02*
X146071100Y-113121400D01*
X146071100Y-113121400D02*
X146471100Y-112721400D01*
D40*
X146071100Y-113871400D02*
X146071100Y-114271400D01*
X146071100Y-114271400D02*
X146644100Y-114844400D01*
X146644100Y-114844400D02*
X146644100Y-115671400D01*
D34*
X141800000Y-119700000D02*
X138400000Y-119700000D01*
X145671100Y-109721400D02*
X145671100Y-106566400D01*
X145671100Y-106566400D02*
X146625100Y-105612400D01*
X146625100Y-105270400D02*
X146625100Y-105612400D01*
X165244760Y-116855240D02*
X165250000Y-116850000D01*
X164119560Y-116855240D02*
X165244760Y-116855240D01*
X146540000Y-118110000D02*
X155321000Y-118110000D01*
X159193933Y-116865400D02*
X159517080Y-116865400D01*
X144950000Y-119700000D02*
X146540000Y-118110000D01*
X155321000Y-118110000D02*
X156745940Y-116685060D01*
X156745940Y-116685060D02*
X159003431Y-116685060D01*
X159003431Y-116685060D02*
X159183771Y-116865400D01*
X159183771Y-116865400D02*
X159193933Y-116865400D01*
D36*
X147710589Y-110081911D02*
X148071100Y-109721400D01*
X146471100Y-110471400D02*
X146860589Y-110081911D01*
X146860589Y-110081911D02*
X147710589Y-110081911D01*
D34*
X146471100Y-110578900D02*
X146471100Y-110471400D01*
X145300000Y-111750000D02*
X146471100Y-110578900D01*
X141750000Y-116850000D02*
X144100000Y-114500000D01*
X141750000Y-118450000D02*
X141750000Y-116850000D01*
D37*
X165250000Y-120027560D02*
X165249860Y-120027700D01*
X165244780Y-119481600D02*
X165250000Y-120027560D01*
D41*
G36*
X164552587Y-96846863D02*
G01*
X164552587Y-97011600D01*
X164558227Y-97068862D01*
X164574929Y-97123923D01*
X164602053Y-97174667D01*
X164638555Y-97219145D01*
X164683033Y-97255647D01*
X164733777Y-97282771D01*
X164788838Y-97299473D01*
X164846100Y-97305113D01*
X165430200Y-97305113D01*
X165430200Y-98056700D01*
X161036000Y-98056700D01*
X161036000Y-96507300D01*
X164213025Y-96507300D01*
X164552587Y-96846863D01*
X164552587Y-96846863D01*
G37*
X164552587Y-96846863D02*
X164552587Y-97011600D01*
X164558227Y-97068862D01*
X164574929Y-97123923D01*
X164602053Y-97174667D01*
X164638555Y-97219145D01*
X164683033Y-97255647D01*
X164733777Y-97282771D01*
X164788838Y-97299473D01*
X164846100Y-97305113D01*
X165430200Y-97305113D01*
X165430200Y-98056700D01*
X161036000Y-98056700D01*
X161036000Y-96507300D01*
X164213025Y-96507300D01*
X164552587Y-96846863D01*
G36*
X164552587Y-99211600D02*
G01*
X164558227Y-99268862D01*
X164574929Y-99323923D01*
X164602053Y-99374667D01*
X164638555Y-99419145D01*
X164683033Y-99455647D01*
X164733777Y-99482771D01*
X164788838Y-99499473D01*
X164846100Y-99505113D01*
X165430200Y-99505113D01*
X165430200Y-100268087D01*
X164846100Y-100268087D01*
X164788838Y-100273727D01*
X164733777Y-100290429D01*
X164683033Y-100317553D01*
X164638555Y-100354055D01*
X164602053Y-100398533D01*
X164574929Y-100449277D01*
X164558227Y-100504338D01*
X164552587Y-100561600D01*
X164552587Y-100592900D01*
X161919176Y-100592900D01*
X161036000Y-99709725D01*
X161036000Y-99257488D01*
X161063409Y-99275802D01*
X161165104Y-99317926D01*
X161273063Y-99339400D01*
X161383137Y-99339400D01*
X161491096Y-99317926D01*
X161592791Y-99275802D01*
X161684314Y-99214648D01*
X161724662Y-99174300D01*
X164552587Y-99174300D01*
X164552587Y-99211600D01*
X164552587Y-99211600D01*
G37*
X164552587Y-99211600D02*
X164558227Y-99268862D01*
X164574929Y-99323923D01*
X164602053Y-99374667D01*
X164638555Y-99419145D01*
X164683033Y-99455647D01*
X164733777Y-99482771D01*
X164788838Y-99499473D01*
X164846100Y-99505113D01*
X165430200Y-99505113D01*
X165430200Y-100268087D01*
X164846100Y-100268087D01*
X164788838Y-100273727D01*
X164733777Y-100290429D01*
X164683033Y-100317553D01*
X164638555Y-100354055D01*
X164602053Y-100398533D01*
X164574929Y-100449277D01*
X164558227Y-100504338D01*
X164552587Y-100561600D01*
X164552587Y-100592900D01*
X161919176Y-100592900D01*
X161036000Y-99709725D01*
X161036000Y-99257488D01*
X161063409Y-99275802D01*
X161165104Y-99317926D01*
X161273063Y-99339400D01*
X161383137Y-99339400D01*
X161491096Y-99317926D01*
X161592791Y-99275802D01*
X161684314Y-99214648D01*
X161724662Y-99174300D01*
X164552587Y-99174300D01*
X164552587Y-99211600D01*
M02*
