%TF.GenerationSoftware,KiCad,Pcbnew,(5.1.4)-1*%
%TF.CreationDate,2019-10-25T20:45:33-07:00*%
%TF.ProjectId,base,62617365-2e6b-4696-9361-645f70636258,rev?*%
%TF.SameCoordinates,Original*%
%TF.FileFunction,Paste,Bot*%
%TF.FilePolarity,Positive*%
%FSLAX46Y46*%
G04 Gerber Fmt 4.6, Leading zero omitted, Abs format (unit mm)*
G04 Created by KiCad (PCBNEW (5.1.4)-1) date 2019-10-25 20:45:33*
%MOMM*%
%LPD*%
G04 APERTURE LIST*
%ADD10C,0.050000*%
%ADD11R,1.500000X1.700000*%
%ADD12R,1.100000X0.250000*%
%ADD13R,1.000000X1.000000*%
%ADD14R,1.100000X1.000000*%
%ADD15C,0.100000*%
%ADD16C,0.340000*%
%ADD17R,1.400000X1.600000*%
%ADD18R,0.800000X1.200000*%
%ADD19R,1.000000X1.200000*%
%ADD20R,1.350000X1.900000*%
%ADD21R,1.800000X1.170000*%
%ADD22R,1.100000X0.750000*%
%ADD23R,1.100000X0.850000*%
%ADD24R,1.350000X1.550000*%
G04 APERTURE END LIST*
D10*
X166500000Y-93500000D02*
X130500000Y-93500000D01*
X130500000Y-93500000D02*
X130500000Y-127500000D01*
X166500000Y-127500000D02*
X166500000Y-93500000D01*
X130500000Y-127500000D02*
X166500000Y-127500000D01*
D11*
X161350000Y-113200000D03*
X161350000Y-121000000D03*
D12*
X165250000Y-114850000D03*
X165250000Y-115350000D03*
X165250000Y-115850000D03*
X165250000Y-116350000D03*
X165250000Y-116850000D03*
X165250000Y-117350000D03*
X165250000Y-117850000D03*
X165250000Y-118350000D03*
X165250000Y-118850000D03*
X165250000Y-119350000D03*
D13*
X140821400Y-111428900D03*
X142421400Y-111428900D03*
D14*
X146625100Y-105270400D03*
X148325100Y-105270400D03*
D15*
G36*
X144887764Y-112552218D02*
G01*
X144904266Y-112554666D01*
X144920449Y-112558719D01*
X144936157Y-112564339D01*
X144951238Y-112571472D01*
X144965548Y-112580049D01*
X144978948Y-112589987D01*
X144991309Y-112601191D01*
X145002513Y-112613552D01*
X145012451Y-112626952D01*
X145021028Y-112641262D01*
X145028161Y-112656343D01*
X145033781Y-112672051D01*
X145037834Y-112688234D01*
X145040282Y-112704736D01*
X145041101Y-112721399D01*
X145041101Y-112721401D01*
X145040282Y-112738064D01*
X145037834Y-112754566D01*
X145033781Y-112770749D01*
X145028161Y-112786457D01*
X145021028Y-112801538D01*
X145012451Y-112815848D01*
X145002513Y-112829248D01*
X144991309Y-112841609D01*
X144978948Y-112852813D01*
X144965548Y-112862751D01*
X144951238Y-112871328D01*
X144936157Y-112878461D01*
X144920449Y-112884081D01*
X144904266Y-112888134D01*
X144887764Y-112890582D01*
X144871101Y-112891401D01*
X144871099Y-112891401D01*
X144854436Y-112890582D01*
X144837934Y-112888134D01*
X144821751Y-112884081D01*
X144806043Y-112878461D01*
X144790962Y-112871328D01*
X144776652Y-112862751D01*
X144763252Y-112852813D01*
X144750891Y-112841609D01*
X144739687Y-112829248D01*
X144729749Y-112815848D01*
X144721172Y-112801538D01*
X144714039Y-112786457D01*
X144708419Y-112770749D01*
X144704366Y-112754566D01*
X144701918Y-112738064D01*
X144701099Y-112721401D01*
X144701099Y-112721399D01*
X144701918Y-112704736D01*
X144704366Y-112688234D01*
X144708419Y-112672051D01*
X144714039Y-112656343D01*
X144721172Y-112641262D01*
X144729749Y-112626952D01*
X144739687Y-112613552D01*
X144750891Y-112601191D01*
X144763252Y-112589987D01*
X144776652Y-112580049D01*
X144790962Y-112571472D01*
X144806043Y-112564339D01*
X144821751Y-112558719D01*
X144837934Y-112554666D01*
X144854436Y-112552218D01*
X144871099Y-112551399D01*
X144871101Y-112551399D01*
X144887764Y-112552218D01*
X144887764Y-112552218D01*
G37*
D16*
X144871100Y-112721400D03*
D15*
G36*
X145687764Y-112552218D02*
G01*
X145704266Y-112554666D01*
X145720449Y-112558719D01*
X145736157Y-112564339D01*
X145751238Y-112571472D01*
X145765548Y-112580049D01*
X145778948Y-112589987D01*
X145791309Y-112601191D01*
X145802513Y-112613552D01*
X145812451Y-112626952D01*
X145821028Y-112641262D01*
X145828161Y-112656343D01*
X145833781Y-112672051D01*
X145837834Y-112688234D01*
X145840282Y-112704736D01*
X145841101Y-112721399D01*
X145841101Y-112721401D01*
X145840282Y-112738064D01*
X145837834Y-112754566D01*
X145833781Y-112770749D01*
X145828161Y-112786457D01*
X145821028Y-112801538D01*
X145812451Y-112815848D01*
X145802513Y-112829248D01*
X145791309Y-112841609D01*
X145778948Y-112852813D01*
X145765548Y-112862751D01*
X145751238Y-112871328D01*
X145736157Y-112878461D01*
X145720449Y-112884081D01*
X145704266Y-112888134D01*
X145687764Y-112890582D01*
X145671101Y-112891401D01*
X145671099Y-112891401D01*
X145654436Y-112890582D01*
X145637934Y-112888134D01*
X145621751Y-112884081D01*
X145606043Y-112878461D01*
X145590962Y-112871328D01*
X145576652Y-112862751D01*
X145563252Y-112852813D01*
X145550891Y-112841609D01*
X145539687Y-112829248D01*
X145529749Y-112815848D01*
X145521172Y-112801538D01*
X145514039Y-112786457D01*
X145508419Y-112770749D01*
X145504366Y-112754566D01*
X145501918Y-112738064D01*
X145501099Y-112721401D01*
X145501099Y-112721399D01*
X145501918Y-112704736D01*
X145504366Y-112688234D01*
X145508419Y-112672051D01*
X145514039Y-112656343D01*
X145521172Y-112641262D01*
X145529749Y-112626952D01*
X145539687Y-112613552D01*
X145550891Y-112601191D01*
X145563252Y-112589987D01*
X145576652Y-112580049D01*
X145590962Y-112571472D01*
X145606043Y-112564339D01*
X145621751Y-112558719D01*
X145637934Y-112554666D01*
X145654436Y-112552218D01*
X145671099Y-112551399D01*
X145671101Y-112551399D01*
X145687764Y-112552218D01*
X145687764Y-112552218D01*
G37*
D16*
X145671100Y-112721400D03*
D15*
G36*
X146487764Y-112552218D02*
G01*
X146504266Y-112554666D01*
X146520449Y-112558719D01*
X146536157Y-112564339D01*
X146551238Y-112571472D01*
X146565548Y-112580049D01*
X146578948Y-112589987D01*
X146591309Y-112601191D01*
X146602513Y-112613552D01*
X146612451Y-112626952D01*
X146621028Y-112641262D01*
X146628161Y-112656343D01*
X146633781Y-112672051D01*
X146637834Y-112688234D01*
X146640282Y-112704736D01*
X146641101Y-112721399D01*
X146641101Y-112721401D01*
X146640282Y-112738064D01*
X146637834Y-112754566D01*
X146633781Y-112770749D01*
X146628161Y-112786457D01*
X146621028Y-112801538D01*
X146612451Y-112815848D01*
X146602513Y-112829248D01*
X146591309Y-112841609D01*
X146578948Y-112852813D01*
X146565548Y-112862751D01*
X146551238Y-112871328D01*
X146536157Y-112878461D01*
X146520449Y-112884081D01*
X146504266Y-112888134D01*
X146487764Y-112890582D01*
X146471101Y-112891401D01*
X146471099Y-112891401D01*
X146454436Y-112890582D01*
X146437934Y-112888134D01*
X146421751Y-112884081D01*
X146406043Y-112878461D01*
X146390962Y-112871328D01*
X146376652Y-112862751D01*
X146363252Y-112852813D01*
X146350891Y-112841609D01*
X146339687Y-112829248D01*
X146329749Y-112815848D01*
X146321172Y-112801538D01*
X146314039Y-112786457D01*
X146308419Y-112770749D01*
X146304366Y-112754566D01*
X146301918Y-112738064D01*
X146301099Y-112721401D01*
X146301099Y-112721399D01*
X146301918Y-112704736D01*
X146304366Y-112688234D01*
X146308419Y-112672051D01*
X146314039Y-112656343D01*
X146321172Y-112641262D01*
X146329749Y-112626952D01*
X146339687Y-112613552D01*
X146350891Y-112601191D01*
X146363252Y-112589987D01*
X146376652Y-112580049D01*
X146390962Y-112571472D01*
X146406043Y-112564339D01*
X146421751Y-112558719D01*
X146437934Y-112554666D01*
X146454436Y-112552218D01*
X146471099Y-112551399D01*
X146471101Y-112551399D01*
X146487764Y-112552218D01*
X146487764Y-112552218D01*
G37*
D16*
X146471100Y-112721400D03*
D15*
G36*
X147287764Y-112552218D02*
G01*
X147304266Y-112554666D01*
X147320449Y-112558719D01*
X147336157Y-112564339D01*
X147351238Y-112571472D01*
X147365548Y-112580049D01*
X147378948Y-112589987D01*
X147391309Y-112601191D01*
X147402513Y-112613552D01*
X147412451Y-112626952D01*
X147421028Y-112641262D01*
X147428161Y-112656343D01*
X147433781Y-112672051D01*
X147437834Y-112688234D01*
X147440282Y-112704736D01*
X147441101Y-112721399D01*
X147441101Y-112721401D01*
X147440282Y-112738064D01*
X147437834Y-112754566D01*
X147433781Y-112770749D01*
X147428161Y-112786457D01*
X147421028Y-112801538D01*
X147412451Y-112815848D01*
X147402513Y-112829248D01*
X147391309Y-112841609D01*
X147378948Y-112852813D01*
X147365548Y-112862751D01*
X147351238Y-112871328D01*
X147336157Y-112878461D01*
X147320449Y-112884081D01*
X147304266Y-112888134D01*
X147287764Y-112890582D01*
X147271101Y-112891401D01*
X147271099Y-112891401D01*
X147254436Y-112890582D01*
X147237934Y-112888134D01*
X147221751Y-112884081D01*
X147206043Y-112878461D01*
X147190962Y-112871328D01*
X147176652Y-112862751D01*
X147163252Y-112852813D01*
X147150891Y-112841609D01*
X147139687Y-112829248D01*
X147129749Y-112815848D01*
X147121172Y-112801538D01*
X147114039Y-112786457D01*
X147108419Y-112770749D01*
X147104366Y-112754566D01*
X147101918Y-112738064D01*
X147101099Y-112721401D01*
X147101099Y-112721399D01*
X147101918Y-112704736D01*
X147104366Y-112688234D01*
X147108419Y-112672051D01*
X147114039Y-112656343D01*
X147121172Y-112641262D01*
X147129749Y-112626952D01*
X147139687Y-112613552D01*
X147150891Y-112601191D01*
X147163252Y-112589987D01*
X147176652Y-112580049D01*
X147190962Y-112571472D01*
X147206043Y-112564339D01*
X147221751Y-112558719D01*
X147237934Y-112554666D01*
X147254436Y-112552218D01*
X147271099Y-112551399D01*
X147271101Y-112551399D01*
X147287764Y-112552218D01*
X147287764Y-112552218D01*
G37*
D16*
X147271100Y-112721400D03*
D15*
G36*
X144087764Y-113302218D02*
G01*
X144104266Y-113304666D01*
X144120449Y-113308719D01*
X144136157Y-113314339D01*
X144151238Y-113321472D01*
X144165548Y-113330049D01*
X144178948Y-113339987D01*
X144191309Y-113351191D01*
X144202513Y-113363552D01*
X144212451Y-113376952D01*
X144221028Y-113391262D01*
X144228161Y-113406343D01*
X144233781Y-113422051D01*
X144237834Y-113438234D01*
X144240282Y-113454736D01*
X144241101Y-113471399D01*
X144241101Y-113471401D01*
X144240282Y-113488064D01*
X144237834Y-113504566D01*
X144233781Y-113520749D01*
X144228161Y-113536457D01*
X144221028Y-113551538D01*
X144212451Y-113565848D01*
X144202513Y-113579248D01*
X144191309Y-113591609D01*
X144178948Y-113602813D01*
X144165548Y-113612751D01*
X144151238Y-113621328D01*
X144136157Y-113628461D01*
X144120449Y-113634081D01*
X144104266Y-113638134D01*
X144087764Y-113640582D01*
X144071101Y-113641401D01*
X144071099Y-113641401D01*
X144054436Y-113640582D01*
X144037934Y-113638134D01*
X144021751Y-113634081D01*
X144006043Y-113628461D01*
X143990962Y-113621328D01*
X143976652Y-113612751D01*
X143963252Y-113602813D01*
X143950891Y-113591609D01*
X143939687Y-113579248D01*
X143929749Y-113565848D01*
X143921172Y-113551538D01*
X143914039Y-113536457D01*
X143908419Y-113520749D01*
X143904366Y-113504566D01*
X143901918Y-113488064D01*
X143901099Y-113471401D01*
X143901099Y-113471399D01*
X143901918Y-113454736D01*
X143904366Y-113438234D01*
X143908419Y-113422051D01*
X143914039Y-113406343D01*
X143921172Y-113391262D01*
X143929749Y-113376952D01*
X143939687Y-113363552D01*
X143950891Y-113351191D01*
X143963252Y-113339987D01*
X143976652Y-113330049D01*
X143990962Y-113321472D01*
X144006043Y-113314339D01*
X144021751Y-113308719D01*
X144037934Y-113304666D01*
X144054436Y-113302218D01*
X144071099Y-113301399D01*
X144071101Y-113301399D01*
X144087764Y-113302218D01*
X144087764Y-113302218D01*
G37*
D16*
X144071100Y-113471400D03*
D15*
G36*
X144087764Y-112552218D02*
G01*
X144104266Y-112554666D01*
X144120449Y-112558719D01*
X144136157Y-112564339D01*
X144151238Y-112571472D01*
X144165548Y-112580049D01*
X144178948Y-112589987D01*
X144191309Y-112601191D01*
X144202513Y-112613552D01*
X144212451Y-112626952D01*
X144221028Y-112641262D01*
X144228161Y-112656343D01*
X144233781Y-112672051D01*
X144237834Y-112688234D01*
X144240282Y-112704736D01*
X144241101Y-112721399D01*
X144241101Y-112721401D01*
X144240282Y-112738064D01*
X144237834Y-112754566D01*
X144233781Y-112770749D01*
X144228161Y-112786457D01*
X144221028Y-112801538D01*
X144212451Y-112815848D01*
X144202513Y-112829248D01*
X144191309Y-112841609D01*
X144178948Y-112852813D01*
X144165548Y-112862751D01*
X144151238Y-112871328D01*
X144136157Y-112878461D01*
X144120449Y-112884081D01*
X144104266Y-112888134D01*
X144087764Y-112890582D01*
X144071101Y-112891401D01*
X144071099Y-112891401D01*
X144054436Y-112890582D01*
X144037934Y-112888134D01*
X144021751Y-112884081D01*
X144006043Y-112878461D01*
X143990962Y-112871328D01*
X143976652Y-112862751D01*
X143963252Y-112852813D01*
X143950891Y-112841609D01*
X143939687Y-112829248D01*
X143929749Y-112815848D01*
X143921172Y-112801538D01*
X143914039Y-112786457D01*
X143908419Y-112770749D01*
X143904366Y-112754566D01*
X143901918Y-112738064D01*
X143901099Y-112721401D01*
X143901099Y-112721399D01*
X143901918Y-112704736D01*
X143904366Y-112688234D01*
X143908419Y-112672051D01*
X143914039Y-112656343D01*
X143921172Y-112641262D01*
X143929749Y-112626952D01*
X143939687Y-112613552D01*
X143950891Y-112601191D01*
X143963252Y-112589987D01*
X143976652Y-112580049D01*
X143990962Y-112571472D01*
X144006043Y-112564339D01*
X144021751Y-112558719D01*
X144037934Y-112554666D01*
X144054436Y-112552218D01*
X144071099Y-112551399D01*
X144071101Y-112551399D01*
X144087764Y-112552218D01*
X144087764Y-112552218D01*
G37*
D16*
X144071100Y-112721400D03*
D15*
G36*
X144087764Y-111802218D02*
G01*
X144104266Y-111804666D01*
X144120449Y-111808719D01*
X144136157Y-111814339D01*
X144151238Y-111821472D01*
X144165548Y-111830049D01*
X144178948Y-111839987D01*
X144191309Y-111851191D01*
X144202513Y-111863552D01*
X144212451Y-111876952D01*
X144221028Y-111891262D01*
X144228161Y-111906343D01*
X144233781Y-111922051D01*
X144237834Y-111938234D01*
X144240282Y-111954736D01*
X144241101Y-111971399D01*
X144241101Y-111971401D01*
X144240282Y-111988064D01*
X144237834Y-112004566D01*
X144233781Y-112020749D01*
X144228161Y-112036457D01*
X144221028Y-112051538D01*
X144212451Y-112065848D01*
X144202513Y-112079248D01*
X144191309Y-112091609D01*
X144178948Y-112102813D01*
X144165548Y-112112751D01*
X144151238Y-112121328D01*
X144136157Y-112128461D01*
X144120449Y-112134081D01*
X144104266Y-112138134D01*
X144087764Y-112140582D01*
X144071101Y-112141401D01*
X144071099Y-112141401D01*
X144054436Y-112140582D01*
X144037934Y-112138134D01*
X144021751Y-112134081D01*
X144006043Y-112128461D01*
X143990962Y-112121328D01*
X143976652Y-112112751D01*
X143963252Y-112102813D01*
X143950891Y-112091609D01*
X143939687Y-112079248D01*
X143929749Y-112065848D01*
X143921172Y-112051538D01*
X143914039Y-112036457D01*
X143908419Y-112020749D01*
X143904366Y-112004566D01*
X143901918Y-111988064D01*
X143901099Y-111971401D01*
X143901099Y-111971399D01*
X143901918Y-111954736D01*
X143904366Y-111938234D01*
X143908419Y-111922051D01*
X143914039Y-111906343D01*
X143921172Y-111891262D01*
X143929749Y-111876952D01*
X143939687Y-111863552D01*
X143950891Y-111851191D01*
X143963252Y-111839987D01*
X143976652Y-111830049D01*
X143990962Y-111821472D01*
X144006043Y-111814339D01*
X144021751Y-111808719D01*
X144037934Y-111804666D01*
X144054436Y-111802218D01*
X144071099Y-111801399D01*
X144071101Y-111801399D01*
X144087764Y-111802218D01*
X144087764Y-111802218D01*
G37*
D16*
X144071100Y-111971400D03*
D15*
G36*
X144087764Y-111052218D02*
G01*
X144104266Y-111054666D01*
X144120449Y-111058719D01*
X144136157Y-111064339D01*
X144151238Y-111071472D01*
X144165548Y-111080049D01*
X144178948Y-111089987D01*
X144191309Y-111101191D01*
X144202513Y-111113552D01*
X144212451Y-111126952D01*
X144221028Y-111141262D01*
X144228161Y-111156343D01*
X144233781Y-111172051D01*
X144237834Y-111188234D01*
X144240282Y-111204736D01*
X144241101Y-111221399D01*
X144241101Y-111221401D01*
X144240282Y-111238064D01*
X144237834Y-111254566D01*
X144233781Y-111270749D01*
X144228161Y-111286457D01*
X144221028Y-111301538D01*
X144212451Y-111315848D01*
X144202513Y-111329248D01*
X144191309Y-111341609D01*
X144178948Y-111352813D01*
X144165548Y-111362751D01*
X144151238Y-111371328D01*
X144136157Y-111378461D01*
X144120449Y-111384081D01*
X144104266Y-111388134D01*
X144087764Y-111390582D01*
X144071101Y-111391401D01*
X144071099Y-111391401D01*
X144054436Y-111390582D01*
X144037934Y-111388134D01*
X144021751Y-111384081D01*
X144006043Y-111378461D01*
X143990962Y-111371328D01*
X143976652Y-111362751D01*
X143963252Y-111352813D01*
X143950891Y-111341609D01*
X143939687Y-111329248D01*
X143929749Y-111315848D01*
X143921172Y-111301538D01*
X143914039Y-111286457D01*
X143908419Y-111270749D01*
X143904366Y-111254566D01*
X143901918Y-111238064D01*
X143901099Y-111221401D01*
X143901099Y-111221399D01*
X143901918Y-111204736D01*
X143904366Y-111188234D01*
X143908419Y-111172051D01*
X143914039Y-111156343D01*
X143921172Y-111141262D01*
X143929749Y-111126952D01*
X143939687Y-111113552D01*
X143950891Y-111101191D01*
X143963252Y-111089987D01*
X143976652Y-111080049D01*
X143990962Y-111071472D01*
X144006043Y-111064339D01*
X144021751Y-111058719D01*
X144037934Y-111054666D01*
X144054436Y-111052218D01*
X144071099Y-111051399D01*
X144071101Y-111051399D01*
X144087764Y-111052218D01*
X144087764Y-111052218D01*
G37*
D16*
X144071100Y-111221400D03*
D15*
G36*
X144887764Y-113302218D02*
G01*
X144904266Y-113304666D01*
X144920449Y-113308719D01*
X144936157Y-113314339D01*
X144951238Y-113321472D01*
X144965548Y-113330049D01*
X144978948Y-113339987D01*
X144991309Y-113351191D01*
X145002513Y-113363552D01*
X145012451Y-113376952D01*
X145021028Y-113391262D01*
X145028161Y-113406343D01*
X145033781Y-113422051D01*
X145037834Y-113438234D01*
X145040282Y-113454736D01*
X145041101Y-113471399D01*
X145041101Y-113471401D01*
X145040282Y-113488064D01*
X145037834Y-113504566D01*
X145033781Y-113520749D01*
X145028161Y-113536457D01*
X145021028Y-113551538D01*
X145012451Y-113565848D01*
X145002513Y-113579248D01*
X144991309Y-113591609D01*
X144978948Y-113602813D01*
X144965548Y-113612751D01*
X144951238Y-113621328D01*
X144936157Y-113628461D01*
X144920449Y-113634081D01*
X144904266Y-113638134D01*
X144887764Y-113640582D01*
X144871101Y-113641401D01*
X144871099Y-113641401D01*
X144854436Y-113640582D01*
X144837934Y-113638134D01*
X144821751Y-113634081D01*
X144806043Y-113628461D01*
X144790962Y-113621328D01*
X144776652Y-113612751D01*
X144763252Y-113602813D01*
X144750891Y-113591609D01*
X144739687Y-113579248D01*
X144729749Y-113565848D01*
X144721172Y-113551538D01*
X144714039Y-113536457D01*
X144708419Y-113520749D01*
X144704366Y-113504566D01*
X144701918Y-113488064D01*
X144701099Y-113471401D01*
X144701099Y-113471399D01*
X144701918Y-113454736D01*
X144704366Y-113438234D01*
X144708419Y-113422051D01*
X144714039Y-113406343D01*
X144721172Y-113391262D01*
X144729749Y-113376952D01*
X144739687Y-113363552D01*
X144750891Y-113351191D01*
X144763252Y-113339987D01*
X144776652Y-113330049D01*
X144790962Y-113321472D01*
X144806043Y-113314339D01*
X144821751Y-113308719D01*
X144837934Y-113304666D01*
X144854436Y-113302218D01*
X144871099Y-113301399D01*
X144871101Y-113301399D01*
X144887764Y-113302218D01*
X144887764Y-113302218D01*
G37*
D16*
X144871100Y-113471400D03*
D15*
G36*
X145687764Y-113302218D02*
G01*
X145704266Y-113304666D01*
X145720449Y-113308719D01*
X145736157Y-113314339D01*
X145751238Y-113321472D01*
X145765548Y-113330049D01*
X145778948Y-113339987D01*
X145791309Y-113351191D01*
X145802513Y-113363552D01*
X145812451Y-113376952D01*
X145821028Y-113391262D01*
X145828161Y-113406343D01*
X145833781Y-113422051D01*
X145837834Y-113438234D01*
X145840282Y-113454736D01*
X145841101Y-113471399D01*
X145841101Y-113471401D01*
X145840282Y-113488064D01*
X145837834Y-113504566D01*
X145833781Y-113520749D01*
X145828161Y-113536457D01*
X145821028Y-113551538D01*
X145812451Y-113565848D01*
X145802513Y-113579248D01*
X145791309Y-113591609D01*
X145778948Y-113602813D01*
X145765548Y-113612751D01*
X145751238Y-113621328D01*
X145736157Y-113628461D01*
X145720449Y-113634081D01*
X145704266Y-113638134D01*
X145687764Y-113640582D01*
X145671101Y-113641401D01*
X145671099Y-113641401D01*
X145654436Y-113640582D01*
X145637934Y-113638134D01*
X145621751Y-113634081D01*
X145606043Y-113628461D01*
X145590962Y-113621328D01*
X145576652Y-113612751D01*
X145563252Y-113602813D01*
X145550891Y-113591609D01*
X145539687Y-113579248D01*
X145529749Y-113565848D01*
X145521172Y-113551538D01*
X145514039Y-113536457D01*
X145508419Y-113520749D01*
X145504366Y-113504566D01*
X145501918Y-113488064D01*
X145501099Y-113471401D01*
X145501099Y-113471399D01*
X145501918Y-113454736D01*
X145504366Y-113438234D01*
X145508419Y-113422051D01*
X145514039Y-113406343D01*
X145521172Y-113391262D01*
X145529749Y-113376952D01*
X145539687Y-113363552D01*
X145550891Y-113351191D01*
X145563252Y-113339987D01*
X145576652Y-113330049D01*
X145590962Y-113321472D01*
X145606043Y-113314339D01*
X145621751Y-113308719D01*
X145637934Y-113304666D01*
X145654436Y-113302218D01*
X145671099Y-113301399D01*
X145671101Y-113301399D01*
X145687764Y-113302218D01*
X145687764Y-113302218D01*
G37*
D16*
X145671100Y-113471400D03*
D15*
G36*
X146487764Y-113302218D02*
G01*
X146504266Y-113304666D01*
X146520449Y-113308719D01*
X146536157Y-113314339D01*
X146551238Y-113321472D01*
X146565548Y-113330049D01*
X146578948Y-113339987D01*
X146591309Y-113351191D01*
X146602513Y-113363552D01*
X146612451Y-113376952D01*
X146621028Y-113391262D01*
X146628161Y-113406343D01*
X146633781Y-113422051D01*
X146637834Y-113438234D01*
X146640282Y-113454736D01*
X146641101Y-113471399D01*
X146641101Y-113471401D01*
X146640282Y-113488064D01*
X146637834Y-113504566D01*
X146633781Y-113520749D01*
X146628161Y-113536457D01*
X146621028Y-113551538D01*
X146612451Y-113565848D01*
X146602513Y-113579248D01*
X146591309Y-113591609D01*
X146578948Y-113602813D01*
X146565548Y-113612751D01*
X146551238Y-113621328D01*
X146536157Y-113628461D01*
X146520449Y-113634081D01*
X146504266Y-113638134D01*
X146487764Y-113640582D01*
X146471101Y-113641401D01*
X146471099Y-113641401D01*
X146454436Y-113640582D01*
X146437934Y-113638134D01*
X146421751Y-113634081D01*
X146406043Y-113628461D01*
X146390962Y-113621328D01*
X146376652Y-113612751D01*
X146363252Y-113602813D01*
X146350891Y-113591609D01*
X146339687Y-113579248D01*
X146329749Y-113565848D01*
X146321172Y-113551538D01*
X146314039Y-113536457D01*
X146308419Y-113520749D01*
X146304366Y-113504566D01*
X146301918Y-113488064D01*
X146301099Y-113471401D01*
X146301099Y-113471399D01*
X146301918Y-113454736D01*
X146304366Y-113438234D01*
X146308419Y-113422051D01*
X146314039Y-113406343D01*
X146321172Y-113391262D01*
X146329749Y-113376952D01*
X146339687Y-113363552D01*
X146350891Y-113351191D01*
X146363252Y-113339987D01*
X146376652Y-113330049D01*
X146390962Y-113321472D01*
X146406043Y-113314339D01*
X146421751Y-113308719D01*
X146437934Y-113304666D01*
X146454436Y-113302218D01*
X146471099Y-113301399D01*
X146471101Y-113301399D01*
X146487764Y-113302218D01*
X146487764Y-113302218D01*
G37*
D16*
X146471100Y-113471400D03*
D15*
G36*
X147287764Y-113302218D02*
G01*
X147304266Y-113304666D01*
X147320449Y-113308719D01*
X147336157Y-113314339D01*
X147351238Y-113321472D01*
X147365548Y-113330049D01*
X147378948Y-113339987D01*
X147391309Y-113351191D01*
X147402513Y-113363552D01*
X147412451Y-113376952D01*
X147421028Y-113391262D01*
X147428161Y-113406343D01*
X147433781Y-113422051D01*
X147437834Y-113438234D01*
X147440282Y-113454736D01*
X147441101Y-113471399D01*
X147441101Y-113471401D01*
X147440282Y-113488064D01*
X147437834Y-113504566D01*
X147433781Y-113520749D01*
X147428161Y-113536457D01*
X147421028Y-113551538D01*
X147412451Y-113565848D01*
X147402513Y-113579248D01*
X147391309Y-113591609D01*
X147378948Y-113602813D01*
X147365548Y-113612751D01*
X147351238Y-113621328D01*
X147336157Y-113628461D01*
X147320449Y-113634081D01*
X147304266Y-113638134D01*
X147287764Y-113640582D01*
X147271101Y-113641401D01*
X147271099Y-113641401D01*
X147254436Y-113640582D01*
X147237934Y-113638134D01*
X147221751Y-113634081D01*
X147206043Y-113628461D01*
X147190962Y-113621328D01*
X147176652Y-113612751D01*
X147163252Y-113602813D01*
X147150891Y-113591609D01*
X147139687Y-113579248D01*
X147129749Y-113565848D01*
X147121172Y-113551538D01*
X147114039Y-113536457D01*
X147108419Y-113520749D01*
X147104366Y-113504566D01*
X147101918Y-113488064D01*
X147101099Y-113471401D01*
X147101099Y-113471399D01*
X147101918Y-113454736D01*
X147104366Y-113438234D01*
X147108419Y-113422051D01*
X147114039Y-113406343D01*
X147121172Y-113391262D01*
X147129749Y-113376952D01*
X147139687Y-113363552D01*
X147150891Y-113351191D01*
X147163252Y-113339987D01*
X147176652Y-113330049D01*
X147190962Y-113321472D01*
X147206043Y-113314339D01*
X147221751Y-113308719D01*
X147237934Y-113304666D01*
X147254436Y-113302218D01*
X147271099Y-113301399D01*
X147271101Y-113301399D01*
X147287764Y-113302218D01*
X147287764Y-113302218D01*
G37*
D16*
X147271100Y-113471400D03*
D15*
G36*
X148087764Y-111802218D02*
G01*
X148104266Y-111804666D01*
X148120449Y-111808719D01*
X148136157Y-111814339D01*
X148151238Y-111821472D01*
X148165548Y-111830049D01*
X148178948Y-111839987D01*
X148191309Y-111851191D01*
X148202513Y-111863552D01*
X148212451Y-111876952D01*
X148221028Y-111891262D01*
X148228161Y-111906343D01*
X148233781Y-111922051D01*
X148237834Y-111938234D01*
X148240282Y-111954736D01*
X148241101Y-111971399D01*
X148241101Y-111971401D01*
X148240282Y-111988064D01*
X148237834Y-112004566D01*
X148233781Y-112020749D01*
X148228161Y-112036457D01*
X148221028Y-112051538D01*
X148212451Y-112065848D01*
X148202513Y-112079248D01*
X148191309Y-112091609D01*
X148178948Y-112102813D01*
X148165548Y-112112751D01*
X148151238Y-112121328D01*
X148136157Y-112128461D01*
X148120449Y-112134081D01*
X148104266Y-112138134D01*
X148087764Y-112140582D01*
X148071101Y-112141401D01*
X148071099Y-112141401D01*
X148054436Y-112140582D01*
X148037934Y-112138134D01*
X148021751Y-112134081D01*
X148006043Y-112128461D01*
X147990962Y-112121328D01*
X147976652Y-112112751D01*
X147963252Y-112102813D01*
X147950891Y-112091609D01*
X147939687Y-112079248D01*
X147929749Y-112065848D01*
X147921172Y-112051538D01*
X147914039Y-112036457D01*
X147908419Y-112020749D01*
X147904366Y-112004566D01*
X147901918Y-111988064D01*
X147901099Y-111971401D01*
X147901099Y-111971399D01*
X147901918Y-111954736D01*
X147904366Y-111938234D01*
X147908419Y-111922051D01*
X147914039Y-111906343D01*
X147921172Y-111891262D01*
X147929749Y-111876952D01*
X147939687Y-111863552D01*
X147950891Y-111851191D01*
X147963252Y-111839987D01*
X147976652Y-111830049D01*
X147990962Y-111821472D01*
X148006043Y-111814339D01*
X148021751Y-111808719D01*
X148037934Y-111804666D01*
X148054436Y-111802218D01*
X148071099Y-111801399D01*
X148071101Y-111801399D01*
X148087764Y-111802218D01*
X148087764Y-111802218D01*
G37*
D16*
X148071100Y-111971400D03*
D15*
G36*
X148087764Y-113302218D02*
G01*
X148104266Y-113304666D01*
X148120449Y-113308719D01*
X148136157Y-113314339D01*
X148151238Y-113321472D01*
X148165548Y-113330049D01*
X148178948Y-113339987D01*
X148191309Y-113351191D01*
X148202513Y-113363552D01*
X148212451Y-113376952D01*
X148221028Y-113391262D01*
X148228161Y-113406343D01*
X148233781Y-113422051D01*
X148237834Y-113438234D01*
X148240282Y-113454736D01*
X148241101Y-113471399D01*
X148241101Y-113471401D01*
X148240282Y-113488064D01*
X148237834Y-113504566D01*
X148233781Y-113520749D01*
X148228161Y-113536457D01*
X148221028Y-113551538D01*
X148212451Y-113565848D01*
X148202513Y-113579248D01*
X148191309Y-113591609D01*
X148178948Y-113602813D01*
X148165548Y-113612751D01*
X148151238Y-113621328D01*
X148136157Y-113628461D01*
X148120449Y-113634081D01*
X148104266Y-113638134D01*
X148087764Y-113640582D01*
X148071101Y-113641401D01*
X148071099Y-113641401D01*
X148054436Y-113640582D01*
X148037934Y-113638134D01*
X148021751Y-113634081D01*
X148006043Y-113628461D01*
X147990962Y-113621328D01*
X147976652Y-113612751D01*
X147963252Y-113602813D01*
X147950891Y-113591609D01*
X147939687Y-113579248D01*
X147929749Y-113565848D01*
X147921172Y-113551538D01*
X147914039Y-113536457D01*
X147908419Y-113520749D01*
X147904366Y-113504566D01*
X147901918Y-113488064D01*
X147901099Y-113471401D01*
X147901099Y-113471399D01*
X147901918Y-113454736D01*
X147904366Y-113438234D01*
X147908419Y-113422051D01*
X147914039Y-113406343D01*
X147921172Y-113391262D01*
X147929749Y-113376952D01*
X147939687Y-113363552D01*
X147950891Y-113351191D01*
X147963252Y-113339987D01*
X147976652Y-113330049D01*
X147990962Y-113321472D01*
X148006043Y-113314339D01*
X148021751Y-113308719D01*
X148037934Y-113304666D01*
X148054436Y-113302218D01*
X148071099Y-113301399D01*
X148071101Y-113301399D01*
X148087764Y-113302218D01*
X148087764Y-113302218D01*
G37*
D16*
X148071100Y-113471400D03*
D15*
G36*
X148087764Y-112552218D02*
G01*
X148104266Y-112554666D01*
X148120449Y-112558719D01*
X148136157Y-112564339D01*
X148151238Y-112571472D01*
X148165548Y-112580049D01*
X148178948Y-112589987D01*
X148191309Y-112601191D01*
X148202513Y-112613552D01*
X148212451Y-112626952D01*
X148221028Y-112641262D01*
X148228161Y-112656343D01*
X148233781Y-112672051D01*
X148237834Y-112688234D01*
X148240282Y-112704736D01*
X148241101Y-112721399D01*
X148241101Y-112721401D01*
X148240282Y-112738064D01*
X148237834Y-112754566D01*
X148233781Y-112770749D01*
X148228161Y-112786457D01*
X148221028Y-112801538D01*
X148212451Y-112815848D01*
X148202513Y-112829248D01*
X148191309Y-112841609D01*
X148178948Y-112852813D01*
X148165548Y-112862751D01*
X148151238Y-112871328D01*
X148136157Y-112878461D01*
X148120449Y-112884081D01*
X148104266Y-112888134D01*
X148087764Y-112890582D01*
X148071101Y-112891401D01*
X148071099Y-112891401D01*
X148054436Y-112890582D01*
X148037934Y-112888134D01*
X148021751Y-112884081D01*
X148006043Y-112878461D01*
X147990962Y-112871328D01*
X147976652Y-112862751D01*
X147963252Y-112852813D01*
X147950891Y-112841609D01*
X147939687Y-112829248D01*
X147929749Y-112815848D01*
X147921172Y-112801538D01*
X147914039Y-112786457D01*
X147908419Y-112770749D01*
X147904366Y-112754566D01*
X147901918Y-112738064D01*
X147901099Y-112721401D01*
X147901099Y-112721399D01*
X147901918Y-112704736D01*
X147904366Y-112688234D01*
X147908419Y-112672051D01*
X147914039Y-112656343D01*
X147921172Y-112641262D01*
X147929749Y-112626952D01*
X147939687Y-112613552D01*
X147950891Y-112601191D01*
X147963252Y-112589987D01*
X147976652Y-112580049D01*
X147990962Y-112571472D01*
X148006043Y-112564339D01*
X148021751Y-112558719D01*
X148037934Y-112554666D01*
X148054436Y-112552218D01*
X148071099Y-112551399D01*
X148071101Y-112551399D01*
X148087764Y-112552218D01*
X148087764Y-112552218D01*
G37*
D16*
X148071100Y-112721400D03*
D15*
G36*
X148087764Y-111052218D02*
G01*
X148104266Y-111054666D01*
X148120449Y-111058719D01*
X148136157Y-111064339D01*
X148151238Y-111071472D01*
X148165548Y-111080049D01*
X148178948Y-111089987D01*
X148191309Y-111101191D01*
X148202513Y-111113552D01*
X148212451Y-111126952D01*
X148221028Y-111141262D01*
X148228161Y-111156343D01*
X148233781Y-111172051D01*
X148237834Y-111188234D01*
X148240282Y-111204736D01*
X148241101Y-111221399D01*
X148241101Y-111221401D01*
X148240282Y-111238064D01*
X148237834Y-111254566D01*
X148233781Y-111270749D01*
X148228161Y-111286457D01*
X148221028Y-111301538D01*
X148212451Y-111315848D01*
X148202513Y-111329248D01*
X148191309Y-111341609D01*
X148178948Y-111352813D01*
X148165548Y-111362751D01*
X148151238Y-111371328D01*
X148136157Y-111378461D01*
X148120449Y-111384081D01*
X148104266Y-111388134D01*
X148087764Y-111390582D01*
X148071101Y-111391401D01*
X148071099Y-111391401D01*
X148054436Y-111390582D01*
X148037934Y-111388134D01*
X148021751Y-111384081D01*
X148006043Y-111378461D01*
X147990962Y-111371328D01*
X147976652Y-111362751D01*
X147963252Y-111352813D01*
X147950891Y-111341609D01*
X147939687Y-111329248D01*
X147929749Y-111315848D01*
X147921172Y-111301538D01*
X147914039Y-111286457D01*
X147908419Y-111270749D01*
X147904366Y-111254566D01*
X147901918Y-111238064D01*
X147901099Y-111221401D01*
X147901099Y-111221399D01*
X147901918Y-111204736D01*
X147904366Y-111188234D01*
X147908419Y-111172051D01*
X147914039Y-111156343D01*
X147921172Y-111141262D01*
X147929749Y-111126952D01*
X147939687Y-111113552D01*
X147950891Y-111101191D01*
X147963252Y-111089987D01*
X147976652Y-111080049D01*
X147990962Y-111071472D01*
X148006043Y-111064339D01*
X148021751Y-111058719D01*
X148037934Y-111054666D01*
X148054436Y-111052218D01*
X148071099Y-111051399D01*
X148071101Y-111051399D01*
X148087764Y-111052218D01*
X148087764Y-111052218D01*
G37*
D16*
X148071100Y-111221400D03*
D15*
G36*
X144087764Y-110302218D02*
G01*
X144104266Y-110304666D01*
X144120449Y-110308719D01*
X144136157Y-110314339D01*
X144151238Y-110321472D01*
X144165548Y-110330049D01*
X144178948Y-110339987D01*
X144191309Y-110351191D01*
X144202513Y-110363552D01*
X144212451Y-110376952D01*
X144221028Y-110391262D01*
X144228161Y-110406343D01*
X144233781Y-110422051D01*
X144237834Y-110438234D01*
X144240282Y-110454736D01*
X144241101Y-110471399D01*
X144241101Y-110471401D01*
X144240282Y-110488064D01*
X144237834Y-110504566D01*
X144233781Y-110520749D01*
X144228161Y-110536457D01*
X144221028Y-110551538D01*
X144212451Y-110565848D01*
X144202513Y-110579248D01*
X144191309Y-110591609D01*
X144178948Y-110602813D01*
X144165548Y-110612751D01*
X144151238Y-110621328D01*
X144136157Y-110628461D01*
X144120449Y-110634081D01*
X144104266Y-110638134D01*
X144087764Y-110640582D01*
X144071101Y-110641401D01*
X144071099Y-110641401D01*
X144054436Y-110640582D01*
X144037934Y-110638134D01*
X144021751Y-110634081D01*
X144006043Y-110628461D01*
X143990962Y-110621328D01*
X143976652Y-110612751D01*
X143963252Y-110602813D01*
X143950891Y-110591609D01*
X143939687Y-110579248D01*
X143929749Y-110565848D01*
X143921172Y-110551538D01*
X143914039Y-110536457D01*
X143908419Y-110520749D01*
X143904366Y-110504566D01*
X143901918Y-110488064D01*
X143901099Y-110471401D01*
X143901099Y-110471399D01*
X143901918Y-110454736D01*
X143904366Y-110438234D01*
X143908419Y-110422051D01*
X143914039Y-110406343D01*
X143921172Y-110391262D01*
X143929749Y-110376952D01*
X143939687Y-110363552D01*
X143950891Y-110351191D01*
X143963252Y-110339987D01*
X143976652Y-110330049D01*
X143990962Y-110321472D01*
X144006043Y-110314339D01*
X144021751Y-110308719D01*
X144037934Y-110304666D01*
X144054436Y-110302218D01*
X144071099Y-110301399D01*
X144071101Y-110301399D01*
X144087764Y-110302218D01*
X144087764Y-110302218D01*
G37*
D16*
X144071100Y-110471400D03*
D15*
G36*
X144887764Y-110302218D02*
G01*
X144904266Y-110304666D01*
X144920449Y-110308719D01*
X144936157Y-110314339D01*
X144951238Y-110321472D01*
X144965548Y-110330049D01*
X144978948Y-110339987D01*
X144991309Y-110351191D01*
X145002513Y-110363552D01*
X145012451Y-110376952D01*
X145021028Y-110391262D01*
X145028161Y-110406343D01*
X145033781Y-110422051D01*
X145037834Y-110438234D01*
X145040282Y-110454736D01*
X145041101Y-110471399D01*
X145041101Y-110471401D01*
X145040282Y-110488064D01*
X145037834Y-110504566D01*
X145033781Y-110520749D01*
X145028161Y-110536457D01*
X145021028Y-110551538D01*
X145012451Y-110565848D01*
X145002513Y-110579248D01*
X144991309Y-110591609D01*
X144978948Y-110602813D01*
X144965548Y-110612751D01*
X144951238Y-110621328D01*
X144936157Y-110628461D01*
X144920449Y-110634081D01*
X144904266Y-110638134D01*
X144887764Y-110640582D01*
X144871101Y-110641401D01*
X144871099Y-110641401D01*
X144854436Y-110640582D01*
X144837934Y-110638134D01*
X144821751Y-110634081D01*
X144806043Y-110628461D01*
X144790962Y-110621328D01*
X144776652Y-110612751D01*
X144763252Y-110602813D01*
X144750891Y-110591609D01*
X144739687Y-110579248D01*
X144729749Y-110565848D01*
X144721172Y-110551538D01*
X144714039Y-110536457D01*
X144708419Y-110520749D01*
X144704366Y-110504566D01*
X144701918Y-110488064D01*
X144701099Y-110471401D01*
X144701099Y-110471399D01*
X144701918Y-110454736D01*
X144704366Y-110438234D01*
X144708419Y-110422051D01*
X144714039Y-110406343D01*
X144721172Y-110391262D01*
X144729749Y-110376952D01*
X144739687Y-110363552D01*
X144750891Y-110351191D01*
X144763252Y-110339987D01*
X144776652Y-110330049D01*
X144790962Y-110321472D01*
X144806043Y-110314339D01*
X144821751Y-110308719D01*
X144837934Y-110304666D01*
X144854436Y-110302218D01*
X144871099Y-110301399D01*
X144871101Y-110301399D01*
X144887764Y-110302218D01*
X144887764Y-110302218D01*
G37*
D16*
X144871100Y-110471400D03*
D15*
G36*
X145687764Y-110302218D02*
G01*
X145704266Y-110304666D01*
X145720449Y-110308719D01*
X145736157Y-110314339D01*
X145751238Y-110321472D01*
X145765548Y-110330049D01*
X145778948Y-110339987D01*
X145791309Y-110351191D01*
X145802513Y-110363552D01*
X145812451Y-110376952D01*
X145821028Y-110391262D01*
X145828161Y-110406343D01*
X145833781Y-110422051D01*
X145837834Y-110438234D01*
X145840282Y-110454736D01*
X145841101Y-110471399D01*
X145841101Y-110471401D01*
X145840282Y-110488064D01*
X145837834Y-110504566D01*
X145833781Y-110520749D01*
X145828161Y-110536457D01*
X145821028Y-110551538D01*
X145812451Y-110565848D01*
X145802513Y-110579248D01*
X145791309Y-110591609D01*
X145778948Y-110602813D01*
X145765548Y-110612751D01*
X145751238Y-110621328D01*
X145736157Y-110628461D01*
X145720449Y-110634081D01*
X145704266Y-110638134D01*
X145687764Y-110640582D01*
X145671101Y-110641401D01*
X145671099Y-110641401D01*
X145654436Y-110640582D01*
X145637934Y-110638134D01*
X145621751Y-110634081D01*
X145606043Y-110628461D01*
X145590962Y-110621328D01*
X145576652Y-110612751D01*
X145563252Y-110602813D01*
X145550891Y-110591609D01*
X145539687Y-110579248D01*
X145529749Y-110565848D01*
X145521172Y-110551538D01*
X145514039Y-110536457D01*
X145508419Y-110520749D01*
X145504366Y-110504566D01*
X145501918Y-110488064D01*
X145501099Y-110471401D01*
X145501099Y-110471399D01*
X145501918Y-110454736D01*
X145504366Y-110438234D01*
X145508419Y-110422051D01*
X145514039Y-110406343D01*
X145521172Y-110391262D01*
X145529749Y-110376952D01*
X145539687Y-110363552D01*
X145550891Y-110351191D01*
X145563252Y-110339987D01*
X145576652Y-110330049D01*
X145590962Y-110321472D01*
X145606043Y-110314339D01*
X145621751Y-110308719D01*
X145637934Y-110304666D01*
X145654436Y-110302218D01*
X145671099Y-110301399D01*
X145671101Y-110301399D01*
X145687764Y-110302218D01*
X145687764Y-110302218D01*
G37*
D16*
X145671100Y-110471400D03*
D15*
G36*
X146487764Y-110302218D02*
G01*
X146504266Y-110304666D01*
X146520449Y-110308719D01*
X146536157Y-110314339D01*
X146551238Y-110321472D01*
X146565548Y-110330049D01*
X146578948Y-110339987D01*
X146591309Y-110351191D01*
X146602513Y-110363552D01*
X146612451Y-110376952D01*
X146621028Y-110391262D01*
X146628161Y-110406343D01*
X146633781Y-110422051D01*
X146637834Y-110438234D01*
X146640282Y-110454736D01*
X146641101Y-110471399D01*
X146641101Y-110471401D01*
X146640282Y-110488064D01*
X146637834Y-110504566D01*
X146633781Y-110520749D01*
X146628161Y-110536457D01*
X146621028Y-110551538D01*
X146612451Y-110565848D01*
X146602513Y-110579248D01*
X146591309Y-110591609D01*
X146578948Y-110602813D01*
X146565548Y-110612751D01*
X146551238Y-110621328D01*
X146536157Y-110628461D01*
X146520449Y-110634081D01*
X146504266Y-110638134D01*
X146487764Y-110640582D01*
X146471101Y-110641401D01*
X146471099Y-110641401D01*
X146454436Y-110640582D01*
X146437934Y-110638134D01*
X146421751Y-110634081D01*
X146406043Y-110628461D01*
X146390962Y-110621328D01*
X146376652Y-110612751D01*
X146363252Y-110602813D01*
X146350891Y-110591609D01*
X146339687Y-110579248D01*
X146329749Y-110565848D01*
X146321172Y-110551538D01*
X146314039Y-110536457D01*
X146308419Y-110520749D01*
X146304366Y-110504566D01*
X146301918Y-110488064D01*
X146301099Y-110471401D01*
X146301099Y-110471399D01*
X146301918Y-110454736D01*
X146304366Y-110438234D01*
X146308419Y-110422051D01*
X146314039Y-110406343D01*
X146321172Y-110391262D01*
X146329749Y-110376952D01*
X146339687Y-110363552D01*
X146350891Y-110351191D01*
X146363252Y-110339987D01*
X146376652Y-110330049D01*
X146390962Y-110321472D01*
X146406043Y-110314339D01*
X146421751Y-110308719D01*
X146437934Y-110304666D01*
X146454436Y-110302218D01*
X146471099Y-110301399D01*
X146471101Y-110301399D01*
X146487764Y-110302218D01*
X146487764Y-110302218D01*
G37*
D16*
X146471100Y-110471400D03*
D15*
G36*
X147287764Y-110302218D02*
G01*
X147304266Y-110304666D01*
X147320449Y-110308719D01*
X147336157Y-110314339D01*
X147351238Y-110321472D01*
X147365548Y-110330049D01*
X147378948Y-110339987D01*
X147391309Y-110351191D01*
X147402513Y-110363552D01*
X147412451Y-110376952D01*
X147421028Y-110391262D01*
X147428161Y-110406343D01*
X147433781Y-110422051D01*
X147437834Y-110438234D01*
X147440282Y-110454736D01*
X147441101Y-110471399D01*
X147441101Y-110471401D01*
X147440282Y-110488064D01*
X147437834Y-110504566D01*
X147433781Y-110520749D01*
X147428161Y-110536457D01*
X147421028Y-110551538D01*
X147412451Y-110565848D01*
X147402513Y-110579248D01*
X147391309Y-110591609D01*
X147378948Y-110602813D01*
X147365548Y-110612751D01*
X147351238Y-110621328D01*
X147336157Y-110628461D01*
X147320449Y-110634081D01*
X147304266Y-110638134D01*
X147287764Y-110640582D01*
X147271101Y-110641401D01*
X147271099Y-110641401D01*
X147254436Y-110640582D01*
X147237934Y-110638134D01*
X147221751Y-110634081D01*
X147206043Y-110628461D01*
X147190962Y-110621328D01*
X147176652Y-110612751D01*
X147163252Y-110602813D01*
X147150891Y-110591609D01*
X147139687Y-110579248D01*
X147129749Y-110565848D01*
X147121172Y-110551538D01*
X147114039Y-110536457D01*
X147108419Y-110520749D01*
X147104366Y-110504566D01*
X147101918Y-110488064D01*
X147101099Y-110471401D01*
X147101099Y-110471399D01*
X147101918Y-110454736D01*
X147104366Y-110438234D01*
X147108419Y-110422051D01*
X147114039Y-110406343D01*
X147121172Y-110391262D01*
X147129749Y-110376952D01*
X147139687Y-110363552D01*
X147150891Y-110351191D01*
X147163252Y-110339987D01*
X147176652Y-110330049D01*
X147190962Y-110321472D01*
X147206043Y-110314339D01*
X147221751Y-110308719D01*
X147237934Y-110304666D01*
X147254436Y-110302218D01*
X147271099Y-110301399D01*
X147271101Y-110301399D01*
X147287764Y-110302218D01*
X147287764Y-110302218D01*
G37*
D16*
X147271100Y-110471400D03*
D15*
G36*
X148087764Y-110302218D02*
G01*
X148104266Y-110304666D01*
X148120449Y-110308719D01*
X148136157Y-110314339D01*
X148151238Y-110321472D01*
X148165548Y-110330049D01*
X148178948Y-110339987D01*
X148191309Y-110351191D01*
X148202513Y-110363552D01*
X148212451Y-110376952D01*
X148221028Y-110391262D01*
X148228161Y-110406343D01*
X148233781Y-110422051D01*
X148237834Y-110438234D01*
X148240282Y-110454736D01*
X148241101Y-110471399D01*
X148241101Y-110471401D01*
X148240282Y-110488064D01*
X148237834Y-110504566D01*
X148233781Y-110520749D01*
X148228161Y-110536457D01*
X148221028Y-110551538D01*
X148212451Y-110565848D01*
X148202513Y-110579248D01*
X148191309Y-110591609D01*
X148178948Y-110602813D01*
X148165548Y-110612751D01*
X148151238Y-110621328D01*
X148136157Y-110628461D01*
X148120449Y-110634081D01*
X148104266Y-110638134D01*
X148087764Y-110640582D01*
X148071101Y-110641401D01*
X148071099Y-110641401D01*
X148054436Y-110640582D01*
X148037934Y-110638134D01*
X148021751Y-110634081D01*
X148006043Y-110628461D01*
X147990962Y-110621328D01*
X147976652Y-110612751D01*
X147963252Y-110602813D01*
X147950891Y-110591609D01*
X147939687Y-110579248D01*
X147929749Y-110565848D01*
X147921172Y-110551538D01*
X147914039Y-110536457D01*
X147908419Y-110520749D01*
X147904366Y-110504566D01*
X147901918Y-110488064D01*
X147901099Y-110471401D01*
X147901099Y-110471399D01*
X147901918Y-110454736D01*
X147904366Y-110438234D01*
X147908419Y-110422051D01*
X147914039Y-110406343D01*
X147921172Y-110391262D01*
X147929749Y-110376952D01*
X147939687Y-110363552D01*
X147950891Y-110351191D01*
X147963252Y-110339987D01*
X147976652Y-110330049D01*
X147990962Y-110321472D01*
X148006043Y-110314339D01*
X148021751Y-110308719D01*
X148037934Y-110304666D01*
X148054436Y-110302218D01*
X148071099Y-110301399D01*
X148071101Y-110301399D01*
X148087764Y-110302218D01*
X148087764Y-110302218D01*
G37*
D16*
X148071100Y-110471400D03*
D15*
G36*
X144087764Y-109552218D02*
G01*
X144104266Y-109554666D01*
X144120449Y-109558719D01*
X144136157Y-109564339D01*
X144151238Y-109571472D01*
X144165548Y-109580049D01*
X144178948Y-109589987D01*
X144191309Y-109601191D01*
X144202513Y-109613552D01*
X144212451Y-109626952D01*
X144221028Y-109641262D01*
X144228161Y-109656343D01*
X144233781Y-109672051D01*
X144237834Y-109688234D01*
X144240282Y-109704736D01*
X144241101Y-109721399D01*
X144241101Y-109721401D01*
X144240282Y-109738064D01*
X144237834Y-109754566D01*
X144233781Y-109770749D01*
X144228161Y-109786457D01*
X144221028Y-109801538D01*
X144212451Y-109815848D01*
X144202513Y-109829248D01*
X144191309Y-109841609D01*
X144178948Y-109852813D01*
X144165548Y-109862751D01*
X144151238Y-109871328D01*
X144136157Y-109878461D01*
X144120449Y-109884081D01*
X144104266Y-109888134D01*
X144087764Y-109890582D01*
X144071101Y-109891401D01*
X144071099Y-109891401D01*
X144054436Y-109890582D01*
X144037934Y-109888134D01*
X144021751Y-109884081D01*
X144006043Y-109878461D01*
X143990962Y-109871328D01*
X143976652Y-109862751D01*
X143963252Y-109852813D01*
X143950891Y-109841609D01*
X143939687Y-109829248D01*
X143929749Y-109815848D01*
X143921172Y-109801538D01*
X143914039Y-109786457D01*
X143908419Y-109770749D01*
X143904366Y-109754566D01*
X143901918Y-109738064D01*
X143901099Y-109721401D01*
X143901099Y-109721399D01*
X143901918Y-109704736D01*
X143904366Y-109688234D01*
X143908419Y-109672051D01*
X143914039Y-109656343D01*
X143921172Y-109641262D01*
X143929749Y-109626952D01*
X143939687Y-109613552D01*
X143950891Y-109601191D01*
X143963252Y-109589987D01*
X143976652Y-109580049D01*
X143990962Y-109571472D01*
X144006043Y-109564339D01*
X144021751Y-109558719D01*
X144037934Y-109554666D01*
X144054436Y-109552218D01*
X144071099Y-109551399D01*
X144071101Y-109551399D01*
X144087764Y-109552218D01*
X144087764Y-109552218D01*
G37*
D16*
X144071100Y-109721400D03*
D15*
G36*
X144887764Y-109552218D02*
G01*
X144904266Y-109554666D01*
X144920449Y-109558719D01*
X144936157Y-109564339D01*
X144951238Y-109571472D01*
X144965548Y-109580049D01*
X144978948Y-109589987D01*
X144991309Y-109601191D01*
X145002513Y-109613552D01*
X145012451Y-109626952D01*
X145021028Y-109641262D01*
X145028161Y-109656343D01*
X145033781Y-109672051D01*
X145037834Y-109688234D01*
X145040282Y-109704736D01*
X145041101Y-109721399D01*
X145041101Y-109721401D01*
X145040282Y-109738064D01*
X145037834Y-109754566D01*
X145033781Y-109770749D01*
X145028161Y-109786457D01*
X145021028Y-109801538D01*
X145012451Y-109815848D01*
X145002513Y-109829248D01*
X144991309Y-109841609D01*
X144978948Y-109852813D01*
X144965548Y-109862751D01*
X144951238Y-109871328D01*
X144936157Y-109878461D01*
X144920449Y-109884081D01*
X144904266Y-109888134D01*
X144887764Y-109890582D01*
X144871101Y-109891401D01*
X144871099Y-109891401D01*
X144854436Y-109890582D01*
X144837934Y-109888134D01*
X144821751Y-109884081D01*
X144806043Y-109878461D01*
X144790962Y-109871328D01*
X144776652Y-109862751D01*
X144763252Y-109852813D01*
X144750891Y-109841609D01*
X144739687Y-109829248D01*
X144729749Y-109815848D01*
X144721172Y-109801538D01*
X144714039Y-109786457D01*
X144708419Y-109770749D01*
X144704366Y-109754566D01*
X144701918Y-109738064D01*
X144701099Y-109721401D01*
X144701099Y-109721399D01*
X144701918Y-109704736D01*
X144704366Y-109688234D01*
X144708419Y-109672051D01*
X144714039Y-109656343D01*
X144721172Y-109641262D01*
X144729749Y-109626952D01*
X144739687Y-109613552D01*
X144750891Y-109601191D01*
X144763252Y-109589987D01*
X144776652Y-109580049D01*
X144790962Y-109571472D01*
X144806043Y-109564339D01*
X144821751Y-109558719D01*
X144837934Y-109554666D01*
X144854436Y-109552218D01*
X144871099Y-109551399D01*
X144871101Y-109551399D01*
X144887764Y-109552218D01*
X144887764Y-109552218D01*
G37*
D16*
X144871100Y-109721400D03*
D15*
G36*
X145687764Y-109552218D02*
G01*
X145704266Y-109554666D01*
X145720449Y-109558719D01*
X145736157Y-109564339D01*
X145751238Y-109571472D01*
X145765548Y-109580049D01*
X145778948Y-109589987D01*
X145791309Y-109601191D01*
X145802513Y-109613552D01*
X145812451Y-109626952D01*
X145821028Y-109641262D01*
X145828161Y-109656343D01*
X145833781Y-109672051D01*
X145837834Y-109688234D01*
X145840282Y-109704736D01*
X145841101Y-109721399D01*
X145841101Y-109721401D01*
X145840282Y-109738064D01*
X145837834Y-109754566D01*
X145833781Y-109770749D01*
X145828161Y-109786457D01*
X145821028Y-109801538D01*
X145812451Y-109815848D01*
X145802513Y-109829248D01*
X145791309Y-109841609D01*
X145778948Y-109852813D01*
X145765548Y-109862751D01*
X145751238Y-109871328D01*
X145736157Y-109878461D01*
X145720449Y-109884081D01*
X145704266Y-109888134D01*
X145687764Y-109890582D01*
X145671101Y-109891401D01*
X145671099Y-109891401D01*
X145654436Y-109890582D01*
X145637934Y-109888134D01*
X145621751Y-109884081D01*
X145606043Y-109878461D01*
X145590962Y-109871328D01*
X145576652Y-109862751D01*
X145563252Y-109852813D01*
X145550891Y-109841609D01*
X145539687Y-109829248D01*
X145529749Y-109815848D01*
X145521172Y-109801538D01*
X145514039Y-109786457D01*
X145508419Y-109770749D01*
X145504366Y-109754566D01*
X145501918Y-109738064D01*
X145501099Y-109721401D01*
X145501099Y-109721399D01*
X145501918Y-109704736D01*
X145504366Y-109688234D01*
X145508419Y-109672051D01*
X145514039Y-109656343D01*
X145521172Y-109641262D01*
X145529749Y-109626952D01*
X145539687Y-109613552D01*
X145550891Y-109601191D01*
X145563252Y-109589987D01*
X145576652Y-109580049D01*
X145590962Y-109571472D01*
X145606043Y-109564339D01*
X145621751Y-109558719D01*
X145637934Y-109554666D01*
X145654436Y-109552218D01*
X145671099Y-109551399D01*
X145671101Y-109551399D01*
X145687764Y-109552218D01*
X145687764Y-109552218D01*
G37*
D16*
X145671100Y-109721400D03*
D15*
G36*
X146487764Y-109552218D02*
G01*
X146504266Y-109554666D01*
X146520449Y-109558719D01*
X146536157Y-109564339D01*
X146551238Y-109571472D01*
X146565548Y-109580049D01*
X146578948Y-109589987D01*
X146591309Y-109601191D01*
X146602513Y-109613552D01*
X146612451Y-109626952D01*
X146621028Y-109641262D01*
X146628161Y-109656343D01*
X146633781Y-109672051D01*
X146637834Y-109688234D01*
X146640282Y-109704736D01*
X146641101Y-109721399D01*
X146641101Y-109721401D01*
X146640282Y-109738064D01*
X146637834Y-109754566D01*
X146633781Y-109770749D01*
X146628161Y-109786457D01*
X146621028Y-109801538D01*
X146612451Y-109815848D01*
X146602513Y-109829248D01*
X146591309Y-109841609D01*
X146578948Y-109852813D01*
X146565548Y-109862751D01*
X146551238Y-109871328D01*
X146536157Y-109878461D01*
X146520449Y-109884081D01*
X146504266Y-109888134D01*
X146487764Y-109890582D01*
X146471101Y-109891401D01*
X146471099Y-109891401D01*
X146454436Y-109890582D01*
X146437934Y-109888134D01*
X146421751Y-109884081D01*
X146406043Y-109878461D01*
X146390962Y-109871328D01*
X146376652Y-109862751D01*
X146363252Y-109852813D01*
X146350891Y-109841609D01*
X146339687Y-109829248D01*
X146329749Y-109815848D01*
X146321172Y-109801538D01*
X146314039Y-109786457D01*
X146308419Y-109770749D01*
X146304366Y-109754566D01*
X146301918Y-109738064D01*
X146301099Y-109721401D01*
X146301099Y-109721399D01*
X146301918Y-109704736D01*
X146304366Y-109688234D01*
X146308419Y-109672051D01*
X146314039Y-109656343D01*
X146321172Y-109641262D01*
X146329749Y-109626952D01*
X146339687Y-109613552D01*
X146350891Y-109601191D01*
X146363252Y-109589987D01*
X146376652Y-109580049D01*
X146390962Y-109571472D01*
X146406043Y-109564339D01*
X146421751Y-109558719D01*
X146437934Y-109554666D01*
X146454436Y-109552218D01*
X146471099Y-109551399D01*
X146471101Y-109551399D01*
X146487764Y-109552218D01*
X146487764Y-109552218D01*
G37*
D16*
X146471100Y-109721400D03*
D15*
G36*
X147287764Y-109552218D02*
G01*
X147304266Y-109554666D01*
X147320449Y-109558719D01*
X147336157Y-109564339D01*
X147351238Y-109571472D01*
X147365548Y-109580049D01*
X147378948Y-109589987D01*
X147391309Y-109601191D01*
X147402513Y-109613552D01*
X147412451Y-109626952D01*
X147421028Y-109641262D01*
X147428161Y-109656343D01*
X147433781Y-109672051D01*
X147437834Y-109688234D01*
X147440282Y-109704736D01*
X147441101Y-109721399D01*
X147441101Y-109721401D01*
X147440282Y-109738064D01*
X147437834Y-109754566D01*
X147433781Y-109770749D01*
X147428161Y-109786457D01*
X147421028Y-109801538D01*
X147412451Y-109815848D01*
X147402513Y-109829248D01*
X147391309Y-109841609D01*
X147378948Y-109852813D01*
X147365548Y-109862751D01*
X147351238Y-109871328D01*
X147336157Y-109878461D01*
X147320449Y-109884081D01*
X147304266Y-109888134D01*
X147287764Y-109890582D01*
X147271101Y-109891401D01*
X147271099Y-109891401D01*
X147254436Y-109890582D01*
X147237934Y-109888134D01*
X147221751Y-109884081D01*
X147206043Y-109878461D01*
X147190962Y-109871328D01*
X147176652Y-109862751D01*
X147163252Y-109852813D01*
X147150891Y-109841609D01*
X147139687Y-109829248D01*
X147129749Y-109815848D01*
X147121172Y-109801538D01*
X147114039Y-109786457D01*
X147108419Y-109770749D01*
X147104366Y-109754566D01*
X147101918Y-109738064D01*
X147101099Y-109721401D01*
X147101099Y-109721399D01*
X147101918Y-109704736D01*
X147104366Y-109688234D01*
X147108419Y-109672051D01*
X147114039Y-109656343D01*
X147121172Y-109641262D01*
X147129749Y-109626952D01*
X147139687Y-109613552D01*
X147150891Y-109601191D01*
X147163252Y-109589987D01*
X147176652Y-109580049D01*
X147190962Y-109571472D01*
X147206043Y-109564339D01*
X147221751Y-109558719D01*
X147237934Y-109554666D01*
X147254436Y-109552218D01*
X147271099Y-109551399D01*
X147271101Y-109551399D01*
X147287764Y-109552218D01*
X147287764Y-109552218D01*
G37*
D16*
X147271100Y-109721400D03*
D15*
G36*
X148087764Y-109552218D02*
G01*
X148104266Y-109554666D01*
X148120449Y-109558719D01*
X148136157Y-109564339D01*
X148151238Y-109571472D01*
X148165548Y-109580049D01*
X148178948Y-109589987D01*
X148191309Y-109601191D01*
X148202513Y-109613552D01*
X148212451Y-109626952D01*
X148221028Y-109641262D01*
X148228161Y-109656343D01*
X148233781Y-109672051D01*
X148237834Y-109688234D01*
X148240282Y-109704736D01*
X148241101Y-109721399D01*
X148241101Y-109721401D01*
X148240282Y-109738064D01*
X148237834Y-109754566D01*
X148233781Y-109770749D01*
X148228161Y-109786457D01*
X148221028Y-109801538D01*
X148212451Y-109815848D01*
X148202513Y-109829248D01*
X148191309Y-109841609D01*
X148178948Y-109852813D01*
X148165548Y-109862751D01*
X148151238Y-109871328D01*
X148136157Y-109878461D01*
X148120449Y-109884081D01*
X148104266Y-109888134D01*
X148087764Y-109890582D01*
X148071101Y-109891401D01*
X148071099Y-109891401D01*
X148054436Y-109890582D01*
X148037934Y-109888134D01*
X148021751Y-109884081D01*
X148006043Y-109878461D01*
X147990962Y-109871328D01*
X147976652Y-109862751D01*
X147963252Y-109852813D01*
X147950891Y-109841609D01*
X147939687Y-109829248D01*
X147929749Y-109815848D01*
X147921172Y-109801538D01*
X147914039Y-109786457D01*
X147908419Y-109770749D01*
X147904366Y-109754566D01*
X147901918Y-109738064D01*
X147901099Y-109721401D01*
X147901099Y-109721399D01*
X147901918Y-109704736D01*
X147904366Y-109688234D01*
X147908419Y-109672051D01*
X147914039Y-109656343D01*
X147921172Y-109641262D01*
X147929749Y-109626952D01*
X147939687Y-109613552D01*
X147950891Y-109601191D01*
X147963252Y-109589987D01*
X147976652Y-109580049D01*
X147990962Y-109571472D01*
X148006043Y-109564339D01*
X148021751Y-109558719D01*
X148037934Y-109554666D01*
X148054436Y-109552218D01*
X148071099Y-109551399D01*
X148071101Y-109551399D01*
X148087764Y-109552218D01*
X148087764Y-109552218D01*
G37*
D16*
X148071100Y-109721400D03*
D13*
X150171100Y-106571400D03*
X150171100Y-108171400D03*
D17*
X148792100Y-115938400D03*
X151592100Y-115938400D03*
D13*
X145044100Y-115671400D03*
X146644100Y-115671400D03*
X150171100Y-110271400D03*
X150171100Y-111871400D03*
D18*
X140721400Y-113128900D03*
X142521400Y-113128900D03*
D13*
X146671106Y-107271371D03*
X148271106Y-107271371D03*
D19*
X159246100Y-105821600D03*
X155546100Y-105821600D03*
D20*
X154571100Y-102321600D03*
X154571100Y-96351600D03*
D21*
X165046100Y-94326600D03*
D22*
X165396100Y-95536600D03*
D23*
X165396100Y-96586600D03*
X165396100Y-97686600D03*
X165396100Y-98786600D03*
X165396100Y-99886600D03*
X165396100Y-100986600D03*
X165396100Y-102086600D03*
X165396100Y-103186600D03*
D24*
X165271100Y-105646600D03*
M02*
