G04 #@! TF.GenerationSoftware,KiCad,Pcbnew,(5.1.4)-1*
G04 #@! TF.CreationDate,2019-10-25T18:27:15-07:00*
G04 #@! TF.ProjectId,base,62617365-2e6b-4696-9361-645f70636258,rev?*
G04 #@! TF.SameCoordinates,Original*
G04 #@! TF.FileFunction,Legend,Top*
G04 #@! TF.FilePolarity,Positive*
%FSLAX46Y46*%
G04 Gerber Fmt 4.6, Leading zero omitted, Abs format (unit mm)*
G04 Created by KiCad (PCBNEW (5.1.4)-1) date 2019-10-25 18:27:15*
%MOMM*%
%LPD*%
G04 APERTURE LIST*
%ADD10C,0.162560*%
%ADD11C,0.050000*%
%ADD12C,0.152400*%
%ADD13C,0.127000*%
%ADD14C,0.050800*%
%ADD15C,0.100000*%
%ADD16C,0.101600*%
%ADD17C,0.203200*%
%ADD18C,0.558800*%
%ADD19C,0.077216*%
%ADD20C,0.061772*%
G04 APERTURE END LIST*
D10*
X165254577Y-112661627D02*
X165769350Y-112477779D01*
X165254577Y-112293932D01*
X164997190Y-111852697D02*
X164997190Y-111779158D01*
X165033960Y-111705619D01*
X165070729Y-111668850D01*
X165144268Y-111632080D01*
X165291346Y-111595311D01*
X165475194Y-111595311D01*
X165622272Y-111632080D01*
X165695811Y-111668850D01*
X165732580Y-111705619D01*
X165769350Y-111779158D01*
X165769350Y-111852697D01*
X165732580Y-111926236D01*
X165695811Y-111963006D01*
X165622272Y-111999776D01*
X165475194Y-112036545D01*
X165291346Y-112036545D01*
X165144268Y-111999776D01*
X165070729Y-111963006D01*
X165033960Y-111926236D01*
X164997190Y-111852697D01*
X164997190Y-111117307D02*
X164997190Y-111043768D01*
X165033960Y-110970229D01*
X165070729Y-110933459D01*
X165144268Y-110896690D01*
X165291346Y-110859920D01*
X165475194Y-110859920D01*
X165622272Y-110896690D01*
X165695811Y-110933459D01*
X165732580Y-110970229D01*
X165769350Y-111043768D01*
X165769350Y-111117307D01*
X165732580Y-111190846D01*
X165695811Y-111227616D01*
X165622272Y-111264385D01*
X165475194Y-111301155D01*
X165291346Y-111301155D01*
X165144268Y-111264385D01*
X165070729Y-111227616D01*
X165033960Y-111190846D01*
X164997190Y-111117307D01*
X164885430Y-122002416D02*
X165657590Y-121745030D01*
X164885430Y-121487643D01*
X165584051Y-120789022D02*
X165620820Y-120825792D01*
X165657590Y-120936100D01*
X165657590Y-121009639D01*
X165620820Y-121119948D01*
X165547281Y-121193487D01*
X165473742Y-121230256D01*
X165326664Y-121267026D01*
X165216356Y-121267026D01*
X165069278Y-121230256D01*
X164995739Y-121193487D01*
X164922200Y-121119948D01*
X164885430Y-121009639D01*
X164885430Y-120936100D01*
X164922200Y-120825792D01*
X164958969Y-120789022D01*
X165584051Y-120016862D02*
X165620820Y-120053632D01*
X165657590Y-120163940D01*
X165657590Y-120237479D01*
X165620820Y-120347788D01*
X165547281Y-120421327D01*
X165473742Y-120458096D01*
X165326664Y-120494866D01*
X165216356Y-120494866D01*
X165069278Y-120458096D01*
X164995739Y-120421327D01*
X164922200Y-120347788D01*
X164885430Y-120237479D01*
X164885430Y-120163940D01*
X164922200Y-120053632D01*
X164958969Y-120016862D01*
D11*
X166500000Y-93500000D02*
X130500000Y-93500000D01*
X130500000Y-93500000D02*
X130500000Y-127500000D01*
X166500000Y-127500000D02*
X166500000Y-93500000D01*
X130500000Y-127500000D02*
X166500000Y-127500000D01*
D10*
X134621330Y-123383088D02*
X133849170Y-123383088D01*
X133849170Y-123088932D01*
X133885940Y-123015393D01*
X133922709Y-122978623D01*
X133996248Y-122941854D01*
X134106557Y-122941854D01*
X134180096Y-122978623D01*
X134216865Y-123015393D01*
X134253635Y-123088932D01*
X134253635Y-123383088D01*
X133849170Y-122280002D02*
X133849170Y-122427080D01*
X133885940Y-122500619D01*
X133922709Y-122537389D01*
X134033018Y-122610928D01*
X134180096Y-122647697D01*
X134474252Y-122647697D01*
X134547791Y-122610928D01*
X134584560Y-122574158D01*
X134621330Y-122500619D01*
X134621330Y-122353541D01*
X134584560Y-122280002D01*
X134547791Y-122243233D01*
X134474252Y-122206463D01*
X134290404Y-122206463D01*
X134216865Y-122243233D01*
X134180096Y-122280002D01*
X134143326Y-122353541D01*
X134143326Y-122500619D01*
X134180096Y-122574158D01*
X134216865Y-122610928D01*
X134290404Y-122647697D01*
X134621330Y-118430088D02*
X133849170Y-118430088D01*
X133849170Y-118135932D01*
X133885940Y-118062393D01*
X133922709Y-118025623D01*
X133996248Y-117988854D01*
X134106557Y-117988854D01*
X134180096Y-118025623D01*
X134216865Y-118062393D01*
X134253635Y-118135932D01*
X134253635Y-118430088D01*
X134106557Y-117327002D02*
X134621330Y-117327002D01*
X133812400Y-117510850D02*
X134363943Y-117694697D01*
X134363943Y-117216694D01*
X134621330Y-120970088D02*
X133849170Y-120970088D01*
X133849170Y-120675932D01*
X133885940Y-120602393D01*
X133922709Y-120565623D01*
X133996248Y-120528854D01*
X134106557Y-120528854D01*
X134180096Y-120565623D01*
X134216865Y-120602393D01*
X134253635Y-120675932D01*
X134253635Y-120970088D01*
X133849170Y-119830233D02*
X133849170Y-120197928D01*
X134216865Y-120234697D01*
X134180096Y-120197928D01*
X134143326Y-120124389D01*
X134143326Y-119940541D01*
X134180096Y-119867002D01*
X134216865Y-119830233D01*
X134290404Y-119793463D01*
X134474252Y-119793463D01*
X134547791Y-119830233D01*
X134584560Y-119867002D01*
X134621330Y-119940541D01*
X134621330Y-120124389D01*
X134584560Y-120197928D01*
X134547791Y-120234697D01*
X134621330Y-115890088D02*
X133849170Y-115890088D01*
X133849170Y-115595932D01*
X133885940Y-115522393D01*
X133922709Y-115485623D01*
X133996248Y-115448854D01*
X134106557Y-115448854D01*
X134180096Y-115485623D01*
X134216865Y-115522393D01*
X134253635Y-115595932D01*
X134253635Y-115890088D01*
X133849170Y-115191467D02*
X133849170Y-114713463D01*
X134143326Y-114970850D01*
X134143326Y-114860541D01*
X134180096Y-114787002D01*
X134216865Y-114750233D01*
X134290404Y-114713463D01*
X134474252Y-114713463D01*
X134547791Y-114750233D01*
X134584560Y-114787002D01*
X134621330Y-114860541D01*
X134621330Y-115081158D01*
X134584560Y-115154697D01*
X134547791Y-115191467D01*
X134621330Y-113223088D02*
X133849170Y-113223088D01*
X133849170Y-112928932D01*
X133885940Y-112855393D01*
X133922709Y-112818623D01*
X133996248Y-112781854D01*
X134106557Y-112781854D01*
X134180096Y-112818623D01*
X134216865Y-112855393D01*
X134253635Y-112928932D01*
X134253635Y-113223088D01*
X133922709Y-112487697D02*
X133885940Y-112450928D01*
X133849170Y-112377389D01*
X133849170Y-112193541D01*
X133885940Y-112120002D01*
X133922709Y-112083233D01*
X133996248Y-112046463D01*
X134069787Y-112046463D01*
X134180096Y-112083233D01*
X134621330Y-112524467D01*
X134621330Y-112046463D01*
X134621330Y-110683088D02*
X133849170Y-110683088D01*
X133849170Y-110388932D01*
X133885940Y-110315393D01*
X133922709Y-110278623D01*
X133996248Y-110241854D01*
X134106557Y-110241854D01*
X134180096Y-110278623D01*
X134216865Y-110315393D01*
X134253635Y-110388932D01*
X134253635Y-110683088D01*
X134621330Y-109506463D02*
X134621330Y-109947697D01*
X134621330Y-109727080D02*
X133849170Y-109727080D01*
X133959479Y-109800619D01*
X134033018Y-109874158D01*
X134069787Y-109947697D01*
X159095560Y-113767857D02*
X159132330Y-113657549D01*
X159132330Y-113473701D01*
X159095560Y-113400162D01*
X159058791Y-113363393D01*
X158985252Y-113326623D01*
X158911713Y-113326623D01*
X158838174Y-113363393D01*
X158801404Y-113400162D01*
X158764635Y-113473701D01*
X158727865Y-113620779D01*
X158691096Y-113694318D01*
X158654326Y-113731088D01*
X158580787Y-113767857D01*
X158507248Y-113767857D01*
X158433709Y-113731088D01*
X158396940Y-113694318D01*
X158360170Y-113620779D01*
X158360170Y-113436932D01*
X158396940Y-113326623D01*
X158360170Y-113069236D02*
X159132330Y-112885389D01*
X158580787Y-112738311D01*
X159132330Y-112591233D01*
X158360170Y-112407385D01*
X159132330Y-112113229D02*
X158360170Y-112113229D01*
X158360170Y-111929381D01*
X158396940Y-111819073D01*
X158470479Y-111745534D01*
X158544018Y-111708764D01*
X158691096Y-111671995D01*
X158801404Y-111671995D01*
X158948482Y-111708764D01*
X159022021Y-111745534D01*
X159095560Y-111819073D01*
X159132330Y-111929381D01*
X159132330Y-112113229D01*
X159095560Y-111227857D02*
X159132330Y-111117549D01*
X159132330Y-110933701D01*
X159095560Y-110860162D01*
X159058791Y-110823393D01*
X158985252Y-110786623D01*
X158911713Y-110786623D01*
X158838174Y-110823393D01*
X158801404Y-110860162D01*
X158764635Y-110933701D01*
X158727865Y-111080779D01*
X158691096Y-111154318D01*
X158654326Y-111191088D01*
X158580787Y-111227857D01*
X158507248Y-111227857D01*
X158433709Y-111191088D01*
X158396940Y-111154318D01*
X158360170Y-111080779D01*
X158360170Y-110896932D01*
X158396940Y-110786623D01*
X158360170Y-110529236D02*
X159132330Y-110345389D01*
X158580787Y-110198311D01*
X159132330Y-110051233D01*
X158360170Y-109867385D01*
X159058791Y-109131995D02*
X159095560Y-109168764D01*
X159132330Y-109279073D01*
X159132330Y-109352612D01*
X159095560Y-109462920D01*
X159022021Y-109536459D01*
X158948482Y-109573229D01*
X158801404Y-109609998D01*
X158691096Y-109609998D01*
X158544018Y-109573229D01*
X158470479Y-109536459D01*
X158396940Y-109462920D01*
X158360170Y-109352612D01*
X158360170Y-109279073D01*
X158396940Y-109168764D01*
X158433709Y-109131995D01*
D12*
X162692442Y-111285382D02*
X162726914Y-111181968D01*
X162761385Y-111147497D01*
X162830328Y-111113025D01*
X162933742Y-111113025D01*
X163002685Y-111147497D01*
X163037157Y-111181968D01*
X163071628Y-111250911D01*
X163071628Y-111526682D01*
X162347728Y-111526682D01*
X162347728Y-111285382D01*
X162382200Y-111216440D01*
X162416671Y-111181968D01*
X162485614Y-111147497D01*
X162554557Y-111147497D01*
X162623500Y-111181968D01*
X162657971Y-111216440D01*
X162692442Y-111285382D01*
X162692442Y-111526682D01*
X162347728Y-110664897D02*
X162347728Y-110527011D01*
X162382200Y-110458068D01*
X162451142Y-110389125D01*
X162589028Y-110354654D01*
X162830328Y-110354654D01*
X162968214Y-110389125D01*
X163037157Y-110458068D01*
X163071628Y-110527011D01*
X163071628Y-110664897D01*
X163037157Y-110733840D01*
X162968214Y-110802782D01*
X162830328Y-110837254D01*
X162589028Y-110837254D01*
X162451142Y-110802782D01*
X162382200Y-110733840D01*
X162347728Y-110664897D01*
X162347728Y-109906525D02*
X162347728Y-109768640D01*
X162382200Y-109699697D01*
X162451142Y-109630754D01*
X162589028Y-109596282D01*
X162830328Y-109596282D01*
X162968214Y-109630754D01*
X163037157Y-109699697D01*
X163071628Y-109768640D01*
X163071628Y-109906525D01*
X163037157Y-109975468D01*
X162968214Y-110044411D01*
X162830328Y-110078882D01*
X162589028Y-110078882D01*
X162451142Y-110044411D01*
X162382200Y-109975468D01*
X162347728Y-109906525D01*
X162347728Y-109389454D02*
X162347728Y-108975797D01*
X163071628Y-109182625D02*
X162347728Y-109182625D01*
D10*
X163069330Y-108082854D02*
X162701635Y-108340240D01*
X163069330Y-108524088D02*
X162297170Y-108524088D01*
X162297170Y-108229932D01*
X162333940Y-108156393D01*
X162370709Y-108119623D01*
X162444248Y-108082854D01*
X162554557Y-108082854D01*
X162628096Y-108119623D01*
X162664865Y-108156393D01*
X162701635Y-108229932D01*
X162701635Y-108524088D01*
X163032560Y-107788697D02*
X163069330Y-107678389D01*
X163069330Y-107494541D01*
X163032560Y-107421002D01*
X162995791Y-107384233D01*
X162922252Y-107347463D01*
X162848713Y-107347463D01*
X162775174Y-107384233D01*
X162738404Y-107421002D01*
X162701635Y-107494541D01*
X162664865Y-107641619D01*
X162628096Y-107715158D01*
X162591326Y-107751928D01*
X162517787Y-107788697D01*
X162444248Y-107788697D01*
X162370709Y-107751928D01*
X162333940Y-107715158D01*
X162297170Y-107641619D01*
X162297170Y-107457772D01*
X162333940Y-107347463D01*
X162297170Y-107126846D02*
X162297170Y-106685612D01*
X163069330Y-106906229D02*
X162297170Y-106906229D01*
X163069330Y-120843088D02*
X162297170Y-120843088D01*
X162297170Y-120548932D01*
X162333940Y-120475393D01*
X162370709Y-120438623D01*
X162444248Y-120401854D01*
X162554557Y-120401854D01*
X162628096Y-120438623D01*
X162664865Y-120475393D01*
X162701635Y-120548932D01*
X162701635Y-120843088D01*
X162297170Y-120144467D02*
X162297170Y-119629694D01*
X163069330Y-119960619D01*
X133849170Y-126504627D02*
X133849170Y-126026623D01*
X134143326Y-126284010D01*
X134143326Y-126173701D01*
X134180096Y-126100162D01*
X134216865Y-126063393D01*
X134290404Y-126026623D01*
X134474252Y-126026623D01*
X134547791Y-126063393D01*
X134584560Y-126100162D01*
X134621330Y-126173701D01*
X134621330Y-126394318D01*
X134584560Y-126467857D01*
X134547791Y-126504627D01*
X134547791Y-125695697D02*
X134584560Y-125658928D01*
X134621330Y-125695697D01*
X134584560Y-125732467D01*
X134547791Y-125695697D01*
X134621330Y-125695697D01*
X133849170Y-125401541D02*
X133849170Y-124923537D01*
X134143326Y-125180924D01*
X134143326Y-125070616D01*
X134180096Y-124997076D01*
X134216865Y-124960307D01*
X134290404Y-124923537D01*
X134474252Y-124923537D01*
X134547791Y-124960307D01*
X134584560Y-124997076D01*
X134621330Y-125070616D01*
X134621330Y-125291233D01*
X134584560Y-125364772D01*
X134547791Y-125401541D01*
X133849170Y-124702920D02*
X134621330Y-124445534D01*
X133849170Y-124188147D01*
X165837930Y-126048274D02*
X165470235Y-126305660D01*
X165837930Y-126489508D02*
X165065770Y-126489508D01*
X165065770Y-126195352D01*
X165102540Y-126121813D01*
X165139309Y-126085043D01*
X165212848Y-126048274D01*
X165323157Y-126048274D01*
X165396696Y-126085043D01*
X165433465Y-126121813D01*
X165470235Y-126195352D01*
X165470235Y-126489508D01*
X165617313Y-125754117D02*
X165617313Y-125386422D01*
X165837930Y-125827656D02*
X165065770Y-125570270D01*
X165837930Y-125312883D01*
X165065770Y-125129036D02*
X165837930Y-124945188D01*
X165286387Y-124798110D01*
X165837930Y-124651032D01*
X165065770Y-124467184D01*
X163069330Y-118430088D02*
X162297170Y-118430088D01*
X162297170Y-118135932D01*
X162333940Y-118062393D01*
X162370709Y-118025623D01*
X162444248Y-117988854D01*
X162554557Y-117988854D01*
X162628096Y-118025623D01*
X162664865Y-118062393D01*
X162701635Y-118135932D01*
X162701635Y-118430088D01*
X162628096Y-117547619D02*
X162591326Y-117621158D01*
X162554557Y-117657928D01*
X162481018Y-117694697D01*
X162444248Y-117694697D01*
X162370709Y-117657928D01*
X162333940Y-117621158D01*
X162297170Y-117547619D01*
X162297170Y-117400541D01*
X162333940Y-117327002D01*
X162370709Y-117290233D01*
X162444248Y-117253463D01*
X162481018Y-117253463D01*
X162554557Y-117290233D01*
X162591326Y-117327002D01*
X162628096Y-117400541D01*
X162628096Y-117547619D01*
X162664865Y-117621158D01*
X162701635Y-117657928D01*
X162775174Y-117694697D01*
X162922252Y-117694697D01*
X162995791Y-117657928D01*
X163032560Y-117621158D01*
X163069330Y-117547619D01*
X163069330Y-117400541D01*
X163032560Y-117327002D01*
X162995791Y-117290233D01*
X162922252Y-117253463D01*
X162775174Y-117253463D01*
X162701635Y-117290233D01*
X162664865Y-117327002D01*
X162628096Y-117400541D01*
X134621330Y-108143088D02*
X133849170Y-108143088D01*
X133849170Y-107848932D01*
X133885940Y-107775393D01*
X133922709Y-107738623D01*
X133996248Y-107701854D01*
X134106557Y-107701854D01*
X134180096Y-107738623D01*
X134216865Y-107775393D01*
X134253635Y-107848932D01*
X134253635Y-108143088D01*
X133849170Y-107223850D02*
X133849170Y-107150311D01*
X133885940Y-107076772D01*
X133922709Y-107040002D01*
X133996248Y-107003233D01*
X134143326Y-106966463D01*
X134327174Y-106966463D01*
X134474252Y-107003233D01*
X134547791Y-107040002D01*
X134584560Y-107076772D01*
X134621330Y-107150311D01*
X134621330Y-107223850D01*
X134584560Y-107297389D01*
X134547791Y-107334158D01*
X134474252Y-107370928D01*
X134327174Y-107407697D01*
X134143326Y-107407697D01*
X133996248Y-107370928D01*
X133922709Y-107334158D01*
X133885940Y-107297389D01*
X133849170Y-107223850D01*
X159132330Y-115702854D02*
X158764635Y-115960240D01*
X159132330Y-116144088D02*
X158360170Y-116144088D01*
X158360170Y-115849932D01*
X158396940Y-115776393D01*
X158433709Y-115739623D01*
X158507248Y-115702854D01*
X158617557Y-115702854D01*
X158691096Y-115739623D01*
X158727865Y-115776393D01*
X158764635Y-115849932D01*
X158764635Y-116144088D01*
X159095560Y-115408697D02*
X159132330Y-115298389D01*
X159132330Y-115114541D01*
X159095560Y-115041002D01*
X159058791Y-115004233D01*
X158985252Y-114967463D01*
X158911713Y-114967463D01*
X158838174Y-115004233D01*
X158801404Y-115041002D01*
X158764635Y-115114541D01*
X158727865Y-115261619D01*
X158691096Y-115335158D01*
X158654326Y-115371928D01*
X158580787Y-115408697D01*
X158507248Y-115408697D01*
X158433709Y-115371928D01*
X158396940Y-115335158D01*
X158360170Y-115261619D01*
X158360170Y-115077772D01*
X158396940Y-114967463D01*
X158360170Y-114746846D02*
X158360170Y-114305612D01*
X159132330Y-114526229D02*
X158360170Y-114526229D01*
X158396940Y-120946623D02*
X158360170Y-121020162D01*
X158360170Y-121130471D01*
X158396940Y-121240779D01*
X158470479Y-121314318D01*
X158544018Y-121351088D01*
X158691096Y-121387857D01*
X158801404Y-121387857D01*
X158948482Y-121351088D01*
X159022021Y-121314318D01*
X159095560Y-121240779D01*
X159132330Y-121130471D01*
X159132330Y-121056932D01*
X159095560Y-120946623D01*
X159058791Y-120909854D01*
X158801404Y-120909854D01*
X158801404Y-121056932D01*
X159132330Y-120578928D02*
X158360170Y-120578928D01*
X159132330Y-120137694D01*
X158360170Y-120137694D01*
X159132330Y-119769998D02*
X158360170Y-119769998D01*
X158360170Y-119586151D01*
X158396940Y-119475842D01*
X158470479Y-119402303D01*
X158544018Y-119365534D01*
X158691096Y-119328764D01*
X158801404Y-119328764D01*
X158948482Y-119365534D01*
X159022021Y-119402303D01*
X159095560Y-119475842D01*
X159132330Y-119586151D01*
X159132330Y-119769998D01*
X158360170Y-119011627D02*
X158360170Y-118533623D01*
X158654326Y-118791010D01*
X158654326Y-118680701D01*
X158691096Y-118607162D01*
X158727865Y-118570393D01*
X158801404Y-118533623D01*
X158985252Y-118533623D01*
X159058791Y-118570393D01*
X159095560Y-118607162D01*
X159132330Y-118680701D01*
X159132330Y-118901318D01*
X159095560Y-118974857D01*
X159058791Y-119011627D01*
X159058791Y-118202697D02*
X159095560Y-118165928D01*
X159132330Y-118202697D01*
X159095560Y-118239467D01*
X159058791Y-118202697D01*
X159132330Y-118202697D01*
X158360170Y-117908541D02*
X158360170Y-117430537D01*
X158654326Y-117687924D01*
X158654326Y-117577616D01*
X158691096Y-117504076D01*
X158727865Y-117467307D01*
X158801404Y-117430537D01*
X158985252Y-117430537D01*
X159058791Y-117467307D01*
X159095560Y-117504076D01*
X159132330Y-117577616D01*
X159132330Y-117798233D01*
X159095560Y-117871772D01*
X159058791Y-117908541D01*
X158617557Y-117173151D02*
X159132330Y-116989303D01*
X158617557Y-116805456D01*
X163032560Y-114021857D02*
X163069330Y-113911549D01*
X163069330Y-113727701D01*
X163032560Y-113654162D01*
X162995791Y-113617393D01*
X162922252Y-113580623D01*
X162848713Y-113580623D01*
X162775174Y-113617393D01*
X162738404Y-113654162D01*
X162701635Y-113727701D01*
X162664865Y-113874779D01*
X162628096Y-113948318D01*
X162591326Y-113985088D01*
X162517787Y-114021857D01*
X162444248Y-114021857D01*
X162370709Y-113985088D01*
X162333940Y-113948318D01*
X162297170Y-113874779D01*
X162297170Y-113690932D01*
X162333940Y-113580623D01*
X162701635Y-113102619D02*
X163069330Y-113102619D01*
X162297170Y-113360006D02*
X162701635Y-113102619D01*
X162297170Y-112845233D01*
X163069330Y-112587846D02*
X162297170Y-112587846D01*
X163069330Y-112146612D01*
X162297170Y-112146612D01*
X163069330Y-115890088D02*
X162297170Y-115890088D01*
X162297170Y-115595932D01*
X162333940Y-115522393D01*
X162370709Y-115485623D01*
X162444248Y-115448854D01*
X162554557Y-115448854D01*
X162628096Y-115485623D01*
X162664865Y-115522393D01*
X162701635Y-115595932D01*
X162701635Y-115890088D01*
X163069330Y-115081158D02*
X163069330Y-114934080D01*
X163032560Y-114860541D01*
X162995791Y-114823772D01*
X162885482Y-114750233D01*
X162738404Y-114713463D01*
X162444248Y-114713463D01*
X162370709Y-114750233D01*
X162333940Y-114787002D01*
X162297170Y-114860541D01*
X162297170Y-115007619D01*
X162333940Y-115081158D01*
X162370709Y-115117928D01*
X162444248Y-115154697D01*
X162628096Y-115154697D01*
X162701635Y-115117928D01*
X162738404Y-115081158D01*
X162775174Y-115007619D01*
X162775174Y-114860541D01*
X162738404Y-114787002D01*
X162701635Y-114750233D01*
X162628096Y-114713463D01*
D13*
X133134100Y-94932500D02*
X134023100Y-94932500D01*
X134023100Y-94932500D02*
X134023100Y-96342200D01*
X134023100Y-96342200D02*
X133134100Y-96342200D01*
X133134100Y-96342200D02*
X133134100Y-94932500D01*
D10*
X159095560Y-108687857D02*
X159132330Y-108577549D01*
X159132330Y-108393701D01*
X159095560Y-108320162D01*
X159058791Y-108283393D01*
X158985252Y-108246623D01*
X158911713Y-108246623D01*
X158838174Y-108283393D01*
X158801404Y-108320162D01*
X158764635Y-108393701D01*
X158727865Y-108540779D01*
X158691096Y-108614318D01*
X158654326Y-108651088D01*
X158580787Y-108687857D01*
X158507248Y-108687857D01*
X158433709Y-108651088D01*
X158396940Y-108614318D01*
X158360170Y-108540779D01*
X158360170Y-108356932D01*
X158396940Y-108246623D01*
X158360170Y-107989236D02*
X159132330Y-107805389D01*
X158580787Y-107658311D01*
X159132330Y-107511233D01*
X158360170Y-107327385D01*
X158360170Y-106886151D02*
X158360170Y-106739073D01*
X158396940Y-106665534D01*
X158470479Y-106591995D01*
X158617557Y-106555225D01*
X158874943Y-106555225D01*
X159022021Y-106591995D01*
X159095560Y-106665534D01*
X159132330Y-106739073D01*
X159132330Y-106886151D01*
X159095560Y-106959690D01*
X159022021Y-107033229D01*
X158874943Y-107069998D01*
X158617557Y-107069998D01*
X158470479Y-107033229D01*
X158396940Y-106959690D01*
X158360170Y-106886151D01*
D14*
X163289620Y-120859541D02*
X164689620Y-120859541D01*
X163289620Y-123859541D02*
X163289620Y-120859541D01*
X164689620Y-123859541D02*
X163289620Y-123859541D01*
X164689620Y-120859541D02*
X164689620Y-123859541D01*
D15*
G36*
X163608620Y-122130941D02*
G01*
X163608620Y-122588141D01*
X164370620Y-122588141D01*
X164370620Y-122130941D01*
X163608620Y-122130941D01*
G37*
D14*
X163290020Y-122558680D02*
X164690020Y-122558680D01*
X163290020Y-125558680D02*
X163290020Y-122558680D01*
X164690020Y-125558680D02*
X163290020Y-125558680D01*
X164690020Y-122558680D02*
X164690020Y-125558680D01*
D15*
G36*
X163609020Y-123830080D02*
G01*
X163609020Y-124287280D01*
X164371020Y-124287280D01*
X164371020Y-123830080D01*
X163609020Y-123830080D01*
G37*
D14*
X141350000Y-120350000D02*
X139950000Y-120350000D01*
X141350000Y-117350000D02*
X141350000Y-120350000D01*
X139950000Y-117350000D02*
X141350000Y-117350000D01*
X139950000Y-120350000D02*
X139950000Y-117350000D01*
D15*
G36*
X141031000Y-119078600D02*
G01*
X141031000Y-118621400D01*
X140269000Y-118621400D01*
X140269000Y-119078600D01*
X141031000Y-119078600D01*
G37*
D16*
X147225000Y-99950000D02*
X148725000Y-99950000D01*
X148725000Y-101450000D02*
X147225000Y-101450000D01*
X145975000Y-101450000D02*
X144475000Y-101450000D01*
X144475000Y-99950000D02*
X145975000Y-99950000D01*
D17*
X135481600Y-123489500D02*
X136018400Y-123489500D01*
X134327600Y-124729300D02*
X134327600Y-123870500D01*
X137172400Y-123870500D02*
X137172400Y-124729300D01*
X140300000Y-96900000D02*
X140900000Y-97500000D01*
X141500000Y-96900000D02*
X140300000Y-96900000D01*
X140900000Y-97500000D02*
X141500000Y-96900000D01*
X140900000Y-97500000D02*
X140200000Y-97500000D01*
X141600000Y-97500000D02*
X140900000Y-97500000D01*
X140100000Y-98800000D02*
X140100000Y-98200000D01*
X141700000Y-98800000D02*
X140100000Y-98800000D01*
X141700000Y-98200000D02*
X141700000Y-98800000D01*
X140100000Y-95600000D02*
X140100000Y-96200000D01*
X141700000Y-95600000D02*
X140100000Y-95600000D01*
X141700000Y-96200000D02*
X141700000Y-95600000D01*
X143600000Y-97500000D02*
X143000000Y-96900000D01*
X142400000Y-97500000D02*
X143600000Y-97500000D01*
X143000000Y-96900000D02*
X142400000Y-97500000D01*
X143000000Y-96900000D02*
X143700000Y-96900000D01*
X142300000Y-96900000D02*
X143000000Y-96900000D01*
X143800000Y-95600000D02*
X143800000Y-96200000D01*
X142200000Y-95600000D02*
X143800000Y-95600000D01*
X142200000Y-96200000D02*
X142200000Y-95600000D01*
X143800000Y-98800000D02*
X143800000Y-98200000D01*
X142200000Y-98800000D02*
X143800000Y-98800000D01*
X142200000Y-98200000D02*
X142200000Y-98800000D01*
D14*
X139750000Y-120750000D02*
X136950000Y-120750000D01*
X139750000Y-119350000D02*
X139750000Y-120750000D01*
X136950000Y-119350000D02*
X139750000Y-119350000D01*
X136950000Y-120750000D02*
X136950000Y-119350000D01*
D13*
X165877240Y-98374200D02*
X163845240Y-98374200D01*
D17*
X166061240Y-100093200D02*
X166061240Y-98993200D01*
X165661240Y-100493200D02*
X166061240Y-100093200D01*
X164061240Y-100493200D02*
X165661240Y-100493200D01*
X163661240Y-100093200D02*
X164061240Y-100493200D01*
X163661240Y-98993200D02*
X163661240Y-100093200D01*
X166061240Y-95493200D02*
X166061240Y-96993200D01*
X163661240Y-95493200D02*
X166061240Y-95493200D01*
X163661240Y-96993200D02*
X163661240Y-95493200D01*
D14*
X139100000Y-124050000D02*
X137700000Y-124050000D01*
X139100000Y-121050000D02*
X139100000Y-124050000D01*
X137700000Y-121050000D02*
X139100000Y-121050000D01*
X137700000Y-124050000D02*
X137700000Y-121050000D01*
D18*
X138369500Y-122550000D02*
X138430500Y-122550000D01*
D14*
X136250000Y-120800000D02*
X133450000Y-120800000D01*
X136250000Y-119400000D02*
X136250000Y-120800000D01*
X133450000Y-119400000D02*
X136250000Y-119400000D01*
X133450000Y-120800000D02*
X133450000Y-119400000D01*
D17*
X143101100Y-104945600D02*
G75*
G03X143101100Y-104945600I-500000J0D01*
G01*
X142101100Y-117745600D02*
X141601100Y-117245600D01*
X154901100Y-117745600D02*
X155401100Y-117245600D01*
X154901100Y-103945600D02*
X155401100Y-104445600D01*
X141601100Y-104445600D02*
X141601100Y-117245600D01*
X142101100Y-103945600D02*
X141601100Y-104445600D01*
X154901100Y-103945600D02*
X142101100Y-103945600D01*
X155401100Y-117245600D02*
X155401100Y-104445600D01*
X142101100Y-117745600D02*
X154901100Y-117745600D01*
D14*
X161352100Y-104941600D02*
X161352100Y-103541600D01*
X164352100Y-104941600D02*
X161352100Y-104941600D01*
X164352100Y-103541600D02*
X164352100Y-104941600D01*
X161352100Y-103541600D02*
X164352100Y-103541600D01*
D18*
X162852100Y-104211100D02*
X162852100Y-104272100D01*
D14*
X131037100Y-100709600D02*
X132437100Y-100709600D01*
X131037100Y-103709600D02*
X131037100Y-100709600D01*
X132437100Y-103709600D02*
X131037100Y-103709600D01*
X132437100Y-100709600D02*
X132437100Y-103709600D01*
D15*
G36*
X131356100Y-101981000D02*
G01*
X131356100Y-102438200D01*
X132118100Y-102438200D01*
X132118100Y-101981000D01*
X131356100Y-101981000D01*
G37*
D16*
X136384600Y-95579600D02*
X137884600Y-95579600D01*
X137884600Y-98679600D02*
X136384600Y-98679600D01*
D13*
X139738100Y-102336600D02*
X137706100Y-102336600D01*
D17*
X139922100Y-104055600D02*
X139922100Y-102955600D01*
X139522100Y-104455600D02*
X139922100Y-104055600D01*
X137922100Y-104455600D02*
X139522100Y-104455600D01*
X137522100Y-104055600D02*
X137922100Y-104455600D01*
X137522100Y-102955600D02*
X137522100Y-104055600D01*
X139922100Y-99455600D02*
X139922100Y-100955600D01*
X137522100Y-99455600D02*
X139922100Y-99455600D01*
X137522100Y-100955600D02*
X137522100Y-99455600D01*
D14*
X135863100Y-100709600D02*
X137263100Y-100709600D01*
X135863100Y-103709600D02*
X135863100Y-100709600D01*
X137263100Y-103709600D02*
X135863100Y-103709600D01*
X137263100Y-100709600D02*
X137263100Y-103709600D01*
D15*
G36*
X136182100Y-101981000D02*
G01*
X136182100Y-102438200D01*
X136944100Y-102438200D01*
X136944100Y-101981000D01*
X136182100Y-101981000D01*
G37*
D16*
X157619100Y-102959600D02*
X157619100Y-101459600D01*
X160719100Y-101459600D02*
X160719100Y-102959600D01*
X160719100Y-94982600D02*
X160719100Y-96482600D01*
X157619100Y-96482600D02*
X157619100Y-94982600D01*
D17*
X135550100Y-101509600D02*
X135550100Y-102309600D01*
X134950100Y-101509600D02*
X135550100Y-101509600D01*
X132750100Y-101509600D02*
X132750100Y-102309600D01*
X133350100Y-101509600D02*
X132750100Y-101509600D01*
D14*
X156948100Y-103709600D02*
X155548100Y-103709600D01*
X156948100Y-100709600D02*
X156948100Y-103709600D01*
X155548100Y-100709600D02*
X156948100Y-100709600D01*
X155548100Y-103709600D02*
X155548100Y-100709600D01*
D18*
X156217600Y-102209600D02*
X156278600Y-102209600D01*
D13*
X134280100Y-94729600D02*
X133680100Y-94729600D01*
X134280100Y-95329600D02*
X134280100Y-94729600D01*
D17*
X134480100Y-98429600D02*
X134180100Y-98429600D01*
X134480100Y-95829600D02*
X134480100Y-98429600D01*
X134180100Y-95829600D02*
X134480100Y-95829600D01*
X131280100Y-98429600D02*
X131580100Y-98429600D01*
X131280100Y-95829600D02*
X131280100Y-98429600D01*
X131580100Y-95829600D02*
X131280100Y-95829600D01*
D14*
X163044100Y-99645600D02*
X161644100Y-99645600D01*
X163044100Y-96645600D02*
X163044100Y-99645600D01*
X161644100Y-96645600D02*
X163044100Y-96645600D01*
X161644100Y-99645600D02*
X161644100Y-96645600D01*
D18*
X162313600Y-98145600D02*
X162374600Y-98145600D01*
D14*
X141581100Y-103709600D02*
X140181100Y-103709600D01*
X141581100Y-100709600D02*
X141581100Y-103709600D01*
X140181100Y-100709600D02*
X141581100Y-100709600D01*
X140181100Y-103709600D02*
X140181100Y-100709600D01*
D18*
X140850600Y-102209600D02*
X140911600Y-102209600D01*
D14*
X135063100Y-113958600D02*
X135063100Y-112558600D01*
X138063100Y-113958600D02*
X135063100Y-113958600D01*
X138063100Y-112558600D02*
X138063100Y-113958600D01*
X135063100Y-112558600D02*
X138063100Y-112558600D01*
D18*
X136563100Y-113228100D02*
X136563100Y-113289100D01*
D14*
X138063100Y-106970600D02*
X138063100Y-108370600D01*
X135063100Y-106970600D02*
X138063100Y-106970600D01*
X135063100Y-108370600D02*
X135063100Y-106970600D01*
X138063100Y-108370600D02*
X135063100Y-108370600D01*
D18*
X136563100Y-107701100D02*
X136563100Y-107640100D01*
D14*
X138276100Y-115314600D02*
X139676100Y-115314600D01*
X138276100Y-118314600D02*
X138276100Y-115314600D01*
X139676100Y-118314600D02*
X138276100Y-118314600D01*
X139676100Y-115314600D02*
X139676100Y-118314600D01*
D18*
X139006600Y-116814600D02*
X138945600Y-116814600D01*
D14*
X136625100Y-115314600D02*
X138025100Y-115314600D01*
X136625100Y-118314600D02*
X136625100Y-115314600D01*
X138025100Y-118314600D02*
X136625100Y-118314600D01*
X138025100Y-115314600D02*
X138025100Y-118314600D01*
D18*
X137355600Y-116814600D02*
X137294600Y-116814600D01*
D14*
X155548100Y-117981600D02*
X156948100Y-117981600D01*
X155548100Y-120981600D02*
X155548100Y-117981600D01*
X156948100Y-120981600D02*
X155548100Y-120981600D01*
X156948100Y-117981600D02*
X156948100Y-120981600D01*
D18*
X156278600Y-119481600D02*
X156217600Y-119481600D01*
D14*
X139676100Y-108916600D02*
X138276100Y-108916600D01*
X139676100Y-105916600D02*
X139676100Y-108916600D01*
X138276100Y-105916600D02*
X139676100Y-105916600D01*
X138276100Y-108916600D02*
X138276100Y-105916600D01*
D18*
X138945600Y-107416600D02*
X139006600Y-107416600D01*
D14*
X134974100Y-115314600D02*
X136374100Y-115314600D01*
X134974100Y-118314600D02*
X134974100Y-115314600D01*
X136374100Y-118314600D02*
X134974100Y-118314600D01*
X136374100Y-115314600D02*
X136374100Y-118314600D01*
D13*
X135340100Y-108814600D02*
G75*
G03X135340100Y-108814600I-100000J0D01*
G01*
D17*
X137009100Y-108826600D02*
X136409100Y-108826600D01*
X135209100Y-111026600D02*
X135209100Y-109826600D01*
X136959100Y-112076600D02*
X136359100Y-112076600D01*
X138109100Y-109826600D02*
X138109100Y-111026600D01*
D14*
X158431100Y-106465600D02*
X158431100Y-105065600D01*
X161431100Y-106465600D02*
X158431100Y-106465600D01*
X161431100Y-105065600D02*
X161431100Y-106465600D01*
X158431100Y-105065600D02*
X161431100Y-105065600D01*
D18*
X159931100Y-105735100D02*
X159931100Y-105796100D01*
D14*
X152160100Y-120051600D02*
X152160100Y-121451600D01*
X149160100Y-120051600D02*
X152160100Y-120051600D01*
X149160100Y-121451600D02*
X149160100Y-120051600D01*
X152160100Y-121451600D02*
X149160100Y-121451600D01*
D18*
X150660100Y-120782100D02*
X150660100Y-120721100D01*
D14*
X155335100Y-120051600D02*
X155335100Y-121451600D01*
X152335100Y-120051600D02*
X155335100Y-120051600D01*
X152335100Y-121451600D02*
X152335100Y-120051600D01*
X155335100Y-121451600D02*
X152335100Y-121451600D01*
X147547100Y-123167600D02*
X147547100Y-120367600D01*
X148947100Y-123167600D02*
X147547100Y-123167600D01*
X148947100Y-120367600D02*
X148947100Y-123167600D01*
X147547100Y-120367600D02*
X148947100Y-120367600D01*
X142470100Y-123542600D02*
X142470100Y-126342600D01*
X141070100Y-123542600D02*
X142470100Y-123542600D01*
X141070100Y-126342600D02*
X141070100Y-123542600D01*
X142470100Y-126342600D02*
X141070100Y-126342600D01*
D13*
X145434100Y-126958600D02*
X146234100Y-126958600D01*
X145434100Y-124958600D02*
X146234100Y-124958600D01*
D17*
X152314100Y-122464600D02*
X152314100Y-123264600D01*
X151714100Y-122464600D02*
X152314100Y-122464600D01*
X149514100Y-122464600D02*
X149514100Y-123264600D01*
X150114100Y-122464600D02*
X149514100Y-122464600D01*
D14*
X147547100Y-123950600D02*
X148947100Y-123950600D01*
X147547100Y-126950600D02*
X147547100Y-123950600D01*
X148947100Y-126950600D02*
X147547100Y-126950600D01*
X148947100Y-123950600D02*
X148947100Y-126950600D01*
D15*
G36*
X147866100Y-125222000D02*
G01*
X147866100Y-125679200D01*
X148628100Y-125679200D01*
X148628100Y-125222000D01*
X147866100Y-125222000D01*
G37*
D17*
X151414100Y-126862600D02*
X151414100Y-125562600D01*
X151414100Y-125562600D02*
X150014100Y-125562600D01*
X151814100Y-125562600D02*
X151414100Y-125562600D01*
X151414100Y-126862600D02*
X150014100Y-126862600D01*
X151814100Y-126862600D02*
X151414100Y-126862600D01*
D14*
X142721100Y-123315600D02*
X144121100Y-123315600D01*
X142721100Y-126315600D02*
X142721100Y-123315600D01*
X144121100Y-126315600D02*
X142721100Y-126315600D01*
X144121100Y-123315600D02*
X144121100Y-126315600D01*
D15*
G36*
X143040100Y-124587000D02*
G01*
X143040100Y-125044200D01*
X143802100Y-125044200D01*
X143802100Y-124587000D01*
X143040100Y-124587000D01*
G37*
D17*
X146102500Y-123467000D02*
X145565700Y-123467000D01*
X147256500Y-122227200D02*
X147256500Y-123086000D01*
X144411700Y-123086000D02*
X144411700Y-122227200D01*
D13*
X161971100Y-122071100D02*
X161971100Y-127226100D01*
X152811100Y-122071100D02*
X161971100Y-122071100D01*
X152811100Y-127226100D02*
X152811100Y-122071100D01*
X152811100Y-127226100D02*
X161971100Y-127226100D01*
D14*
X142721100Y-120140600D02*
X144121100Y-120140600D01*
X142721100Y-123140600D02*
X142721100Y-120140600D01*
X144121100Y-123140600D02*
X142721100Y-123140600D01*
X144121100Y-120140600D02*
X144121100Y-123140600D01*
D15*
G36*
X143040100Y-121412000D02*
G01*
X143040100Y-121869200D01*
X143802100Y-121869200D01*
X143802100Y-121412000D01*
X143040100Y-121412000D01*
G37*
D12*
X159550100Y-121259600D02*
X159550100Y-119989600D01*
X160185100Y-119354600D02*
X159550100Y-119989600D01*
X162090100Y-119989600D02*
X161455100Y-119354600D01*
X160185100Y-121894600D02*
X159550100Y-121259600D01*
X161455100Y-121894600D02*
X160185100Y-121894600D01*
X162090100Y-121259600D02*
X161455100Y-121894600D01*
X162090100Y-119989600D02*
X162090100Y-121259600D01*
X159550100Y-108559600D02*
X159550100Y-107289600D01*
X160185100Y-106654600D02*
X159550100Y-107289600D01*
X162090100Y-107289600D02*
X161455100Y-106654600D01*
X161455100Y-106654600D02*
X160185100Y-106654600D01*
X159550100Y-109829600D02*
X160185100Y-109194600D01*
X159550100Y-111099600D02*
X159550100Y-109829600D01*
X160185100Y-111734600D02*
X159550100Y-111099600D01*
X161455100Y-111734600D02*
X160185100Y-111734600D01*
X162090100Y-111099600D02*
X161455100Y-111734600D01*
X162090100Y-109829600D02*
X162090100Y-111099600D01*
X161455100Y-109194600D02*
X162090100Y-109829600D01*
X160185100Y-109194600D02*
X159550100Y-108559600D01*
X161455100Y-109194600D02*
X160185100Y-109194600D01*
X162090100Y-108559600D02*
X161455100Y-109194600D01*
X162090100Y-107289600D02*
X162090100Y-108559600D01*
X159550100Y-116179600D02*
X159550100Y-114909600D01*
X160185100Y-114274600D02*
X159550100Y-114909600D01*
X162090100Y-114909600D02*
X161455100Y-114274600D01*
X159550100Y-112369600D02*
X160185100Y-111734600D01*
X159550100Y-113639600D02*
X159550100Y-112369600D01*
X160185100Y-114274600D02*
X159550100Y-113639600D01*
X161455100Y-114274600D02*
X160185100Y-114274600D01*
X162090100Y-113639600D02*
X161455100Y-114274600D01*
X162090100Y-112369600D02*
X162090100Y-113639600D01*
X161455100Y-111734600D02*
X162090100Y-112369600D01*
X159550100Y-117449600D02*
X160185100Y-116814600D01*
X159550100Y-118719600D02*
X159550100Y-117449600D01*
X160185100Y-119354600D02*
X159550100Y-118719600D01*
X161455100Y-119354600D02*
X160185100Y-119354600D01*
X162090100Y-118719600D02*
X161455100Y-119354600D01*
X162090100Y-117449600D02*
X162090100Y-118719600D01*
X161455100Y-116814600D02*
X162090100Y-117449600D01*
X160185100Y-116814600D02*
X159550100Y-116179600D01*
X161455100Y-116814600D02*
X160185100Y-116814600D01*
X162090100Y-116179600D02*
X161455100Y-116814600D01*
X162090100Y-114909600D02*
X162090100Y-116179600D01*
D19*
X139396575Y-119720615D02*
X139267881Y-119536767D01*
X139175958Y-119720615D02*
X139175958Y-119334535D01*
X139323036Y-119334535D01*
X139359805Y-119352920D01*
X139378190Y-119371304D01*
X139396575Y-119408074D01*
X139396575Y-119463228D01*
X139378190Y-119499998D01*
X139359805Y-119518382D01*
X139323036Y-119536767D01*
X139175958Y-119536767D01*
X139727501Y-119463228D02*
X139727501Y-119720615D01*
X139635577Y-119316150D02*
X139543653Y-119591921D01*
X139782655Y-119591921D01*
X149226615Y-100762164D02*
X149042767Y-100890858D01*
X149226615Y-100982781D02*
X148840535Y-100982781D01*
X148840535Y-100835703D01*
X148858920Y-100798934D01*
X148877304Y-100780549D01*
X148914074Y-100762164D01*
X148969228Y-100762164D01*
X149005998Y-100780549D01*
X149024382Y-100798934D01*
X149042767Y-100835703D01*
X149042767Y-100982781D01*
X149226615Y-100596701D02*
X148840535Y-100596701D01*
X149226615Y-100376084D01*
X148840535Y-100376084D01*
X148969228Y-100026774D02*
X149226615Y-100026774D01*
X148822150Y-100118698D02*
X149097921Y-100210621D01*
X149097921Y-99971619D01*
X149024382Y-99695848D02*
X149042767Y-99640694D01*
X149061152Y-99622309D01*
X149097921Y-99603924D01*
X149153076Y-99603924D01*
X149189845Y-99622309D01*
X149208230Y-99640694D01*
X149226615Y-99677463D01*
X149226615Y-99824541D01*
X148840535Y-99824541D01*
X148840535Y-99695848D01*
X148858920Y-99659078D01*
X148877304Y-99640694D01*
X148914074Y-99622309D01*
X148950843Y-99622309D01*
X148987613Y-99640694D01*
X149005998Y-99659078D01*
X149024382Y-99695848D01*
X149024382Y-99824541D01*
X149226615Y-99236229D02*
X149226615Y-99456846D01*
X149226615Y-99346538D02*
X148840535Y-99346538D01*
X148895689Y-99383307D01*
X148932459Y-99420077D01*
X148950843Y-99456846D01*
X143936615Y-101924768D02*
X143752767Y-102053461D01*
X143936615Y-102145385D02*
X143550535Y-102145385D01*
X143550535Y-101998307D01*
X143568920Y-101961538D01*
X143587304Y-101943153D01*
X143624074Y-101924768D01*
X143679228Y-101924768D01*
X143715998Y-101943153D01*
X143734382Y-101961538D01*
X143752767Y-101998307D01*
X143752767Y-102145385D01*
X143936615Y-101759305D02*
X143550535Y-101759305D01*
X143936615Y-101538688D01*
X143550535Y-101538688D01*
X143679228Y-101189378D02*
X143936615Y-101189378D01*
X143532150Y-101281301D02*
X143807921Y-101373225D01*
X143807921Y-101134223D01*
X143826306Y-101005530D02*
X143826306Y-100821682D01*
X143936615Y-101042300D02*
X143550535Y-100913606D01*
X143936615Y-100784913D01*
X143936615Y-100453987D02*
X143936615Y-100674604D01*
X143936615Y-100564296D02*
X143550535Y-100564296D01*
X143605689Y-100601065D01*
X143642459Y-100637835D01*
X143660843Y-100674604D01*
X135265464Y-122283014D02*
X134952923Y-122283014D01*
X134916154Y-122301398D01*
X134897769Y-122319783D01*
X134879384Y-122356553D01*
X134879384Y-122430092D01*
X134897769Y-122466861D01*
X134916154Y-122485246D01*
X134952923Y-122503631D01*
X135265464Y-122503631D01*
X135265464Y-122871326D02*
X135265464Y-122687478D01*
X135081617Y-122669094D01*
X135100001Y-122687478D01*
X135118386Y-122724248D01*
X135118386Y-122816172D01*
X135100001Y-122852941D01*
X135081617Y-122871326D01*
X135044847Y-122889711D01*
X134952923Y-122889711D01*
X134916154Y-122871326D01*
X134897769Y-122852941D01*
X134879384Y-122816172D01*
X134879384Y-122724248D01*
X134897769Y-122687478D01*
X134916154Y-122669094D01*
X142278615Y-97501045D02*
X142278615Y-97684893D01*
X141892535Y-97684893D01*
X142076382Y-97372352D02*
X142076382Y-97243658D01*
X142278615Y-97188504D02*
X142278615Y-97372352D01*
X141892535Y-97372352D01*
X141892535Y-97188504D01*
X142278615Y-97023041D02*
X141892535Y-97023041D01*
X141892535Y-96931118D01*
X141910920Y-96875963D01*
X141947689Y-96839194D01*
X141984459Y-96820809D01*
X142057998Y-96802424D01*
X142113152Y-96802424D01*
X142186691Y-96820809D01*
X142223460Y-96839194D01*
X142260230Y-96875963D01*
X142278615Y-96931118D01*
X142278615Y-97023041D01*
X141892535Y-96673731D02*
X141892535Y-96434729D01*
X142039613Y-96563422D01*
X142039613Y-96508268D01*
X142057998Y-96471498D01*
X142076382Y-96453114D01*
X142113152Y-96434729D01*
X142205076Y-96434729D01*
X142241845Y-96453114D01*
X142260230Y-96471498D01*
X142278615Y-96508268D01*
X142278615Y-96618577D01*
X142260230Y-96655346D01*
X142241845Y-96673731D01*
X141621384Y-98414961D02*
X141621384Y-98231114D01*
X142007464Y-98231114D01*
X141823617Y-98543655D02*
X141823617Y-98672348D01*
X141621384Y-98727502D02*
X141621384Y-98543655D01*
X142007464Y-98543655D01*
X142007464Y-98727502D01*
X141621384Y-98892965D02*
X142007464Y-98892965D01*
X142007464Y-98984889D01*
X141989080Y-99040043D01*
X141952310Y-99076813D01*
X141915540Y-99095198D01*
X141842001Y-99113582D01*
X141786847Y-99113582D01*
X141713308Y-99095198D01*
X141676539Y-99076813D01*
X141639769Y-99040043D01*
X141621384Y-98984889D01*
X141621384Y-98892965D01*
X141970695Y-99260660D02*
X141989080Y-99279045D01*
X142007464Y-99315815D01*
X142007464Y-99407738D01*
X141989080Y-99444508D01*
X141970695Y-99462893D01*
X141933925Y-99481278D01*
X141897156Y-99481278D01*
X141842001Y-99462893D01*
X141621384Y-99242276D01*
X141621384Y-99481278D01*
X139056845Y-121734619D02*
X139075230Y-121753004D01*
X139093615Y-121808158D01*
X139093615Y-121844928D01*
X139075230Y-121900082D01*
X139038460Y-121936852D01*
X139001691Y-121955237D01*
X138928152Y-121973621D01*
X138872998Y-121973621D01*
X138799459Y-121955237D01*
X138762689Y-121936852D01*
X138725920Y-121900082D01*
X138707535Y-121844928D01*
X138707535Y-121808158D01*
X138725920Y-121753004D01*
X138744304Y-121734619D01*
X138744304Y-121587541D02*
X138725920Y-121569157D01*
X138707535Y-121532387D01*
X138707535Y-121440463D01*
X138725920Y-121403694D01*
X138744304Y-121385309D01*
X138781074Y-121366924D01*
X138817843Y-121366924D01*
X138872998Y-121385309D01*
X139093615Y-121605926D01*
X139093615Y-121366924D01*
X138744304Y-121219846D02*
X138725920Y-121201461D01*
X138707535Y-121164692D01*
X138707535Y-121072768D01*
X138725920Y-121035998D01*
X138744304Y-121017614D01*
X138781074Y-120999229D01*
X138817843Y-120999229D01*
X138872998Y-121017614D01*
X139093615Y-121238231D01*
X139093615Y-120999229D01*
X163282085Y-95880408D02*
X163300470Y-95898793D01*
X163318855Y-95953947D01*
X163318855Y-95990717D01*
X163300470Y-96045871D01*
X163263700Y-96082641D01*
X163226931Y-96101025D01*
X163153392Y-96119410D01*
X163098238Y-96119410D01*
X163024699Y-96101025D01*
X162987929Y-96082641D01*
X162951160Y-96045871D01*
X162932775Y-95990717D01*
X162932775Y-95953947D01*
X162951160Y-95898793D01*
X162969544Y-95880408D01*
X162969544Y-95733330D02*
X162951160Y-95714945D01*
X162932775Y-95678176D01*
X162932775Y-95586252D01*
X162951160Y-95549482D01*
X162969544Y-95531098D01*
X163006314Y-95512713D01*
X163043083Y-95512713D01*
X163098238Y-95531098D01*
X163318855Y-95751715D01*
X163318855Y-95512713D01*
X163318855Y-95145018D02*
X163318855Y-95365635D01*
X163318855Y-95255326D02*
X162932775Y-95255326D01*
X162987929Y-95292096D01*
X163024699Y-95328865D01*
X163043083Y-95365635D01*
X137582845Y-123076268D02*
X137601230Y-123094653D01*
X137619615Y-123149807D01*
X137619615Y-123186577D01*
X137601230Y-123241731D01*
X137564460Y-123278501D01*
X137527691Y-123296885D01*
X137454152Y-123315270D01*
X137398998Y-123315270D01*
X137325459Y-123296885D01*
X137288689Y-123278501D01*
X137251920Y-123241731D01*
X137233535Y-123186577D01*
X137233535Y-123149807D01*
X137251920Y-123094653D01*
X137270304Y-123076268D01*
X137233535Y-122947575D02*
X137233535Y-122690188D01*
X137619615Y-122855651D01*
X135556845Y-121416924D02*
X135575230Y-121435309D01*
X135593615Y-121490463D01*
X135593615Y-121527233D01*
X135575230Y-121582387D01*
X135538460Y-121619157D01*
X135501691Y-121637541D01*
X135428152Y-121655926D01*
X135372998Y-121655926D01*
X135299459Y-121637541D01*
X135262689Y-121619157D01*
X135225920Y-121582387D01*
X135207535Y-121527233D01*
X135207535Y-121490463D01*
X135225920Y-121435309D01*
X135244304Y-121416924D01*
X135207535Y-121288231D02*
X135207535Y-121049229D01*
X135354613Y-121177922D01*
X135354613Y-121122768D01*
X135372998Y-121085998D01*
X135391382Y-121067614D01*
X135428152Y-121049229D01*
X135520076Y-121049229D01*
X135556845Y-121067614D01*
X135575230Y-121085998D01*
X135593615Y-121122768D01*
X135593615Y-121233077D01*
X135575230Y-121269846D01*
X135556845Y-121288231D01*
X142468214Y-101821135D02*
X142468214Y-102133676D01*
X142486598Y-102170445D01*
X142504983Y-102188830D01*
X142541753Y-102207215D01*
X142615292Y-102207215D01*
X142652061Y-102188830D01*
X142670446Y-102170445D01*
X142688831Y-102133676D01*
X142688831Y-101821135D01*
X143074911Y-102207215D02*
X142854294Y-102207215D01*
X142964602Y-102207215D02*
X142964602Y-101821135D01*
X142927833Y-101876289D01*
X142891063Y-101913059D01*
X142854294Y-101931443D01*
X162325831Y-103424445D02*
X162307446Y-103442830D01*
X162252292Y-103461215D01*
X162215522Y-103461215D01*
X162160368Y-103442830D01*
X162123598Y-103406060D01*
X162105214Y-103369291D01*
X162086829Y-103295752D01*
X162086829Y-103240598D01*
X162105214Y-103167059D01*
X162123598Y-103130289D01*
X162160368Y-103093520D01*
X162215522Y-103075135D01*
X162252292Y-103075135D01*
X162307446Y-103093520D01*
X162325831Y-103111904D01*
X162693526Y-103461215D02*
X162472909Y-103461215D01*
X162583218Y-103461215D02*
X162583218Y-103075135D01*
X162546448Y-103130289D01*
X162509678Y-103167059D01*
X162472909Y-103185443D01*
X132861831Y-101302215D02*
X132733138Y-101118367D01*
X132641214Y-101302215D02*
X132641214Y-100916135D01*
X132788292Y-100916135D01*
X132825061Y-100934520D01*
X132843446Y-100952904D01*
X132861831Y-100989674D01*
X132861831Y-101044828D01*
X132843446Y-101081598D01*
X132825061Y-101099982D01*
X132788292Y-101118367D01*
X132641214Y-101118367D01*
X133008909Y-100952904D02*
X133027294Y-100934520D01*
X133064063Y-100916135D01*
X133155987Y-100916135D01*
X133192757Y-100934520D01*
X133211141Y-100952904D01*
X133229526Y-100989674D01*
X133229526Y-101026443D01*
X133211141Y-101081598D01*
X132990524Y-101302215D01*
X133229526Y-101302215D01*
X138767331Y-95523715D02*
X138638638Y-95339867D01*
X138546714Y-95523715D02*
X138546714Y-95137635D01*
X138693792Y-95137635D01*
X138730561Y-95156020D01*
X138748946Y-95174404D01*
X138767331Y-95211174D01*
X138767331Y-95266328D01*
X138748946Y-95303098D01*
X138730561Y-95321482D01*
X138693792Y-95339867D01*
X138546714Y-95339867D01*
X138932794Y-95523715D02*
X138932794Y-95137635D01*
X139153411Y-95523715D01*
X139153411Y-95137635D01*
X139539491Y-95523715D02*
X139318874Y-95523715D01*
X139429182Y-95523715D02*
X139429182Y-95137635D01*
X139392413Y-95192789D01*
X139355643Y-95229559D01*
X139318874Y-95247943D01*
X140465831Y-99360445D02*
X140447446Y-99378830D01*
X140392292Y-99397215D01*
X140355522Y-99397215D01*
X140300368Y-99378830D01*
X140263598Y-99342060D01*
X140245214Y-99305291D01*
X140226829Y-99231752D01*
X140226829Y-99176598D01*
X140245214Y-99103059D01*
X140263598Y-99066289D01*
X140300368Y-99029520D01*
X140355522Y-99011135D01*
X140392292Y-99011135D01*
X140447446Y-99029520D01*
X140465831Y-99047904D01*
X140833526Y-99397215D02*
X140612909Y-99397215D01*
X140723218Y-99397215D02*
X140723218Y-99011135D01*
X140686448Y-99066289D01*
X140649678Y-99103059D01*
X140612909Y-99121443D01*
X141201221Y-99397215D02*
X140980604Y-99397215D01*
X141090913Y-99397215D02*
X141090913Y-99011135D01*
X141054143Y-99066289D01*
X141017374Y-99103059D01*
X140980604Y-99121443D01*
X137687831Y-101302215D02*
X137559138Y-101118367D01*
X137467214Y-101302215D02*
X137467214Y-100916135D01*
X137614292Y-100916135D01*
X137651061Y-100934520D01*
X137669446Y-100952904D01*
X137687831Y-100989674D01*
X137687831Y-101044828D01*
X137669446Y-101081598D01*
X137651061Y-101099982D01*
X137614292Y-101118367D01*
X137467214Y-101118367D01*
X138055526Y-101302215D02*
X137834909Y-101302215D01*
X137945218Y-101302215D02*
X137945218Y-100916135D01*
X137908448Y-100971289D01*
X137871678Y-101008059D01*
X137834909Y-101026443D01*
X157563215Y-100576868D02*
X157379367Y-100705561D01*
X157563215Y-100797485D02*
X157177135Y-100797485D01*
X157177135Y-100650407D01*
X157195520Y-100613638D01*
X157213904Y-100595253D01*
X157250674Y-100576868D01*
X157305828Y-100576868D01*
X157342598Y-100595253D01*
X157360982Y-100613638D01*
X157379367Y-100650407D01*
X157379367Y-100797485D01*
X157563215Y-100411405D02*
X157177135Y-100411405D01*
X157563215Y-100190788D01*
X157177135Y-100190788D01*
X157177135Y-100043710D02*
X157177135Y-99804708D01*
X157324213Y-99933401D01*
X157324213Y-99878247D01*
X157342598Y-99841478D01*
X157360982Y-99823093D01*
X157397752Y-99804708D01*
X157489676Y-99804708D01*
X157526445Y-99823093D01*
X157544830Y-99841478D01*
X157563215Y-99878247D01*
X157563215Y-99988556D01*
X157544830Y-100025325D01*
X157526445Y-100043710D01*
X160738215Y-96639868D02*
X160554367Y-96768561D01*
X160738215Y-96860485D02*
X160352135Y-96860485D01*
X160352135Y-96713407D01*
X160370520Y-96676638D01*
X160388904Y-96658253D01*
X160425674Y-96639868D01*
X160480828Y-96639868D01*
X160517598Y-96658253D01*
X160535982Y-96676638D01*
X160554367Y-96713407D01*
X160554367Y-96860485D01*
X160738215Y-96474405D02*
X160352135Y-96474405D01*
X160738215Y-96253788D01*
X160352135Y-96253788D01*
X160388904Y-96088325D02*
X160370520Y-96069941D01*
X160352135Y-96033171D01*
X160352135Y-95941247D01*
X160370520Y-95904478D01*
X160388904Y-95886093D01*
X160425674Y-95867708D01*
X160462443Y-95867708D01*
X160517598Y-95886093D01*
X160738215Y-96106710D01*
X160738215Y-95867708D01*
X133724100Y-100449984D02*
X133687331Y-100431600D01*
X133650561Y-100394830D01*
X133595407Y-100339676D01*
X133558638Y-100321291D01*
X133521868Y-100321291D01*
X133540253Y-100413215D02*
X133503483Y-100394830D01*
X133466714Y-100358060D01*
X133448329Y-100284521D01*
X133448329Y-100155828D01*
X133466714Y-100082289D01*
X133503483Y-100045520D01*
X133540253Y-100027135D01*
X133613792Y-100027135D01*
X133650561Y-100045520D01*
X133687331Y-100082289D01*
X133705716Y-100155828D01*
X133705716Y-100284521D01*
X133687331Y-100358060D01*
X133650561Y-100394830D01*
X133613792Y-100413215D01*
X133540253Y-100413215D01*
X134073411Y-100413215D02*
X133852794Y-100413215D01*
X133963102Y-100413215D02*
X133963102Y-100027135D01*
X133926333Y-100082289D01*
X133889563Y-100119059D01*
X133852794Y-100137443D01*
X155848831Y-103043445D02*
X155830446Y-103061830D01*
X155775292Y-103080215D01*
X155738522Y-103080215D01*
X155683368Y-103061830D01*
X155646598Y-103025060D01*
X155628214Y-102988291D01*
X155609829Y-102914752D01*
X155609829Y-102859598D01*
X155628214Y-102786059D01*
X155646598Y-102749289D01*
X155683368Y-102712520D01*
X155738522Y-102694135D01*
X155775292Y-102694135D01*
X155830446Y-102712520D01*
X155848831Y-102730904D01*
X156032678Y-103080215D02*
X156106218Y-103080215D01*
X156142987Y-103061830D01*
X156161372Y-103043445D01*
X156198141Y-102988291D01*
X156216526Y-102914752D01*
X156216526Y-102767674D01*
X156198141Y-102730904D01*
X156179757Y-102712520D01*
X156142987Y-102694135D01*
X156069448Y-102694135D01*
X156032678Y-102712520D01*
X156014294Y-102730904D01*
X155995909Y-102767674D01*
X155995909Y-102859598D01*
X156014294Y-102896367D01*
X156032678Y-102914752D01*
X156069448Y-102933137D01*
X156142987Y-102933137D01*
X156179757Y-102914752D01*
X156198141Y-102896367D01*
X156216526Y-102859598D01*
X132190061Y-96984215D02*
X132006214Y-96984215D01*
X132006214Y-96598135D01*
X132318755Y-96781982D02*
X132447448Y-96781982D01*
X132502602Y-96984215D02*
X132318755Y-96984215D01*
X132318755Y-96598135D01*
X132502602Y-96598135D01*
X132668065Y-96984215D02*
X132668065Y-96598135D01*
X132759989Y-96598135D01*
X132815143Y-96616520D01*
X132851913Y-96653289D01*
X132870298Y-96690059D01*
X132888682Y-96763598D01*
X132888682Y-96818752D01*
X132870298Y-96892291D01*
X132851913Y-96929060D01*
X132815143Y-96965830D01*
X132759989Y-96984215D01*
X132668065Y-96984215D01*
X133256378Y-96984215D02*
X133035760Y-96984215D01*
X133146069Y-96984215D02*
X133146069Y-96598135D01*
X133109299Y-96653289D01*
X133072530Y-96690059D01*
X133035760Y-96708443D01*
X161944831Y-98979445D02*
X161926446Y-98997830D01*
X161871292Y-99016215D01*
X161834522Y-99016215D01*
X161779368Y-98997830D01*
X161742598Y-98961060D01*
X161724214Y-98924291D01*
X161705829Y-98850752D01*
X161705829Y-98795598D01*
X161724214Y-98722059D01*
X161742598Y-98685289D01*
X161779368Y-98648520D01*
X161834522Y-98630135D01*
X161871292Y-98630135D01*
X161926446Y-98648520D01*
X161944831Y-98666904D01*
X162312526Y-99016215D02*
X162091909Y-99016215D01*
X162202218Y-99016215D02*
X162202218Y-98630135D01*
X162165448Y-98685289D01*
X162128678Y-98722059D01*
X162091909Y-98740443D01*
X162551528Y-98630135D02*
X162588298Y-98630135D01*
X162625067Y-98648520D01*
X162643452Y-98666904D01*
X162661837Y-98703674D01*
X162680221Y-98777213D01*
X162680221Y-98869137D01*
X162661837Y-98942676D01*
X162643452Y-98979445D01*
X162625067Y-98997830D01*
X162588298Y-99016215D01*
X162551528Y-99016215D01*
X162514758Y-98997830D01*
X162496374Y-98979445D01*
X162477989Y-98942676D01*
X162459604Y-98869137D01*
X162459604Y-98777213D01*
X162477989Y-98703674D01*
X162496374Y-98666904D01*
X162514758Y-98648520D01*
X162551528Y-98630135D01*
X140481831Y-103043445D02*
X140463446Y-103061830D01*
X140408292Y-103080215D01*
X140371522Y-103080215D01*
X140316368Y-103061830D01*
X140279598Y-103025060D01*
X140261214Y-102988291D01*
X140242829Y-102914752D01*
X140242829Y-102859598D01*
X140261214Y-102786059D01*
X140279598Y-102749289D01*
X140316368Y-102712520D01*
X140371522Y-102694135D01*
X140408292Y-102694135D01*
X140463446Y-102712520D01*
X140481831Y-102730904D01*
X140812757Y-102694135D02*
X140739218Y-102694135D01*
X140702448Y-102712520D01*
X140684063Y-102730904D01*
X140647294Y-102786059D01*
X140628909Y-102859598D01*
X140628909Y-103006676D01*
X140647294Y-103043445D01*
X140665678Y-103061830D01*
X140702448Y-103080215D01*
X140775987Y-103080215D01*
X140812757Y-103061830D01*
X140831141Y-103043445D01*
X140849526Y-103006676D01*
X140849526Y-102914752D01*
X140831141Y-102877982D01*
X140812757Y-102859598D01*
X140775987Y-102841213D01*
X140702448Y-102841213D01*
X140665678Y-102859598D01*
X140647294Y-102877982D01*
X140628909Y-102914752D01*
X136036831Y-112441445D02*
X136018446Y-112459830D01*
X135963292Y-112478215D01*
X135926522Y-112478215D01*
X135871368Y-112459830D01*
X135834598Y-112423060D01*
X135816214Y-112386291D01*
X135797829Y-112312752D01*
X135797829Y-112257598D01*
X135816214Y-112184059D01*
X135834598Y-112147289D01*
X135871368Y-112110520D01*
X135926522Y-112092135D01*
X135963292Y-112092135D01*
X136018446Y-112110520D01*
X136036831Y-112128904D01*
X136367757Y-112220828D02*
X136367757Y-112478215D01*
X136275833Y-112073750D02*
X136183909Y-112349521D01*
X136422911Y-112349521D01*
X136643528Y-112092135D02*
X136680298Y-112092135D01*
X136717067Y-112110520D01*
X136735452Y-112128904D01*
X136753837Y-112165674D01*
X136772221Y-112239213D01*
X136772221Y-112331137D01*
X136753837Y-112404676D01*
X136735452Y-112441445D01*
X136717067Y-112459830D01*
X136680298Y-112478215D01*
X136643528Y-112478215D01*
X136606758Y-112459830D01*
X136588374Y-112441445D01*
X136569989Y-112404676D01*
X136551604Y-112331137D01*
X136551604Y-112239213D01*
X136569989Y-112165674D01*
X136588374Y-112128904D01*
X136606758Y-112110520D01*
X136643528Y-112092135D01*
X137814831Y-108377445D02*
X137796446Y-108395830D01*
X137741292Y-108414215D01*
X137704522Y-108414215D01*
X137649368Y-108395830D01*
X137612598Y-108359060D01*
X137594214Y-108322291D01*
X137575829Y-108248752D01*
X137575829Y-108193598D01*
X137594214Y-108120059D01*
X137612598Y-108083289D01*
X137649368Y-108046520D01*
X137704522Y-108028135D01*
X137741292Y-108028135D01*
X137796446Y-108046520D01*
X137814831Y-108064904D01*
X138145757Y-108156828D02*
X138145757Y-108414215D01*
X138053833Y-108009750D02*
X137961909Y-108285521D01*
X138200911Y-108285521D01*
X138550221Y-108414215D02*
X138329604Y-108414215D01*
X138439913Y-108414215D02*
X138439913Y-108028135D01*
X138403143Y-108083289D01*
X138366374Y-108120059D01*
X138329604Y-108138443D01*
X140100831Y-115870445D02*
X140082446Y-115888830D01*
X140027292Y-115907215D01*
X139990522Y-115907215D01*
X139935368Y-115888830D01*
X139898598Y-115852060D01*
X139880214Y-115815291D01*
X139861829Y-115741752D01*
X139861829Y-115686598D01*
X139880214Y-115613059D01*
X139898598Y-115576289D01*
X139935368Y-115539520D01*
X139990522Y-115521135D01*
X140027292Y-115521135D01*
X140082446Y-115539520D01*
X140100831Y-115557904D01*
X140431757Y-115649828D02*
X140431757Y-115907215D01*
X140339833Y-115502750D02*
X140247909Y-115778521D01*
X140486911Y-115778521D01*
X138449831Y-115870445D02*
X138431446Y-115888830D01*
X138376292Y-115907215D01*
X138339522Y-115907215D01*
X138284368Y-115888830D01*
X138247598Y-115852060D01*
X138229214Y-115815291D01*
X138210829Y-115741752D01*
X138210829Y-115686598D01*
X138229214Y-115613059D01*
X138247598Y-115576289D01*
X138284368Y-115539520D01*
X138339522Y-115521135D01*
X138376292Y-115521135D01*
X138431446Y-115539520D01*
X138449831Y-115557904D01*
X138799141Y-115521135D02*
X138615294Y-115521135D01*
X138596909Y-115704982D01*
X138615294Y-115686598D01*
X138652063Y-115668213D01*
X138743987Y-115668213D01*
X138780757Y-115686598D01*
X138799141Y-115704982D01*
X138817526Y-115741752D01*
X138817526Y-115833676D01*
X138799141Y-115870445D01*
X138780757Y-115888830D01*
X138743987Y-115907215D01*
X138652063Y-115907215D01*
X138615294Y-115888830D01*
X138596909Y-115870445D01*
X156954945Y-118229868D02*
X156973330Y-118248253D01*
X156991715Y-118303407D01*
X156991715Y-118340177D01*
X156973330Y-118395331D01*
X156936560Y-118432101D01*
X156899791Y-118450485D01*
X156826252Y-118468870D01*
X156771098Y-118468870D01*
X156697559Y-118450485D01*
X156660789Y-118432101D01*
X156624020Y-118395331D01*
X156605635Y-118340177D01*
X156605635Y-118303407D01*
X156624020Y-118248253D01*
X156642404Y-118229868D01*
X156771098Y-118009251D02*
X156752713Y-118046021D01*
X156734328Y-118064405D01*
X156697559Y-118082790D01*
X156679174Y-118082790D01*
X156642404Y-118064405D01*
X156624020Y-118046021D01*
X156605635Y-118009251D01*
X156605635Y-117935712D01*
X156624020Y-117898942D01*
X156642404Y-117880558D01*
X156679174Y-117862173D01*
X156697559Y-117862173D01*
X156734328Y-117880558D01*
X156752713Y-117898942D01*
X156771098Y-117935712D01*
X156771098Y-118009251D01*
X156789482Y-118046021D01*
X156807867Y-118064405D01*
X156844637Y-118082790D01*
X156918176Y-118082790D01*
X156954945Y-118064405D01*
X156973330Y-118046021D01*
X156991715Y-118009251D01*
X156991715Y-117935712D01*
X156973330Y-117898942D01*
X156954945Y-117880558D01*
X156918176Y-117862173D01*
X156844637Y-117862173D01*
X156807867Y-117880558D01*
X156789482Y-117898942D01*
X156771098Y-117935712D01*
X138576831Y-108250445D02*
X138558446Y-108268830D01*
X138503292Y-108287215D01*
X138466522Y-108287215D01*
X138411368Y-108268830D01*
X138374598Y-108232060D01*
X138356214Y-108195291D01*
X138337829Y-108121752D01*
X138337829Y-108066598D01*
X138356214Y-107993059D01*
X138374598Y-107956289D01*
X138411368Y-107919520D01*
X138466522Y-107901135D01*
X138503292Y-107901135D01*
X138558446Y-107919520D01*
X138576831Y-107937904D01*
X138944526Y-108287215D02*
X138723909Y-108287215D01*
X138834218Y-108287215D02*
X138834218Y-107901135D01*
X138797448Y-107956289D01*
X138760678Y-107993059D01*
X138723909Y-108011443D01*
X139073219Y-107901135D02*
X139312221Y-107901135D01*
X139183528Y-108048213D01*
X139238682Y-108048213D01*
X139275452Y-108066598D01*
X139293837Y-108084982D01*
X139312221Y-108121752D01*
X139312221Y-108213676D01*
X139293837Y-108250445D01*
X139275452Y-108268830D01*
X139238682Y-108287215D01*
X139128374Y-108287215D01*
X139091604Y-108268830D01*
X139073219Y-108250445D01*
X136762061Y-115907215D02*
X136578214Y-115907215D01*
X136578214Y-115521135D01*
X137092987Y-115907215D02*
X136872370Y-115907215D01*
X136982678Y-115907215D02*
X136982678Y-115521135D01*
X136945909Y-115576289D01*
X136909139Y-115613059D01*
X136872370Y-115631443D01*
X138111867Y-108770946D02*
X138295715Y-108770946D01*
X137909635Y-108899640D02*
X138111867Y-108770946D01*
X137909635Y-108642253D01*
X138295715Y-108311327D02*
X138295715Y-108531944D01*
X138295715Y-108421636D02*
X137909635Y-108421636D01*
X137964789Y-108458405D01*
X138001559Y-108495175D01*
X138019943Y-108531944D01*
X159404831Y-104948445D02*
X159386446Y-104966830D01*
X159331292Y-104985215D01*
X159294522Y-104985215D01*
X159239368Y-104966830D01*
X159202598Y-104930060D01*
X159184214Y-104893291D01*
X159165829Y-104819752D01*
X159165829Y-104764598D01*
X159184214Y-104691059D01*
X159202598Y-104654289D01*
X159239368Y-104617520D01*
X159294522Y-104599135D01*
X159331292Y-104599135D01*
X159386446Y-104617520D01*
X159404831Y-104635904D01*
X159735757Y-104727828D02*
X159735757Y-104985215D01*
X159643833Y-104580750D02*
X159551909Y-104856521D01*
X159790911Y-104856521D01*
X159993143Y-104764598D02*
X159956374Y-104746213D01*
X159937989Y-104727828D01*
X159919604Y-104691059D01*
X159919604Y-104672674D01*
X159937989Y-104635904D01*
X159956374Y-104617520D01*
X159993143Y-104599135D01*
X160066682Y-104599135D01*
X160103452Y-104617520D01*
X160121837Y-104635904D01*
X160140221Y-104672674D01*
X160140221Y-104691059D01*
X160121837Y-104727828D01*
X160103452Y-104746213D01*
X160066682Y-104764598D01*
X159993143Y-104764598D01*
X159956374Y-104782982D01*
X159937989Y-104801367D01*
X159919604Y-104838137D01*
X159919604Y-104911676D01*
X159937989Y-104948445D01*
X159956374Y-104966830D01*
X159993143Y-104985215D01*
X160066682Y-104985215D01*
X160103452Y-104966830D01*
X160121837Y-104948445D01*
X160140221Y-104911676D01*
X160140221Y-104838137D01*
X160121837Y-104801367D01*
X160103452Y-104782982D01*
X160066682Y-104764598D01*
X151911831Y-121458445D02*
X151893446Y-121476830D01*
X151838292Y-121495215D01*
X151801522Y-121495215D01*
X151746368Y-121476830D01*
X151709598Y-121440060D01*
X151691214Y-121403291D01*
X151672829Y-121329752D01*
X151672829Y-121274598D01*
X151691214Y-121201059D01*
X151709598Y-121164289D01*
X151746368Y-121127520D01*
X151801522Y-121109135D01*
X151838292Y-121109135D01*
X151893446Y-121127520D01*
X151911831Y-121145904D01*
X152242757Y-121237828D02*
X152242757Y-121495215D01*
X152150833Y-121090750D02*
X152058909Y-121366521D01*
X152297911Y-121366521D01*
X152463374Y-121495215D02*
X152536913Y-121495215D01*
X152573682Y-121476830D01*
X152592067Y-121458445D01*
X152628837Y-121403291D01*
X152647221Y-121329752D01*
X152647221Y-121182674D01*
X152628837Y-121145904D01*
X152610452Y-121127520D01*
X152573682Y-121109135D01*
X152500143Y-121109135D01*
X152463374Y-121127520D01*
X152444989Y-121145904D01*
X152426604Y-121182674D01*
X152426604Y-121274598D01*
X152444989Y-121311367D01*
X152463374Y-121329752D01*
X152500143Y-121348137D01*
X152573682Y-121348137D01*
X152610452Y-121329752D01*
X152628837Y-121311367D01*
X152647221Y-121274598D01*
X155050061Y-121495215D02*
X154866214Y-121495215D01*
X154866214Y-121109135D01*
X155160370Y-121145904D02*
X155178755Y-121127520D01*
X155215524Y-121109135D01*
X155307448Y-121109135D01*
X155344218Y-121127520D01*
X155362602Y-121145904D01*
X155380987Y-121182674D01*
X155380987Y-121219443D01*
X155362602Y-121274598D01*
X155141985Y-121495215D01*
X155380987Y-121495215D01*
X147784331Y-122474445D02*
X147765946Y-122492830D01*
X147710792Y-122511215D01*
X147674022Y-122511215D01*
X147618868Y-122492830D01*
X147582098Y-122456060D01*
X147563714Y-122419291D01*
X147545329Y-122345752D01*
X147545329Y-122290598D01*
X147563714Y-122217059D01*
X147582098Y-122180289D01*
X147618868Y-122143520D01*
X147674022Y-122125135D01*
X147710792Y-122125135D01*
X147765946Y-122143520D01*
X147784331Y-122161904D01*
X148115257Y-122253828D02*
X148115257Y-122511215D01*
X148023333Y-122106750D02*
X147931409Y-122382521D01*
X148170411Y-122382521D01*
X148482952Y-122253828D02*
X148482952Y-122511215D01*
X148391028Y-122106750D02*
X148299104Y-122382521D01*
X148538106Y-122382521D01*
X142958331Y-124125445D02*
X142939946Y-124143830D01*
X142884792Y-124162215D01*
X142848022Y-124162215D01*
X142792868Y-124143830D01*
X142756098Y-124107060D01*
X142737714Y-124070291D01*
X142719329Y-123996752D01*
X142719329Y-123941598D01*
X142737714Y-123868059D01*
X142756098Y-123831289D01*
X142792868Y-123794520D01*
X142848022Y-123776135D01*
X142884792Y-123776135D01*
X142939946Y-123794520D01*
X142958331Y-123812904D01*
X143105409Y-123812904D02*
X143123794Y-123794520D01*
X143160563Y-123776135D01*
X143252487Y-123776135D01*
X143289257Y-123794520D01*
X143307641Y-123812904D01*
X143326026Y-123849674D01*
X143326026Y-123886443D01*
X143307641Y-123941598D01*
X143087024Y-124162215D01*
X143326026Y-124162215D01*
X147415715Y-124632638D02*
X147415715Y-124816485D01*
X147029635Y-124816485D01*
X147029635Y-124540714D02*
X147029635Y-124301712D01*
X147176713Y-124430405D01*
X147176713Y-124375251D01*
X147195098Y-124338481D01*
X147213482Y-124320097D01*
X147250252Y-124301712D01*
X147342176Y-124301712D01*
X147378945Y-124320097D01*
X147397330Y-124338481D01*
X147415715Y-124375251D01*
X147415715Y-124485560D01*
X147397330Y-124522329D01*
X147378945Y-124540714D01*
X150488100Y-121404984D02*
X150451331Y-121386600D01*
X150414561Y-121349830D01*
X150359407Y-121294676D01*
X150322638Y-121276291D01*
X150285868Y-121276291D01*
X150304253Y-121368215D02*
X150267483Y-121349830D01*
X150230714Y-121313060D01*
X150212329Y-121239521D01*
X150212329Y-121110828D01*
X150230714Y-121037289D01*
X150267483Y-121000520D01*
X150304253Y-120982135D01*
X150377792Y-120982135D01*
X150414561Y-121000520D01*
X150451331Y-121037289D01*
X150469716Y-121110828D01*
X150469716Y-121239521D01*
X150451331Y-121313060D01*
X150414561Y-121349830D01*
X150377792Y-121368215D01*
X150304253Y-121368215D01*
X150616794Y-121018904D02*
X150635178Y-121000520D01*
X150671948Y-120982135D01*
X150763872Y-120982135D01*
X150800641Y-121000520D01*
X150819026Y-121018904D01*
X150837411Y-121055674D01*
X150837411Y-121092443D01*
X150819026Y-121147598D01*
X150598409Y-121368215D01*
X150837411Y-121368215D01*
X149371831Y-124543215D02*
X149243138Y-124359367D01*
X149151214Y-124543215D02*
X149151214Y-124157135D01*
X149298292Y-124157135D01*
X149335061Y-124175520D01*
X149353446Y-124193904D01*
X149371831Y-124230674D01*
X149371831Y-124285828D01*
X149353446Y-124322598D01*
X149335061Y-124340982D01*
X149298292Y-124359367D01*
X149151214Y-124359367D01*
X149555678Y-124543215D02*
X149629218Y-124543215D01*
X149665987Y-124524830D01*
X149684372Y-124506445D01*
X149721141Y-124451291D01*
X149739526Y-124377752D01*
X149739526Y-124230674D01*
X149721141Y-124193904D01*
X149702757Y-124175520D01*
X149665987Y-124157135D01*
X149592448Y-124157135D01*
X149555678Y-124175520D01*
X149537294Y-124193904D01*
X149518909Y-124230674D01*
X149518909Y-124322598D01*
X149537294Y-124359367D01*
X149555678Y-124377752D01*
X149592448Y-124396137D01*
X149665987Y-124396137D01*
X149702757Y-124377752D01*
X149721141Y-124359367D01*
X149739526Y-124322598D01*
X151945214Y-127210215D02*
X151945214Y-126824135D01*
X152037138Y-126824135D01*
X152092292Y-126842520D01*
X152129061Y-126879289D01*
X152147446Y-126916059D01*
X152165831Y-126989598D01*
X152165831Y-127044752D01*
X152147446Y-127118291D01*
X152129061Y-127155060D01*
X152092292Y-127191830D01*
X152037138Y-127210215D01*
X151945214Y-127210215D01*
X152294524Y-126824135D02*
X152533526Y-126824135D01*
X152404833Y-126971213D01*
X152459987Y-126971213D01*
X152496757Y-126989598D01*
X152515141Y-127007982D01*
X152533526Y-127044752D01*
X152533526Y-127136676D01*
X152515141Y-127173445D01*
X152496757Y-127191830D01*
X152459987Y-127210215D01*
X152349678Y-127210215D01*
X152312909Y-127191830D01*
X152294524Y-127173445D01*
X144545831Y-123908215D02*
X144417138Y-123724367D01*
X144325214Y-123908215D02*
X144325214Y-123522135D01*
X144472292Y-123522135D01*
X144509061Y-123540520D01*
X144527446Y-123558904D01*
X144545831Y-123595674D01*
X144545831Y-123650828D01*
X144527446Y-123687598D01*
X144509061Y-123705982D01*
X144472292Y-123724367D01*
X144325214Y-123724367D01*
X144913526Y-123908215D02*
X144692909Y-123908215D01*
X144803218Y-123908215D02*
X144803218Y-123522135D01*
X144766448Y-123577289D01*
X144729678Y-123614059D01*
X144692909Y-123632443D01*
X145152528Y-123522135D02*
X145189298Y-123522135D01*
X145226067Y-123540520D01*
X145244452Y-123558904D01*
X145262837Y-123595674D01*
X145281221Y-123669213D01*
X145281221Y-123761137D01*
X145262837Y-123834676D01*
X145244452Y-123871445D01*
X145226067Y-123889830D01*
X145189298Y-123908215D01*
X145152528Y-123908215D01*
X145115758Y-123889830D01*
X145097374Y-123871445D01*
X145078989Y-123834676D01*
X145060604Y-123761137D01*
X145060604Y-123669213D01*
X145078989Y-123595674D01*
X145097374Y-123558904D01*
X145115758Y-123540520D01*
X145152528Y-123522135D01*
X146865214Y-124411135D02*
X146865214Y-124723676D01*
X146883598Y-124760445D01*
X146901983Y-124778830D01*
X146938753Y-124797215D01*
X147012292Y-124797215D01*
X147049061Y-124778830D01*
X147067446Y-124760445D01*
X147085831Y-124723676D01*
X147085831Y-124411135D01*
X147324833Y-124576598D02*
X147288063Y-124558213D01*
X147269678Y-124539828D01*
X147251294Y-124503059D01*
X147251294Y-124484674D01*
X147269678Y-124447904D01*
X147288063Y-124429520D01*
X147324833Y-124411135D01*
X147398372Y-124411135D01*
X147435141Y-124429520D01*
X147453526Y-124447904D01*
X147471911Y-124484674D01*
X147471911Y-124503059D01*
X147453526Y-124539828D01*
X147435141Y-124558213D01*
X147398372Y-124576598D01*
X147324833Y-124576598D01*
X147288063Y-124594982D01*
X147269678Y-124613367D01*
X147251294Y-124650137D01*
X147251294Y-124723676D01*
X147269678Y-124760445D01*
X147288063Y-124778830D01*
X147324833Y-124797215D01*
X147398372Y-124797215D01*
X147435141Y-124778830D01*
X147453526Y-124760445D01*
X147471911Y-124723676D01*
X147471911Y-124650137D01*
X147453526Y-124613367D01*
X147435141Y-124594982D01*
X147398372Y-124576598D01*
D20*
X152406406Y-121266635D02*
X152663792Y-121652715D01*
X152663792Y-121266635D02*
X152406406Y-121652715D01*
X153013103Y-121652715D02*
X152792486Y-121652715D01*
X152902794Y-121652715D02*
X152902794Y-121266635D01*
X152866025Y-121321789D01*
X152829255Y-121358559D01*
X152792486Y-121376943D01*
D19*
X144545831Y-120733215D02*
X144417138Y-120549367D01*
X144325214Y-120733215D02*
X144325214Y-120347135D01*
X144472292Y-120347135D01*
X144509061Y-120365520D01*
X144527446Y-120383904D01*
X144545831Y-120420674D01*
X144545831Y-120475828D01*
X144527446Y-120512598D01*
X144509061Y-120530982D01*
X144472292Y-120549367D01*
X144325214Y-120549367D01*
X144895141Y-120347135D02*
X144711294Y-120347135D01*
X144692909Y-120530982D01*
X144711294Y-120512598D01*
X144748063Y-120494213D01*
X144839987Y-120494213D01*
X144876757Y-120512598D01*
X144895141Y-120530982D01*
X144913526Y-120567752D01*
X144913526Y-120659676D01*
X144895141Y-120696445D01*
X144876757Y-120714830D01*
X144839987Y-120733215D01*
X144748063Y-120733215D01*
X144711294Y-120714830D01*
X144692909Y-120696445D01*
X162901322Y-106173935D02*
X162901322Y-106449706D01*
X162882938Y-106504860D01*
X162846168Y-106541630D01*
X162791014Y-106560015D01*
X162754244Y-106560015D01*
X163085170Y-106560015D02*
X163085170Y-106173935D01*
X163232248Y-106173935D01*
X163269018Y-106192320D01*
X163287402Y-106210704D01*
X163305787Y-106247474D01*
X163305787Y-106302628D01*
X163287402Y-106339398D01*
X163269018Y-106357782D01*
X163232248Y-106376167D01*
X163085170Y-106376167D01*
X163434480Y-106173935D02*
X163673482Y-106173935D01*
X163544789Y-106321013D01*
X163599943Y-106321013D01*
X163636713Y-106339398D01*
X163655098Y-106357782D01*
X163673482Y-106394552D01*
X163673482Y-106486476D01*
X163655098Y-106523245D01*
X163636713Y-106541630D01*
X163599943Y-106560015D01*
X163489635Y-106560015D01*
X163452865Y-106541630D01*
X163434480Y-106523245D01*
M02*
