G04 #@! TF.GenerationSoftware,KiCad,Pcbnew,(5.1.4)-1*
G04 #@! TF.CreationDate,2019-10-25T18:27:15-07:00*
G04 #@! TF.ProjectId,base,62617365-2e6b-4696-9361-645f70636258,rev?*
G04 #@! TF.SameCoordinates,Original*
G04 #@! TF.FileFunction,Copper,L2,Inr*
G04 #@! TF.FilePolarity,Positive*
%FSLAX46Y46*%
G04 Gerber Fmt 4.6, Leading zero omitted, Abs format (unit mm)*
G04 Created by KiCad (PCBNEW (5.1.4)-1) date 2019-10-25 18:27:15*
%MOMM*%
%LPD*%
G04 APERTURE LIST*
%ADD10C,0.050000*%
%ADD11C,1.870000*%
%ADD12C,1.727200*%
%ADD13C,0.457000*%
%ADD14C,0.533400*%
%ADD15C,0.609600*%
%ADD16C,0.800000*%
%ADD17C,0.457200*%
%ADD18C,0.127000*%
G04 APERTURE END LIST*
D10*
X166500000Y-93500000D02*
X130500000Y-93500000D01*
X130500000Y-93500000D02*
X130500000Y-127500000D01*
X166500000Y-127500000D02*
X166500000Y-93500000D01*
X130500000Y-127500000D02*
X166500000Y-127500000D01*
D11*
X154091100Y-125776100D03*
X160691100Y-125776100D03*
D12*
X160820100Y-120624600D03*
X160820100Y-118084600D03*
X160820100Y-115544600D03*
X160820100Y-113004600D03*
X160820100Y-110464600D03*
X160820100Y-107924600D03*
D13*
X137629900Y-106685080D03*
D14*
X161709100Y-105765600D03*
X159550100Y-121767600D03*
X158661100Y-121767600D03*
D15*
X156248100Y-121259600D03*
D14*
X159246100Y-106958600D03*
D15*
X156248100Y-100431600D03*
D14*
X158026100Y-105130600D03*
X161328100Y-96875600D03*
X161328100Y-97637600D03*
X159569100Y-100558600D03*
X154851100Y-100812600D03*
X154571100Y-94869600D03*
D15*
X165265100Y-104241600D03*
X163369100Y-94326600D03*
X135089900Y-104241600D03*
D14*
X145094100Y-116771400D03*
X151171100Y-110271400D03*
X146971100Y-106234900D03*
X149380100Y-105270400D03*
D15*
X152809100Y-115938400D03*
X131737100Y-100177600D03*
D13*
X135750000Y-124200000D03*
X141700000Y-120700000D03*
X141675000Y-121225000D03*
X148150000Y-123550000D03*
X149771100Y-119735600D03*
X145834100Y-122656600D03*
X164084000Y-117856000D03*
X164050000Y-118808500D03*
D15*
X151188420Y-106542840D03*
D13*
X141587220Y-110467140D03*
X141597380Y-113865660D03*
X141578895Y-113121979D03*
X139843485Y-109283701D03*
X139827000Y-106420920D03*
D14*
X151930100Y-121894600D03*
X157899100Y-118465600D03*
X156248100Y-104114600D03*
X157969100Y-103860600D03*
X157969100Y-94081600D03*
X160369100Y-100558600D03*
X158769100Y-103860600D03*
X161836100Y-100177600D03*
X159569100Y-94081600D03*
X162725100Y-100177600D03*
X158769100Y-94081600D03*
X160369100Y-94081600D03*
X134150100Y-94462600D03*
D15*
X150142100Y-115938400D03*
D13*
X139900000Y-102800000D03*
X144645889Y-112300000D03*
X157250000Y-118200000D03*
X143200000Y-119650000D03*
X163969700Y-120523000D03*
X136692640Y-124541280D03*
X134790180Y-124513340D03*
X133941820Y-119067580D03*
X135658860Y-118668800D03*
X151048720Y-108198920D03*
X155117800Y-118584980D03*
X142831820Y-110586520D03*
X142524480Y-114081560D03*
X139847320Y-109867700D03*
X139867640Y-107340400D03*
X139849860Y-108242100D03*
X141955520Y-103146860D03*
X146006820Y-101625400D03*
X147198080Y-99661980D03*
X143002000Y-97726500D03*
X162966400Y-124899420D03*
X151218900Y-123182380D03*
X152036780Y-123174760D03*
D14*
X149390100Y-125069600D03*
X150152100Y-125069600D03*
X157969100Y-100558600D03*
X158769100Y-100558600D03*
X160369100Y-103860600D03*
D13*
X143200000Y-117000000D03*
D16*
X163600000Y-107950000D03*
D14*
X159569100Y-103860600D03*
D13*
X145492232Y-104283107D03*
D14*
X160369100Y-97383600D03*
D17*
X157137100Y-109956600D03*
D14*
X159569100Y-97383600D03*
D17*
X157137100Y-109194600D03*
D14*
X158769100Y-97383600D03*
X157969100Y-97383600D03*
D13*
X155100000Y-104300000D03*
X154897921Y-115180563D03*
X157065813Y-115968969D03*
X155321000Y-116078000D03*
X157484823Y-117106610D03*
D15*
X136563100Y-104241600D03*
D14*
X133134100Y-94462600D03*
D17*
X147671100Y-112321400D03*
D13*
X143950000Y-104000000D03*
X144250000Y-106350000D03*
X145000000Y-104500000D03*
X145271100Y-106144400D03*
D17*
X148571100Y-112321400D03*
D13*
X149350000Y-104486308D03*
X147450000Y-104486308D03*
X154700000Y-106750000D03*
D17*
X148571100Y-111571400D03*
D14*
X161328100Y-98780600D03*
D13*
X154250000Y-104050000D03*
D17*
X148950000Y-108300000D03*
D13*
X154521501Y-109747657D03*
D17*
X146871100Y-113871400D03*
X144900000Y-114050000D03*
D13*
X146078722Y-112221278D03*
D17*
X143671100Y-110096400D03*
D13*
X139550000Y-113100000D03*
X137150000Y-97550000D03*
X139450000Y-112350000D03*
X139000000Y-96700000D03*
X139500000Y-111600000D03*
X139500000Y-96000000D03*
D17*
X147671100Y-113871400D03*
D13*
X143231000Y-108650000D03*
X141709219Y-108150000D03*
X143550000Y-113200000D03*
X143550000Y-112300000D03*
X137900000Y-98950000D03*
X137650000Y-104850000D03*
X141800000Y-119700000D03*
X138400000Y-119700000D03*
X144950000Y-119700000D03*
X164119560Y-116855240D03*
X159517080Y-116865400D03*
X145300000Y-111750000D03*
X144100000Y-114500000D03*
X141750000Y-118450000D03*
X165249860Y-120027700D03*
D18*
G36*
X157677652Y-93726470D02*
G01*
X157613970Y-93790152D01*
X157563935Y-93865035D01*
X157529470Y-93948240D01*
X157511900Y-94036570D01*
X157511900Y-94126630D01*
X157529470Y-94214960D01*
X157563935Y-94298165D01*
X157613970Y-94373048D01*
X157677652Y-94436730D01*
X157752535Y-94486765D01*
X157835740Y-94521230D01*
X157924070Y-94538800D01*
X158014130Y-94538800D01*
X158102460Y-94521230D01*
X158185665Y-94486765D01*
X158260548Y-94436730D01*
X158324230Y-94373048D01*
X158369100Y-94305895D01*
X158413970Y-94373048D01*
X158477652Y-94436730D01*
X158552535Y-94486765D01*
X158635740Y-94521230D01*
X158724070Y-94538800D01*
X158814130Y-94538800D01*
X158902460Y-94521230D01*
X158985665Y-94486765D01*
X159060548Y-94436730D01*
X159124230Y-94373048D01*
X159169100Y-94305895D01*
X159213970Y-94373048D01*
X159277652Y-94436730D01*
X159352535Y-94486765D01*
X159435740Y-94521230D01*
X159524070Y-94538800D01*
X159614130Y-94538800D01*
X159702460Y-94521230D01*
X159785665Y-94486765D01*
X159860548Y-94436730D01*
X159924230Y-94373048D01*
X159969100Y-94305895D01*
X160013970Y-94373048D01*
X160077652Y-94436730D01*
X160152535Y-94486765D01*
X160235740Y-94521230D01*
X160324070Y-94538800D01*
X160414130Y-94538800D01*
X160502460Y-94521230D01*
X160585665Y-94486765D01*
X160660548Y-94436730D01*
X160724230Y-94373048D01*
X160774265Y-94298165D01*
X160808730Y-94214960D01*
X160826300Y-94126630D01*
X160826300Y-94036570D01*
X160808730Y-93948240D01*
X160774265Y-93865035D01*
X160724230Y-93790152D01*
X160660548Y-93726470D01*
X160644130Y-93715500D01*
X166284501Y-93715500D01*
X166284500Y-127284500D01*
X130715500Y-127284500D01*
X130715500Y-125665248D01*
X152965600Y-125665248D01*
X152965600Y-125886952D01*
X153008852Y-126104396D01*
X153093695Y-126309224D01*
X153216867Y-126493565D01*
X153373635Y-126650333D01*
X153557976Y-126773505D01*
X153762804Y-126858348D01*
X153980248Y-126901600D01*
X154201952Y-126901600D01*
X154419396Y-126858348D01*
X154624224Y-126773505D01*
X154808565Y-126650333D01*
X154965333Y-126493565D01*
X155088505Y-126309224D01*
X155173348Y-126104396D01*
X155216600Y-125886952D01*
X155216600Y-125665248D01*
X159565600Y-125665248D01*
X159565600Y-125886952D01*
X159608852Y-126104396D01*
X159693695Y-126309224D01*
X159816867Y-126493565D01*
X159973635Y-126650333D01*
X160157976Y-126773505D01*
X160362804Y-126858348D01*
X160580248Y-126901600D01*
X160801952Y-126901600D01*
X161019396Y-126858348D01*
X161224224Y-126773505D01*
X161408565Y-126650333D01*
X161565333Y-126493565D01*
X161688505Y-126309224D01*
X161773348Y-126104396D01*
X161816600Y-125886952D01*
X161816600Y-125665248D01*
X161773348Y-125447804D01*
X161688505Y-125242976D01*
X161565333Y-125058635D01*
X161408565Y-124901867D01*
X161343141Y-124858152D01*
X162547400Y-124858152D01*
X162547400Y-124940688D01*
X162563502Y-125021638D01*
X162595087Y-125097891D01*
X162640942Y-125166517D01*
X162699303Y-125224878D01*
X162767929Y-125270733D01*
X162844182Y-125302318D01*
X162925132Y-125318420D01*
X163007668Y-125318420D01*
X163088618Y-125302318D01*
X163164871Y-125270733D01*
X163233497Y-125224878D01*
X163291858Y-125166517D01*
X163337713Y-125097891D01*
X163369298Y-125021638D01*
X163385400Y-124940688D01*
X163385400Y-124858152D01*
X163369298Y-124777202D01*
X163337713Y-124700949D01*
X163291858Y-124632323D01*
X163233497Y-124573962D01*
X163164871Y-124528107D01*
X163088618Y-124496522D01*
X163007668Y-124480420D01*
X162925132Y-124480420D01*
X162844182Y-124496522D01*
X162767929Y-124528107D01*
X162699303Y-124573962D01*
X162640942Y-124632323D01*
X162595087Y-124700949D01*
X162563502Y-124777202D01*
X162547400Y-124858152D01*
X161343141Y-124858152D01*
X161224224Y-124778695D01*
X161019396Y-124693852D01*
X160801952Y-124650600D01*
X160580248Y-124650600D01*
X160362804Y-124693852D01*
X160157976Y-124778695D01*
X159973635Y-124901867D01*
X159816867Y-125058635D01*
X159693695Y-125242976D01*
X159608852Y-125447804D01*
X159565600Y-125665248D01*
X155216600Y-125665248D01*
X155173348Y-125447804D01*
X155088505Y-125242976D01*
X154965333Y-125058635D01*
X154808565Y-124901867D01*
X154624224Y-124778695D01*
X154419396Y-124693852D01*
X154201952Y-124650600D01*
X153980248Y-124650600D01*
X153762804Y-124693852D01*
X153557976Y-124778695D01*
X153373635Y-124901867D01*
X153216867Y-125058635D01*
X153093695Y-125242976D01*
X153008852Y-125447804D01*
X152965600Y-125665248D01*
X130715500Y-125665248D01*
X130715500Y-125024570D01*
X148932900Y-125024570D01*
X148932900Y-125114630D01*
X148950470Y-125202960D01*
X148984935Y-125286165D01*
X149034970Y-125361048D01*
X149098652Y-125424730D01*
X149173535Y-125474765D01*
X149256740Y-125509230D01*
X149345070Y-125526800D01*
X149435130Y-125526800D01*
X149523460Y-125509230D01*
X149606665Y-125474765D01*
X149681548Y-125424730D01*
X149745230Y-125361048D01*
X149771100Y-125322331D01*
X149796970Y-125361048D01*
X149860652Y-125424730D01*
X149935535Y-125474765D01*
X150018740Y-125509230D01*
X150107070Y-125526800D01*
X150197130Y-125526800D01*
X150285460Y-125509230D01*
X150368665Y-125474765D01*
X150443548Y-125424730D01*
X150507230Y-125361048D01*
X150557265Y-125286165D01*
X150591730Y-125202960D01*
X150609300Y-125114630D01*
X150609300Y-125024570D01*
X150591730Y-124936240D01*
X150557265Y-124853035D01*
X150507230Y-124778152D01*
X150443548Y-124714470D01*
X150368665Y-124664435D01*
X150285460Y-124629970D01*
X150197130Y-124612400D01*
X150107070Y-124612400D01*
X150018740Y-124629970D01*
X149935535Y-124664435D01*
X149860652Y-124714470D01*
X149796970Y-124778152D01*
X149771100Y-124816869D01*
X149745230Y-124778152D01*
X149681548Y-124714470D01*
X149606665Y-124664435D01*
X149523460Y-124629970D01*
X149435130Y-124612400D01*
X149345070Y-124612400D01*
X149256740Y-124629970D01*
X149173535Y-124664435D01*
X149098652Y-124714470D01*
X149034970Y-124778152D01*
X148984935Y-124853035D01*
X148950470Y-124936240D01*
X148932900Y-125024570D01*
X130715500Y-125024570D01*
X130715500Y-124472072D01*
X134371180Y-124472072D01*
X134371180Y-124554608D01*
X134387282Y-124635558D01*
X134418867Y-124711811D01*
X134464722Y-124780437D01*
X134523083Y-124838798D01*
X134591709Y-124884653D01*
X134667962Y-124916238D01*
X134748912Y-124932340D01*
X134831448Y-124932340D01*
X134912398Y-124916238D01*
X134988651Y-124884653D01*
X135057277Y-124838798D01*
X135115638Y-124780437D01*
X135161493Y-124711811D01*
X135193078Y-124635558D01*
X135209180Y-124554608D01*
X135209180Y-124500012D01*
X136273640Y-124500012D01*
X136273640Y-124582548D01*
X136289742Y-124663498D01*
X136321327Y-124739751D01*
X136367182Y-124808377D01*
X136425543Y-124866738D01*
X136494169Y-124912593D01*
X136570422Y-124944178D01*
X136651372Y-124960280D01*
X136733908Y-124960280D01*
X136814858Y-124944178D01*
X136891111Y-124912593D01*
X136959737Y-124866738D01*
X137018098Y-124808377D01*
X137063953Y-124739751D01*
X137095538Y-124663498D01*
X137111640Y-124582548D01*
X137111640Y-124500012D01*
X137095538Y-124419062D01*
X137063953Y-124342809D01*
X137018098Y-124274183D01*
X136959737Y-124215822D01*
X136891111Y-124169967D01*
X136814858Y-124138382D01*
X136733908Y-124122280D01*
X136651372Y-124122280D01*
X136570422Y-124138382D01*
X136494169Y-124169967D01*
X136425543Y-124215822D01*
X136367182Y-124274183D01*
X136321327Y-124342809D01*
X136289742Y-124419062D01*
X136273640Y-124500012D01*
X135209180Y-124500012D01*
X135209180Y-124472072D01*
X135193078Y-124391122D01*
X135161493Y-124314869D01*
X135115638Y-124246243D01*
X135057277Y-124187882D01*
X134988651Y-124142027D01*
X134912398Y-124110442D01*
X134831448Y-124094340D01*
X134748912Y-124094340D01*
X134667962Y-124110442D01*
X134591709Y-124142027D01*
X134523083Y-124187882D01*
X134464722Y-124246243D01*
X134418867Y-124314869D01*
X134387282Y-124391122D01*
X134371180Y-124472072D01*
X130715500Y-124472072D01*
X130715500Y-123141112D01*
X150799900Y-123141112D01*
X150799900Y-123223648D01*
X150816002Y-123304598D01*
X150847587Y-123380851D01*
X150893442Y-123449477D01*
X150951803Y-123507838D01*
X151020429Y-123553693D01*
X151096682Y-123585278D01*
X151177632Y-123601380D01*
X151260168Y-123601380D01*
X151341118Y-123585278D01*
X151417371Y-123553693D01*
X151485997Y-123507838D01*
X151544358Y-123449477D01*
X151590213Y-123380851D01*
X151621798Y-123304598D01*
X151628598Y-123270413D01*
X151633882Y-123296978D01*
X151665467Y-123373231D01*
X151711322Y-123441857D01*
X151769683Y-123500218D01*
X151838309Y-123546073D01*
X151914562Y-123577658D01*
X151995512Y-123593760D01*
X152078048Y-123593760D01*
X152158998Y-123577658D01*
X152235251Y-123546073D01*
X152303877Y-123500218D01*
X152362238Y-123441857D01*
X152408093Y-123373231D01*
X152439678Y-123296978D01*
X152455780Y-123216028D01*
X152455780Y-123133492D01*
X152439678Y-123052542D01*
X152408093Y-122976289D01*
X152362238Y-122907663D01*
X152303877Y-122849302D01*
X152235251Y-122803447D01*
X152158998Y-122771862D01*
X152078048Y-122755760D01*
X151995512Y-122755760D01*
X151914562Y-122771862D01*
X151838309Y-122803447D01*
X151769683Y-122849302D01*
X151711322Y-122907663D01*
X151665467Y-122976289D01*
X151633882Y-123052542D01*
X151627082Y-123086727D01*
X151621798Y-123060162D01*
X151590213Y-122983909D01*
X151544358Y-122915283D01*
X151485997Y-122856922D01*
X151417371Y-122811067D01*
X151341118Y-122779482D01*
X151260168Y-122763380D01*
X151177632Y-122763380D01*
X151096682Y-122779482D01*
X151020429Y-122811067D01*
X150951803Y-122856922D01*
X150893442Y-122915283D01*
X150847587Y-122983909D01*
X150816002Y-123060162D01*
X150799900Y-123141112D01*
X130715500Y-123141112D01*
X130715500Y-121849570D01*
X151472900Y-121849570D01*
X151472900Y-121939630D01*
X151490470Y-122027960D01*
X151524935Y-122111165D01*
X151574970Y-122186048D01*
X151638652Y-122249730D01*
X151713535Y-122299765D01*
X151796740Y-122334230D01*
X151885070Y-122351800D01*
X151975130Y-122351800D01*
X152063460Y-122334230D01*
X152146665Y-122299765D01*
X152221548Y-122249730D01*
X152285230Y-122186048D01*
X152335265Y-122111165D01*
X152369730Y-122027960D01*
X152387300Y-121939630D01*
X152387300Y-121849570D01*
X152369730Y-121761240D01*
X152335265Y-121678035D01*
X152285230Y-121603152D01*
X152221548Y-121539470D01*
X152146665Y-121489435D01*
X152063460Y-121454970D01*
X151975130Y-121437400D01*
X151885070Y-121437400D01*
X151796740Y-121454970D01*
X151713535Y-121489435D01*
X151638652Y-121539470D01*
X151574970Y-121603152D01*
X151524935Y-121678035D01*
X151490470Y-121761240D01*
X151472900Y-121849570D01*
X130715500Y-121849570D01*
X130715500Y-121374910D01*
X160141632Y-121374910D01*
X160239332Y-121510384D01*
X160423299Y-121606666D01*
X160622515Y-121665207D01*
X160829324Y-121683759D01*
X161035778Y-121661608D01*
X161233944Y-121599605D01*
X161400868Y-121510384D01*
X161498568Y-121374910D01*
X160820100Y-120696442D01*
X160141632Y-121374910D01*
X130715500Y-121374910D01*
X130715500Y-120633824D01*
X159760941Y-120633824D01*
X159783092Y-120840278D01*
X159845095Y-121038444D01*
X159934316Y-121205368D01*
X160069790Y-121303068D01*
X160748258Y-120624600D01*
X160891942Y-120624600D01*
X161570410Y-121303068D01*
X161705884Y-121205368D01*
X161802166Y-121021401D01*
X161860707Y-120822185D01*
X161879259Y-120615376D01*
X161864920Y-120481732D01*
X163550700Y-120481732D01*
X163550700Y-120564268D01*
X163566802Y-120645218D01*
X163598387Y-120721471D01*
X163644242Y-120790097D01*
X163702603Y-120848458D01*
X163771229Y-120894313D01*
X163847482Y-120925898D01*
X163928432Y-120942000D01*
X164010968Y-120942000D01*
X164091918Y-120925898D01*
X164168171Y-120894313D01*
X164236797Y-120848458D01*
X164295158Y-120790097D01*
X164341013Y-120721471D01*
X164372598Y-120645218D01*
X164388700Y-120564268D01*
X164388700Y-120481732D01*
X164372598Y-120400782D01*
X164341013Y-120324529D01*
X164295158Y-120255903D01*
X164236797Y-120197542D01*
X164168171Y-120151687D01*
X164091918Y-120120102D01*
X164010968Y-120104000D01*
X163928432Y-120104000D01*
X163847482Y-120120102D01*
X163771229Y-120151687D01*
X163702603Y-120197542D01*
X163644242Y-120255903D01*
X163598387Y-120324529D01*
X163566802Y-120400782D01*
X163550700Y-120481732D01*
X161864920Y-120481732D01*
X161857108Y-120408922D01*
X161795105Y-120210756D01*
X161705884Y-120043832D01*
X161626292Y-119986432D01*
X164830860Y-119986432D01*
X164830860Y-120068968D01*
X164846962Y-120149918D01*
X164878547Y-120226171D01*
X164924402Y-120294797D01*
X164982763Y-120353158D01*
X165051389Y-120399013D01*
X165127642Y-120430598D01*
X165208592Y-120446700D01*
X165291128Y-120446700D01*
X165372078Y-120430598D01*
X165448331Y-120399013D01*
X165516957Y-120353158D01*
X165575318Y-120294797D01*
X165621173Y-120226171D01*
X165652758Y-120149918D01*
X165668860Y-120068968D01*
X165668860Y-119986432D01*
X165652758Y-119905482D01*
X165621173Y-119829229D01*
X165575318Y-119760603D01*
X165516957Y-119702242D01*
X165448331Y-119656387D01*
X165372078Y-119624802D01*
X165291128Y-119608700D01*
X165208592Y-119608700D01*
X165127642Y-119624802D01*
X165051389Y-119656387D01*
X164982763Y-119702242D01*
X164924402Y-119760603D01*
X164878547Y-119829229D01*
X164846962Y-119905482D01*
X164830860Y-119986432D01*
X161626292Y-119986432D01*
X161570410Y-119946132D01*
X160891942Y-120624600D01*
X160748258Y-120624600D01*
X160069790Y-119946132D01*
X159934316Y-120043832D01*
X159838034Y-120227799D01*
X159779493Y-120427015D01*
X159760941Y-120633824D01*
X130715500Y-120633824D01*
X130715500Y-119658732D01*
X137981000Y-119658732D01*
X137981000Y-119741268D01*
X137997102Y-119822218D01*
X138028687Y-119898471D01*
X138074542Y-119967097D01*
X138132903Y-120025458D01*
X138201529Y-120071313D01*
X138277782Y-120102898D01*
X138358732Y-120119000D01*
X138441268Y-120119000D01*
X138522218Y-120102898D01*
X138598471Y-120071313D01*
X138667097Y-120025458D01*
X138725458Y-119967097D01*
X138771313Y-119898471D01*
X138802898Y-119822218D01*
X138819000Y-119741268D01*
X138819000Y-119658732D01*
X141381000Y-119658732D01*
X141381000Y-119741268D01*
X141397102Y-119822218D01*
X141428687Y-119898471D01*
X141474542Y-119967097D01*
X141532903Y-120025458D01*
X141601529Y-120071313D01*
X141677782Y-120102898D01*
X141758732Y-120119000D01*
X141841268Y-120119000D01*
X141922218Y-120102898D01*
X141998471Y-120071313D01*
X142067097Y-120025458D01*
X142125458Y-119967097D01*
X142171313Y-119898471D01*
X142202898Y-119822218D01*
X142219000Y-119741268D01*
X142219000Y-119658732D01*
X142209055Y-119608732D01*
X142781000Y-119608732D01*
X142781000Y-119691268D01*
X142797102Y-119772218D01*
X142828687Y-119848471D01*
X142874542Y-119917097D01*
X142932903Y-119975458D01*
X143001529Y-120021313D01*
X143077782Y-120052898D01*
X143158732Y-120069000D01*
X143241268Y-120069000D01*
X143322218Y-120052898D01*
X143398471Y-120021313D01*
X143467097Y-119975458D01*
X143525458Y-119917097D01*
X143571313Y-119848471D01*
X143602898Y-119772218D01*
X143619000Y-119691268D01*
X143619000Y-119658732D01*
X144531000Y-119658732D01*
X144531000Y-119741268D01*
X144547102Y-119822218D01*
X144578687Y-119898471D01*
X144624542Y-119967097D01*
X144682903Y-120025458D01*
X144751529Y-120071313D01*
X144827782Y-120102898D01*
X144908732Y-120119000D01*
X144991268Y-120119000D01*
X145072218Y-120102898D01*
X145148471Y-120071313D01*
X145217097Y-120025458D01*
X145275458Y-119967097D01*
X145321313Y-119898471D01*
X145331329Y-119874290D01*
X160141632Y-119874290D01*
X160820100Y-120552758D01*
X161498568Y-119874290D01*
X161400868Y-119738816D01*
X161216901Y-119642534D01*
X161017685Y-119583993D01*
X160810876Y-119565441D01*
X160604422Y-119587592D01*
X160406256Y-119649595D01*
X160239332Y-119738816D01*
X160141632Y-119874290D01*
X145331329Y-119874290D01*
X145352898Y-119822218D01*
X145369000Y-119741268D01*
X145369000Y-119658732D01*
X145352898Y-119577782D01*
X145321313Y-119501529D01*
X145275458Y-119432903D01*
X145217097Y-119374542D01*
X145148471Y-119328687D01*
X145072218Y-119297102D01*
X144991268Y-119281000D01*
X144908732Y-119281000D01*
X144827782Y-119297102D01*
X144751529Y-119328687D01*
X144682903Y-119374542D01*
X144624542Y-119432903D01*
X144578687Y-119501529D01*
X144547102Y-119577782D01*
X144531000Y-119658732D01*
X143619000Y-119658732D01*
X143619000Y-119608732D01*
X143602898Y-119527782D01*
X143571313Y-119451529D01*
X143525458Y-119382903D01*
X143467097Y-119324542D01*
X143398471Y-119278687D01*
X143322218Y-119247102D01*
X143241268Y-119231000D01*
X143158732Y-119231000D01*
X143077782Y-119247102D01*
X143001529Y-119278687D01*
X142932903Y-119324542D01*
X142874542Y-119382903D01*
X142828687Y-119451529D01*
X142797102Y-119527782D01*
X142781000Y-119608732D01*
X142209055Y-119608732D01*
X142202898Y-119577782D01*
X142171313Y-119501529D01*
X142125458Y-119432903D01*
X142067097Y-119374542D01*
X141998471Y-119328687D01*
X141922218Y-119297102D01*
X141841268Y-119281000D01*
X141758732Y-119281000D01*
X141677782Y-119297102D01*
X141601529Y-119328687D01*
X141532903Y-119374542D01*
X141474542Y-119432903D01*
X141428687Y-119501529D01*
X141397102Y-119577782D01*
X141381000Y-119658732D01*
X138819000Y-119658732D01*
X138802898Y-119577782D01*
X138771313Y-119501529D01*
X138725458Y-119432903D01*
X138667097Y-119374542D01*
X138598471Y-119328687D01*
X138522218Y-119297102D01*
X138441268Y-119281000D01*
X138358732Y-119281000D01*
X138277782Y-119297102D01*
X138201529Y-119328687D01*
X138132903Y-119374542D01*
X138074542Y-119432903D01*
X138028687Y-119501529D01*
X137997102Y-119577782D01*
X137981000Y-119658732D01*
X130715500Y-119658732D01*
X130715500Y-119026312D01*
X133522820Y-119026312D01*
X133522820Y-119108848D01*
X133538922Y-119189798D01*
X133570507Y-119266051D01*
X133616362Y-119334677D01*
X133674723Y-119393038D01*
X133743349Y-119438893D01*
X133819602Y-119470478D01*
X133900552Y-119486580D01*
X133983088Y-119486580D01*
X134064038Y-119470478D01*
X134140291Y-119438893D01*
X134208917Y-119393038D01*
X134267278Y-119334677D01*
X134313133Y-119266051D01*
X134344718Y-119189798D01*
X134360820Y-119108848D01*
X134360820Y-119026312D01*
X134344718Y-118945362D01*
X134313133Y-118869109D01*
X134267278Y-118800483D01*
X134208917Y-118742122D01*
X134140291Y-118696267D01*
X134064038Y-118664682D01*
X133983088Y-118648580D01*
X133900552Y-118648580D01*
X133819602Y-118664682D01*
X133743349Y-118696267D01*
X133674723Y-118742122D01*
X133616362Y-118800483D01*
X133570507Y-118869109D01*
X133538922Y-118945362D01*
X133522820Y-119026312D01*
X130715500Y-119026312D01*
X130715500Y-118627532D01*
X135239860Y-118627532D01*
X135239860Y-118710068D01*
X135255962Y-118791018D01*
X135287547Y-118867271D01*
X135333402Y-118935897D01*
X135391763Y-118994258D01*
X135460389Y-119040113D01*
X135536642Y-119071698D01*
X135617592Y-119087800D01*
X135700128Y-119087800D01*
X135781078Y-119071698D01*
X135857331Y-119040113D01*
X135925957Y-118994258D01*
X135984318Y-118935897D01*
X136030173Y-118867271D01*
X136061758Y-118791018D01*
X136077860Y-118710068D01*
X136077860Y-118627532D01*
X136061758Y-118546582D01*
X136030173Y-118470329D01*
X135989015Y-118408732D01*
X141331000Y-118408732D01*
X141331000Y-118491268D01*
X141347102Y-118572218D01*
X141378687Y-118648471D01*
X141424542Y-118717097D01*
X141482903Y-118775458D01*
X141551529Y-118821313D01*
X141627782Y-118852898D01*
X141708732Y-118869000D01*
X141791268Y-118869000D01*
X141872218Y-118852898D01*
X141948471Y-118821313D01*
X142017097Y-118775458D01*
X142075458Y-118717097D01*
X142121313Y-118648471D01*
X142152898Y-118572218D01*
X142158568Y-118543712D01*
X154698800Y-118543712D01*
X154698800Y-118626248D01*
X154714902Y-118707198D01*
X154746487Y-118783451D01*
X154792342Y-118852077D01*
X154850703Y-118910438D01*
X154919329Y-118956293D01*
X154995582Y-118987878D01*
X155076532Y-119003980D01*
X155159068Y-119003980D01*
X155240018Y-118987878D01*
X155316271Y-118956293D01*
X155384897Y-118910438D01*
X155443258Y-118852077D01*
X155489113Y-118783451D01*
X155520698Y-118707198D01*
X155536800Y-118626248D01*
X155536800Y-118543712D01*
X155520698Y-118462762D01*
X155489113Y-118386509D01*
X155443258Y-118317883D01*
X155384897Y-118259522D01*
X155316271Y-118213667D01*
X155240018Y-118182082D01*
X155159068Y-118165980D01*
X155076532Y-118165980D01*
X154995582Y-118182082D01*
X154919329Y-118213667D01*
X154850703Y-118259522D01*
X154792342Y-118317883D01*
X154746487Y-118386509D01*
X154714902Y-118462762D01*
X154698800Y-118543712D01*
X142158568Y-118543712D01*
X142169000Y-118491268D01*
X142169000Y-118408732D01*
X142152898Y-118327782D01*
X142121313Y-118251529D01*
X142075458Y-118182903D01*
X142051287Y-118158732D01*
X156831000Y-118158732D01*
X156831000Y-118241268D01*
X156847102Y-118322218D01*
X156878687Y-118398471D01*
X156924542Y-118467097D01*
X156982903Y-118525458D01*
X157051529Y-118571313D01*
X157127782Y-118602898D01*
X157208732Y-118619000D01*
X157291268Y-118619000D01*
X157372218Y-118602898D01*
X157448471Y-118571313D01*
X157453325Y-118568069D01*
X157459470Y-118598960D01*
X157493935Y-118682165D01*
X157543970Y-118757048D01*
X157607652Y-118820730D01*
X157682535Y-118870765D01*
X157765740Y-118905230D01*
X157854070Y-118922800D01*
X157944130Y-118922800D01*
X158032460Y-118905230D01*
X158115665Y-118870765D01*
X158190548Y-118820730D01*
X158254230Y-118757048D01*
X158304265Y-118682165D01*
X158338730Y-118598960D01*
X158356300Y-118510630D01*
X158356300Y-118420570D01*
X158338730Y-118332240D01*
X158304265Y-118249035D01*
X158254230Y-118174152D01*
X158190548Y-118110470D01*
X158115665Y-118060435D01*
X158032460Y-118025970D01*
X157944130Y-118008400D01*
X157854070Y-118008400D01*
X157765740Y-118025970D01*
X157682535Y-118060435D01*
X157653329Y-118079950D01*
X157652898Y-118077782D01*
X157621313Y-118001529D01*
X157607449Y-117980780D01*
X159766000Y-117980780D01*
X159766000Y-118188420D01*
X159806509Y-118392070D01*
X159885969Y-118583903D01*
X160001327Y-118756549D01*
X160148151Y-118903373D01*
X160320797Y-119018731D01*
X160512630Y-119098191D01*
X160716280Y-119138700D01*
X160923920Y-119138700D01*
X161127570Y-119098191D01*
X161319403Y-119018731D01*
X161492049Y-118903373D01*
X161638873Y-118756549D01*
X161754231Y-118583903D01*
X161833691Y-118392070D01*
X161874200Y-118188420D01*
X161874200Y-117980780D01*
X161833691Y-117777130D01*
X161754231Y-117585297D01*
X161638873Y-117412651D01*
X161492049Y-117265827D01*
X161319403Y-117150469D01*
X161127570Y-117071009D01*
X160923920Y-117030500D01*
X160716280Y-117030500D01*
X160512630Y-117071009D01*
X160320797Y-117150469D01*
X160148151Y-117265827D01*
X160001327Y-117412651D01*
X159885969Y-117585297D01*
X159806509Y-117777130D01*
X159766000Y-117980780D01*
X157607449Y-117980780D01*
X157575458Y-117932903D01*
X157517097Y-117874542D01*
X157448471Y-117828687D01*
X157372218Y-117797102D01*
X157291268Y-117781000D01*
X157208732Y-117781000D01*
X157127782Y-117797102D01*
X157051529Y-117828687D01*
X156982903Y-117874542D01*
X156924542Y-117932903D01*
X156878687Y-118001529D01*
X156847102Y-118077782D01*
X156831000Y-118158732D01*
X142051287Y-118158732D01*
X142017097Y-118124542D01*
X141948471Y-118078687D01*
X141872218Y-118047102D01*
X141791268Y-118031000D01*
X141708732Y-118031000D01*
X141627782Y-118047102D01*
X141551529Y-118078687D01*
X141482903Y-118124542D01*
X141424542Y-118182903D01*
X141378687Y-118251529D01*
X141347102Y-118327782D01*
X141331000Y-118408732D01*
X135989015Y-118408732D01*
X135984318Y-118401703D01*
X135925957Y-118343342D01*
X135857331Y-118297487D01*
X135781078Y-118265902D01*
X135700128Y-118249800D01*
X135617592Y-118249800D01*
X135536642Y-118265902D01*
X135460389Y-118297487D01*
X135391763Y-118343342D01*
X135333402Y-118401703D01*
X135287547Y-118470329D01*
X135255962Y-118546582D01*
X135239860Y-118627532D01*
X130715500Y-118627532D01*
X130715500Y-116958732D01*
X142781000Y-116958732D01*
X142781000Y-117041268D01*
X142797102Y-117122218D01*
X142828687Y-117198471D01*
X142874542Y-117267097D01*
X142932903Y-117325458D01*
X143001529Y-117371313D01*
X143077782Y-117402898D01*
X143158732Y-117419000D01*
X143241268Y-117419000D01*
X143322218Y-117402898D01*
X143398471Y-117371313D01*
X143467097Y-117325458D01*
X143525458Y-117267097D01*
X143571313Y-117198471D01*
X143602898Y-117122218D01*
X143614211Y-117065342D01*
X157065823Y-117065342D01*
X157065823Y-117147878D01*
X157081925Y-117228828D01*
X157113510Y-117305081D01*
X157159365Y-117373707D01*
X157217726Y-117432068D01*
X157286352Y-117477923D01*
X157362605Y-117509508D01*
X157443555Y-117525610D01*
X157526091Y-117525610D01*
X157607041Y-117509508D01*
X157683294Y-117477923D01*
X157751920Y-117432068D01*
X157810281Y-117373707D01*
X157856136Y-117305081D01*
X157887721Y-117228828D01*
X157903823Y-117147878D01*
X157903823Y-117065342D01*
X157887721Y-116984392D01*
X157856136Y-116908139D01*
X157810281Y-116839513D01*
X157794900Y-116824132D01*
X159098080Y-116824132D01*
X159098080Y-116906668D01*
X159114182Y-116987618D01*
X159145767Y-117063871D01*
X159191622Y-117132497D01*
X159249983Y-117190858D01*
X159318609Y-117236713D01*
X159394862Y-117268298D01*
X159475812Y-117284400D01*
X159558348Y-117284400D01*
X159639298Y-117268298D01*
X159715551Y-117236713D01*
X159784177Y-117190858D01*
X159842538Y-117132497D01*
X159888393Y-117063871D01*
X159919978Y-116987618D01*
X159936080Y-116906668D01*
X159936080Y-116824132D01*
X159934060Y-116813972D01*
X163700560Y-116813972D01*
X163700560Y-116896508D01*
X163716662Y-116977458D01*
X163748247Y-117053711D01*
X163794102Y-117122337D01*
X163852463Y-117180698D01*
X163921089Y-117226553D01*
X163997342Y-117258138D01*
X164078292Y-117274240D01*
X164160828Y-117274240D01*
X164241778Y-117258138D01*
X164318031Y-117226553D01*
X164386657Y-117180698D01*
X164445018Y-117122337D01*
X164490873Y-117053711D01*
X164522458Y-116977458D01*
X164538560Y-116896508D01*
X164538560Y-116813972D01*
X164522458Y-116733022D01*
X164490873Y-116656769D01*
X164445018Y-116588143D01*
X164386657Y-116529782D01*
X164318031Y-116483927D01*
X164241778Y-116452342D01*
X164160828Y-116436240D01*
X164078292Y-116436240D01*
X163997342Y-116452342D01*
X163921089Y-116483927D01*
X163852463Y-116529782D01*
X163794102Y-116588143D01*
X163748247Y-116656769D01*
X163716662Y-116733022D01*
X163700560Y-116813972D01*
X159934060Y-116813972D01*
X159919978Y-116743182D01*
X159888393Y-116666929D01*
X159842538Y-116598303D01*
X159784177Y-116539942D01*
X159715551Y-116494087D01*
X159639298Y-116462502D01*
X159558348Y-116446400D01*
X159475812Y-116446400D01*
X159394862Y-116462502D01*
X159318609Y-116494087D01*
X159249983Y-116539942D01*
X159191622Y-116598303D01*
X159145767Y-116666929D01*
X159114182Y-116743182D01*
X159098080Y-116824132D01*
X157794900Y-116824132D01*
X157751920Y-116781152D01*
X157683294Y-116735297D01*
X157607041Y-116703712D01*
X157526091Y-116687610D01*
X157443555Y-116687610D01*
X157362605Y-116703712D01*
X157286352Y-116735297D01*
X157217726Y-116781152D01*
X157159365Y-116839513D01*
X157113510Y-116908139D01*
X157081925Y-116984392D01*
X157065823Y-117065342D01*
X143614211Y-117065342D01*
X143619000Y-117041268D01*
X143619000Y-116958732D01*
X143602898Y-116877782D01*
X143571313Y-116801529D01*
X143525458Y-116732903D01*
X143467097Y-116674542D01*
X143398471Y-116628687D01*
X143322218Y-116597102D01*
X143241268Y-116581000D01*
X143158732Y-116581000D01*
X143077782Y-116597102D01*
X143001529Y-116628687D01*
X142932903Y-116674542D01*
X142874542Y-116732903D01*
X142828687Y-116801529D01*
X142797102Y-116877782D01*
X142781000Y-116958732D01*
X130715500Y-116958732D01*
X130715500Y-115889617D01*
X149646800Y-115889617D01*
X149646800Y-115987183D01*
X149665834Y-116082874D01*
X149703170Y-116173013D01*
X149757375Y-116254136D01*
X149826364Y-116323125D01*
X149907487Y-116377330D01*
X149997626Y-116414666D01*
X150093317Y-116433700D01*
X150190883Y-116433700D01*
X150286574Y-116414666D01*
X150376713Y-116377330D01*
X150457836Y-116323125D01*
X150526825Y-116254136D01*
X150581030Y-116173013D01*
X150618366Y-116082874D01*
X150627544Y-116036732D01*
X154902000Y-116036732D01*
X154902000Y-116119268D01*
X154918102Y-116200218D01*
X154949687Y-116276471D01*
X154995542Y-116345097D01*
X155053903Y-116403458D01*
X155122529Y-116449313D01*
X155198782Y-116480898D01*
X155279732Y-116497000D01*
X155362268Y-116497000D01*
X155443218Y-116480898D01*
X155519471Y-116449313D01*
X155588097Y-116403458D01*
X155646458Y-116345097D01*
X155692313Y-116276471D01*
X155723898Y-116200218D01*
X155740000Y-116119268D01*
X155740000Y-116036732D01*
X155723898Y-115955782D01*
X155712267Y-115927701D01*
X156646813Y-115927701D01*
X156646813Y-116010237D01*
X156662915Y-116091187D01*
X156694500Y-116167440D01*
X156740355Y-116236066D01*
X156798716Y-116294427D01*
X156867342Y-116340282D01*
X156943595Y-116371867D01*
X157024545Y-116387969D01*
X157107081Y-116387969D01*
X157188031Y-116371867D01*
X157264284Y-116340282D01*
X157332910Y-116294427D01*
X157391271Y-116236066D01*
X157437126Y-116167440D01*
X157468711Y-116091187D01*
X157484813Y-116010237D01*
X157484813Y-115927701D01*
X157468711Y-115846751D01*
X157437126Y-115770498D01*
X157391271Y-115701872D01*
X157332910Y-115643511D01*
X157264284Y-115597656D01*
X157188031Y-115566071D01*
X157107081Y-115549969D01*
X157024545Y-115549969D01*
X156943595Y-115566071D01*
X156867342Y-115597656D01*
X156798716Y-115643511D01*
X156740355Y-115701872D01*
X156694500Y-115770498D01*
X156662915Y-115846751D01*
X156646813Y-115927701D01*
X155712267Y-115927701D01*
X155692313Y-115879529D01*
X155646458Y-115810903D01*
X155588097Y-115752542D01*
X155519471Y-115706687D01*
X155443218Y-115675102D01*
X155362268Y-115659000D01*
X155279732Y-115659000D01*
X155198782Y-115675102D01*
X155122529Y-115706687D01*
X155053903Y-115752542D01*
X154995542Y-115810903D01*
X154949687Y-115879529D01*
X154918102Y-115955782D01*
X154902000Y-116036732D01*
X150627544Y-116036732D01*
X150637400Y-115987183D01*
X150637400Y-115889617D01*
X150618366Y-115793926D01*
X150581030Y-115703787D01*
X150526825Y-115622664D01*
X150457836Y-115553675D01*
X150376713Y-115499470D01*
X150286574Y-115462134D01*
X150190883Y-115443100D01*
X150093317Y-115443100D01*
X149997626Y-115462134D01*
X149907487Y-115499470D01*
X149826364Y-115553675D01*
X149757375Y-115622664D01*
X149703170Y-115703787D01*
X149665834Y-115793926D01*
X149646800Y-115889617D01*
X130715500Y-115889617D01*
X130715500Y-115139295D01*
X154478921Y-115139295D01*
X154478921Y-115221831D01*
X154495023Y-115302781D01*
X154526608Y-115379034D01*
X154572463Y-115447660D01*
X154630824Y-115506021D01*
X154699450Y-115551876D01*
X154775703Y-115583461D01*
X154856653Y-115599563D01*
X154939189Y-115599563D01*
X155020139Y-115583461D01*
X155096392Y-115551876D01*
X155165018Y-115506021D01*
X155223379Y-115447660D01*
X155227976Y-115440780D01*
X159766000Y-115440780D01*
X159766000Y-115648420D01*
X159806509Y-115852070D01*
X159885969Y-116043903D01*
X160001327Y-116216549D01*
X160148151Y-116363373D01*
X160320797Y-116478731D01*
X160512630Y-116558191D01*
X160716280Y-116598700D01*
X160923920Y-116598700D01*
X161127570Y-116558191D01*
X161319403Y-116478731D01*
X161492049Y-116363373D01*
X161638873Y-116216549D01*
X161754231Y-116043903D01*
X161833691Y-115852070D01*
X161874200Y-115648420D01*
X161874200Y-115440780D01*
X161833691Y-115237130D01*
X161754231Y-115045297D01*
X161638873Y-114872651D01*
X161492049Y-114725827D01*
X161319403Y-114610469D01*
X161127570Y-114531009D01*
X160923920Y-114490500D01*
X160716280Y-114490500D01*
X160512630Y-114531009D01*
X160320797Y-114610469D01*
X160148151Y-114725827D01*
X160001327Y-114872651D01*
X159885969Y-115045297D01*
X159806509Y-115237130D01*
X159766000Y-115440780D01*
X155227976Y-115440780D01*
X155269234Y-115379034D01*
X155300819Y-115302781D01*
X155316921Y-115221831D01*
X155316921Y-115139295D01*
X155300819Y-115058345D01*
X155269234Y-114982092D01*
X155223379Y-114913466D01*
X155165018Y-114855105D01*
X155096392Y-114809250D01*
X155020139Y-114777665D01*
X154939189Y-114761563D01*
X154856653Y-114761563D01*
X154775703Y-114777665D01*
X154699450Y-114809250D01*
X154630824Y-114855105D01*
X154572463Y-114913466D01*
X154526608Y-114982092D01*
X154495023Y-115058345D01*
X154478921Y-115139295D01*
X130715500Y-115139295D01*
X130715500Y-114040292D01*
X142105480Y-114040292D01*
X142105480Y-114122828D01*
X142121582Y-114203778D01*
X142153167Y-114280031D01*
X142199022Y-114348657D01*
X142257383Y-114407018D01*
X142326009Y-114452873D01*
X142402262Y-114484458D01*
X142483212Y-114500560D01*
X142565748Y-114500560D01*
X142646698Y-114484458D01*
X142708806Y-114458732D01*
X143681000Y-114458732D01*
X143681000Y-114541268D01*
X143697102Y-114622218D01*
X143728687Y-114698471D01*
X143774542Y-114767097D01*
X143832903Y-114825458D01*
X143901529Y-114871313D01*
X143977782Y-114902898D01*
X144058732Y-114919000D01*
X144141268Y-114919000D01*
X144222218Y-114902898D01*
X144298471Y-114871313D01*
X144367097Y-114825458D01*
X144425458Y-114767097D01*
X144471313Y-114698471D01*
X144502898Y-114622218D01*
X144519000Y-114541268D01*
X144519000Y-114458732D01*
X144502898Y-114377782D01*
X144471313Y-114301529D01*
X144425458Y-114232903D01*
X144367097Y-114174542D01*
X144298471Y-114128687D01*
X144222218Y-114097102D01*
X144141268Y-114081000D01*
X144058732Y-114081000D01*
X143977782Y-114097102D01*
X143901529Y-114128687D01*
X143832903Y-114174542D01*
X143774542Y-114232903D01*
X143728687Y-114301529D01*
X143697102Y-114377782D01*
X143681000Y-114458732D01*
X142708806Y-114458732D01*
X142722951Y-114452873D01*
X142791577Y-114407018D01*
X142849938Y-114348657D01*
X142895793Y-114280031D01*
X142927378Y-114203778D01*
X142943480Y-114122828D01*
X142943480Y-114040292D01*
X142937201Y-114008722D01*
X144480900Y-114008722D01*
X144480900Y-114091278D01*
X144497006Y-114172247D01*
X144528598Y-114248518D01*
X144574464Y-114317161D01*
X144632839Y-114375536D01*
X144701482Y-114421402D01*
X144777753Y-114452994D01*
X144858722Y-114469100D01*
X144941278Y-114469100D01*
X145022247Y-114452994D01*
X145098518Y-114421402D01*
X145167161Y-114375536D01*
X145225536Y-114317161D01*
X145271402Y-114248518D01*
X145302994Y-114172247D01*
X145319100Y-114091278D01*
X145319100Y-114008722D01*
X145302994Y-113927753D01*
X145271402Y-113851482D01*
X145257130Y-113830122D01*
X146452000Y-113830122D01*
X146452000Y-113912678D01*
X146468106Y-113993647D01*
X146499698Y-114069918D01*
X146545564Y-114138561D01*
X146603939Y-114196936D01*
X146672582Y-114242802D01*
X146748853Y-114274394D01*
X146829822Y-114290500D01*
X146912378Y-114290500D01*
X146993347Y-114274394D01*
X147069618Y-114242802D01*
X147138261Y-114196936D01*
X147196636Y-114138561D01*
X147242502Y-114069918D01*
X147271100Y-114000875D01*
X147299698Y-114069918D01*
X147345564Y-114138561D01*
X147403939Y-114196936D01*
X147472582Y-114242802D01*
X147548853Y-114274394D01*
X147629822Y-114290500D01*
X147712378Y-114290500D01*
X147793347Y-114274394D01*
X147869618Y-114242802D01*
X147938261Y-114196936D01*
X147996636Y-114138561D01*
X148042502Y-114069918D01*
X148074094Y-113993647D01*
X148090200Y-113912678D01*
X148090200Y-113830122D01*
X148074094Y-113749153D01*
X148042502Y-113672882D01*
X147996636Y-113604239D01*
X147938261Y-113545864D01*
X147869618Y-113499998D01*
X147793347Y-113468406D01*
X147712378Y-113452300D01*
X147629822Y-113452300D01*
X147548853Y-113468406D01*
X147472582Y-113499998D01*
X147403939Y-113545864D01*
X147345564Y-113604239D01*
X147299698Y-113672882D01*
X147271100Y-113741925D01*
X147242502Y-113672882D01*
X147196636Y-113604239D01*
X147138261Y-113545864D01*
X147069618Y-113499998D01*
X146993347Y-113468406D01*
X146912378Y-113452300D01*
X146829822Y-113452300D01*
X146748853Y-113468406D01*
X146672582Y-113499998D01*
X146603939Y-113545864D01*
X146545564Y-113604239D01*
X146499698Y-113672882D01*
X146468106Y-113749153D01*
X146452000Y-113830122D01*
X145257130Y-113830122D01*
X145225536Y-113782839D01*
X145167161Y-113724464D01*
X145098518Y-113678598D01*
X145022247Y-113647006D01*
X144941278Y-113630900D01*
X144858722Y-113630900D01*
X144777753Y-113647006D01*
X144701482Y-113678598D01*
X144632839Y-113724464D01*
X144574464Y-113782839D01*
X144528598Y-113851482D01*
X144497006Y-113927753D01*
X144480900Y-114008722D01*
X142937201Y-114008722D01*
X142927378Y-113959342D01*
X142895793Y-113883089D01*
X142849938Y-113814463D01*
X142791577Y-113756102D01*
X142722951Y-113710247D01*
X142646698Y-113678662D01*
X142565748Y-113662560D01*
X142483212Y-113662560D01*
X142402262Y-113678662D01*
X142326009Y-113710247D01*
X142257383Y-113756102D01*
X142199022Y-113814463D01*
X142153167Y-113883089D01*
X142121582Y-113959342D01*
X142105480Y-114040292D01*
X130715500Y-114040292D01*
X130715500Y-112308732D01*
X139031000Y-112308732D01*
X139031000Y-112391268D01*
X139047102Y-112472218D01*
X139078687Y-112548471D01*
X139124542Y-112617097D01*
X139182903Y-112675458D01*
X139251529Y-112721313D01*
X139320074Y-112749705D01*
X139282903Y-112774542D01*
X139224542Y-112832903D01*
X139178687Y-112901529D01*
X139147102Y-112977782D01*
X139131000Y-113058732D01*
X139131000Y-113141268D01*
X139147102Y-113222218D01*
X139178687Y-113298471D01*
X139224542Y-113367097D01*
X139282903Y-113425458D01*
X139351529Y-113471313D01*
X139427782Y-113502898D01*
X139508732Y-113519000D01*
X139591268Y-113519000D01*
X139672218Y-113502898D01*
X139748471Y-113471313D01*
X139817097Y-113425458D01*
X139875458Y-113367097D01*
X139921313Y-113298471D01*
X139952898Y-113222218D01*
X139965526Y-113158732D01*
X143131000Y-113158732D01*
X143131000Y-113241268D01*
X143147102Y-113322218D01*
X143178687Y-113398471D01*
X143224542Y-113467097D01*
X143282903Y-113525458D01*
X143351529Y-113571313D01*
X143427782Y-113602898D01*
X143508732Y-113619000D01*
X143591268Y-113619000D01*
X143672218Y-113602898D01*
X143748471Y-113571313D01*
X143817097Y-113525458D01*
X143875458Y-113467097D01*
X143921313Y-113398471D01*
X143952898Y-113322218D01*
X143969000Y-113241268D01*
X143969000Y-113158732D01*
X143952898Y-113077782D01*
X143921313Y-113001529D01*
X143875458Y-112932903D01*
X143843335Y-112900780D01*
X159766000Y-112900780D01*
X159766000Y-113108420D01*
X159806509Y-113312070D01*
X159885969Y-113503903D01*
X160001327Y-113676549D01*
X160148151Y-113823373D01*
X160320797Y-113938731D01*
X160512630Y-114018191D01*
X160716280Y-114058700D01*
X160923920Y-114058700D01*
X161127570Y-114018191D01*
X161319403Y-113938731D01*
X161492049Y-113823373D01*
X161638873Y-113676549D01*
X161754231Y-113503903D01*
X161833691Y-113312070D01*
X161874200Y-113108420D01*
X161874200Y-112900780D01*
X161833691Y-112697130D01*
X161754231Y-112505297D01*
X161638873Y-112332651D01*
X161492049Y-112185827D01*
X161319403Y-112070469D01*
X161127570Y-111991009D01*
X160923920Y-111950500D01*
X160716280Y-111950500D01*
X160512630Y-111991009D01*
X160320797Y-112070469D01*
X160148151Y-112185827D01*
X160001327Y-112332651D01*
X159885969Y-112505297D01*
X159806509Y-112697130D01*
X159766000Y-112900780D01*
X143843335Y-112900780D01*
X143817097Y-112874542D01*
X143748471Y-112828687D01*
X143672218Y-112797102D01*
X143591268Y-112781000D01*
X143508732Y-112781000D01*
X143427782Y-112797102D01*
X143351529Y-112828687D01*
X143282903Y-112874542D01*
X143224542Y-112932903D01*
X143178687Y-113001529D01*
X143147102Y-113077782D01*
X143131000Y-113158732D01*
X139965526Y-113158732D01*
X139969000Y-113141268D01*
X139969000Y-113058732D01*
X139952898Y-112977782D01*
X139921313Y-112901529D01*
X139875458Y-112832903D01*
X139817097Y-112774542D01*
X139748471Y-112728687D01*
X139679926Y-112700295D01*
X139717097Y-112675458D01*
X139775458Y-112617097D01*
X139821313Y-112548471D01*
X139852898Y-112472218D01*
X139869000Y-112391268D01*
X139869000Y-112308732D01*
X139859055Y-112258732D01*
X143131000Y-112258732D01*
X143131000Y-112341268D01*
X143147102Y-112422218D01*
X143178687Y-112498471D01*
X143224542Y-112567097D01*
X143282903Y-112625458D01*
X143351529Y-112671313D01*
X143427782Y-112702898D01*
X143508732Y-112719000D01*
X143591268Y-112719000D01*
X143672218Y-112702898D01*
X143748471Y-112671313D01*
X143817097Y-112625458D01*
X143875458Y-112567097D01*
X143921313Y-112498471D01*
X143952898Y-112422218D01*
X143969000Y-112341268D01*
X143969000Y-112258732D01*
X144226889Y-112258732D01*
X144226889Y-112341268D01*
X144242991Y-112422218D01*
X144274576Y-112498471D01*
X144320431Y-112567097D01*
X144378792Y-112625458D01*
X144447418Y-112671313D01*
X144523671Y-112702898D01*
X144604621Y-112719000D01*
X144687157Y-112719000D01*
X144768107Y-112702898D01*
X144844360Y-112671313D01*
X144912986Y-112625458D01*
X144971347Y-112567097D01*
X145017202Y-112498471D01*
X145048787Y-112422218D01*
X145064889Y-112341268D01*
X145064889Y-112258732D01*
X145049231Y-112180010D01*
X145659722Y-112180010D01*
X145659722Y-112262546D01*
X145675824Y-112343496D01*
X145707409Y-112419749D01*
X145753264Y-112488375D01*
X145811625Y-112546736D01*
X145880251Y-112592591D01*
X145956504Y-112624176D01*
X146037454Y-112640278D01*
X146119990Y-112640278D01*
X146200940Y-112624176D01*
X146277193Y-112592591D01*
X146345819Y-112546736D01*
X146404180Y-112488375D01*
X146450035Y-112419749D01*
X146481620Y-112343496D01*
X146494225Y-112280122D01*
X147252000Y-112280122D01*
X147252000Y-112362678D01*
X147268106Y-112443647D01*
X147299698Y-112519918D01*
X147345564Y-112588561D01*
X147403939Y-112646936D01*
X147472582Y-112692802D01*
X147548853Y-112724394D01*
X147629822Y-112740500D01*
X147712378Y-112740500D01*
X147793347Y-112724394D01*
X147869618Y-112692802D01*
X147938261Y-112646936D01*
X147996636Y-112588561D01*
X148042502Y-112519918D01*
X148074094Y-112443647D01*
X148090200Y-112362678D01*
X148090200Y-112280122D01*
X148074094Y-112199153D01*
X148042502Y-112122882D01*
X147996636Y-112054239D01*
X147938261Y-111995864D01*
X147869618Y-111949998D01*
X147793347Y-111918406D01*
X147712378Y-111902300D01*
X147629822Y-111902300D01*
X147548853Y-111918406D01*
X147472582Y-111949998D01*
X147403939Y-111995864D01*
X147345564Y-112054239D01*
X147299698Y-112122882D01*
X147268106Y-112199153D01*
X147252000Y-112280122D01*
X146494225Y-112280122D01*
X146497722Y-112262546D01*
X146497722Y-112180010D01*
X146481620Y-112099060D01*
X146450035Y-112022807D01*
X146404180Y-111954181D01*
X146345819Y-111895820D01*
X146277193Y-111849965D01*
X146200940Y-111818380D01*
X146119990Y-111802278D01*
X146037454Y-111802278D01*
X145956504Y-111818380D01*
X145880251Y-111849965D01*
X145811625Y-111895820D01*
X145753264Y-111954181D01*
X145707409Y-112022807D01*
X145675824Y-112099060D01*
X145659722Y-112180010D01*
X145049231Y-112180010D01*
X145048787Y-112177782D01*
X145017202Y-112101529D01*
X144971347Y-112032903D01*
X144912986Y-111974542D01*
X144844360Y-111928687D01*
X144768107Y-111897102D01*
X144687157Y-111881000D01*
X144604621Y-111881000D01*
X144523671Y-111897102D01*
X144447418Y-111928687D01*
X144378792Y-111974542D01*
X144320431Y-112032903D01*
X144274576Y-112101529D01*
X144242991Y-112177782D01*
X144226889Y-112258732D01*
X143969000Y-112258732D01*
X143952898Y-112177782D01*
X143921313Y-112101529D01*
X143875458Y-112032903D01*
X143817097Y-111974542D01*
X143748471Y-111928687D01*
X143672218Y-111897102D01*
X143591268Y-111881000D01*
X143508732Y-111881000D01*
X143427782Y-111897102D01*
X143351529Y-111928687D01*
X143282903Y-111974542D01*
X143224542Y-112032903D01*
X143178687Y-112101529D01*
X143147102Y-112177782D01*
X143131000Y-112258732D01*
X139859055Y-112258732D01*
X139852898Y-112227782D01*
X139821313Y-112151529D01*
X139775458Y-112082903D01*
X139717097Y-112024542D01*
X139660792Y-111986920D01*
X139698471Y-111971313D01*
X139767097Y-111925458D01*
X139825458Y-111867097D01*
X139871313Y-111798471D01*
X139902898Y-111722218D01*
X139905580Y-111708732D01*
X144881000Y-111708732D01*
X144881000Y-111791268D01*
X144897102Y-111872218D01*
X144928687Y-111948471D01*
X144974542Y-112017097D01*
X145032903Y-112075458D01*
X145101529Y-112121313D01*
X145177782Y-112152898D01*
X145258732Y-112169000D01*
X145341268Y-112169000D01*
X145422218Y-112152898D01*
X145498471Y-112121313D01*
X145567097Y-112075458D01*
X145625458Y-112017097D01*
X145671313Y-111948471D01*
X145702898Y-111872218D01*
X145719000Y-111791268D01*
X145719000Y-111708732D01*
X145702898Y-111627782D01*
X145671313Y-111551529D01*
X145657010Y-111530122D01*
X148152000Y-111530122D01*
X148152000Y-111612678D01*
X148168106Y-111693647D01*
X148199698Y-111769918D01*
X148245564Y-111838561D01*
X148303939Y-111896936D01*
X148372582Y-111942802D01*
X148381268Y-111946400D01*
X148372582Y-111949998D01*
X148303939Y-111995864D01*
X148245564Y-112054239D01*
X148199698Y-112122882D01*
X148168106Y-112199153D01*
X148152000Y-112280122D01*
X148152000Y-112362678D01*
X148168106Y-112443647D01*
X148199698Y-112519918D01*
X148245564Y-112588561D01*
X148303939Y-112646936D01*
X148372582Y-112692802D01*
X148448853Y-112724394D01*
X148529822Y-112740500D01*
X148612378Y-112740500D01*
X148693347Y-112724394D01*
X148769618Y-112692802D01*
X148838261Y-112646936D01*
X148896636Y-112588561D01*
X148942502Y-112519918D01*
X148974094Y-112443647D01*
X148990200Y-112362678D01*
X148990200Y-112280122D01*
X148974094Y-112199153D01*
X148942502Y-112122882D01*
X148896636Y-112054239D01*
X148838261Y-111995864D01*
X148769618Y-111949998D01*
X148760932Y-111946400D01*
X148769618Y-111942802D01*
X148838261Y-111896936D01*
X148896636Y-111838561D01*
X148942502Y-111769918D01*
X148974094Y-111693647D01*
X148990200Y-111612678D01*
X148990200Y-111530122D01*
X148974094Y-111449153D01*
X148942502Y-111372882D01*
X148896636Y-111304239D01*
X148838261Y-111245864D01*
X148769618Y-111199998D01*
X148693347Y-111168406D01*
X148612378Y-111152300D01*
X148529822Y-111152300D01*
X148448853Y-111168406D01*
X148372582Y-111199998D01*
X148303939Y-111245864D01*
X148245564Y-111304239D01*
X148199698Y-111372882D01*
X148168106Y-111449153D01*
X148152000Y-111530122D01*
X145657010Y-111530122D01*
X145625458Y-111482903D01*
X145567097Y-111424542D01*
X145498471Y-111378687D01*
X145422218Y-111347102D01*
X145341268Y-111331000D01*
X145258732Y-111331000D01*
X145177782Y-111347102D01*
X145101529Y-111378687D01*
X145032903Y-111424542D01*
X144974542Y-111482903D01*
X144928687Y-111551529D01*
X144897102Y-111627782D01*
X144881000Y-111708732D01*
X139905580Y-111708732D01*
X139919000Y-111641268D01*
X139919000Y-111558732D01*
X139902898Y-111477782D01*
X139871313Y-111401529D01*
X139825458Y-111332903D01*
X139767097Y-111274542D01*
X139698471Y-111228687D01*
X139622218Y-111197102D01*
X139541268Y-111181000D01*
X139458732Y-111181000D01*
X139377782Y-111197102D01*
X139301529Y-111228687D01*
X139232903Y-111274542D01*
X139174542Y-111332903D01*
X139128687Y-111401529D01*
X139097102Y-111477782D01*
X139081000Y-111558732D01*
X139081000Y-111641268D01*
X139097102Y-111722218D01*
X139128687Y-111798471D01*
X139174542Y-111867097D01*
X139232903Y-111925458D01*
X139289208Y-111963080D01*
X139251529Y-111978687D01*
X139182903Y-112024542D01*
X139124542Y-112082903D01*
X139078687Y-112151529D01*
X139047102Y-112227782D01*
X139031000Y-112308732D01*
X130715500Y-112308732D01*
X130715500Y-110545252D01*
X142412820Y-110545252D01*
X142412820Y-110627788D01*
X142428922Y-110708738D01*
X142460507Y-110784991D01*
X142506362Y-110853617D01*
X142564723Y-110911978D01*
X142633349Y-110957833D01*
X142709602Y-110989418D01*
X142790552Y-111005520D01*
X142873088Y-111005520D01*
X142954038Y-110989418D01*
X143030291Y-110957833D01*
X143098917Y-110911978D01*
X143157278Y-110853617D01*
X143203133Y-110784991D01*
X143234718Y-110708738D01*
X143250820Y-110627788D01*
X143250820Y-110545252D01*
X143234718Y-110464302D01*
X143203133Y-110388049D01*
X143157278Y-110319423D01*
X143098917Y-110261062D01*
X143030291Y-110215207D01*
X142954038Y-110183622D01*
X142873088Y-110167520D01*
X142790552Y-110167520D01*
X142709602Y-110183622D01*
X142633349Y-110215207D01*
X142564723Y-110261062D01*
X142506362Y-110319423D01*
X142460507Y-110388049D01*
X142428922Y-110464302D01*
X142412820Y-110545252D01*
X130715500Y-110545252D01*
X130715500Y-109826432D01*
X139428320Y-109826432D01*
X139428320Y-109908968D01*
X139444422Y-109989918D01*
X139476007Y-110066171D01*
X139521862Y-110134797D01*
X139580223Y-110193158D01*
X139648849Y-110239013D01*
X139725102Y-110270598D01*
X139806052Y-110286700D01*
X139888588Y-110286700D01*
X139969538Y-110270598D01*
X140045791Y-110239013D01*
X140114417Y-110193158D01*
X140172778Y-110134797D01*
X140218633Y-110066171D01*
X140223209Y-110055122D01*
X143252000Y-110055122D01*
X143252000Y-110137678D01*
X143268106Y-110218647D01*
X143299698Y-110294918D01*
X143345564Y-110363561D01*
X143403939Y-110421936D01*
X143472582Y-110467802D01*
X143548853Y-110499394D01*
X143629822Y-110515500D01*
X143712378Y-110515500D01*
X143793347Y-110499394D01*
X143869618Y-110467802D01*
X143938261Y-110421936D01*
X143996636Y-110363561D01*
X144042502Y-110294918D01*
X144074094Y-110218647D01*
X144090200Y-110137678D01*
X144090200Y-110055122D01*
X144074094Y-109974153D01*
X144042502Y-109897882D01*
X143996636Y-109829239D01*
X143938261Y-109770864D01*
X143869618Y-109724998D01*
X143824692Y-109706389D01*
X154102501Y-109706389D01*
X154102501Y-109788925D01*
X154118603Y-109869875D01*
X154150188Y-109946128D01*
X154196043Y-110014754D01*
X154254404Y-110073115D01*
X154323030Y-110118970D01*
X154399283Y-110150555D01*
X154480233Y-110166657D01*
X154562769Y-110166657D01*
X154643719Y-110150555D01*
X154719972Y-110118970D01*
X154788598Y-110073115D01*
X154846959Y-110014754D01*
X154892814Y-109946128D01*
X154924399Y-109869875D01*
X154940501Y-109788925D01*
X154940501Y-109706389D01*
X154924399Y-109625439D01*
X154892814Y-109549186D01*
X154846959Y-109480560D01*
X154788598Y-109422199D01*
X154719972Y-109376344D01*
X154643719Y-109344759D01*
X154562769Y-109328657D01*
X154480233Y-109328657D01*
X154399283Y-109344759D01*
X154323030Y-109376344D01*
X154254404Y-109422199D01*
X154196043Y-109480560D01*
X154150188Y-109549186D01*
X154118603Y-109625439D01*
X154102501Y-109706389D01*
X143824692Y-109706389D01*
X143793347Y-109693406D01*
X143712378Y-109677300D01*
X143629822Y-109677300D01*
X143548853Y-109693406D01*
X143472582Y-109724998D01*
X143403939Y-109770864D01*
X143345564Y-109829239D01*
X143299698Y-109897882D01*
X143268106Y-109974153D01*
X143252000Y-110055122D01*
X140223209Y-110055122D01*
X140250218Y-109989918D01*
X140266320Y-109908968D01*
X140266320Y-109826432D01*
X140250218Y-109745482D01*
X140218633Y-109669229D01*
X140172778Y-109600603D01*
X140114417Y-109542242D01*
X140045791Y-109496387D01*
X139969538Y-109464802D01*
X139888588Y-109448700D01*
X139806052Y-109448700D01*
X139725102Y-109464802D01*
X139648849Y-109496387D01*
X139580223Y-109542242D01*
X139521862Y-109600603D01*
X139476007Y-109669229D01*
X139444422Y-109745482D01*
X139428320Y-109826432D01*
X130715500Y-109826432D01*
X130715500Y-109153322D01*
X156718000Y-109153322D01*
X156718000Y-109235878D01*
X156734106Y-109316847D01*
X156765698Y-109393118D01*
X156811564Y-109461761D01*
X156869939Y-109520136D01*
X156938582Y-109566002D01*
X156961754Y-109575600D01*
X156938582Y-109585198D01*
X156869939Y-109631064D01*
X156811564Y-109689439D01*
X156765698Y-109758082D01*
X156734106Y-109834353D01*
X156718000Y-109915322D01*
X156718000Y-109997878D01*
X156734106Y-110078847D01*
X156765698Y-110155118D01*
X156811564Y-110223761D01*
X156869939Y-110282136D01*
X156938582Y-110328002D01*
X157014853Y-110359594D01*
X157095822Y-110375700D01*
X157178378Y-110375700D01*
X157253384Y-110360780D01*
X159766000Y-110360780D01*
X159766000Y-110568420D01*
X159806509Y-110772070D01*
X159885969Y-110963903D01*
X160001327Y-111136549D01*
X160148151Y-111283373D01*
X160320797Y-111398731D01*
X160512630Y-111478191D01*
X160716280Y-111518700D01*
X160923920Y-111518700D01*
X161127570Y-111478191D01*
X161319403Y-111398731D01*
X161492049Y-111283373D01*
X161638873Y-111136549D01*
X161754231Y-110963903D01*
X161833691Y-110772070D01*
X161874200Y-110568420D01*
X161874200Y-110360780D01*
X161833691Y-110157130D01*
X161754231Y-109965297D01*
X161638873Y-109792651D01*
X161492049Y-109645827D01*
X161319403Y-109530469D01*
X161127570Y-109451009D01*
X160923920Y-109410500D01*
X160716280Y-109410500D01*
X160512630Y-109451009D01*
X160320797Y-109530469D01*
X160148151Y-109645827D01*
X160001327Y-109792651D01*
X159885969Y-109965297D01*
X159806509Y-110157130D01*
X159766000Y-110360780D01*
X157253384Y-110360780D01*
X157259347Y-110359594D01*
X157335618Y-110328002D01*
X157404261Y-110282136D01*
X157462636Y-110223761D01*
X157508502Y-110155118D01*
X157540094Y-110078847D01*
X157556200Y-109997878D01*
X157556200Y-109915322D01*
X157540094Y-109834353D01*
X157508502Y-109758082D01*
X157462636Y-109689439D01*
X157404261Y-109631064D01*
X157335618Y-109585198D01*
X157312446Y-109575600D01*
X157335618Y-109566002D01*
X157404261Y-109520136D01*
X157462636Y-109461761D01*
X157508502Y-109393118D01*
X157540094Y-109316847D01*
X157556200Y-109235878D01*
X157556200Y-109153322D01*
X157540094Y-109072353D01*
X157508502Y-108996082D01*
X157462636Y-108927439D01*
X157404261Y-108869064D01*
X157335618Y-108823198D01*
X157259347Y-108791606D01*
X157178378Y-108775500D01*
X157095822Y-108775500D01*
X157014853Y-108791606D01*
X156938582Y-108823198D01*
X156869939Y-108869064D01*
X156811564Y-108927439D01*
X156765698Y-108996082D01*
X156734106Y-109072353D01*
X156718000Y-109153322D01*
X130715500Y-109153322D01*
X130715500Y-108200832D01*
X139430860Y-108200832D01*
X139430860Y-108283368D01*
X139446962Y-108364318D01*
X139478547Y-108440571D01*
X139524402Y-108509197D01*
X139582763Y-108567558D01*
X139651389Y-108613413D01*
X139727642Y-108644998D01*
X139808592Y-108661100D01*
X139891128Y-108661100D01*
X139972078Y-108644998D01*
X140048331Y-108613413D01*
X140055336Y-108608732D01*
X142812000Y-108608732D01*
X142812000Y-108691268D01*
X142828102Y-108772218D01*
X142859687Y-108848471D01*
X142905542Y-108917097D01*
X142963903Y-108975458D01*
X143032529Y-109021313D01*
X143108782Y-109052898D01*
X143189732Y-109069000D01*
X143272268Y-109069000D01*
X143353218Y-109052898D01*
X143429471Y-109021313D01*
X143498097Y-108975458D01*
X143556458Y-108917097D01*
X143602313Y-108848471D01*
X143633898Y-108772218D01*
X143650000Y-108691268D01*
X143650000Y-108608732D01*
X143633898Y-108527782D01*
X143602313Y-108451529D01*
X143556458Y-108382903D01*
X143498097Y-108324542D01*
X143429471Y-108278687D01*
X143381272Y-108258722D01*
X148530900Y-108258722D01*
X148530900Y-108341278D01*
X148547006Y-108422247D01*
X148578598Y-108498518D01*
X148624464Y-108567161D01*
X148682839Y-108625536D01*
X148751482Y-108671402D01*
X148827753Y-108702994D01*
X148908722Y-108719100D01*
X148991278Y-108719100D01*
X149072247Y-108702994D01*
X149148518Y-108671402D01*
X149217161Y-108625536D01*
X149275536Y-108567161D01*
X149321402Y-108498518D01*
X149352994Y-108422247D01*
X149369100Y-108341278D01*
X149369100Y-108258722D01*
X149352994Y-108177753D01*
X149344669Y-108157652D01*
X150629720Y-108157652D01*
X150629720Y-108240188D01*
X150645822Y-108321138D01*
X150677407Y-108397391D01*
X150723262Y-108466017D01*
X150781623Y-108524378D01*
X150850249Y-108570233D01*
X150926502Y-108601818D01*
X151007452Y-108617920D01*
X151089988Y-108617920D01*
X151170938Y-108601818D01*
X151247191Y-108570233D01*
X151315817Y-108524378D01*
X151374178Y-108466017D01*
X151420033Y-108397391D01*
X151451618Y-108321138D01*
X151467720Y-108240188D01*
X151467720Y-108157652D01*
X151451618Y-108076702D01*
X151420033Y-108000449D01*
X151374178Y-107931823D01*
X151315817Y-107873462D01*
X151247191Y-107827607D01*
X151230710Y-107820780D01*
X159766000Y-107820780D01*
X159766000Y-108028420D01*
X159806509Y-108232070D01*
X159885969Y-108423903D01*
X160001327Y-108596549D01*
X160148151Y-108743373D01*
X160320797Y-108858731D01*
X160512630Y-108938191D01*
X160716280Y-108978700D01*
X160923920Y-108978700D01*
X161127570Y-108938191D01*
X161319403Y-108858731D01*
X161492049Y-108743373D01*
X161638873Y-108596549D01*
X161754231Y-108423903D01*
X161833691Y-108232070D01*
X161874200Y-108028420D01*
X161874200Y-107891841D01*
X163009500Y-107891841D01*
X163009500Y-108008159D01*
X163032193Y-108122242D01*
X163076706Y-108229707D01*
X163141329Y-108326422D01*
X163223578Y-108408671D01*
X163320293Y-108473294D01*
X163427758Y-108517807D01*
X163541841Y-108540500D01*
X163658159Y-108540500D01*
X163772242Y-108517807D01*
X163879707Y-108473294D01*
X163976422Y-108408671D01*
X164058671Y-108326422D01*
X164123294Y-108229707D01*
X164167807Y-108122242D01*
X164190500Y-108008159D01*
X164190500Y-107891841D01*
X164167807Y-107777758D01*
X164123294Y-107670293D01*
X164058671Y-107573578D01*
X163976422Y-107491329D01*
X163879707Y-107426706D01*
X163772242Y-107382193D01*
X163658159Y-107359500D01*
X163541841Y-107359500D01*
X163427758Y-107382193D01*
X163320293Y-107426706D01*
X163223578Y-107491329D01*
X163141329Y-107573578D01*
X163076706Y-107670293D01*
X163032193Y-107777758D01*
X163009500Y-107891841D01*
X161874200Y-107891841D01*
X161874200Y-107820780D01*
X161833691Y-107617130D01*
X161754231Y-107425297D01*
X161638873Y-107252651D01*
X161492049Y-107105827D01*
X161319403Y-106990469D01*
X161127570Y-106911009D01*
X160923920Y-106870500D01*
X160716280Y-106870500D01*
X160512630Y-106911009D01*
X160320797Y-106990469D01*
X160148151Y-107105827D01*
X160001327Y-107252651D01*
X159885969Y-107425297D01*
X159806509Y-107617130D01*
X159766000Y-107820780D01*
X151230710Y-107820780D01*
X151170938Y-107796022D01*
X151089988Y-107779920D01*
X151007452Y-107779920D01*
X150926502Y-107796022D01*
X150850249Y-107827607D01*
X150781623Y-107873462D01*
X150723262Y-107931823D01*
X150677407Y-108000449D01*
X150645822Y-108076702D01*
X150629720Y-108157652D01*
X149344669Y-108157652D01*
X149321402Y-108101482D01*
X149275536Y-108032839D01*
X149217161Y-107974464D01*
X149148518Y-107928598D01*
X149072247Y-107897006D01*
X148991278Y-107880900D01*
X148908722Y-107880900D01*
X148827753Y-107897006D01*
X148751482Y-107928598D01*
X148682839Y-107974464D01*
X148624464Y-108032839D01*
X148578598Y-108101482D01*
X148547006Y-108177753D01*
X148530900Y-108258722D01*
X143381272Y-108258722D01*
X143353218Y-108247102D01*
X143272268Y-108231000D01*
X143189732Y-108231000D01*
X143108782Y-108247102D01*
X143032529Y-108278687D01*
X142963903Y-108324542D01*
X142905542Y-108382903D01*
X142859687Y-108451529D01*
X142828102Y-108527782D01*
X142812000Y-108608732D01*
X140055336Y-108608732D01*
X140116957Y-108567558D01*
X140175318Y-108509197D01*
X140221173Y-108440571D01*
X140252758Y-108364318D01*
X140268860Y-108283368D01*
X140268860Y-108200832D01*
X140252758Y-108119882D01*
X140248140Y-108108732D01*
X141290219Y-108108732D01*
X141290219Y-108191268D01*
X141306321Y-108272218D01*
X141337906Y-108348471D01*
X141383761Y-108417097D01*
X141442122Y-108475458D01*
X141510748Y-108521313D01*
X141587001Y-108552898D01*
X141667951Y-108569000D01*
X141750487Y-108569000D01*
X141831437Y-108552898D01*
X141907690Y-108521313D01*
X141976316Y-108475458D01*
X142034677Y-108417097D01*
X142080532Y-108348471D01*
X142112117Y-108272218D01*
X142128219Y-108191268D01*
X142128219Y-108108732D01*
X142112117Y-108027782D01*
X142080532Y-107951529D01*
X142034677Y-107882903D01*
X141976316Y-107824542D01*
X141907690Y-107778687D01*
X141831437Y-107747102D01*
X141750487Y-107731000D01*
X141667951Y-107731000D01*
X141587001Y-107747102D01*
X141510748Y-107778687D01*
X141442122Y-107824542D01*
X141383761Y-107882903D01*
X141337906Y-107951529D01*
X141306321Y-108027782D01*
X141290219Y-108108732D01*
X140248140Y-108108732D01*
X140221173Y-108043629D01*
X140175318Y-107975003D01*
X140116957Y-107916642D01*
X140048331Y-107870787D01*
X139972078Y-107839202D01*
X139891128Y-107823100D01*
X139808592Y-107823100D01*
X139727642Y-107839202D01*
X139651389Y-107870787D01*
X139582763Y-107916642D01*
X139524402Y-107975003D01*
X139478547Y-108043629D01*
X139446962Y-108119882D01*
X139430860Y-108200832D01*
X130715500Y-108200832D01*
X130715500Y-107299132D01*
X139448640Y-107299132D01*
X139448640Y-107381668D01*
X139464742Y-107462618D01*
X139496327Y-107538871D01*
X139542182Y-107607497D01*
X139600543Y-107665858D01*
X139669169Y-107711713D01*
X139745422Y-107743298D01*
X139826372Y-107759400D01*
X139908908Y-107759400D01*
X139989858Y-107743298D01*
X140066111Y-107711713D01*
X140134737Y-107665858D01*
X140193098Y-107607497D01*
X140238953Y-107538871D01*
X140270538Y-107462618D01*
X140286640Y-107381668D01*
X140286640Y-107299132D01*
X140270538Y-107218182D01*
X140238953Y-107141929D01*
X140193098Y-107073303D01*
X140134737Y-107014942D01*
X140066111Y-106969087D01*
X139989858Y-106937502D01*
X139908908Y-106921400D01*
X139826372Y-106921400D01*
X139745422Y-106937502D01*
X139669169Y-106969087D01*
X139600543Y-107014942D01*
X139542182Y-107073303D01*
X139496327Y-107141929D01*
X139464742Y-107218182D01*
X139448640Y-107299132D01*
X130715500Y-107299132D01*
X130715500Y-106308732D01*
X143831000Y-106308732D01*
X143831000Y-106391268D01*
X143847102Y-106472218D01*
X143878687Y-106548471D01*
X143924542Y-106617097D01*
X143982903Y-106675458D01*
X144051529Y-106721313D01*
X144127782Y-106752898D01*
X144208732Y-106769000D01*
X144291268Y-106769000D01*
X144372218Y-106752898D01*
X144448471Y-106721313D01*
X144467299Y-106708732D01*
X154281000Y-106708732D01*
X154281000Y-106791268D01*
X154297102Y-106872218D01*
X154328687Y-106948471D01*
X154374542Y-107017097D01*
X154432903Y-107075458D01*
X154501529Y-107121313D01*
X154577782Y-107152898D01*
X154658732Y-107169000D01*
X154741268Y-107169000D01*
X154822218Y-107152898D01*
X154898471Y-107121313D01*
X154967097Y-107075458D01*
X155025458Y-107017097D01*
X155071313Y-106948471D01*
X155102898Y-106872218D01*
X155119000Y-106791268D01*
X155119000Y-106708732D01*
X155102898Y-106627782D01*
X155071313Y-106551529D01*
X155025458Y-106482903D01*
X154967097Y-106424542D01*
X154898471Y-106378687D01*
X154822218Y-106347102D01*
X154741268Y-106331000D01*
X154658732Y-106331000D01*
X154577782Y-106347102D01*
X154501529Y-106378687D01*
X154432903Y-106424542D01*
X154374542Y-106482903D01*
X154328687Y-106551529D01*
X154297102Y-106627782D01*
X154281000Y-106708732D01*
X144467299Y-106708732D01*
X144517097Y-106675458D01*
X144575458Y-106617097D01*
X144621313Y-106548471D01*
X144652898Y-106472218D01*
X144669000Y-106391268D01*
X144669000Y-106308732D01*
X144652898Y-106227782D01*
X144621313Y-106151529D01*
X144588975Y-106103132D01*
X144852100Y-106103132D01*
X144852100Y-106185668D01*
X144868202Y-106266618D01*
X144899787Y-106342871D01*
X144945642Y-106411497D01*
X145004003Y-106469858D01*
X145072629Y-106515713D01*
X145148882Y-106547298D01*
X145229832Y-106563400D01*
X145312368Y-106563400D01*
X145393318Y-106547298D01*
X145469571Y-106515713D01*
X145538197Y-106469858D01*
X145596558Y-106411497D01*
X145642413Y-106342871D01*
X145673998Y-106266618D01*
X145690100Y-106185668D01*
X145690100Y-106103132D01*
X145673998Y-106022182D01*
X145642413Y-105945929D01*
X145596558Y-105877303D01*
X145538197Y-105818942D01*
X145469571Y-105773087D01*
X145393318Y-105741502D01*
X145312368Y-105725400D01*
X145229832Y-105725400D01*
X145148882Y-105741502D01*
X145072629Y-105773087D01*
X145004003Y-105818942D01*
X144945642Y-105877303D01*
X144899787Y-105945929D01*
X144868202Y-106022182D01*
X144852100Y-106103132D01*
X144588975Y-106103132D01*
X144575458Y-106082903D01*
X144517097Y-106024542D01*
X144448471Y-105978687D01*
X144372218Y-105947102D01*
X144291268Y-105931000D01*
X144208732Y-105931000D01*
X144127782Y-105947102D01*
X144051529Y-105978687D01*
X143982903Y-106024542D01*
X143924542Y-106082903D01*
X143878687Y-106151529D01*
X143847102Y-106227782D01*
X143831000Y-106308732D01*
X130715500Y-106308732D01*
X130715500Y-104808732D01*
X137231000Y-104808732D01*
X137231000Y-104891268D01*
X137247102Y-104972218D01*
X137278687Y-105048471D01*
X137324542Y-105117097D01*
X137382903Y-105175458D01*
X137451529Y-105221313D01*
X137527782Y-105252898D01*
X137608732Y-105269000D01*
X137691268Y-105269000D01*
X137772218Y-105252898D01*
X137848471Y-105221313D01*
X137917097Y-105175458D01*
X137975458Y-105117097D01*
X138021313Y-105048471D01*
X138052898Y-104972218D01*
X138069000Y-104891268D01*
X138069000Y-104808732D01*
X138052898Y-104727782D01*
X138021313Y-104651529D01*
X137975458Y-104582903D01*
X137917097Y-104524542D01*
X137848471Y-104478687D01*
X137800296Y-104458732D01*
X144581000Y-104458732D01*
X144581000Y-104541268D01*
X144597102Y-104622218D01*
X144628687Y-104698471D01*
X144674542Y-104767097D01*
X144732903Y-104825458D01*
X144801529Y-104871313D01*
X144877782Y-104902898D01*
X144958732Y-104919000D01*
X145041268Y-104919000D01*
X145122218Y-104902898D01*
X145198471Y-104871313D01*
X145267097Y-104825458D01*
X145325458Y-104767097D01*
X145371313Y-104698471D01*
X145375985Y-104687193D01*
X145450964Y-104702107D01*
X145533500Y-104702107D01*
X145614450Y-104686005D01*
X145690703Y-104654420D01*
X145759329Y-104608565D01*
X145817690Y-104550204D01*
X145863545Y-104481578D01*
X145878679Y-104445040D01*
X147031000Y-104445040D01*
X147031000Y-104527576D01*
X147047102Y-104608526D01*
X147078687Y-104684779D01*
X147124542Y-104753405D01*
X147182903Y-104811766D01*
X147251529Y-104857621D01*
X147327782Y-104889206D01*
X147408732Y-104905308D01*
X147491268Y-104905308D01*
X147572218Y-104889206D01*
X147648471Y-104857621D01*
X147717097Y-104811766D01*
X147775458Y-104753405D01*
X147821313Y-104684779D01*
X147852898Y-104608526D01*
X147869000Y-104527576D01*
X147869000Y-104445040D01*
X148931000Y-104445040D01*
X148931000Y-104527576D01*
X148947102Y-104608526D01*
X148978687Y-104684779D01*
X149024542Y-104753405D01*
X149082903Y-104811766D01*
X149151529Y-104857621D01*
X149227782Y-104889206D01*
X149308732Y-104905308D01*
X149391268Y-104905308D01*
X149472218Y-104889206D01*
X149548471Y-104857621D01*
X149617097Y-104811766D01*
X149675458Y-104753405D01*
X149721313Y-104684779D01*
X149752898Y-104608526D01*
X149769000Y-104527576D01*
X149769000Y-104445040D01*
X149752898Y-104364090D01*
X149721313Y-104287837D01*
X149675458Y-104219211D01*
X149617097Y-104160850D01*
X149548471Y-104114995D01*
X149472218Y-104083410D01*
X149391268Y-104067308D01*
X149308732Y-104067308D01*
X149227782Y-104083410D01*
X149151529Y-104114995D01*
X149082903Y-104160850D01*
X149024542Y-104219211D01*
X148978687Y-104287837D01*
X148947102Y-104364090D01*
X148931000Y-104445040D01*
X147869000Y-104445040D01*
X147852898Y-104364090D01*
X147821313Y-104287837D01*
X147775458Y-104219211D01*
X147717097Y-104160850D01*
X147648471Y-104114995D01*
X147572218Y-104083410D01*
X147491268Y-104067308D01*
X147408732Y-104067308D01*
X147327782Y-104083410D01*
X147251529Y-104114995D01*
X147182903Y-104160850D01*
X147124542Y-104219211D01*
X147078687Y-104287837D01*
X147047102Y-104364090D01*
X147031000Y-104445040D01*
X145878679Y-104445040D01*
X145895130Y-104405325D01*
X145911232Y-104324375D01*
X145911232Y-104241839D01*
X145895130Y-104160889D01*
X145863545Y-104084636D01*
X145817690Y-104016010D01*
X145810412Y-104008732D01*
X153831000Y-104008732D01*
X153831000Y-104091268D01*
X153847102Y-104172218D01*
X153878687Y-104248471D01*
X153924542Y-104317097D01*
X153982903Y-104375458D01*
X154051529Y-104421313D01*
X154127782Y-104452898D01*
X154208732Y-104469000D01*
X154291268Y-104469000D01*
X154372218Y-104452898D01*
X154448471Y-104421313D01*
X154517097Y-104375458D01*
X154575458Y-104317097D01*
X154614456Y-104258732D01*
X154681000Y-104258732D01*
X154681000Y-104341268D01*
X154697102Y-104422218D01*
X154728687Y-104498471D01*
X154774542Y-104567097D01*
X154832903Y-104625458D01*
X154901529Y-104671313D01*
X154977782Y-104702898D01*
X155058732Y-104719000D01*
X155141268Y-104719000D01*
X155222218Y-104702898D01*
X155298471Y-104671313D01*
X155367097Y-104625458D01*
X155425458Y-104567097D01*
X155471313Y-104498471D01*
X155502898Y-104422218D01*
X155519000Y-104341268D01*
X155519000Y-104258732D01*
X155502898Y-104177782D01*
X155471313Y-104101529D01*
X155449959Y-104069570D01*
X155790900Y-104069570D01*
X155790900Y-104159630D01*
X155808470Y-104247960D01*
X155842935Y-104331165D01*
X155892970Y-104406048D01*
X155956652Y-104469730D01*
X156031535Y-104519765D01*
X156114740Y-104554230D01*
X156203070Y-104571800D01*
X156293130Y-104571800D01*
X156381460Y-104554230D01*
X156464665Y-104519765D01*
X156539548Y-104469730D01*
X156603230Y-104406048D01*
X156653265Y-104331165D01*
X156687730Y-104247960D01*
X156705300Y-104159630D01*
X156705300Y-104069570D01*
X156687730Y-103981240D01*
X156653265Y-103898035D01*
X156603230Y-103823152D01*
X156595648Y-103815570D01*
X157511900Y-103815570D01*
X157511900Y-103905630D01*
X157529470Y-103993960D01*
X157563935Y-104077165D01*
X157613970Y-104152048D01*
X157677652Y-104215730D01*
X157752535Y-104265765D01*
X157835740Y-104300230D01*
X157924070Y-104317800D01*
X158014130Y-104317800D01*
X158102460Y-104300230D01*
X158185665Y-104265765D01*
X158260548Y-104215730D01*
X158324230Y-104152048D01*
X158369100Y-104084895D01*
X158413970Y-104152048D01*
X158477652Y-104215730D01*
X158552535Y-104265765D01*
X158635740Y-104300230D01*
X158724070Y-104317800D01*
X158814130Y-104317800D01*
X158902460Y-104300230D01*
X158985665Y-104265765D01*
X159060548Y-104215730D01*
X159124230Y-104152048D01*
X159169100Y-104084895D01*
X159213970Y-104152048D01*
X159277652Y-104215730D01*
X159352535Y-104265765D01*
X159435740Y-104300230D01*
X159524070Y-104317800D01*
X159614130Y-104317800D01*
X159702460Y-104300230D01*
X159785665Y-104265765D01*
X159860548Y-104215730D01*
X159924230Y-104152048D01*
X159969100Y-104084895D01*
X160013970Y-104152048D01*
X160077652Y-104215730D01*
X160152535Y-104265765D01*
X160235740Y-104300230D01*
X160324070Y-104317800D01*
X160414130Y-104317800D01*
X160502460Y-104300230D01*
X160585665Y-104265765D01*
X160660548Y-104215730D01*
X160724230Y-104152048D01*
X160774265Y-104077165D01*
X160808730Y-103993960D01*
X160826300Y-103905630D01*
X160826300Y-103815570D01*
X160808730Y-103727240D01*
X160774265Y-103644035D01*
X160724230Y-103569152D01*
X160660548Y-103505470D01*
X160585665Y-103455435D01*
X160502460Y-103420970D01*
X160414130Y-103403400D01*
X160324070Y-103403400D01*
X160235740Y-103420970D01*
X160152535Y-103455435D01*
X160077652Y-103505470D01*
X160013970Y-103569152D01*
X159969100Y-103636305D01*
X159924230Y-103569152D01*
X159860548Y-103505470D01*
X159785665Y-103455435D01*
X159702460Y-103420970D01*
X159614130Y-103403400D01*
X159524070Y-103403400D01*
X159435740Y-103420970D01*
X159352535Y-103455435D01*
X159277652Y-103505470D01*
X159213970Y-103569152D01*
X159169100Y-103636305D01*
X159124230Y-103569152D01*
X159060548Y-103505470D01*
X158985665Y-103455435D01*
X158902460Y-103420970D01*
X158814130Y-103403400D01*
X158724070Y-103403400D01*
X158635740Y-103420970D01*
X158552535Y-103455435D01*
X158477652Y-103505470D01*
X158413970Y-103569152D01*
X158369100Y-103636305D01*
X158324230Y-103569152D01*
X158260548Y-103505470D01*
X158185665Y-103455435D01*
X158102460Y-103420970D01*
X158014130Y-103403400D01*
X157924070Y-103403400D01*
X157835740Y-103420970D01*
X157752535Y-103455435D01*
X157677652Y-103505470D01*
X157613970Y-103569152D01*
X157563935Y-103644035D01*
X157529470Y-103727240D01*
X157511900Y-103815570D01*
X156595648Y-103815570D01*
X156539548Y-103759470D01*
X156464665Y-103709435D01*
X156381460Y-103674970D01*
X156293130Y-103657400D01*
X156203070Y-103657400D01*
X156114740Y-103674970D01*
X156031535Y-103709435D01*
X155956652Y-103759470D01*
X155892970Y-103823152D01*
X155842935Y-103898035D01*
X155808470Y-103981240D01*
X155790900Y-104069570D01*
X155449959Y-104069570D01*
X155425458Y-104032903D01*
X155367097Y-103974542D01*
X155298471Y-103928687D01*
X155222218Y-103897102D01*
X155141268Y-103881000D01*
X155058732Y-103881000D01*
X154977782Y-103897102D01*
X154901529Y-103928687D01*
X154832903Y-103974542D01*
X154774542Y-104032903D01*
X154728687Y-104101529D01*
X154697102Y-104177782D01*
X154681000Y-104258732D01*
X154614456Y-104258732D01*
X154621313Y-104248471D01*
X154652898Y-104172218D01*
X154669000Y-104091268D01*
X154669000Y-104008732D01*
X154652898Y-103927782D01*
X154621313Y-103851529D01*
X154575458Y-103782903D01*
X154517097Y-103724542D01*
X154448471Y-103678687D01*
X154372218Y-103647102D01*
X154291268Y-103631000D01*
X154208732Y-103631000D01*
X154127782Y-103647102D01*
X154051529Y-103678687D01*
X153982903Y-103724542D01*
X153924542Y-103782903D01*
X153878687Y-103851529D01*
X153847102Y-103927782D01*
X153831000Y-104008732D01*
X145810412Y-104008732D01*
X145759329Y-103957649D01*
X145690703Y-103911794D01*
X145614450Y-103880209D01*
X145533500Y-103864107D01*
X145450964Y-103864107D01*
X145370014Y-103880209D01*
X145293761Y-103911794D01*
X145225135Y-103957649D01*
X145166774Y-104016010D01*
X145120919Y-104084636D01*
X145116247Y-104095914D01*
X145041268Y-104081000D01*
X144958732Y-104081000D01*
X144877782Y-104097102D01*
X144801529Y-104128687D01*
X144732903Y-104174542D01*
X144674542Y-104232903D01*
X144628687Y-104301529D01*
X144597102Y-104377782D01*
X144581000Y-104458732D01*
X137800296Y-104458732D01*
X137772218Y-104447102D01*
X137691268Y-104431000D01*
X137608732Y-104431000D01*
X137527782Y-104447102D01*
X137451529Y-104478687D01*
X137382903Y-104524542D01*
X137324542Y-104582903D01*
X137278687Y-104651529D01*
X137247102Y-104727782D01*
X137231000Y-104808732D01*
X130715500Y-104808732D01*
X130715500Y-104192817D01*
X136067800Y-104192817D01*
X136067800Y-104290383D01*
X136086834Y-104386074D01*
X136124170Y-104476213D01*
X136178375Y-104557336D01*
X136247364Y-104626325D01*
X136328487Y-104680530D01*
X136418626Y-104717866D01*
X136514317Y-104736900D01*
X136611883Y-104736900D01*
X136707574Y-104717866D01*
X136797713Y-104680530D01*
X136878836Y-104626325D01*
X136947825Y-104557336D01*
X137002030Y-104476213D01*
X137039366Y-104386074D01*
X137058400Y-104290383D01*
X137058400Y-104192817D01*
X137039366Y-104097126D01*
X137002030Y-104006987D01*
X136969787Y-103958732D01*
X143531000Y-103958732D01*
X143531000Y-104041268D01*
X143547102Y-104122218D01*
X143578687Y-104198471D01*
X143624542Y-104267097D01*
X143682903Y-104325458D01*
X143751529Y-104371313D01*
X143827782Y-104402898D01*
X143908732Y-104419000D01*
X143991268Y-104419000D01*
X144072218Y-104402898D01*
X144148471Y-104371313D01*
X144217097Y-104325458D01*
X144275458Y-104267097D01*
X144321313Y-104198471D01*
X144352898Y-104122218D01*
X144369000Y-104041268D01*
X144369000Y-103958732D01*
X144352898Y-103877782D01*
X144321313Y-103801529D01*
X144275458Y-103732903D01*
X144217097Y-103674542D01*
X144148471Y-103628687D01*
X144072218Y-103597102D01*
X143991268Y-103581000D01*
X143908732Y-103581000D01*
X143827782Y-103597102D01*
X143751529Y-103628687D01*
X143682903Y-103674542D01*
X143624542Y-103732903D01*
X143578687Y-103801529D01*
X143547102Y-103877782D01*
X143531000Y-103958732D01*
X136969787Y-103958732D01*
X136947825Y-103925864D01*
X136878836Y-103856875D01*
X136797713Y-103802670D01*
X136707574Y-103765334D01*
X136611883Y-103746300D01*
X136514317Y-103746300D01*
X136418626Y-103765334D01*
X136328487Y-103802670D01*
X136247364Y-103856875D01*
X136178375Y-103925864D01*
X136124170Y-104006987D01*
X136086834Y-104097126D01*
X136067800Y-104192817D01*
X130715500Y-104192817D01*
X130715500Y-102758732D01*
X139481000Y-102758732D01*
X139481000Y-102841268D01*
X139497102Y-102922218D01*
X139528687Y-102998471D01*
X139574542Y-103067097D01*
X139632903Y-103125458D01*
X139701529Y-103171313D01*
X139777782Y-103202898D01*
X139858732Y-103219000D01*
X139941268Y-103219000D01*
X140022218Y-103202898D01*
X140098471Y-103171313D01*
X140167097Y-103125458D01*
X140186963Y-103105592D01*
X141536520Y-103105592D01*
X141536520Y-103188128D01*
X141552622Y-103269078D01*
X141584207Y-103345331D01*
X141630062Y-103413957D01*
X141688423Y-103472318D01*
X141757049Y-103518173D01*
X141833302Y-103549758D01*
X141914252Y-103565860D01*
X141996788Y-103565860D01*
X142077738Y-103549758D01*
X142153991Y-103518173D01*
X142222617Y-103472318D01*
X142280978Y-103413957D01*
X142326833Y-103345331D01*
X142358418Y-103269078D01*
X142374520Y-103188128D01*
X142374520Y-103105592D01*
X142358418Y-103024642D01*
X142326833Y-102948389D01*
X142280978Y-102879763D01*
X142222617Y-102821402D01*
X142153991Y-102775547D01*
X142077738Y-102743962D01*
X141996788Y-102727860D01*
X141914252Y-102727860D01*
X141833302Y-102743962D01*
X141757049Y-102775547D01*
X141688423Y-102821402D01*
X141630062Y-102879763D01*
X141584207Y-102948389D01*
X141552622Y-103024642D01*
X141536520Y-103105592D01*
X140186963Y-103105592D01*
X140225458Y-103067097D01*
X140271313Y-102998471D01*
X140302898Y-102922218D01*
X140319000Y-102841268D01*
X140319000Y-102758732D01*
X140302898Y-102677782D01*
X140271313Y-102601529D01*
X140225458Y-102532903D01*
X140167097Y-102474542D01*
X140098471Y-102428687D01*
X140022218Y-102397102D01*
X139941268Y-102381000D01*
X139858732Y-102381000D01*
X139777782Y-102397102D01*
X139701529Y-102428687D01*
X139632903Y-102474542D01*
X139574542Y-102532903D01*
X139528687Y-102601529D01*
X139497102Y-102677782D01*
X139481000Y-102758732D01*
X130715500Y-102758732D01*
X130715500Y-101584132D01*
X145587820Y-101584132D01*
X145587820Y-101666668D01*
X145603922Y-101747618D01*
X145635507Y-101823871D01*
X145681362Y-101892497D01*
X145739723Y-101950858D01*
X145808349Y-101996713D01*
X145884602Y-102028298D01*
X145965552Y-102044400D01*
X146048088Y-102044400D01*
X146129038Y-102028298D01*
X146205291Y-101996713D01*
X146273917Y-101950858D01*
X146332278Y-101892497D01*
X146378133Y-101823871D01*
X146409718Y-101747618D01*
X146425820Y-101666668D01*
X146425820Y-101584132D01*
X146409718Y-101503182D01*
X146378133Y-101426929D01*
X146332278Y-101358303D01*
X146273917Y-101299942D01*
X146205291Y-101254087D01*
X146129038Y-101222502D01*
X146048088Y-101206400D01*
X145965552Y-101206400D01*
X145884602Y-101222502D01*
X145808349Y-101254087D01*
X145739723Y-101299942D01*
X145681362Y-101358303D01*
X145635507Y-101426929D01*
X145603922Y-101503182D01*
X145587820Y-101584132D01*
X130715500Y-101584132D01*
X130715500Y-100513570D01*
X157511900Y-100513570D01*
X157511900Y-100603630D01*
X157529470Y-100691960D01*
X157563935Y-100775165D01*
X157613970Y-100850048D01*
X157677652Y-100913730D01*
X157752535Y-100963765D01*
X157835740Y-100998230D01*
X157924070Y-101015800D01*
X158014130Y-101015800D01*
X158102460Y-100998230D01*
X158185665Y-100963765D01*
X158260548Y-100913730D01*
X158324230Y-100850048D01*
X158369100Y-100782895D01*
X158413970Y-100850048D01*
X158477652Y-100913730D01*
X158552535Y-100963765D01*
X158635740Y-100998230D01*
X158724070Y-101015800D01*
X158814130Y-101015800D01*
X158902460Y-100998230D01*
X158985665Y-100963765D01*
X159060548Y-100913730D01*
X159124230Y-100850048D01*
X159174265Y-100775165D01*
X159208730Y-100691960D01*
X159226300Y-100603630D01*
X159226300Y-100513570D01*
X159911900Y-100513570D01*
X159911900Y-100603630D01*
X159929470Y-100691960D01*
X159963935Y-100775165D01*
X160013970Y-100850048D01*
X160077652Y-100913730D01*
X160152535Y-100963765D01*
X160235740Y-100998230D01*
X160324070Y-101015800D01*
X160414130Y-101015800D01*
X160502460Y-100998230D01*
X160585665Y-100963765D01*
X160660548Y-100913730D01*
X160724230Y-100850048D01*
X160774265Y-100775165D01*
X160808730Y-100691960D01*
X160826300Y-100603630D01*
X160826300Y-100513570D01*
X160808730Y-100425240D01*
X160774265Y-100342035D01*
X160724230Y-100267152D01*
X160660548Y-100203470D01*
X160585665Y-100153435D01*
X160535293Y-100132570D01*
X161378900Y-100132570D01*
X161378900Y-100222630D01*
X161396470Y-100310960D01*
X161430935Y-100394165D01*
X161480970Y-100469048D01*
X161544652Y-100532730D01*
X161619535Y-100582765D01*
X161702740Y-100617230D01*
X161791070Y-100634800D01*
X161881130Y-100634800D01*
X161969460Y-100617230D01*
X162052665Y-100582765D01*
X162127548Y-100532730D01*
X162191230Y-100469048D01*
X162241265Y-100394165D01*
X162275730Y-100310960D01*
X162280600Y-100286477D01*
X162285470Y-100310960D01*
X162319935Y-100394165D01*
X162369970Y-100469048D01*
X162433652Y-100532730D01*
X162508535Y-100582765D01*
X162591740Y-100617230D01*
X162680070Y-100634800D01*
X162770130Y-100634800D01*
X162858460Y-100617230D01*
X162941665Y-100582765D01*
X163016548Y-100532730D01*
X163080230Y-100469048D01*
X163130265Y-100394165D01*
X163164730Y-100310960D01*
X163182300Y-100222630D01*
X163182300Y-100132570D01*
X163164730Y-100044240D01*
X163130265Y-99961035D01*
X163080230Y-99886152D01*
X163016548Y-99822470D01*
X162941665Y-99772435D01*
X162858460Y-99737970D01*
X162770130Y-99720400D01*
X162680070Y-99720400D01*
X162591740Y-99737970D01*
X162508535Y-99772435D01*
X162433652Y-99822470D01*
X162369970Y-99886152D01*
X162319935Y-99961035D01*
X162285470Y-100044240D01*
X162280600Y-100068723D01*
X162275730Y-100044240D01*
X162241265Y-99961035D01*
X162191230Y-99886152D01*
X162127548Y-99822470D01*
X162052665Y-99772435D01*
X161969460Y-99737970D01*
X161881130Y-99720400D01*
X161791070Y-99720400D01*
X161702740Y-99737970D01*
X161619535Y-99772435D01*
X161544652Y-99822470D01*
X161480970Y-99886152D01*
X161430935Y-99961035D01*
X161396470Y-100044240D01*
X161378900Y-100132570D01*
X160535293Y-100132570D01*
X160502460Y-100118970D01*
X160414130Y-100101400D01*
X160324070Y-100101400D01*
X160235740Y-100118970D01*
X160152535Y-100153435D01*
X160077652Y-100203470D01*
X160013970Y-100267152D01*
X159963935Y-100342035D01*
X159929470Y-100425240D01*
X159911900Y-100513570D01*
X159226300Y-100513570D01*
X159208730Y-100425240D01*
X159174265Y-100342035D01*
X159124230Y-100267152D01*
X159060548Y-100203470D01*
X158985665Y-100153435D01*
X158902460Y-100118970D01*
X158814130Y-100101400D01*
X158724070Y-100101400D01*
X158635740Y-100118970D01*
X158552535Y-100153435D01*
X158477652Y-100203470D01*
X158413970Y-100267152D01*
X158369100Y-100334305D01*
X158324230Y-100267152D01*
X158260548Y-100203470D01*
X158185665Y-100153435D01*
X158102460Y-100118970D01*
X158014130Y-100101400D01*
X157924070Y-100101400D01*
X157835740Y-100118970D01*
X157752535Y-100153435D01*
X157677652Y-100203470D01*
X157613970Y-100267152D01*
X157563935Y-100342035D01*
X157529470Y-100425240D01*
X157511900Y-100513570D01*
X130715500Y-100513570D01*
X130715500Y-99620712D01*
X146779080Y-99620712D01*
X146779080Y-99703248D01*
X146795182Y-99784198D01*
X146826767Y-99860451D01*
X146872622Y-99929077D01*
X146930983Y-99987438D01*
X146999609Y-100033293D01*
X147075862Y-100064878D01*
X147156812Y-100080980D01*
X147239348Y-100080980D01*
X147320298Y-100064878D01*
X147396551Y-100033293D01*
X147465177Y-99987438D01*
X147523538Y-99929077D01*
X147569393Y-99860451D01*
X147600978Y-99784198D01*
X147617080Y-99703248D01*
X147617080Y-99620712D01*
X147600978Y-99539762D01*
X147569393Y-99463509D01*
X147523538Y-99394883D01*
X147465177Y-99336522D01*
X147396551Y-99290667D01*
X147320298Y-99259082D01*
X147239348Y-99242980D01*
X147156812Y-99242980D01*
X147075862Y-99259082D01*
X146999609Y-99290667D01*
X146930983Y-99336522D01*
X146872622Y-99394883D01*
X146826767Y-99463509D01*
X146795182Y-99539762D01*
X146779080Y-99620712D01*
X130715500Y-99620712D01*
X130715500Y-98908732D01*
X137481000Y-98908732D01*
X137481000Y-98991268D01*
X137497102Y-99072218D01*
X137528687Y-99148471D01*
X137574542Y-99217097D01*
X137632903Y-99275458D01*
X137701529Y-99321313D01*
X137777782Y-99352898D01*
X137858732Y-99369000D01*
X137941268Y-99369000D01*
X138022218Y-99352898D01*
X138098471Y-99321313D01*
X138167097Y-99275458D01*
X138225458Y-99217097D01*
X138271313Y-99148471D01*
X138302898Y-99072218D01*
X138319000Y-98991268D01*
X138319000Y-98908732D01*
X138302898Y-98827782D01*
X138271313Y-98751529D01*
X138260650Y-98735570D01*
X160870900Y-98735570D01*
X160870900Y-98825630D01*
X160888470Y-98913960D01*
X160922935Y-98997165D01*
X160972970Y-99072048D01*
X161036652Y-99135730D01*
X161111535Y-99185765D01*
X161194740Y-99220230D01*
X161283070Y-99237800D01*
X161373130Y-99237800D01*
X161461460Y-99220230D01*
X161544665Y-99185765D01*
X161619548Y-99135730D01*
X161683230Y-99072048D01*
X161733265Y-98997165D01*
X161767730Y-98913960D01*
X161785300Y-98825630D01*
X161785300Y-98735570D01*
X161767730Y-98647240D01*
X161733265Y-98564035D01*
X161683230Y-98489152D01*
X161619548Y-98425470D01*
X161544665Y-98375435D01*
X161461460Y-98340970D01*
X161373130Y-98323400D01*
X161283070Y-98323400D01*
X161194740Y-98340970D01*
X161111535Y-98375435D01*
X161036652Y-98425470D01*
X160972970Y-98489152D01*
X160922935Y-98564035D01*
X160888470Y-98647240D01*
X160870900Y-98735570D01*
X138260650Y-98735570D01*
X138225458Y-98682903D01*
X138167097Y-98624542D01*
X138098471Y-98578687D01*
X138022218Y-98547102D01*
X137941268Y-98531000D01*
X137858732Y-98531000D01*
X137777782Y-98547102D01*
X137701529Y-98578687D01*
X137632903Y-98624542D01*
X137574542Y-98682903D01*
X137528687Y-98751529D01*
X137497102Y-98827782D01*
X137481000Y-98908732D01*
X130715500Y-98908732D01*
X130715500Y-97508732D01*
X136731000Y-97508732D01*
X136731000Y-97591268D01*
X136747102Y-97672218D01*
X136778687Y-97748471D01*
X136824542Y-97817097D01*
X136882903Y-97875458D01*
X136951529Y-97921313D01*
X137027782Y-97952898D01*
X137108732Y-97969000D01*
X137191268Y-97969000D01*
X137272218Y-97952898D01*
X137348471Y-97921313D01*
X137417097Y-97875458D01*
X137475458Y-97817097D01*
X137521313Y-97748471D01*
X137547507Y-97685232D01*
X142583000Y-97685232D01*
X142583000Y-97767768D01*
X142599102Y-97848718D01*
X142630687Y-97924971D01*
X142676542Y-97993597D01*
X142734903Y-98051958D01*
X142803529Y-98097813D01*
X142879782Y-98129398D01*
X142960732Y-98145500D01*
X143043268Y-98145500D01*
X143124218Y-98129398D01*
X143200471Y-98097813D01*
X143269097Y-98051958D01*
X143327458Y-97993597D01*
X143373313Y-97924971D01*
X143404898Y-97848718D01*
X143421000Y-97767768D01*
X143421000Y-97685232D01*
X143404898Y-97604282D01*
X143373313Y-97528029D01*
X143327458Y-97459403D01*
X143269097Y-97401042D01*
X143200471Y-97355187D01*
X143160354Y-97338570D01*
X157511900Y-97338570D01*
X157511900Y-97428630D01*
X157529470Y-97516960D01*
X157563935Y-97600165D01*
X157613970Y-97675048D01*
X157677652Y-97738730D01*
X157752535Y-97788765D01*
X157835740Y-97823230D01*
X157924070Y-97840800D01*
X158014130Y-97840800D01*
X158102460Y-97823230D01*
X158185665Y-97788765D01*
X158260548Y-97738730D01*
X158324230Y-97675048D01*
X158369100Y-97607895D01*
X158413970Y-97675048D01*
X158477652Y-97738730D01*
X158552535Y-97788765D01*
X158635740Y-97823230D01*
X158724070Y-97840800D01*
X158814130Y-97840800D01*
X158902460Y-97823230D01*
X158985665Y-97788765D01*
X159060548Y-97738730D01*
X159124230Y-97675048D01*
X159169100Y-97607895D01*
X159213970Y-97675048D01*
X159277652Y-97738730D01*
X159352535Y-97788765D01*
X159435740Y-97823230D01*
X159524070Y-97840800D01*
X159614130Y-97840800D01*
X159702460Y-97823230D01*
X159785665Y-97788765D01*
X159860548Y-97738730D01*
X159924230Y-97675048D01*
X159969100Y-97607895D01*
X160013970Y-97675048D01*
X160077652Y-97738730D01*
X160152535Y-97788765D01*
X160235740Y-97823230D01*
X160324070Y-97840800D01*
X160414130Y-97840800D01*
X160502460Y-97823230D01*
X160585665Y-97788765D01*
X160660548Y-97738730D01*
X160724230Y-97675048D01*
X160774265Y-97600165D01*
X160808730Y-97516960D01*
X160826300Y-97428630D01*
X160826300Y-97338570D01*
X160808730Y-97250240D01*
X160774265Y-97167035D01*
X160724230Y-97092152D01*
X160660548Y-97028470D01*
X160585665Y-96978435D01*
X160502460Y-96943970D01*
X160414130Y-96926400D01*
X160324070Y-96926400D01*
X160235740Y-96943970D01*
X160152535Y-96978435D01*
X160077652Y-97028470D01*
X160013970Y-97092152D01*
X159969100Y-97159305D01*
X159924230Y-97092152D01*
X159860548Y-97028470D01*
X159785665Y-96978435D01*
X159702460Y-96943970D01*
X159614130Y-96926400D01*
X159524070Y-96926400D01*
X159435740Y-96943970D01*
X159352535Y-96978435D01*
X159277652Y-97028470D01*
X159213970Y-97092152D01*
X159169100Y-97159305D01*
X159124230Y-97092152D01*
X159060548Y-97028470D01*
X158985665Y-96978435D01*
X158902460Y-96943970D01*
X158814130Y-96926400D01*
X158724070Y-96926400D01*
X158635740Y-96943970D01*
X158552535Y-96978435D01*
X158477652Y-97028470D01*
X158413970Y-97092152D01*
X158369100Y-97159305D01*
X158324230Y-97092152D01*
X158260548Y-97028470D01*
X158185665Y-96978435D01*
X158102460Y-96943970D01*
X158014130Y-96926400D01*
X157924070Y-96926400D01*
X157835740Y-96943970D01*
X157752535Y-96978435D01*
X157677652Y-97028470D01*
X157613970Y-97092152D01*
X157563935Y-97167035D01*
X157529470Y-97250240D01*
X157511900Y-97338570D01*
X143160354Y-97338570D01*
X143124218Y-97323602D01*
X143043268Y-97307500D01*
X142960732Y-97307500D01*
X142879782Y-97323602D01*
X142803529Y-97355187D01*
X142734903Y-97401042D01*
X142676542Y-97459403D01*
X142630687Y-97528029D01*
X142599102Y-97604282D01*
X142583000Y-97685232D01*
X137547507Y-97685232D01*
X137552898Y-97672218D01*
X137569000Y-97591268D01*
X137569000Y-97508732D01*
X137552898Y-97427782D01*
X137521313Y-97351529D01*
X137475458Y-97282903D01*
X137417097Y-97224542D01*
X137348471Y-97178687D01*
X137272218Y-97147102D01*
X137191268Y-97131000D01*
X137108732Y-97131000D01*
X137027782Y-97147102D01*
X136951529Y-97178687D01*
X136882903Y-97224542D01*
X136824542Y-97282903D01*
X136778687Y-97351529D01*
X136747102Y-97427782D01*
X136731000Y-97508732D01*
X130715500Y-97508732D01*
X130715500Y-96658732D01*
X138581000Y-96658732D01*
X138581000Y-96741268D01*
X138597102Y-96822218D01*
X138628687Y-96898471D01*
X138674542Y-96967097D01*
X138732903Y-97025458D01*
X138801529Y-97071313D01*
X138877782Y-97102898D01*
X138958732Y-97119000D01*
X139041268Y-97119000D01*
X139122218Y-97102898D01*
X139198471Y-97071313D01*
X139267097Y-97025458D01*
X139325458Y-96967097D01*
X139371313Y-96898471D01*
X139402898Y-96822218D01*
X139419000Y-96741268D01*
X139419000Y-96658732D01*
X139402898Y-96577782D01*
X139371313Y-96501529D01*
X139325458Y-96432903D01*
X139267097Y-96374542D01*
X139198471Y-96328687D01*
X139122218Y-96297102D01*
X139041268Y-96281000D01*
X138958732Y-96281000D01*
X138877782Y-96297102D01*
X138801529Y-96328687D01*
X138732903Y-96374542D01*
X138674542Y-96432903D01*
X138628687Y-96501529D01*
X138597102Y-96577782D01*
X138581000Y-96658732D01*
X130715500Y-96658732D01*
X130715500Y-95958732D01*
X139081000Y-95958732D01*
X139081000Y-96041268D01*
X139097102Y-96122218D01*
X139128687Y-96198471D01*
X139174542Y-96267097D01*
X139232903Y-96325458D01*
X139301529Y-96371313D01*
X139377782Y-96402898D01*
X139458732Y-96419000D01*
X139541268Y-96419000D01*
X139622218Y-96402898D01*
X139698471Y-96371313D01*
X139767097Y-96325458D01*
X139825458Y-96267097D01*
X139871313Y-96198471D01*
X139902898Y-96122218D01*
X139919000Y-96041268D01*
X139919000Y-95958732D01*
X139902898Y-95877782D01*
X139871313Y-95801529D01*
X139825458Y-95732903D01*
X139767097Y-95674542D01*
X139698471Y-95628687D01*
X139622218Y-95597102D01*
X139541268Y-95581000D01*
X139458732Y-95581000D01*
X139377782Y-95597102D01*
X139301529Y-95628687D01*
X139232903Y-95674542D01*
X139174542Y-95732903D01*
X139128687Y-95801529D01*
X139097102Y-95877782D01*
X139081000Y-95958732D01*
X130715500Y-95958732D01*
X130715500Y-94417570D01*
X132676900Y-94417570D01*
X132676900Y-94507630D01*
X132694470Y-94595960D01*
X132728935Y-94679165D01*
X132778970Y-94754048D01*
X132842652Y-94817730D01*
X132917535Y-94867765D01*
X133000740Y-94902230D01*
X133089070Y-94919800D01*
X133179130Y-94919800D01*
X133267460Y-94902230D01*
X133350665Y-94867765D01*
X133425548Y-94817730D01*
X133489230Y-94754048D01*
X133539265Y-94679165D01*
X133573730Y-94595960D01*
X133591300Y-94507630D01*
X133591300Y-94417570D01*
X133692900Y-94417570D01*
X133692900Y-94507630D01*
X133710470Y-94595960D01*
X133744935Y-94679165D01*
X133794970Y-94754048D01*
X133858652Y-94817730D01*
X133933535Y-94867765D01*
X134016740Y-94902230D01*
X134105070Y-94919800D01*
X134195130Y-94919800D01*
X134283460Y-94902230D01*
X134366665Y-94867765D01*
X134441548Y-94817730D01*
X134505230Y-94754048D01*
X134555265Y-94679165D01*
X134589730Y-94595960D01*
X134607300Y-94507630D01*
X134607300Y-94417570D01*
X134589730Y-94329240D01*
X134555265Y-94246035D01*
X134505230Y-94171152D01*
X134441548Y-94107470D01*
X134366665Y-94057435D01*
X134283460Y-94022970D01*
X134195130Y-94005400D01*
X134105070Y-94005400D01*
X134016740Y-94022970D01*
X133933535Y-94057435D01*
X133858652Y-94107470D01*
X133794970Y-94171152D01*
X133744935Y-94246035D01*
X133710470Y-94329240D01*
X133692900Y-94417570D01*
X133591300Y-94417570D01*
X133573730Y-94329240D01*
X133539265Y-94246035D01*
X133489230Y-94171152D01*
X133425548Y-94107470D01*
X133350665Y-94057435D01*
X133267460Y-94022970D01*
X133179130Y-94005400D01*
X133089070Y-94005400D01*
X133000740Y-94022970D01*
X132917535Y-94057435D01*
X132842652Y-94107470D01*
X132778970Y-94171152D01*
X132728935Y-94246035D01*
X132694470Y-94329240D01*
X132676900Y-94417570D01*
X130715500Y-94417570D01*
X130715500Y-93715500D01*
X157694070Y-93715500D01*
X157677652Y-93726470D01*
X157677652Y-93726470D01*
G37*
X157677652Y-93726470D02*
X157613970Y-93790152D01*
X157563935Y-93865035D01*
X157529470Y-93948240D01*
X157511900Y-94036570D01*
X157511900Y-94126630D01*
X157529470Y-94214960D01*
X157563935Y-94298165D01*
X157613970Y-94373048D01*
X157677652Y-94436730D01*
X157752535Y-94486765D01*
X157835740Y-94521230D01*
X157924070Y-94538800D01*
X158014130Y-94538800D01*
X158102460Y-94521230D01*
X158185665Y-94486765D01*
X158260548Y-94436730D01*
X158324230Y-94373048D01*
X158369100Y-94305895D01*
X158413970Y-94373048D01*
X158477652Y-94436730D01*
X158552535Y-94486765D01*
X158635740Y-94521230D01*
X158724070Y-94538800D01*
X158814130Y-94538800D01*
X158902460Y-94521230D01*
X158985665Y-94486765D01*
X159060548Y-94436730D01*
X159124230Y-94373048D01*
X159169100Y-94305895D01*
X159213970Y-94373048D01*
X159277652Y-94436730D01*
X159352535Y-94486765D01*
X159435740Y-94521230D01*
X159524070Y-94538800D01*
X159614130Y-94538800D01*
X159702460Y-94521230D01*
X159785665Y-94486765D01*
X159860548Y-94436730D01*
X159924230Y-94373048D01*
X159969100Y-94305895D01*
X160013970Y-94373048D01*
X160077652Y-94436730D01*
X160152535Y-94486765D01*
X160235740Y-94521230D01*
X160324070Y-94538800D01*
X160414130Y-94538800D01*
X160502460Y-94521230D01*
X160585665Y-94486765D01*
X160660548Y-94436730D01*
X160724230Y-94373048D01*
X160774265Y-94298165D01*
X160808730Y-94214960D01*
X160826300Y-94126630D01*
X160826300Y-94036570D01*
X160808730Y-93948240D01*
X160774265Y-93865035D01*
X160724230Y-93790152D01*
X160660548Y-93726470D01*
X160644130Y-93715500D01*
X166284501Y-93715500D01*
X166284500Y-127284500D01*
X130715500Y-127284500D01*
X130715500Y-125665248D01*
X152965600Y-125665248D01*
X152965600Y-125886952D01*
X153008852Y-126104396D01*
X153093695Y-126309224D01*
X153216867Y-126493565D01*
X153373635Y-126650333D01*
X153557976Y-126773505D01*
X153762804Y-126858348D01*
X153980248Y-126901600D01*
X154201952Y-126901600D01*
X154419396Y-126858348D01*
X154624224Y-126773505D01*
X154808565Y-126650333D01*
X154965333Y-126493565D01*
X155088505Y-126309224D01*
X155173348Y-126104396D01*
X155216600Y-125886952D01*
X155216600Y-125665248D01*
X159565600Y-125665248D01*
X159565600Y-125886952D01*
X159608852Y-126104396D01*
X159693695Y-126309224D01*
X159816867Y-126493565D01*
X159973635Y-126650333D01*
X160157976Y-126773505D01*
X160362804Y-126858348D01*
X160580248Y-126901600D01*
X160801952Y-126901600D01*
X161019396Y-126858348D01*
X161224224Y-126773505D01*
X161408565Y-126650333D01*
X161565333Y-126493565D01*
X161688505Y-126309224D01*
X161773348Y-126104396D01*
X161816600Y-125886952D01*
X161816600Y-125665248D01*
X161773348Y-125447804D01*
X161688505Y-125242976D01*
X161565333Y-125058635D01*
X161408565Y-124901867D01*
X161343141Y-124858152D01*
X162547400Y-124858152D01*
X162547400Y-124940688D01*
X162563502Y-125021638D01*
X162595087Y-125097891D01*
X162640942Y-125166517D01*
X162699303Y-125224878D01*
X162767929Y-125270733D01*
X162844182Y-125302318D01*
X162925132Y-125318420D01*
X163007668Y-125318420D01*
X163088618Y-125302318D01*
X163164871Y-125270733D01*
X163233497Y-125224878D01*
X163291858Y-125166517D01*
X163337713Y-125097891D01*
X163369298Y-125021638D01*
X163385400Y-124940688D01*
X163385400Y-124858152D01*
X163369298Y-124777202D01*
X163337713Y-124700949D01*
X163291858Y-124632323D01*
X163233497Y-124573962D01*
X163164871Y-124528107D01*
X163088618Y-124496522D01*
X163007668Y-124480420D01*
X162925132Y-124480420D01*
X162844182Y-124496522D01*
X162767929Y-124528107D01*
X162699303Y-124573962D01*
X162640942Y-124632323D01*
X162595087Y-124700949D01*
X162563502Y-124777202D01*
X162547400Y-124858152D01*
X161343141Y-124858152D01*
X161224224Y-124778695D01*
X161019396Y-124693852D01*
X160801952Y-124650600D01*
X160580248Y-124650600D01*
X160362804Y-124693852D01*
X160157976Y-124778695D01*
X159973635Y-124901867D01*
X159816867Y-125058635D01*
X159693695Y-125242976D01*
X159608852Y-125447804D01*
X159565600Y-125665248D01*
X155216600Y-125665248D01*
X155173348Y-125447804D01*
X155088505Y-125242976D01*
X154965333Y-125058635D01*
X154808565Y-124901867D01*
X154624224Y-124778695D01*
X154419396Y-124693852D01*
X154201952Y-124650600D01*
X153980248Y-124650600D01*
X153762804Y-124693852D01*
X153557976Y-124778695D01*
X153373635Y-124901867D01*
X153216867Y-125058635D01*
X153093695Y-125242976D01*
X153008852Y-125447804D01*
X152965600Y-125665248D01*
X130715500Y-125665248D01*
X130715500Y-125024570D01*
X148932900Y-125024570D01*
X148932900Y-125114630D01*
X148950470Y-125202960D01*
X148984935Y-125286165D01*
X149034970Y-125361048D01*
X149098652Y-125424730D01*
X149173535Y-125474765D01*
X149256740Y-125509230D01*
X149345070Y-125526800D01*
X149435130Y-125526800D01*
X149523460Y-125509230D01*
X149606665Y-125474765D01*
X149681548Y-125424730D01*
X149745230Y-125361048D01*
X149771100Y-125322331D01*
X149796970Y-125361048D01*
X149860652Y-125424730D01*
X149935535Y-125474765D01*
X150018740Y-125509230D01*
X150107070Y-125526800D01*
X150197130Y-125526800D01*
X150285460Y-125509230D01*
X150368665Y-125474765D01*
X150443548Y-125424730D01*
X150507230Y-125361048D01*
X150557265Y-125286165D01*
X150591730Y-125202960D01*
X150609300Y-125114630D01*
X150609300Y-125024570D01*
X150591730Y-124936240D01*
X150557265Y-124853035D01*
X150507230Y-124778152D01*
X150443548Y-124714470D01*
X150368665Y-124664435D01*
X150285460Y-124629970D01*
X150197130Y-124612400D01*
X150107070Y-124612400D01*
X150018740Y-124629970D01*
X149935535Y-124664435D01*
X149860652Y-124714470D01*
X149796970Y-124778152D01*
X149771100Y-124816869D01*
X149745230Y-124778152D01*
X149681548Y-124714470D01*
X149606665Y-124664435D01*
X149523460Y-124629970D01*
X149435130Y-124612400D01*
X149345070Y-124612400D01*
X149256740Y-124629970D01*
X149173535Y-124664435D01*
X149098652Y-124714470D01*
X149034970Y-124778152D01*
X148984935Y-124853035D01*
X148950470Y-124936240D01*
X148932900Y-125024570D01*
X130715500Y-125024570D01*
X130715500Y-124472072D01*
X134371180Y-124472072D01*
X134371180Y-124554608D01*
X134387282Y-124635558D01*
X134418867Y-124711811D01*
X134464722Y-124780437D01*
X134523083Y-124838798D01*
X134591709Y-124884653D01*
X134667962Y-124916238D01*
X134748912Y-124932340D01*
X134831448Y-124932340D01*
X134912398Y-124916238D01*
X134988651Y-124884653D01*
X135057277Y-124838798D01*
X135115638Y-124780437D01*
X135161493Y-124711811D01*
X135193078Y-124635558D01*
X135209180Y-124554608D01*
X135209180Y-124500012D01*
X136273640Y-124500012D01*
X136273640Y-124582548D01*
X136289742Y-124663498D01*
X136321327Y-124739751D01*
X136367182Y-124808377D01*
X136425543Y-124866738D01*
X136494169Y-124912593D01*
X136570422Y-124944178D01*
X136651372Y-124960280D01*
X136733908Y-124960280D01*
X136814858Y-124944178D01*
X136891111Y-124912593D01*
X136959737Y-124866738D01*
X137018098Y-124808377D01*
X137063953Y-124739751D01*
X137095538Y-124663498D01*
X137111640Y-124582548D01*
X137111640Y-124500012D01*
X137095538Y-124419062D01*
X137063953Y-124342809D01*
X137018098Y-124274183D01*
X136959737Y-124215822D01*
X136891111Y-124169967D01*
X136814858Y-124138382D01*
X136733908Y-124122280D01*
X136651372Y-124122280D01*
X136570422Y-124138382D01*
X136494169Y-124169967D01*
X136425543Y-124215822D01*
X136367182Y-124274183D01*
X136321327Y-124342809D01*
X136289742Y-124419062D01*
X136273640Y-124500012D01*
X135209180Y-124500012D01*
X135209180Y-124472072D01*
X135193078Y-124391122D01*
X135161493Y-124314869D01*
X135115638Y-124246243D01*
X135057277Y-124187882D01*
X134988651Y-124142027D01*
X134912398Y-124110442D01*
X134831448Y-124094340D01*
X134748912Y-124094340D01*
X134667962Y-124110442D01*
X134591709Y-124142027D01*
X134523083Y-124187882D01*
X134464722Y-124246243D01*
X134418867Y-124314869D01*
X134387282Y-124391122D01*
X134371180Y-124472072D01*
X130715500Y-124472072D01*
X130715500Y-123141112D01*
X150799900Y-123141112D01*
X150799900Y-123223648D01*
X150816002Y-123304598D01*
X150847587Y-123380851D01*
X150893442Y-123449477D01*
X150951803Y-123507838D01*
X151020429Y-123553693D01*
X151096682Y-123585278D01*
X151177632Y-123601380D01*
X151260168Y-123601380D01*
X151341118Y-123585278D01*
X151417371Y-123553693D01*
X151485997Y-123507838D01*
X151544358Y-123449477D01*
X151590213Y-123380851D01*
X151621798Y-123304598D01*
X151628598Y-123270413D01*
X151633882Y-123296978D01*
X151665467Y-123373231D01*
X151711322Y-123441857D01*
X151769683Y-123500218D01*
X151838309Y-123546073D01*
X151914562Y-123577658D01*
X151995512Y-123593760D01*
X152078048Y-123593760D01*
X152158998Y-123577658D01*
X152235251Y-123546073D01*
X152303877Y-123500218D01*
X152362238Y-123441857D01*
X152408093Y-123373231D01*
X152439678Y-123296978D01*
X152455780Y-123216028D01*
X152455780Y-123133492D01*
X152439678Y-123052542D01*
X152408093Y-122976289D01*
X152362238Y-122907663D01*
X152303877Y-122849302D01*
X152235251Y-122803447D01*
X152158998Y-122771862D01*
X152078048Y-122755760D01*
X151995512Y-122755760D01*
X151914562Y-122771862D01*
X151838309Y-122803447D01*
X151769683Y-122849302D01*
X151711322Y-122907663D01*
X151665467Y-122976289D01*
X151633882Y-123052542D01*
X151627082Y-123086727D01*
X151621798Y-123060162D01*
X151590213Y-122983909D01*
X151544358Y-122915283D01*
X151485997Y-122856922D01*
X151417371Y-122811067D01*
X151341118Y-122779482D01*
X151260168Y-122763380D01*
X151177632Y-122763380D01*
X151096682Y-122779482D01*
X151020429Y-122811067D01*
X150951803Y-122856922D01*
X150893442Y-122915283D01*
X150847587Y-122983909D01*
X150816002Y-123060162D01*
X150799900Y-123141112D01*
X130715500Y-123141112D01*
X130715500Y-121849570D01*
X151472900Y-121849570D01*
X151472900Y-121939630D01*
X151490470Y-122027960D01*
X151524935Y-122111165D01*
X151574970Y-122186048D01*
X151638652Y-122249730D01*
X151713535Y-122299765D01*
X151796740Y-122334230D01*
X151885070Y-122351800D01*
X151975130Y-122351800D01*
X152063460Y-122334230D01*
X152146665Y-122299765D01*
X152221548Y-122249730D01*
X152285230Y-122186048D01*
X152335265Y-122111165D01*
X152369730Y-122027960D01*
X152387300Y-121939630D01*
X152387300Y-121849570D01*
X152369730Y-121761240D01*
X152335265Y-121678035D01*
X152285230Y-121603152D01*
X152221548Y-121539470D01*
X152146665Y-121489435D01*
X152063460Y-121454970D01*
X151975130Y-121437400D01*
X151885070Y-121437400D01*
X151796740Y-121454970D01*
X151713535Y-121489435D01*
X151638652Y-121539470D01*
X151574970Y-121603152D01*
X151524935Y-121678035D01*
X151490470Y-121761240D01*
X151472900Y-121849570D01*
X130715500Y-121849570D01*
X130715500Y-121374910D01*
X160141632Y-121374910D01*
X160239332Y-121510384D01*
X160423299Y-121606666D01*
X160622515Y-121665207D01*
X160829324Y-121683759D01*
X161035778Y-121661608D01*
X161233944Y-121599605D01*
X161400868Y-121510384D01*
X161498568Y-121374910D01*
X160820100Y-120696442D01*
X160141632Y-121374910D01*
X130715500Y-121374910D01*
X130715500Y-120633824D01*
X159760941Y-120633824D01*
X159783092Y-120840278D01*
X159845095Y-121038444D01*
X159934316Y-121205368D01*
X160069790Y-121303068D01*
X160748258Y-120624600D01*
X160891942Y-120624600D01*
X161570410Y-121303068D01*
X161705884Y-121205368D01*
X161802166Y-121021401D01*
X161860707Y-120822185D01*
X161879259Y-120615376D01*
X161864920Y-120481732D01*
X163550700Y-120481732D01*
X163550700Y-120564268D01*
X163566802Y-120645218D01*
X163598387Y-120721471D01*
X163644242Y-120790097D01*
X163702603Y-120848458D01*
X163771229Y-120894313D01*
X163847482Y-120925898D01*
X163928432Y-120942000D01*
X164010968Y-120942000D01*
X164091918Y-120925898D01*
X164168171Y-120894313D01*
X164236797Y-120848458D01*
X164295158Y-120790097D01*
X164341013Y-120721471D01*
X164372598Y-120645218D01*
X164388700Y-120564268D01*
X164388700Y-120481732D01*
X164372598Y-120400782D01*
X164341013Y-120324529D01*
X164295158Y-120255903D01*
X164236797Y-120197542D01*
X164168171Y-120151687D01*
X164091918Y-120120102D01*
X164010968Y-120104000D01*
X163928432Y-120104000D01*
X163847482Y-120120102D01*
X163771229Y-120151687D01*
X163702603Y-120197542D01*
X163644242Y-120255903D01*
X163598387Y-120324529D01*
X163566802Y-120400782D01*
X163550700Y-120481732D01*
X161864920Y-120481732D01*
X161857108Y-120408922D01*
X161795105Y-120210756D01*
X161705884Y-120043832D01*
X161626292Y-119986432D01*
X164830860Y-119986432D01*
X164830860Y-120068968D01*
X164846962Y-120149918D01*
X164878547Y-120226171D01*
X164924402Y-120294797D01*
X164982763Y-120353158D01*
X165051389Y-120399013D01*
X165127642Y-120430598D01*
X165208592Y-120446700D01*
X165291128Y-120446700D01*
X165372078Y-120430598D01*
X165448331Y-120399013D01*
X165516957Y-120353158D01*
X165575318Y-120294797D01*
X165621173Y-120226171D01*
X165652758Y-120149918D01*
X165668860Y-120068968D01*
X165668860Y-119986432D01*
X165652758Y-119905482D01*
X165621173Y-119829229D01*
X165575318Y-119760603D01*
X165516957Y-119702242D01*
X165448331Y-119656387D01*
X165372078Y-119624802D01*
X165291128Y-119608700D01*
X165208592Y-119608700D01*
X165127642Y-119624802D01*
X165051389Y-119656387D01*
X164982763Y-119702242D01*
X164924402Y-119760603D01*
X164878547Y-119829229D01*
X164846962Y-119905482D01*
X164830860Y-119986432D01*
X161626292Y-119986432D01*
X161570410Y-119946132D01*
X160891942Y-120624600D01*
X160748258Y-120624600D01*
X160069790Y-119946132D01*
X159934316Y-120043832D01*
X159838034Y-120227799D01*
X159779493Y-120427015D01*
X159760941Y-120633824D01*
X130715500Y-120633824D01*
X130715500Y-119658732D01*
X137981000Y-119658732D01*
X137981000Y-119741268D01*
X137997102Y-119822218D01*
X138028687Y-119898471D01*
X138074542Y-119967097D01*
X138132903Y-120025458D01*
X138201529Y-120071313D01*
X138277782Y-120102898D01*
X138358732Y-120119000D01*
X138441268Y-120119000D01*
X138522218Y-120102898D01*
X138598471Y-120071313D01*
X138667097Y-120025458D01*
X138725458Y-119967097D01*
X138771313Y-119898471D01*
X138802898Y-119822218D01*
X138819000Y-119741268D01*
X138819000Y-119658732D01*
X141381000Y-119658732D01*
X141381000Y-119741268D01*
X141397102Y-119822218D01*
X141428687Y-119898471D01*
X141474542Y-119967097D01*
X141532903Y-120025458D01*
X141601529Y-120071313D01*
X141677782Y-120102898D01*
X141758732Y-120119000D01*
X141841268Y-120119000D01*
X141922218Y-120102898D01*
X141998471Y-120071313D01*
X142067097Y-120025458D01*
X142125458Y-119967097D01*
X142171313Y-119898471D01*
X142202898Y-119822218D01*
X142219000Y-119741268D01*
X142219000Y-119658732D01*
X142209055Y-119608732D01*
X142781000Y-119608732D01*
X142781000Y-119691268D01*
X142797102Y-119772218D01*
X142828687Y-119848471D01*
X142874542Y-119917097D01*
X142932903Y-119975458D01*
X143001529Y-120021313D01*
X143077782Y-120052898D01*
X143158732Y-120069000D01*
X143241268Y-120069000D01*
X143322218Y-120052898D01*
X143398471Y-120021313D01*
X143467097Y-119975458D01*
X143525458Y-119917097D01*
X143571313Y-119848471D01*
X143602898Y-119772218D01*
X143619000Y-119691268D01*
X143619000Y-119658732D01*
X144531000Y-119658732D01*
X144531000Y-119741268D01*
X144547102Y-119822218D01*
X144578687Y-119898471D01*
X144624542Y-119967097D01*
X144682903Y-120025458D01*
X144751529Y-120071313D01*
X144827782Y-120102898D01*
X144908732Y-120119000D01*
X144991268Y-120119000D01*
X145072218Y-120102898D01*
X145148471Y-120071313D01*
X145217097Y-120025458D01*
X145275458Y-119967097D01*
X145321313Y-119898471D01*
X145331329Y-119874290D01*
X160141632Y-119874290D01*
X160820100Y-120552758D01*
X161498568Y-119874290D01*
X161400868Y-119738816D01*
X161216901Y-119642534D01*
X161017685Y-119583993D01*
X160810876Y-119565441D01*
X160604422Y-119587592D01*
X160406256Y-119649595D01*
X160239332Y-119738816D01*
X160141632Y-119874290D01*
X145331329Y-119874290D01*
X145352898Y-119822218D01*
X145369000Y-119741268D01*
X145369000Y-119658732D01*
X145352898Y-119577782D01*
X145321313Y-119501529D01*
X145275458Y-119432903D01*
X145217097Y-119374542D01*
X145148471Y-119328687D01*
X145072218Y-119297102D01*
X144991268Y-119281000D01*
X144908732Y-119281000D01*
X144827782Y-119297102D01*
X144751529Y-119328687D01*
X144682903Y-119374542D01*
X144624542Y-119432903D01*
X144578687Y-119501529D01*
X144547102Y-119577782D01*
X144531000Y-119658732D01*
X143619000Y-119658732D01*
X143619000Y-119608732D01*
X143602898Y-119527782D01*
X143571313Y-119451529D01*
X143525458Y-119382903D01*
X143467097Y-119324542D01*
X143398471Y-119278687D01*
X143322218Y-119247102D01*
X143241268Y-119231000D01*
X143158732Y-119231000D01*
X143077782Y-119247102D01*
X143001529Y-119278687D01*
X142932903Y-119324542D01*
X142874542Y-119382903D01*
X142828687Y-119451529D01*
X142797102Y-119527782D01*
X142781000Y-119608732D01*
X142209055Y-119608732D01*
X142202898Y-119577782D01*
X142171313Y-119501529D01*
X142125458Y-119432903D01*
X142067097Y-119374542D01*
X141998471Y-119328687D01*
X141922218Y-119297102D01*
X141841268Y-119281000D01*
X141758732Y-119281000D01*
X141677782Y-119297102D01*
X141601529Y-119328687D01*
X141532903Y-119374542D01*
X141474542Y-119432903D01*
X141428687Y-119501529D01*
X141397102Y-119577782D01*
X141381000Y-119658732D01*
X138819000Y-119658732D01*
X138802898Y-119577782D01*
X138771313Y-119501529D01*
X138725458Y-119432903D01*
X138667097Y-119374542D01*
X138598471Y-119328687D01*
X138522218Y-119297102D01*
X138441268Y-119281000D01*
X138358732Y-119281000D01*
X138277782Y-119297102D01*
X138201529Y-119328687D01*
X138132903Y-119374542D01*
X138074542Y-119432903D01*
X138028687Y-119501529D01*
X137997102Y-119577782D01*
X137981000Y-119658732D01*
X130715500Y-119658732D01*
X130715500Y-119026312D01*
X133522820Y-119026312D01*
X133522820Y-119108848D01*
X133538922Y-119189798D01*
X133570507Y-119266051D01*
X133616362Y-119334677D01*
X133674723Y-119393038D01*
X133743349Y-119438893D01*
X133819602Y-119470478D01*
X133900552Y-119486580D01*
X133983088Y-119486580D01*
X134064038Y-119470478D01*
X134140291Y-119438893D01*
X134208917Y-119393038D01*
X134267278Y-119334677D01*
X134313133Y-119266051D01*
X134344718Y-119189798D01*
X134360820Y-119108848D01*
X134360820Y-119026312D01*
X134344718Y-118945362D01*
X134313133Y-118869109D01*
X134267278Y-118800483D01*
X134208917Y-118742122D01*
X134140291Y-118696267D01*
X134064038Y-118664682D01*
X133983088Y-118648580D01*
X133900552Y-118648580D01*
X133819602Y-118664682D01*
X133743349Y-118696267D01*
X133674723Y-118742122D01*
X133616362Y-118800483D01*
X133570507Y-118869109D01*
X133538922Y-118945362D01*
X133522820Y-119026312D01*
X130715500Y-119026312D01*
X130715500Y-118627532D01*
X135239860Y-118627532D01*
X135239860Y-118710068D01*
X135255962Y-118791018D01*
X135287547Y-118867271D01*
X135333402Y-118935897D01*
X135391763Y-118994258D01*
X135460389Y-119040113D01*
X135536642Y-119071698D01*
X135617592Y-119087800D01*
X135700128Y-119087800D01*
X135781078Y-119071698D01*
X135857331Y-119040113D01*
X135925957Y-118994258D01*
X135984318Y-118935897D01*
X136030173Y-118867271D01*
X136061758Y-118791018D01*
X136077860Y-118710068D01*
X136077860Y-118627532D01*
X136061758Y-118546582D01*
X136030173Y-118470329D01*
X135989015Y-118408732D01*
X141331000Y-118408732D01*
X141331000Y-118491268D01*
X141347102Y-118572218D01*
X141378687Y-118648471D01*
X141424542Y-118717097D01*
X141482903Y-118775458D01*
X141551529Y-118821313D01*
X141627782Y-118852898D01*
X141708732Y-118869000D01*
X141791268Y-118869000D01*
X141872218Y-118852898D01*
X141948471Y-118821313D01*
X142017097Y-118775458D01*
X142075458Y-118717097D01*
X142121313Y-118648471D01*
X142152898Y-118572218D01*
X142158568Y-118543712D01*
X154698800Y-118543712D01*
X154698800Y-118626248D01*
X154714902Y-118707198D01*
X154746487Y-118783451D01*
X154792342Y-118852077D01*
X154850703Y-118910438D01*
X154919329Y-118956293D01*
X154995582Y-118987878D01*
X155076532Y-119003980D01*
X155159068Y-119003980D01*
X155240018Y-118987878D01*
X155316271Y-118956293D01*
X155384897Y-118910438D01*
X155443258Y-118852077D01*
X155489113Y-118783451D01*
X155520698Y-118707198D01*
X155536800Y-118626248D01*
X155536800Y-118543712D01*
X155520698Y-118462762D01*
X155489113Y-118386509D01*
X155443258Y-118317883D01*
X155384897Y-118259522D01*
X155316271Y-118213667D01*
X155240018Y-118182082D01*
X155159068Y-118165980D01*
X155076532Y-118165980D01*
X154995582Y-118182082D01*
X154919329Y-118213667D01*
X154850703Y-118259522D01*
X154792342Y-118317883D01*
X154746487Y-118386509D01*
X154714902Y-118462762D01*
X154698800Y-118543712D01*
X142158568Y-118543712D01*
X142169000Y-118491268D01*
X142169000Y-118408732D01*
X142152898Y-118327782D01*
X142121313Y-118251529D01*
X142075458Y-118182903D01*
X142051287Y-118158732D01*
X156831000Y-118158732D01*
X156831000Y-118241268D01*
X156847102Y-118322218D01*
X156878687Y-118398471D01*
X156924542Y-118467097D01*
X156982903Y-118525458D01*
X157051529Y-118571313D01*
X157127782Y-118602898D01*
X157208732Y-118619000D01*
X157291268Y-118619000D01*
X157372218Y-118602898D01*
X157448471Y-118571313D01*
X157453325Y-118568069D01*
X157459470Y-118598960D01*
X157493935Y-118682165D01*
X157543970Y-118757048D01*
X157607652Y-118820730D01*
X157682535Y-118870765D01*
X157765740Y-118905230D01*
X157854070Y-118922800D01*
X157944130Y-118922800D01*
X158032460Y-118905230D01*
X158115665Y-118870765D01*
X158190548Y-118820730D01*
X158254230Y-118757048D01*
X158304265Y-118682165D01*
X158338730Y-118598960D01*
X158356300Y-118510630D01*
X158356300Y-118420570D01*
X158338730Y-118332240D01*
X158304265Y-118249035D01*
X158254230Y-118174152D01*
X158190548Y-118110470D01*
X158115665Y-118060435D01*
X158032460Y-118025970D01*
X157944130Y-118008400D01*
X157854070Y-118008400D01*
X157765740Y-118025970D01*
X157682535Y-118060435D01*
X157653329Y-118079950D01*
X157652898Y-118077782D01*
X157621313Y-118001529D01*
X157607449Y-117980780D01*
X159766000Y-117980780D01*
X159766000Y-118188420D01*
X159806509Y-118392070D01*
X159885969Y-118583903D01*
X160001327Y-118756549D01*
X160148151Y-118903373D01*
X160320797Y-119018731D01*
X160512630Y-119098191D01*
X160716280Y-119138700D01*
X160923920Y-119138700D01*
X161127570Y-119098191D01*
X161319403Y-119018731D01*
X161492049Y-118903373D01*
X161638873Y-118756549D01*
X161754231Y-118583903D01*
X161833691Y-118392070D01*
X161874200Y-118188420D01*
X161874200Y-117980780D01*
X161833691Y-117777130D01*
X161754231Y-117585297D01*
X161638873Y-117412651D01*
X161492049Y-117265827D01*
X161319403Y-117150469D01*
X161127570Y-117071009D01*
X160923920Y-117030500D01*
X160716280Y-117030500D01*
X160512630Y-117071009D01*
X160320797Y-117150469D01*
X160148151Y-117265827D01*
X160001327Y-117412651D01*
X159885969Y-117585297D01*
X159806509Y-117777130D01*
X159766000Y-117980780D01*
X157607449Y-117980780D01*
X157575458Y-117932903D01*
X157517097Y-117874542D01*
X157448471Y-117828687D01*
X157372218Y-117797102D01*
X157291268Y-117781000D01*
X157208732Y-117781000D01*
X157127782Y-117797102D01*
X157051529Y-117828687D01*
X156982903Y-117874542D01*
X156924542Y-117932903D01*
X156878687Y-118001529D01*
X156847102Y-118077782D01*
X156831000Y-118158732D01*
X142051287Y-118158732D01*
X142017097Y-118124542D01*
X141948471Y-118078687D01*
X141872218Y-118047102D01*
X141791268Y-118031000D01*
X141708732Y-118031000D01*
X141627782Y-118047102D01*
X141551529Y-118078687D01*
X141482903Y-118124542D01*
X141424542Y-118182903D01*
X141378687Y-118251529D01*
X141347102Y-118327782D01*
X141331000Y-118408732D01*
X135989015Y-118408732D01*
X135984318Y-118401703D01*
X135925957Y-118343342D01*
X135857331Y-118297487D01*
X135781078Y-118265902D01*
X135700128Y-118249800D01*
X135617592Y-118249800D01*
X135536642Y-118265902D01*
X135460389Y-118297487D01*
X135391763Y-118343342D01*
X135333402Y-118401703D01*
X135287547Y-118470329D01*
X135255962Y-118546582D01*
X135239860Y-118627532D01*
X130715500Y-118627532D01*
X130715500Y-116958732D01*
X142781000Y-116958732D01*
X142781000Y-117041268D01*
X142797102Y-117122218D01*
X142828687Y-117198471D01*
X142874542Y-117267097D01*
X142932903Y-117325458D01*
X143001529Y-117371313D01*
X143077782Y-117402898D01*
X143158732Y-117419000D01*
X143241268Y-117419000D01*
X143322218Y-117402898D01*
X143398471Y-117371313D01*
X143467097Y-117325458D01*
X143525458Y-117267097D01*
X143571313Y-117198471D01*
X143602898Y-117122218D01*
X143614211Y-117065342D01*
X157065823Y-117065342D01*
X157065823Y-117147878D01*
X157081925Y-117228828D01*
X157113510Y-117305081D01*
X157159365Y-117373707D01*
X157217726Y-117432068D01*
X157286352Y-117477923D01*
X157362605Y-117509508D01*
X157443555Y-117525610D01*
X157526091Y-117525610D01*
X157607041Y-117509508D01*
X157683294Y-117477923D01*
X157751920Y-117432068D01*
X157810281Y-117373707D01*
X157856136Y-117305081D01*
X157887721Y-117228828D01*
X157903823Y-117147878D01*
X157903823Y-117065342D01*
X157887721Y-116984392D01*
X157856136Y-116908139D01*
X157810281Y-116839513D01*
X157794900Y-116824132D01*
X159098080Y-116824132D01*
X159098080Y-116906668D01*
X159114182Y-116987618D01*
X159145767Y-117063871D01*
X159191622Y-117132497D01*
X159249983Y-117190858D01*
X159318609Y-117236713D01*
X159394862Y-117268298D01*
X159475812Y-117284400D01*
X159558348Y-117284400D01*
X159639298Y-117268298D01*
X159715551Y-117236713D01*
X159784177Y-117190858D01*
X159842538Y-117132497D01*
X159888393Y-117063871D01*
X159919978Y-116987618D01*
X159936080Y-116906668D01*
X159936080Y-116824132D01*
X159934060Y-116813972D01*
X163700560Y-116813972D01*
X163700560Y-116896508D01*
X163716662Y-116977458D01*
X163748247Y-117053711D01*
X163794102Y-117122337D01*
X163852463Y-117180698D01*
X163921089Y-117226553D01*
X163997342Y-117258138D01*
X164078292Y-117274240D01*
X164160828Y-117274240D01*
X164241778Y-117258138D01*
X164318031Y-117226553D01*
X164386657Y-117180698D01*
X164445018Y-117122337D01*
X164490873Y-117053711D01*
X164522458Y-116977458D01*
X164538560Y-116896508D01*
X164538560Y-116813972D01*
X164522458Y-116733022D01*
X164490873Y-116656769D01*
X164445018Y-116588143D01*
X164386657Y-116529782D01*
X164318031Y-116483927D01*
X164241778Y-116452342D01*
X164160828Y-116436240D01*
X164078292Y-116436240D01*
X163997342Y-116452342D01*
X163921089Y-116483927D01*
X163852463Y-116529782D01*
X163794102Y-116588143D01*
X163748247Y-116656769D01*
X163716662Y-116733022D01*
X163700560Y-116813972D01*
X159934060Y-116813972D01*
X159919978Y-116743182D01*
X159888393Y-116666929D01*
X159842538Y-116598303D01*
X159784177Y-116539942D01*
X159715551Y-116494087D01*
X159639298Y-116462502D01*
X159558348Y-116446400D01*
X159475812Y-116446400D01*
X159394862Y-116462502D01*
X159318609Y-116494087D01*
X159249983Y-116539942D01*
X159191622Y-116598303D01*
X159145767Y-116666929D01*
X159114182Y-116743182D01*
X159098080Y-116824132D01*
X157794900Y-116824132D01*
X157751920Y-116781152D01*
X157683294Y-116735297D01*
X157607041Y-116703712D01*
X157526091Y-116687610D01*
X157443555Y-116687610D01*
X157362605Y-116703712D01*
X157286352Y-116735297D01*
X157217726Y-116781152D01*
X157159365Y-116839513D01*
X157113510Y-116908139D01*
X157081925Y-116984392D01*
X157065823Y-117065342D01*
X143614211Y-117065342D01*
X143619000Y-117041268D01*
X143619000Y-116958732D01*
X143602898Y-116877782D01*
X143571313Y-116801529D01*
X143525458Y-116732903D01*
X143467097Y-116674542D01*
X143398471Y-116628687D01*
X143322218Y-116597102D01*
X143241268Y-116581000D01*
X143158732Y-116581000D01*
X143077782Y-116597102D01*
X143001529Y-116628687D01*
X142932903Y-116674542D01*
X142874542Y-116732903D01*
X142828687Y-116801529D01*
X142797102Y-116877782D01*
X142781000Y-116958732D01*
X130715500Y-116958732D01*
X130715500Y-115889617D01*
X149646800Y-115889617D01*
X149646800Y-115987183D01*
X149665834Y-116082874D01*
X149703170Y-116173013D01*
X149757375Y-116254136D01*
X149826364Y-116323125D01*
X149907487Y-116377330D01*
X149997626Y-116414666D01*
X150093317Y-116433700D01*
X150190883Y-116433700D01*
X150286574Y-116414666D01*
X150376713Y-116377330D01*
X150457836Y-116323125D01*
X150526825Y-116254136D01*
X150581030Y-116173013D01*
X150618366Y-116082874D01*
X150627544Y-116036732D01*
X154902000Y-116036732D01*
X154902000Y-116119268D01*
X154918102Y-116200218D01*
X154949687Y-116276471D01*
X154995542Y-116345097D01*
X155053903Y-116403458D01*
X155122529Y-116449313D01*
X155198782Y-116480898D01*
X155279732Y-116497000D01*
X155362268Y-116497000D01*
X155443218Y-116480898D01*
X155519471Y-116449313D01*
X155588097Y-116403458D01*
X155646458Y-116345097D01*
X155692313Y-116276471D01*
X155723898Y-116200218D01*
X155740000Y-116119268D01*
X155740000Y-116036732D01*
X155723898Y-115955782D01*
X155712267Y-115927701D01*
X156646813Y-115927701D01*
X156646813Y-116010237D01*
X156662915Y-116091187D01*
X156694500Y-116167440D01*
X156740355Y-116236066D01*
X156798716Y-116294427D01*
X156867342Y-116340282D01*
X156943595Y-116371867D01*
X157024545Y-116387969D01*
X157107081Y-116387969D01*
X157188031Y-116371867D01*
X157264284Y-116340282D01*
X157332910Y-116294427D01*
X157391271Y-116236066D01*
X157437126Y-116167440D01*
X157468711Y-116091187D01*
X157484813Y-116010237D01*
X157484813Y-115927701D01*
X157468711Y-115846751D01*
X157437126Y-115770498D01*
X157391271Y-115701872D01*
X157332910Y-115643511D01*
X157264284Y-115597656D01*
X157188031Y-115566071D01*
X157107081Y-115549969D01*
X157024545Y-115549969D01*
X156943595Y-115566071D01*
X156867342Y-115597656D01*
X156798716Y-115643511D01*
X156740355Y-115701872D01*
X156694500Y-115770498D01*
X156662915Y-115846751D01*
X156646813Y-115927701D01*
X155712267Y-115927701D01*
X155692313Y-115879529D01*
X155646458Y-115810903D01*
X155588097Y-115752542D01*
X155519471Y-115706687D01*
X155443218Y-115675102D01*
X155362268Y-115659000D01*
X155279732Y-115659000D01*
X155198782Y-115675102D01*
X155122529Y-115706687D01*
X155053903Y-115752542D01*
X154995542Y-115810903D01*
X154949687Y-115879529D01*
X154918102Y-115955782D01*
X154902000Y-116036732D01*
X150627544Y-116036732D01*
X150637400Y-115987183D01*
X150637400Y-115889617D01*
X150618366Y-115793926D01*
X150581030Y-115703787D01*
X150526825Y-115622664D01*
X150457836Y-115553675D01*
X150376713Y-115499470D01*
X150286574Y-115462134D01*
X150190883Y-115443100D01*
X150093317Y-115443100D01*
X149997626Y-115462134D01*
X149907487Y-115499470D01*
X149826364Y-115553675D01*
X149757375Y-115622664D01*
X149703170Y-115703787D01*
X149665834Y-115793926D01*
X149646800Y-115889617D01*
X130715500Y-115889617D01*
X130715500Y-115139295D01*
X154478921Y-115139295D01*
X154478921Y-115221831D01*
X154495023Y-115302781D01*
X154526608Y-115379034D01*
X154572463Y-115447660D01*
X154630824Y-115506021D01*
X154699450Y-115551876D01*
X154775703Y-115583461D01*
X154856653Y-115599563D01*
X154939189Y-115599563D01*
X155020139Y-115583461D01*
X155096392Y-115551876D01*
X155165018Y-115506021D01*
X155223379Y-115447660D01*
X155227976Y-115440780D01*
X159766000Y-115440780D01*
X159766000Y-115648420D01*
X159806509Y-115852070D01*
X159885969Y-116043903D01*
X160001327Y-116216549D01*
X160148151Y-116363373D01*
X160320797Y-116478731D01*
X160512630Y-116558191D01*
X160716280Y-116598700D01*
X160923920Y-116598700D01*
X161127570Y-116558191D01*
X161319403Y-116478731D01*
X161492049Y-116363373D01*
X161638873Y-116216549D01*
X161754231Y-116043903D01*
X161833691Y-115852070D01*
X161874200Y-115648420D01*
X161874200Y-115440780D01*
X161833691Y-115237130D01*
X161754231Y-115045297D01*
X161638873Y-114872651D01*
X161492049Y-114725827D01*
X161319403Y-114610469D01*
X161127570Y-114531009D01*
X160923920Y-114490500D01*
X160716280Y-114490500D01*
X160512630Y-114531009D01*
X160320797Y-114610469D01*
X160148151Y-114725827D01*
X160001327Y-114872651D01*
X159885969Y-115045297D01*
X159806509Y-115237130D01*
X159766000Y-115440780D01*
X155227976Y-115440780D01*
X155269234Y-115379034D01*
X155300819Y-115302781D01*
X155316921Y-115221831D01*
X155316921Y-115139295D01*
X155300819Y-115058345D01*
X155269234Y-114982092D01*
X155223379Y-114913466D01*
X155165018Y-114855105D01*
X155096392Y-114809250D01*
X155020139Y-114777665D01*
X154939189Y-114761563D01*
X154856653Y-114761563D01*
X154775703Y-114777665D01*
X154699450Y-114809250D01*
X154630824Y-114855105D01*
X154572463Y-114913466D01*
X154526608Y-114982092D01*
X154495023Y-115058345D01*
X154478921Y-115139295D01*
X130715500Y-115139295D01*
X130715500Y-114040292D01*
X142105480Y-114040292D01*
X142105480Y-114122828D01*
X142121582Y-114203778D01*
X142153167Y-114280031D01*
X142199022Y-114348657D01*
X142257383Y-114407018D01*
X142326009Y-114452873D01*
X142402262Y-114484458D01*
X142483212Y-114500560D01*
X142565748Y-114500560D01*
X142646698Y-114484458D01*
X142708806Y-114458732D01*
X143681000Y-114458732D01*
X143681000Y-114541268D01*
X143697102Y-114622218D01*
X143728687Y-114698471D01*
X143774542Y-114767097D01*
X143832903Y-114825458D01*
X143901529Y-114871313D01*
X143977782Y-114902898D01*
X144058732Y-114919000D01*
X144141268Y-114919000D01*
X144222218Y-114902898D01*
X144298471Y-114871313D01*
X144367097Y-114825458D01*
X144425458Y-114767097D01*
X144471313Y-114698471D01*
X144502898Y-114622218D01*
X144519000Y-114541268D01*
X144519000Y-114458732D01*
X144502898Y-114377782D01*
X144471313Y-114301529D01*
X144425458Y-114232903D01*
X144367097Y-114174542D01*
X144298471Y-114128687D01*
X144222218Y-114097102D01*
X144141268Y-114081000D01*
X144058732Y-114081000D01*
X143977782Y-114097102D01*
X143901529Y-114128687D01*
X143832903Y-114174542D01*
X143774542Y-114232903D01*
X143728687Y-114301529D01*
X143697102Y-114377782D01*
X143681000Y-114458732D01*
X142708806Y-114458732D01*
X142722951Y-114452873D01*
X142791577Y-114407018D01*
X142849938Y-114348657D01*
X142895793Y-114280031D01*
X142927378Y-114203778D01*
X142943480Y-114122828D01*
X142943480Y-114040292D01*
X142937201Y-114008722D01*
X144480900Y-114008722D01*
X144480900Y-114091278D01*
X144497006Y-114172247D01*
X144528598Y-114248518D01*
X144574464Y-114317161D01*
X144632839Y-114375536D01*
X144701482Y-114421402D01*
X144777753Y-114452994D01*
X144858722Y-114469100D01*
X144941278Y-114469100D01*
X145022247Y-114452994D01*
X145098518Y-114421402D01*
X145167161Y-114375536D01*
X145225536Y-114317161D01*
X145271402Y-114248518D01*
X145302994Y-114172247D01*
X145319100Y-114091278D01*
X145319100Y-114008722D01*
X145302994Y-113927753D01*
X145271402Y-113851482D01*
X145257130Y-113830122D01*
X146452000Y-113830122D01*
X146452000Y-113912678D01*
X146468106Y-113993647D01*
X146499698Y-114069918D01*
X146545564Y-114138561D01*
X146603939Y-114196936D01*
X146672582Y-114242802D01*
X146748853Y-114274394D01*
X146829822Y-114290500D01*
X146912378Y-114290500D01*
X146993347Y-114274394D01*
X147069618Y-114242802D01*
X147138261Y-114196936D01*
X147196636Y-114138561D01*
X147242502Y-114069918D01*
X147271100Y-114000875D01*
X147299698Y-114069918D01*
X147345564Y-114138561D01*
X147403939Y-114196936D01*
X147472582Y-114242802D01*
X147548853Y-114274394D01*
X147629822Y-114290500D01*
X147712378Y-114290500D01*
X147793347Y-114274394D01*
X147869618Y-114242802D01*
X147938261Y-114196936D01*
X147996636Y-114138561D01*
X148042502Y-114069918D01*
X148074094Y-113993647D01*
X148090200Y-113912678D01*
X148090200Y-113830122D01*
X148074094Y-113749153D01*
X148042502Y-113672882D01*
X147996636Y-113604239D01*
X147938261Y-113545864D01*
X147869618Y-113499998D01*
X147793347Y-113468406D01*
X147712378Y-113452300D01*
X147629822Y-113452300D01*
X147548853Y-113468406D01*
X147472582Y-113499998D01*
X147403939Y-113545864D01*
X147345564Y-113604239D01*
X147299698Y-113672882D01*
X147271100Y-113741925D01*
X147242502Y-113672882D01*
X147196636Y-113604239D01*
X147138261Y-113545864D01*
X147069618Y-113499998D01*
X146993347Y-113468406D01*
X146912378Y-113452300D01*
X146829822Y-113452300D01*
X146748853Y-113468406D01*
X146672582Y-113499998D01*
X146603939Y-113545864D01*
X146545564Y-113604239D01*
X146499698Y-113672882D01*
X146468106Y-113749153D01*
X146452000Y-113830122D01*
X145257130Y-113830122D01*
X145225536Y-113782839D01*
X145167161Y-113724464D01*
X145098518Y-113678598D01*
X145022247Y-113647006D01*
X144941278Y-113630900D01*
X144858722Y-113630900D01*
X144777753Y-113647006D01*
X144701482Y-113678598D01*
X144632839Y-113724464D01*
X144574464Y-113782839D01*
X144528598Y-113851482D01*
X144497006Y-113927753D01*
X144480900Y-114008722D01*
X142937201Y-114008722D01*
X142927378Y-113959342D01*
X142895793Y-113883089D01*
X142849938Y-113814463D01*
X142791577Y-113756102D01*
X142722951Y-113710247D01*
X142646698Y-113678662D01*
X142565748Y-113662560D01*
X142483212Y-113662560D01*
X142402262Y-113678662D01*
X142326009Y-113710247D01*
X142257383Y-113756102D01*
X142199022Y-113814463D01*
X142153167Y-113883089D01*
X142121582Y-113959342D01*
X142105480Y-114040292D01*
X130715500Y-114040292D01*
X130715500Y-112308732D01*
X139031000Y-112308732D01*
X139031000Y-112391268D01*
X139047102Y-112472218D01*
X139078687Y-112548471D01*
X139124542Y-112617097D01*
X139182903Y-112675458D01*
X139251529Y-112721313D01*
X139320074Y-112749705D01*
X139282903Y-112774542D01*
X139224542Y-112832903D01*
X139178687Y-112901529D01*
X139147102Y-112977782D01*
X139131000Y-113058732D01*
X139131000Y-113141268D01*
X139147102Y-113222218D01*
X139178687Y-113298471D01*
X139224542Y-113367097D01*
X139282903Y-113425458D01*
X139351529Y-113471313D01*
X139427782Y-113502898D01*
X139508732Y-113519000D01*
X139591268Y-113519000D01*
X139672218Y-113502898D01*
X139748471Y-113471313D01*
X139817097Y-113425458D01*
X139875458Y-113367097D01*
X139921313Y-113298471D01*
X139952898Y-113222218D01*
X139965526Y-113158732D01*
X143131000Y-113158732D01*
X143131000Y-113241268D01*
X143147102Y-113322218D01*
X143178687Y-113398471D01*
X143224542Y-113467097D01*
X143282903Y-113525458D01*
X143351529Y-113571313D01*
X143427782Y-113602898D01*
X143508732Y-113619000D01*
X143591268Y-113619000D01*
X143672218Y-113602898D01*
X143748471Y-113571313D01*
X143817097Y-113525458D01*
X143875458Y-113467097D01*
X143921313Y-113398471D01*
X143952898Y-113322218D01*
X143969000Y-113241268D01*
X143969000Y-113158732D01*
X143952898Y-113077782D01*
X143921313Y-113001529D01*
X143875458Y-112932903D01*
X143843335Y-112900780D01*
X159766000Y-112900780D01*
X159766000Y-113108420D01*
X159806509Y-113312070D01*
X159885969Y-113503903D01*
X160001327Y-113676549D01*
X160148151Y-113823373D01*
X160320797Y-113938731D01*
X160512630Y-114018191D01*
X160716280Y-114058700D01*
X160923920Y-114058700D01*
X161127570Y-114018191D01*
X161319403Y-113938731D01*
X161492049Y-113823373D01*
X161638873Y-113676549D01*
X161754231Y-113503903D01*
X161833691Y-113312070D01*
X161874200Y-113108420D01*
X161874200Y-112900780D01*
X161833691Y-112697130D01*
X161754231Y-112505297D01*
X161638873Y-112332651D01*
X161492049Y-112185827D01*
X161319403Y-112070469D01*
X161127570Y-111991009D01*
X160923920Y-111950500D01*
X160716280Y-111950500D01*
X160512630Y-111991009D01*
X160320797Y-112070469D01*
X160148151Y-112185827D01*
X160001327Y-112332651D01*
X159885969Y-112505297D01*
X159806509Y-112697130D01*
X159766000Y-112900780D01*
X143843335Y-112900780D01*
X143817097Y-112874542D01*
X143748471Y-112828687D01*
X143672218Y-112797102D01*
X143591268Y-112781000D01*
X143508732Y-112781000D01*
X143427782Y-112797102D01*
X143351529Y-112828687D01*
X143282903Y-112874542D01*
X143224542Y-112932903D01*
X143178687Y-113001529D01*
X143147102Y-113077782D01*
X143131000Y-113158732D01*
X139965526Y-113158732D01*
X139969000Y-113141268D01*
X139969000Y-113058732D01*
X139952898Y-112977782D01*
X139921313Y-112901529D01*
X139875458Y-112832903D01*
X139817097Y-112774542D01*
X139748471Y-112728687D01*
X139679926Y-112700295D01*
X139717097Y-112675458D01*
X139775458Y-112617097D01*
X139821313Y-112548471D01*
X139852898Y-112472218D01*
X139869000Y-112391268D01*
X139869000Y-112308732D01*
X139859055Y-112258732D01*
X143131000Y-112258732D01*
X143131000Y-112341268D01*
X143147102Y-112422218D01*
X143178687Y-112498471D01*
X143224542Y-112567097D01*
X143282903Y-112625458D01*
X143351529Y-112671313D01*
X143427782Y-112702898D01*
X143508732Y-112719000D01*
X143591268Y-112719000D01*
X143672218Y-112702898D01*
X143748471Y-112671313D01*
X143817097Y-112625458D01*
X143875458Y-112567097D01*
X143921313Y-112498471D01*
X143952898Y-112422218D01*
X143969000Y-112341268D01*
X143969000Y-112258732D01*
X144226889Y-112258732D01*
X144226889Y-112341268D01*
X144242991Y-112422218D01*
X144274576Y-112498471D01*
X144320431Y-112567097D01*
X144378792Y-112625458D01*
X144447418Y-112671313D01*
X144523671Y-112702898D01*
X144604621Y-112719000D01*
X144687157Y-112719000D01*
X144768107Y-112702898D01*
X144844360Y-112671313D01*
X144912986Y-112625458D01*
X144971347Y-112567097D01*
X145017202Y-112498471D01*
X145048787Y-112422218D01*
X145064889Y-112341268D01*
X145064889Y-112258732D01*
X145049231Y-112180010D01*
X145659722Y-112180010D01*
X145659722Y-112262546D01*
X145675824Y-112343496D01*
X145707409Y-112419749D01*
X145753264Y-112488375D01*
X145811625Y-112546736D01*
X145880251Y-112592591D01*
X145956504Y-112624176D01*
X146037454Y-112640278D01*
X146119990Y-112640278D01*
X146200940Y-112624176D01*
X146277193Y-112592591D01*
X146345819Y-112546736D01*
X146404180Y-112488375D01*
X146450035Y-112419749D01*
X146481620Y-112343496D01*
X146494225Y-112280122D01*
X147252000Y-112280122D01*
X147252000Y-112362678D01*
X147268106Y-112443647D01*
X147299698Y-112519918D01*
X147345564Y-112588561D01*
X147403939Y-112646936D01*
X147472582Y-112692802D01*
X147548853Y-112724394D01*
X147629822Y-112740500D01*
X147712378Y-112740500D01*
X147793347Y-112724394D01*
X147869618Y-112692802D01*
X147938261Y-112646936D01*
X147996636Y-112588561D01*
X148042502Y-112519918D01*
X148074094Y-112443647D01*
X148090200Y-112362678D01*
X148090200Y-112280122D01*
X148074094Y-112199153D01*
X148042502Y-112122882D01*
X147996636Y-112054239D01*
X147938261Y-111995864D01*
X147869618Y-111949998D01*
X147793347Y-111918406D01*
X147712378Y-111902300D01*
X147629822Y-111902300D01*
X147548853Y-111918406D01*
X147472582Y-111949998D01*
X147403939Y-111995864D01*
X147345564Y-112054239D01*
X147299698Y-112122882D01*
X147268106Y-112199153D01*
X147252000Y-112280122D01*
X146494225Y-112280122D01*
X146497722Y-112262546D01*
X146497722Y-112180010D01*
X146481620Y-112099060D01*
X146450035Y-112022807D01*
X146404180Y-111954181D01*
X146345819Y-111895820D01*
X146277193Y-111849965D01*
X146200940Y-111818380D01*
X146119990Y-111802278D01*
X146037454Y-111802278D01*
X145956504Y-111818380D01*
X145880251Y-111849965D01*
X145811625Y-111895820D01*
X145753264Y-111954181D01*
X145707409Y-112022807D01*
X145675824Y-112099060D01*
X145659722Y-112180010D01*
X145049231Y-112180010D01*
X145048787Y-112177782D01*
X145017202Y-112101529D01*
X144971347Y-112032903D01*
X144912986Y-111974542D01*
X144844360Y-111928687D01*
X144768107Y-111897102D01*
X144687157Y-111881000D01*
X144604621Y-111881000D01*
X144523671Y-111897102D01*
X144447418Y-111928687D01*
X144378792Y-111974542D01*
X144320431Y-112032903D01*
X144274576Y-112101529D01*
X144242991Y-112177782D01*
X144226889Y-112258732D01*
X143969000Y-112258732D01*
X143952898Y-112177782D01*
X143921313Y-112101529D01*
X143875458Y-112032903D01*
X143817097Y-111974542D01*
X143748471Y-111928687D01*
X143672218Y-111897102D01*
X143591268Y-111881000D01*
X143508732Y-111881000D01*
X143427782Y-111897102D01*
X143351529Y-111928687D01*
X143282903Y-111974542D01*
X143224542Y-112032903D01*
X143178687Y-112101529D01*
X143147102Y-112177782D01*
X143131000Y-112258732D01*
X139859055Y-112258732D01*
X139852898Y-112227782D01*
X139821313Y-112151529D01*
X139775458Y-112082903D01*
X139717097Y-112024542D01*
X139660792Y-111986920D01*
X139698471Y-111971313D01*
X139767097Y-111925458D01*
X139825458Y-111867097D01*
X139871313Y-111798471D01*
X139902898Y-111722218D01*
X139905580Y-111708732D01*
X144881000Y-111708732D01*
X144881000Y-111791268D01*
X144897102Y-111872218D01*
X144928687Y-111948471D01*
X144974542Y-112017097D01*
X145032903Y-112075458D01*
X145101529Y-112121313D01*
X145177782Y-112152898D01*
X145258732Y-112169000D01*
X145341268Y-112169000D01*
X145422218Y-112152898D01*
X145498471Y-112121313D01*
X145567097Y-112075458D01*
X145625458Y-112017097D01*
X145671313Y-111948471D01*
X145702898Y-111872218D01*
X145719000Y-111791268D01*
X145719000Y-111708732D01*
X145702898Y-111627782D01*
X145671313Y-111551529D01*
X145657010Y-111530122D01*
X148152000Y-111530122D01*
X148152000Y-111612678D01*
X148168106Y-111693647D01*
X148199698Y-111769918D01*
X148245564Y-111838561D01*
X148303939Y-111896936D01*
X148372582Y-111942802D01*
X148381268Y-111946400D01*
X148372582Y-111949998D01*
X148303939Y-111995864D01*
X148245564Y-112054239D01*
X148199698Y-112122882D01*
X148168106Y-112199153D01*
X148152000Y-112280122D01*
X148152000Y-112362678D01*
X148168106Y-112443647D01*
X148199698Y-112519918D01*
X148245564Y-112588561D01*
X148303939Y-112646936D01*
X148372582Y-112692802D01*
X148448853Y-112724394D01*
X148529822Y-112740500D01*
X148612378Y-112740500D01*
X148693347Y-112724394D01*
X148769618Y-112692802D01*
X148838261Y-112646936D01*
X148896636Y-112588561D01*
X148942502Y-112519918D01*
X148974094Y-112443647D01*
X148990200Y-112362678D01*
X148990200Y-112280122D01*
X148974094Y-112199153D01*
X148942502Y-112122882D01*
X148896636Y-112054239D01*
X148838261Y-111995864D01*
X148769618Y-111949998D01*
X148760932Y-111946400D01*
X148769618Y-111942802D01*
X148838261Y-111896936D01*
X148896636Y-111838561D01*
X148942502Y-111769918D01*
X148974094Y-111693647D01*
X148990200Y-111612678D01*
X148990200Y-111530122D01*
X148974094Y-111449153D01*
X148942502Y-111372882D01*
X148896636Y-111304239D01*
X148838261Y-111245864D01*
X148769618Y-111199998D01*
X148693347Y-111168406D01*
X148612378Y-111152300D01*
X148529822Y-111152300D01*
X148448853Y-111168406D01*
X148372582Y-111199998D01*
X148303939Y-111245864D01*
X148245564Y-111304239D01*
X148199698Y-111372882D01*
X148168106Y-111449153D01*
X148152000Y-111530122D01*
X145657010Y-111530122D01*
X145625458Y-111482903D01*
X145567097Y-111424542D01*
X145498471Y-111378687D01*
X145422218Y-111347102D01*
X145341268Y-111331000D01*
X145258732Y-111331000D01*
X145177782Y-111347102D01*
X145101529Y-111378687D01*
X145032903Y-111424542D01*
X144974542Y-111482903D01*
X144928687Y-111551529D01*
X144897102Y-111627782D01*
X144881000Y-111708732D01*
X139905580Y-111708732D01*
X139919000Y-111641268D01*
X139919000Y-111558732D01*
X139902898Y-111477782D01*
X139871313Y-111401529D01*
X139825458Y-111332903D01*
X139767097Y-111274542D01*
X139698471Y-111228687D01*
X139622218Y-111197102D01*
X139541268Y-111181000D01*
X139458732Y-111181000D01*
X139377782Y-111197102D01*
X139301529Y-111228687D01*
X139232903Y-111274542D01*
X139174542Y-111332903D01*
X139128687Y-111401529D01*
X139097102Y-111477782D01*
X139081000Y-111558732D01*
X139081000Y-111641268D01*
X139097102Y-111722218D01*
X139128687Y-111798471D01*
X139174542Y-111867097D01*
X139232903Y-111925458D01*
X139289208Y-111963080D01*
X139251529Y-111978687D01*
X139182903Y-112024542D01*
X139124542Y-112082903D01*
X139078687Y-112151529D01*
X139047102Y-112227782D01*
X139031000Y-112308732D01*
X130715500Y-112308732D01*
X130715500Y-110545252D01*
X142412820Y-110545252D01*
X142412820Y-110627788D01*
X142428922Y-110708738D01*
X142460507Y-110784991D01*
X142506362Y-110853617D01*
X142564723Y-110911978D01*
X142633349Y-110957833D01*
X142709602Y-110989418D01*
X142790552Y-111005520D01*
X142873088Y-111005520D01*
X142954038Y-110989418D01*
X143030291Y-110957833D01*
X143098917Y-110911978D01*
X143157278Y-110853617D01*
X143203133Y-110784991D01*
X143234718Y-110708738D01*
X143250820Y-110627788D01*
X143250820Y-110545252D01*
X143234718Y-110464302D01*
X143203133Y-110388049D01*
X143157278Y-110319423D01*
X143098917Y-110261062D01*
X143030291Y-110215207D01*
X142954038Y-110183622D01*
X142873088Y-110167520D01*
X142790552Y-110167520D01*
X142709602Y-110183622D01*
X142633349Y-110215207D01*
X142564723Y-110261062D01*
X142506362Y-110319423D01*
X142460507Y-110388049D01*
X142428922Y-110464302D01*
X142412820Y-110545252D01*
X130715500Y-110545252D01*
X130715500Y-109826432D01*
X139428320Y-109826432D01*
X139428320Y-109908968D01*
X139444422Y-109989918D01*
X139476007Y-110066171D01*
X139521862Y-110134797D01*
X139580223Y-110193158D01*
X139648849Y-110239013D01*
X139725102Y-110270598D01*
X139806052Y-110286700D01*
X139888588Y-110286700D01*
X139969538Y-110270598D01*
X140045791Y-110239013D01*
X140114417Y-110193158D01*
X140172778Y-110134797D01*
X140218633Y-110066171D01*
X140223209Y-110055122D01*
X143252000Y-110055122D01*
X143252000Y-110137678D01*
X143268106Y-110218647D01*
X143299698Y-110294918D01*
X143345564Y-110363561D01*
X143403939Y-110421936D01*
X143472582Y-110467802D01*
X143548853Y-110499394D01*
X143629822Y-110515500D01*
X143712378Y-110515500D01*
X143793347Y-110499394D01*
X143869618Y-110467802D01*
X143938261Y-110421936D01*
X143996636Y-110363561D01*
X144042502Y-110294918D01*
X144074094Y-110218647D01*
X144090200Y-110137678D01*
X144090200Y-110055122D01*
X144074094Y-109974153D01*
X144042502Y-109897882D01*
X143996636Y-109829239D01*
X143938261Y-109770864D01*
X143869618Y-109724998D01*
X143824692Y-109706389D01*
X154102501Y-109706389D01*
X154102501Y-109788925D01*
X154118603Y-109869875D01*
X154150188Y-109946128D01*
X154196043Y-110014754D01*
X154254404Y-110073115D01*
X154323030Y-110118970D01*
X154399283Y-110150555D01*
X154480233Y-110166657D01*
X154562769Y-110166657D01*
X154643719Y-110150555D01*
X154719972Y-110118970D01*
X154788598Y-110073115D01*
X154846959Y-110014754D01*
X154892814Y-109946128D01*
X154924399Y-109869875D01*
X154940501Y-109788925D01*
X154940501Y-109706389D01*
X154924399Y-109625439D01*
X154892814Y-109549186D01*
X154846959Y-109480560D01*
X154788598Y-109422199D01*
X154719972Y-109376344D01*
X154643719Y-109344759D01*
X154562769Y-109328657D01*
X154480233Y-109328657D01*
X154399283Y-109344759D01*
X154323030Y-109376344D01*
X154254404Y-109422199D01*
X154196043Y-109480560D01*
X154150188Y-109549186D01*
X154118603Y-109625439D01*
X154102501Y-109706389D01*
X143824692Y-109706389D01*
X143793347Y-109693406D01*
X143712378Y-109677300D01*
X143629822Y-109677300D01*
X143548853Y-109693406D01*
X143472582Y-109724998D01*
X143403939Y-109770864D01*
X143345564Y-109829239D01*
X143299698Y-109897882D01*
X143268106Y-109974153D01*
X143252000Y-110055122D01*
X140223209Y-110055122D01*
X140250218Y-109989918D01*
X140266320Y-109908968D01*
X140266320Y-109826432D01*
X140250218Y-109745482D01*
X140218633Y-109669229D01*
X140172778Y-109600603D01*
X140114417Y-109542242D01*
X140045791Y-109496387D01*
X139969538Y-109464802D01*
X139888588Y-109448700D01*
X139806052Y-109448700D01*
X139725102Y-109464802D01*
X139648849Y-109496387D01*
X139580223Y-109542242D01*
X139521862Y-109600603D01*
X139476007Y-109669229D01*
X139444422Y-109745482D01*
X139428320Y-109826432D01*
X130715500Y-109826432D01*
X130715500Y-109153322D01*
X156718000Y-109153322D01*
X156718000Y-109235878D01*
X156734106Y-109316847D01*
X156765698Y-109393118D01*
X156811564Y-109461761D01*
X156869939Y-109520136D01*
X156938582Y-109566002D01*
X156961754Y-109575600D01*
X156938582Y-109585198D01*
X156869939Y-109631064D01*
X156811564Y-109689439D01*
X156765698Y-109758082D01*
X156734106Y-109834353D01*
X156718000Y-109915322D01*
X156718000Y-109997878D01*
X156734106Y-110078847D01*
X156765698Y-110155118D01*
X156811564Y-110223761D01*
X156869939Y-110282136D01*
X156938582Y-110328002D01*
X157014853Y-110359594D01*
X157095822Y-110375700D01*
X157178378Y-110375700D01*
X157253384Y-110360780D01*
X159766000Y-110360780D01*
X159766000Y-110568420D01*
X159806509Y-110772070D01*
X159885969Y-110963903D01*
X160001327Y-111136549D01*
X160148151Y-111283373D01*
X160320797Y-111398731D01*
X160512630Y-111478191D01*
X160716280Y-111518700D01*
X160923920Y-111518700D01*
X161127570Y-111478191D01*
X161319403Y-111398731D01*
X161492049Y-111283373D01*
X161638873Y-111136549D01*
X161754231Y-110963903D01*
X161833691Y-110772070D01*
X161874200Y-110568420D01*
X161874200Y-110360780D01*
X161833691Y-110157130D01*
X161754231Y-109965297D01*
X161638873Y-109792651D01*
X161492049Y-109645827D01*
X161319403Y-109530469D01*
X161127570Y-109451009D01*
X160923920Y-109410500D01*
X160716280Y-109410500D01*
X160512630Y-109451009D01*
X160320797Y-109530469D01*
X160148151Y-109645827D01*
X160001327Y-109792651D01*
X159885969Y-109965297D01*
X159806509Y-110157130D01*
X159766000Y-110360780D01*
X157253384Y-110360780D01*
X157259347Y-110359594D01*
X157335618Y-110328002D01*
X157404261Y-110282136D01*
X157462636Y-110223761D01*
X157508502Y-110155118D01*
X157540094Y-110078847D01*
X157556200Y-109997878D01*
X157556200Y-109915322D01*
X157540094Y-109834353D01*
X157508502Y-109758082D01*
X157462636Y-109689439D01*
X157404261Y-109631064D01*
X157335618Y-109585198D01*
X157312446Y-109575600D01*
X157335618Y-109566002D01*
X157404261Y-109520136D01*
X157462636Y-109461761D01*
X157508502Y-109393118D01*
X157540094Y-109316847D01*
X157556200Y-109235878D01*
X157556200Y-109153322D01*
X157540094Y-109072353D01*
X157508502Y-108996082D01*
X157462636Y-108927439D01*
X157404261Y-108869064D01*
X157335618Y-108823198D01*
X157259347Y-108791606D01*
X157178378Y-108775500D01*
X157095822Y-108775500D01*
X157014853Y-108791606D01*
X156938582Y-108823198D01*
X156869939Y-108869064D01*
X156811564Y-108927439D01*
X156765698Y-108996082D01*
X156734106Y-109072353D01*
X156718000Y-109153322D01*
X130715500Y-109153322D01*
X130715500Y-108200832D01*
X139430860Y-108200832D01*
X139430860Y-108283368D01*
X139446962Y-108364318D01*
X139478547Y-108440571D01*
X139524402Y-108509197D01*
X139582763Y-108567558D01*
X139651389Y-108613413D01*
X139727642Y-108644998D01*
X139808592Y-108661100D01*
X139891128Y-108661100D01*
X139972078Y-108644998D01*
X140048331Y-108613413D01*
X140055336Y-108608732D01*
X142812000Y-108608732D01*
X142812000Y-108691268D01*
X142828102Y-108772218D01*
X142859687Y-108848471D01*
X142905542Y-108917097D01*
X142963903Y-108975458D01*
X143032529Y-109021313D01*
X143108782Y-109052898D01*
X143189732Y-109069000D01*
X143272268Y-109069000D01*
X143353218Y-109052898D01*
X143429471Y-109021313D01*
X143498097Y-108975458D01*
X143556458Y-108917097D01*
X143602313Y-108848471D01*
X143633898Y-108772218D01*
X143650000Y-108691268D01*
X143650000Y-108608732D01*
X143633898Y-108527782D01*
X143602313Y-108451529D01*
X143556458Y-108382903D01*
X143498097Y-108324542D01*
X143429471Y-108278687D01*
X143381272Y-108258722D01*
X148530900Y-108258722D01*
X148530900Y-108341278D01*
X148547006Y-108422247D01*
X148578598Y-108498518D01*
X148624464Y-108567161D01*
X148682839Y-108625536D01*
X148751482Y-108671402D01*
X148827753Y-108702994D01*
X148908722Y-108719100D01*
X148991278Y-108719100D01*
X149072247Y-108702994D01*
X149148518Y-108671402D01*
X149217161Y-108625536D01*
X149275536Y-108567161D01*
X149321402Y-108498518D01*
X149352994Y-108422247D01*
X149369100Y-108341278D01*
X149369100Y-108258722D01*
X149352994Y-108177753D01*
X149344669Y-108157652D01*
X150629720Y-108157652D01*
X150629720Y-108240188D01*
X150645822Y-108321138D01*
X150677407Y-108397391D01*
X150723262Y-108466017D01*
X150781623Y-108524378D01*
X150850249Y-108570233D01*
X150926502Y-108601818D01*
X151007452Y-108617920D01*
X151089988Y-108617920D01*
X151170938Y-108601818D01*
X151247191Y-108570233D01*
X151315817Y-108524378D01*
X151374178Y-108466017D01*
X151420033Y-108397391D01*
X151451618Y-108321138D01*
X151467720Y-108240188D01*
X151467720Y-108157652D01*
X151451618Y-108076702D01*
X151420033Y-108000449D01*
X151374178Y-107931823D01*
X151315817Y-107873462D01*
X151247191Y-107827607D01*
X151230710Y-107820780D01*
X159766000Y-107820780D01*
X159766000Y-108028420D01*
X159806509Y-108232070D01*
X159885969Y-108423903D01*
X160001327Y-108596549D01*
X160148151Y-108743373D01*
X160320797Y-108858731D01*
X160512630Y-108938191D01*
X160716280Y-108978700D01*
X160923920Y-108978700D01*
X161127570Y-108938191D01*
X161319403Y-108858731D01*
X161492049Y-108743373D01*
X161638873Y-108596549D01*
X161754231Y-108423903D01*
X161833691Y-108232070D01*
X161874200Y-108028420D01*
X161874200Y-107891841D01*
X163009500Y-107891841D01*
X163009500Y-108008159D01*
X163032193Y-108122242D01*
X163076706Y-108229707D01*
X163141329Y-108326422D01*
X163223578Y-108408671D01*
X163320293Y-108473294D01*
X163427758Y-108517807D01*
X163541841Y-108540500D01*
X163658159Y-108540500D01*
X163772242Y-108517807D01*
X163879707Y-108473294D01*
X163976422Y-108408671D01*
X164058671Y-108326422D01*
X164123294Y-108229707D01*
X164167807Y-108122242D01*
X164190500Y-108008159D01*
X164190500Y-107891841D01*
X164167807Y-107777758D01*
X164123294Y-107670293D01*
X164058671Y-107573578D01*
X163976422Y-107491329D01*
X163879707Y-107426706D01*
X163772242Y-107382193D01*
X163658159Y-107359500D01*
X163541841Y-107359500D01*
X163427758Y-107382193D01*
X163320293Y-107426706D01*
X163223578Y-107491329D01*
X163141329Y-107573578D01*
X163076706Y-107670293D01*
X163032193Y-107777758D01*
X163009500Y-107891841D01*
X161874200Y-107891841D01*
X161874200Y-107820780D01*
X161833691Y-107617130D01*
X161754231Y-107425297D01*
X161638873Y-107252651D01*
X161492049Y-107105827D01*
X161319403Y-106990469D01*
X161127570Y-106911009D01*
X160923920Y-106870500D01*
X160716280Y-106870500D01*
X160512630Y-106911009D01*
X160320797Y-106990469D01*
X160148151Y-107105827D01*
X160001327Y-107252651D01*
X159885969Y-107425297D01*
X159806509Y-107617130D01*
X159766000Y-107820780D01*
X151230710Y-107820780D01*
X151170938Y-107796022D01*
X151089988Y-107779920D01*
X151007452Y-107779920D01*
X150926502Y-107796022D01*
X150850249Y-107827607D01*
X150781623Y-107873462D01*
X150723262Y-107931823D01*
X150677407Y-108000449D01*
X150645822Y-108076702D01*
X150629720Y-108157652D01*
X149344669Y-108157652D01*
X149321402Y-108101482D01*
X149275536Y-108032839D01*
X149217161Y-107974464D01*
X149148518Y-107928598D01*
X149072247Y-107897006D01*
X148991278Y-107880900D01*
X148908722Y-107880900D01*
X148827753Y-107897006D01*
X148751482Y-107928598D01*
X148682839Y-107974464D01*
X148624464Y-108032839D01*
X148578598Y-108101482D01*
X148547006Y-108177753D01*
X148530900Y-108258722D01*
X143381272Y-108258722D01*
X143353218Y-108247102D01*
X143272268Y-108231000D01*
X143189732Y-108231000D01*
X143108782Y-108247102D01*
X143032529Y-108278687D01*
X142963903Y-108324542D01*
X142905542Y-108382903D01*
X142859687Y-108451529D01*
X142828102Y-108527782D01*
X142812000Y-108608732D01*
X140055336Y-108608732D01*
X140116957Y-108567558D01*
X140175318Y-108509197D01*
X140221173Y-108440571D01*
X140252758Y-108364318D01*
X140268860Y-108283368D01*
X140268860Y-108200832D01*
X140252758Y-108119882D01*
X140248140Y-108108732D01*
X141290219Y-108108732D01*
X141290219Y-108191268D01*
X141306321Y-108272218D01*
X141337906Y-108348471D01*
X141383761Y-108417097D01*
X141442122Y-108475458D01*
X141510748Y-108521313D01*
X141587001Y-108552898D01*
X141667951Y-108569000D01*
X141750487Y-108569000D01*
X141831437Y-108552898D01*
X141907690Y-108521313D01*
X141976316Y-108475458D01*
X142034677Y-108417097D01*
X142080532Y-108348471D01*
X142112117Y-108272218D01*
X142128219Y-108191268D01*
X142128219Y-108108732D01*
X142112117Y-108027782D01*
X142080532Y-107951529D01*
X142034677Y-107882903D01*
X141976316Y-107824542D01*
X141907690Y-107778687D01*
X141831437Y-107747102D01*
X141750487Y-107731000D01*
X141667951Y-107731000D01*
X141587001Y-107747102D01*
X141510748Y-107778687D01*
X141442122Y-107824542D01*
X141383761Y-107882903D01*
X141337906Y-107951529D01*
X141306321Y-108027782D01*
X141290219Y-108108732D01*
X140248140Y-108108732D01*
X140221173Y-108043629D01*
X140175318Y-107975003D01*
X140116957Y-107916642D01*
X140048331Y-107870787D01*
X139972078Y-107839202D01*
X139891128Y-107823100D01*
X139808592Y-107823100D01*
X139727642Y-107839202D01*
X139651389Y-107870787D01*
X139582763Y-107916642D01*
X139524402Y-107975003D01*
X139478547Y-108043629D01*
X139446962Y-108119882D01*
X139430860Y-108200832D01*
X130715500Y-108200832D01*
X130715500Y-107299132D01*
X139448640Y-107299132D01*
X139448640Y-107381668D01*
X139464742Y-107462618D01*
X139496327Y-107538871D01*
X139542182Y-107607497D01*
X139600543Y-107665858D01*
X139669169Y-107711713D01*
X139745422Y-107743298D01*
X139826372Y-107759400D01*
X139908908Y-107759400D01*
X139989858Y-107743298D01*
X140066111Y-107711713D01*
X140134737Y-107665858D01*
X140193098Y-107607497D01*
X140238953Y-107538871D01*
X140270538Y-107462618D01*
X140286640Y-107381668D01*
X140286640Y-107299132D01*
X140270538Y-107218182D01*
X140238953Y-107141929D01*
X140193098Y-107073303D01*
X140134737Y-107014942D01*
X140066111Y-106969087D01*
X139989858Y-106937502D01*
X139908908Y-106921400D01*
X139826372Y-106921400D01*
X139745422Y-106937502D01*
X139669169Y-106969087D01*
X139600543Y-107014942D01*
X139542182Y-107073303D01*
X139496327Y-107141929D01*
X139464742Y-107218182D01*
X139448640Y-107299132D01*
X130715500Y-107299132D01*
X130715500Y-106308732D01*
X143831000Y-106308732D01*
X143831000Y-106391268D01*
X143847102Y-106472218D01*
X143878687Y-106548471D01*
X143924542Y-106617097D01*
X143982903Y-106675458D01*
X144051529Y-106721313D01*
X144127782Y-106752898D01*
X144208732Y-106769000D01*
X144291268Y-106769000D01*
X144372218Y-106752898D01*
X144448471Y-106721313D01*
X144467299Y-106708732D01*
X154281000Y-106708732D01*
X154281000Y-106791268D01*
X154297102Y-106872218D01*
X154328687Y-106948471D01*
X154374542Y-107017097D01*
X154432903Y-107075458D01*
X154501529Y-107121313D01*
X154577782Y-107152898D01*
X154658732Y-107169000D01*
X154741268Y-107169000D01*
X154822218Y-107152898D01*
X154898471Y-107121313D01*
X154967097Y-107075458D01*
X155025458Y-107017097D01*
X155071313Y-106948471D01*
X155102898Y-106872218D01*
X155119000Y-106791268D01*
X155119000Y-106708732D01*
X155102898Y-106627782D01*
X155071313Y-106551529D01*
X155025458Y-106482903D01*
X154967097Y-106424542D01*
X154898471Y-106378687D01*
X154822218Y-106347102D01*
X154741268Y-106331000D01*
X154658732Y-106331000D01*
X154577782Y-106347102D01*
X154501529Y-106378687D01*
X154432903Y-106424542D01*
X154374542Y-106482903D01*
X154328687Y-106551529D01*
X154297102Y-106627782D01*
X154281000Y-106708732D01*
X144467299Y-106708732D01*
X144517097Y-106675458D01*
X144575458Y-106617097D01*
X144621313Y-106548471D01*
X144652898Y-106472218D01*
X144669000Y-106391268D01*
X144669000Y-106308732D01*
X144652898Y-106227782D01*
X144621313Y-106151529D01*
X144588975Y-106103132D01*
X144852100Y-106103132D01*
X144852100Y-106185668D01*
X144868202Y-106266618D01*
X144899787Y-106342871D01*
X144945642Y-106411497D01*
X145004003Y-106469858D01*
X145072629Y-106515713D01*
X145148882Y-106547298D01*
X145229832Y-106563400D01*
X145312368Y-106563400D01*
X145393318Y-106547298D01*
X145469571Y-106515713D01*
X145538197Y-106469858D01*
X145596558Y-106411497D01*
X145642413Y-106342871D01*
X145673998Y-106266618D01*
X145690100Y-106185668D01*
X145690100Y-106103132D01*
X145673998Y-106022182D01*
X145642413Y-105945929D01*
X145596558Y-105877303D01*
X145538197Y-105818942D01*
X145469571Y-105773087D01*
X145393318Y-105741502D01*
X145312368Y-105725400D01*
X145229832Y-105725400D01*
X145148882Y-105741502D01*
X145072629Y-105773087D01*
X145004003Y-105818942D01*
X144945642Y-105877303D01*
X144899787Y-105945929D01*
X144868202Y-106022182D01*
X144852100Y-106103132D01*
X144588975Y-106103132D01*
X144575458Y-106082903D01*
X144517097Y-106024542D01*
X144448471Y-105978687D01*
X144372218Y-105947102D01*
X144291268Y-105931000D01*
X144208732Y-105931000D01*
X144127782Y-105947102D01*
X144051529Y-105978687D01*
X143982903Y-106024542D01*
X143924542Y-106082903D01*
X143878687Y-106151529D01*
X143847102Y-106227782D01*
X143831000Y-106308732D01*
X130715500Y-106308732D01*
X130715500Y-104808732D01*
X137231000Y-104808732D01*
X137231000Y-104891268D01*
X137247102Y-104972218D01*
X137278687Y-105048471D01*
X137324542Y-105117097D01*
X137382903Y-105175458D01*
X137451529Y-105221313D01*
X137527782Y-105252898D01*
X137608732Y-105269000D01*
X137691268Y-105269000D01*
X137772218Y-105252898D01*
X137848471Y-105221313D01*
X137917097Y-105175458D01*
X137975458Y-105117097D01*
X138021313Y-105048471D01*
X138052898Y-104972218D01*
X138069000Y-104891268D01*
X138069000Y-104808732D01*
X138052898Y-104727782D01*
X138021313Y-104651529D01*
X137975458Y-104582903D01*
X137917097Y-104524542D01*
X137848471Y-104478687D01*
X137800296Y-104458732D01*
X144581000Y-104458732D01*
X144581000Y-104541268D01*
X144597102Y-104622218D01*
X144628687Y-104698471D01*
X144674542Y-104767097D01*
X144732903Y-104825458D01*
X144801529Y-104871313D01*
X144877782Y-104902898D01*
X144958732Y-104919000D01*
X145041268Y-104919000D01*
X145122218Y-104902898D01*
X145198471Y-104871313D01*
X145267097Y-104825458D01*
X145325458Y-104767097D01*
X145371313Y-104698471D01*
X145375985Y-104687193D01*
X145450964Y-104702107D01*
X145533500Y-104702107D01*
X145614450Y-104686005D01*
X145690703Y-104654420D01*
X145759329Y-104608565D01*
X145817690Y-104550204D01*
X145863545Y-104481578D01*
X145878679Y-104445040D01*
X147031000Y-104445040D01*
X147031000Y-104527576D01*
X147047102Y-104608526D01*
X147078687Y-104684779D01*
X147124542Y-104753405D01*
X147182903Y-104811766D01*
X147251529Y-104857621D01*
X147327782Y-104889206D01*
X147408732Y-104905308D01*
X147491268Y-104905308D01*
X147572218Y-104889206D01*
X147648471Y-104857621D01*
X147717097Y-104811766D01*
X147775458Y-104753405D01*
X147821313Y-104684779D01*
X147852898Y-104608526D01*
X147869000Y-104527576D01*
X147869000Y-104445040D01*
X148931000Y-104445040D01*
X148931000Y-104527576D01*
X148947102Y-104608526D01*
X148978687Y-104684779D01*
X149024542Y-104753405D01*
X149082903Y-104811766D01*
X149151529Y-104857621D01*
X149227782Y-104889206D01*
X149308732Y-104905308D01*
X149391268Y-104905308D01*
X149472218Y-104889206D01*
X149548471Y-104857621D01*
X149617097Y-104811766D01*
X149675458Y-104753405D01*
X149721313Y-104684779D01*
X149752898Y-104608526D01*
X149769000Y-104527576D01*
X149769000Y-104445040D01*
X149752898Y-104364090D01*
X149721313Y-104287837D01*
X149675458Y-104219211D01*
X149617097Y-104160850D01*
X149548471Y-104114995D01*
X149472218Y-104083410D01*
X149391268Y-104067308D01*
X149308732Y-104067308D01*
X149227782Y-104083410D01*
X149151529Y-104114995D01*
X149082903Y-104160850D01*
X149024542Y-104219211D01*
X148978687Y-104287837D01*
X148947102Y-104364090D01*
X148931000Y-104445040D01*
X147869000Y-104445040D01*
X147852898Y-104364090D01*
X147821313Y-104287837D01*
X147775458Y-104219211D01*
X147717097Y-104160850D01*
X147648471Y-104114995D01*
X147572218Y-104083410D01*
X147491268Y-104067308D01*
X147408732Y-104067308D01*
X147327782Y-104083410D01*
X147251529Y-104114995D01*
X147182903Y-104160850D01*
X147124542Y-104219211D01*
X147078687Y-104287837D01*
X147047102Y-104364090D01*
X147031000Y-104445040D01*
X145878679Y-104445040D01*
X145895130Y-104405325D01*
X145911232Y-104324375D01*
X145911232Y-104241839D01*
X145895130Y-104160889D01*
X145863545Y-104084636D01*
X145817690Y-104016010D01*
X145810412Y-104008732D01*
X153831000Y-104008732D01*
X153831000Y-104091268D01*
X153847102Y-104172218D01*
X153878687Y-104248471D01*
X153924542Y-104317097D01*
X153982903Y-104375458D01*
X154051529Y-104421313D01*
X154127782Y-104452898D01*
X154208732Y-104469000D01*
X154291268Y-104469000D01*
X154372218Y-104452898D01*
X154448471Y-104421313D01*
X154517097Y-104375458D01*
X154575458Y-104317097D01*
X154614456Y-104258732D01*
X154681000Y-104258732D01*
X154681000Y-104341268D01*
X154697102Y-104422218D01*
X154728687Y-104498471D01*
X154774542Y-104567097D01*
X154832903Y-104625458D01*
X154901529Y-104671313D01*
X154977782Y-104702898D01*
X155058732Y-104719000D01*
X155141268Y-104719000D01*
X155222218Y-104702898D01*
X155298471Y-104671313D01*
X155367097Y-104625458D01*
X155425458Y-104567097D01*
X155471313Y-104498471D01*
X155502898Y-104422218D01*
X155519000Y-104341268D01*
X155519000Y-104258732D01*
X155502898Y-104177782D01*
X155471313Y-104101529D01*
X155449959Y-104069570D01*
X155790900Y-104069570D01*
X155790900Y-104159630D01*
X155808470Y-104247960D01*
X155842935Y-104331165D01*
X155892970Y-104406048D01*
X155956652Y-104469730D01*
X156031535Y-104519765D01*
X156114740Y-104554230D01*
X156203070Y-104571800D01*
X156293130Y-104571800D01*
X156381460Y-104554230D01*
X156464665Y-104519765D01*
X156539548Y-104469730D01*
X156603230Y-104406048D01*
X156653265Y-104331165D01*
X156687730Y-104247960D01*
X156705300Y-104159630D01*
X156705300Y-104069570D01*
X156687730Y-103981240D01*
X156653265Y-103898035D01*
X156603230Y-103823152D01*
X156595648Y-103815570D01*
X157511900Y-103815570D01*
X157511900Y-103905630D01*
X157529470Y-103993960D01*
X157563935Y-104077165D01*
X157613970Y-104152048D01*
X157677652Y-104215730D01*
X157752535Y-104265765D01*
X157835740Y-104300230D01*
X157924070Y-104317800D01*
X158014130Y-104317800D01*
X158102460Y-104300230D01*
X158185665Y-104265765D01*
X158260548Y-104215730D01*
X158324230Y-104152048D01*
X158369100Y-104084895D01*
X158413970Y-104152048D01*
X158477652Y-104215730D01*
X158552535Y-104265765D01*
X158635740Y-104300230D01*
X158724070Y-104317800D01*
X158814130Y-104317800D01*
X158902460Y-104300230D01*
X158985665Y-104265765D01*
X159060548Y-104215730D01*
X159124230Y-104152048D01*
X159169100Y-104084895D01*
X159213970Y-104152048D01*
X159277652Y-104215730D01*
X159352535Y-104265765D01*
X159435740Y-104300230D01*
X159524070Y-104317800D01*
X159614130Y-104317800D01*
X159702460Y-104300230D01*
X159785665Y-104265765D01*
X159860548Y-104215730D01*
X159924230Y-104152048D01*
X159969100Y-104084895D01*
X160013970Y-104152048D01*
X160077652Y-104215730D01*
X160152535Y-104265765D01*
X160235740Y-104300230D01*
X160324070Y-104317800D01*
X160414130Y-104317800D01*
X160502460Y-104300230D01*
X160585665Y-104265765D01*
X160660548Y-104215730D01*
X160724230Y-104152048D01*
X160774265Y-104077165D01*
X160808730Y-103993960D01*
X160826300Y-103905630D01*
X160826300Y-103815570D01*
X160808730Y-103727240D01*
X160774265Y-103644035D01*
X160724230Y-103569152D01*
X160660548Y-103505470D01*
X160585665Y-103455435D01*
X160502460Y-103420970D01*
X160414130Y-103403400D01*
X160324070Y-103403400D01*
X160235740Y-103420970D01*
X160152535Y-103455435D01*
X160077652Y-103505470D01*
X160013970Y-103569152D01*
X159969100Y-103636305D01*
X159924230Y-103569152D01*
X159860548Y-103505470D01*
X159785665Y-103455435D01*
X159702460Y-103420970D01*
X159614130Y-103403400D01*
X159524070Y-103403400D01*
X159435740Y-103420970D01*
X159352535Y-103455435D01*
X159277652Y-103505470D01*
X159213970Y-103569152D01*
X159169100Y-103636305D01*
X159124230Y-103569152D01*
X159060548Y-103505470D01*
X158985665Y-103455435D01*
X158902460Y-103420970D01*
X158814130Y-103403400D01*
X158724070Y-103403400D01*
X158635740Y-103420970D01*
X158552535Y-103455435D01*
X158477652Y-103505470D01*
X158413970Y-103569152D01*
X158369100Y-103636305D01*
X158324230Y-103569152D01*
X158260548Y-103505470D01*
X158185665Y-103455435D01*
X158102460Y-103420970D01*
X158014130Y-103403400D01*
X157924070Y-103403400D01*
X157835740Y-103420970D01*
X157752535Y-103455435D01*
X157677652Y-103505470D01*
X157613970Y-103569152D01*
X157563935Y-103644035D01*
X157529470Y-103727240D01*
X157511900Y-103815570D01*
X156595648Y-103815570D01*
X156539548Y-103759470D01*
X156464665Y-103709435D01*
X156381460Y-103674970D01*
X156293130Y-103657400D01*
X156203070Y-103657400D01*
X156114740Y-103674970D01*
X156031535Y-103709435D01*
X155956652Y-103759470D01*
X155892970Y-103823152D01*
X155842935Y-103898035D01*
X155808470Y-103981240D01*
X155790900Y-104069570D01*
X155449959Y-104069570D01*
X155425458Y-104032903D01*
X155367097Y-103974542D01*
X155298471Y-103928687D01*
X155222218Y-103897102D01*
X155141268Y-103881000D01*
X155058732Y-103881000D01*
X154977782Y-103897102D01*
X154901529Y-103928687D01*
X154832903Y-103974542D01*
X154774542Y-104032903D01*
X154728687Y-104101529D01*
X154697102Y-104177782D01*
X154681000Y-104258732D01*
X154614456Y-104258732D01*
X154621313Y-104248471D01*
X154652898Y-104172218D01*
X154669000Y-104091268D01*
X154669000Y-104008732D01*
X154652898Y-103927782D01*
X154621313Y-103851529D01*
X154575458Y-103782903D01*
X154517097Y-103724542D01*
X154448471Y-103678687D01*
X154372218Y-103647102D01*
X154291268Y-103631000D01*
X154208732Y-103631000D01*
X154127782Y-103647102D01*
X154051529Y-103678687D01*
X153982903Y-103724542D01*
X153924542Y-103782903D01*
X153878687Y-103851529D01*
X153847102Y-103927782D01*
X153831000Y-104008732D01*
X145810412Y-104008732D01*
X145759329Y-103957649D01*
X145690703Y-103911794D01*
X145614450Y-103880209D01*
X145533500Y-103864107D01*
X145450964Y-103864107D01*
X145370014Y-103880209D01*
X145293761Y-103911794D01*
X145225135Y-103957649D01*
X145166774Y-104016010D01*
X145120919Y-104084636D01*
X145116247Y-104095914D01*
X145041268Y-104081000D01*
X144958732Y-104081000D01*
X144877782Y-104097102D01*
X144801529Y-104128687D01*
X144732903Y-104174542D01*
X144674542Y-104232903D01*
X144628687Y-104301529D01*
X144597102Y-104377782D01*
X144581000Y-104458732D01*
X137800296Y-104458732D01*
X137772218Y-104447102D01*
X137691268Y-104431000D01*
X137608732Y-104431000D01*
X137527782Y-104447102D01*
X137451529Y-104478687D01*
X137382903Y-104524542D01*
X137324542Y-104582903D01*
X137278687Y-104651529D01*
X137247102Y-104727782D01*
X137231000Y-104808732D01*
X130715500Y-104808732D01*
X130715500Y-104192817D01*
X136067800Y-104192817D01*
X136067800Y-104290383D01*
X136086834Y-104386074D01*
X136124170Y-104476213D01*
X136178375Y-104557336D01*
X136247364Y-104626325D01*
X136328487Y-104680530D01*
X136418626Y-104717866D01*
X136514317Y-104736900D01*
X136611883Y-104736900D01*
X136707574Y-104717866D01*
X136797713Y-104680530D01*
X136878836Y-104626325D01*
X136947825Y-104557336D01*
X137002030Y-104476213D01*
X137039366Y-104386074D01*
X137058400Y-104290383D01*
X137058400Y-104192817D01*
X137039366Y-104097126D01*
X137002030Y-104006987D01*
X136969787Y-103958732D01*
X143531000Y-103958732D01*
X143531000Y-104041268D01*
X143547102Y-104122218D01*
X143578687Y-104198471D01*
X143624542Y-104267097D01*
X143682903Y-104325458D01*
X143751529Y-104371313D01*
X143827782Y-104402898D01*
X143908732Y-104419000D01*
X143991268Y-104419000D01*
X144072218Y-104402898D01*
X144148471Y-104371313D01*
X144217097Y-104325458D01*
X144275458Y-104267097D01*
X144321313Y-104198471D01*
X144352898Y-104122218D01*
X144369000Y-104041268D01*
X144369000Y-103958732D01*
X144352898Y-103877782D01*
X144321313Y-103801529D01*
X144275458Y-103732903D01*
X144217097Y-103674542D01*
X144148471Y-103628687D01*
X144072218Y-103597102D01*
X143991268Y-103581000D01*
X143908732Y-103581000D01*
X143827782Y-103597102D01*
X143751529Y-103628687D01*
X143682903Y-103674542D01*
X143624542Y-103732903D01*
X143578687Y-103801529D01*
X143547102Y-103877782D01*
X143531000Y-103958732D01*
X136969787Y-103958732D01*
X136947825Y-103925864D01*
X136878836Y-103856875D01*
X136797713Y-103802670D01*
X136707574Y-103765334D01*
X136611883Y-103746300D01*
X136514317Y-103746300D01*
X136418626Y-103765334D01*
X136328487Y-103802670D01*
X136247364Y-103856875D01*
X136178375Y-103925864D01*
X136124170Y-104006987D01*
X136086834Y-104097126D01*
X136067800Y-104192817D01*
X130715500Y-104192817D01*
X130715500Y-102758732D01*
X139481000Y-102758732D01*
X139481000Y-102841268D01*
X139497102Y-102922218D01*
X139528687Y-102998471D01*
X139574542Y-103067097D01*
X139632903Y-103125458D01*
X139701529Y-103171313D01*
X139777782Y-103202898D01*
X139858732Y-103219000D01*
X139941268Y-103219000D01*
X140022218Y-103202898D01*
X140098471Y-103171313D01*
X140167097Y-103125458D01*
X140186963Y-103105592D01*
X141536520Y-103105592D01*
X141536520Y-103188128D01*
X141552622Y-103269078D01*
X141584207Y-103345331D01*
X141630062Y-103413957D01*
X141688423Y-103472318D01*
X141757049Y-103518173D01*
X141833302Y-103549758D01*
X141914252Y-103565860D01*
X141996788Y-103565860D01*
X142077738Y-103549758D01*
X142153991Y-103518173D01*
X142222617Y-103472318D01*
X142280978Y-103413957D01*
X142326833Y-103345331D01*
X142358418Y-103269078D01*
X142374520Y-103188128D01*
X142374520Y-103105592D01*
X142358418Y-103024642D01*
X142326833Y-102948389D01*
X142280978Y-102879763D01*
X142222617Y-102821402D01*
X142153991Y-102775547D01*
X142077738Y-102743962D01*
X141996788Y-102727860D01*
X141914252Y-102727860D01*
X141833302Y-102743962D01*
X141757049Y-102775547D01*
X141688423Y-102821402D01*
X141630062Y-102879763D01*
X141584207Y-102948389D01*
X141552622Y-103024642D01*
X141536520Y-103105592D01*
X140186963Y-103105592D01*
X140225458Y-103067097D01*
X140271313Y-102998471D01*
X140302898Y-102922218D01*
X140319000Y-102841268D01*
X140319000Y-102758732D01*
X140302898Y-102677782D01*
X140271313Y-102601529D01*
X140225458Y-102532903D01*
X140167097Y-102474542D01*
X140098471Y-102428687D01*
X140022218Y-102397102D01*
X139941268Y-102381000D01*
X139858732Y-102381000D01*
X139777782Y-102397102D01*
X139701529Y-102428687D01*
X139632903Y-102474542D01*
X139574542Y-102532903D01*
X139528687Y-102601529D01*
X139497102Y-102677782D01*
X139481000Y-102758732D01*
X130715500Y-102758732D01*
X130715500Y-101584132D01*
X145587820Y-101584132D01*
X145587820Y-101666668D01*
X145603922Y-101747618D01*
X145635507Y-101823871D01*
X145681362Y-101892497D01*
X145739723Y-101950858D01*
X145808349Y-101996713D01*
X145884602Y-102028298D01*
X145965552Y-102044400D01*
X146048088Y-102044400D01*
X146129038Y-102028298D01*
X146205291Y-101996713D01*
X146273917Y-101950858D01*
X146332278Y-101892497D01*
X146378133Y-101823871D01*
X146409718Y-101747618D01*
X146425820Y-101666668D01*
X146425820Y-101584132D01*
X146409718Y-101503182D01*
X146378133Y-101426929D01*
X146332278Y-101358303D01*
X146273917Y-101299942D01*
X146205291Y-101254087D01*
X146129038Y-101222502D01*
X146048088Y-101206400D01*
X145965552Y-101206400D01*
X145884602Y-101222502D01*
X145808349Y-101254087D01*
X145739723Y-101299942D01*
X145681362Y-101358303D01*
X145635507Y-101426929D01*
X145603922Y-101503182D01*
X145587820Y-101584132D01*
X130715500Y-101584132D01*
X130715500Y-100513570D01*
X157511900Y-100513570D01*
X157511900Y-100603630D01*
X157529470Y-100691960D01*
X157563935Y-100775165D01*
X157613970Y-100850048D01*
X157677652Y-100913730D01*
X157752535Y-100963765D01*
X157835740Y-100998230D01*
X157924070Y-101015800D01*
X158014130Y-101015800D01*
X158102460Y-100998230D01*
X158185665Y-100963765D01*
X158260548Y-100913730D01*
X158324230Y-100850048D01*
X158369100Y-100782895D01*
X158413970Y-100850048D01*
X158477652Y-100913730D01*
X158552535Y-100963765D01*
X158635740Y-100998230D01*
X158724070Y-101015800D01*
X158814130Y-101015800D01*
X158902460Y-100998230D01*
X158985665Y-100963765D01*
X159060548Y-100913730D01*
X159124230Y-100850048D01*
X159174265Y-100775165D01*
X159208730Y-100691960D01*
X159226300Y-100603630D01*
X159226300Y-100513570D01*
X159911900Y-100513570D01*
X159911900Y-100603630D01*
X159929470Y-100691960D01*
X159963935Y-100775165D01*
X160013970Y-100850048D01*
X160077652Y-100913730D01*
X160152535Y-100963765D01*
X160235740Y-100998230D01*
X160324070Y-101015800D01*
X160414130Y-101015800D01*
X160502460Y-100998230D01*
X160585665Y-100963765D01*
X160660548Y-100913730D01*
X160724230Y-100850048D01*
X160774265Y-100775165D01*
X160808730Y-100691960D01*
X160826300Y-100603630D01*
X160826300Y-100513570D01*
X160808730Y-100425240D01*
X160774265Y-100342035D01*
X160724230Y-100267152D01*
X160660548Y-100203470D01*
X160585665Y-100153435D01*
X160535293Y-100132570D01*
X161378900Y-100132570D01*
X161378900Y-100222630D01*
X161396470Y-100310960D01*
X161430935Y-100394165D01*
X161480970Y-100469048D01*
X161544652Y-100532730D01*
X161619535Y-100582765D01*
X161702740Y-100617230D01*
X161791070Y-100634800D01*
X161881130Y-100634800D01*
X161969460Y-100617230D01*
X162052665Y-100582765D01*
X162127548Y-100532730D01*
X162191230Y-100469048D01*
X162241265Y-100394165D01*
X162275730Y-100310960D01*
X162280600Y-100286477D01*
X162285470Y-100310960D01*
X162319935Y-100394165D01*
X162369970Y-100469048D01*
X162433652Y-100532730D01*
X162508535Y-100582765D01*
X162591740Y-100617230D01*
X162680070Y-100634800D01*
X162770130Y-100634800D01*
X162858460Y-100617230D01*
X162941665Y-100582765D01*
X163016548Y-100532730D01*
X163080230Y-100469048D01*
X163130265Y-100394165D01*
X163164730Y-100310960D01*
X163182300Y-100222630D01*
X163182300Y-100132570D01*
X163164730Y-100044240D01*
X163130265Y-99961035D01*
X163080230Y-99886152D01*
X163016548Y-99822470D01*
X162941665Y-99772435D01*
X162858460Y-99737970D01*
X162770130Y-99720400D01*
X162680070Y-99720400D01*
X162591740Y-99737970D01*
X162508535Y-99772435D01*
X162433652Y-99822470D01*
X162369970Y-99886152D01*
X162319935Y-99961035D01*
X162285470Y-100044240D01*
X162280600Y-100068723D01*
X162275730Y-100044240D01*
X162241265Y-99961035D01*
X162191230Y-99886152D01*
X162127548Y-99822470D01*
X162052665Y-99772435D01*
X161969460Y-99737970D01*
X161881130Y-99720400D01*
X161791070Y-99720400D01*
X161702740Y-99737970D01*
X161619535Y-99772435D01*
X161544652Y-99822470D01*
X161480970Y-99886152D01*
X161430935Y-99961035D01*
X161396470Y-100044240D01*
X161378900Y-100132570D01*
X160535293Y-100132570D01*
X160502460Y-100118970D01*
X160414130Y-100101400D01*
X160324070Y-100101400D01*
X160235740Y-100118970D01*
X160152535Y-100153435D01*
X160077652Y-100203470D01*
X160013970Y-100267152D01*
X159963935Y-100342035D01*
X159929470Y-100425240D01*
X159911900Y-100513570D01*
X159226300Y-100513570D01*
X159208730Y-100425240D01*
X159174265Y-100342035D01*
X159124230Y-100267152D01*
X159060548Y-100203470D01*
X158985665Y-100153435D01*
X158902460Y-100118970D01*
X158814130Y-100101400D01*
X158724070Y-100101400D01*
X158635740Y-100118970D01*
X158552535Y-100153435D01*
X158477652Y-100203470D01*
X158413970Y-100267152D01*
X158369100Y-100334305D01*
X158324230Y-100267152D01*
X158260548Y-100203470D01*
X158185665Y-100153435D01*
X158102460Y-100118970D01*
X158014130Y-100101400D01*
X157924070Y-100101400D01*
X157835740Y-100118970D01*
X157752535Y-100153435D01*
X157677652Y-100203470D01*
X157613970Y-100267152D01*
X157563935Y-100342035D01*
X157529470Y-100425240D01*
X157511900Y-100513570D01*
X130715500Y-100513570D01*
X130715500Y-99620712D01*
X146779080Y-99620712D01*
X146779080Y-99703248D01*
X146795182Y-99784198D01*
X146826767Y-99860451D01*
X146872622Y-99929077D01*
X146930983Y-99987438D01*
X146999609Y-100033293D01*
X147075862Y-100064878D01*
X147156812Y-100080980D01*
X147239348Y-100080980D01*
X147320298Y-100064878D01*
X147396551Y-100033293D01*
X147465177Y-99987438D01*
X147523538Y-99929077D01*
X147569393Y-99860451D01*
X147600978Y-99784198D01*
X147617080Y-99703248D01*
X147617080Y-99620712D01*
X147600978Y-99539762D01*
X147569393Y-99463509D01*
X147523538Y-99394883D01*
X147465177Y-99336522D01*
X147396551Y-99290667D01*
X147320298Y-99259082D01*
X147239348Y-99242980D01*
X147156812Y-99242980D01*
X147075862Y-99259082D01*
X146999609Y-99290667D01*
X146930983Y-99336522D01*
X146872622Y-99394883D01*
X146826767Y-99463509D01*
X146795182Y-99539762D01*
X146779080Y-99620712D01*
X130715500Y-99620712D01*
X130715500Y-98908732D01*
X137481000Y-98908732D01*
X137481000Y-98991268D01*
X137497102Y-99072218D01*
X137528687Y-99148471D01*
X137574542Y-99217097D01*
X137632903Y-99275458D01*
X137701529Y-99321313D01*
X137777782Y-99352898D01*
X137858732Y-99369000D01*
X137941268Y-99369000D01*
X138022218Y-99352898D01*
X138098471Y-99321313D01*
X138167097Y-99275458D01*
X138225458Y-99217097D01*
X138271313Y-99148471D01*
X138302898Y-99072218D01*
X138319000Y-98991268D01*
X138319000Y-98908732D01*
X138302898Y-98827782D01*
X138271313Y-98751529D01*
X138260650Y-98735570D01*
X160870900Y-98735570D01*
X160870900Y-98825630D01*
X160888470Y-98913960D01*
X160922935Y-98997165D01*
X160972970Y-99072048D01*
X161036652Y-99135730D01*
X161111535Y-99185765D01*
X161194740Y-99220230D01*
X161283070Y-99237800D01*
X161373130Y-99237800D01*
X161461460Y-99220230D01*
X161544665Y-99185765D01*
X161619548Y-99135730D01*
X161683230Y-99072048D01*
X161733265Y-98997165D01*
X161767730Y-98913960D01*
X161785300Y-98825630D01*
X161785300Y-98735570D01*
X161767730Y-98647240D01*
X161733265Y-98564035D01*
X161683230Y-98489152D01*
X161619548Y-98425470D01*
X161544665Y-98375435D01*
X161461460Y-98340970D01*
X161373130Y-98323400D01*
X161283070Y-98323400D01*
X161194740Y-98340970D01*
X161111535Y-98375435D01*
X161036652Y-98425470D01*
X160972970Y-98489152D01*
X160922935Y-98564035D01*
X160888470Y-98647240D01*
X160870900Y-98735570D01*
X138260650Y-98735570D01*
X138225458Y-98682903D01*
X138167097Y-98624542D01*
X138098471Y-98578687D01*
X138022218Y-98547102D01*
X137941268Y-98531000D01*
X137858732Y-98531000D01*
X137777782Y-98547102D01*
X137701529Y-98578687D01*
X137632903Y-98624542D01*
X137574542Y-98682903D01*
X137528687Y-98751529D01*
X137497102Y-98827782D01*
X137481000Y-98908732D01*
X130715500Y-98908732D01*
X130715500Y-97508732D01*
X136731000Y-97508732D01*
X136731000Y-97591268D01*
X136747102Y-97672218D01*
X136778687Y-97748471D01*
X136824542Y-97817097D01*
X136882903Y-97875458D01*
X136951529Y-97921313D01*
X137027782Y-97952898D01*
X137108732Y-97969000D01*
X137191268Y-97969000D01*
X137272218Y-97952898D01*
X137348471Y-97921313D01*
X137417097Y-97875458D01*
X137475458Y-97817097D01*
X137521313Y-97748471D01*
X137547507Y-97685232D01*
X142583000Y-97685232D01*
X142583000Y-97767768D01*
X142599102Y-97848718D01*
X142630687Y-97924971D01*
X142676542Y-97993597D01*
X142734903Y-98051958D01*
X142803529Y-98097813D01*
X142879782Y-98129398D01*
X142960732Y-98145500D01*
X143043268Y-98145500D01*
X143124218Y-98129398D01*
X143200471Y-98097813D01*
X143269097Y-98051958D01*
X143327458Y-97993597D01*
X143373313Y-97924971D01*
X143404898Y-97848718D01*
X143421000Y-97767768D01*
X143421000Y-97685232D01*
X143404898Y-97604282D01*
X143373313Y-97528029D01*
X143327458Y-97459403D01*
X143269097Y-97401042D01*
X143200471Y-97355187D01*
X143160354Y-97338570D01*
X157511900Y-97338570D01*
X157511900Y-97428630D01*
X157529470Y-97516960D01*
X157563935Y-97600165D01*
X157613970Y-97675048D01*
X157677652Y-97738730D01*
X157752535Y-97788765D01*
X157835740Y-97823230D01*
X157924070Y-97840800D01*
X158014130Y-97840800D01*
X158102460Y-97823230D01*
X158185665Y-97788765D01*
X158260548Y-97738730D01*
X158324230Y-97675048D01*
X158369100Y-97607895D01*
X158413970Y-97675048D01*
X158477652Y-97738730D01*
X158552535Y-97788765D01*
X158635740Y-97823230D01*
X158724070Y-97840800D01*
X158814130Y-97840800D01*
X158902460Y-97823230D01*
X158985665Y-97788765D01*
X159060548Y-97738730D01*
X159124230Y-97675048D01*
X159169100Y-97607895D01*
X159213970Y-97675048D01*
X159277652Y-97738730D01*
X159352535Y-97788765D01*
X159435740Y-97823230D01*
X159524070Y-97840800D01*
X159614130Y-97840800D01*
X159702460Y-97823230D01*
X159785665Y-97788765D01*
X159860548Y-97738730D01*
X159924230Y-97675048D01*
X159969100Y-97607895D01*
X160013970Y-97675048D01*
X160077652Y-97738730D01*
X160152535Y-97788765D01*
X160235740Y-97823230D01*
X160324070Y-97840800D01*
X160414130Y-97840800D01*
X160502460Y-97823230D01*
X160585665Y-97788765D01*
X160660548Y-97738730D01*
X160724230Y-97675048D01*
X160774265Y-97600165D01*
X160808730Y-97516960D01*
X160826300Y-97428630D01*
X160826300Y-97338570D01*
X160808730Y-97250240D01*
X160774265Y-97167035D01*
X160724230Y-97092152D01*
X160660548Y-97028470D01*
X160585665Y-96978435D01*
X160502460Y-96943970D01*
X160414130Y-96926400D01*
X160324070Y-96926400D01*
X160235740Y-96943970D01*
X160152535Y-96978435D01*
X160077652Y-97028470D01*
X160013970Y-97092152D01*
X159969100Y-97159305D01*
X159924230Y-97092152D01*
X159860548Y-97028470D01*
X159785665Y-96978435D01*
X159702460Y-96943970D01*
X159614130Y-96926400D01*
X159524070Y-96926400D01*
X159435740Y-96943970D01*
X159352535Y-96978435D01*
X159277652Y-97028470D01*
X159213970Y-97092152D01*
X159169100Y-97159305D01*
X159124230Y-97092152D01*
X159060548Y-97028470D01*
X158985665Y-96978435D01*
X158902460Y-96943970D01*
X158814130Y-96926400D01*
X158724070Y-96926400D01*
X158635740Y-96943970D01*
X158552535Y-96978435D01*
X158477652Y-97028470D01*
X158413970Y-97092152D01*
X158369100Y-97159305D01*
X158324230Y-97092152D01*
X158260548Y-97028470D01*
X158185665Y-96978435D01*
X158102460Y-96943970D01*
X158014130Y-96926400D01*
X157924070Y-96926400D01*
X157835740Y-96943970D01*
X157752535Y-96978435D01*
X157677652Y-97028470D01*
X157613970Y-97092152D01*
X157563935Y-97167035D01*
X157529470Y-97250240D01*
X157511900Y-97338570D01*
X143160354Y-97338570D01*
X143124218Y-97323602D01*
X143043268Y-97307500D01*
X142960732Y-97307500D01*
X142879782Y-97323602D01*
X142803529Y-97355187D01*
X142734903Y-97401042D01*
X142676542Y-97459403D01*
X142630687Y-97528029D01*
X142599102Y-97604282D01*
X142583000Y-97685232D01*
X137547507Y-97685232D01*
X137552898Y-97672218D01*
X137569000Y-97591268D01*
X137569000Y-97508732D01*
X137552898Y-97427782D01*
X137521313Y-97351529D01*
X137475458Y-97282903D01*
X137417097Y-97224542D01*
X137348471Y-97178687D01*
X137272218Y-97147102D01*
X137191268Y-97131000D01*
X137108732Y-97131000D01*
X137027782Y-97147102D01*
X136951529Y-97178687D01*
X136882903Y-97224542D01*
X136824542Y-97282903D01*
X136778687Y-97351529D01*
X136747102Y-97427782D01*
X136731000Y-97508732D01*
X130715500Y-97508732D01*
X130715500Y-96658732D01*
X138581000Y-96658732D01*
X138581000Y-96741268D01*
X138597102Y-96822218D01*
X138628687Y-96898471D01*
X138674542Y-96967097D01*
X138732903Y-97025458D01*
X138801529Y-97071313D01*
X138877782Y-97102898D01*
X138958732Y-97119000D01*
X139041268Y-97119000D01*
X139122218Y-97102898D01*
X139198471Y-97071313D01*
X139267097Y-97025458D01*
X139325458Y-96967097D01*
X139371313Y-96898471D01*
X139402898Y-96822218D01*
X139419000Y-96741268D01*
X139419000Y-96658732D01*
X139402898Y-96577782D01*
X139371313Y-96501529D01*
X139325458Y-96432903D01*
X139267097Y-96374542D01*
X139198471Y-96328687D01*
X139122218Y-96297102D01*
X139041268Y-96281000D01*
X138958732Y-96281000D01*
X138877782Y-96297102D01*
X138801529Y-96328687D01*
X138732903Y-96374542D01*
X138674542Y-96432903D01*
X138628687Y-96501529D01*
X138597102Y-96577782D01*
X138581000Y-96658732D01*
X130715500Y-96658732D01*
X130715500Y-95958732D01*
X139081000Y-95958732D01*
X139081000Y-96041268D01*
X139097102Y-96122218D01*
X139128687Y-96198471D01*
X139174542Y-96267097D01*
X139232903Y-96325458D01*
X139301529Y-96371313D01*
X139377782Y-96402898D01*
X139458732Y-96419000D01*
X139541268Y-96419000D01*
X139622218Y-96402898D01*
X139698471Y-96371313D01*
X139767097Y-96325458D01*
X139825458Y-96267097D01*
X139871313Y-96198471D01*
X139902898Y-96122218D01*
X139919000Y-96041268D01*
X139919000Y-95958732D01*
X139902898Y-95877782D01*
X139871313Y-95801529D01*
X139825458Y-95732903D01*
X139767097Y-95674542D01*
X139698471Y-95628687D01*
X139622218Y-95597102D01*
X139541268Y-95581000D01*
X139458732Y-95581000D01*
X139377782Y-95597102D01*
X139301529Y-95628687D01*
X139232903Y-95674542D01*
X139174542Y-95732903D01*
X139128687Y-95801529D01*
X139097102Y-95877782D01*
X139081000Y-95958732D01*
X130715500Y-95958732D01*
X130715500Y-94417570D01*
X132676900Y-94417570D01*
X132676900Y-94507630D01*
X132694470Y-94595960D01*
X132728935Y-94679165D01*
X132778970Y-94754048D01*
X132842652Y-94817730D01*
X132917535Y-94867765D01*
X133000740Y-94902230D01*
X133089070Y-94919800D01*
X133179130Y-94919800D01*
X133267460Y-94902230D01*
X133350665Y-94867765D01*
X133425548Y-94817730D01*
X133489230Y-94754048D01*
X133539265Y-94679165D01*
X133573730Y-94595960D01*
X133591300Y-94507630D01*
X133591300Y-94417570D01*
X133692900Y-94417570D01*
X133692900Y-94507630D01*
X133710470Y-94595960D01*
X133744935Y-94679165D01*
X133794970Y-94754048D01*
X133858652Y-94817730D01*
X133933535Y-94867765D01*
X134016740Y-94902230D01*
X134105070Y-94919800D01*
X134195130Y-94919800D01*
X134283460Y-94902230D01*
X134366665Y-94867765D01*
X134441548Y-94817730D01*
X134505230Y-94754048D01*
X134555265Y-94679165D01*
X134589730Y-94595960D01*
X134607300Y-94507630D01*
X134607300Y-94417570D01*
X134589730Y-94329240D01*
X134555265Y-94246035D01*
X134505230Y-94171152D01*
X134441548Y-94107470D01*
X134366665Y-94057435D01*
X134283460Y-94022970D01*
X134195130Y-94005400D01*
X134105070Y-94005400D01*
X134016740Y-94022970D01*
X133933535Y-94057435D01*
X133858652Y-94107470D01*
X133794970Y-94171152D01*
X133744935Y-94246035D01*
X133710470Y-94329240D01*
X133692900Y-94417570D01*
X133591300Y-94417570D01*
X133573730Y-94329240D01*
X133539265Y-94246035D01*
X133489230Y-94171152D01*
X133425548Y-94107470D01*
X133350665Y-94057435D01*
X133267460Y-94022970D01*
X133179130Y-94005400D01*
X133089070Y-94005400D01*
X133000740Y-94022970D01*
X132917535Y-94057435D01*
X132842652Y-94107470D01*
X132778970Y-94171152D01*
X132728935Y-94246035D01*
X132694470Y-94329240D01*
X132676900Y-94417570D01*
X130715500Y-94417570D01*
X130715500Y-93715500D01*
X157694070Y-93715500D01*
X157677652Y-93726470D01*
M02*
