G04 #@! TF.GenerationSoftware,KiCad,Pcbnew,(5.1.4)-1*
G04 #@! TF.CreationDate,2019-10-25T18:27:15-07:00*
G04 #@! TF.ProjectId,base,62617365-2e6b-4696-9361-645f70636258,rev?*
G04 #@! TF.SameCoordinates,Original*
G04 #@! TF.FileFunction,Soldermask,Bot*
G04 #@! TF.FilePolarity,Negative*
%FSLAX46Y46*%
G04 Gerber Fmt 4.6, Leading zero omitted, Abs format (unit mm)*
G04 Created by KiCad (PCBNEW (5.1.4)-1) date 2019-10-25 18:27:15*
%MOMM*%
%LPD*%
G04 APERTURE LIST*
%ADD10C,0.050000*%
%ADD11C,0.100000*%
G04 APERTURE END LIST*
D10*
X166500000Y-93500000D02*
X130500000Y-93500000D01*
X130500000Y-93500000D02*
X130500000Y-127500000D01*
X166500000Y-127500000D02*
X166500000Y-93500000D01*
X130500000Y-127500000D02*
X166500000Y-127500000D01*
D11*
G36*
X160986056Y-124803759D02*
G01*
X161170081Y-124879985D01*
X161170083Y-124879986D01*
X161335703Y-124990649D01*
X161476551Y-125131497D01*
X161587214Y-125297117D01*
X161587215Y-125297119D01*
X161663441Y-125481144D01*
X161702300Y-125676504D01*
X161702300Y-125875696D01*
X161663441Y-126071056D01*
X161587215Y-126255081D01*
X161587214Y-126255083D01*
X161476551Y-126420703D01*
X161335703Y-126561551D01*
X161170083Y-126672214D01*
X161170082Y-126672215D01*
X161170081Y-126672215D01*
X160986056Y-126748441D01*
X160790696Y-126787300D01*
X160591504Y-126787300D01*
X160396144Y-126748441D01*
X160212119Y-126672215D01*
X160212118Y-126672215D01*
X160212117Y-126672214D01*
X160046497Y-126561551D01*
X159905649Y-126420703D01*
X159794986Y-126255083D01*
X159794985Y-126255081D01*
X159718759Y-126071056D01*
X159679900Y-125875696D01*
X159679900Y-125676504D01*
X159718759Y-125481144D01*
X159794985Y-125297119D01*
X159794986Y-125297117D01*
X159905649Y-125131497D01*
X160046497Y-124990649D01*
X160212117Y-124879986D01*
X160212119Y-124879985D01*
X160396144Y-124803759D01*
X160591504Y-124764900D01*
X160790696Y-124764900D01*
X160986056Y-124803759D01*
X160986056Y-124803759D01*
G37*
G36*
X154386056Y-124803759D02*
G01*
X154570081Y-124879985D01*
X154570083Y-124879986D01*
X154735703Y-124990649D01*
X154876551Y-125131497D01*
X154987214Y-125297117D01*
X154987215Y-125297119D01*
X155063441Y-125481144D01*
X155102300Y-125676504D01*
X155102300Y-125875696D01*
X155063441Y-126071056D01*
X154987215Y-126255081D01*
X154987214Y-126255083D01*
X154876551Y-126420703D01*
X154735703Y-126561551D01*
X154570083Y-126672214D01*
X154570082Y-126672215D01*
X154570081Y-126672215D01*
X154386056Y-126748441D01*
X154190696Y-126787300D01*
X153991504Y-126787300D01*
X153796144Y-126748441D01*
X153612119Y-126672215D01*
X153612118Y-126672215D01*
X153612117Y-126672214D01*
X153446497Y-126561551D01*
X153305649Y-126420703D01*
X153194986Y-126255083D01*
X153194985Y-126255081D01*
X153118759Y-126071056D01*
X153079900Y-125875696D01*
X153079900Y-125676504D01*
X153118759Y-125481144D01*
X153194985Y-125297119D01*
X153194986Y-125297117D01*
X153305649Y-125131497D01*
X153446497Y-124990649D01*
X153612117Y-124879986D01*
X153612119Y-124879985D01*
X153796144Y-124803759D01*
X153991504Y-124764900D01*
X154190696Y-124764900D01*
X154386056Y-124803759D01*
X154386056Y-124803759D01*
G37*
G36*
X161033707Y-119708877D02*
G01*
X161094229Y-119720916D01*
X161265262Y-119791760D01*
X161419187Y-119894610D01*
X161550092Y-120025515D01*
X161562073Y-120043446D01*
X161577618Y-120062388D01*
X161596560Y-120077933D01*
X161618170Y-120089485D01*
X161641619Y-120096598D01*
X161666006Y-120099000D01*
X162151000Y-120099000D01*
X162151000Y-121901000D01*
X160549000Y-121901000D01*
X160549000Y-121613060D01*
X160546598Y-121588674D01*
X160539485Y-121565225D01*
X160527934Y-121543614D01*
X160512389Y-121524672D01*
X160493447Y-121509127D01*
X160471835Y-121497576D01*
X160374941Y-121457442D01*
X160221013Y-121354590D01*
X160090110Y-121223687D01*
X159987259Y-121069760D01*
X159916416Y-120898728D01*
X159880300Y-120717164D01*
X159880300Y-120532036D01*
X159916416Y-120350472D01*
X159987259Y-120179440D01*
X160078128Y-120043446D01*
X160090110Y-120025513D01*
X160221013Y-119894610D01*
X160374938Y-119791760D01*
X160545971Y-119720916D01*
X160606493Y-119708877D01*
X160727536Y-119684800D01*
X160912664Y-119684800D01*
X161033707Y-119708877D01*
X161033707Y-119708877D01*
G37*
G36*
X165851000Y-119526000D02*
G01*
X164649000Y-119526000D01*
X164649000Y-114674000D01*
X165851000Y-114674000D01*
X165851000Y-119526000D01*
X165851000Y-119526000D01*
G37*
G36*
X161033707Y-117168877D02*
G01*
X161094229Y-117180916D01*
X161265262Y-117251760D01*
X161419187Y-117354610D01*
X161550090Y-117485513D01*
X161652940Y-117639438D01*
X161723784Y-117810471D01*
X161759900Y-117992038D01*
X161759900Y-118177162D01*
X161723784Y-118358729D01*
X161652940Y-118529762D01*
X161550090Y-118683687D01*
X161419187Y-118814590D01*
X161265262Y-118917440D01*
X161094229Y-118988284D01*
X161033707Y-119000323D01*
X160912664Y-119024400D01*
X160727536Y-119024400D01*
X160606493Y-119000323D01*
X160545971Y-118988284D01*
X160374938Y-118917440D01*
X160221013Y-118814590D01*
X160090110Y-118683687D01*
X159987260Y-118529762D01*
X159916416Y-118358729D01*
X159880300Y-118177162D01*
X159880300Y-117992038D01*
X159916416Y-117810471D01*
X159987260Y-117639438D01*
X160090110Y-117485513D01*
X160221013Y-117354610D01*
X160374938Y-117251760D01*
X160545971Y-117180916D01*
X160606493Y-117168877D01*
X160727536Y-117144800D01*
X160912664Y-117144800D01*
X161033707Y-117168877D01*
X161033707Y-117168877D01*
G37*
G36*
X149568300Y-116814600D02*
G01*
X148015900Y-116814600D01*
X148015900Y-115062200D01*
X149568300Y-115062200D01*
X149568300Y-116814600D01*
X149568300Y-116814600D01*
G37*
G36*
X152368300Y-116814600D02*
G01*
X150815900Y-116814600D01*
X150815900Y-115062200D01*
X152368300Y-115062200D01*
X152368300Y-116814600D01*
X152368300Y-116814600D01*
G37*
G36*
X161033707Y-114628877D02*
G01*
X161094229Y-114640916D01*
X161265262Y-114711760D01*
X161419187Y-114814610D01*
X161550090Y-114945513D01*
X161652940Y-115099438D01*
X161683825Y-115174000D01*
X161723784Y-115270472D01*
X161759900Y-115452036D01*
X161759900Y-115637164D01*
X161735823Y-115758207D01*
X161723784Y-115818729D01*
X161652940Y-115989762D01*
X161550090Y-116143687D01*
X161419187Y-116274590D01*
X161265262Y-116377440D01*
X161094229Y-116448284D01*
X161033707Y-116460323D01*
X160912664Y-116484400D01*
X160727536Y-116484400D01*
X160606493Y-116460323D01*
X160545971Y-116448284D01*
X160374938Y-116377440D01*
X160221013Y-116274590D01*
X160090110Y-116143687D01*
X159987260Y-115989762D01*
X159916416Y-115818729D01*
X159904377Y-115758207D01*
X159880300Y-115637164D01*
X159880300Y-115452036D01*
X159916416Y-115270472D01*
X159956376Y-115174000D01*
X159987260Y-115099438D01*
X160090110Y-114945513D01*
X160221013Y-114814610D01*
X160374938Y-114711760D01*
X160545971Y-114640916D01*
X160606493Y-114628877D01*
X160727536Y-114604800D01*
X160912664Y-114604800D01*
X161033707Y-114628877D01*
X161033707Y-114628877D01*
G37*
G36*
X147220300Y-116247600D02*
G01*
X146067900Y-116247600D01*
X146067900Y-115095200D01*
X147220300Y-115095200D01*
X147220300Y-116247600D01*
X147220300Y-116247600D01*
G37*
G36*
X145620300Y-116247600D02*
G01*
X144467900Y-116247600D01*
X144467900Y-115095200D01*
X145620300Y-115095200D01*
X145620300Y-116247600D01*
X145620300Y-116247600D01*
G37*
G36*
X161033707Y-112088877D02*
G01*
X161094229Y-112100916D01*
X161265262Y-112171760D01*
X161363407Y-112237339D01*
X161424162Y-112277934D01*
X161445773Y-112289485D01*
X161469222Y-112296598D01*
X161493608Y-112299000D01*
X162151000Y-112299000D01*
X162151000Y-114101000D01*
X160549000Y-114101000D01*
X160549000Y-113993060D01*
X160546598Y-113968674D01*
X160539485Y-113945225D01*
X160527934Y-113923614D01*
X160512389Y-113904672D01*
X160493447Y-113889127D01*
X160471835Y-113877576D01*
X160374941Y-113837442D01*
X160221013Y-113734590D01*
X160090110Y-113603687D01*
X160001718Y-113471400D01*
X159987260Y-113449762D01*
X159916416Y-113278729D01*
X159880300Y-113097162D01*
X159880300Y-112912038D01*
X159883677Y-112895063D01*
X159908666Y-112769432D01*
X159916416Y-112730471D01*
X159966509Y-112609535D01*
X159987259Y-112559440D01*
X159995079Y-112547737D01*
X160090110Y-112405513D01*
X160221013Y-112274610D01*
X160374938Y-112171760D01*
X160545971Y-112100916D01*
X160606493Y-112088877D01*
X160727536Y-112064800D01*
X160912664Y-112064800D01*
X161033707Y-112088877D01*
X161033707Y-112088877D01*
G37*
G36*
X141197600Y-113805100D02*
G01*
X140245200Y-113805100D01*
X140245200Y-112452700D01*
X141197600Y-112452700D01*
X141197600Y-113805100D01*
X141197600Y-113805100D01*
G37*
G36*
X142997600Y-113805100D02*
G01*
X142045200Y-113805100D01*
X142045200Y-112452700D01*
X142997600Y-112452700D01*
X142997600Y-113805100D01*
X142997600Y-113805100D01*
G37*
G36*
X145719132Y-113229930D02*
G01*
X145765318Y-113243940D01*
X145807882Y-113266691D01*
X145845191Y-113297309D01*
X145875809Y-113334618D01*
X145898560Y-113377182D01*
X145912570Y-113423368D01*
X145917301Y-113471399D01*
X145917301Y-113471401D01*
X145912570Y-113519432D01*
X145898560Y-113565618D01*
X145875809Y-113608182D01*
X145845191Y-113645491D01*
X145807882Y-113676109D01*
X145765318Y-113698860D01*
X145719132Y-113712870D01*
X145671101Y-113717601D01*
X145671099Y-113717601D01*
X145623068Y-113712870D01*
X145576882Y-113698860D01*
X145534318Y-113676109D01*
X145497009Y-113645491D01*
X145466391Y-113608182D01*
X145443640Y-113565618D01*
X145429630Y-113519432D01*
X145424899Y-113471401D01*
X145424899Y-113471399D01*
X145429630Y-113423368D01*
X145443640Y-113377182D01*
X145466391Y-113334618D01*
X145497009Y-113297309D01*
X145534318Y-113266691D01*
X145576882Y-113243940D01*
X145623068Y-113229930D01*
X145671099Y-113225199D01*
X145671101Y-113225199D01*
X145719132Y-113229930D01*
X145719132Y-113229930D01*
G37*
G36*
X148119132Y-113229930D02*
G01*
X148165318Y-113243940D01*
X148207882Y-113266691D01*
X148245191Y-113297309D01*
X148275809Y-113334618D01*
X148298560Y-113377182D01*
X148312570Y-113423368D01*
X148317301Y-113471399D01*
X148317301Y-113471401D01*
X148312570Y-113519432D01*
X148298560Y-113565618D01*
X148275809Y-113608182D01*
X148245191Y-113645491D01*
X148207882Y-113676109D01*
X148165318Y-113698860D01*
X148119132Y-113712870D01*
X148071101Y-113717601D01*
X148071099Y-113717601D01*
X148023068Y-113712870D01*
X147976882Y-113698860D01*
X147934318Y-113676109D01*
X147897009Y-113645491D01*
X147866391Y-113608182D01*
X147843640Y-113565618D01*
X147829630Y-113519432D01*
X147824899Y-113471401D01*
X147824899Y-113471399D01*
X147829630Y-113423368D01*
X147843640Y-113377182D01*
X147866391Y-113334618D01*
X147897009Y-113297309D01*
X147934318Y-113266691D01*
X147976882Y-113243940D01*
X148023068Y-113229930D01*
X148071099Y-113225199D01*
X148071101Y-113225199D01*
X148119132Y-113229930D01*
X148119132Y-113229930D01*
G37*
G36*
X147319132Y-113229930D02*
G01*
X147365318Y-113243940D01*
X147407882Y-113266691D01*
X147445191Y-113297309D01*
X147475809Y-113334618D01*
X147498560Y-113377182D01*
X147512570Y-113423368D01*
X147517301Y-113471399D01*
X147517301Y-113471401D01*
X147512570Y-113519432D01*
X147498560Y-113565618D01*
X147475809Y-113608182D01*
X147445191Y-113645491D01*
X147407882Y-113676109D01*
X147365318Y-113698860D01*
X147319132Y-113712870D01*
X147271101Y-113717601D01*
X147271099Y-113717601D01*
X147223068Y-113712870D01*
X147176882Y-113698860D01*
X147134318Y-113676109D01*
X147097009Y-113645491D01*
X147066391Y-113608182D01*
X147043640Y-113565618D01*
X147029630Y-113519432D01*
X147024899Y-113471401D01*
X147024899Y-113471399D01*
X147029630Y-113423368D01*
X147043640Y-113377182D01*
X147066391Y-113334618D01*
X147097009Y-113297309D01*
X147134318Y-113266691D01*
X147176882Y-113243940D01*
X147223068Y-113229930D01*
X147271099Y-113225199D01*
X147271101Y-113225199D01*
X147319132Y-113229930D01*
X147319132Y-113229930D01*
G37*
G36*
X144119132Y-113229930D02*
G01*
X144165318Y-113243940D01*
X144207882Y-113266691D01*
X144245191Y-113297309D01*
X144275809Y-113334618D01*
X144298560Y-113377182D01*
X144312570Y-113423368D01*
X144317301Y-113471399D01*
X144317301Y-113471401D01*
X144312570Y-113519432D01*
X144298560Y-113565618D01*
X144275809Y-113608182D01*
X144245191Y-113645491D01*
X144207882Y-113676109D01*
X144165318Y-113698860D01*
X144119132Y-113712870D01*
X144071101Y-113717601D01*
X144071099Y-113717601D01*
X144023068Y-113712870D01*
X143976882Y-113698860D01*
X143934318Y-113676109D01*
X143897009Y-113645491D01*
X143866391Y-113608182D01*
X143843640Y-113565618D01*
X143829630Y-113519432D01*
X143824899Y-113471401D01*
X143824899Y-113471399D01*
X143829630Y-113423368D01*
X143843640Y-113377182D01*
X143866391Y-113334618D01*
X143897009Y-113297309D01*
X143934318Y-113266691D01*
X143976882Y-113243940D01*
X144023068Y-113229930D01*
X144071099Y-113225199D01*
X144071101Y-113225199D01*
X144119132Y-113229930D01*
X144119132Y-113229930D01*
G37*
G36*
X144919132Y-113229930D02*
G01*
X144965318Y-113243940D01*
X145007882Y-113266691D01*
X145045191Y-113297309D01*
X145075809Y-113334618D01*
X145098560Y-113377182D01*
X145112570Y-113423368D01*
X145117301Y-113471399D01*
X145117301Y-113471401D01*
X145112570Y-113519432D01*
X145098560Y-113565618D01*
X145075809Y-113608182D01*
X145045191Y-113645491D01*
X145007882Y-113676109D01*
X144965318Y-113698860D01*
X144919132Y-113712870D01*
X144871101Y-113717601D01*
X144871099Y-113717601D01*
X144823068Y-113712870D01*
X144776882Y-113698860D01*
X144734318Y-113676109D01*
X144697009Y-113645491D01*
X144666391Y-113608182D01*
X144643640Y-113565618D01*
X144629630Y-113519432D01*
X144624899Y-113471401D01*
X144624899Y-113471399D01*
X144629630Y-113423368D01*
X144643640Y-113377182D01*
X144666391Y-113334618D01*
X144697009Y-113297309D01*
X144734318Y-113266691D01*
X144776882Y-113243940D01*
X144823068Y-113229930D01*
X144871099Y-113225199D01*
X144871101Y-113225199D01*
X144919132Y-113229930D01*
X144919132Y-113229930D01*
G37*
G36*
X146519132Y-113229930D02*
G01*
X146565318Y-113243940D01*
X146607882Y-113266691D01*
X146645191Y-113297309D01*
X146675809Y-113334618D01*
X146698560Y-113377182D01*
X146712570Y-113423368D01*
X146717301Y-113471399D01*
X146717301Y-113471401D01*
X146712570Y-113519432D01*
X146698560Y-113565618D01*
X146675809Y-113608182D01*
X146645191Y-113645491D01*
X146607882Y-113676109D01*
X146565318Y-113698860D01*
X146519132Y-113712870D01*
X146471101Y-113717601D01*
X146471099Y-113717601D01*
X146423068Y-113712870D01*
X146376882Y-113698860D01*
X146334318Y-113676109D01*
X146297009Y-113645491D01*
X146266391Y-113608182D01*
X146243640Y-113565618D01*
X146229630Y-113519432D01*
X146224899Y-113471401D01*
X146224899Y-113471399D01*
X146229630Y-113423368D01*
X146243640Y-113377182D01*
X146266391Y-113334618D01*
X146297009Y-113297309D01*
X146334318Y-113266691D01*
X146376882Y-113243940D01*
X146423068Y-113229930D01*
X146471099Y-113225199D01*
X146471101Y-113225199D01*
X146519132Y-113229930D01*
X146519132Y-113229930D01*
G37*
G36*
X144919132Y-112479930D02*
G01*
X144965318Y-112493940D01*
X145007882Y-112516691D01*
X145045191Y-112547309D01*
X145075809Y-112584618D01*
X145098560Y-112627182D01*
X145112570Y-112673368D01*
X145117301Y-112721399D01*
X145117301Y-112721401D01*
X145112570Y-112769432D01*
X145098560Y-112815618D01*
X145075809Y-112858182D01*
X145045191Y-112895491D01*
X145007882Y-112926109D01*
X144965318Y-112948860D01*
X144919132Y-112962870D01*
X144871101Y-112967601D01*
X144871099Y-112967601D01*
X144823068Y-112962870D01*
X144776882Y-112948860D01*
X144734318Y-112926109D01*
X144697009Y-112895491D01*
X144666391Y-112858182D01*
X144643640Y-112815618D01*
X144629630Y-112769432D01*
X144624899Y-112721401D01*
X144624899Y-112721399D01*
X144629630Y-112673368D01*
X144643640Y-112627182D01*
X144666391Y-112584618D01*
X144697009Y-112547309D01*
X144734318Y-112516691D01*
X144776882Y-112493940D01*
X144823068Y-112479930D01*
X144871099Y-112475199D01*
X144871101Y-112475199D01*
X144919132Y-112479930D01*
X144919132Y-112479930D01*
G37*
G36*
X148119132Y-112479930D02*
G01*
X148165318Y-112493940D01*
X148207882Y-112516691D01*
X148245191Y-112547309D01*
X148275809Y-112584618D01*
X148298560Y-112627182D01*
X148312570Y-112673368D01*
X148317301Y-112721399D01*
X148317301Y-112721401D01*
X148312570Y-112769432D01*
X148298560Y-112815618D01*
X148275809Y-112858182D01*
X148245191Y-112895491D01*
X148207882Y-112926109D01*
X148165318Y-112948860D01*
X148119132Y-112962870D01*
X148071101Y-112967601D01*
X148071099Y-112967601D01*
X148023068Y-112962870D01*
X147976882Y-112948860D01*
X147934318Y-112926109D01*
X147897009Y-112895491D01*
X147866391Y-112858182D01*
X147843640Y-112815618D01*
X147829630Y-112769432D01*
X147824899Y-112721401D01*
X147824899Y-112721399D01*
X147829630Y-112673368D01*
X147843640Y-112627182D01*
X147866391Y-112584618D01*
X147897009Y-112547309D01*
X147934318Y-112516691D01*
X147976882Y-112493940D01*
X148023068Y-112479930D01*
X148071099Y-112475199D01*
X148071101Y-112475199D01*
X148119132Y-112479930D01*
X148119132Y-112479930D01*
G37*
G36*
X144119132Y-112479930D02*
G01*
X144165318Y-112493940D01*
X144207882Y-112516691D01*
X144245191Y-112547309D01*
X144275809Y-112584618D01*
X144298560Y-112627182D01*
X144312570Y-112673368D01*
X144317301Y-112721399D01*
X144317301Y-112721401D01*
X144312570Y-112769432D01*
X144298560Y-112815618D01*
X144275809Y-112858182D01*
X144245191Y-112895491D01*
X144207882Y-112926109D01*
X144165318Y-112948860D01*
X144119132Y-112962870D01*
X144071101Y-112967601D01*
X144071099Y-112967601D01*
X144023068Y-112962870D01*
X143976882Y-112948860D01*
X143934318Y-112926109D01*
X143897009Y-112895491D01*
X143866391Y-112858182D01*
X143843640Y-112815618D01*
X143829630Y-112769432D01*
X143824899Y-112721401D01*
X143824899Y-112721399D01*
X143829630Y-112673368D01*
X143843640Y-112627182D01*
X143866391Y-112584618D01*
X143897009Y-112547309D01*
X143934318Y-112516691D01*
X143976882Y-112493940D01*
X144023068Y-112479930D01*
X144071099Y-112475199D01*
X144071101Y-112475199D01*
X144119132Y-112479930D01*
X144119132Y-112479930D01*
G37*
G36*
X145719132Y-112479930D02*
G01*
X145765318Y-112493940D01*
X145807882Y-112516691D01*
X145845191Y-112547309D01*
X145875809Y-112584618D01*
X145898560Y-112627182D01*
X145912570Y-112673368D01*
X145917301Y-112721399D01*
X145917301Y-112721401D01*
X145912570Y-112769432D01*
X145898560Y-112815618D01*
X145875809Y-112858182D01*
X145845191Y-112895491D01*
X145807882Y-112926109D01*
X145765318Y-112948860D01*
X145719132Y-112962870D01*
X145671101Y-112967601D01*
X145671099Y-112967601D01*
X145623068Y-112962870D01*
X145576882Y-112948860D01*
X145534318Y-112926109D01*
X145497009Y-112895491D01*
X145466391Y-112858182D01*
X145443640Y-112815618D01*
X145429630Y-112769432D01*
X145424899Y-112721401D01*
X145424899Y-112721399D01*
X145429630Y-112673368D01*
X145443640Y-112627182D01*
X145466391Y-112584618D01*
X145497009Y-112547309D01*
X145534318Y-112516691D01*
X145576882Y-112493940D01*
X145623068Y-112479930D01*
X145671099Y-112475199D01*
X145671101Y-112475199D01*
X145719132Y-112479930D01*
X145719132Y-112479930D01*
G37*
G36*
X146519132Y-112479930D02*
G01*
X146565318Y-112493940D01*
X146607882Y-112516691D01*
X146645191Y-112547309D01*
X146675809Y-112584618D01*
X146698560Y-112627182D01*
X146712570Y-112673368D01*
X146717301Y-112721399D01*
X146717301Y-112721401D01*
X146712570Y-112769432D01*
X146698560Y-112815618D01*
X146675809Y-112858182D01*
X146645191Y-112895491D01*
X146607882Y-112926109D01*
X146565318Y-112948860D01*
X146519132Y-112962870D01*
X146471101Y-112967601D01*
X146471099Y-112967601D01*
X146423068Y-112962870D01*
X146376882Y-112948860D01*
X146334318Y-112926109D01*
X146297009Y-112895491D01*
X146266391Y-112858182D01*
X146243640Y-112815618D01*
X146229630Y-112769432D01*
X146224899Y-112721401D01*
X146224899Y-112721399D01*
X146229630Y-112673368D01*
X146243640Y-112627182D01*
X146266391Y-112584618D01*
X146297009Y-112547309D01*
X146334318Y-112516691D01*
X146376882Y-112493940D01*
X146423068Y-112479930D01*
X146471099Y-112475199D01*
X146471101Y-112475199D01*
X146519132Y-112479930D01*
X146519132Y-112479930D01*
G37*
G36*
X147319132Y-112479930D02*
G01*
X147365318Y-112493940D01*
X147407882Y-112516691D01*
X147445191Y-112547309D01*
X147475809Y-112584618D01*
X147498560Y-112627182D01*
X147512570Y-112673368D01*
X147517301Y-112721399D01*
X147517301Y-112721401D01*
X147512570Y-112769432D01*
X147498560Y-112815618D01*
X147475809Y-112858182D01*
X147445191Y-112895491D01*
X147407882Y-112926109D01*
X147365318Y-112948860D01*
X147319132Y-112962870D01*
X147271101Y-112967601D01*
X147271099Y-112967601D01*
X147223068Y-112962870D01*
X147176882Y-112948860D01*
X147134318Y-112926109D01*
X147097009Y-112895491D01*
X147066391Y-112858182D01*
X147043640Y-112815618D01*
X147029630Y-112769432D01*
X147024899Y-112721401D01*
X147024899Y-112721399D01*
X147029630Y-112673368D01*
X147043640Y-112627182D01*
X147066391Y-112584618D01*
X147097009Y-112547309D01*
X147134318Y-112516691D01*
X147176882Y-112493940D01*
X147223068Y-112479930D01*
X147271099Y-112475199D01*
X147271101Y-112475199D01*
X147319132Y-112479930D01*
X147319132Y-112479930D01*
G37*
G36*
X150747300Y-112447600D02*
G01*
X149594900Y-112447600D01*
X149594900Y-111295200D01*
X150747300Y-111295200D01*
X150747300Y-112447600D01*
X150747300Y-112447600D01*
G37*
G36*
X144119132Y-111729930D02*
G01*
X144165318Y-111743940D01*
X144207882Y-111766691D01*
X144245191Y-111797309D01*
X144275809Y-111834618D01*
X144298560Y-111877182D01*
X144312570Y-111923368D01*
X144317301Y-111971399D01*
X144317301Y-111971401D01*
X144312570Y-112019432D01*
X144298560Y-112065618D01*
X144275809Y-112108182D01*
X144245191Y-112145491D01*
X144207882Y-112176109D01*
X144165318Y-112198860D01*
X144119132Y-112212870D01*
X144071101Y-112217601D01*
X144071099Y-112217601D01*
X144023068Y-112212870D01*
X143976882Y-112198860D01*
X143934318Y-112176109D01*
X143897009Y-112145491D01*
X143866391Y-112108182D01*
X143843640Y-112065618D01*
X143829630Y-112019432D01*
X143824899Y-111971401D01*
X143824899Y-111971399D01*
X143829630Y-111923368D01*
X143843640Y-111877182D01*
X143866391Y-111834618D01*
X143897009Y-111797309D01*
X143934318Y-111766691D01*
X143976882Y-111743940D01*
X144023068Y-111729930D01*
X144071099Y-111725199D01*
X144071101Y-111725199D01*
X144119132Y-111729930D01*
X144119132Y-111729930D01*
G37*
G36*
X148119132Y-111729930D02*
G01*
X148165318Y-111743940D01*
X148207882Y-111766691D01*
X148245191Y-111797309D01*
X148275809Y-111834618D01*
X148298560Y-111877182D01*
X148312570Y-111923368D01*
X148317301Y-111971399D01*
X148317301Y-111971401D01*
X148312570Y-112019432D01*
X148298560Y-112065618D01*
X148275809Y-112108182D01*
X148245191Y-112145491D01*
X148207882Y-112176109D01*
X148165318Y-112198860D01*
X148119132Y-112212870D01*
X148071101Y-112217601D01*
X148071099Y-112217601D01*
X148023068Y-112212870D01*
X147976882Y-112198860D01*
X147934318Y-112176109D01*
X147897009Y-112145491D01*
X147866391Y-112108182D01*
X147843640Y-112065618D01*
X147829630Y-112019432D01*
X147824899Y-111971401D01*
X147824899Y-111971399D01*
X147829630Y-111923368D01*
X147843640Y-111877182D01*
X147866391Y-111834618D01*
X147897009Y-111797309D01*
X147934318Y-111766691D01*
X147976882Y-111743940D01*
X148023068Y-111729930D01*
X148071099Y-111725199D01*
X148071101Y-111725199D01*
X148119132Y-111729930D01*
X148119132Y-111729930D01*
G37*
G36*
X142997600Y-112005100D02*
G01*
X141845200Y-112005100D01*
X141845200Y-110852700D01*
X142997600Y-110852700D01*
X142997600Y-112005100D01*
X142997600Y-112005100D01*
G37*
G36*
X141397600Y-112005100D02*
G01*
X140245200Y-112005100D01*
X140245200Y-110852700D01*
X141397600Y-110852700D01*
X141397600Y-112005100D01*
X141397600Y-112005100D01*
G37*
G36*
X144119132Y-110979930D02*
G01*
X144165318Y-110993940D01*
X144207882Y-111016691D01*
X144245191Y-111047309D01*
X144275809Y-111084618D01*
X144298560Y-111127182D01*
X144312570Y-111173368D01*
X144317301Y-111221399D01*
X144317301Y-111221401D01*
X144312570Y-111269432D01*
X144298560Y-111315618D01*
X144275809Y-111358182D01*
X144245191Y-111395491D01*
X144207882Y-111426109D01*
X144165318Y-111448860D01*
X144119132Y-111462870D01*
X144071101Y-111467601D01*
X144071099Y-111467601D01*
X144023068Y-111462870D01*
X143976882Y-111448860D01*
X143934318Y-111426109D01*
X143897009Y-111395491D01*
X143866391Y-111358182D01*
X143843640Y-111315618D01*
X143829630Y-111269432D01*
X143824899Y-111221401D01*
X143824899Y-111221399D01*
X143829630Y-111173368D01*
X143843640Y-111127182D01*
X143866391Y-111084618D01*
X143897009Y-111047309D01*
X143934318Y-111016691D01*
X143976882Y-110993940D01*
X144023068Y-110979930D01*
X144071099Y-110975199D01*
X144071101Y-110975199D01*
X144119132Y-110979930D01*
X144119132Y-110979930D01*
G37*
G36*
X148119132Y-110979930D02*
G01*
X148165318Y-110993940D01*
X148207882Y-111016691D01*
X148245191Y-111047309D01*
X148275809Y-111084618D01*
X148298560Y-111127182D01*
X148312570Y-111173368D01*
X148317301Y-111221399D01*
X148317301Y-111221401D01*
X148312570Y-111269432D01*
X148298560Y-111315618D01*
X148275809Y-111358182D01*
X148245191Y-111395491D01*
X148207882Y-111426109D01*
X148165318Y-111448860D01*
X148119132Y-111462870D01*
X148071101Y-111467601D01*
X148071099Y-111467601D01*
X148023068Y-111462870D01*
X147976882Y-111448860D01*
X147934318Y-111426109D01*
X147897009Y-111395491D01*
X147866391Y-111358182D01*
X147843640Y-111315618D01*
X147829630Y-111269432D01*
X147824899Y-111221401D01*
X147824899Y-111221399D01*
X147829630Y-111173368D01*
X147843640Y-111127182D01*
X147866391Y-111084618D01*
X147897009Y-111047309D01*
X147934318Y-111016691D01*
X147976882Y-110993940D01*
X148023068Y-110979930D01*
X148071099Y-110975199D01*
X148071101Y-110975199D01*
X148119132Y-110979930D01*
X148119132Y-110979930D01*
G37*
G36*
X161025822Y-109547309D02*
G01*
X161094229Y-109560916D01*
X161265262Y-109631760D01*
X161419187Y-109734610D01*
X161550090Y-109865513D01*
X161614747Y-109962278D01*
X161652941Y-110019440D01*
X161723784Y-110190472D01*
X161759900Y-110372036D01*
X161759900Y-110557164D01*
X161742415Y-110645063D01*
X161723784Y-110738729D01*
X161652940Y-110909762D01*
X161550090Y-111063687D01*
X161419187Y-111194590D01*
X161265262Y-111297440D01*
X161094229Y-111368284D01*
X161033707Y-111380323D01*
X160912664Y-111404400D01*
X160727536Y-111404400D01*
X160606493Y-111380323D01*
X160545971Y-111368284D01*
X160374938Y-111297440D01*
X160221013Y-111194590D01*
X160090110Y-111063687D01*
X159987260Y-110909762D01*
X159916416Y-110738729D01*
X159897785Y-110645063D01*
X159880300Y-110557164D01*
X159880300Y-110372036D01*
X159916416Y-110190472D01*
X159987259Y-110019440D01*
X160025454Y-109962278D01*
X160090110Y-109865513D01*
X160221013Y-109734610D01*
X160374938Y-109631760D01*
X160545971Y-109560916D01*
X160614378Y-109547309D01*
X160727536Y-109524800D01*
X160912664Y-109524800D01*
X161025822Y-109547309D01*
X161025822Y-109547309D01*
G37*
G36*
X150747300Y-110847600D02*
G01*
X149594900Y-110847600D01*
X149594900Y-109695200D01*
X150747300Y-109695200D01*
X150747300Y-110847600D01*
X150747300Y-110847600D01*
G37*
G36*
X148119132Y-110229930D02*
G01*
X148165318Y-110243940D01*
X148207882Y-110266691D01*
X148245191Y-110297309D01*
X148275809Y-110334618D01*
X148298560Y-110377182D01*
X148312570Y-110423368D01*
X148317301Y-110471399D01*
X148317301Y-110471401D01*
X148312570Y-110519432D01*
X148298560Y-110565618D01*
X148275809Y-110608182D01*
X148245191Y-110645491D01*
X148207882Y-110676109D01*
X148165318Y-110698860D01*
X148119132Y-110712870D01*
X148071101Y-110717601D01*
X148071099Y-110717601D01*
X148023068Y-110712870D01*
X147976882Y-110698860D01*
X147934318Y-110676109D01*
X147897009Y-110645491D01*
X147866391Y-110608182D01*
X147843640Y-110565618D01*
X147829630Y-110519432D01*
X147824899Y-110471401D01*
X147824899Y-110471399D01*
X147829630Y-110423368D01*
X147843640Y-110377182D01*
X147866391Y-110334618D01*
X147897009Y-110297309D01*
X147934318Y-110266691D01*
X147976882Y-110243940D01*
X148023068Y-110229930D01*
X148071099Y-110225199D01*
X148071101Y-110225199D01*
X148119132Y-110229930D01*
X148119132Y-110229930D01*
G37*
G36*
X147319132Y-110229930D02*
G01*
X147365318Y-110243940D01*
X147407882Y-110266691D01*
X147445191Y-110297309D01*
X147475809Y-110334618D01*
X147498560Y-110377182D01*
X147512570Y-110423368D01*
X147517301Y-110471399D01*
X147517301Y-110471401D01*
X147512570Y-110519432D01*
X147498560Y-110565618D01*
X147475809Y-110608182D01*
X147445191Y-110645491D01*
X147407882Y-110676109D01*
X147365318Y-110698860D01*
X147319132Y-110712870D01*
X147271101Y-110717601D01*
X147271099Y-110717601D01*
X147223068Y-110712870D01*
X147176882Y-110698860D01*
X147134318Y-110676109D01*
X147097009Y-110645491D01*
X147066391Y-110608182D01*
X147043640Y-110565618D01*
X147029630Y-110519432D01*
X147024899Y-110471401D01*
X147024899Y-110471399D01*
X147029630Y-110423368D01*
X147043640Y-110377182D01*
X147066391Y-110334618D01*
X147097009Y-110297309D01*
X147134318Y-110266691D01*
X147176882Y-110243940D01*
X147223068Y-110229930D01*
X147271099Y-110225199D01*
X147271101Y-110225199D01*
X147319132Y-110229930D01*
X147319132Y-110229930D01*
G37*
G36*
X146519132Y-110229930D02*
G01*
X146565318Y-110243940D01*
X146607882Y-110266691D01*
X146645191Y-110297309D01*
X146675809Y-110334618D01*
X146698560Y-110377182D01*
X146712570Y-110423368D01*
X146717301Y-110471399D01*
X146717301Y-110471401D01*
X146712570Y-110519432D01*
X146698560Y-110565618D01*
X146675809Y-110608182D01*
X146645191Y-110645491D01*
X146607882Y-110676109D01*
X146565318Y-110698860D01*
X146519132Y-110712870D01*
X146471101Y-110717601D01*
X146471099Y-110717601D01*
X146423068Y-110712870D01*
X146376882Y-110698860D01*
X146334318Y-110676109D01*
X146297009Y-110645491D01*
X146266391Y-110608182D01*
X146243640Y-110565618D01*
X146229630Y-110519432D01*
X146224899Y-110471401D01*
X146224899Y-110471399D01*
X146229630Y-110423368D01*
X146243640Y-110377182D01*
X146266391Y-110334618D01*
X146297009Y-110297309D01*
X146334318Y-110266691D01*
X146376882Y-110243940D01*
X146423068Y-110229930D01*
X146471099Y-110225199D01*
X146471101Y-110225199D01*
X146519132Y-110229930D01*
X146519132Y-110229930D01*
G37*
G36*
X145719132Y-110229930D02*
G01*
X145765318Y-110243940D01*
X145807882Y-110266691D01*
X145845191Y-110297309D01*
X145875809Y-110334618D01*
X145898560Y-110377182D01*
X145912570Y-110423368D01*
X145917301Y-110471399D01*
X145917301Y-110471401D01*
X145912570Y-110519432D01*
X145898560Y-110565618D01*
X145875809Y-110608182D01*
X145845191Y-110645491D01*
X145807882Y-110676109D01*
X145765318Y-110698860D01*
X145719132Y-110712870D01*
X145671101Y-110717601D01*
X145671099Y-110717601D01*
X145623068Y-110712870D01*
X145576882Y-110698860D01*
X145534318Y-110676109D01*
X145497009Y-110645491D01*
X145466391Y-110608182D01*
X145443640Y-110565618D01*
X145429630Y-110519432D01*
X145424899Y-110471401D01*
X145424899Y-110471399D01*
X145429630Y-110423368D01*
X145443640Y-110377182D01*
X145466391Y-110334618D01*
X145497009Y-110297309D01*
X145534318Y-110266691D01*
X145576882Y-110243940D01*
X145623068Y-110229930D01*
X145671099Y-110225199D01*
X145671101Y-110225199D01*
X145719132Y-110229930D01*
X145719132Y-110229930D01*
G37*
G36*
X144919132Y-110229930D02*
G01*
X144965318Y-110243940D01*
X145007882Y-110266691D01*
X145045191Y-110297309D01*
X145075809Y-110334618D01*
X145098560Y-110377182D01*
X145112570Y-110423368D01*
X145117301Y-110471399D01*
X145117301Y-110471401D01*
X145112570Y-110519432D01*
X145098560Y-110565618D01*
X145075809Y-110608182D01*
X145045191Y-110645491D01*
X145007882Y-110676109D01*
X144965318Y-110698860D01*
X144919132Y-110712870D01*
X144871101Y-110717601D01*
X144871099Y-110717601D01*
X144823068Y-110712870D01*
X144776882Y-110698860D01*
X144734318Y-110676109D01*
X144697009Y-110645491D01*
X144666391Y-110608182D01*
X144643640Y-110565618D01*
X144629630Y-110519432D01*
X144624899Y-110471401D01*
X144624899Y-110471399D01*
X144629630Y-110423368D01*
X144643640Y-110377182D01*
X144666391Y-110334618D01*
X144697009Y-110297309D01*
X144734318Y-110266691D01*
X144776882Y-110243940D01*
X144823068Y-110229930D01*
X144871099Y-110225199D01*
X144871101Y-110225199D01*
X144919132Y-110229930D01*
X144919132Y-110229930D01*
G37*
G36*
X144119132Y-110229930D02*
G01*
X144165318Y-110243940D01*
X144207882Y-110266691D01*
X144245191Y-110297309D01*
X144275809Y-110334618D01*
X144298560Y-110377182D01*
X144312570Y-110423368D01*
X144317301Y-110471399D01*
X144317301Y-110471401D01*
X144312570Y-110519432D01*
X144298560Y-110565618D01*
X144275809Y-110608182D01*
X144245191Y-110645491D01*
X144207882Y-110676109D01*
X144165318Y-110698860D01*
X144119132Y-110712870D01*
X144071101Y-110717601D01*
X144071099Y-110717601D01*
X144023068Y-110712870D01*
X143976882Y-110698860D01*
X143934318Y-110676109D01*
X143897009Y-110645491D01*
X143866391Y-110608182D01*
X143843640Y-110565618D01*
X143829630Y-110519432D01*
X143824899Y-110471401D01*
X143824899Y-110471399D01*
X143829630Y-110423368D01*
X143843640Y-110377182D01*
X143866391Y-110334618D01*
X143897009Y-110297309D01*
X143934318Y-110266691D01*
X143976882Y-110243940D01*
X144023068Y-110229930D01*
X144071099Y-110225199D01*
X144071101Y-110225199D01*
X144119132Y-110229930D01*
X144119132Y-110229930D01*
G37*
G36*
X144919132Y-109479930D02*
G01*
X144965318Y-109493940D01*
X145007882Y-109516691D01*
X145045191Y-109547309D01*
X145075809Y-109584618D01*
X145098560Y-109627182D01*
X145112570Y-109673368D01*
X145117301Y-109721399D01*
X145117301Y-109721401D01*
X145112570Y-109769432D01*
X145098560Y-109815618D01*
X145075809Y-109858182D01*
X145045191Y-109895491D01*
X145007882Y-109926109D01*
X144965318Y-109948860D01*
X144919132Y-109962870D01*
X144871101Y-109967601D01*
X144871099Y-109967601D01*
X144823068Y-109962870D01*
X144776882Y-109948860D01*
X144734318Y-109926109D01*
X144697009Y-109895491D01*
X144666391Y-109858182D01*
X144643640Y-109815618D01*
X144629630Y-109769432D01*
X144624899Y-109721401D01*
X144624899Y-109721399D01*
X144629630Y-109673368D01*
X144643640Y-109627182D01*
X144666391Y-109584618D01*
X144697009Y-109547309D01*
X144734318Y-109516691D01*
X144776882Y-109493940D01*
X144823068Y-109479930D01*
X144871099Y-109475199D01*
X144871101Y-109475199D01*
X144919132Y-109479930D01*
X144919132Y-109479930D01*
G37*
G36*
X144119132Y-109479930D02*
G01*
X144165318Y-109493940D01*
X144207882Y-109516691D01*
X144245191Y-109547309D01*
X144275809Y-109584618D01*
X144298560Y-109627182D01*
X144312570Y-109673368D01*
X144317301Y-109721399D01*
X144317301Y-109721401D01*
X144312570Y-109769432D01*
X144298560Y-109815618D01*
X144275809Y-109858182D01*
X144245191Y-109895491D01*
X144207882Y-109926109D01*
X144165318Y-109948860D01*
X144119132Y-109962870D01*
X144071101Y-109967601D01*
X144071099Y-109967601D01*
X144023068Y-109962870D01*
X143976882Y-109948860D01*
X143934318Y-109926109D01*
X143897009Y-109895491D01*
X143866391Y-109858182D01*
X143843640Y-109815618D01*
X143829630Y-109769432D01*
X143824899Y-109721401D01*
X143824899Y-109721399D01*
X143829630Y-109673368D01*
X143843640Y-109627182D01*
X143866391Y-109584618D01*
X143897009Y-109547309D01*
X143934318Y-109516691D01*
X143976882Y-109493940D01*
X144023068Y-109479930D01*
X144071099Y-109475199D01*
X144071101Y-109475199D01*
X144119132Y-109479930D01*
X144119132Y-109479930D01*
G37*
G36*
X145719132Y-109479930D02*
G01*
X145765318Y-109493940D01*
X145807882Y-109516691D01*
X145845191Y-109547309D01*
X145875809Y-109584618D01*
X145898560Y-109627182D01*
X145912570Y-109673368D01*
X145917301Y-109721399D01*
X145917301Y-109721401D01*
X145912570Y-109769432D01*
X145898560Y-109815618D01*
X145875809Y-109858182D01*
X145845191Y-109895491D01*
X145807882Y-109926109D01*
X145765318Y-109948860D01*
X145719132Y-109962870D01*
X145671101Y-109967601D01*
X145671099Y-109967601D01*
X145623068Y-109962870D01*
X145576882Y-109948860D01*
X145534318Y-109926109D01*
X145497009Y-109895491D01*
X145466391Y-109858182D01*
X145443640Y-109815618D01*
X145429630Y-109769432D01*
X145424899Y-109721401D01*
X145424899Y-109721399D01*
X145429630Y-109673368D01*
X145443640Y-109627182D01*
X145466391Y-109584618D01*
X145497009Y-109547309D01*
X145534318Y-109516691D01*
X145576882Y-109493940D01*
X145623068Y-109479930D01*
X145671099Y-109475199D01*
X145671101Y-109475199D01*
X145719132Y-109479930D01*
X145719132Y-109479930D01*
G37*
G36*
X146519132Y-109479930D02*
G01*
X146565318Y-109493940D01*
X146607882Y-109516691D01*
X146645191Y-109547309D01*
X146675809Y-109584618D01*
X146698560Y-109627182D01*
X146712570Y-109673368D01*
X146717301Y-109721399D01*
X146717301Y-109721401D01*
X146712570Y-109769432D01*
X146698560Y-109815618D01*
X146675809Y-109858182D01*
X146645191Y-109895491D01*
X146607882Y-109926109D01*
X146565318Y-109948860D01*
X146519132Y-109962870D01*
X146471101Y-109967601D01*
X146471099Y-109967601D01*
X146423068Y-109962870D01*
X146376882Y-109948860D01*
X146334318Y-109926109D01*
X146297009Y-109895491D01*
X146266391Y-109858182D01*
X146243640Y-109815618D01*
X146229630Y-109769432D01*
X146224899Y-109721401D01*
X146224899Y-109721399D01*
X146229630Y-109673368D01*
X146243640Y-109627182D01*
X146266391Y-109584618D01*
X146297009Y-109547309D01*
X146334318Y-109516691D01*
X146376882Y-109493940D01*
X146423068Y-109479930D01*
X146471099Y-109475199D01*
X146471101Y-109475199D01*
X146519132Y-109479930D01*
X146519132Y-109479930D01*
G37*
G36*
X147319132Y-109479930D02*
G01*
X147365318Y-109493940D01*
X147407882Y-109516691D01*
X147445191Y-109547309D01*
X147475809Y-109584618D01*
X147498560Y-109627182D01*
X147512570Y-109673368D01*
X147517301Y-109721399D01*
X147517301Y-109721401D01*
X147512570Y-109769432D01*
X147498560Y-109815618D01*
X147475809Y-109858182D01*
X147445191Y-109895491D01*
X147407882Y-109926109D01*
X147365318Y-109948860D01*
X147319132Y-109962870D01*
X147271101Y-109967601D01*
X147271099Y-109967601D01*
X147223068Y-109962870D01*
X147176882Y-109948860D01*
X147134318Y-109926109D01*
X147097009Y-109895491D01*
X147066391Y-109858182D01*
X147043640Y-109815618D01*
X147029630Y-109769432D01*
X147024899Y-109721401D01*
X147024899Y-109721399D01*
X147029630Y-109673368D01*
X147043640Y-109627182D01*
X147066391Y-109584618D01*
X147097009Y-109547309D01*
X147134318Y-109516691D01*
X147176882Y-109493940D01*
X147223068Y-109479930D01*
X147271099Y-109475199D01*
X147271101Y-109475199D01*
X147319132Y-109479930D01*
X147319132Y-109479930D01*
G37*
G36*
X148119132Y-109479930D02*
G01*
X148165318Y-109493940D01*
X148207882Y-109516691D01*
X148245191Y-109547309D01*
X148275809Y-109584618D01*
X148298560Y-109627182D01*
X148312570Y-109673368D01*
X148317301Y-109721399D01*
X148317301Y-109721401D01*
X148312570Y-109769432D01*
X148298560Y-109815618D01*
X148275809Y-109858182D01*
X148245191Y-109895491D01*
X148207882Y-109926109D01*
X148165318Y-109948860D01*
X148119132Y-109962870D01*
X148071101Y-109967601D01*
X148071099Y-109967601D01*
X148023068Y-109962870D01*
X147976882Y-109948860D01*
X147934318Y-109926109D01*
X147897009Y-109895491D01*
X147866391Y-109858182D01*
X147843640Y-109815618D01*
X147829630Y-109769432D01*
X147824899Y-109721401D01*
X147824899Y-109721399D01*
X147829630Y-109673368D01*
X147843640Y-109627182D01*
X147866391Y-109584618D01*
X147897009Y-109547309D01*
X147934318Y-109516691D01*
X147976882Y-109493940D01*
X148023068Y-109479930D01*
X148071099Y-109475199D01*
X148071101Y-109475199D01*
X148119132Y-109479930D01*
X148119132Y-109479930D01*
G37*
G36*
X161033707Y-107008877D02*
G01*
X161094229Y-107020916D01*
X161265262Y-107091760D01*
X161419187Y-107194610D01*
X161550090Y-107325513D01*
X161652940Y-107479438D01*
X161723784Y-107650471D01*
X161759900Y-107832038D01*
X161759900Y-108017162D01*
X161723784Y-108198729D01*
X161652940Y-108369762D01*
X161550090Y-108523687D01*
X161419187Y-108654590D01*
X161265262Y-108757440D01*
X161094229Y-108828284D01*
X161033707Y-108840323D01*
X160912664Y-108864400D01*
X160727536Y-108864400D01*
X160606493Y-108840323D01*
X160545971Y-108828284D01*
X160374938Y-108757440D01*
X160221013Y-108654590D01*
X160090110Y-108523687D01*
X159987260Y-108369762D01*
X159916416Y-108198729D01*
X159880300Y-108017162D01*
X159880300Y-107832038D01*
X159916416Y-107650471D01*
X159987260Y-107479438D01*
X160090110Y-107325513D01*
X160221013Y-107194610D01*
X160374938Y-107091760D01*
X160545971Y-107020916D01*
X160606493Y-107008877D01*
X160727536Y-106984800D01*
X160912664Y-106984800D01*
X161033707Y-107008877D01*
X161033707Y-107008877D01*
G37*
G36*
X150747300Y-108747600D02*
G01*
X149594900Y-108747600D01*
X149594900Y-107595200D01*
X150747300Y-107595200D01*
X150747300Y-108747600D01*
X150747300Y-108747600D01*
G37*
G36*
X148847306Y-107847571D02*
G01*
X147694906Y-107847571D01*
X147694906Y-106695171D01*
X148847306Y-106695171D01*
X148847306Y-107847571D01*
X148847306Y-107847571D01*
G37*
G36*
X147247306Y-107847571D02*
G01*
X146094906Y-107847571D01*
X146094906Y-106695171D01*
X147247306Y-106695171D01*
X147247306Y-107847571D01*
X147247306Y-107847571D01*
G37*
G36*
X150747300Y-107147600D02*
G01*
X149594900Y-107147600D01*
X149594900Y-105995200D01*
X150747300Y-105995200D01*
X150747300Y-107147600D01*
X150747300Y-107147600D01*
G37*
G36*
X166022300Y-106497800D02*
G01*
X164519900Y-106497800D01*
X164519900Y-104795400D01*
X166022300Y-104795400D01*
X166022300Y-106497800D01*
X166022300Y-106497800D01*
G37*
G36*
X159822300Y-106497800D02*
G01*
X158669900Y-106497800D01*
X158669900Y-105145400D01*
X159822300Y-105145400D01*
X159822300Y-106497800D01*
X159822300Y-106497800D01*
G37*
G36*
X156122300Y-106497800D02*
G01*
X154969900Y-106497800D01*
X154969900Y-105145400D01*
X156122300Y-105145400D01*
X156122300Y-106497800D01*
X156122300Y-106497800D01*
G37*
G36*
X148951300Y-105846600D02*
G01*
X147698900Y-105846600D01*
X147698900Y-104694200D01*
X148951300Y-104694200D01*
X148951300Y-105846600D01*
X148951300Y-105846600D01*
G37*
G36*
X147251300Y-105846600D02*
G01*
X145998900Y-105846600D01*
X145998900Y-104694200D01*
X147251300Y-104694200D01*
X147251300Y-105846600D01*
X147251300Y-105846600D01*
G37*
G36*
X166022300Y-103687800D02*
G01*
X164769900Y-103687800D01*
X164769900Y-95112799D01*
X164767498Y-95088413D01*
X164760385Y-95064964D01*
X164748834Y-95043353D01*
X164733289Y-95024411D01*
X164714347Y-95008866D01*
X164692736Y-94997315D01*
X164669287Y-94990202D01*
X164644901Y-94987800D01*
X164069900Y-94987800D01*
X164069900Y-93665400D01*
X166022300Y-93665400D01*
X166022300Y-103687800D01*
X166022300Y-103687800D01*
G37*
G36*
X155322300Y-103347800D02*
G01*
X153819900Y-103347800D01*
X153819900Y-101295400D01*
X155322300Y-101295400D01*
X155322300Y-103347800D01*
X155322300Y-103347800D01*
G37*
G36*
X155322300Y-97377800D02*
G01*
X153819900Y-97377800D01*
X153819900Y-95325400D01*
X155322300Y-95325400D01*
X155322300Y-97377800D01*
X155322300Y-97377800D01*
G37*
M02*
