M48
INCH,TZ
T1C0.0100
T2C0.0130
T3C0.0157
T4C0.0160
T5C0.0400
T6C0.0433
%
G90
G05
T1
X52733Y-46877
X53067Y-49021
X53409Y-46720
X53445Y-48898
X53816Y-49032
X53996Y-38406
X54185Y-42002
X54193Y-41280
X54291Y-38957
X54488Y-47126
X54724Y-38071
X54902Y-44232
X54921Y-37795
X54921Y-43937
X54941Y-44528
X55050Y-41898
X55056Y-43025
X55058Y-43255
X55059Y-42615
X55066Y-42260
X55079Y-40472
X55740Y-44536
X55743Y-43491
X55747Y-44829
X55778Y-47726
X55787Y-47520
X55791Y-42579
X55807Y-46634
X55827Y-47126
X55888Y-40609
X56112Y-44914
X56233Y-43538
X56300Y-38475
X56378Y-46063
X56378Y-47106
X56390Y-42776
X56516Y-44213
X56516Y-44567
X56563Y-43345
X56673Y-40945
X56732Y-45079
X56791Y-41870
X56947Y-44213
X57047Y-44902
X57067Y-47126
X57087Y-41142
X57193Y-41789
X57205Y-43996
X57280Y-41056
X57415Y-48290
X57483Y-40010
X57511Y-44182
X57823Y-44831
X57952Y-39237
X58051Y-41136
X58138Y-44221
X58138Y-44831
X58327Y-48642
X58493Y-43926
X58493Y-44221
X58642Y-42638
X58799Y-41136
X58965Y-47140
X59468Y-42598
X59535Y-48497
X59857Y-48494
X60728Y-40965
X60835Y-43208
X60906Y-42028
X60983Y-45347
X61063Y-41063
X61070Y-46687
X61150Y-45700
X61837Y-45657
X61865Y-42990
X61865Y-43290
X61909Y-46535
X62002Y-46105
X62802Y-46010
X64160Y-49173
X64555Y-47450
X64587Y-46775
X64600Y-46400
X64614Y-46006
X65059Y-47255
T2
X52415Y-37190
X52815Y-37190
X57124Y-45973
X57863Y-41825
X58811Y-41445
X58815Y-49240
X59115Y-49240
X59516Y-43414
X59815Y-47990
X60855Y-37350
X60965Y-39690
X61515Y-39540
X61515Y-40990
X61515Y-47740
X62165Y-46640
X62193Y-37040
X62193Y-38340
X62193Y-39590
X62193Y-40890
X62215Y-41390
X62465Y-47940
X62508Y-37040
X62508Y-38340
X62508Y-39590
X62508Y-40890
X62695Y-42110
X62815Y-47940
X62822Y-37040
X62822Y-38340
X62822Y-39590
X62822Y-40890
X63137Y-37040
X63137Y-38340
X63137Y-39590
X63137Y-40890
X63515Y-38140
X63515Y-38440
X63515Y-38890
X63665Y-41640
X63715Y-39440
X64065Y-39440
T3
X64409Y-42500
T4
X51865Y-39440
X53185Y-41040
X53765Y-41040
X59111Y-45645
X59523Y-41946
X60161Y-45645
X64319Y-37136
X65065Y-41040
T5
X63315Y-42490
X63315Y-43490
X63315Y-44490
X63315Y-45490
X63315Y-46490
X63315Y-47490
T6
X60666Y-49518
X63264Y-49518
T0
M30
