M48
; DRILL file {KiCad (5.1.4)-1} date 10/25/2019 8:45:35 PM
; FORMAT={-:-/ absolute / inch / decimal}
; #@! TF.CreationDate,2019-10-25T20:45:35-07:00
; #@! TF.GenerationSoftware,Kicad,Pcbnew,(5.1.4)-1
FMAT,2
INCH
T1C0.0100
T2C0.0130
T3C0.0157
T4C0.0160
T5C0.0400
T6C0.0433
%
G90
G05
T1
X5.2733Y-4.6877
X5.3067Y-4.9021
X5.3409Y-4.672
X5.3445Y-4.8898
X5.3816Y-4.9032
X5.3996Y-3.8406
X5.4185Y-4.2002
X5.4193Y-4.128
X5.4291Y-3.8957
X5.4488Y-4.7126
X5.4724Y-3.8071
X5.4902Y-4.4232
X5.4921Y-3.7795
X5.4921Y-4.3937
X5.4941Y-4.4528
X5.505Y-4.1898
X5.5056Y-4.3025
X5.5058Y-4.3255
X5.5059Y-4.2615
X5.5066Y-4.226
X5.5079Y-4.0472
X5.574Y-4.4536
X5.5743Y-4.3491
X5.5747Y-4.4829
X5.5778Y-4.7726
X5.5787Y-4.752
X5.5791Y-4.2579
X5.5807Y-4.6634
X5.5827Y-4.7126
X5.5888Y-4.0609
X5.6112Y-4.4914
X5.6233Y-4.3538
X5.63Y-3.8475
X5.6378Y-4.6063
X5.6378Y-4.7106
X5.639Y-4.2776
X5.6516Y-4.4213
X5.6516Y-4.4567
X5.6563Y-4.3345
X5.6673Y-4.0945
X5.6732Y-4.5079
X5.6791Y-4.187
X5.6947Y-4.4213
X5.7047Y-4.4902
X5.7067Y-4.7126
X5.7087Y-4.1142
X5.7193Y-4.1789
X5.7205Y-4.3996
X5.728Y-4.1056
X5.7415Y-4.829
X5.7483Y-4.001
X5.7511Y-4.4182
X5.7823Y-4.4831
X5.7952Y-3.9237
X5.8051Y-4.1136
X5.8138Y-4.4221
X5.8138Y-4.4831
X5.8327Y-4.8642
X5.8493Y-4.3926
X5.8493Y-4.4221
X5.8642Y-4.2638
X5.8799Y-4.1136
X5.8965Y-4.714
X5.9468Y-4.2598
X5.9535Y-4.8497
X5.9857Y-4.8494
X6.0728Y-4.0965
X6.0835Y-4.3208
X6.0906Y-4.2028
X6.0983Y-4.5347
X6.1063Y-4.1063
X6.107Y-4.6687
X6.115Y-4.57
X6.1837Y-4.5657
X6.1865Y-4.299
X6.1865Y-4.329
X6.1909Y-4.6535
X6.2002Y-4.6105
X6.2802Y-4.601
X6.416Y-4.9173
X6.4555Y-4.745
X6.4587Y-4.6775
X6.46Y-4.64
X6.4614Y-4.6006
X6.5059Y-4.7255
T2
X5.2415Y-3.719
X5.2815Y-3.719
X5.7124Y-4.5973
X5.7863Y-4.1825
X5.8811Y-4.1445
X5.8815Y-4.924
X5.9115Y-4.924
X5.9516Y-4.3414
X5.9815Y-4.799
X6.0855Y-3.735
X6.0965Y-3.969
X6.1515Y-3.954
X6.1515Y-4.099
X6.1515Y-4.774
X6.2165Y-4.664
X6.2193Y-3.704
X6.2193Y-3.834
X6.2193Y-3.959
X6.2193Y-4.089
X6.2215Y-4.139
X6.2465Y-4.794
X6.2508Y-3.704
X6.2508Y-3.834
X6.2508Y-3.959
X6.2508Y-4.089
X6.2695Y-4.211
X6.2815Y-4.794
X6.2822Y-3.704
X6.2822Y-3.834
X6.2822Y-3.959
X6.2822Y-4.089
X6.3137Y-3.704
X6.3137Y-3.834
X6.3137Y-3.959
X6.3137Y-4.089
X6.3515Y-3.814
X6.3515Y-3.844
X6.3515Y-3.889
X6.3665Y-4.164
X6.3715Y-3.944
X6.4065Y-3.944
T3
X6.4409Y-4.25
T4
X5.1865Y-3.944
X5.3185Y-4.104
X5.3765Y-4.104
X5.9111Y-4.5645
X5.9523Y-4.1946
X6.0161Y-4.5645
X6.4319Y-3.7136
X6.5065Y-4.104
T5
X6.3315Y-4.249
X6.3315Y-4.349
X6.3315Y-4.449
X6.3315Y-4.549
X6.3315Y-4.649
X6.3315Y-4.749
T6
X6.0666Y-4.9518
X6.3264Y-4.9518
T0
M30
