<?xml version="1.0" standalone="no"?>
 <!DOCTYPE svg PUBLIC "-//W3C//DTD SVG 1.1//EN" 
 "http://www.w3.org/Graphics/SVG/1.1/DTD/svg11.dtd"> 
<svg xmlns="http://www.w3.org/2000/svg" version="1.1" 
    width="8.81634cm" height="6.79196cm" viewBox="0 0 34710 26740 ">
<title>SVG Picture created as base-B_Paste.svg date 2019/11/01 14:50:25 </title>
  <desc>Picture generated by PCBNEW </desc>
<g style="fill:#000000; fill-opacity:1;stroke:#000000; stroke-opacity:1;
stroke-linecap:round; stroke-linejoin:round; "
 transform="translate(0 0) scale(1 1)">
</g>
<g style="fill:#000000; fill-opacity:0.0; 
stroke:#000000; stroke-width:-0.000393701; stroke-opacity:1; 
stroke-linecap:round; stroke-linejoin:round;">
<g >
</g>
<g >
</g>
<g >
</g>
<g style="fill:#000000; fill-opacity:0.0; 
stroke:#000000; stroke-width:-0.000393701; stroke-opacity:1; 
stroke-linecap:round; stroke-linejoin:round;">
</g>
<g style="fill:#000000; fill-opacity:0.0; 
stroke:#000000; stroke-width:0; stroke-opacity:1; 
stroke-linecap:round; stroke-linejoin:round;">
</g>
<g style="fill:#000000; fill-opacity:1.0; 
stroke:#000000; stroke-width:0; stroke-opacity:1; 
stroke-linecap:round; stroke-linejoin:round;">
<path style="fill:#000000; fill-opacity:1.0; 
stroke:#000000; stroke-width:0; stroke-opacity:1; 
stroke-linecap:round; stroke-linejoin:round;fill-rule:evenodd;"
d="M 12007,21436
12007,20767
12598,20767
12598,21436
12007,21436
Z" /> 
<path style="fill:#000000; fill-opacity:1.0; 
stroke:#000000; stroke-width:0; stroke-opacity:1; 
stroke-linecap:round; stroke-linejoin:round;fill-rule:evenodd;"
d="M 12007,24507
12007,23838
12598,23838
12598,24507
12007,24507
Z" /> 
<path style="fill:#000000; fill-opacity:1.0; 
stroke:#000000; stroke-width:0; stroke-opacity:1; 
stroke-linecap:round; stroke-linejoin:round;fill-rule:evenodd;"
d="M 14055,21801
13622,21801
13622,21702
14055,21702
14055,21801
Z" /> 
<path style="fill:#000000; fill-opacity:1.0; 
stroke:#000000; stroke-width:0; stroke-opacity:1; 
stroke-linecap:round; stroke-linejoin:round;fill-rule:evenodd;"
d="M 14055,21997
13622,21997
13622,21899
14055,21899
14055,21997
Z" /> 
<path style="fill:#000000; fill-opacity:1.0; 
stroke:#000000; stroke-width:0; stroke-opacity:1; 
stroke-linecap:round; stroke-linejoin:round;fill-rule:evenodd;"
d="M 14055,22194
13622,22194
13622,22096
14055,22096
14055,22194
Z" /> 
<path style="fill:#000000; fill-opacity:1.0; 
stroke:#000000; stroke-width:0; stroke-opacity:1; 
stroke-linecap:round; stroke-linejoin:round;fill-rule:evenodd;"
d="M 14055,22391
13622,22391
13622,22293
14055,22293
14055,22391
Z" /> 
<path style="fill:#000000; fill-opacity:1.0; 
stroke:#000000; stroke-width:0; stroke-opacity:1; 
stroke-linecap:round; stroke-linejoin:round;fill-rule:evenodd;"
d="M 14055,22588
13622,22588
13622,22490
14055,22490
14055,22588
Z" /> 
<path style="fill:#000000; fill-opacity:1.0; 
stroke:#000000; stroke-width:0; stroke-opacity:1; 
stroke-linecap:round; stroke-linejoin:round;fill-rule:evenodd;"
d="M 14055,22785
13622,22785
13622,22686
14055,22686
14055,22785
Z" /> 
<path style="fill:#000000; fill-opacity:1.0; 
stroke:#000000; stroke-width:0; stroke-opacity:1; 
stroke-linecap:round; stroke-linejoin:round;fill-rule:evenodd;"
d="M 14055,22982
13622,22982
13622,22883
14055,22883
14055,22982
Z" /> 
<path style="fill:#000000; fill-opacity:1.0; 
stroke:#000000; stroke-width:0; stroke-opacity:1; 
stroke-linecap:round; stroke-linejoin:round;fill-rule:evenodd;"
d="M 14055,23178
13622,23178
13622,23080
14055,23080
14055,23178
Z" /> 
<path style="fill:#000000; fill-opacity:1.0; 
stroke:#000000; stroke-width:0; stroke-opacity:1; 
stroke-linecap:round; stroke-linejoin:round;fill-rule:evenodd;"
d="M 14055,23375
13622,23375
13622,23277
14055,23277
14055,23375
Z" /> 
<path style="fill:#000000; fill-opacity:1.0; 
stroke:#000000; stroke-width:0; stroke-opacity:1; 
stroke-linecap:round; stroke-linejoin:round;fill-rule:evenodd;"
d="M 14055,23572
13622,23572
13622,23474
14055,23474
14055,23572
Z" /> 
</g>
<g >
</g>
<g >
</g>
<g style="fill:#000000; fill-opacity:1.0; 
stroke:#000000; stroke-width:0; stroke-opacity:1; 
stroke-linecap:round; stroke-linejoin:round;">
<path style="fill:#000000; fill-opacity:1.0; 
stroke:#000000; stroke-width:0; stroke-opacity:1; 
stroke-linecap:round; stroke-linejoin:round;fill-rule:evenodd;"
d="M 4417,20208
4417,20601
4024,20601
4024,20208
4417,20208
Z" /> 
<path style="fill:#000000; fill-opacity:1.0; 
stroke:#000000; stroke-width:0; stroke-opacity:1; 
stroke-linecap:round; stroke-linejoin:round;fill-rule:evenodd;"
d="M 5047,20208
5047,20601
4654,20601
4654,20208
5047,20208
Z" /> 
</g>
<g >
</g>
<g style="fill:#000000; fill-opacity:1.0; 
stroke:#000000; stroke-width:0; stroke-opacity:1; 
stroke-linecap:round; stroke-linejoin:round;">
<path style="fill:#000000; fill-opacity:1.0; 
stroke:#000000; stroke-width:0; stroke-opacity:1; 
stroke-linecap:round; stroke-linejoin:round;fill-rule:evenodd;"
d="M 6722,17783
6722,18177
6289,18177
6289,17783
6722,17783
Z" /> 
<path style="fill:#000000; fill-opacity:1.0; 
stroke:#000000; stroke-width:0; stroke-opacity:1; 
stroke-linecap:round; stroke-linejoin:round;fill-rule:evenodd;"
d="M 7391,17783
7391,18177
6958,18177
6958,17783
7391,17783
Z" /> 
</g>
<g >
</g>
<g style="fill:#000000; fill-opacity:1.0; 
stroke:#000000; stroke-width:0; stroke-opacity:1; 
stroke-linecap:round; stroke-linejoin:round;">
<path style="fill:#000000; fill-opacity:1.0; 
stroke:#000000; stroke-width:0; stroke-opacity:1; 
stroke-linecap:round; stroke-linejoin:round;fill-rule:evenodd;"
d="M 5821,20847
5828,20848
5834,20849
5841,20851
5846,20854
5852,20858
5857,20862
5862,20866
5867,20871
5871,20876
5874,20882
5877,20888
5879,20894
5881,20900
5882,20907
5882,20913
5882,20913
5882,20920
5881,20926
5879,20933
5877,20939
5874,20945
5871,20950
5867,20956
5862,20961
5857,20965
5852,20969
5846,20972
5841,20975
5834,20977
5828,20979
5821,20980
5815,20980
5815,20980
5808,20980
5802,20979
5795,20977
5789,20975
5783,20972
5778,20969
5772,20965
5768,20961
5763,20956
5759,20950
5756,20945
5753,20939
5751,20933
5749,20926
5748,20920
5748,20913
5748,20913
5748,20907
5749,20900
5751,20894
5753,20888
5756,20882
5759,20876
5763,20871
5768,20866
5772,20862
5778,20858
5783,20854
5789,20851
5795,20849
5802,20848
5808,20847
5815,20846
5815,20846
5821,20847
Z" /> 
<path style="fill:#000000; fill-opacity:1.0; 
stroke:#000000; stroke-width:0; stroke-opacity:1; 
stroke-linecap:round; stroke-linejoin:round;fill-rule:evenodd;"
d="M 6136,20847
6143,20848
6149,20849
6156,20851
6161,20854
6167,20858
6172,20862
6177,20866
6182,20871
6186,20876
6189,20882
6192,20888
6194,20894
6196,20900
6196,20907
6197,20913
6197,20913
6196,20920
6196,20926
6194,20933
6192,20939
6189,20945
6186,20950
6182,20956
6177,20961
6172,20965
6167,20969
6161,20972
6156,20975
6149,20977
6143,20979
6136,20980
6130,20980
6130,20980
6123,20980
6117,20979
6110,20977
6104,20975
6098,20972
6093,20969
6087,20965
6083,20961
6078,20956
6074,20950
6071,20945
6068,20939
6066,20933
6064,20926
6063,20920
6063,20913
6063,20913
6063,20907
6064,20900
6066,20894
6068,20888
6071,20882
6074,20876
6078,20871
6083,20866
6087,20862
6093,20858
6098,20854
6104,20851
6110,20849
6117,20848
6123,20847
6130,20846
6130,20846
6136,20847
Z" /> 
<path style="fill:#000000; fill-opacity:1.0; 
stroke:#000000; stroke-width:0; stroke-opacity:1; 
stroke-linecap:round; stroke-linejoin:round;fill-rule:evenodd;"
d="M 6451,20847
6458,20848
6464,20849
6470,20851
6476,20854
6482,20858
6487,20862
6492,20866
6497,20871
6500,20876
6504,20882
6507,20888
6509,20894
6510,20900
6511,20907
6512,20913
6512,20913
6511,20920
6510,20926
6509,20933
6507,20939
6504,20945
6500,20950
6497,20956
6492,20961
6487,20965
6482,20969
6476,20972
6470,20975
6464,20977
6458,20979
6451,20980
6445,20980
6445,20980
6438,20980
6432,20979
6425,20977
6419,20975
6413,20972
6408,20969
6402,20965
6398,20961
6393,20956
6389,20950
6386,20945
6383,20939
6381,20933
6379,20926
6378,20920
6378,20913
6378,20913
6378,20907
6379,20900
6381,20894
6383,20888
6386,20882
6389,20876
6393,20871
6398,20866
6402,20862
6408,20858
6413,20854
6419,20851
6425,20849
6432,20848
6438,20847
6445,20846
6445,20846
6451,20847
Z" /> 
<path style="fill:#000000; fill-opacity:1.0; 
stroke:#000000; stroke-width:0; stroke-opacity:1; 
stroke-linecap:round; stroke-linejoin:round;fill-rule:evenodd;"
d="M 6766,20847
6773,20848
6779,20849
6785,20851
6791,20854
6797,20858
6802,20862
6807,20866
6812,20871
6815,20876
6819,20882
6822,20888
6824,20894
6825,20900
6826,20907
6827,20913
6827,20913
6826,20920
6825,20926
6824,20933
6822,20939
6819,20945
6815,20950
6812,20956
6807,20961
6802,20965
6797,20969
6791,20972
6785,20975
6779,20977
6773,20979
6766,20980
6760,20980
6760,20980
6753,20980
6747,20979
6740,20977
6734,20975
6728,20972
6723,20969
6717,20965
6712,20961
6708,20956
6704,20950
6701,20945
6698,20939
6696,20933
6694,20926
6693,20920
6693,20913
6693,20913
6693,20907
6694,20900
6696,20894
6698,20888
6701,20882
6704,20876
6708,20871
6712,20866
6717,20862
6723,20858
6728,20854
6734,20851
6740,20849
6747,20848
6753,20847
6760,20846
6760,20846
6766,20847
Z" /> 
<path style="fill:#000000; fill-opacity:1.0; 
stroke:#000000; stroke-width:0; stroke-opacity:1; 
stroke-linecap:round; stroke-linejoin:round;fill-rule:evenodd;"
d="M 5507,21142
5513,21143
5519,21145
5526,21147
5532,21150
5537,21153
5542,21157
5547,21161
5552,21166
5556,21171
5559,21177
5562,21183
5564,21189
5566,21195
5567,21202
5567,21209
5567,21209
5567,21215
5566,21222
5564,21228
5562,21234
5559,21240
5556,21246
5552,21251
5547,21256
5542,21260
5537,21264
5532,21268
5526,21270
5519,21273
5513,21274
5507,21275
5500,21275
5500,21275
5493,21275
5487,21274
5481,21273
5474,21270
5468,21268
5463,21264
5458,21260
5453,21256
5448,21251
5444,21246
5441,21240
5438,21234
5436,21228
5434,21222
5433,21215
5433,21209
5433,21209
5433,21202
5434,21195
5436,21189
5438,21183
5441,21177
5444,21171
5448,21166
5453,21161
5458,21157
5463,21153
5468,21150
5474,21147
5481,21145
5487,21143
5493,21142
5500,21142
5500,21142
5507,21142
Z" /> 
<path style="fill:#000000; fill-opacity:1.0; 
stroke:#000000; stroke-width:0; stroke-opacity:1; 
stroke-linecap:round; stroke-linejoin:round;fill-rule:evenodd;"
d="M 5507,20847
5513,20848
5519,20849
5526,20851
5532,20854
5537,20858
5542,20862
5547,20866
5552,20871
5556,20876
5559,20882
5562,20888
5564,20894
5566,20900
5567,20907
5567,20913
5567,20913
5567,20920
5566,20926
5564,20933
5562,20939
5559,20945
5556,20950
5552,20956
5547,20961
5542,20965
5537,20969
5532,20972
5526,20975
5519,20977
5513,20979
5507,20980
5500,20980
5500,20980
5493,20980
5487,20979
5481,20977
5474,20975
5468,20972
5463,20969
5458,20965
5453,20961
5448,20956
5444,20950
5441,20945
5438,20939
5436,20933
5434,20926
5433,20920
5433,20913
5433,20913
5433,20907
5434,20900
5436,20894
5438,20888
5441,20882
5444,20876
5448,20871
5453,20866
5458,20862
5463,20858
5468,20854
5474,20851
5481,20849
5487,20848
5493,20847
5500,20846
5500,20846
5507,20847
Z" /> 
<path style="fill:#000000; fill-opacity:1.0; 
stroke:#000000; stroke-width:0; stroke-opacity:1; 
stroke-linecap:round; stroke-linejoin:round;fill-rule:evenodd;"
d="M 5507,20551
5513,20552
5519,20554
5526,20556
5532,20559
5537,20562
5542,20566
5547,20571
5552,20576
5556,20581
5559,20586
5562,20592
5564,20599
5566,20605
5567,20611
5567,20618
5567,20618
5567,20625
5566,20631
5564,20637
5562,20644
5559,20650
5556,20655
5552,20660
5547,20665
5542,20670
5537,20674
5532,20677
5526,20680
5519,20682
5513,20684
5507,20685
5500,20685
5500,20685
5493,20685
5487,20684
5481,20682
5474,20680
5468,20677
5463,20674
5458,20670
5453,20665
5448,20660
5444,20655
5441,20650
5438,20644
5436,20637
5434,20631
5433,20625
5433,20618
5433,20618
5433,20611
5434,20605
5436,20599
5438,20592
5441,20586
5444,20581
5448,20576
5453,20571
5458,20566
5463,20562
5468,20559
5474,20556
5481,20554
5487,20552
5493,20551
5500,20551
5500,20551
5507,20551
Z" /> 
<path style="fill:#000000; fill-opacity:1.0; 
stroke:#000000; stroke-width:0; stroke-opacity:1; 
stroke-linecap:round; stroke-linejoin:round;fill-rule:evenodd;"
d="M 5507,20256
5513,20257
5519,20259
5526,20261
5532,20264
5537,20267
5542,20271
5547,20275
5552,20280
5556,20286
5559,20291
5562,20297
5564,20303
5566,20310
5567,20316
5567,20323
5567,20323
5567,20329
5566,20336
5564,20342
5562,20348
5559,20354
5556,20360
5552,20365
5547,20370
5542,20374
5537,20378
5532,20382
5526,20385
5519,20387
5513,20388
5507,20389
5500,20390
5500,20390
5493,20389
5487,20388
5481,20387
5474,20385
5468,20382
5463,20378
5458,20374
5453,20370
5448,20365
5444,20360
5441,20354
5438,20348
5436,20342
5434,20336
5433,20329
5433,20323
5433,20323
5433,20316
5434,20310
5436,20303
5438,20297
5441,20291
5444,20286
5448,20280
5453,20275
5458,20271
5463,20267
5468,20264
5474,20261
5481,20259
5487,20257
5493,20256
5500,20256
5500,20256
5507,20256
Z" /> 
<path style="fill:#000000; fill-opacity:1.0; 
stroke:#000000; stroke-width:0; stroke-opacity:1; 
stroke-linecap:round; stroke-linejoin:round;fill-rule:evenodd;"
d="M 5821,21142
5828,21143
5834,21145
5841,21147
5846,21150
5852,21153
5857,21157
5862,21161
5867,21166
5871,21171
5874,21177
5877,21183
5879,21189
5881,21195
5882,21202
5882,21209
5882,21209
5882,21215
5881,21222
5879,21228
5877,21234
5874,21240
5871,21246
5867,21251
5862,21256
5857,21260
5852,21264
5846,21268
5841,21270
5834,21273
5828,21274
5821,21275
5815,21275
5815,21275
5808,21275
5802,21274
5795,21273
5789,21270
5783,21268
5778,21264
5772,21260
5768,21256
5763,21251
5759,21246
5756,21240
5753,21234
5751,21228
5749,21222
5748,21215
5748,21209
5748,21209
5748,21202
5749,21195
5751,21189
5753,21183
5756,21177
5759,21171
5763,21166
5768,21161
5772,21157
5778,21153
5783,21150
5789,21147
5795,21145
5802,21143
5808,21142
5815,21142
5815,21142
5821,21142
Z" /> 
<path style="fill:#000000; fill-opacity:1.0; 
stroke:#000000; stroke-width:0; stroke-opacity:1; 
stroke-linecap:round; stroke-linejoin:round;fill-rule:evenodd;"
d="M 6136,21142
6143,21143
6149,21145
6156,21147
6161,21150
6167,21153
6172,21157
6177,21161
6182,21166
6186,21171
6189,21177
6192,21183
6194,21189
6196,21195
6196,21202
6197,21209
6197,21209
6196,21215
6196,21222
6194,21228
6192,21234
6189,21240
6186,21246
6182,21251
6177,21256
6172,21260
6167,21264
6161,21268
6156,21270
6149,21273
6143,21274
6136,21275
6130,21275
6130,21275
6123,21275
6117,21274
6110,21273
6104,21270
6098,21268
6093,21264
6087,21260
6083,21256
6078,21251
6074,21246
6071,21240
6068,21234
6066,21228
6064,21222
6063,21215
6063,21209
6063,21209
6063,21202
6064,21195
6066,21189
6068,21183
6071,21177
6074,21171
6078,21166
6083,21161
6087,21157
6093,21153
6098,21150
6104,21147
6110,21145
6117,21143
6123,21142
6130,21142
6130,21142
6136,21142
Z" /> 
<path style="fill:#000000; fill-opacity:1.0; 
stroke:#000000; stroke-width:0; stroke-opacity:1; 
stroke-linecap:round; stroke-linejoin:round;fill-rule:evenodd;"
d="M 6451,21142
6458,21143
6464,21145
6470,21147
6476,21150
6482,21153
6487,21157
6492,21161
6497,21166
6500,21171
6504,21177
6507,21183
6509,21189
6510,21195
6511,21202
6512,21209
6512,21209
6511,21215
6510,21222
6509,21228
6507,21234
6504,21240
6500,21246
6497,21251
6492,21256
6487,21260
6482,21264
6476,21268
6470,21270
6464,21273
6458,21274
6451,21275
6445,21275
6445,21275
6438,21275
6432,21274
6425,21273
6419,21270
6413,21268
6408,21264
6402,21260
6398,21256
6393,21251
6389,21246
6386,21240
6383,21234
6381,21228
6379,21222
6378,21215
6378,21209
6378,21209
6378,21202
6379,21195
6381,21189
6383,21183
6386,21177
6389,21171
6393,21166
6398,21161
6402,21157
6408,21153
6413,21150
6419,21147
6425,21145
6432,21143
6438,21142
6445,21142
6445,21142
6451,21142
Z" /> 
<path style="fill:#000000; fill-opacity:1.0; 
stroke:#000000; stroke-width:0; stroke-opacity:1; 
stroke-linecap:round; stroke-linejoin:round;fill-rule:evenodd;"
d="M 6766,21142
6773,21143
6779,21145
6785,21147
6791,21150
6797,21153
6802,21157
6807,21161
6812,21166
6815,21171
6819,21177
6822,21183
6824,21189
6825,21195
6826,21202
6827,21209
6827,21209
6826,21215
6825,21222
6824,21228
6822,21234
6819,21240
6815,21246
6812,21251
6807,21256
6802,21260
6797,21264
6791,21268
6785,21270
6779,21273
6773,21274
6766,21275
6760,21275
6760,21275
6753,21275
6747,21274
6740,21273
6734,21270
6728,21268
6723,21264
6717,21260
6712,21256
6708,21251
6704,21246
6701,21240
6698,21234
6696,21228
6694,21222
6693,21215
6693,21209
6693,21209
6693,21202
6694,21195
6696,21189
6698,21183
6701,21177
6704,21171
6708,21166
6712,21161
6717,21157
6723,21153
6728,21150
6734,21147
6740,21145
6747,21143
6753,21142
6760,21142
6760,21142
6766,21142
Z" /> 
<path style="fill:#000000; fill-opacity:1.0; 
stroke:#000000; stroke-width:0; stroke-opacity:1; 
stroke-linecap:round; stroke-linejoin:round;fill-rule:evenodd;"
d="M 7081,20551
7088,20552
7094,20554
7100,20556
7106,20559
7112,20562
7117,20566
7122,20571
7127,20576
7130,20581
7134,20586
7137,20592
7139,20599
7140,20605
7141,20611
7142,20618
7142,20618
7141,20625
7140,20631
7139,20637
7137,20644
7134,20650
7130,20655
7127,20660
7122,20665
7117,20670
7112,20674
7106,20677
7100,20680
7094,20682
7088,20684
7081,20685
7075,20685
7075,20685
7068,20685
7062,20684
7055,20682
7049,20680
7043,20677
7038,20674
7032,20670
7027,20665
7023,20660
7019,20655
7016,20650
7013,20644
7011,20637
7009,20631
7008,20625
7008,20618
7008,20618
7008,20611
7009,20605
7011,20599
7013,20592
7016,20586
7019,20581
7023,20576
7027,20571
7032,20566
7038,20562
7043,20559
7049,20556
7055,20554
7062,20552
7068,20551
7075,20551
7075,20551
7081,20551
Z" /> 
<path style="fill:#000000; fill-opacity:1.0; 
stroke:#000000; stroke-width:0; stroke-opacity:1; 
stroke-linecap:round; stroke-linejoin:round;fill-rule:evenodd;"
d="M 7081,21142
7088,21143
7094,21145
7100,21147
7106,21150
7112,21153
7117,21157
7122,21161
7127,21166
7130,21171
7134,21177
7137,21183
7139,21189
7140,21195
7141,21202
7142,21209
7142,21209
7141,21215
7140,21222
7139,21228
7137,21234
7134,21240
7130,21246
7127,21251
7122,21256
7117,21260
7112,21264
7106,21268
7100,21270
7094,21273
7088,21274
7081,21275
7075,21275
7075,21275
7068,21275
7062,21274
7055,21273
7049,21270
7043,21268
7038,21264
7032,21260
7027,21256
7023,21251
7019,21246
7016,21240
7013,21234
7011,21228
7009,21222
7008,21215
7008,21209
7008,21209
7008,21202
7009,21195
7011,21189
7013,21183
7016,21177
7019,21171
7023,21166
7027,21161
7032,21157
7038,21153
7043,21150
7049,21147
7055,21145
7062,21143
7068,21142
7075,21142
7075,21142
7081,21142
Z" /> 
<path style="fill:#000000; fill-opacity:1.0; 
stroke:#000000; stroke-width:0; stroke-opacity:1; 
stroke-linecap:round; stroke-linejoin:round;fill-rule:evenodd;"
d="M 7081,20847
7088,20848
7094,20849
7100,20851
7106,20854
7112,20858
7117,20862
7122,20866
7127,20871
7130,20876
7134,20882
7137,20888
7139,20894
7140,20900
7141,20907
7142,20913
7142,20913
7141,20920
7140,20926
7139,20933
7137,20939
7134,20945
7130,20950
7127,20956
7122,20961
7117,20965
7112,20969
7106,20972
7100,20975
7094,20977
7088,20979
7081,20980
7075,20980
7075,20980
7068,20980
7062,20979
7055,20977
7049,20975
7043,20972
7038,20969
7032,20965
7027,20961
7023,20956
7019,20950
7016,20945
7013,20939
7011,20933
7009,20926
7008,20920
7008,20913
7008,20913
7008,20907
7009,20900
7011,20894
7013,20888
7016,20882
7019,20876
7023,20871
7027,20866
7032,20862
7038,20858
7043,20854
7049,20851
7055,20849
7062,20848
7068,20847
7075,20846
7075,20846
7081,20847
Z" /> 
<path style="fill:#000000; fill-opacity:1.0; 
stroke:#000000; stroke-width:0; stroke-opacity:1; 
stroke-linecap:round; stroke-linejoin:round;fill-rule:evenodd;"
d="M 7081,20256
7088,20257
7094,20259
7100,20261
7106,20264
7112,20267
7117,20271
7122,20275
7127,20280
7130,20286
7134,20291
7137,20297
7139,20303
7140,20310
7141,20316
7142,20323
7142,20323
7141,20329
7140,20336
7139,20342
7137,20348
7134,20354
7130,20360
7127,20365
7122,20370
7117,20374
7112,20378
7106,20382
7100,20385
7094,20387
7088,20388
7081,20389
7075,20390
7075,20390
7068,20389
7062,20388
7055,20387
7049,20385
7043,20382
7038,20378
7032,20374
7027,20370
7023,20365
7019,20360
7016,20354
7013,20348
7011,20342
7009,20336
7008,20329
7008,20323
7008,20323
7008,20316
7009,20310
7011,20303
7013,20297
7016,20291
7019,20286
7023,20280
7027,20275
7032,20271
7038,20267
7043,20264
7049,20261
7055,20259
7062,20257
7068,20256
7075,20256
7075,20256
7081,20256
Z" /> 
<path style="fill:#000000; fill-opacity:1.0; 
stroke:#000000; stroke-width:0; stroke-opacity:1; 
stroke-linecap:round; stroke-linejoin:round;fill-rule:evenodd;"
d="M 5507,19961
5513,19962
5519,19963
5526,19966
5532,19968
5537,19972
5542,19976
5547,19980
5552,19985
5556,19990
5559,19996
5562,20002
5564,20008
5566,20014
5567,20021
5567,20027
5567,20027
5567,20034
5566,20041
5564,20047
5562,20053
5559,20059
5556,20065
5552,20070
5547,20075
5542,20079
5537,20083
5532,20086
5526,20089
5519,20092
5513,20093
5507,20094
5500,20094
5500,20094
5493,20094
5487,20093
5481,20092
5474,20089
5468,20086
5463,20083
5458,20079
5453,20075
5448,20070
5444,20065
5441,20059
5438,20053
5436,20047
5434,20041
5433,20034
5433,20027
5433,20027
5433,20021
5434,20014
5436,20008
5438,20002
5441,19996
5444,19990
5448,19985
5453,19980
5458,19976
5463,19972
5468,19968
5474,19966
5481,19963
5487,19962
5493,19961
5500,19961
5500,19961
5507,19961
Z" /> 
<path style="fill:#000000; fill-opacity:1.0; 
stroke:#000000; stroke-width:0; stroke-opacity:1; 
stroke-linecap:round; stroke-linejoin:round;fill-rule:evenodd;"
d="M 5821,19961
5828,19962
5834,19963
5841,19966
5846,19968
5852,19972
5857,19976
5862,19980
5867,19985
5871,19990
5874,19996
5877,20002
5879,20008
5881,20014
5882,20021
5882,20027
5882,20027
5882,20034
5881,20041
5879,20047
5877,20053
5874,20059
5871,20065
5867,20070
5862,20075
5857,20079
5852,20083
5846,20086
5841,20089
5834,20092
5828,20093
5821,20094
5815,20094
5815,20094
5808,20094
5802,20093
5795,20092
5789,20089
5783,20086
5778,20083
5772,20079
5768,20075
5763,20070
5759,20065
5756,20059
5753,20053
5751,20047
5749,20041
5748,20034
5748,20027
5748,20027
5748,20021
5749,20014
5751,20008
5753,20002
5756,19996
5759,19990
5763,19985
5768,19980
5772,19976
5778,19972
5783,19968
5789,19966
5795,19963
5802,19962
5808,19961
5815,19961
5815,19961
5821,19961
Z" /> 
<path style="fill:#000000; fill-opacity:1.0; 
stroke:#000000; stroke-width:0; stroke-opacity:1; 
stroke-linecap:round; stroke-linejoin:round;fill-rule:evenodd;"
d="M 6136,19961
6143,19962
6149,19963
6156,19966
6161,19968
6167,19972
6172,19976
6177,19980
6182,19985
6186,19990
6189,19996
6192,20002
6194,20008
6196,20014
6196,20021
6197,20027
6197,20027
6196,20034
6196,20041
6194,20047
6192,20053
6189,20059
6186,20065
6182,20070
6177,20075
6172,20079
6167,20083
6161,20086
6156,20089
6149,20092
6143,20093
6136,20094
6130,20094
6130,20094
6123,20094
6117,20093
6110,20092
6104,20089
6098,20086
6093,20083
6087,20079
6083,20075
6078,20070
6074,20065
6071,20059
6068,20053
6066,20047
6064,20041
6063,20034
6063,20027
6063,20027
6063,20021
6064,20014
6066,20008
6068,20002
6071,19996
6074,19990
6078,19985
6083,19980
6087,19976
6093,19972
6098,19968
6104,19966
6110,19963
6117,19962
6123,19961
6130,19961
6130,19961
6136,19961
Z" /> 
<path style="fill:#000000; fill-opacity:1.0; 
stroke:#000000; stroke-width:0; stroke-opacity:1; 
stroke-linecap:round; stroke-linejoin:round;fill-rule:evenodd;"
d="M 6451,19961
6458,19962
6464,19963
6470,19966
6476,19968
6482,19972
6487,19976
6492,19980
6497,19985
6500,19990
6504,19996
6507,20002
6509,20008
6510,20014
6511,20021
6512,20027
6512,20027
6511,20034
6510,20041
6509,20047
6507,20053
6504,20059
6500,20065
6497,20070
6492,20075
6487,20079
6482,20083
6476,20086
6470,20089
6464,20092
6458,20093
6451,20094
6445,20094
6445,20094
6438,20094
6432,20093
6425,20092
6419,20089
6413,20086
6408,20083
6402,20079
6398,20075
6393,20070
6389,20065
6386,20059
6383,20053
6381,20047
6379,20041
6378,20034
6378,20027
6378,20027
6378,20021
6379,20014
6381,20008
6383,20002
6386,19996
6389,19990
6393,19985
6398,19980
6402,19976
6408,19972
6413,19968
6419,19966
6425,19963
6432,19962
6438,19961
6445,19961
6445,19961
6451,19961
Z" /> 
<path style="fill:#000000; fill-opacity:1.0; 
stroke:#000000; stroke-width:0; stroke-opacity:1; 
stroke-linecap:round; stroke-linejoin:round;fill-rule:evenodd;"
d="M 6766,19961
6773,19962
6779,19963
6785,19966
6791,19968
6797,19972
6802,19976
6807,19980
6812,19985
6815,19990
6819,19996
6822,20002
6824,20008
6825,20014
6826,20021
6827,20027
6827,20027
6826,20034
6825,20041
6824,20047
6822,20053
6819,20059
6815,20065
6812,20070
6807,20075
6802,20079
6797,20083
6791,20086
6785,20089
6779,20092
6773,20093
6766,20094
6760,20094
6760,20094
6753,20094
6747,20093
6740,20092
6734,20089
6728,20086
6723,20083
6717,20079
6712,20075
6708,20070
6704,20065
6701,20059
6698,20053
6696,20047
6694,20041
6693,20034
6693,20027
6693,20027
6693,20021
6694,20014
6696,20008
6698,20002
6701,19996
6704,19990
6708,19985
6712,19980
6717,19976
6723,19972
6728,19968
6734,19966
6740,19963
6747,19962
6753,19961
6760,19961
6760,19961
6766,19961
Z" /> 
<path style="fill:#000000; fill-opacity:1.0; 
stroke:#000000; stroke-width:0; stroke-opacity:1; 
stroke-linecap:round; stroke-linejoin:round;fill-rule:evenodd;"
d="M 7081,19961
7088,19962
7094,19963
7100,19966
7106,19968
7112,19972
7117,19976
7122,19980
7127,19985
7130,19990
7134,19996
7137,20002
7139,20008
7140,20014
7141,20021
7142,20027
7142,20027
7141,20034
7140,20041
7139,20047
7137,20053
7134,20059
7130,20065
7127,20070
7122,20075
7117,20079
7112,20083
7106,20086
7100,20089
7094,20092
7088,20093
7081,20094
7075,20094
7075,20094
7068,20094
7062,20093
7055,20092
7049,20089
7043,20086
7038,20083
7032,20079
7027,20075
7023,20070
7019,20065
7016,20059
7013,20053
7011,20047
7009,20041
7008,20034
7008,20027
7008,20027
7008,20021
7009,20014
7011,20008
7013,20002
7016,19996
7019,19990
7023,19985
7027,19980
7032,19976
7038,19972
7043,19968
7049,19966
7055,19963
7062,19962
7068,19961
7075,19961
7075,19961
7081,19961
Z" /> 
<path style="fill:#000000; fill-opacity:1.0; 
stroke:#000000; stroke-width:0; stroke-opacity:1; 
stroke-linecap:round; stroke-linejoin:round;fill-rule:evenodd;"
d="M 5507,19666
5513,19667
5519,19668
5526,19670
5532,19673
5537,19677
5542,19680
5547,19685
5552,19690
5556,19695
5559,19701
5562,19707
5564,19713
5566,19719
5567,19726
5567,19732
5567,19732
5567,19739
5566,19745
5564,19752
5562,19758
5559,19764
5556,19769
5552,19775
5547,19780
5542,19784
5537,19788
5532,19791
5526,19794
5519,19796
5513,19798
5507,19799
5500,19799
5500,19799
5493,19799
5487,19798
5481,19796
5474,19794
5468,19791
5463,19788
5458,19784
5453,19780
5448,19775
5444,19769
5441,19764
5438,19758
5436,19752
5434,19745
5433,19739
5433,19732
5433,19732
5433,19726
5434,19719
5436,19713
5438,19707
5441,19701
5444,19695
5448,19690
5453,19685
5458,19680
5463,19677
5468,19673
5474,19670
5481,19668
5487,19667
5493,19666
5500,19665
5500,19665
5507,19666
Z" /> 
<path style="fill:#000000; fill-opacity:1.0; 
stroke:#000000; stroke-width:0; stroke-opacity:1; 
stroke-linecap:round; stroke-linejoin:round;fill-rule:evenodd;"
d="M 5821,19666
5828,19667
5834,19668
5841,19670
5846,19673
5852,19677
5857,19680
5862,19685
5867,19690
5871,19695
5874,19701
5877,19707
5879,19713
5881,19719
5882,19726
5882,19732
5882,19732
5882,19739
5881,19745
5879,19752
5877,19758
5874,19764
5871,19769
5867,19775
5862,19780
5857,19784
5852,19788
5846,19791
5841,19794
5834,19796
5828,19798
5821,19799
5815,19799
5815,19799
5808,19799
5802,19798
5795,19796
5789,19794
5783,19791
5778,19788
5772,19784
5768,19780
5763,19775
5759,19769
5756,19764
5753,19758
5751,19752
5749,19745
5748,19739
5748,19732
5748,19732
5748,19726
5749,19719
5751,19713
5753,19707
5756,19701
5759,19695
5763,19690
5768,19685
5772,19680
5778,19677
5783,19673
5789,19670
5795,19668
5802,19667
5808,19666
5815,19665
5815,19665
5821,19666
Z" /> 
<path style="fill:#000000; fill-opacity:1.0; 
stroke:#000000; stroke-width:0; stroke-opacity:1; 
stroke-linecap:round; stroke-linejoin:round;fill-rule:evenodd;"
d="M 6136,19666
6143,19667
6149,19668
6156,19670
6161,19673
6167,19677
6172,19680
6177,19685
6182,19690
6186,19695
6189,19701
6192,19707
6194,19713
6196,19719
6196,19726
6197,19732
6197,19732
6196,19739
6196,19745
6194,19752
6192,19758
6189,19764
6186,19769
6182,19775
6177,19780
6172,19784
6167,19788
6161,19791
6156,19794
6149,19796
6143,19798
6136,19799
6130,19799
6130,19799
6123,19799
6117,19798
6110,19796
6104,19794
6098,19791
6093,19788
6087,19784
6083,19780
6078,19775
6074,19769
6071,19764
6068,19758
6066,19752
6064,19745
6063,19739
6063,19732
6063,19732
6063,19726
6064,19719
6066,19713
6068,19707
6071,19701
6074,19695
6078,19690
6083,19685
6087,19680
6093,19677
6098,19673
6104,19670
6110,19668
6117,19667
6123,19666
6130,19665
6130,19665
6136,19666
Z" /> 
<path style="fill:#000000; fill-opacity:1.0; 
stroke:#000000; stroke-width:0; stroke-opacity:1; 
stroke-linecap:round; stroke-linejoin:round;fill-rule:evenodd;"
d="M 6451,19666
6458,19667
6464,19668
6470,19670
6476,19673
6482,19677
6487,19680
6492,19685
6497,19690
6500,19695
6504,19701
6507,19707
6509,19713
6510,19719
6511,19726
6512,19732
6512,19732
6511,19739
6510,19745
6509,19752
6507,19758
6504,19764
6500,19769
6497,19775
6492,19780
6487,19784
6482,19788
6476,19791
6470,19794
6464,19796
6458,19798
6451,19799
6445,19799
6445,19799
6438,19799
6432,19798
6425,19796
6419,19794
6413,19791
6408,19788
6402,19784
6398,19780
6393,19775
6389,19769
6386,19764
6383,19758
6381,19752
6379,19745
6378,19739
6378,19732
6378,19732
6378,19726
6379,19719
6381,19713
6383,19707
6386,19701
6389,19695
6393,19690
6398,19685
6402,19680
6408,19677
6413,19673
6419,19670
6425,19668
6432,19667
6438,19666
6445,19665
6445,19665
6451,19666
Z" /> 
<path style="fill:#000000; fill-opacity:1.0; 
stroke:#000000; stroke-width:0; stroke-opacity:1; 
stroke-linecap:round; stroke-linejoin:round;fill-rule:evenodd;"
d="M 6766,19666
6773,19667
6779,19668
6785,19670
6791,19673
6797,19677
6802,19680
6807,19685
6812,19690
6815,19695
6819,19701
6822,19707
6824,19713
6825,19719
6826,19726
6827,19732
6827,19732
6826,19739
6825,19745
6824,19752
6822,19758
6819,19764
6815,19769
6812,19775
6807,19780
6802,19784
6797,19788
6791,19791
6785,19794
6779,19796
6773,19798
6766,19799
6760,19799
6760,19799
6753,19799
6747,19798
6740,19796
6734,19794
6728,19791
6723,19788
6717,19784
6712,19780
6708,19775
6704,19769
6701,19764
6698,19758
6696,19752
6694,19745
6693,19739
6693,19732
6693,19732
6693,19726
6694,19719
6696,19713
6698,19707
6701,19701
6704,19695
6708,19690
6712,19685
6717,19680
6723,19677
6728,19673
6734,19670
6740,19668
6747,19667
6753,19666
6760,19665
6760,19665
6766,19666
Z" /> 
<path style="fill:#000000; fill-opacity:1.0; 
stroke:#000000; stroke-width:0; stroke-opacity:1; 
stroke-linecap:round; stroke-linejoin:round;fill-rule:evenodd;"
d="M 7081,19666
7088,19667
7094,19668
7100,19670
7106,19673
7112,19677
7117,19680
7122,19685
7127,19690
7130,19695
7134,19701
7137,19707
7139,19713
7140,19719
7141,19726
7142,19732
7142,19732
7141,19739
7140,19745
7139,19752
7137,19758
7134,19764
7130,19769
7127,19775
7122,19780
7117,19784
7112,19788
7106,19791
7100,19794
7094,19796
7088,19798
7081,19799
7075,19799
7075,19799
7068,19799
7062,19798
7055,19796
7049,19794
7043,19791
7038,19788
7032,19784
7027,19780
7023,19775
7019,19769
7016,19764
7013,19758
7011,19752
7009,19745
7008,19739
7008,19732
7008,19732
7008,19726
7009,19719
7011,19713
7013,19707
7016,19701
7019,19695
7023,19690
7027,19685
7032,19680
7038,19677
7043,19673
7049,19670
7055,19668
7062,19667
7068,19666
7075,19665
7075,19665
7081,19666
Z" /> 
</g>
<g >
</g>
<g >
</g>
<g >
</g>
<g >
</g>
<g >
</g>
<g >
</g>
<g >
</g>
<g >
</g>
<g style="fill:#000000; fill-opacity:1.0; 
stroke:#000000; stroke-width:0; stroke-opacity:1; 
stroke-linecap:round; stroke-linejoin:round;">
<path style="fill:#000000; fill-opacity:1.0; 
stroke:#000000; stroke-width:0; stroke-opacity:1; 
stroke-linecap:round; stroke-linejoin:round;fill-rule:evenodd;"
d="M 8098,18689
7705,18689
7705,18295
8098,18295
8098,18689
Z" /> 
<path style="fill:#000000; fill-opacity:1.0; 
stroke:#000000; stroke-width:0; stroke-opacity:1; 
stroke-linecap:round; stroke-linejoin:round;fill-rule:evenodd;"
d="M 8098,19319
7705,19319
7705,18925
8098,18925
8098,19319
Z" /> 
</g>
<g >
</g>
<g >
</g>
<g >
</g>
<g style="fill:#000000; fill-opacity:1.0; 
stroke:#000000; stroke-width:0; stroke-opacity:1; 
stroke-linecap:round; stroke-linejoin:round;">
<path style="fill:#000000; fill-opacity:1.0; 
stroke:#000000; stroke-width:0; stroke-opacity:1; 
stroke-linecap:round; stroke-linejoin:round;fill-rule:evenodd;"
d="M 7634,22495
7083,22495
7083,21865
7634,21865
7634,22495
Z" /> 
<path style="fill:#000000; fill-opacity:1.0; 
stroke:#000000; stroke-width:0; stroke-opacity:1; 
stroke-linecap:round; stroke-linejoin:round;fill-rule:evenodd;"
d="M 8737,22495
8185,22495
8185,21865
8737,21865
8737,22495
Z" /> 
</g>
<g >
</g>
<g style="fill:#000000; fill-opacity:1.0; 
stroke:#000000; stroke-width:0; stroke-opacity:1; 
stroke-linecap:round; stroke-linejoin:round;">
<path style="fill:#000000; fill-opacity:1.0; 
stroke:#000000; stroke-width:0; stroke-opacity:1; 
stroke-linecap:round; stroke-linejoin:round;fill-rule:evenodd;"
d="M 6080,21878
6080,22272
5686,22272
5686,21878
6080,21878
Z" /> 
<path style="fill:#000000; fill-opacity:1.0; 
stroke:#000000; stroke-width:0; stroke-opacity:1; 
stroke-linecap:round; stroke-linejoin:round;fill-rule:evenodd;"
d="M 6710,21878
6710,22272
6316,22272
6316,21878
6710,21878
Z" /> 
</g>
<g >
</g>
<g style="fill:#000000; fill-opacity:1.0; 
stroke:#000000; stroke-width:0; stroke-opacity:1; 
stroke-linecap:round; stroke-linejoin:round;">
<path style="fill:#000000; fill-opacity:1.0; 
stroke:#000000; stroke-width:0; stroke-opacity:1; 
stroke-linecap:round; stroke-linejoin:round;fill-rule:evenodd;"
d="M 8098,20146
7705,20146
7705,19752
8098,19752
8098,20146
Z" /> 
<path style="fill:#000000; fill-opacity:1.0; 
stroke:#000000; stroke-width:0; stroke-opacity:1; 
stroke-linecap:round; stroke-linejoin:round;fill-rule:evenodd;"
d="M 8098,20775
7705,20775
7705,20382
8098,20382
8098,20775
Z" /> 
</g>
<g >
</g>
<g style="fill:#000000; fill-opacity:1.0; 
stroke:#000000; stroke-width:0; stroke-opacity:1; 
stroke-linecap:round; stroke-linejoin:round;">
<path style="fill:#000000; fill-opacity:1.0; 
stroke:#000000; stroke-width:0; stroke-opacity:1; 
stroke-linecap:round; stroke-linejoin:round;fill-rule:evenodd;"
d="M 4339,20837
4339,21310
4024,21310
4024,20837
4339,20837
Z" /> 
<path style="fill:#000000; fill-opacity:1.0; 
stroke:#000000; stroke-width:0; stroke-opacity:1; 
stroke-linecap:round; stroke-linejoin:round;fill-rule:evenodd;"
d="M 5047,20837
5047,21310
4732,21310
4732,20837
5047,20837
Z" /> 
</g>
<g >
</g>
<g style="fill:#000000; fill-opacity:1.0; 
stroke:#000000; stroke-width:0; stroke-opacity:1; 
stroke-linecap:round; stroke-linejoin:round;">
<path style="fill:#000000; fill-opacity:1.0; 
stroke:#000000; stroke-width:0; stroke-opacity:1; 
stroke-linecap:round; stroke-linejoin:round;fill-rule:evenodd;"
d="M 6720,18571
6720,18964
6327,18964
6327,18571
6720,18571
Z" /> 
<path style="fill:#000000; fill-opacity:1.0; 
stroke:#000000; stroke-width:0; stroke-opacity:1; 
stroke-linecap:round; stroke-linejoin:round;fill-rule:evenodd;"
d="M 7350,18571
7350,18964
6957,18964
6957,18571
7350,18571
Z" /> 
</g>
<g >
</g>
<g >
</g>
<g >
</g>
<g >
</g>
<g >
</g>
<g >
</g>
<g >
</g>
<g >
</g>
<g >
</g>
<g >
</g>
<g >
</g>
<g >
</g>
<g >
</g>
<g >
</g>
<g >
</g>
<g >
</g>
<g >
</g>
<g >
</g>
<g >
</g>
<g >
</g>
<g >
</g>
<g >
</g>
<g >
</g>
<g >
</g>
<g >
</g>
<g >
</g>
<g >
</g>
<g >
</g>
<g >
</g>
<g >
</g>
<g >
</g>
<g >
</g>
<g >
</g>
<g >
</g>
<g style="fill:#000000; fill-opacity:1.0; 
stroke:#000000; stroke-width:0; stroke-opacity:1; 
stroke-linecap:round; stroke-linejoin:round;">
<path style="fill:#000000; fill-opacity:1.0; 
stroke:#000000; stroke-width:0; stroke-opacity:1; 
stroke-linecap:round; stroke-linejoin:round;fill-rule:evenodd;"
d="M 11278,17961
11671,17961
11671,18433
11278,18433
11278,17961
Z" /> 
<path style="fill:#000000; fill-opacity:1.0; 
stroke:#000000; stroke-width:0; stroke-opacity:1; 
stroke-linecap:round; stroke-linejoin:round;fill-rule:evenodd;"
d="M 9821,17961
10215,17961
10215,18433
9821,18433
9821,17961
Z" /> 
<path style="fill:#000000; fill-opacity:1.0; 
stroke:#000000; stroke-width:0; stroke-opacity:1; 
stroke-linecap:round; stroke-linejoin:round;fill-rule:evenodd;"
d="M 9900,17193
9368,17193
9368,16445
9900,16445
9900,17193
Z" /> 
<path style="fill:#000000; fill-opacity:1.0; 
stroke:#000000; stroke-width:0; stroke-opacity:1; 
stroke-linecap:round; stroke-linejoin:round;fill-rule:evenodd;"
d="M 9900,14842
9368,14842
9368,14094
9900,14094
9900,14842
Z" /> 
<path style="fill:#000000; fill-opacity:1.0; 
stroke:#000000; stroke-width:0; stroke-opacity:1; 
stroke-linecap:round; stroke-linejoin:round;fill-rule:evenodd;"
d="M 14112,13441
14112,13902
13404,13902
13404,13441
14112,13441
Z" /> 
<path style="fill:#000000; fill-opacity:1.0; 
stroke:#000000; stroke-width:0; stroke-opacity:1; 
stroke-linecap:round; stroke-linejoin:round;fill-rule:evenodd;"
d="M 13679,14000
14112,14000
14112,14295
13679,14295
13679,14000
Z" /> 
<path style="fill:#000000; fill-opacity:1.0; 
stroke:#000000; stroke-width:0; stroke-opacity:1; 
stroke-linecap:round; stroke-linejoin:round;fill-rule:evenodd;"
d="M 13679,14394
14112,14394
14112,14728
13679,14728
13679,14394
Z" /> 
<path style="fill:#000000; fill-opacity:1.0; 
stroke:#000000; stroke-width:0; stroke-opacity:1; 
stroke-linecap:round; stroke-linejoin:round;fill-rule:evenodd;"
d="M 13679,14827
14112,14827
14112,15161
13679,15161
13679,14827
Z" /> 
<path style="fill:#000000; fill-opacity:1.0; 
stroke:#000000; stroke-width:0; stroke-opacity:1; 
stroke-linecap:round; stroke-linejoin:round;fill-rule:evenodd;"
d="M 13679,15260
14112,15260
14112,15594
13679,15594
13679,15260
Z" /> 
<path style="fill:#000000; fill-opacity:1.0; 
stroke:#000000; stroke-width:0; stroke-opacity:1; 
stroke-linecap:round; stroke-linejoin:round;fill-rule:evenodd;"
d="M 13679,15693
14112,15693
14112,16028
13679,16028
13679,15693
Z" /> 
<path style="fill:#000000; fill-opacity:1.0; 
stroke:#000000; stroke-width:0; stroke-opacity:1; 
stroke-linecap:round; stroke-linejoin:round;fill-rule:evenodd;"
d="M 13679,16126
14112,16126
14112,16461
13679,16461
13679,16126
Z" /> 
<path style="fill:#000000; fill-opacity:1.0; 
stroke:#000000; stroke-width:0; stroke-opacity:1; 
stroke-linecap:round; stroke-linejoin:round;fill-rule:evenodd;"
d="M 13679,16559
14112,16559
14112,16894
13679,16894
13679,16559
Z" /> 
<path style="fill:#000000; fill-opacity:1.0; 
stroke:#000000; stroke-width:0; stroke-opacity:1; 
stroke-linecap:round; stroke-linejoin:round;fill-rule:evenodd;"
d="M 13679,16992
14112,16992
14112,17327
13679,17327
13679,16992
Z" /> 
<path style="fill:#000000; fill-opacity:1.0; 
stroke:#000000; stroke-width:0; stroke-opacity:1; 
stroke-linecap:round; stroke-linejoin:round;fill-rule:evenodd;"
d="M 13581,17823
14112,17823
14112,18433
13581,18433
13581,17823
Z" /> 
</g>
<g >
</g>
<g >
</g>
<g >
</g>
<g >
</g>
<g >
</g>
</g> 
</svg>
